  0
SECTION
  2
HEADER
  9
$ACADVER
  1
AC1015
  9
$ACADMAINTVER
 70
     6
  9
$DWGCODEPAGE
  3
ANSI_1252
  9
$INSBASE
 10
0.0
 20
0.0
 30
0.0
  9
$EXTMIN
 10
-3.2069199268
 20
-0.3874497131
 30
0.0
  9
$EXTMAX
 10
2.9959221277
 20
26.5976280357
 30
0.0
  9
$LIMMIN
 10
0.0
 20
0.0
  9
$LIMMAX
 10
420.0
 20
297.0
  9
$ORTHOMODE
 70
     0
  9
$REGENMODE
 70
     1
  9
$FILLMODE
 70
     1
  9
$QTEXTMODE
 70
     0
  9
$MIRRTEXT
 70
     1
  9
$LTSCALE
 40
1.0
  9
$ATTMODE
 70
     1
  9
$TEXTSIZE
 40
3.175
  9
$TRACEWID
 40
1.0
  9
$TEXTSTYLE
  7
Standard
  9
$CLAYER
  8
0
  9
$CELTYPE
  6
ByLayer
  9
$CECOLOR
 62
   256
  9
$CELTSCALE
 40
1.0
  9
$DISPSILH
 70
     0
  9
$DIMSCALE
 40
1.0
  9
$DIMASZ
 40
3.302
  9
$DIMEXO
 40
1.27
  9
$DIMDLI
 40
3.75
  9
$DIMRND
 40
0.0
  9
$DIMDLE
 40
0.0
  9
$DIMEXE
 40
3.175
  9
$DIMTP
 40
0.0
  9
$DIMTM
 40
0.0
  9
$DIMTXT
 40
3.175
  9
$DIMCEN
 40
2.5
  9
$DIMTSZ
 40
0.0
  9
$DIMTOL
 70
     0
  9
$DIMLIM
 70
     0
  9
$DIMTIH
 70
     1
  9
$DIMTOH
 70
     1
  9
$DIMSE1
 70
     0
  9
$DIMSE2
 70
     0
  9
$DIMTAD
 70
     0
  9
$DIMZIN
 70
     0
  9
$DIMBLK
  1

  9
$DIMASO
 70
     1
  9
$DIMSHO
 70
     1
  9
$DIMPOST
  1

  9
$DIMAPOST
  1

  9
$DIMALT
 70
     0
  9
$DIMALTD
 70
     3
  9
$DIMALTF
 40
0.0393700787
  9
$DIMLFAC
 40
1.0
  9
$DIMTOFL
 70
     1
  9
$DIMTVP
 40
0.0
  9
$DIMTIX
 70
     0
  9
$DIMSOXD
 70
     0
  9
$DIMSAH
 70
     0
  9
$DIMBLK1
  1

  9
$DIMBLK2
  1

  9
$DIMSTYLE
  2
ISO-25
  9
$DIMCLRD
 70
     0
  9
$DIMCLRE
 70
     0
  9
$DIMCLRT
 70
     0
  9
$DIMTFAC
 40
1.0
  9
$DIMGAP
 40
1.524
  9
$DIMJUST
 70
     0
  9
$DIMSD1
 70
     0
  9
$DIMSD2
 70
     0
  9
$DIMTOLJ
 70
     0
  9
$DIMTZIN
 70
     0
  9
$DIMALTZ
 70
     0
  9
$DIMALTTZ
 70
     0
  9
$DIMUPT
 70
     0
  9
$DIMDEC
 70
     3
  9
$DIMTDEC
 70
     3
  9
$DIMALTU
 70
     2
  9
$DIMALTTD
 70
     3
  9
$DIMTXSTY
  7
Standard
  9
$DIMAUNIT
 70
     0
  9
$DIMADEC
 70
     2
  9
$DIMALTRND
 40
0.0
  9
$DIMAZIN
 70
     0
  9
$DIMDSEP
 70
    44
  9
$DIMATFIT
 70
     3
  9
$DIMFRAC
 70
     0
  9
$DIMLDRBLK
  1

  9
$DIMLUNIT
 70
     2
  9
$DIMLWD
 70
    -2
  9
$DIMLWE
 70
    -2
  9
$DIMTMOVE
 70
     0
  9
$LUNITS
 70
     2
  9
$LUPREC
 70
     2
  9
$SKETCHINC
 40
1.0
  9
$FILLETRAD
 40
10.0
  9
$AUNITS
 70
     0
  9
$AUPREC
 70
     2
  9
$MENU
  1
.
  9
$ELEVATION
 40
0.0
  9
$PELEVATION
 40
0.0
  9
$THICKNESS
 40
0.0
  9
$LIMCHECK
 70
     0
  9
$CHAMFERA
 40
10.0
  9
$CHAMFERB
 40
10.0
  9
$CHAMFERC
 40
20.0
  9
$CHAMFERD
 40
0.0
  9
$SKPOLY
 70
     0
  9
$TDCREATE
 40
2456194.543201354
  9
$TDUCREATE
 40
2456194.043201354
  9
$TDUPDATE
 40
2456194.543411192
  9
$TDUUPDATE
 40
2456194.043411192
  9
$TDINDWG
 40
0.0000000116
  9
$TDUSRTIMER
 40
0.0000000116
  9
$USRTIMER
 70
     1
  9
$ANGBASE
 50
0.0
  9
$ANGDIR
 70
     0
  9
$PDMODE
 70
     0
  9
$PDSIZE
 40
-1.0
  9
$PLINEWID
 40
0.0
  9
$SPLFRAME
 70
     0
  9
$SPLINETYPE
 70
     6
  9
$SPLINESEGS
 70
     8
  9
$HANDSEED
  5
20F
  9
$SURFTAB1
 70
     6
  9
$SURFTAB2
 70
     6
  9
$SURFTYPE
 70
     6
  9
$SURFU
 70
     6
  9
$SURFV
 70
     6
  9
$UCSBASE
  2

  9
$UCSNAME
  2

  9
$UCSORG
 10
0.0
 20
0.0
 30
0.0
  9
$UCSXDIR
 10
1.0
 20
0.0
 30
0.0
  9
$UCSYDIR
 10
0.0
 20
1.0
 30
0.0
  9
$UCSORTHOREF
  2

  9
$UCSORTHOVIEW
 70
     0
  9
$UCSORGTOP
 10
0.0
 20
0.0
 30
0.0
  9
$UCSORGBOTTOM
 10
0.0
 20
0.0
 30
0.0
  9
$UCSORGLEFT
 10
0.0
 20
0.0
 30
0.0
  9
$UCSORGRIGHT
 10
0.0
 20
0.0
 30
0.0
  9
$UCSORGFRONT
 10
0.0
 20
0.0
 30
0.0
  9
$UCSORGBACK
 10
0.0
 20
0.0
 30
0.0
  9
$PUCSBASE
  2

  9
$PUCSNAME
  2

  9
$PUCSORG
 10
0.0
 20
0.0
 30
0.0
  9
$PUCSXDIR
 10
1.0
 20
0.0
 30
0.0
  9
$PUCSYDIR
 10
0.0
 20
1.0
 30
0.0
  9
$PUCSORTHOREF
  2

  9
$PUCSORTHOVIEW
 70
     0
  9
$PUCSORGTOP
 10
0.0
 20
0.0
 30
0.0
  9
$PUCSORGBOTTOM
 10
0.0
 20
0.0
 30
0.0
  9
$PUCSORGLEFT
 10
0.0
 20
0.0
 30
0.0
  9
$PUCSORGRIGHT
 10
0.0
 20
0.0
 30
0.0
  9
$PUCSORGFRONT
 10
0.0
 20
0.0
 30
0.0
  9
$PUCSORGBACK
 10
0.0
 20
0.0
 30
0.0
  9
$USERI1
 70
     0
  9
$USERI2
 70
     0
  9
$USERI3
 70
     0
  9
$USERI4
 70
     0
  9
$USERI5
 70
     0
  9
$USERR1
 40
0.0
  9
$USERR2
 40
0.0
  9
$USERR3
 40
0.0
  9
$USERR4
 40
0.0
  9
$USERR5
 40
0.0
  9
$WORLDVIEW
 70
     1
  9
$SHADEDGE
 70
     3
  9
$SHADEDIF
 70
    70
  9
$TILEMODE
 70
     0
  9
$MAXACTVP
 70
    64
  9
$PINSBASE
 10
0.0
 20
0.0
 30
0.0
  9
$PLIMCHECK
 70
     0
  9
$PEXTMIN
 10
-3.2069199268
 20
-0.3874497131
 30
0.0
  9
$PEXTMAX
 10
2.9959221277
 20
26.5976280357
 30
0.0
  9
$PLIMMIN
 10
0.0
 20
0.0
  9
$PLIMMAX
 10
0.0
 20
0.0
  9
$UNITMODE
 70
     0
  9
$VISRETAIN
 70
     1
  9
$PLINEGEN
 70
     0
  9
$PSLTSCALE
 70
     1
  9
$TREEDEPTH
 70
  3020
  9
$CMLSTYLE
  2
Standard
  9
$CMLJUST
 70
     0
  9
$CMLSCALE
 40
20.0
  9
$PROXYGRAPHICS
 70
     1
  9
$MEASUREMENT
 70
     1
  9
$CELWEIGHT
370
    -1
  9
$ENDCAPS
280
     0
  9
$JOINSTYLE
280
     0
  9
$LWDISPLAY
290
     1
  9
$INSUNITS
 70
     4
  9
$HYPERLINKBASE
  1

  9
$STYLESHEET
  1

  9
$XEDIT
290
     1
  9
$CEPSNTYPE
380
     0
  9
$PSTYLEMODE
290
     1
  9
$FINGERPRINTGUID
  2
{51EC671F-7431-4376-83C8-C21347CBC3AD}
  9
$VERSIONGUID
  2
{FAEB1C32-E019-11D5-929B-00C0DF256EC4}
  9
$EXTNAMES
290
     1
  9
$PSVPSCALE
 40
0.0
  9
$OLESTARTUP
290
     0
  0
ENDSEC
  0
SECTION
  2
CLASSES
  0
CLASS
  1
ACDBDICTIONARYWDFLT
  2
AcDbDictionaryWithDefault
  3
ObjectDBX Classes
 90
        0
280
     0
281
     0
  0
CLASS
  1
VISUALSTYLE
  2
AcDbVisualStyle
  3
ObjectDBX Classes
 90
     4095
280
     0
281
     0
  0
CLASS
  1
MATERIAL
  2
AcDbMaterial
  3
ObjectDBX Classes
 90
     1153
280
     0
281
     0
  0
CLASS
  1
SCALE
  2
AcDbScale
  3
ObjectDBX Classes
 90
     1153
280
     0
281
     0
  0
CLASS
  1
DICTIONARYVAR
  2
AcDbDictionaryVar
  3
ObjectDBX Classes
 90
        0
280
     0
281
     0
  0
CLASS
  1
ACDBPLACEHOLDER
  2
AcDbPlaceHolder
  3
ObjectDBX Classes
 90
        0
280
     0
281
     0
  0
CLASS
  1
LAYOUT
  2
AcDbLayout
  3
ObjectDBX Classes
 90
        0
280
     0
281
     0
  0
ENDSEC
  0
SECTION
  2
TABLES
  0
TABLE
  2
VPORT
  5
8
330
0
100
AcDbSymbolTable
 70
     1
  0
VPORT
  5
29
330
8
100
AcDbSymbolTableRecord
100
AcDbViewportTableRecord
  2
*Active
 70
     0
 10
0.0
 20
0.0
 11
1.0
 21
1.0
 12
-0.1054988996
 22
13.1050891613
 13
0.0
 23
0.0
 14
10.0
 24
10.0
 15
10.0
 25
10.0
 16
0.0
 26
0.0
 36
1.0
 17
0.0
 27
0.0
 37
0.0
 40
27.5247793038
 41
0.2298619301
 42
50.0
 43
0.0
 44
0.0
 50
0.0
 51
0.0
 71
     0
 72
   100
 73
     1
 74
     3
 75
     0
 76
     0
 77
     0
 78
     0
281
     0
 65
     1
110
0.0
120
0.0
130
0.0
111
1.0
121
0.0
131
0.0
112
0.0
122
1.0
132
0.0
 79
     0
146
0.0
  0
ENDTAB
  0
TABLE
  2
LTYPE
  5
5
330
0
100
AcDbSymbolTable
 70
     6
  0
LTYPE
  5
14
330
5
100
AcDbSymbolTableRecord
100
AcDbLinetypeTableRecord
  2
ByBlock
 70
     0
  3

 72
    65
 73
     0
 40
0.0
  0
LTYPE
  5
15
330
5
100
AcDbSymbolTableRecord
100
AcDbLinetypeTableRecord
  2
ByLayer
 70
     0
  3

 72
    65
 73
     0
 40
0.0
  0
LTYPE
  5
16
330
5
100
AcDbSymbolTableRecord
100
AcDbLinetypeTableRecord
  2
Continuous
 70
     0
  3
Solid line
 72
    65
 73
     0
 40
0.0
  0
LTYPE
  5
3F
330
5
100
AcDbSymbolTableRecord
100
AcDbLinetypeTableRecord
  2
HIDDEN
 70
     0
  3
Hidden __ __ __ __ __ __ __ __ __ __ __ __ __ __
 72
    65
 73
     2
 40
1.905
 49
1.27
 74
     0
 49
-0.635
 74
     0
  0
LTYPE
  5
40
330
5
100
AcDbSymbolTableRecord
100
AcDbLinetypeTableRecord
  2
PHANTOM
 70
     0
  3
Phantom ______  __  __  ______  __  __  ______
 72
    65
 73
     6
 40
12.7
 49
6.35
 74
     0
 49
-1.27
 74
     0
 49
1.27
 74
     0
 49
-1.27
 74
     0
 49
1.27
 74
     0
 49
-1.27
 74
     0
  0
LTYPE
  5
41
330
5
100
AcDbSymbolTableRecord
100
AcDbLinetypeTableRecord
  2
CENTER
 70
     0
  3
Center ____ _ ____ _ ____ _ ____ _ ____ _ ____
 72
    65
 73
     4
 40
10.16
 49
6.35
 74
     0
 49
-1.27
 74
     0
 49
1.27
 74
     0
 49
-1.27
 74
     0
  0
LTYPE
  5
42
330
5
100
AcDbSymbolTableRecord
100
AcDbLinetypeTableRecord
  2
CENTERX2
 70
     0
  3
Center (2x) ________  __  ________  __  _____
 72
    65
 73
     4
 40
20.32
 49
12.7
 74
     0
 49
-2.54
 74
     0
 49
2.54
 74
     0
 49
-2.54
 74
     0
  0
LTYPE
  5
43
330
5
100
AcDbSymbolTableRecord
100
AcDbLinetypeTableRecord
  2
DOT2
 70
     0
  3
Dot (.5x) ........................................
 72
    65
 73
     2
 40
0.635
 49
0.0
 74
     0
 49
-0.635
 74
     0
  0
ENDTAB
  0
TABLE
  2
LAYER
  5
2
330
0
100
AcDbSymbolTable
 70
     1
  0
LAYER
  5
10
330
2
100
AcDbSymbolTableRecord
100
AcDbLayerTableRecord
  2
0
 70
     0
 62
     7
  6
Continuous
370
    -3
390
F
  0
ENDTAB
  0
TABLE
  2
STYLE
  5
3
330
0
100
AcDbSymbolTable
 70
     1
  0
STYLE
  5
11
330
3
100
AcDbSymbolTableRecord
100
AcDbTextStyleTableRecord
  2
Standard
 70
     0
 40
0.0
 41
1.0
 50
0.0
 71
     0
 42
3.175
  3
txt
  4

  0
ENDTAB
  0
TABLE
  2
VIEW
  5
6
330
0
100
AcDbSymbolTable
 70
     0
  0
ENDTAB
  0
TABLE
  2
UCS
  5
7
330
0
100
AcDbSymbolTable
 70
     0
  0
ENDTAB
  0
TABLE
  2
APPID
  5
9
330
0
100
AcDbSymbolTable
 70
     1
  0
APPID
  5
12
330
9
100
AcDbSymbolTableRecord
100
AcDbRegAppTableRecord
  2
ACAD
 70
     0
  0
ENDTAB
  0
TABLE
  2
DIMSTYLE
  5
A
330
0
100
AcDbSymbolTable
 70
     1
100
AcDbDimStyleTable
  0
DIMSTYLE
105
27
330
A
100
AcDbSymbolTableRecord
100
AcDbDimStyleTableRecord
  2
ISO-25
 70
     0
 41
2.5
 42
0.625
 43
3.75
 44
1.25
 73
     0
 74
     0
 77
     1
 78
     8
140
2.5
141
2.5
143
0.0393700787
147
0.625
171
     3
172
     1
178
     0
271
     2
272
     2
274
     3
278
    44
283
     0
284
     8
340
11
  0
ENDTAB
  0
TABLE
  2
BLOCK_RECORD
  5
1
330
0
100
AcDbSymbolTable
 70
     8
  0
BLOCK_RECORD
  5
1F
330
1
100
AcDbSymbolTableRecord
100
AcDbBlockTableRecord
  2
*Model_Space
340
22
  0
BLOCK_RECORD
  5
1AD
330
1
100
AcDbSymbolTableRecord
100
AcDbBlockTableRecord
  2
*Paper_Space
340
1AE
  0
BLOCK_RECORD
  5
1B
330
1
100
AcDbSymbolTableRecord
100
AcDbBlockTableRecord
  2
*Paper_Space0
340
1E
  0
BLOCK_RECORD
  5
23
330
1
100
AcDbSymbolTableRecord
100
AcDbBlockTableRecord
  2
*Paper_Space1
340
26
  0
BLOCK_RECORD
  5
A6
330
1
100
AcDbSymbolTableRecord
100
AcDbBlockTableRecord
  2
*Paper_Space2
340
A7
  0
BLOCK_RECORD
  5
D6
330
1
100
AcDbSymbolTableRecord
100
AcDbBlockTableRecord
  2
*Paper_Space3
340
D7
  0
BLOCK_RECORD
  5
108
330
1
100
AcDbSymbolTableRecord
100
AcDbBlockTableRecord
  2
*Paper_Space4
340
109
  0
BLOCK_RECORD
  5
13E
330
1
100
AcDbSymbolTableRecord
100
AcDbBlockTableRecord
  2
*Paper_Space5
340
13F
  0
BLOCK_RECORD
  5
145
330
1
100
AcDbSymbolTableRecord
100
AcDbBlockTableRecord
  2
*Paper_Space6
340
146
  0
BLOCK_RECORD
  5
179
330
1
100
AcDbSymbolTableRecord
100
AcDbBlockTableRecord
  2
*Paper_Space7
340
17A
  0
ENDTAB
  0
ENDSEC
  0
SECTION
  2
BLOCKS
  0
BLOCK
  5
20
330
1F
100
AcDbEntity
  8
0
100
AcDbBlockBegin
  2
*Model_Space
 70
     0
 10
0.0
 20
0.0
 30
0.0
  3
*Model_Space
  1

  0
ENDBLK
  5
21
330
1F
100
AcDbEntity
  8
0
100
AcDbBlockEnd
  0
BLOCK
  5
1AF
330
1AD
100
AcDbEntity
 67
     1
  8
0
100
AcDbBlockBegin
  2
*Paper_Space
 70
     0
 10
0.0
 20
0.0
 30
0.0
  3
*Paper_Space
  1

  0
ENDBLK
  5
1B0
330
1AD
100
AcDbEntity
 67
     1
  8
0
100
AcDbBlockEnd
  0
BLOCK
  5
1C
330
1B
100
AcDbEntity
  8
0
100
AcDbBlockBegin
  2
*Paper_Space0
 70
     0
 10
0.0
 20
0.0
 30
0.0
  3
*Paper_Space0
  1

  0
LINE
  5
8C
330
1B
100
AcDbEntity
  8
0
  6
Continuous
 62
     7
370
    15
100
AcDbLine
 10
3.0
 20
0.5
 30
0.0
 11
3.0
 21
5.0
 31
0.0
  0
LINE
  5
8D
330
1B
100
AcDbEntity
  8
0
  6
Continuous
 62
     7
370
    15
100
AcDbLine
 10
-3.0
 20
5.0
 30
0.0
 11
-3.0
 21
0.5
 31
0.0
  0
LINE
  5
8E
330
1B
100
AcDbEntity
  8
0
  6
Continuous
 62
     7
370
    15
100
AcDbLine
 10
-3.0
 20
0.5
 30
0.0
 11
-2.5
 21
0.0
 31
0.0
  0
LINE
  5
8F
330
1B
100
AcDbEntity
  8
0
  6
Continuous
 62
     7
370
    15
100
AcDbLine
 10
2.5
 20
0.0
 30
0.0
 11
3.0
 21
0.5
 31
0.0
  0
LINE
  5
90
330
1B
100
AcDbEntity
  8
0
  6
Continuous
 62
     7
370
    15
100
AcDbLine
 10
3.0
 20
5.0
 30
0.0
 11
2.0
 21
6.0
 31
0.0
  0
LINE
  5
91
330
1B
100
AcDbEntity
  8
0
  6
Continuous
 62
     7
370
    15
100
AcDbLine
 10
-2.0
 20
6.0
 30
0.0
 11
-3.0
 21
5.0
 31
0.0
  0
LINE
  5
92
330
1B
100
AcDbEntity
  8
0
  6
Continuous
 62
     7
370
    15
100
AcDbLine
 10
-2.9999999999
 20
8.6
 30
0.0
 11
-1.9999999999
 21
7.6
 31
0.0
  0
LINE
  5
93
330
1B
100
AcDbEntity
  8
0
  6
Continuous
 62
     7
370
    15
100
AcDbLine
 10
1.9999999999
 20
7.6
 30
0.0
 11
2.9999999999
 21
8.6
 31
0.0
  0
LINE
  5
94
330
1B
100
AcDbEntity
  8
0
  6
Continuous
 62
     7
370
    15
100
AcDbLine
 10
2.9999999999
 20
8.6
 30
0.0
 11
2.9999999999
 21
26.0
 31
0.0
  0
LINE
  5
95
330
1B
100
AcDbEntity
  8
0
  6
Continuous
 62
     7
370
    15
100
AcDbLine
 10
-2.9999999999
 20
26.0
 30
0.0
 11
-2.9999999999
 21
8.6
 31
0.0
  0
LINE
  5
96
330
1B
100
AcDbEntity
  8
0
  6
Continuous
 62
     7
370
    15
100
AcDbLine
 10
2.9999999999
 20
26.0
 30
0.0
 11
2.4999999999
 21
26.5
 31
0.0
  0
LINE
  5
97
330
1B
100
AcDbEntity
  8
0
  6
Continuous
 62
     7
370
    15
100
AcDbLine
 10
-2.4999999999
 20
26.5
 30
0.0
 11
-2.9999999999
 21
26.0
 31
0.0
  0
LINE
  5
98
330
1B
100
AcDbEntity
  8
0
  6
Continuous
 62
     7
370
    15
100
AcDbLine
 10
2.0
 20
6.0
 30
0.0
 11
2.0
 21
7.6
 31
0.0
  0
LINE
  5
99
330
1B
100
AcDbEntity
  8
0
  6
Continuous
 62
     7
370
    15
100
AcDbLine
 10
-2.0
 20
7.6
 30
0.0
 11
-2.0
 21
6.0
 31
0.0
  0
LINE
  5
9A
330
1B
100
AcDbEntity
  8
0
  6
Continuous
 62
     7
370
    15
100
AcDbLine
 10
3.0
 20
5.0
 30
0.0
 11
-3.0
 21
5.0
 31
0.0
  0
LINE
  5
9B
330
1B
100
AcDbEntity
  8
0
  6
Continuous
 62
     7
370
    15
100
AcDbLine
 10
-3.0
 20
0.5
 30
0.0
 11
3.0
 21
0.5
 31
0.0
  0
LINE
  5
9C
330
1B
100
AcDbEntity
  8
0
  6
Continuous
 62
     7
370
    15
100
AcDbLine
 10
2.5
 20
0.0
 30
0.0
 11
-2.5
 21
0.0
 31
0.0
  0
LINE
  5
9D
330
1B
100
AcDbEntity
  8
0
  6
Continuous
 62
     7
370
    15
100
AcDbLine
 10
2.0
 20
6.0
 30
0.0
 11
-2.0
 21
6.0
 31
0.0
  0
LINE
  5
9E
330
1B
100
AcDbEntity
  8
0
  6
Continuous
 62
     7
370
    15
100
AcDbLine
 10
2.9999999999
 20
8.6
 30
0.0
 11
-2.9999999999
 21
8.6
 31
0.0
  0
LINE
  5
9F
330
1B
100
AcDbEntity
  8
0
  6
Continuous
 62
     7
370
    15
100
AcDbLine
 10
1.9999999999
 20
7.6
 30
0.0
 11
-1.9999999999
 21
7.6
 31
0.0
  0
LINE
  5
A0
330
1B
100
AcDbEntity
  8
0
  6
Continuous
 62
     7
370
    15
100
AcDbLine
 10
2.9999999999
 20
26.0
 30
0.0
 11
-2.9999999999
 21
26.0
 31
0.0
  0
LINE
  5
A1
330
1B
100
AcDbEntity
  8
0
  6
Continuous
 62
     7
370
    15
100
AcDbLine
 10
-2.4999999999
 20
26.5
 30
0.0
 11
2.4999999999
 21
26.5
 31
0.0
  0
VIEWPORT
  5
1E2
330
1B
100
AcDbEntity
  8
0
100
AcDbViewport
 10
0.0
 20
0.0
 30
0.0
 40
243.84
 41
204.216
 68
     1
 69
     1
 12
-0.1054988996
 22
13.1050891613
 13
0.0
 23
0.0
 14
10.0
 24
10.0
 15
10.0
 25
10.0
 16
0.0
 26
0.0
 36
1.0
 17
0.0
 27
0.0
 37
0.0
 42
50.0
 43
0.0
 44
0.0
 45
27.5247793038
 50
0.0
 51
0.0
 72
   100
 90
   557152
  1

281
     0
 71
     1
 74
     0
110
0.0
120
0.0
130
0.0
111
1.0
121
0.0
131
0.0
112
0.0
122
1.0
132
0.0
 79
     0
146
0.0
  0
ENDBLK
  5
1D
330
1B
100
AcDbEntity
  8
0
100
AcDbBlockEnd
  0
BLOCK
  5
24
330
23
100
AcDbEntity
  8
0
100
AcDbBlockBegin
  2
*Paper_Space1
 70
     0
 10
0.0
 20
0.0
 30
0.0
  3
*Paper_Space1
  1

  0
CIRCLE
  5
A2
330
23
100
AcDbEntity
  8
0
  6
Continuous
 62
     7
370
    15
100
AcDbCircle
 10
0.0
 20
0.0
 30
0.0
 40
1.499999999922096
  0
CIRCLE
  5
A3
330
23
100
AcDbEntity
  8
0
  6
Continuous
 62
     7
370
    15
100
AcDbCircle
 10
0.0
 20
0.0
 30
0.0
 40
2.499999999923669
  0
CIRCLE
  5
A4
330
23
100
AcDbEntity
  8
0
  6
Continuous
 62
     7
370
    15
100
AcDbCircle
 10
0.0
 20
0.0
 30
0.0
 40
2.999999999923878
  0
CIRCLE
  5
A5
330
23
100
AcDbEntity
  8
0
  6
Continuous
 62
     7
370
    15
100
AcDbCircle
 10
0.0
 20
0.0
 30
0.0
 40
0.9999999999609999
  0
VIEWPORT
  5
1E3
330
23
100
AcDbEntity
  8
0
100
AcDbViewport
 10
0.0
 20
0.0
 30
0.0
 40
243.84
 41
204.216
 68
     1
 69
     1
 12
-0.1054988996
 22
13.1050891613
 13
0.0
 23
0.0
 14
10.0
 24
10.0
 15
10.0
 25
10.0
 16
0.0
 26
0.0
 36
1.0
 17
0.0
 27
0.0
 37
0.0
 42
50.0
 43
0.0
 44
0.0
 45
27.5247793038
 50
0.0
 51
0.0
 72
   100
 90
   557152
  1

281
     0
 71
     1
 74
     0
110
0.0
120
0.0
130
0.0
111
1.0
121
0.0
131
0.0
112
0.0
122
1.0
132
0.0
 79
     0
146
0.0
  0
ENDBLK
  5
25
330
23
100
AcDbEntity
  8
0
100
AcDbBlockEnd
  0
BLOCK
  5
A8
330
A6
100
AcDbEntity
  8
0
100
AcDbBlockBegin
  2
*Paper_Space2
 70
     0
 10
0.0
 20
0.0
 30
0.0
  3
*Paper_Space2
  1

  0
LINE
  5
C0
330
A6
100
AcDbEntity
  8
0
  6
Continuous
 62
     7
370
    15
100
AcDbLine
 10
3.0
 20
0.5
 30
0.0
 11
3.0
 21
5.0
 31
0.0
  0
LINE
  5
C1
330
A6
100
AcDbEntity
  8
0
  6
Continuous
 62
     7
370
    15
100
AcDbLine
 10
-3.0
 20
5.0
 30
0.0
 11
-3.0
 21
0.5
 31
0.0
  0
LINE
  5
C2
330
A6
100
AcDbEntity
  8
0
  6
Continuous
 62
     7
370
    15
100
AcDbLine
 10
-3.0
 20
0.5
 30
0.0
 11
-2.5
 21
0.0
 31
0.0
  0
LINE
  5
C3
330
A6
100
AcDbEntity
  8
0
  6
Continuous
 62
     7
370
    15
100
AcDbLine
 10
2.5
 20
0.0
 30
0.0
 11
3.0
 21
0.5
 31
0.0
  0
LINE
  5
C4
330
A6
100
AcDbEntity
  8
0
  6
Continuous
 62
     7
370
    15
100
AcDbLine
 10
3.0
 20
5.0
 30
0.0
 11
2.0
 21
6.0
 31
0.0
  0
LINE
  5
C5
330
A6
100
AcDbEntity
  8
0
  6
Continuous
 62
     7
370
    15
100
AcDbLine
 10
-2.0
 20
6.0
 30
0.0
 11
-3.0
 21
5.0
 31
0.0
  0
LINE
  5
C6
330
A6
100
AcDbEntity
  8
0
  6
Continuous
 62
     7
370
    15
100
AcDbLine
 10
-2.9999999999
 20
8.6
 30
0.0
 11
-1.9999999999
 21
7.6
 31
0.0
  0
LINE
  5
C7
330
A6
100
AcDbEntity
  8
0
  6
Continuous
 62
     7
370
    15
100
AcDbLine
 10
1.9999999999
 20
7.6
 30
0.0
 11
2.9999999999
 21
8.6
 31
0.0
  0
LINE
  5
C8
330
A6
100
AcDbEntity
  8
0
  6
Continuous
 62
     7
370
    15
100
AcDbLine
 10
2.9999999999
 20
8.6
 30
0.0
 11
2.9999999999
 21
26.0
 31
0.0
  0
LINE
  5
C9
330
A6
100
AcDbEntity
  8
0
  6
Continuous
 62
     7
370
    15
100
AcDbLine
 10
-2.9999999999
 20
26.0
 30
0.0
 11
-2.9999999999
 21
8.6
 31
0.0
  0
LINE
  5
CA
330
A6
100
AcDbEntity
  8
0
  6
Continuous
 62
     7
370
    15
100
AcDbLine
 10
2.9999999999
 20
26.0
 30
0.0
 11
2.4999999999
 21
26.5
 31
0.0
  0
LINE
  5
CB
330
A6
100
AcDbEntity
  8
0
  6
Continuous
 62
     7
370
    15
100
AcDbLine
 10
-2.4999999999
 20
26.5
 30
0.0
 11
-2.9999999999
 21
26.0
 31
0.0
  0
LINE
  5
CC
330
A6
100
AcDbEntity
  8
0
  6
Continuous
 62
     7
370
    15
100
AcDbLine
 10
2.0
 20
6.0
 30
0.0
 11
2.0
 21
7.6
 31
0.0
  0
LINE
  5
CD
330
A6
100
AcDbEntity
  8
0
  6
Continuous
 62
     7
370
    15
100
AcDbLine
 10
-2.0
 20
7.6
 30
0.0
 11
-2.0
 21
6.0
 31
0.0
  0
LINE
  5
CE
330
A6
100
AcDbEntity
  8
0
  6
Continuous
 62
     7
370
    15
100
AcDbLine
 10
3.0
 20
5.0
 30
0.0
 11
-3.0
 21
5.0
 31
0.0
  0
LINE
  5
CF
330
A6
100
AcDbEntity
  8
0
  6
Continuous
 62
     7
370
    15
100
AcDbLine
 10
-3.0
 20
0.5
 30
0.0
 11
3.0
 21
0.5
 31
0.0
  0
LINE
  5
D0
330
A6
100
AcDbEntity
  8
0
  6
Continuous
 62
     7
370
    15
100
AcDbLine
 10
2.5
 20
0.0
 30
0.0
 11
-2.5
 21
0.0
 31
0.0
  0
LINE
  5
D1
330
A6
100
AcDbEntity
  8
0
  6
Continuous
 62
     7
370
    15
100
AcDbLine
 10
2.0
 20
6.0
 30
0.0
 11
-2.0
 21
6.0
 31
0.0
  0
LINE
  5
D2
330
A6
100
AcDbEntity
  8
0
  6
Continuous
 62
     7
370
    15
100
AcDbLine
 10
2.9999999999
 20
8.6
 30
0.0
 11
-2.9999999999
 21
8.6
 31
0.0
  0
LINE
  5
D3
330
A6
100
AcDbEntity
  8
0
  6
Continuous
 62
     7
370
    15
100
AcDbLine
 10
1.9999999999
 20
7.6
 30
0.0
 11
-1.9999999999
 21
7.6
 31
0.0
  0
LINE
  5
D4
330
A6
100
AcDbEntity
  8
0
  6
Continuous
 62
     7
370
    15
100
AcDbLine
 10
2.9999999999
 20
26.0
 30
0.0
 11
-2.9999999999
 21
26.0
 31
0.0
  0
LINE
  5
D5
330
A6
100
AcDbEntity
  8
0
  6
Continuous
 62
     7
370
    15
100
AcDbLine
 10
-2.4999999999
 20
26.5
 30
0.0
 11
2.4999999999
 21
26.5
 31
0.0
  0
VIEWPORT
  5
1E4
330
A6
100
AcDbEntity
  8
0
100
AcDbViewport
 10
0.0
 20
0.0
 30
0.0
 40
243.84
 41
204.216
 68
     1
 69
     1
 12
-0.1054988996
 22
13.1050891613
 13
0.0
 23
0.0
 14
10.0
 24
10.0
 15
10.0
 25
10.0
 16
0.0
 26
0.0
 36
1.0
 17
0.0
 27
0.0
 37
0.0
 42
50.0
 43
0.0
 44
0.0
 45
27.5247793038
 50
0.0
 51
0.0
 72
   100
 90
   557152
  1

281
     0
 71
     1
 74
     0
110
0.0
120
0.0
130
0.0
111
1.0
121
0.0
131
0.0
112
0.0
122
1.0
132
0.0
 79
     0
146
0.0
  0
ENDBLK
  5
A9
330
A6
100
AcDbEntity
  8
0
100
AcDbBlockEnd
  0
BLOCK
  5
D8
330
D6
100
AcDbEntity
  8
0
100
AcDbBlockBegin
  2
*Paper_Space3
 70
     0
 10
0.0
 20
0.0
 30
0.0
  3
*Paper_Space3
  1

  0
LINE
  5
F2
330
D6
100
AcDbEntity
  8
0
  6
Continuous
 62
     7
370
    15
100
AcDbLine
 10
3.0
 20
0.5
 30
0.0
 11
3.0
 21
5.0
 31
0.0
  0
LINE
  5
F3
330
D6
100
AcDbEntity
  8
0
  6
Continuous
 62
     7
370
    15
100
AcDbLine
 10
-3.0
 20
5.0
 30
0.0
 11
-3.0
 21
0.5
 31
0.0
  0
LINE
  5
F4
330
D6
100
AcDbEntity
  8
0
  6
Continuous
 62
     7
370
    15
100
AcDbLine
 10
3.0
 20
5.0
 30
0.0
 11
2.0
 21
6.0
 31
0.0
  0
LINE
  5
F5
330
D6
100
AcDbEntity
  8
0
  6
Continuous
 62
     7
370
    15
100
AcDbLine
 10
-2.0
 20
6.0
 30
0.0
 11
-3.0
 21
5.0
 31
0.0
  0
LINE
  5
F6
330
D6
100
AcDbEntity
  8
0
  6
Continuous
 62
     7
370
    15
100
AcDbLine
 10
-3.0
 20
0.5
 30
0.0
 11
-2.5
 21
0.0
 31
0.0
  0
LINE
  5
F7
330
D6
100
AcDbEntity
  8
0
  6
Continuous
 62
     7
370
    15
100
AcDbLine
 10
2.5
 20
0.0
 30
0.0
 11
3.0
 21
0.5
 31
0.0
  0
LINE
  5
F8
330
D6
100
AcDbEntity
  8
0
  6
Continuous
 62
     7
370
    15
100
AcDbLine
 10
2.9999999999
 20
26.0
 30
0.0
 11
2.4999999999
 21
26.5
 31
0.0
  0
LINE
  5
F9
330
D6
100
AcDbEntity
  8
0
  6
Continuous
 62
     7
370
    15
100
AcDbLine
 10
-2.4999999999
 20
26.5
 30
0.0
 11
-2.9999999999
 21
26.0
 31
0.0
  0
LINE
  5
FA
330
D6
100
AcDbEntity
  8
0
  6
Continuous
 62
     7
370
    15
100
AcDbLine
 10
2.9999999999
 20
8.6
 30
0.0
 11
2.9999999999
 21
26.0
 31
0.0
  0
LINE
  5
FB
330
D6
100
AcDbEntity
  8
0
  6
Continuous
 62
     7
370
    15
100
AcDbLine
 10
-2.9999999999
 20
26.0
 30
0.0
 11
-2.9999999999
 21
8.6
 31
0.0
  0
LINE
  5
FC
330
D6
100
AcDbEntity
  8
0
  6
Continuous
 62
     7
370
    15
100
AcDbLine
 10
-2.9999999999
 20
8.6
 30
0.0
 11
-1.9999999999
 21
7.6
 31
0.0
  0
LINE
  5
FD
330
D6
100
AcDbEntity
  8
0
  6
Continuous
 62
     7
370
    15
100
AcDbLine
 10
1.9999999999
 20
7.6
 30
0.0
 11
2.9999999999
 21
8.6
 31
0.0
  0
LINE
  5
FE
330
D6
100
AcDbEntity
  8
0
  6
Continuous
 62
     7
370
    15
100
AcDbLine
 10
2.0
 20
6.0
 30
0.0
 11
2.0
 21
7.6
 31
0.0
  0
LINE
  5
FF
330
D6
100
AcDbEntity
  8
0
  6
Continuous
 62
     7
370
    15
100
AcDbLine
 10
-2.0
 20
7.6
 30
0.0
 11
-2.0
 21
6.0
 31
0.0
  0
LINE
  5
100
330
D6
100
AcDbEntity
  8
0
  6
Continuous
 62
     7
370
    15
100
AcDbLine
 10
3.0
 20
5.0
 30
0.0
 11
-3.0
 21
5.0
 31
0.0
  0
LINE
  5
101
330
D6
100
AcDbEntity
  8
0
  6
Continuous
 62
     7
370
    15
100
AcDbLine
 10
-3.0
 20
0.5
 30
0.0
 11
3.0
 21
0.5
 31
0.0
  0
LINE
  5
102
330
D6
100
AcDbEntity
  8
0
  6
Continuous
 62
     7
370
    15
100
AcDbLine
 10
2.0
 20
6.0
 30
0.0
 11
-2.0
 21
6.0
 31
0.0
  0
LINE
  5
103
330
D6
100
AcDbEntity
  8
0
  6
Continuous
 62
     7
370
    15
100
AcDbLine
 10
2.5
 20
0.0
 30
0.0
 11
-2.5
 21
0.0
 31
0.0
  0
LINE
  5
104
330
D6
100
AcDbEntity
  8
0
  6
Continuous
 62
     7
370
    15
100
AcDbLine
 10
2.9999999999
 20
26.0
 30
0.0
 11
-2.9999999999
 21
26.0
 31
0.0
  0
LINE
  5
105
330
D6
100
AcDbEntity
  8
0
  6
Continuous
 62
     7
370
    15
100
AcDbLine
 10
-2.4999999999
 20
26.5
 30
0.0
 11
2.4999999999
 21
26.5
 31
0.0
  0
LINE
  5
106
330
D6
100
AcDbEntity
  8
0
  6
Continuous
 62
     7
370
    15
100
AcDbLine
 10
2.9999999999
 20
8.6
 30
0.0
 11
-2.9999999999
 21
8.6
 31
0.0
  0
LINE
  5
107
330
D6
100
AcDbEntity
  8
0
  6
Continuous
 62
     7
370
    15
100
AcDbLine
 10
1.9999999999
 20
7.6
 30
0.0
 11
-1.9999999999
 21
7.6
 31
0.0
  0
VIEWPORT
  5
1E5
330
D6
100
AcDbEntity
  8
0
100
AcDbViewport
 10
0.0
 20
0.0
 30
0.0
 40
243.84
 41
204.216
 68
     1
 69
     1
 12
-0.1054988996
 22
13.1050891613
 13
0.0
 23
0.0
 14
10.0
 24
10.0
 15
10.0
 25
10.0
 16
0.0
 26
0.0
 36
1.0
 17
0.0
 27
0.0
 37
0.0
 42
50.0
 43
0.0
 44
0.0
 45
27.5247793038
 50
0.0
 51
0.0
 72
   100
 90
   557152
  1

281
     0
 71
     1
 74
     0
110
0.0
120
0.0
130
0.0
111
1.0
121
0.0
131
0.0
112
0.0
122
1.0
132
0.0
 79
     0
146
0.0
  0
ENDBLK
  5
D9
330
D6
100
AcDbEntity
  8
0
100
AcDbBlockEnd
  0
BLOCK
  5
10A
330
108
100
AcDbEntity
  8
0
100
AcDbBlockBegin
  2
*Paper_Space4
 70
     0
 10
0.0
 20
0.0
 30
0.0
  3
*Paper_Space4
  1

  0
LINE
  5
128
330
108
100
AcDbEntity
  8
0
  6
Continuous
 62
     7
370
    15
100
AcDbLine
 10
3.0
 20
0.5
 30
0.0
 11
3.0
 21
5.0
 31
0.0
  0
LINE
  5
129
330
108
100
AcDbEntity
  8
0
  6
Continuous
 62
     7
370
    15
100
AcDbLine
 10
-3.0
 20
5.0
 30
0.0
 11
-3.0
 21
0.5
 31
0.0
  0
LINE
  5
12A
330
108
100
AcDbEntity
  8
0
  6
Continuous
 62
     7
370
    15
100
AcDbLine
 10
-3.0
 20
0.5
 30
0.0
 11
-2.5
 21
0.0
 31
0.0
  0
LINE
  5
12B
330
108
100
AcDbEntity
  8
0
  6
Continuous
 62
     7
370
    15
100
AcDbLine
 10
2.5
 20
0.0
 30
0.0
 11
3.0
 21
0.5
 31
0.0
  0
LINE
  5
12C
330
108
100
AcDbEntity
  8
0
  6
Continuous
 62
     7
370
    15
100
AcDbLine
 10
3.0
 20
5.0
 30
0.0
 11
2.0
 21
6.0
 31
0.0
  0
LINE
  5
12D
330
108
100
AcDbEntity
  8
0
  6
Continuous
 62
     7
370
    15
100
AcDbLine
 10
-2.0
 20
6.0
 30
0.0
 11
-3.0
 21
5.0
 31
0.0
  0
LINE
  5
12E
330
108
100
AcDbEntity
  8
0
  6
Continuous
 62
     7
370
    15
100
AcDbLine
 10
-2.9999999999
 20
8.6
 30
0.0
 11
-1.9999999999
 21
7.6
 31
0.0
  0
LINE
  5
12F
330
108
100
AcDbEntity
  8
0
  6
Continuous
 62
     7
370
    15
100
AcDbLine
 10
1.9999999999
 20
7.6
 30
0.0
 11
2.9999999999
 21
8.6
 31
0.0
  0
LINE
  5
130
330
108
100
AcDbEntity
  8
0
  6
Continuous
 62
     7
370
    15
100
AcDbLine
 10
2.9999999999
 20
8.6
 30
0.0
 11
2.9999999999
 21
26.0
 31
0.0
  0
LINE
  5
131
330
108
100
AcDbEntity
  8
0
  6
Continuous
 62
     7
370
    15
100
AcDbLine
 10
-2.9999999999
 20
26.0
 30
0.0
 11
-2.9999999999
 21
8.6
 31
0.0
  0
LINE
  5
132
330
108
100
AcDbEntity
  8
0
  6
Continuous
 62
     7
370
    15
100
AcDbLine
 10
2.9999999999
 20
26.0
 30
0.0
 11
2.4999999999
 21
26.5
 31
0.0
  0
LINE
  5
133
330
108
100
AcDbEntity
  8
0
  6
Continuous
 62
     7
370
    15
100
AcDbLine
 10
-2.4999999999
 20
26.5
 30
0.0
 11
-2.9999999999
 21
26.0
 31
0.0
  0
LINE
  5
134
330
108
100
AcDbEntity
  8
0
  6
Continuous
 62
     7
370
    15
100
AcDbLine
 10
2.0
 20
6.0
 30
0.0
 11
2.0
 21
7.6
 31
0.0
  0
LINE
  5
135
330
108
100
AcDbEntity
  8
0
  6
Continuous
 62
     7
370
    15
100
AcDbLine
 10
-2.0
 20
7.6
 30
0.0
 11
-2.0
 21
6.0
 31
0.0
  0
LINE
  5
136
330
108
100
AcDbEntity
  8
0
  6
Continuous
 62
     7
370
    15
100
AcDbLine
 10
3.0
 20
5.0
 30
0.0
 11
-3.0
 21
5.0
 31
0.0
  0
LINE
  5
137
330
108
100
AcDbEntity
  8
0
  6
Continuous
 62
     7
370
    15
100
AcDbLine
 10
-3.0
 20
0.5
 30
0.0
 11
3.0
 21
0.5
 31
0.0
  0
LINE
  5
138
330
108
100
AcDbEntity
  8
0
  6
Continuous
 62
     7
370
    15
100
AcDbLine
 10
2.5
 20
0.0
 30
0.0
 11
-2.5
 21
0.0
 31
0.0
  0
LINE
  5
139
330
108
100
AcDbEntity
  8
0
  6
Continuous
 62
     7
370
    15
100
AcDbLine
 10
2.0
 20
6.0
 30
0.0
 11
-2.0
 21
6.0
 31
0.0
  0
LINE
  5
13A
330
108
100
AcDbEntity
  8
0
  6
Continuous
 62
     7
370
    15
100
AcDbLine
 10
2.9999999999
 20
8.6
 30
0.0
 11
-2.9999999999
 21
8.6
 31
0.0
  0
LINE
  5
13B
330
108
100
AcDbEntity
  8
0
  6
Continuous
 62
     7
370
    15
100
AcDbLine
 10
1.9999999999
 20
7.6
 30
0.0
 11
-1.9999999999
 21
7.6
 31
0.0
  0
LINE
  5
13C
330
108
100
AcDbEntity
  8
0
  6
Continuous
 62
     7
370
    15
100
AcDbLine
 10
2.9999999999
 20
26.0
 30
0.0
 11
-2.9999999999
 21
26.0
 31
0.0
  0
LINE
  5
13D
330
108
100
AcDbEntity
  8
0
  6
Continuous
 62
     7
370
    15
100
AcDbLine
 10
-2.4999999999
 20
26.5
 30
0.0
 11
2.4999999999
 21
26.5
 31
0.0
  0
VIEWPORT
  5
1E6
330
108
100
AcDbEntity
  8
0
100
AcDbViewport
 10
0.0
 20
0.0
 30
0.0
 40
243.84
 41
204.216
 68
     1
 69
     1
 12
-0.1054988996
 22
13.1050891613
 13
0.0
 23
0.0
 14
10.0
 24
10.0
 15
10.0
 25
10.0
 16
0.0
 26
0.0
 36
1.0
 17
0.0
 27
0.0
 37
0.0
 42
50.0
 43
0.0
 44
0.0
 45
27.5247793038
 50
0.0
 51
0.0
 72
   100
 90
   557152
  1

281
     0
 71
     1
 74
     0
110
0.0
120
0.0
130
0.0
111
1.0
121
0.0
131
0.0
112
0.0
122
1.0
132
0.0
 79
     0
146
0.0
  0
ENDBLK
  5
10B
330
108
100
AcDbEntity
  8
0
100
AcDbBlockEnd
  0
BLOCK
  5
140
330
13E
100
AcDbEntity
  8
0
100
AcDbBlockBegin
  2
*Paper_Space5
 70
     0
 10
0.0
 20
0.0
 30
0.0
  3
*Paper_Space5
  1

  0
CIRCLE
  5
142
330
13E
100
AcDbEntity
  8
0
  6
Continuous
 62
     7
370
    15
100
AcDbCircle
 10
0.0
 20
0.0
 30
0.0
 40
1.0
  0
CIRCLE
  5
143
330
13E
100
AcDbEntity
  8
0
  6
Continuous
 62
     7
370
    15
100
AcDbCircle
 10
0.0
 20
0.0
 30
0.0
 40
2.499999999999964
  0
CIRCLE
  5
144
330
13E
100
AcDbEntity
  8
0
  6
Continuous
 62
     7
370
    15
100
AcDbCircle
 10
0.0
 20
0.0
 30
0.0
 40
2.999999999999992
  0
VIEWPORT
  5
1E7
330
13E
100
AcDbEntity
  8
0
100
AcDbViewport
 10
0.0
 20
0.0
 30
0.0
 40
243.84
 41
204.216
 68
     1
 69
     1
 12
-0.1054988996
 22
13.1050891613
 13
0.0
 23
0.0
 14
10.0
 24
10.0
 15
10.0
 25
10.0
 16
0.0
 26
0.0
 36
1.0
 17
0.0
 27
0.0
 37
0.0
 42
50.0
 43
0.0
 44
0.0
 45
27.5247793038
 50
0.0
 51
0.0
 72
   100
 90
   557152
  1

281
     0
 71
     1
 74
     0
110
0.0
120
0.0
130
0.0
111
1.0
121
0.0
131
0.0
112
0.0
122
1.0
132
0.0
 79
     0
146
0.0
  0
ENDBLK
  5
141
330
13E
100
AcDbEntity
  8
0
100
AcDbBlockEnd
  0
BLOCK
  5
147
330
145
100
AcDbEntity
  8
0
100
AcDbBlockBegin
  2
*Paper_Space6
 70
     0
 10
0.0
 20
0.0
 30
0.0
  3
*Paper_Space6
  1

  0
LWPOLYLINE
  5
157
330
145
100
AcDbEntity
  8
0
  6
Continuous
 62
     7
370
    15
100
AcDbPolyline
 90
       40
 70
   128
 43
0.0
 10
2.1213203435
 20
20.0054489413
 10
1.9437461861
 20
19.9108796421
 10
1.7535660888
 20
19.8248657409
 10
1.5520134425
 20
19.7479650709
 10
1.3403953935
 20
19.6806763624
 10
1.120084366
 20
19.6234360085
 10
0.8925091615
 20
19.576615235
 10
0.6591456927
 20
19.5405176924
 10
0.4215074111
 20
19.5153774871
 10
0.1811354923
 20
19.5013576632
 10
-0.0604111598
 20
19.4985491445
 10
-0.3015660223
 20
19.5069701453
 10
-0.5407651134
 20
19.5265660521
 10
-0.7764571353
 20
19.5572097782
 10
-1.0071135347
 20
19.598702587
 10
-1.2312384163
 20
19.6507753818
 10
-1.4473782444
 20
19.7130904506
 10
-1.6541312691
 20
19.7852436563
 10
-1.8501566178
 20
19.8667670575
 10
-2.0341829909
 20
19.9571319438
 10
-2.2050169067
 20
20.0557522642
 10
-2.3615504418
 20
20.1619884281
 10
-2.502768416
 20
20.2751514532
 10
-2.6277549766
 20
20.3945074338
 10
-2.7356995379
 20
20.5192823006
 10
-2.8259020379
 20
20.6486668408
 10
-2.8977774788
 20
20.7818219459
 10
-2.9508597208
 20
20.9178840539
 10
-2.9848045051
 20
21.05597075
 10
-2.9993916869
 20
21.1951864888
 10
-2.9945266626
 20
21.3346284029
 10
-2.9702409838
 20
21.473392158
 10
-2.9266921525
 20
21.6105778179
 10
-2.8641625995
 20
21.7452956809
 10
-2.7830578529
 20
21.87667205
 10
-2.6839039082
 20
22.003854899
 10
-2.5673438168
 20
22.1260193984
 10
-2.4341335156
 20
22.2423732644
 10
-2.2851369245
 20
22.3521618977
 10
-2.1216650337
 20
22.454474259
  0
LWPOLYLINE
  5
159
330
145
100
AcDbEntity
  8
0
  6
Continuous
 62
     7
370
    15
100
AcDbPolyline
 90
       73
 70
   128
 43
0.0
 10
1.7677669529
 20
20.6178213752
 10
1.9151111077
 20
20.7106480436
 10
2.0478801107
 20
20.8105349434
 10
2.1650635094
 20
20.9167218749
 10
2.2657694675
 20
21.0284006915
 10
2.3492315519
 20
21.1447214499
 10
2.4148145656
 20
21.264798879
 10
2.4620193825
 20
21.387719117
 10
2.4904867452
 20
21.5125466667
 10
2.4999999999
 20
21.638331515
 10
2.4904867452
 20
21.7641163633
 10
2.4620193825
 20
21.8889439129
 10
2.4148145656
 20
22.0118641509
 10
2.3492315519
 20
22.13194158
 10
2.2657694675
 20
22.2482623385
 10
2.1650635094
 20
22.3599411551
 10
2.0478801107
 20
22.4661280866
 10
1.9151111077
 20
22.5660149863
 10
1.7677669529
 20
22.6588416547
 10
1.6069690242
 20
22.7439016247
 10
1.4339410908
 20
22.8205475387
 10
1.25
 20
22.8881960748
 10
1.0565456543
 20
22.946332387
 10
0.8550503583
 20
22.9945140227
 10
0.6470476127
 20
23.0323742907
 10
0.4341204442
 20
23.0596250514
 10
0.2178893569
 20
23.0760589101
 10
0.0
 20
23.0815507951
 10
-0.2178893569
 20
23.0760589101
 10
-0.4341204442
 20
23.0596250514
 10
-0.6470476127
 20
23.0323742907
 10
-0.8550503583
 20
22.9945140227
 10
-1.0565456543
 20
22.946332387
 10
-1.25
 20
22.8881960748
 10
-1.4339410908
 20
22.8205475387
 10
-1.6069690242
 20
22.7439016247
 10
-1.7677669529
 20
22.6588416547
 10
-1.9151111077
 20
22.5660149863
 10
-2.0478801107
 20
22.4661280866
 10
-2.1650635094
 20
22.3599411551
 10
-2.2657694675
 20
22.2482623385
 10
-2.3492315519
 20
22.13194158
 10
-2.4148145656
 20
22.0118641509
 10
-2.4620193825
 20
21.8889439129
 10
-2.4904867452
 20
21.7641163633
 10
-2.4999999999
 20
21.638331515
 10
-2.4904867452
 20
21.5125466667
 10
-2.4620193825
 20
21.387719117
 10
-2.4148145656
 20
21.264798879
 10
-2.3492315519
 20
21.1447214499
 10
-2.2657694675
 20
21.0284006915
 10
-2.1650635094
 20
20.9167218749
 10
-2.0478801107
 20
20.8105349434
 10
-1.9151111077
 20
20.7106480436
 10
-1.7677669529
 20
20.6178213752
 10
-1.6069690242
 20
20.5327614052
 10
-1.4339410908
 20
20.4561154913
 10
-1.25
 20
20.3884669551
 10
-1.0565456543
 20
20.330330643
 10
-0.8550503583
 20
20.2821490072
 10
-0.6470476127
 20
20.2442887393
 10
-0.4341204442
 20
20.2170379786
 10
-0.2178893569
 20
20.2006041199
 10
0.0
 20
20.1951122348
 10
0.2178893569
 20
20.2006041199
 10
0.4341204442
 20
20.2170379786
 10
0.6470476127
 20
20.2442887393
 10
0.8550503583
 20
20.2821490072
 10
1.0565456543
 20
20.330330643
 10
1.25
 20
20.3884669551
 10
1.4339410908
 20
20.4561154913
 10
1.6069690242
 20
20.5327614052
 10
1.7677669529
 20
20.6178213752
  0
LWPOLYLINE
  5
15A
330
145
100
AcDbEntity
  8
0
  6
Continuous
 62
     7
370
    15
100
AcDbPolyline
 90
       31
 70
   128
 43
0.0
 10
2.1213203435
 20
5.7976388145
 10
1.9437461861
 20
5.7030695153
 10
1.7535660888
 20
5.6170556141
 10
1.5520134425
 20
5.5401549441
 10
1.3403953935
 20
5.4728662356
 10
1.120084366
 20
5.4156258817
 10
0.8925091615
 20
5.3688051081
 10
0.6591456927
 20
5.3327075655
 10
0.4215074111
 20
5.3075673603
 10
0.1811354923
 20
5.2935475364
 10
-0.0604111598
 20
5.2907390177
 10
-0.3015660223
 20
5.2991600184
 10
-0.5407651134
 20
5.3187559253
 10
-0.7764571353
 20
5.3493996514
 10
-1.0071135347
 20
5.3908924602
 10
-1.2312384163
 20
5.442965255
 10
-1.4473782444
 20
5.5052803238
 10
-1.6541312691
 20
5.5774335295
 10
-1.8501566178
 20
5.6589569307
 10
-2.0341829909
 20
5.749321817
 10
-2.2050169067
 20
5.8479421374
 10
-2.3615504418
 20
5.9541783013
 10
-2.502768416
 20
6.0673413264
 10
-2.6277549766
 20
6.186697307
 10
-2.7356995379
 20
6.3114721738
 10
-2.8259020379
 20
6.440856714
 10
-2.8977774788
 20
6.5740118191
 10
-2.9508597208
 20
6.7100739271
 10
-2.9848045051
 20
6.8481606232
 10
-2.9993916869
 20
6.987376362
 10
-2.9999999999
 20
7.0222509822
  0
LWPOLYLINE
  5
15C
330
145
100
AcDbEntity
  8
0
  6
Continuous
 62
     7
370
    15
100
AcDbPolyline
 90
       56
 70
   128
 43
0.0
 10
1.0606601717
 20
21.0260254311
 10
0.9328403596
 20
20.9602189705
 10
0.7928595469
 20
20.9032527438
 10
0.6425425974
 20
20.8558693932
 10
0.4838491225
 20
20.8186866329
 10
0.3188479343
 20
20.7921891971
 10
0.1496900757
 20
20.7767225204
 10
-0.0214192219
 20
20.7724882347
 10
-0.1922492873
 20
20.7795415402
 10
-0.3605730891
 20
20.7977904864
 10
-0.5241962694
 20
20.8269971704
 10
-0.6809857496
 20
20.8667808383
 10
-0.8288975391
 20
20.9166228492
 10
-0.9660033816
 20
20.9758734363
 10
-1.0905158926
 20
21.0437601776
 10
-1.2008118613
 20
21.1193980655
 10
-1.295453411
 20
21.2018010445
 10
-1.3732067443
 20
21.2898948658
 10
-1.4330582277
 20
21.3825310917
 10
-1.4742276054
 20
21.4785020673
 10
-1.4961781718
 20
21.5765566642
 10
-1.4986237677
 20
21.6754165907
 10
-1.4815325108
 20
21.7737930566
 10
-1.445127212
 20
21.8704035741
 10
-1.3898824699
 20
21.9639886774
 10
-1.3165184843
 20
22.0533283415
 10
-1.2259916669
 20
22.1372578874
 10
-1.1194821731
 20
22.214683165
 10
-0.9983785173
 20
22.2845948174
 10
-0.8642594706
 20
22.3460814394
 10
-0.71887348
 20
22.3983414587
 10
-0.5641158743
 20
22.4406935861
 10
-0.4020041554
 20
22.4725856969
 10
-0.2346516975
 20
22.4936020285
 10
-0.064240196
 20
22.5034686011
 10
0.1070087748
 20
22.5020567887
 10
0.2768627225
 20
22.4893849964
 10
0.4431073413
 20
22.4656184205
 10
0.6035753782
 20
22.4310668946
 10
0.756174887
 20
22.3861808507
 10
0.8989164997
 20
22.331545447
 10
1.0299393612
 20
22.2678729396
 10
1.1475353879
 20
22.195993397
 10
1.250171536
 20
22.1168438789
 10
1.3365097862
 20
22.0314562203
 10
1.4054245874
 20
21.94094358
 10
1.4560175298
 20
21.8464859286
 10
1.487629057
 20
21.7493146662
 10
1.4998470644
 20
21.6506965686
 10
1.4925122716
 20
21.5519172736
 10
1.4657202989
 20
21.4542645205
 10
1.4198204205
 20
21.3590113621
 10
1.3554110116
 20
21.267399569
 10
1.2733317473
 20
21.1806234412
 10
1.1746526564
 20
21.099814238
 10
1.0606601717
 20
21.0260254311
  0
LWPOLYLINE
  5
15D
330
145
100
AcDbEntity
  8
0
  6
Continuous
 62
     7
370
    15
100
AcDbPolyline
 90
       33
 70
   128
 43
0.0
 10
0.8479170185
 20
20.9240241662
 10
0.8746197071
 20
20.9501864726
 10
0.9335804265
 20
21.0231796954
 10
0.9743700647
 20
21.1001996296
 10
0.9961946981
 20
21.1797471697
 10
0.9986295347
 20
21.2602740135
 10
0.9816271834
 20
21.3402127974
 10
0.9455185756
 20
21.4180076041
 10
0.8910065242
 20
21.492144246
 10
0.8191520443
 20
21.5611797377
 10
0.7313537016
 20
21.623770382
 10
0.629320391
 20
21.6786979231
 10
0.5150380749
 20
21.7248932589
 10
0.3907311285
 20
21.7614572499
 10
0.2588190451
 20
21.7876782193
 10
0.1218693434
 20
21.8030458061
 10
-0.0174524064
 20
21.8072608974
 10
-0.156434465
 20
21.8002414514
 10
-0.2923717047
 20
21.7821240937
 10
-0.4226182617
 20
21.7532614579
 10
-0.544639035
 20
21.7142153224
 10
-0.656059029
 20
21.6657456759
 10
-0.7547095802
 20
21.6087959249
 10
-0.8386705679
 20
21.5444745315
 10
-0.906307787
 20
21.4740334385
 10
-0.9563047559
 20
21.3988437016
 10
-0.9876883406
 20
21.3203688035
 10
-0.9998476951
 20
21.2401361688
 10
-0.9925461516
 20
21.1597074346
 10
-0.9659258263
 20
21.0806480547
 10
-0.9205048534
 20
21.0044968299
 10
-0.8571673007
 20
20.9327359572
 10
-0.8479170185
 20
20.9240241662
  0
LWPOLYLINE
  5
15F
330
145
100
AcDbEntity
  8
0
  6
Continuous
 62
     7
370
    15
100
AcDbPolyline
 90
       25
 70
   128
 43
0.0
 10
1.4142135624
 20
4.0828367595
 10
1.2687865683
 20
4.0067459992
 10
1.111140466
 20
3.939250491
 10
0.9427934737
 20
3.8810002534
 10
0.7653668647
 20
3.8325562682
 10
0.5805693545
 20
3.7943850773
 10
0.390180644
 20
3.7668542902
 10
0.1960342807
 20
3.7502290434
 10
0.0
 20
3.7446694471
 10
-0.1960342807
 20
3.7502290434
 10
-0.390180644
 20
3.7668542902
 10
-0.5805693545
 20
3.7943850773
 10
-0.7653668647
 20
3.8325562682
 10
-0.9427934737
 20
3.8810002534
 10
-1.111140466
 20
3.939250491
 10
-1.2687865683
 20
4.0067459992
 10
-1.4142135624
 20
4.0828367595
 10
-1.5460209067
 20
4.1667899762
 10
-1.6629392246
 20
4.2577971339
 10
-1.7638425287
 20
4.3549817839
 10
-1.847759065
 20
4.4574079851
 10
-1.9138806715
 20
4.5640893169
 10
-1.9615705608
 20
4.67399838
 10
-1.9903694533
 20
4.7860766899
 10
-2.0
 20
4.8992448713
  0
LWPOLYLINE
  5
161
330
145
100
AcDbEntity
  8
0
  6
Continuous
 62
     7
370
    15
100
AcDbPolyline
 90
       40
 70
   128
 43
0.0
 10
2.1213203436
 20
2.8580918917
 10
1.9437461861
 20
2.7635225925
 10
1.7535660888
 20
2.6775086913
 10
1.5520134425
 20
2.6006080212
 10
1.3403953935
 20
2.5333193127
 10
1.120084366
 20
2.4760789589
 10
0.8925091616
 20
2.4292581853
 10
0.6591456927
 20
2.3931606427
 10
0.4215074112
 20
2.3680204375
 10
0.1811354923
 20
2.3540006136
 10
-0.0604111598
 20
2.3511920948
 10
-0.3015660223
 20
2.3596130956
 10
-0.5407651134
 20
2.3792090025
 10
-0.7764571353
 20
2.4098527285
 10
-1.0071135347
 20
2.4513455373
 10
-1.2312384164
 20
2.5034183322
 10
-1.4473782444
 20
2.565733401
 10
-1.6541312692
 20
2.6378866066
 10
-1.8501566179
 20
2.7194100079
 10
-2.034182991
 20
2.8097748942
 10
-2.2050169068
 20
2.9083952146
 10
-2.3615504418
 20
3.0146313785
 10
-2.502768416
 20
3.1277944036
 10
-2.6277549767
 20
3.2471503842
 10
-2.735699538
 20
3.371925251
 10
-2.825902038
 20
3.5013097912
 10
-2.8977774789
 20
3.6344648963
 10
-2.9508597208
 20
3.7705270043
 10
-2.9848045052
 20
3.9086137004
 10
-2.999391687
 20
4.0478294392
 10
-2.9945266627
 20
4.1872713533
 10
-2.9702409839
 20
4.3260351084
 10
-2.9266921525
 20
4.4632207683
 10
-2.8641625995
 20
4.5979386313
 10
-2.783057853
 20
4.7293150004
 10
-2.6839039083
 20
4.8564978494
 10
-2.5673438169
 20
4.9786623488
 10
-2.4341335157
 20
5.0950162148
 10
-2.2851369245
 20
5.2048048481
 10
-2.1216650337
 20
5.3071172094
  0
LWPOLYLINE
  5
163
330
145
100
AcDbEntity
  8
0
  6
Continuous
 62
     7
370
    15
100
AcDbPolyline
 90
       41
 70
   128
 43
0.0
 10
-3.0
 20
0.4082704059
 10
-2.999391687
 20
0.3733957857
 10
-2.9848045052
 20
0.2341800469
 10
-2.9508597208
 20
0.0960933508
 10
-2.8977774789
 20
-0.0399687572
 10
-2.825902038
 20
-0.1731238623
 10
-2.735699538
 20
-0.3025084025
 10
-2.6277549767
 20
-0.4272832693
 10
-2.502768416
 20
-0.5466392499
 10
-2.3615504418
 20
-0.659802275
 10
-2.2050169068
 20
-0.7660384389
 10
-2.034182991
 20
-0.8646587593
 10
-1.8501566179
 20
-0.9550236456
 10
-1.6541312692
 20
-1.0365470468
 10
-1.4473782444
 20
-1.1087002525
 10
-1.2312384164
 20
-1.1710153213
 10
-1.0071135347
 20
-1.2230881161
 10
-0.7764571353
 20
-1.264580925
 10
-0.5407651134
 20
-1.295224651
 10
-0.3015660223
 20
-1.3148205579
 10
-0.0604111598
 20
-1.3232415587
 10
0.1811354923
 20
-1.3204330399
 10
0.4215074112
 20
-1.306413216
 10
0.6591456927
 20
-1.2812730108
 10
0.8925091616
 20
-1.2451754682
 10
1.120084366
 20
-1.1983546946
 10
1.3403953935
 20
-1.1411143407
 10
1.5520134425
 20
-1.0738256323
 10
1.7535660888
 20
-0.9969249622
 10
1.9437461861
 20
-0.910911061
 10
2.1213203436
 20
-0.8163417618
 10
2.2851369245
 20
-0.7138303827
 10
2.4341335157
 20
-0.6040417495
 10
2.5673438169
 20
-0.4876878834
 10
2.6839039083
 20
-0.3655233841
 10
2.783057853
 20
-0.238340535
 10
2.8641625995
 20
-0.106964166
 10
2.9266921525
 20
0.0277536971
 10
2.9702409839
 20
0.1649393569
 10
2.9945266627
 20
0.303703112
 10
3.0
 20
0.4082704059
  0
LINE
  5
165
330
145
100
AcDbEntity
  8
0
  6
Continuous
 62
     7
370
    15
100
AcDbLine
 10
2.1216650337
 20
22.454474259
 30
0.0
 11
1.7680541947
 21
22.6586758066
 31
0.0
  0
LINE
  5
166
330
145
100
AcDbEntity
  8
0
  6
Continuous
 62
     7
370
    15
100
AcDbLine
 10
-1.7680541947
 20
22.6586758066
 30
0.0
 11
-2.1216650337
 21
22.454474259
 31
0.0
  0
LINE
  5
167
330
145
100
AcDbEntity
  8
0
  6
Continuous
 62
     7
370
    15
100
AcDbLine
 10
2.9999999999
 20
7.0222509822
 30
0.0
 11
2.9999999999
 21
21.230061109
 31
0.0
  0
LINE
  5
168
330
145
100
AcDbEntity
  8
0
  6
Continuous
 62
     7
370
    15
100
AcDbLine
 10
-2.9999999999
 20
21.230061109
 30
0.0
 11
-2.9999999999
 21
7.0222509822
 31
0.0
  0
LINE
  5
169
330
145
100
AcDbEntity
  8
0
  6
Continuous
 62
     7
370
    15
100
AcDbLine
 10
-2.1216650337
 20
5.7978378323
 30
0.0
 11
-1.4144433558
 21
5.389434737
 31
0.0
  0
LINE
  5
16A
330
145
100
AcDbEntity
  8
0
  6
Continuous
 62
     7
370
    15
100
AcDbLine
 10
1.4144433558
 20
5.389434737
 30
0.0
 11
2.1216650337
 21
5.7978378323
 31
0.0
  0
LINE
  5
16B
330
145
100
AcDbEntity
  8
0
  6
Continuous
 62
     7
370
    15
100
AcDbLine
 10
2.1216650337
 20
5.3071172094
 30
0.0
 11
2.0
 21
5.377375769
 31
0.0
  0
LINE
  5
16C
330
145
100
AcDbEntity
  8
0
  6
Continuous
 62
     7
370
    15
100
AcDbLine
 10
-2.0
 20
5.377375769
 30
0.0
 11
-2.1216650337
 21
5.3071172094
 31
0.0
  0
LINE
  5
16D
330
145
100
AcDbEntity
  8
0
  6
Continuous
 62
     7
370
    15
100
AcDbLine
 10
2.0
 20
4.8992448713
 30
0.0
 11
2.0
 21
5.7275792727
 31
0.0
  0
LINE
  5
16E
330
145
100
AcDbEntity
  8
0
  6
Continuous
 62
     7
370
    15
100
AcDbLine
 10
-2.0
 20
5.7275792727
 30
0.0
 11
-2.0
 21
4.8992448713
 31
0.0
  0
LINE
  5
16F
330
145
100
AcDbEntity
  8
0
  6
Continuous
 62
     7
370
    15
100
AcDbLine
 10
3.0
 20
0.4082704059
 30
0.0
 11
3.0
 21
4.0827040594
 31
0.0
  0
LINE
  5
170
330
145
100
AcDbEntity
  8
0
  6
Continuous
 62
     7
370
    15
100
AcDbLine
 10
-3.0
 20
4.0827040594
 30
0.0
 11
-3.0
 21
0.4082704059
 31
0.0
  0
LINE
  5
171
330
145
100
AcDbEntity
  8
0
  6
Continuous
 62
     7
370
    15
100
AcDbLine
 10
-2.1216650337
 20
-0.816142744
 30
0.0
 11
-1.7680541948
 21
-1.0203442917
 31
0.0
  0
LINE
  5
172
330
145
100
AcDbEntity
  8
0
  6
Continuous
 62
     7
370
    15
100
AcDbLine
 10
1.7680541948
 20
-1.0203442917
 30
0.0
 11
2.1216650337
 21
-0.816142744
 31
0.0
  0
ARC
  5
173
330
145
100
AcDbEntity
  8
0
  6
Continuous
 62
     7
370
    15
100
AcDbCircle
 10
1.653805945
 20
21.2300274251
 30
0.0
 40
1.310786853695897
100
AcDbArc
 50
290.8956448383
 51
69.0882268739
  0
ARC
  5
174
330
145
100
AcDbEntity
  8
0
  6
Continuous
 62
     7
370
    15
100
AcDbCircle
 10
1.50076002
 20
7.170440936
 30
0.0
 40
1.506545976645827
100
AcDbArc
 50
294.3248316361
 51
354.3550274063
  0
ARC
  5
175
330
145
100
AcDbEntity
  8
0
  6
Continuous
 62
     7
370
    15
100
AcDbCircle
 10
0.000012276
 20
8.1006449732
 30
0.0
 40
3.057997004459016
100
AcDbArc
 50
242.4486641666
 51
297.5459609024
  0
ARC
  5
176
330
145
100
AcDbEntity
  8
0
  6
Continuous
 62
     7
370
    15
100
AcDbCircle
 10
0.9990858751
 20
4.999057625
 30
0.0
 40
1.005878556804723
100
AcDbArc
 50
294.3746582901
 51
354.3052007559
  0
ARC
  5
177
330
145
100
AcDbEntity
  8
0
  6
Continuous
 62
     7
370
    15
100
AcDbCircle
 10
1.653805945
 20
4.0826703755
 30
0.0
 40
1.310786853729106
100
AcDbArc
 50
290.8956448383
 51
69.0882268739
  0
ARC
  5
178
330
145
100
AcDbEntity
  8
0
  6
Continuous
 62
     7
370
    15
100
AcDbCircle
 10
0.0
 20
2.3741895862
 30
0.0
 40
3.827384992849601
100
AcDbArc
 50
242.4870971902
 51
297.5129028098
  0
VIEWPORT
  5
1E8
330
145
100
AcDbEntity
  8
0
100
AcDbViewport
 10
0.0
 20
0.0
 30
0.0
 40
243.84
 41
204.216
 68
     1
 69
     1
 12
-0.1054988996
 22
13.1050891613
 13
0.0
 23
0.0
 14
10.0
 24
10.0
 15
10.0
 25
10.0
 16
0.0
 26
0.0
 36
1.0
 17
0.0
 27
0.0
 37
0.0
 42
50.0
 43
0.0
 44
0.0
 45
27.5247793038
 50
0.0
 51
0.0
 72
   100
 90
   557152
  1

281
     0
 71
     1
 74
     0
110
0.0
120
0.0
130
0.0
111
1.0
121
0.0
131
0.0
112
0.0
122
1.0
132
0.0
 79
     0
146
0.0
  0
ENDBLK
  5
148
330
145
100
AcDbEntity
  8
0
100
AcDbBlockEnd
  0
BLOCK
  5
17B
330
179
100
AcDbEntity
  8
0
100
AcDbBlockBegin
  2
*Paper_Space7
 70
     0
 10
0.0
 20
0.0
 30
0.0
  3
*Paper_Space7
  1

  0
LWPOLYLINE
  5
18B
330
179
100
AcDbEntity
  8
0
  6
Continuous
 62
     7
370
    15
100
AcDbPolyline
 90
       42
 70
   128
 43
0.0
 10
2.653254365
 20
21.5652521342
 10
2.5319905489
 20
21.4576306914
 10
2.3943058025
 20
21.3553838102
 10
2.2410930642
 20
21.2591746007
 10
2.0733459773
 20
21.1696270167
 10
1.8921524463
 20
21.0873218086
 10
1.6986875805
 20
21.0127927572
 10
1.4942060739
 20
20.9465232121
 10
1.2800340676
 20
20.8889429567
 10
1.0575605491
 20
20.840425421
 10
0.8282283447
 20
20.8012852598
 10
0.5935247616
 20
20.7717763122
 10
0.3549719427
 20
20.7520899549
 10
0.1141169946
 20
20.7423538616
 10
-0.1274780461
 20
20.7426311746
 10
-0.3682463427
 20
20.7529200953
 10
-0.6066264205
 20
20.7731538963
 10
-0.8410722931
 20
20.8032013534
 10
-1.0700634892
 20
20.8428675975
 10
-1.292114913
 20
20.8918953776
 10
-1.5057864757
 20
20.9499667299
 10
-1.7096924353
 20
21.0167050394
 10
-1.9025103834
 20
21.0916774825
 10
-2.0829898216
 20
21.174397834
 10
-2.2499602715
 20
21.2643296209
 10
-2.4023388656
 20
21.360889601
 10
-2.5391373704
 20
21.4634515457
 10
-2.6594685949
 20
21.5713503014
 10
-2.7625521452
 20
21.6838861034
 10
-2.8477194846
 20
21.8003291138
 10
-2.9144182705
 20
21.9199241549
 10
-2.9622159355
 20
22.0418956071
 10
-2.9908024935
 20
22.1654524386
 10
-2.9999925496
 20
22.2897933361
 10
-2.9897265029
 20
22.414111901
 10
-2.9600709325
 20
22.5376018797
 10
-2.9112181663
 20
22.6594623925
 10
-2.8434850331
 20
22.778903127
 10
-2.7573108084
 20
22.8951494643
 10
-2.653254365
 20
23.0074475023
 10
-2.5319905489
 20
23.1150689451
 10
-2.3980614355
 20
23.2147481078
  0
LWPOLYLINE
  5
18D
330
179
100
AcDbEntity
  8
0
  6
Continuous
 62
     7
370
    15
100
AcDbPolyline
 90
       73
 70
   128
 43
0.0
 10
2.2110453041
 20
22.1140187319
 10
2.3043195674
 20
22.2155559584
 10
2.3800565673
 20
22.3208937494
 10
2.4376798996
 20
22.4292304205
 10
2.476751016
 20
22.5397414643
 10
2.4969725617
 20
22.651585825
 10
2.4981906384
 20
22.7639122996
 10
2.480395976
 20
22.8758660157
 10
2.4437240024
 20
22.9865949379
 10
2.3884538137
 20
23.0952563524
 10
2.3150060492
 20
23.20102328
 10
2.2239396909
 20
23.3030907706
 10
2.1159478086
 20
23.4006820291
 10
1.9918522859
 20
23.4930543269
 10
1.8525975646
 20
23.5795046552
 10
1.6992434572
 20
23.6593750747
 10
1.532957081
 20
23.7320577233
 10
1.3550039759
 20
23.7969994421
 10
1.1667384723
 20
23.8537059856
 10
0.9695933844
 20
23.9017457826
 10
0.7650691054
 20
23.9407532212
 10
0.5547221886
 20
23.9704314314
 10
0.340153501
 20
23.9905545439
 10
0.1229960398
 20
24.0009694099
 10
-0.0950974955
 20
24.0015967658
 10
-0.3124672814
 20
23.9924318371
 10
-0.5274590027
 20
23.9735443744
 10
-0.7384364424
 20
23.9450781228
 10
-0.943793935
 20
23.9072497276
 10
-1.1419685858
 20
23.8603470857
 10
-1.3314521661
 20
23.8047271546
 10
-1.5108025916
 20
23.7408132355
 10
-1.678654897
 20
23.6690917519
 10
-1.8337316251
 20
23.5901085476
 10
-1.9748525482
 20
23.5044647325
 10
-2.1009436511
 20
23.4128121078
 10
-2.2110453041
 20
23.3158482053
 10
-2.3043195674
 20
23.2143109788
 10
-2.3800565673
 20
23.1089731878
 10
-2.4376798996
 20
23.0006365167
 10
-2.476751016
 20
22.8901254729
 10
-2.4969725617
 20
22.7782811122
 10
-2.4981906384
 20
22.6659546376
 10
-2.480395976
 20
22.5540009215
 10
-2.4437240024
 20
22.4432719993
 10
-2.3884538137
 20
22.3346105849
 10
-2.3150060492
 20
22.2288436572
 10
-2.2239396909
 20
22.1267761666
 10
-2.1159478086
 20
22.0291849081
 10
-1.9918522859
 20
21.9368126103
 10
-1.8525975646
 20
21.850362282
 10
-1.6992434572
 20
21.7704918625
 10
-1.532957081
 20
21.6978092139
 10
-1.3550039759
 20
21.6328674951
 10
-1.1667384723
 20
21.5761609516
 10
-0.9695933844
 20
21.5281211547
 10
-0.7650691054
 20
21.489113716
 10
-0.5547221886
 20
21.4594355059
 10
-0.340153501
 20
21.4393123933
 10
-0.1229960398
 20
21.4288975273
 10
0.0950974955
 20
21.4282701714
 10
0.3124672814
 20
21.4374351001
 10
0.5274590027
 20
21.4563225628
 10
0.7384364424
 20
21.4847888144
 10
0.943793935
 20
21.5226172096
 10
1.1419685858
 20
21.5695198515
 10
1.3314521661
 20
21.6251397826
 10
1.5108025916
 20
21.6890537018
 10
1.678654897
 20
21.7607751853
 10
1.8337316251
 20
21.8397583896
 10
1.9748525482
 20
21.9254022047
 10
2.1009436511
 20
22.0170548294
 10
2.2110453041
 20
22.1140187319
  0
LWPOLYLINE
  5
18E
330
179
100
AcDbEntity
  8
0
  6
Continuous
 62
     7
370
    15
100
AcDbPolyline
 90
       34
 70
   128
 43
0.0
 10
2.653254365
 20
6.650541102
 10
2.5319905489
 20
6.5429196592
 10
2.3943058025
 20
6.440672778
 10
2.2410930642
 20
6.3444635685
 10
2.0733459773
 20
6.2549159845
 10
1.8921524463
 20
6.1726107764
 10
1.6986875805
 20
6.098081725
 10
1.4942060739
 20
6.0318121799
 10
1.2800340676
 20
5.9742319245
 10
1.0575605491
 20
5.9257143887
 10
0.8282283447
 20
5.8865742276
 10
0.5935247616
 20
5.85706528
 10
0.3549719427
 20
5.8373789227
 10
0.1141169946
 20
5.8276428294
 10
-0.1274780461
 20
5.8279201424
 10
-0.3682463427
 20
5.8382090631
 10
-0.6066264205
 20
5.858442864
 10
-0.8410722931
 20
5.8884903212
 10
-1.0700634892
 20
5.9281565652
 10
-1.292114913
 20
5.9771843454
 10
-1.5057864757
 20
6.0352556977
 10
-1.7096924353
 20
6.1019940072
 10
-1.9025103834
 20
6.1769664502
 10
-2.0829898216
 20
6.2596868018
 10
-2.2499602715
 20
6.3496185887
 10
-2.4023388656
 20
6.4461785688
 10
-2.5391373704
 20
6.5487405134
 10
-2.6594685949
 20
6.6566392692
 10
-2.7625521452
 20
6.7691750712
 10
-2.8477194846
 20
6.8856180816
 10
-2.9144182705
 20
7.0052131227
 10
-2.9622159355
 20
7.1271845749
 10
-2.9908024935
 20
7.2507414064
 10
-2.9999999999
 20
7.371638786
  0
LWPOLYLINE
  5
190
330
179
100
AcDbEntity
  8
0
  6
Continuous
 62
     7
370
    15
100
AcDbPolyline
 90
       56
 70
   128
 43
0.0
 10
1.3266271824
 20
22.3543846266
 10
1.2381809773
 20
22.2788486085
 10
1.1335931896
 20
22.2089976235
 10
1.0142272811
 20
22.1457422859
 10
0.8816393688
 20
22.0899072259
 10
0.7375579391
 20
22.0422203388
 10
0.5838613138
 20
22.0033032962
 10
0.4225531633
 20
21.9736634411
 10
0.2557363861
 20
21.9536871745
 10
0.085585694
 20
21.9436349175
 10
-0.0856807385
 20
21.9436377166
 10
-0.2558301915
 20
21.9536955354
 10
-0.4226445068
 20
21.9736772549
 10
-0.5839490045
 20
22.0033223827
 10
-0.737640834
 20
22.0422444492
 10
-0.8817163871
 20
22.0899360459
 10
-1.0142974186
 20
22.1457754398
 10
-1.1336555322
 20
22.209034679
 10
-1.2382347122
 20
22.2788890827
 10
-1.3266716091
 20
22.3544279917
 10
-1.3978133126
 20
22.4346666409
 10
-1.450732382
 20
22.5185589969
 10
-1.4847389362
 20
22.6050113944
 10
-1.4993896477
 20
22.6928967942
 10
-1.4944935221
 20
22.7810694758
 10
-1.4701143879
 20
22.8683799734
 10
-1.4265700645
 20
22.9536900612
 10
-1.3644282186
 20
23.0358875916
 10
-1.2844989642
 20
23.1139009942
 10
-1.1878243015
 20
23.186713245
 10
-1.0756645324
 20
23.2533751249
 10
-0.9494818311
 20
23.3130175943
 10
-0.8109211822
 20
23.3648631226
 10
-0.6617889354
 20
23.4082358238
 10
-0.5040292579
 20
23.4425702686
 10
-0.3396987881
 20
23.4674188549
 10
-0.1709398251
 20
23.4824576434
 10
0.0000475999
 20
23.4874905805
 10
0.1710344044
 20
23.4824520542
 10
0.3397915138
 20
23.4674077494
 10
0.5041189212
 20
23.4425537916
 10
0.6618743676
 20
23.4082141901
 10
0.8110012693
 20
23.3648366141
 10
0.9495555292
 20
23.3129865568
 10
1.0757308807
 20
23.2533399628
 10
1.187882435
 20
23.1866744168
 10
1.2845481251
 20
23.1138590061
 10
1.364467766
 20
23.035842991
 10
1.4265994828
 20
22.9536434295
 10
1.4701332937
 20
22.8683319185
 10
1.4945016688
 20
22.7810206242
 10
1.4993869291
 20
22.6928477827
 10
1.4847253878
 20
22.6049628619
 10
1.4507081805
 20
22.5185115762
 10
1.3977787734
 20
22.4346209502
 10
1.3266271824
 20
22.3543846266
  0
LWPOLYLINE
  5
191
330
179
100
AcDbEntity
  8
0
  6
Continuous
 62
     7
370
    15
100
AcDbPolyline
 90
       29
 70
   128
 43
0.0
 10
0.9422160287
 20
22.1138090228
 10
0.9787959465
 20
22.1808505889
 10
0.9977782735
 20
22.2520368513
 10
0.9973399814
 20
22.3238909767
 10
0.977489601
 20
22.395014406
 10
0.9386134974
 20
22.4640228028
 10
0.8814683497
 20
22.529572997
 10
0.8071664232
 20
22.5903891287
 10
0.7171539205
 20
22.6452874811
 10
0.6131828324
 20
22.6931995202
 10
0.497276838
 20
22.7331926925
 10
0.3716919156
 20
22.7644885767
 10
0.2388724328
 20
22.7864780337
 10
0.1014035699
 20
22.798733064
 10
-0.0380389982
 20
22.8010151372
 10
-0.1767411805
 20
22.7932798353
 10
-0.3120032967
 20
22.7756777174
 10
-0.4411926236
 20
22.7485513884
 10
-0.561794638
 20
22.7124288317
 10
-0.6714619588
 20
22.6680131316
 10
-0.7680600363
 20
22.6161687892
 10
-0.8497086989
 20
22.5579048958
 10
-0.9148187482
 20
22.4943554917
 10
-0.9621228911
 20
22.4267574937
 10
-0.9907004064
 20
22.35642662
 10
-0.9999950652
 20
22.2847317811
 10
-0.9898259575
 20
22.2130684355
 10
-0.9603910134
 20
22.1428314286
 10
-0.9422160287
 20
22.1138090228
  0
LWPOLYLINE
  5
193
330
179
100
AcDbEntity
  8
0
  6
Continuous
 62
     7
370
    15
100
AcDbPolyline
 90
       29
 70
   128
 43
0.0
 10
1.7688362434
 20
4.6622720148
 10
1.6688305185
 20
4.5752914893
 10
1.5527530435
 20
4.4937783437
 10
1.4217217079
 20
4.4185175942
 10
1.276998415
 20
4.350234043
 10
1.1199769293
 20
4.2895852979
 10
0.9521694535
 20
4.2371554396
 10
0.7751920654
 20
4.1934493962
 10
0.590749154
 20
4.1588880808
 10
0.4006170052
 20
4.1338043378
 10
0.2066266957
 20
4.1184397374
 10
0.0106464582
 20
4.112942249
 10
-0.1854363106
 20
4.1173648165
 10
-0.3797332263
 20
4.1316648481
 10
-0.5703731035
 20
4.1557046267
 10
-0.7555199759
 20
4.1892526361
 10
-0.9333907779
 20
4.2319857906
 10
-1.1022725164
 20
4.2834925466
 10
-1.2605387681
 20
4.3432768659
 10
-1.4066653424
 20
4.4107629927
 10
-1.5392449604
 20
4.4853009989
 10
-1.657000808
 20
4.5661730426
 10
-1.7587988321
 20
4.6526002819
 10
-1.8436586619
 20
4.7437503752
 10
-1.910763051
 20
4.8387454972
 10
-1.9594657474
 20
4.9366707931
 10
-1.9892977174
 20
5.0365831886
 10
-1.999971663
 20
5.1375204729
 10
-2.0
 20
5.1430038042
  0
LWPOLYLINE
  5
195
330
179
100
AcDbEntity
  8
0
  6
Continuous
 62
     7
370
    15
100
AcDbPolyline
 90
       42
 70
   128
 43
0.0
 10
2.653254365
 20
3.5647388195
 10
2.5319905489
 20
3.4571173767
 10
2.3943058025
 20
3.3548704954
 10
2.2410930642
 20
3.258661286
 10
2.0733459774
 20
3.169113702
 10
1.8921524463
 20
3.0868084938
 10
1.6986875805
 20
3.0122794425
 10
1.494206074
 20
2.9460098974
 10
1.2800340676
 20
2.8884296419
 10
1.0575605492
 20
2.8399121062
 10
0.8282283447
 20
2.800771945
 10
0.5935247617
 20
2.7712629974
 10
0.3549719428
 20
2.7515766401
 10
0.1141169946
 20
2.7418405468
 10
-0.1274780461
 20
2.7421178598
 10
-0.3682463427
 20
2.7524067806
 10
-0.6066264205
 20
2.7726405815
 10
-0.8410722931
 20
2.8026880386
 10
-1.0700634892
 20
2.8423542827
 10
-1.292114913
 20
2.8913820629
 10
-1.5057864757
 20
2.9494534152
 10
-1.7096924353
 20
3.0161917246
 10
-1.9025103834
 20
3.0911641677
 10
-2.0829898216
 20
3.1738845193
 10
-2.2499602715
 20
3.2638163062
 10
-2.4023388657
 20
3.3603762862
 10
-2.5391373704
 20
3.4629382309
 10
-2.659468595
 20
3.5708369867
 10
-2.7625521452
 20
3.6833727887
 10
-2.8477194847
 20
3.799815799
 10
-2.9144182705
 20
3.9194108402
 10
-2.9622159356
 20
4.0413822923
 10
-2.9908024935
 20
4.1649391239
 10
-2.9999925497
 20
4.2892800213
 10
-2.9897265029
 20
4.4135985862
 10
-2.9600709326
 20
4.537088565
 10
-2.9112181663
 20
4.6589490777
 10
-2.8434850332
 20
4.7783898123
 10
-2.7573108084
 20
4.8946361496
 10
-2.653254365
 20
5.0069341876
 10
-2.5319905489
 20
5.1145556304
 10
-2.3980614355
 20
5.214234793
  0
LWPOLYLINE
  5
197
330
179
100
AcDbEntity
  8
0
  6
Continuous
 62
     7
370
    15
100
AcDbPolyline
 90
       41
 70
   128
 43
0.0
 10
-3.0
 20
0.4285836504
 10
-2.9908024935
 20
0.3076862707
 10
-2.9622159356
 20
0.1841294392
 10
-2.9144182705
 20
0.062157987
 10
-2.8477194847
 20
-0.0574370541
 10
-2.7625521452
 20
-0.1738800645
 10
-2.659468595
 20
-0.2864158665
 10
-2.5391373704
 20
-0.3943146223
 10
-2.4023388657
 20
-0.4968765669
 10
-2.2499602715
 20
-0.593436547
 10
-2.0829898216
 20
-0.6833683339
 10
-1.9025103834
 20
-0.7660886855
 10
-1.7096924353
 20
-0.8410611285
 10
-1.5057864757
 20
-0.907799438
 10
-1.292114913
 20
-0.9658707903
 10
-1.0700634892
 20
-1.0148985705
 10
-0.8410722931
 20
-1.0545648145
 10
-0.6066264205
 20
-1.0846122717
 10
-0.3682463427
 20
-1.1048460726
 10
-0.1274780461
 20
-1.1151349933
 10
0.1141169946
 20
-1.1154123063
 10
0.3549719428
 20
-1.105676213
 10
0.5935247617
 20
-1.0859898558
 10
0.8282283447
 20
-1.0564809081
 10
1.0575605492
 20
-1.017340747
 10
1.2800340676
 20
-0.9688232113
 10
1.494206074
 20
-0.9112429558
 10
1.6986875805
 20
-0.8449734107
 10
1.8921524463
 20
-0.7704443593
 10
2.0733459774
 20
-0.6881391512
 10
2.2410930642
 20
-0.5985915672
 10
2.3943058025
 20
-0.5023823578
 10
2.5319905489
 20
-0.4001354765
 10
2.653254365
 20
-0.2925140337
 10
2.7573108084
 20
-0.1802159957
 10
2.8434850332
 20
-0.0639696584
 10
2.9112181663
 20
0.0554710761
 10
2.9600709326
 20
0.1773315889
 10
2.9897265029
 20
0.3008215676
 10
2.9999925497
 20
0.4251401325
 10
3.0
 20
0.4285836504
  0
LINE
  5
199
330
179
100
AcDbEntity
  8
0
  6
Continuous
 62
     7
370
    15
100
AcDbLine
 10
2.3980614355
 20
23.2147481078
 30
0.0
 11
1.9983845295
 21
23.4885987099
 31
0.0
  0
LINE
  5
19A
330
179
100
AcDbEntity
  8
0
  6
Continuous
 62
     7
370
    15
100
AcDbLine
 10
-1.9983845295
 20
23.4885987099
 30
0.0
 11
-2.3980614355
 21
23.2147481078
 31
0.0
  0
LINE
  5
19B
330
179
100
AcDbEntity
  8
0
  6
Continuous
 62
     7
370
    15
100
AcDbLine
 10
2.9999999999
 20
7.371638786
 30
0.0
 11
2.9999999999
 21
22.2863498183
 31
0.0
  0
LINE
  5
19C
330
179
100
AcDbEntity
  8
0
  6
Continuous
 62
     7
370
    15
100
AcDbLine
 10
-2.9999999999
 20
22.2863498183
 30
0.0
 11
-2.9999999999
 21
7.371638786
 31
0.0
  0
LINE
  5
19D
330
179
100
AcDbEntity
  8
0
  6
Continuous
 62
     7
370
    15
100
AcDbLine
 10
-2.3980614355
 20
6.4432404965
 30
0.0
 11
-1.5987076236
 21
5.8955392923
 31
0.0
  0
LINE
  5
19E
330
179
100
AcDbEntity
  8
0
  6
Continuous
 62
     7
370
    15
100
AcDbLine
 10
1.5987076236
 20
5.8955392923
 30
0.0
 11
2.3980614355
 21
6.4432404965
 31
0.0
  0
LINE
  5
19F
330
179
100
AcDbEntity
  8
0
  6
Continuous
 62
     7
370
    15
100
AcDbLine
 10
2.3980614355
 20
5.214234793
 30
0.0
 11
2.0
 21
5.4869785072
 31
0.0
  0
LINE
  5
1A0
330
179
100
AcDbEntity
  8
0
  6
Continuous
 62
     7
370
    15
100
AcDbLine
 10
-2.0
 20
5.4869785072
 30
0.0
 11
-2.3980614355
 21
5.214234793
 31
0.0
  0
LINE
  5
1A1
330
179
100
AcDbEntity
  8
0
  6
Continuous
 62
     7
370
    15
100
AcDbLine
 10
2.0
 20
5.1430038042
 30
0.0
 11
2.0
 21
6.1704967824
 31
0.0
  0
LINE
  5
1A2
330
179
100
AcDbEntity
  8
0
  6
Continuous
 62
     7
370
    15
100
AcDbLine
 10
-2.0
 20
6.1704967824
 30
0.0
 11
-2.0
 21
5.1430038042
 31
0.0
  0
LINE
  5
1A3
330
179
100
AcDbEntity
  8
0
  6
Continuous
 62
     7
370
    15
100
AcDbLine
 10
3.0
 20
0.4285836504
 30
0.0
 11
3.0
 21
4.2858365035
 31
0.0
  0
LINE
  5
1A4
330
179
100
AcDbEntity
  8
0
  6
Continuous
 62
     7
370
    15
100
AcDbLine
 10
-3.0
 20
4.2858365035
 30
0.0
 11
-3.0
 21
0.4285836504
 31
0.0
  0
LINE
  5
1A5
330
179
100
AcDbEntity
  8
0
  6
Continuous
 62
     7
370
    15
100
AcDbLine
 10
-2.3980614355
 20
-0.4998146392
 30
0.0
 11
-1.9983845296
 21
-0.7736652413
 31
0.0
  0
LINE
  5
1A6
330
179
100
AcDbEntity
  8
0
  6
Continuous
 62
     7
370
    15
100
AcDbLine
 10
1.9983845296
 20
-0.7736652413
 30
0.0
 11
2.3980614355
 21
-0.4998146392
 31
0.0
  0
ARC
  5
1A7
330
179
100
AcDbEntity
  8
0
  6
Continuous
 62
     7
370
    15
100
AcDbCircle
 10
1.9755864966
 20
22.3048987718
 30
0.0
 40
1.0031504813412
100
AcDbArc
 50
312.4960667645
 51
65.0929056852
  0
ARC
  5
1A8
330
179
100
AcDbEntity
  8
0
  6
Continuous
 62
     7
370
    15
100
AcDbCircle
 10
1.9758281329
 20
7.4202035263
 30
0.0
 40
1.025322655204985
100
AcDbArc
 50
311.3529496539
 51
357.2851510518
  0
ARC
  5
1A9
330
179
100
AcDbEntity
  8
0
  6
Continuous
 62
     7
370
    15
100
AcDbCircle
 10
0.0
 20
8.685888047
 30
0.0
 40
3.215884363372089
100
AcDbArc
 50
240.1897987655
 51
299.8102012345
  0
ARC
  5
1AA
330
179
100
AcDbEntity
  8
0
  6
Continuous
 62
     7
370
    15
100
AcDbCircle
 10
1.3136881589
 20
5.1770780134
 30
0.0
 40
0.6871571835474785
100
AcDbArc
 50
311.4804043295
 51
357.1576963837
  0
ARC
  5
1AB
330
179
100
AcDbEntity
  8
0
  6
Continuous
 62
     7
370
    15
100
AcDbCircle
 10
1.9755864967
 20
4.304385457
 30
0.0
 40
1.003150481366615
100
AcDbArc
 50
312.4960667645
 51
65.0929056852
  0
ARC
  5
1AC
330
179
100
AcDbEntity
  8
0
  6
Continuous
 62
     7
370
    15
100
AcDbCircle
 10
0.0
 20
2.6934303523
 30
0.0
 40
4.00178617408419
100
AcDbArc
 50
240.0414640282
 51
299.9585359718
  0
VIEWPORT
  5
1E9
330
179
100
AcDbEntity
  8
0
100
AcDbViewport
 10
0.0
 20
0.0
 30
0.0
 40
243.84
 41
204.216
 68
     1
 69
     1
 12
-0.1054988996
 22
13.1050891613
 13
0.0
 23
0.0
 14
10.0
 24
10.0
 15
10.0
 25
10.0
 16
0.0
 26
0.0
 36
1.0
 17
0.0
 27
0.0
 37
0.0
 42
50.0
 43
0.0
 44
0.0
 45
27.5247793038
 50
0.0
 51
0.0
 72
   100
 90
   557152
  1

281
     0
 71
     1
 74
     0
110
0.0
120
0.0
130
0.0
111
1.0
121
0.0
131
0.0
112
0.0
122
1.0
132
0.0
 79
     0
146
0.0
  0
ENDBLK
  5
17C
330
179
100
AcDbEntity
  8
0
100
AcDbBlockEnd
  0
ENDSEC
  0
SECTION
  2
ENTITIES
  0
LWPOLYLINE
  5
52
330
1F
100
AcDbEntity
  8
0
  6
Continuous
 62
     7
370
    15
100
AcDbPolyline
 90
       29
 70
   128
 43
0.0
 10
1.2604103164
 20
25.4379768332
 10
1.0451108934
 20
25.4218125704
 10
0.8216909424
 20
25.4079177046
 10
0.5915994275
 20
25.3963823491
 10
0.3563285805
 20
25.3872813153
 10
0.1174042231
 20
25.3806736269
 10
-0.1236241285
 20
25.3766021372
 10
-0.3651933129
 20
25.3750932514
 10
-0.6057366614
 20
25.3761567552
 10
-0.8436941581
 20
25.3797857514
 10
-1.0775225571
 20
25.3859567045
 10
-1.3057053917
 20
25.3946295936
 10
-1.5267628085
 20
25.4057481717
 10
-1.7392611655
 20
25.4192403304
 10
-1.9418223292
 20
25.435018568
 10
-2.1331326127
 20
25.4529805566
 10
-2.3119512955
 20
25.4730098057
 10
-2.4771186698
 20
25.494976418
 10
-2.6275635617
 20
25.5187379315
 10
-2.7623102785
 20
25.5441402438
 10
-2.8804849359
 20
25.5710186111
 10
-2.981321126
 20
25.5991987169
 10
-3.0641648873
 20
25.6284978024
 10
-3.1284789463
 20
25.6587258517
 10
-3.1738462017
 20
25.6896868244
 10
-3.1999724293
 20
25.7211799266
 10
-3.2066881906
 20
25.7530009136
 10
-3.1939499312
 20
25.784943414
 10
-3.1806348879
 20
25.8005686105
  0
LWPOLYLINE
  5
53
330
1F
100
AcDbEntity
  8
0
  6
Continuous
 62
     7
370
    15
100
AcDbPolyline
 90
       16
 70
   128
 43
0.0
 10
2.7657545991
 20
25.8483341902
 10
2.785939012
 20
25.8222949062
 10
2.7926547733
 20
25.7904739192
 10
2.7799165139
 20
25.7585314189
 10
2.7478068464
 20
25.7266745644
 10
2.6965340143
 20
25.6951099599
 10
2.6264305416
 20
25.6640423138
 10
2.5379510762
 20
25.6336731118
 10
2.4316694414
 20
25.6041993098
 10
2.3082749143
 20
25.5758120567
 10
2.1685677559
 20
25.5486954547
 10
2.0134540206
 20
25.5230253654
 10
1.8439396806
 20
25.4989682693
 10
1.6611241014
 20
25.4766801857
 10
1.4661929121
 20
25.4563056615
 10
1.2604103164
 20
25.4379768332
  0
LWPOLYLINE
  5
54
330
1F
100
AcDbEntity
  8
0
  6
Continuous
 62
     7
370
    15
100
AcDbPolyline
 90
       73
 70
   128
 43
0.0
 10
1.011858055
 20
25.989213932
 10
1.1972407631
 20
26.0058391888
 10
1.3719059254
 20
26.0244546836
 10
1.5345242345
 20
26.0449187413
 10
1.683858067
 20
26.0670756181
 10
1.8187709023
 20
26.0907566867
 10
1.9382359721
 20
26.11578172
 10
2.0413440751
 20
26.1419602623
 10
2.1273104965
 20
26.1690930791
 10
2.1954809798
 20
26.1969736733
 10
2.2453367066
 20
26.2253898567
 10
2.2764982446
 20
26.254125365
 10
2.2887284357
 20
26.2829615037
 10
2.2819342008
 20
26.3116788123
 10
2.2561672481
 20
26.3400587347
 10
2.2116236797
 20
26.3678852827
 10
2.148642499
 20
26.3949466793
 10
2.0677030308
 20
26.4210369711
 10
1.9694212734
 20
26.4459575951
 10
1.8545452103
 20
26.4695188903
 10
1.7239491177
 20
26.4915415411
 10
1.5786269107
 20
26.5118579418
 10
1.4196845791
 20
26.5303134722
 10
1.2483317699
 20
26.5467676748
 10
1.0658725815
 20
26.561095323
 10
0.8736956385
 20
26.5731873749
 10
0.6732635235
 20
26.5829518025
 10
0.466101646
 20
26.5903142928
 10
0.2537866327
 20
26.5952188126
 10
0.0379343294
 20
26.5976280357
 10
-0.1798124978
 20
26.5975236264
 10
-0.397796664
 20
26.5949063793
 10
-0.614359178
 20
26.5897962133
 10
-0.8278518683
 20
26.5822320198
 10
-1.0366499267
 20
26.5722713669
 10
-1.2391642739
 20
26.5599900611
 10
-1.4338536534
 20
26.5454815707
 10
-1.6192363615
 20
26.528856314
 10
-1.7939015238
 20
26.5102408191
 10
-1.9565198329
 20
26.4897767614
 10
-2.1058536654
 20
26.4676198846
 10
-2.2407665007
 20
26.443938816
 10
-2.3602315705
 20
26.4189137827
 10
-2.4633396735
 20
26.3927352404
 10
-2.5493060949
 20
26.3656024236
 10
-2.6174765782
 20
26.3377218294
 10
-2.667332305
 20
26.309305646
 10
-2.698493843
 20
26.2805701377
 10
-2.7107240341
 20
26.251733999
 10
-2.7039297992
 20
26.2230166904
 10
-2.6781628465
 20
26.194636768
 10
-2.6336192781
 20
26.16681022
 10
-2.5706380974
 20
26.1397488234
 10
-2.4896986292
 20
26.1136585317
 10
-2.3914168718
 20
26.0887379077
 10
-2.2765408087
 20
26.0651766124
 10
-2.1459447161
 20
26.0431539617
 10
-2.0006225091
 20
26.022837561
 10
-1.8416801774
 20
26.0043820305
 10
-1.6703273683
 20
25.9879278279
 10
-1.4878681799
 20
25.9736001797
 10
-1.2956912369
 20
25.9615081278
 10
-1.0952591219
 20
25.9517437002
 10
-0.8880972443
 20
25.94438121
 10
-0.6757822311
 20
25.9394766901
 10
-0.4599299278
 20
25.937067467
 10
-0.2421831006
 20
25.9371718763
 10
-0.0241989344
 20
25.9397891234
 10
0.1923635796
 20
25.9448992894
 10
0.4058562699
 20
25.9524634829
 10
0.6146543284
 20
25.9624241358
 10
0.8171686755
 20
25.9747054416
 10
1.011858055
 20
25.989213932
  0
LWPOLYLINE
  5
57
330
1F
100
AcDbEntity
  8
0
  6
Continuous
 62
     7
370
    15
100
AcDbPolyline
 90
       56
 70
   128
 43
0.0
 10
0.5227157133
 20
26.1004674598
 10
0.3688037479
 20
26.0893392369
 10
0.2073331827
 20
26.0805316273
 10
0.0404090333
 20
26.0741594516
 10
-0.1297925886
 20
26.0703057807
 10
-0.3010528446
 20
26.0690208534
 10
-0.4711390953
 20
26.0703214204
 10
-0.6378340065
 20
26.0741905269
 10
-0.7989644549
 20
26.0805777333
 10
-0.9524298588
 20
26.0893997725
 10
-1.0962295619
 20
26.1005416358
 10
-1.2284889152
 20
26.1138580718
 10
-1.3474837157
 20
26.1291754806
 10
-1.4516626843
 20
26.1462941762
 10
-1.5396676888
 20
26.1649909903
 10
-1.6103514493
 20
26.1850221813
 10
-1.6627924949
 20
26.206126612
 10
-1.6963071765
 20
26.2280291539
 10
-1.7104585788
 20
26.2504442738
 10
-1.7050622167
 20
26.2730797564
 10
-1.6801884401
 20
26.2956405136
 10
-1.6361615167
 20
26.3178324313
 10
-1.5735554046
 20
26.3393662041
 10
-1.4931862705
 20
26.3599611061
 10
-1.3961018487
 20
26.3793486515
 10
-1.2835677833
 20
26.3972760938
 10
-1.1570511278
 20
26.4135097215
 10
-1.0182012205
 20
26.4278379044
 10
-0.868828182
 20
26.4400738527
 10
-0.7108793185
 20
26.4500580521
 10
-0.5464137349
 20
26.4576603434
 10
-0.3775754917
 20
26.4627816189
 10
-0.2065656534
 20
26.4653551151
 10
-0.035613595
 20
26.4653472825
 10
0.1330520621
 20
26.4627582232
 10
0.2972325031
 20
26.4576216896
 10
0.4547873849
 20
26.4500046442
 10
0.6036627386
 20
26.4400063869
 10
0.7419177464
 20
26.4277572602
 10
0.8677500427
 20
26.4134169502
 10
0.9795192111
 20
26.3971724049
 10
1.0757681697
 20
26.3792353966
 10
1.155242166
 20
26.3598397618
 10
1.216905135
 20
26.3392383522
 10
1.2599532055
 20
26.3176997387
 10
1.2838251802
 20
26.29550471
 10
1.2882098513
 20
26.2729426123
 10
1.2730500579
 20
26.250307577
 10
1.2385434311
 20
26.2278946864
 10
1.1851398176
 20
26.2059961269
 10
1.1135354152
 20
26.1848973796
 10
1.0246636967
 20
26.1648734991
 10
0.9196832409
 20
26.1461855271
 10
0.7999626286
 20
26.12907709
 10
0.667062601
 20
26.1137712224
 10
0.5227157133
 20
26.1004674598
  0
LWPOLYLINE
  5
5C
330
1F
100
AcDbEntity
  8
0
  6
Continuous
 62
     7
370
    15
100
AcDbPolyline
 90
       29
 70
   128
 43
0.0
 10
1.4276161196
 20
4.6223427661
 10
1.2123166966
 20
4.6061785033
 10
0.9888967455
 20
4.5922836374
 10
0.7588052306
 20
4.580748282
 10
0.5235343836
 20
4.5716472482
 10
0.2846100263
 20
4.5650395597
 10
0.0435816747
 20
4.56096807
 10
-0.1979875098
 20
4.5594591842
 10
-0.4385308583
 20
4.5605226881
 10
-0.6764883549
 20
4.5641516843
 10
-0.910316754
 20
4.5703226374
 10
-1.1384995885
 20
4.5789955265
 10
-1.3595570054
 20
4.5901141046
 10
-1.5720553624
 20
4.6036062633
 10
-1.7746165261
 20
4.6193845009
 10
-1.9659268096
 20
4.6373464894
 10
-2.1447454924
 20
4.6573757385
 10
-2.3099128667
 20
4.6793423508
 10
-2.4603577587
 20
4.7031038644
 10
-2.5951044754
 20
4.7285061767
 10
-2.7132791328
 20
4.755384544
 10
-2.8141153229
 20
4.7835646498
 10
-2.8969590842
 20
4.8128637353
 10
-2.9612731433
 20
4.8430917846
 10
-3.0066403986
 20
4.8740527573
 10
-3.0327666262
 20
4.9055458595
 10
-3.0394823875
 20
4.9373668465
 10
-3.0267441282
 20
4.9693093469
 10
-3.0134290848
 20
4.9849345433
  0
LWPOLYLINE
  5
5D
330
1F
100
AcDbEntity
  8
0
  6
Continuous
 62
     7
370
    15
100
AcDbPolyline
 90
       16
 70
   128
 43
0.0
 10
2.9329604023
 20
5.0327001231
 10
2.9531448152
 20
5.0066608391
 10
2.9598605765
 20
4.9748398521
 10
2.9471223171
 20
4.9428973517
 10
2.9150126497
 20
4.9110404973
 10
2.8637398176
 20
4.8794758928
 10
2.7936363448
 20
4.8484082467
 10
2.7051568794
 20
4.8180390447
 10
2.5988752446
 20
4.7885652426
 10
2.4754807175
 20
4.7601779895
 10
2.3357735591
 20
4.7330613876
 10
2.1806598238
 20
4.7073912983
 10
2.0111454838
 20
4.6833342021
 10
1.8283299046
 20
4.6610461186
 10
1.6333987153
 20
4.6406715943
 10
1.4276161196
 20
4.6223427661
  0
LINE
  5
60
330
1F
100
AcDbEntity
  8
0
  6
Continuous
 62
     7
370
    15
100
AcDbLine
 10
2.7657545991
 20
25.8483341902
 30
0.0
 11
2.2663116239
 21
26.3311783962
 31
0.0
  0
LINE
  5
61
330
1F
100
AcDbEntity
  8
0
  6
Continuous
 62
     7
370
    15
100
AcDbLine
 10
-2.6890129486
 20
26.2913737464
 30
0.0
 11
-3.1806348879
 21
25.8005686105
 31
0.0
  0
LINE
  5
62
330
1F
100
AcDbEntity
  8
0
  6
Continuous
 62
     7
370
    15
100
AcDbLine
 10
2.9314284607
 20
8.548595092
 30
0.0
 11
2.7928865095
 21
25.7958347476
 31
0.0
  0
LINE
  5
63
330
1F
100
AcDbEntity
  8
0
  6
Continuous
 62
     7
370
    15
100
AcDbLine
 10
-3.2069199268
 20
25.7476400853
 30
0.0
 11
-3.0683779756
 21
8.5004004297
 31
0.0
  0
LINE
  5
64
330
1F
100
AcDbEntity
  8
0
  6
Continuous
 62
     7
370
    15
100
AcDbLine
 10
-3.0412460652
 20
8.447900987
 30
0.0
 11
-2.0423601148
 21
7.4822125751
 31
0.0
  0
LINE
  5
65
330
1F
100
AcDbEntity
  8
0
  6
Continuous
 62
     7
370
    15
100
AcDbLine
 10
1.9218995431
 20
7.5140562949
 30
0.0
 11
2.9051434218
 21
8.4956665668
 31
0.0
  0
LINE
  5
66
330
1F
100
AcDbEntity
  8
0
  6
Continuous
 62
     7
370
    15
100
AcDbLine
 10
2.9329604023
 20
5.0327001231
 30
0.0
 11
1.9520206158
 21
5.9810388041
 31
0.0
  0
LINE
  5
67
330
1F
100
AcDbEntity
  8
0
  6
Continuous
 62
     7
370
    15
100
AcDbLine
 10
-2.0478503418
 20
5.9489090293
 30
0.0
 11
-3.0134290848
 21
4.9849345433
 31
0.0
  0
LINE
  5
68
330
1F
100
AcDbEntity
  8
0
  6
Continuous
 62
     7
370
    15
100
AcDbLine
 10
2.9959221277
 20
0.5197076661
 30
0.0
 11
2.9600923127
 21
4.9802006805
 31
0.0
  0
LINE
  5
69
330
1F
100
AcDbEntity
  8
0
  6
Continuous
 62
     7
370
    15
100
AcDbLine
 10
-3.0397141237
 20
4.9320060182
 30
0.0
 11
-3.0038843088
 21
0.4715130038
 31
0.0
  0
LINE
  5
6A
330
1F
100
AcDbEntity
  8
0
  6
Continuous
 62
     7
370
    15
100
AcDbLine
 10
-2.9767523983
 20
0.4190135611
 30
0.0
 11
-2.4773094232
 21
-0.0638306448
 31
0.0
  0
LINE
  5
6B
330
1F
100
AcDbEntity
  8
0
  6
Continuous
 62
     7
370
    15
100
AcDbLine
 10
2.4780151494
 20
-0.024025995
 30
0.0
 11
2.9696370888
 21
0.4667791409
 31
0.0
  0
LINE
  5
6C
330
1F
100
AcDbEntity
  8
0
  6
Continuous
 62
     7
370
    15
100
AcDbLine
 10
1.9521623922
 20
5.9633889066
 30
0.0
 11
1.9395646788
 21
7.5316920809
 31
0.0
  0
LINE
  5
6D
330
1F
100
AcDbEntity
  8
0
  6
Continuous
 62
     7
370
    15
100
AcDbLine
 10
-2.0603062788
 20
7.4995623061
 30
0.0
 11
-2.0477085654
 21
5.9312591318
 31
0.0
  0
ARC
  5
6E
330
1F
100
AcDbEntity
  8
0
  6
Continuous
 62
     7
370
    15
100
AcDbCircle
 10
-0.1957431731
 20
17.5636098888
 30
0.0
 40
9.507565219793326
100
AcDbArc
 50
252.4136976698
 51
279.6558108056
  0
ARC
  5
6F
330
1F
100
AcDbEntity
  8
0
  6
Continuous
 62
     7
370
    15
100
AcDbCircle
 10
1.6467249148
 20
10.5899215102
 30
0.0
 40
2.411944598580805
100
AcDbArc
 50
264.103755515
 51
302.1841540022
  0
ARC
  5
70
330
1F
100
AcDbEntity
  8
0
  6
Continuous
 62
     7
370
    15
100
AcDbCircle
 10
-0.1266112936
 20
14.9190025349
 30
0.0
 40
7.679579314806571
100
AcDbArc
 50
255.5544324843
 51
277.8161524004
  0
ARC
  5
71
330
1F
100
AcDbEntity
  8
0
  6
Continuous
 62
     7
370
    15
100
AcDbCircle
 10
0.9590900563
 20
9.6882554614
 30
0.0
 40
2.37784442792987
100
AcDbArc
 50
269.0043657902
 51
293.8853951544
  0
ARC
  5
72
330
1F
100
AcDbEntity
  8
0
  6
Continuous
 62
     7
370
    15
100
AcDbCircle
 10
-0.1460185359
 20
11.7800871494
 30
0.0
 40
6.150220658501453
100
AcDbArc
 50
251.9885651051
 51
280.0809433701
  0
ARC
  5
73
330
1F
100
AcDbEntity
  8
0
  6
Continuous
 62
     7
370
    15
100
AcDbCircle
 10
1.0438382517
 20
7.5463354014
 30
0.0
 40
1.825040369311681
100
AcDbArc
 50
266.4399039335
 51
299.8480055845
  0
ARC
  5
74
330
1F
100
AcDbEntity
  8
0
  6
Continuous
 62
     7
370
    15
100
AcDbCircle
 10
-0.0752827626
 20
9.3720337998
 30
0.0
 40
9.369950771289341
100
AcDbArc
 50
251.7868764376
 51
289.1335837084
  0
ARC
  5
75
330
1F
100
AcDbEntity
  8
0
  6
Continuous
 62
     7
370
    15
100
AcDbCircle
 10
-0.0701032754
 20
8.727233748
 30
0.0
 40
9.114683461178766
100
AcDbArc
 50
254.6863995664
 51
286.2340605796
  0
LWPOLYLINE
  5
1BF
330
1AD
100
AcDbEntity
 67
     1
  8
0
  6
Continuous
 62
     7
370
    15
100
AcDbPolyline
 90
       40
 70
   128
 43
0.0
 10
2.8062430401
 20
24.1594816914
 10
2.711795574
 20
24.0853585734
 10
2.5997610731
 20
24.0140091015
 10
2.470866124
 20
23.9458960047
 10
2.3259466599
 20
23.8814610224
 10
2.1659425392
 20
23.8211220402
 10
1.9918914499
 20
23.7652703797
 10
1.8049221803
 20
23.7142682601
 10
1.6062472977
 20
23.6684464499
 10
1.3971552851
 20
23.6281021211
 10
1.1790021843
 20
23.5934969221
 10
0.9532028018
 20
23.5648552809
 10
0.7212215335
 20
23.5423629496
 10
0.4845628667
 20
23.5261657995
 10
0.2447616239
 20
23.5163688755
 10
0.0033730079
 20
23.5130357142
 10
-0.2380374833
 20
23.5161879325
 10
-0.47790421
 20
23.5258050872
 10
-0.7146715446
 20
23.5418248072
 10
-0.94680396
 20
23.5641431985
 10
-1.1727959884
 20
23.5926155178
 10
-1.3911819847
 20
23.6270571111
 10
-1.600545632
 20
23.6672446116
 10
-1.7995291268
 20
23.7129173878
 10
-1.9868419846
 20
23.7637792343
 10
-2.1612694097
 20
23.8195002925
 10
-2.3216801734
 20
23.87971919
 10
-2.4670339502
 20
23.944045384
 10
-2.5963880652
 20
24.0120616945
 10
-2.7089036072
 20
24.0833270097
 10
-2.8038508699
 20
24.1573791467
 10
-2.8806140838
 20
24.2337378488
 10
-2.9386954099
 20
24.3119079007
 10
-2.9777181687
 20
24.3913823395
 10
-2.9974292824
 20
24.4716457431
 10
-2.9977009171
 20
24.5521775724
 10
-2.978531311
 20
24.6324555476
 10
-2.9400447864
 20
24.7119590353
 10
-2.8824909432
 20
24.7901724248
 10
-2.8062430401
 20
24.8665884723
  0
LWPOLYLINE
  5
1C1
330
1AD
100
AcDbEntity
 67
     1
  8
0
  6
Continuous
 62
     7
370
    15
100
AcDbPolyline
 90
       73
 70
   128
 43
0.0
 10
2.3385358667
 20
24.6898117773
 10
2.4066725526
 20
24.7588718686
 10
2.4564930072
 20
24.8296486665
 10
2.4876180667
 20
24.901603517
 10
2.4998108506
 20
24.9741888
 10
2.4929785646
 20
25.0468520979
 10
2.4671732064
 20
25.119040399
 10
2.4225911703
 20
25.1902043067
 10
2.3595717527
 20
25.2598022208
 10
2.2785945693
 20
25.3273044591
 10
2.1802759053
 20
25.3921972888
 10
2.0653640252
 20
25.4539868364
 10
1.9347334778
 20
25.5122028459
 10
1.7893784404
 20
25.5664022585
 10
1.6304051526
 20
25.6161725839
 10
1.4590234971
 20
25.6611350399
 10
1.2765377918
 20
25.7009474349
 10
1.0843368632
 20
25.7353067728
 10
0.8838834763
 20
25.7639515581
 10
0.6767032024
 20
25.7866637867
 10
0.4643728085
 20
25.8032706049
 10
0.2485082572
 20
25.8136456247
 10
0.030752408
 20
25.817709886
 10
-0.1872374857
 20
25.8154324573
 10
-0.4038023889
 20
25.8068306713
 10
-0.6172941122
 20
25.7919699926
 10
-0.8260878546
 20
25.77096352
 10
-1.0285945696
 20
25.7439711256
 10
-1.2232730588
 20
25.7111982376
 10
-1.4086417014
 20
25.6728942776
 10
-1.5832897301
 20
25.6293507618
 10
-1.745887968
 20
25.5808990827
 10
-1.8951989442
 20
25.5279079867
 10
-2.0300863121
 20
25.4707807683
 10
-2.1495234973
 20
25.4099521998
 10
-2.2526015109
 20
25.3458852236
 10
-2.3385358667
 20
25.279067428
 10
-2.4066725526
 20
25.2100073367
 10
-2.4564930072
 20
25.1392305388
 10
-2.4876180667
 20
25.0672756884
 10
-2.4998108506
 20
24.9946904053
 10
-2.4929785646
 20
24.9220271075
 10
-2.4671732064
 20
24.8498388064
 10
-2.4225911703
 20
24.7786748986
 10
-2.3595717527
 20
24.7090769845
 10
-2.2785945693
 20
24.6415747462
 10
-2.1802759053
 20
24.5766819165
 10
-2.0653640252
 20
24.514892369
 10
-1.9347334778
 20
24.4566763594
 10
-1.7893784404
 20
24.4024769468
 10
-1.6304051526
 20
24.3527066214
 10
-1.4590234971
 20
24.3077441655
 10
-1.2765377918
 20
24.2679317704
 10
-1.0843368632
 20
24.2335724326
 10
-0.8838834763
 20
24.2049276473
 10
-0.6767032024
 20
24.1822154187
 10
-0.4643728085
 20
24.1656086005
 10
-0.2485082572
 20
24.1552335806
 10
-0.030752408
 20
24.1511693193
 10
0.1872374857
 20
24.153446748
 10
0.4038023889
 20
24.1620485341
 10
0.6172941122
 20
24.1769092127
 10
0.8260878546
 20
24.1979156853
 10
1.0285945696
 20
24.2249080798
 10
1.2232730588
 20
24.2576809677
 10
1.4086417014
 20
24.2959849278
 10
1.5832897301
 20
24.3395284436
 10
1.745887968
 20
24.3879801227
 10
1.8951989442
 20
24.4409712186
 10
2.0300863121
 20
24.4980984371
 10
2.1495234973
 20
24.5589270055
 10
2.2526015109
 20
24.6229939817
 10
2.3385358667
 20
24.6898117773
  0
LWPOLYLINE
  5
1C2
330
1AD
100
AcDbEntity
 67
     1
  8
0
  6
Continuous
 62
     7
370
    15
100
AcDbPolyline
 90
       36
 70
   128
 43
0.0
 10
2.8062430401
 20
7.7546043674
 10
2.711795574
 20
7.6804812493
 10
2.5997610731
 20
7.6091317775
 10
2.470866124
 20
7.5410186807
 10
2.3259466599
 20
7.4765836984
 10
2.1659425392
 20
7.4162447162
 10
1.9918914499
 20
7.3603930556
 10
1.8049221803
 20
7.3093909361
 10
1.6062472977
 20
7.2635691259
 10
1.3971552851
 20
7.2232247971
 10
1.1790021843
 20
7.1886195981
 10
0.9532028018
 20
7.1599779569
 10
0.7212215335
 20
7.1374856256
 10
0.4845628667
 20
7.1212884755
 10
0.2447616239
 20
7.1114915514
 10
0.0033730079
 20
7.1081583902
 10
-0.2380374833
 20
7.1113106085
 10
-0.47790421
 20
7.1209277632
 10
-0.7146715446
 20
7.1369474832
 10
-0.94680396
 20
7.1592658745
 10
-1.1727959884
 20
7.1877381938
 10
-1.3911819847
 20
7.2221797871
 10
-1.600545632
 20
7.2623672876
 10
-1.7995291268
 20
7.3080400638
 10
-1.9868419846
 20
7.3589019103
 10
-2.1612694097
 20
7.4146229685
 10
-2.3216801734
 20
7.4748418659
 10
-2.4670339502
 20
7.53916806
 10
-2.5963880652
 20
7.6071843705
 10
-2.7089036072
 20
7.6784496857
 10
-2.8038508699
 20
7.7525018226
 10
-2.8806140838
 20
7.8288605248
 10
-2.9386954099
 20
7.9070305767
 10
-2.9777181687
 20
7.9865050155
 10
-2.9974292824
 20
8.0667684191
 10
-2.9999999999
 20
8.1081577578
  0
LWPOLYLINE
  5
1C4
330
1AD
100
AcDbEntity
 67
     1
  8
0
  6
Continuous
 62
     7
370
    15
100
AcDbPolyline
 90
       56
 70
   128
 43
0.0
 10
1.40312152
 20
24.8076629075
 10
1.3335225284
 20
24.7555005847
 10
1.2465390313
 20
24.7063228321
 10
1.1433049916
 20
24.6607707569
 10
1.0251662229
 20
24.6194382001
 10
0.8936628446
 20
24.5828639948
 10
0.7505092045
 20
24.5515249417
 10
0.5975715292
 20
24.5258295933
 10
0.4368435951
 20
24.5061129277
 10
0.2704207367
 20
24.4926319818
 10
0.1004725304
 20
24.4855625003
 10
-0.070785489
 20
24.4849966448
 10
-0.2411207112
 20
24.4909417921
 10
-0.4083125563
 20
24.503320438
 10
-0.5701814227
 20
24.5219712081
 10
-0.7246171023
 20
24.5466509609
 10
-0.8696062899
 20
24.5770379581
 10
-1.0032588295
 20
24.6127360589
 10
-1.123832356
 20
24.6532798838
 10
-1.2297550091
 20
24.698140882
 10
-1.319645925
 20
24.7467342219
 10
-1.3923332381
 20
24.798426415
 10
-1.4468693581
 20
24.8525435745
 10
-1.4825433234
 20
24.9083802004
 10
-1.4988900691
 20
24.9652083769
 10
-1.4956964906
 20
25.0222872618
 10
-1.4730042209
 20
25.0788727447
 10
-1.4311090886
 20
25.1342271471
 10
-1.3705572607
 20
25.1876288398
 10
-1.2921381229
 20
25.2383816501
 10
-1.1968739886
 20
25.2858239374
 10
-1.0860067714
 20
25.329337219
 10
-0.9609817952
 20
25.3683542327
 10
-0.8234289516
 20
25.4023663321
 10
-0.6751414524
 20
25.4309301175
 10
-0.5180524518
 20
25.4536732161
 10
-0.3542098453
 20
25.470299137
 10
-0.1857495718
 20
25.4805911359
 10
-0.0148677685
 20
25.4844150407
 10
0.1562078589
 20
25.4817210012
 10
0.3252470779
 20
25.472544138
 10
0.4900462039
 20
25.4570040858
 10
0.6484568282
 20
25.4353034329
 10
0.7984138261
 20
25.4077250805
 10
0.9379622787
 20
25.3746285545
 10
1.0652829586
 20
25.3364453188
 10
1.1787160459
 20
25.2936731502
 10
1.276782767
 20
25.2468696495
 10
1.3582046722
 20
25.1966449718
 10
1.4219203023
 20
25.1436538725
 10
1.4670990268
 20
25.0885871718
 10
1.4931518718
 20
25.0321627482
 10
1.4997391986
 20
24.9751161804
 10
1.4867751315
 20
24.9181911577
 10
1.4544286768
 20
24.8621297848
 10
1.40312152
 20
24.8076629075
  0
LWPOLYLINE
  5
1C7
330
1AD
100
AcDbEntity
 67
     1
  8
0
  6
Continuous
 62
     7
370
    15
100
AcDbPolyline
 90
       30
 70
   128
 43
0.0
 10
1.8708286934
 20
5.4211519894
 10
1.7925115574
 20
5.361162534
 10
1.6969315551
 20
5.3040207515
 10
1.5850091743
 20
5.2502769485
 10
1.4578222887
 20
5.2004487071
 10
1.3165957775
 20
5.1550159006
 10
1.1626897293
 20
5.1144160717
 10
0.9975863434
 20
5.079040219
 10
0.8228756557
 20
5.0492290313
 10
0.6402402256
 20
5.0252696066
 10
0.4514389321
 20
5.0073926873
 10
0.2582900349
 20
4.9957704379
 10
0.0626536635
 20
4.9905147869
 10
-0.133586097
 20
4.9916763492
 10
-0.3285393503
 20
4.9992439384
 10
-0.52032859
 20
5.0131446743
 10
-0.707106781
 20
5.0332446853
 10
-0.8870751472
 20
5.0593503974
 10
-1.0585004947
 20
5.0912103981
 10
-1.2197319039
 20
5.1285178584
 10
-1.3692166281
 20
5.1709134869
 10
-1.5055150476
 20
5.2179889906
 10
-1.6273145342
 20
5.2692910066
 10
-1.7334420923
 20
5.3243254686
 10
-1.8228756555
 20
5.3825623645
 10
-1.8947539296
 20
5.4434408412
 10
-1.9483846875
 20
5.5063746057
 10
-1.9832514359
 20
5.5707575714
 10
-1.9990183887
 20
5.6359696952
 10
-2.0
 20
5.6568542497
  0
LWPOLYLINE
  5
1C9
330
1AD
100
AcDbEntity
 67
     1
  8
0
  6
Continuous
 62
     7
370
    15
100
AcDbPolyline
 90
       40
 70
   128
 43
0.0
 10
2.8062430402
 20
4.3604918176
 10
2.7117955741
 20
4.2863686995
 10
2.5997610732
 20
4.2150192277
 10
2.470866124
 20
4.1469061309
 10
2.3259466599
 20
4.0824711486
 10
2.1659425392
 20
4.0221321664
 10
1.99189145
 20
3.9662805058
 10
1.8049221804
 20
3.9152783863
 10
1.6062472978
 20
3.8694565761
 10
1.3971552851
 20
3.8291122473
 10
1.1790021843
 20
3.7945070483
 10
0.9532028019
 20
3.7658654071
 10
0.7212215335
 20
3.7433730758
 10
0.4845628668
 20
3.7271759257
 10
0.2447616239
 20
3.7173790016
 10
0.0033730079
 20
3.7140458404
 10
-0.2380374833
 20
3.7171980587
 10
-0.4779042101
 20
3.7268152134
 10
-0.7146715446
 20
3.7428349333
 10
-0.94680396
 20
3.7651533246
 10
-1.1727959884
 20
3.7936256439
 10
-1.3911819847
 20
3.8280672373
 10
-1.6005456321
 20
3.8682547378
 10
-1.7995291268
 20
3.913927514
 10
-1.9868419846
 20
3.9647893605
 10
-2.1612694098
 20
4.0205104187
 10
-2.3216801734
 20
4.0807293161
 10
-2.4670339503
 20
4.1450555101
 10
-2.5963880652
 20
4.2130718207
 10
-2.7089036073
 20
4.2843371359
 10
-2.80385087
 20
4.3583892728
 10
-2.8806140839
 20
4.434747975
 10
-2.93869541
 20
4.5129180269
 10
-2.9777181687
 20
4.5923924657
 10
-2.9974292825
 20
4.6726558693
 10
-2.9977009172
 20
4.7531876986
 10
-2.9785313111
 20
4.8334656738
 10
-2.9400447865
 20
4.9129691615
 10
-2.8824909433
 20
4.991182551
 10
-2.8062430402
 20
5.0675985985
  0
LWPOLYLINE
  5
1CB
330
1AD
100
AcDbEntity
 67
     1
  8
0
  6
Continuous
 62
     7
370
    15
100
AcDbPolyline
 90
       41
 70
   128
 43
0.0
 10
-3.0
 20
0.4714045208
 10
-2.9974292825
 20
0.430015182
 10
-2.9777181687
 20
0.3497517785
 10
-2.93869541
 20
0.2702773396
 10
-2.8806140839
 20
0.1921072877
 10
-2.80385087
 20
0.1157485856
 10
-2.7089036073
 20
0.0416964486
 10
-2.5963880652
 20
-0.0295688666
 10
-2.4670339503
 20
-0.0975851771
 10
-2.3216801734
 20
-0.1619113711
 10
-2.1612694098
 20
-0.2221302685
 10
-1.9868419846
 20
-0.2778513267
 10
-1.7995291268
 20
-0.3287131732
 10
-1.6005456321
 20
-0.3743859495
 10
-1.3911819847
 20
-0.41457345
 10
-1.1727959884
 20
-0.4490150433
 10
-0.94680396
 20
-0.4774873626
 10
-0.7146715446
 20
-0.4998057539
 10
-0.4779042101
 20
-0.5158254739
 10
-0.2380374833
 20
-0.5254426285
 10
0.0033730079
 20
-0.5285948469
 10
0.2447616239
 20
-0.5252616856
 10
0.4845628668
 20
-0.5154647615
 10
0.7212215335
 20
-0.4992676115
 10
0.9532028019
 20
-0.4767752802
 10
1.1790021843
 20
-0.448133639
 10
1.3971552851
 20
-0.41352844
 10
1.6062472978
 20
-0.3731841112
 10
1.8049221804
 20
-0.327362301
 10
1.99189145
 20
-0.2763601814
 10
2.1659425392
 20
-0.2205085208
 10
2.3259466599
 20
-0.1601695387
 10
2.470866124
 20
-0.0957345564
 10
2.5997610732
 20
-0.0276214595
 10
2.7117955741
 20
0.0437280123
 10
2.8062430402
 20
0.1178511304
 10
2.8824909433
 20
0.1942671779
 10
2.9400447865
 20
0.2724805674
 10
2.9785313111
 20
0.3519840551
 10
2.9977009172
 20
0.4322620303
 10
3.0
 20
0.4714045208
  0
LINE
  5
1CD
330
1AD
100
AcDbEntity
 67
     1
  8
0
  6
Continuous
 62
     7
370
    15
100
AcDbLine
 10
2.8062430401
 20
24.8665884723
 30
0.0
 11
2.3385358668
 21
25.279067428
 31
0.0
  0
LINE
  5
1CE
330
1AD
100
AcDbEntity
 67
     1
  8
0
  6
Continuous
 62
     7
370
    15
100
AcDbLine
 10
-2.3385358668
 20
25.279067428
 30
0.0
 11
-2.8062430401
 21
24.8665884723
 31
0.0
  0
LINE
  5
1CF
330
1AD
100
AcDbEntity
 67
     1
  8
0
  6
Continuous
 62
     7
370
    15
100
AcDbLine
 10
2.9999999999
 20
8.1081577578
 30
0.0
 11
2.9999999999
 21
24.5130350819
 31
0.0
  0
LINE
  5
1D0
330
1AD
100
AcDbEntity
 67
     1
  8
0
  6
Continuous
 62
     7
370
    15
100
AcDbLine
 10
-2.9999999999
 20
24.5130350819
 30
0.0
 11
-2.9999999999
 21
8.1081577578
 31
0.0
  0
LINE
  5
1D1
330
1AD
100
AcDbEntity
 67
     1
  8
0
  6
Continuous
 62
     7
370
    15
100
AcDbLine
 10
-2.8062430401
 20
7.7546043674
 30
0.0
 11
-1.8708286934
 21
6.929646456
 31
0.0
  0
LINE
  5
1D2
330
1AD
100
AcDbEntity
 67
     1
  8
0
  6
Continuous
 62
     7
370
    15
100
AcDbLine
 10
1.8708286934
 20
6.929646456
 30
0.0
 11
2.8062430401
 21
7.7546043674
 31
0.0
  0
LINE
  5
1D3
330
1AD
100
AcDbEntity
 67
     1
  8
0
  6
Continuous
 62
     7
370
    15
100
AcDbLine
 10
2.8062430402
 20
5.0675985985
 30
0.0
 11
2.0
 21
5.7786381254
 31
0.0
  0
LINE
  5
1D4
330
1AD
100
AcDbEntity
 67
     1
  8
0
  6
Continuous
 62
     7
370
    15
100
AcDbLine
 10
-2.0
 20
5.7786381254
 30
0.0
 11
-2.8062430402
 21
5.0675985985
 31
0.0
  0
LINE
  5
1D5
330
1AD
100
AcDbEntity
 67
     1
  8
0
  6
Continuous
 62
     7
370
    15
100
AcDbLine
 10
3.0
 20
0.4714045208
 30
0.0
 11
3.0
 21
4.7140452081
 31
0.0
  0
LINE
  5
1D6
330
1AD
100
AcDbEntity
 67
     1
  8
0
  6
Continuous
 62
     7
370
    15
100
AcDbLine
 10
-3.0
 20
4.7140452081
 30
0.0
 11
-3.0
 21
0.4714045208
 31
0.0
  0
LINE
  5
1D7
330
1AD
100
AcDbEntity
 67
     1
  8
0
  6
Continuous
 62
     7
370
    15
100
AcDbLine
 10
2.0
 20
5.6568542497
 30
0.0
 11
2.0
 21
7.0435648406
 31
0.0
  0
LINE
  5
1D8
330
1AD
100
AcDbEntity
 67
     1
  8
0
  6
Continuous
 62
     7
370
    15
100
AcDbLine
 10
-2.0
 20
7.0435648406
 30
0.0
 11
-2.0
 21
5.6568542497
 31
0.0
  0
LINE
  5
1D9
330
1AD
100
AcDbEntity
 67
     1
  8
0
  6
Continuous
 62
     7
370
    15
100
AcDbLine
 10
-2.8062430402
 20
0.1178511304
 30
0.0
 11
-2.3385358668
 21
-0.2946278253
 31
0.0
  0
LINE
  5
1DA
330
1AD
100
AcDbEntity
 67
     1
  8
0
  6
Continuous
 62
     7
370
    15
100
AcDbLine
 10
2.3385358668
 20
-0.2946278253
 30
0.0
 11
2.8062430402
 21
0.1178511304
 31
0.0
  0
ARC
  5
1DB
330
1AD
100
AcDbEntity
 67
     1
  8
0
  6
Continuous
 62
     7
370
    15
100
AcDbCircle
 10
2.5622474422
 20
24.5130350819
 30
0.0
 40
0.4295740351478323
100
AcDbArc
 50
304.6104794003
 51
55.3895205972
  0
ARC
  5
1DC
330
1AD
100
AcDbEntity
 67
     1
  8
0
  6
Continuous
 62
     7
370
    15
100
AcDbCircle
 10
2.514302632
 20
8.1444644828
 30
0.0
 40
0.487052472987838
100
AcDbArc
 50
306.8271077403
 51
355.7249914281
  0
ARC
  5
1DD
330
1AD
100
AcDbEntity
 67
     1
  8
0
  6
Continuous
 62
     7
370
    15
100
AcDbCircle
 10
0.0
 20
23.0343963728
 30
0.0
 40
1.839907958725384
100
AcDbArc
 50
58.3957148719
 51
121.6042851281
  0
ARC
  5
1DE
330
1AD
100
AcDbEntity
 67
     1
  8
0
  6
Continuous
 62
     7
370
    15
100
AcDbCircle
 10
0.0
 20
10.4227610519
 30
0.0
 40
3.962555940310063
100
AcDbArc
 50
241.8275621477
 51
298.172437852
  0
ARC
  5
1DF
330
1AD
100
AcDbEntity
 67
     1
  8
0
  6
Continuous
 62
     7
370
    15
100
AcDbCircle
 10
1.6802296461
 20
5.678851338
 30
0.0
 40
0.3205260537522727
100
AcDbArc
 50
306.487291775
 51
356.0648074079
  0
ARC
  5
1E0
330
1AD
100
AcDbEntity
 67
     1
  8
0
  6
Continuous
 62
     7
370
    15
100
AcDbCircle
 10
2.5622474423
 20
4.714045208
 30
0.0
 40
0.4295740351587192
100
AcDbArc
 50
304.6104794003
 51
55.3895205972
  0
ARC
  5
1E1
330
1AD
100
AcDbEntity
 67
     1
  8
0
  6
Continuous
 62
     7
370
    15
100
AcDbCircle
 10
0.0
 20
4.1097384976
 30
0.0
 40
4.986701585963449
100
AcDbArc
 50
242.0335514206
 51
297.9664485791
  0
VIEWPORT
  5
1EA
330
1AD
100
AcDbEntity
 67
     1
  8
0
100
AcDbViewport
 10
0.0
 20
0.0
 30
0.0
 40
243.84
 41
204.216
 68
     1
 69
     1
 12
-0.1054988996
 22
13.1050891613
 13
0.0
 23
0.0
 14
10.0
 24
10.0
 15
10.0
 25
10.0
 16
0.0
 26
0.0
 36
1.0
 17
0.0
 27
0.0
 37
0.0
 42
50.0
 43
0.0
 44
0.0
 45
27.5247793038
 50
0.0
 51
0.0
 72
   100
 90
   557152
  1

281
     0
 71
     1
 74
     0
110
0.0
120
0.0
130
0.0
111
1.0
121
0.0
131
0.0
112
0.0
122
1.0
132
0.0
 79
     0
146
0.0
  0
ENDSEC
  0
SECTION
  2
OBJECTS
  0
DICTIONARY
  5
C
330
0
100
AcDbDictionary
281
     1
  3
ACAD_GROUP
350
D
  3
ACAD_LAYOUT
350
1A
  3
ACAD_MLINESTYLE
350
17
  3
ACAD_PLOTSETTINGS
350
19
  3
ACAD_PLOTSTYLENAME
350
E
  3
ACAD_SCALELIST
350
1EB
  3
AcDbVariableDictionary
350
20D
  0
DICTIONARY
  5
D
102
{ACAD_REACTORS
330
C
102
}
330
C
100
AcDbDictionary
281
     1
  0
DICTIONARY
  5
1A
102
{ACAD_REACTORS
330
C
102
}
330
C
100
AcDbDictionary
281
     1
  3
_Back
350
A7
  3
_Bottom
350
13F
  3
_Dimetric
350
1AE
  3
_Front
350
1E
  3
_Isometric
350
146
  3
_Left
350
D7
  3
_Right
350
109
  3
_Top
350
26
  3
_Trimetric
350
17A
  3
Model
350
22
  0
DICTIONARY
  5
17
102
{ACAD_REACTORS
330
C
102
}
330
C
100
AcDbDictionary
281
     1
  3
Standard
350
18
  0
DICTIONARY
  5
19
102
{ACAD_REACTORS
330
C
102
}
330
C
100
AcDbDictionary
281
     1
  0
ACDBDICTIONARYWDFLT
  5
E
102
{ACAD_REACTORS
330
C
102
}
330
C
100
AcDbDictionary
281
     1
  3
Normal
350
F
100
AcDbDictionaryWithDefault
340
F
  0
DICTIONARY
  5
1EB
102
{ACAD_REACTORS
330
C
102
}
330
C
100
AcDbDictionary
281
     1
  3
A0
350
1EC
  3
A1
350
1ED
  3
A2
350
1EE
  3
A3
350
1EF
  3
A4
350
1F0
  3
A5
350
1F1
  3
A6
350
1F2
  3
A7
350
1F3
  3
A8
350
1F4
  3
A9
350
1F5
  3
B0
350
1F6
  3
B1
350
1F7
  3
B2
350
1F8
  3
B3
350
1F9
  3
B4
350
1FA
  3
B5
350
1FB
  3
B6
350
1FC
  3
B7
350
1FD
  3
B8
350
1FE
  3
B9
350
1FF
  3
C0
350
200
  3
C1
350
201
  3
C2
350
202
  3
C3
350
203
  3
C4
350
204
  3
C5
350
205
  3
C6
350
206
  3
C7
350
207
  3
C8
350
208
  3
C9
350
209
  3
D0
350
20A
  3
D1
350
20B
  3
D2
350
20C
  0
DICTIONARY
  5
20D
102
{ACAD_REACTORS
330
C
102
}
330
C
100
AcDbDictionary
281
     1
  3
CANNOSCALE
350
20E
  0
LAYOUT
  5
A7
102
{ACAD_REACTORS
330
1A
102
}
330
1A
100
AcDbPlotSettings
  1

  2
none_device
  4

  6

 40
0.0
 41
0.0
 42
0.0
 43
0.0
 44
0.0
 45
0.0
 46
0.0
 47
0.0
 48
0.0
 49
0.0
140
0.0
141
0.0
142
1.0
143
1.0
 70
   688
 72
     0
 73
     0
 74
     5
  7

 75
    16
147
1.0
148
0.0
149
0.0
100
AcDbLayout
  1
_Back
 70
     1
 71
     3
 10
0.0
 20
0.0
 11
0.0
 21
0.0
 12
0.0
 22
0.0
 32
0.0
 14
0.0
 24
0.0
 34
0.0
 15
0.0
 25
0.0
 35
0.0
146
0.0
 13
0.0
 23
0.0
 33
0.0
 16
1.0
 26
0.0
 36
0.0
 17
0.0
 27
1.0
 37
0.0
 76
     0
330
A6
331
1E4
  0
LAYOUT
  5
13F
102
{ACAD_REACTORS
330
1A
102
}
330
1A
100
AcDbPlotSettings
  1

  2
none_device
  4

  6

 40
0.0
 41
0.0
 42
0.0
 43
0.0
 44
0.0
 45
0.0
 46
0.0
 47
0.0
 48
0.0
 49
0.0
140
0.0
141
0.0
142
1.0
143
1.0
 70
   688
 72
     0
 73
     0
 74
     5
  7

 75
    16
147
1.0
148
0.0
149
0.0
100
AcDbLayout
  1
_Bottom
 70
     1
 71
     6
 10
0.0
 20
0.0
 11
0.0
 21
0.0
 12
0.0
 22
0.0
 32
0.0
 14
0.0
 24
0.0
 34
0.0
 15
0.0
 25
0.0
 35
0.0
146
0.0
 13
0.0
 23
0.0
 33
0.0
 16
1.0
 26
0.0
 36
0.0
 17
0.0
 27
1.0
 37
0.0
 76
     0
330
13E
331
1E7
  0
LAYOUT
  5
1AE
102
{ACAD_REACTORS
330
1A
102
}
330
1A
100
AcDbPlotSettings
  1

  2
none_device
  4
ANSI_A_(11.00_x_8.50_Inches)
  6

 40
6.35
 41
19.05
 42
6.35000508
 43
19.05000254
 44
279.4
 45
215.9
 46
134.1856237458
 47
-14.9016240961
 48
0.0
 49
0.0
140
0.0
141
0.0
142
0.3118390126
143
1.0
 70
  1696
 72
     0
 73
     0
 74
     5
  7

 75
    16
147
1.0
148
0.0
149
0.0
100
AcDbLayout
  1
_Dimetric
 70
     1
 71
     9
 10
0.0
 20
0.0
 11
0.0
 21
0.0
 12
0.0
 22
0.0
 32
0.0
 14
-3.2069199268
 24
-0.3874497131
 34
0.0
 15
2.9959221277
 25
26.5976280357
 35
0.0
146
0.0
 13
0.0
 23
0.0
 33
0.0
 16
1.0
 26
0.0
 36
0.0
 17
0.0
 27
1.0
 37
0.0
 76
     0
330
1AD
331
1EA
  0
LAYOUT
  5
1E
102
{ACAD_REACTORS
330
1A
102
}
330
1A
100
AcDbPlotSettings
  1

  2
none_device
  4

  6

 40
0.0
 41
0.0
 42
0.0
 43
0.0
 44
0.0
 45
0.0
 46
0.0
 47
0.0
 48
0.0
 49
0.0
140
0.0
141
0.0
142
1.0
143
1.0
 70
   688
 72
     0
 73
     0
 74
     5
  7

 75
    16
147
1.0
148
0.0
149
0.0
100
AcDbLayout
  1
_Front
 70
     1
 71
     1
 10
0.0
 20
0.0
 11
420.0
 21
297.0
 12
0.0
 22
0.0
 32
0.0
 14
1.0000000000E+20
 24
1.0000000000E+20
 34
1.0000000000E+20
 15
-1.0000000000E+20
 25
-1.0000000000E+20
 35
-1.0000000000E+20
146
0.0
 13
0.0
 23
0.0
 33
0.0
 16
1.0
 26
0.0
 36
0.0
 17
0.0
 27
1.0
 37
0.0
 76
     0
330
1B
331
1E2
  0
LAYOUT
  5
146
102
{ACAD_REACTORS
330
1A
102
}
330
1A
100
AcDbPlotSettings
  1

  2
none_device
  4

  6

 40
0.0
 41
0.0
 42
0.0
 43
0.0
 44
0.0
 45
0.0
 46
0.0
 47
0.0
 48
0.0
 49
0.0
140
0.0
141
0.0
142
1.0
143
1.0
 70
   688
 72
     0
 73
     0
 74
     5
  7

 75
    16
147
1.0
148
0.0
149
0.0
100
AcDbLayout
  1
_Isometric
 70
     1
 71
     7
 10
0.0
 20
0.0
 11
0.0
 21
0.0
 12
0.0
 22
0.0
 32
0.0
 14
0.0
 24
0.0
 34
0.0
 15
0.0
 25
0.0
 35
0.0
146
0.0
 13
0.0
 23
0.0
 33
0.0
 16
1.0
 26
0.0
 36
0.0
 17
0.0
 27
1.0
 37
0.0
 76
     0
330
145
331
1E8
  0
LAYOUT
  5
D7
102
{ACAD_REACTORS
330
1A
102
}
330
1A
100
AcDbPlotSettings
  1

  2
none_device
  4

  6

 40
0.0
 41
0.0
 42
0.0
 43
0.0
 44
0.0
 45
0.0
 46
0.0
 47
0.0
 48
0.0
 49
0.0
140
0.0
141
0.0
142
1.0
143
1.0
 70
   688
 72
     0
 73
     0
 74
     5
  7

 75
    16
147
1.0
148
0.0
149
0.0
100
AcDbLayout
  1
_Left
 70
     1
 71
     4
 10
0.0
 20
0.0
 11
0.0
 21
0.0
 12
0.0
 22
0.0
 32
0.0
 14
0.0
 24
0.0
 34
0.0
 15
0.0
 25
0.0
 35
0.0
146
0.0
 13
0.0
 23
0.0
 33
0.0
 16
1.0
 26
0.0
 36
0.0
 17
0.0
 27
1.0
 37
0.0
 76
     0
330
D6
331
1E5
  0
LAYOUT
  5
109
102
{ACAD_REACTORS
330
1A
102
}
330
1A
100
AcDbPlotSettings
  1

  2
none_device
  4

  6

 40
0.0
 41
0.0
 42
0.0
 43
0.0
 44
0.0
 45
0.0
 46
0.0
 47
0.0
 48
0.0
 49
0.0
140
0.0
141
0.0
142
1.0
143
1.0
 70
   688
 72
     0
 73
     0
 74
     5
  7

 75
    16
147
1.0
148
0.0
149
0.0
100
AcDbLayout
  1
_Right
 70
     1
 71
     5
 10
0.0
 20
0.0
 11
0.0
 21
0.0
 12
0.0
 22
0.0
 32
0.0
 14
0.0
 24
0.0
 34
0.0
 15
0.0
 25
0.0
 35
0.0
146
0.0
 13
0.0
 23
0.0
 33
0.0
 16
1.0
 26
0.0
 36
0.0
 17
0.0
 27
1.0
 37
0.0
 76
     0
330
108
331
1E6
  0
LAYOUT
  5
26
102
{ACAD_REACTORS
330
1A
102
}
330
1A
100
AcDbPlotSettings
  1

  2
none_device
  4

  6

 40
0.0
 41
0.0
 42
0.0
 43
0.0
 44
0.0
 45
0.0
 46
0.0
 47
0.0
 48
0.0
 49
0.0
140
0.0
141
0.0
142
1.0
143
1.0
 70
   688
 72
     0
 73
     0
 74
     5
  7

 75
    16
147
1.0
148
0.0
149
0.0
100
AcDbLayout
  1
_Top
 70
     1
 71
     2
 10
0.0
 20
0.0
 11
0.0
 21
0.0
 12
0.0
 22
0.0
 32
0.0
 14
0.0
 24
0.0
 34
0.0
 15
0.0
 25
0.0
 35
0.0
146
0.0
 13
0.0
 23
0.0
 33
0.0
 16
1.0
 26
0.0
 36
0.0
 17
0.0
 27
1.0
 37
0.0
 76
     0
330
23
331
1E3
  0
LAYOUT
  5
17A
102
{ACAD_REACTORS
330
1A
102
}
330
1A
100
AcDbPlotSettings
  1

  2
none_device
  4

  6

 40
0.0
 41
0.0
 42
0.0
 43
0.0
 44
0.0
 45
0.0
 46
0.0
 47
0.0
 48
0.0
 49
0.0
140
0.0
141
0.0
142
1.0
143
1.0
 70
   688
 72
     0
 73
     0
 74
     5
  7

 75
    16
147
1.0
148
0.0
149
0.0
100
AcDbLayout
  1
_Trimetric
 70
     1
 71
     8
 10
0.0
 20
0.0
 11
0.0
 21
0.0
 12
0.0
 22
0.0
 32
0.0
 14
0.0
 24
0.0
 34
0.0
 15
0.0
 25
0.0
 35
0.0
146
0.0
 13
0.0
 23
0.0
 33
0.0
 16
1.0
 26
0.0
 36
0.0
 17
0.0
 27
1.0
 37
0.0
 76
     0
330
179
331
1E9
  0
LAYOUT
  5
22
102
{ACAD_REACTORS
330
1A
102
}
330
1A
100
AcDbPlotSettings
  1

  2
none_device
  4

  6

 40
0.0
 41
0.0
 42
0.0
 43
0.0
 44
0.0
 45
0.0
 46
0.0
 47
0.0
 48
0.0
 49
0.0
140
0.0
141
0.0
142
1.0
143
1.0
 70
  1712
 72
     0
 73
     0
 74
     0
  7

 75
     0
147
1.0
148
0.0
149
0.0
100
AcDbLayout
  1
Model
 70
     1
 71
     0
 10
0.0
 20
0.0
 11
420.0
 21
297.0
 12
0.0
 22
0.0
 32
0.0
 14
-3.2069199268
 24
-0.3874497131
 34
0.0
 15
2.9959221277
 25
26.5976280357
 35
0.0
146
0.0
 13
0.0
 23
0.0
 33
0.0
 16
1.0
 26
0.0
 36
0.0
 17
0.0
 27
1.0
 37
0.0
 76
     0
330
1F
331
29
  0
MLINESTYLE
  5
18
102
{ACAD_REACTORS
330
17
102
}
330
17
100
AcDbMlineStyle
  2
Standard
 70
     0
  3

 62
   256
 51
90.0
 52
90.0
 71
     2
 49
0.5
 62
   256
  6
BYLAYER
 49
-0.5
 62
   256
  6
BYLAYER
  0
ACDBPLACEHOLDER
  5
F
102
{ACAD_REACTORS
330
E
102
}
330
E
  0
SCALE
  5
1EC
102
{ACAD_REACTORS
330
1EB
102
}
330
1EB
100
AcDbScale
 70
     0
300
1:1
140
1.0
141
1.0
290
     1
  0
SCALE
  5
1ED
102
{ACAD_REACTORS
330
1EB
102
}
330
1EB
100
AcDbScale
 70
     0
300
1:2
140
1.0
141
2.0
290
     0
  0
SCALE
  5
1EE
102
{ACAD_REACTORS
330
1EB
102
}
330
1EB
100
AcDbScale
 70
     0
300
1:4
140
1.0
141
4.0
290
     0
  0
SCALE
  5
1EF
102
{ACAD_REACTORS
330
1EB
102
}
330
1EB
100
AcDbScale
 70
     0
300
1:5
140
1.0
141
5.0
290
     0
  0
SCALE
  5
1F0
102
{ACAD_REACTORS
330
1EB
102
}
330
1EB
100
AcDbScale
 70
     0
300
1:8
140
1.0
141
8.0
290
     0
  0
SCALE
  5
1F1
102
{ACAD_REACTORS
330
1EB
102
}
330
1EB
100
AcDbScale
 70
     0
300
1:10
140
1.0
141
10.0
290
     0
  0
SCALE
  5
1F2
102
{ACAD_REACTORS
330
1EB
102
}
330
1EB
100
AcDbScale
 70
     0
300
1:16
140
1.0
141
16.0
290
     0
  0
SCALE
  5
1F3
102
{ACAD_REACTORS
330
1EB
102
}
330
1EB
100
AcDbScale
 70
     0
300
1:20
140
1.0
141
20.0
290
     0
  0
SCALE
  5
1F4
102
{ACAD_REACTORS
330
1EB
102
}
330
1EB
100
AcDbScale
 70
     0
300
1:30
140
1.0
141
30.0
290
     0
  0
SCALE
  5
1F5
102
{ACAD_REACTORS
330
1EB
102
}
330
1EB
100
AcDbScale
 70
     0
300
1:40
140
1.0
141
40.0
290
     0
  0
SCALE
  5
1F6
102
{ACAD_REACTORS
330
1EB
102
}
330
1EB
100
AcDbScale
 70
     0
300
1:50
140
1.0
141
50.0
290
     0
  0
SCALE
  5
1F7
102
{ACAD_REACTORS
330
1EB
102
}
330
1EB
100
AcDbScale
 70
     0
300
1:100
140
1.0
141
100.0
290
     0
  0
SCALE
  5
1F8
102
{ACAD_REACTORS
330
1EB
102
}
330
1EB
100
AcDbScale
 70
     0
300
2:1
140
2.0
141
1.0
290
     0
  0
SCALE
  5
1F9
102
{ACAD_REACTORS
330
1EB
102
}
330
1EB
100
AcDbScale
 70
     0
300
4:1
140
4.0
141
1.0
290
     0
  0
SCALE
  5
1FA
102
{ACAD_REACTORS
330
1EB
102
}
330
1EB
100
AcDbScale
 70
     0
300
8:1
140
8.0
141
1.0
290
     0
  0
SCALE
  5
1FB
102
{ACAD_REACTORS
330
1EB
102
}
330
1EB
100
AcDbScale
 70
     0
300
10:1
140
10.0
141
1.0
290
     0
  0
SCALE
  5
1FC
102
{ACAD_REACTORS
330
1EB
102
}
330
1EB
100
AcDbScale
 70
     0
300
100:1
140
100.0
141
1.0
290
     0
  0
SCALE
  5
1FD
102
{ACAD_REACTORS
330
1EB
102
}
330
1EB
100
AcDbScale
 70
     0
300
1/128" = 1'-0"
140
0.0078125
141
12.0
290
     0
  0
SCALE
  5
1FE
102
{ACAD_REACTORS
330
1EB
102
}
330
1EB
100
AcDbScale
 70
     0
300
1/64" = 1'-0"
140
0.015625
141
12.0
290
     0
  0
SCALE
  5
1FF
102
{ACAD_REACTORS
330
1EB
102
}
330
1EB
100
AcDbScale
 70
     0
300
1/32" = 1'-0"
140
0.03125
141
12.0
290
     0
  0
SCALE
  5
200
102
{ACAD_REACTORS
330
1EB
102
}
330
1EB
100
AcDbScale
 70
     0
300
1/16" = 1'-0"
140
0.0625
141
12.0
290
     0
  0
SCALE
  5
201
102
{ACAD_REACTORS
330
1EB
102
}
330
1EB
100
AcDbScale
 70
     0
300
3/32" = 1'-0"
140
0.09375
141
12.0
290
     0
  0
SCALE
  5
202
102
{ACAD_REACTORS
330
1EB
102
}
330
1EB
100
AcDbScale
 70
     0
300
1/8" = 1'-0"
140
0.125
141
12.0
290
     0
  0
SCALE
  5
203
102
{ACAD_REACTORS
330
1EB
102
}
330
1EB
100
AcDbScale
 70
     0
300
3/16" = 1'-0"
140
0.1875
141
12.0
290
     0
  0
SCALE
  5
204
102
{ACAD_REACTORS
330
1EB
102
}
330
1EB
100
AcDbScale
 70
     0
300
1/4" = 1'-0"
140
0.25
141
12.0
290
     0
  0
SCALE
  5
205
102
{ACAD_REACTORS
330
1EB
102
}
330
1EB
100
AcDbScale
 70
     0
300
3/8" = 1'-0"
140
0.375
141
12.0
290
     0
  0
SCALE
  5
206
102
{ACAD_REACTORS
330
1EB
102
}
330
1EB
100
AcDbScale
 70
     0
300
1/2" = 1'-0"
140
0.5
141
12.0
290
     0
  0
SCALE
  5
207
102
{ACAD_REACTORS
330
1EB
102
}
330
1EB
100
AcDbScale
 70
     0
300
3/4" = 1'-0"
140
0.75
141
12.0
290
     0
  0
SCALE
  5
208
102
{ACAD_REACTORS
330
1EB
102
}
330
1EB
100
AcDbScale
 70
     0
300
1" = 1'-0"
140
1.0
141
12.0
290
     0
  0
SCALE
  5
209
102
{ACAD_REACTORS
330
1EB
102
}
330
1EB
100
AcDbScale
 70
     0
300
1-1/2" = 1'-0"
140
1.5
141
12.0
290
     0
  0
SCALE
  5
20A
102
{ACAD_REACTORS
330
1EB
102
}
330
1EB
100
AcDbScale
 70
     0
300
3" = 1'-0"
140
3.0
141
12.0
290
     0
  0
SCALE
  5
20B
102
{ACAD_REACTORS
330
1EB
102
}
330
1EB
100
AcDbScale
 70
     0
300
6" = 1'-0"
140
6.0
141
12.0
290
     0
  0
SCALE
  5
20C
102
{ACAD_REACTORS
330
1EB
102
}
330
1EB
100
AcDbScale
 70
     0
300
1'-0" = 1'-0"
140
12.0
141
12.0
290
     0
  0
DICTIONARYVAR
  5
20E
102
{ACAD_REACTORS
330
20D
102
}
330
20D
100
DictionaryVariables
280
     0
  1
1:1
  0
ENDSEC
  0
EOF
