  0
SECTION
  2
HEADER
  9
$ACADVER
  1
AC1015
  9
$ACADMAINTVER
 70
     6
  9
$DWGCODEPAGE
  3
ANSI_1252
  9
$INSBASE
 10
0.0
 20
0.0
 30
0.0
  9
$EXTMIN
 10
-6.7369518177
 20
-5.3434092874
 30
0.0
  9
$EXTMAX
 10
6.2053984922
 20
5.599837811
 30
0.0
  9
$LIMMIN
 10
0.0
 20
0.0
  9
$LIMMAX
 10
420.0
 20
297.0
  9
$ORTHOMODE
 70
     0
  9
$REGENMODE
 70
     1
  9
$FILLMODE
 70
     1
  9
$QTEXTMODE
 70
     0
  9
$MIRRTEXT
 70
     1
  9
$LTSCALE
 40
1.0
  9
$ATTMODE
 70
     1
  9
$TEXTSIZE
 40
3.175
  9
$TRACEWID
 40
1.0
  9
$TEXTSTYLE
  7
Standard
  9
$CLAYER
  8
0
  9
$CELTYPE
  6
ByLayer
  9
$CECOLOR
 62
   256
  9
$CELTSCALE
 40
1.0
  9
$DISPSILH
 70
     0
  9
$DIMSCALE
 40
1.0
  9
$DIMASZ
 40
3.302
  9
$DIMEXO
 40
1.27
  9
$DIMDLI
 40
3.75
  9
$DIMRND
 40
0.0
  9
$DIMDLE
 40
0.0
  9
$DIMEXE
 40
3.175
  9
$DIMTP
 40
0.0
  9
$DIMTM
 40
0.0
  9
$DIMTXT
 40
3.175
  9
$DIMCEN
 40
2.5
  9
$DIMTSZ
 40
0.0
  9
$DIMTOL
 70
     0
  9
$DIMLIM
 70
     0
  9
$DIMTIH
 70
     1
  9
$DIMTOH
 70
     1
  9
$DIMSE1
 70
     0
  9
$DIMSE2
 70
     0
  9
$DIMTAD
 70
     0
  9
$DIMZIN
 70
     0
  9
$DIMBLK
  1

  9
$DIMASO
 70
     1
  9
$DIMSHO
 70
     1
  9
$DIMPOST
  1

  9
$DIMAPOST
  1

  9
$DIMALT
 70
     0
  9
$DIMALTD
 70
     3
  9
$DIMALTF
 40
0.0393700787
  9
$DIMLFAC
 40
1.0
  9
$DIMTOFL
 70
     1
  9
$DIMTVP
 40
0.0
  9
$DIMTIX
 70
     0
  9
$DIMSOXD
 70
     0
  9
$DIMSAH
 70
     0
  9
$DIMBLK1
  1

  9
$DIMBLK2
  1

  9
$DIMSTYLE
  2
ISO-25
  9
$DIMCLRD
 70
     0
  9
$DIMCLRE
 70
     0
  9
$DIMCLRT
 70
     0
  9
$DIMTFAC
 40
1.0
  9
$DIMGAP
 40
1.524
  9
$DIMJUST
 70
     0
  9
$DIMSD1
 70
     0
  9
$DIMSD2
 70
     0
  9
$DIMTOLJ
 70
     0
  9
$DIMTZIN
 70
     0
  9
$DIMALTZ
 70
     0
  9
$DIMALTTZ
 70
     0
  9
$DIMUPT
 70
     0
  9
$DIMDEC
 70
     3
  9
$DIMTDEC
 70
     3
  9
$DIMALTU
 70
     2
  9
$DIMALTTD
 70
     3
  9
$DIMTXSTY
  7
Standard
  9
$DIMAUNIT
 70
     0
  9
$DIMADEC
 70
     2
  9
$DIMALTRND
 40
0.0
  9
$DIMAZIN
 70
     0
  9
$DIMDSEP
 70
    44
  9
$DIMATFIT
 70
     3
  9
$DIMFRAC
 70
     0
  9
$DIMLDRBLK
  1

  9
$DIMLUNIT
 70
     2
  9
$DIMLWD
 70
    -2
  9
$DIMLWE
 70
    -2
  9
$DIMTMOVE
 70
     0
  9
$LUNITS
 70
     2
  9
$LUPREC
 70
     2
  9
$SKETCHINC
 40
1.0
  9
$FILLETRAD
 40
10.0
  9
$AUNITS
 70
     0
  9
$AUPREC
 70
     2
  9
$MENU
  1
.
  9
$ELEVATION
 40
0.0
  9
$PELEVATION
 40
0.0
  9
$THICKNESS
 40
0.0
  9
$LIMCHECK
 70
     0
  9
$CHAMFERA
 40
10.0
  9
$CHAMFERB
 40
10.0
  9
$CHAMFERC
 40
20.0
  9
$CHAMFERD
 40
0.0
  9
$SKPOLY
 70
     0
  9
$TDCREATE
 40
2456194.548976794
  9
$TDUCREATE
 40
2456194.048976794
  9
$TDUPDATE
 40
2456194.549005498
  9
$TDUUPDATE
 40
2456194.049005498
  9
$TDINDWG
 40
0.0000000116
  9
$TDUSRTIMER
 40
0.0000000116
  9
$USRTIMER
 70
     1
  9
$ANGBASE
 50
0.0
  9
$ANGDIR
 70
     0
  9
$PDMODE
 70
     0
  9
$PDSIZE
 40
-1.0
  9
$PLINEWID
 40
0.0
  9
$SPLFRAME
 70
     0
  9
$SPLINETYPE
 70
     6
  9
$SPLINESEGS
 70
     8
  9
$HANDSEED
  5
10E
  9
$SURFTAB1
 70
     6
  9
$SURFTAB2
 70
     6
  9
$SURFTYPE
 70
     6
  9
$SURFU
 70
     6
  9
$SURFV
 70
     6
  9
$UCSBASE
  2

  9
$UCSNAME
  2

  9
$UCSORG
 10
0.0
 20
0.0
 30
0.0
  9
$UCSXDIR
 10
1.0
 20
0.0
 30
0.0
  9
$UCSYDIR
 10
0.0
 20
1.0
 30
0.0
  9
$UCSORTHOREF
  2

  9
$UCSORTHOVIEW
 70
     0
  9
$UCSORGTOP
 10
0.0
 20
0.0
 30
0.0
  9
$UCSORGBOTTOM
 10
0.0
 20
0.0
 30
0.0
  9
$UCSORGLEFT
 10
0.0
 20
0.0
 30
0.0
  9
$UCSORGRIGHT
 10
0.0
 20
0.0
 30
0.0
  9
$UCSORGFRONT
 10
0.0
 20
0.0
 30
0.0
  9
$UCSORGBACK
 10
0.0
 20
0.0
 30
0.0
  9
$PUCSBASE
  2

  9
$PUCSNAME
  2

  9
$PUCSORG
 10
0.0
 20
0.0
 30
0.0
  9
$PUCSXDIR
 10
1.0
 20
0.0
 30
0.0
  9
$PUCSYDIR
 10
0.0
 20
1.0
 30
0.0
  9
$PUCSORTHOREF
  2

  9
$PUCSORTHOVIEW
 70
     0
  9
$PUCSORGTOP
 10
0.0
 20
0.0
 30
0.0
  9
$PUCSORGBOTTOM
 10
0.0
 20
0.0
 30
0.0
  9
$PUCSORGLEFT
 10
0.0
 20
0.0
 30
0.0
  9
$PUCSORGRIGHT
 10
0.0
 20
0.0
 30
0.0
  9
$PUCSORGFRONT
 10
0.0
 20
0.0
 30
0.0
  9
$PUCSORGBACK
 10
0.0
 20
0.0
 30
0.0
  9
$USERI1
 70
     0
  9
$USERI2
 70
     0
  9
$USERI3
 70
     0
  9
$USERI4
 70
     0
  9
$USERI5
 70
     0
  9
$USERR1
 40
0.0
  9
$USERR2
 40
0.0
  9
$USERR3
 40
0.0
  9
$USERR4
 40
0.0
  9
$USERR5
 40
0.0
  9
$WORLDVIEW
 70
     1
  9
$SHADEDGE
 70
     3
  9
$SHADEDIF
 70
    70
  9
$TILEMODE
 70
     1
  9
$MAXACTVP
 70
    64
  9
$PINSBASE
 10
0.0
 20
0.0
 30
0.0
  9
$PLIMCHECK
 70
     0
  9
$PEXTMIN
 10
-3.5
 20
-3.5
 30
0.0
  9
$PEXTMAX
 10
3.5
 20
3.5
 30
0.0
  9
$PLIMMIN
 10
0.0
 20
0.0
  9
$PLIMMAX
 10
420.0
 20
297.0
  9
$UNITMODE
 70
     0
  9
$VISRETAIN
 70
     1
  9
$PLINEGEN
 70
     0
  9
$PSLTSCALE
 70
     1
  9
$TREEDEPTH
 70
  3020
  9
$CMLSTYLE
  2
Standard
  9
$CMLJUST
 70
     0
  9
$CMLSCALE
 40
20.0
  9
$PROXYGRAPHICS
 70
     1
  9
$MEASUREMENT
 70
     1
  9
$CELWEIGHT
370
    -1
  9
$ENDCAPS
280
     0
  9
$JOINSTYLE
280
     0
  9
$LWDISPLAY
290
     1
  9
$INSUNITS
 70
     4
  9
$HYPERLINKBASE
  1

  9
$STYLESHEET
  1

  9
$XEDIT
290
     1
  9
$CEPSNTYPE
380
     0
  9
$PSTYLEMODE
290
     1
  9
$FINGERPRINTGUID
  2
{126F17D9-BDDD-4F3C-98A0-B49FE678A9B9}
  9
$VERSIONGUID
  2
{FAEB1C32-E019-11D5-929B-00C0DF256EC4}
  9
$EXTNAMES
290
     1
  9
$PSVPSCALE
 40
0.0
  9
$OLESTARTUP
290
     0
  0
ENDSEC
  0
SECTION
  2
CLASSES
  0
CLASS
  1
ACDBDICTIONARYWDFLT
  2
AcDbDictionaryWithDefault
  3
ObjectDBX Classes
 90
        0
280
     0
281
     0
  0
CLASS
  1
VISUALSTYLE
  2
AcDbVisualStyle
  3
ObjectDBX Classes
 90
     4095
280
     0
281
     0
  0
CLASS
  1
MATERIAL
  2
AcDbMaterial
  3
ObjectDBX Classes
 90
     1153
280
     0
281
     0
  0
CLASS
  1
ACDBPLACEHOLDER
  2
AcDbPlaceHolder
  3
ObjectDBX Classes
 90
        0
280
     0
281
     0
  0
CLASS
  1
LAYOUT
  2
AcDbLayout
  3
ObjectDBX Classes
 90
        0
280
     0
281
     0
  0
ENDSEC
  0
SECTION
  2
TABLES
  0
TABLE
  2
VPORT
  5
8
330
0
100
AcDbSymbolTable
 70
     1
  0
VPORT
  5
29
330
8
100
AcDbSymbolTableRecord
100
AcDbViewportTableRecord
  2
*Active
 70
     0
 10
0.0
 20
0.0
 11
1.0
 21
1.0
 12
-0.2657766627
 22
0.1282142618
 13
0.0
 23
0.0
 14
10.0
 24
10.0
 15
10.0
 25
10.0
 16
0.0
 26
0.0
 36
1.0
 17
0.0
 27
0.0
 37
0.0
 40
11.1621120404
 41
1.1826791622
 42
50.0
 43
0.0
 44
0.0
 50
0.0
 51
0.0
 71
     0
 72
   100
 73
     1
 74
     3
 75
     0
 76
     0
 77
     0
 78
     0
281
     0
 65
     1
110
0.0
120
0.0
130
0.0
111
1.0
121
0.0
131
0.0
112
0.0
122
1.0
132
0.0
 79
     0
146
0.0
  0
ENDTAB
  0
TABLE
  2
LTYPE
  5
5
330
0
100
AcDbSymbolTable
 70
     6
  0
LTYPE
  5
14
330
5
100
AcDbSymbolTableRecord
100
AcDbLinetypeTableRecord
  2
ByBlock
 70
     0
  3

 72
    65
 73
     0
 40
0.0
  0
LTYPE
  5
15
330
5
100
AcDbSymbolTableRecord
100
AcDbLinetypeTableRecord
  2
ByLayer
 70
     0
  3

 72
    65
 73
     0
 40
0.0
  0
LTYPE
  5
16
330
5
100
AcDbSymbolTableRecord
100
AcDbLinetypeTableRecord
  2
Continuous
 70
     0
  3
Solid line
 72
    65
 73
     0
 40
0.0
  0
LTYPE
  5
3F
330
5
100
AcDbSymbolTableRecord
100
AcDbLinetypeTableRecord
  2
HIDDEN
 70
     0
  3
Hidden __ __ __ __ __ __ __ __ __ __ __ __ __ __
 72
    65
 73
     2
 40
1.905
 49
1.27
 74
     0
 49
-0.635
 74
     0
  0
LTYPE
  5
40
330
5
100
AcDbSymbolTableRecord
100
AcDbLinetypeTableRecord
  2
PHANTOM
 70
     0
  3
Phantom ______  __  __  ______  __  __  ______
 72
    65
 73
     6
 40
12.7
 49
6.35
 74
     0
 49
-1.27
 74
     0
 49
1.27
 74
     0
 49
-1.27
 74
     0
 49
1.27
 74
     0
 49
-1.27
 74
     0
  0
LTYPE
  5
41
330
5
100
AcDbSymbolTableRecord
100
AcDbLinetypeTableRecord
  2
CENTER
 70
     0
  3
Center ____ _ ____ _ ____ _ ____ _ ____ _ ____
 72
    65
 73
     4
 40
10.16
 49
6.35
 74
     0
 49
-1.27
 74
     0
 49
1.27
 74
     0
 49
-1.27
 74
     0
  0
LTYPE
  5
42
330
5
100
AcDbSymbolTableRecord
100
AcDbLinetypeTableRecord
  2
CENTERX2
 70
     0
  3
Center (2x) ________  __  ________  __  _____
 72
    65
 73
     4
 40
20.32
 49
12.7
 74
     0
 49
-2.54
 74
     0
 49
2.54
 74
     0
 49
-2.54
 74
     0
  0
LTYPE
  5
43
330
5
100
AcDbSymbolTableRecord
100
AcDbLinetypeTableRecord
  2
DOT2
 70
     0
  3
Dot (.5x) ........................................
 72
    65
 73
     2
 40
0.635
 49
0.0
 74
     0
 49
-0.635
 74
     0
  0
ENDTAB
  0
TABLE
  2
LAYER
  5
2
330
0
100
AcDbSymbolTable
 70
     1
  0
LAYER
  5
10
330
2
100
AcDbSymbolTableRecord
100
AcDbLayerTableRecord
  2
0
 70
     0
 62
     7
  6
Continuous
370
    -3
390
F
  0
ENDTAB
  0
TABLE
  2
STYLE
  5
3
330
0
100
AcDbSymbolTable
 70
     1
  0
STYLE
  5
11
330
3
100
AcDbSymbolTableRecord
100
AcDbTextStyleTableRecord
  2
Standard
 70
     0
 40
0.0
 41
1.0
 50
0.0
 71
     0
 42
3.175
  3
txt
  4

  0
ENDTAB
  0
TABLE
  2
VIEW
  5
6
330
0
100
AcDbSymbolTable
 70
     0
  0
ENDTAB
  0
TABLE
  2
UCS
  5
7
330
0
100
AcDbSymbolTable
 70
     0
  0
ENDTAB
  0
TABLE
  2
APPID
  5
9
330
0
100
AcDbSymbolTable
 70
     1
  0
APPID
  5
12
330
9
100
AcDbSymbolTableRecord
100
AcDbRegAppTableRecord
  2
ACAD
 70
     0
  0
ENDTAB
  0
TABLE
  2
DIMSTYLE
  5
A
330
0
100
AcDbSymbolTable
 70
     1
100
AcDbDimStyleTable
  0
DIMSTYLE
105
27
330
A
100
AcDbSymbolTableRecord
100
AcDbDimStyleTableRecord
  2
ISO-25
 70
     0
 41
2.5
 42
0.625
 43
3.75
 44
1.25
 73
     0
 74
     0
 77
     1
 78
     8
140
2.5
141
2.5
143
0.0393700787
147
0.625
171
     3
172
     1
178
     0
271
     2
272
     2
274
     3
278
    44
283
     0
284
     8
340
11
  0
ENDTAB
  0
TABLE
  2
BLOCK_RECORD
  5
1
330
0
100
AcDbSymbolTable
 70
     8
  0
BLOCK_RECORD
  5
1F
330
1
100
AcDbSymbolTableRecord
100
AcDbBlockTableRecord
  2
*Model_Space
340
22
  0
BLOCK_RECORD
  5
1B
330
1
100
AcDbSymbolTableRecord
100
AcDbBlockTableRecord
  2
*Paper_Space
340
1E
  0
BLOCK_RECORD
  5
23
330
1
100
AcDbSymbolTableRecord
100
AcDbBlockTableRecord
  2
*Paper_Space0
340
26
  0
BLOCK_RECORD
  5
71
330
1
100
AcDbSymbolTableRecord
100
AcDbBlockTableRecord
  2
*Paper_Space1
340
72
  0
BLOCK_RECORD
  5
89
330
1
100
AcDbSymbolTableRecord
100
AcDbBlockTableRecord
  2
*Paper_Space2
340
8A
  0
BLOCK_RECORD
  5
A2
330
1
100
AcDbSymbolTableRecord
100
AcDbBlockTableRecord
  2
*Paper_Space3
340
A3
  0
BLOCK_RECORD
  5
BA
330
1
100
AcDbSymbolTableRecord
100
AcDbBlockTableRecord
  2
*Paper_Space4
340
BB
  0
BLOCK_RECORD
  5
C0
330
1
100
AcDbSymbolTableRecord
100
AcDbBlockTableRecord
  2
*Paper_Space5
340
C1
  0
BLOCK_RECORD
  5
D8
330
1
100
AcDbSymbolTableRecord
100
AcDbBlockTableRecord
  2
*Paper_Space6
340
D9
  0
BLOCK_RECORD
  5
EF
330
1
100
AcDbSymbolTableRecord
100
AcDbBlockTableRecord
  2
*Paper_Space7
340
F0
  0
ENDTAB
  0
ENDSEC
  0
SECTION
  2
BLOCKS
  0
BLOCK
  5
20
330
1F
100
AcDbEntity
  8
0
100
AcDbBlockBegin
  2
*Model_Space
 70
     0
 10
0.0
 20
0.0
 30
0.0
  3
*Model_Space
  1

  0
ENDBLK
  5
21
330
1F
100
AcDbEntity
  8
0
100
AcDbBlockEnd
  0
BLOCK
  5
1C
330
1B
100
AcDbEntity
 67
     1
  8
0
100
AcDbBlockBegin
  2
*Paper_Space
 70
     0
 10
0.0
 20
0.0
 30
0.0
  3
*Paper_Space
  1

  0
ENDBLK
  5
1D
330
1B
100
AcDbEntity
 67
     1
  8
0
100
AcDbBlockEnd
  0
BLOCK
  5
24
330
23
100
AcDbEntity
  8
0
100
AcDbBlockBegin
  2
*Paper_Space0
 70
     0
 10
0.0
 20
0.0
 30
0.0
  3
*Paper_Space0
  1

  0
LINE
  5
67
330
23
100
AcDbEntity
  8
0
  6
Continuous
 62
     7
370
    15
100
AcDbLine
 10
3.5
 20
0.0
 30
0.0
 11
3.5
 21
5.5
 31
0.0
  0
LINE
  5
68
330
23
100
AcDbEntity
  8
0
  6
Continuous
 62
     7
370
    15
100
AcDbLine
 10
-3.5
 20
5.5
 30
0.0
 11
-3.5
 21
0.0
 31
0.0
  0
LINE
  5
69
330
23
100
AcDbEntity
  8
0
  6
Continuous
 62
     7
370
    15
100
AcDbLine
 10
3.5
 20
5.5
 30
0.0
 11
2.5
 21
6.5
 31
0.0
  0
LINE
  5
6A
330
23
100
AcDbEntity
  8
0
  6
Continuous
 62
     7
370
    15
100
AcDbLine
 10
-2.5
 20
6.5
 30
0.0
 11
-3.5
 21
5.5
 31
0.0
  0
LINE
  5
6B
330
23
100
AcDbEntity
  8
0
  6
Continuous
 62
     7
370
    15
100
AcDbLine
 10
-1.7
 20
0.0
 30
0.0
 11
-1.7
 21
-8.5
 31
0.0
  0
LINE
  5
6C
330
23
100
AcDbEntity
  8
0
  6
Continuous
 62
     7
370
    15
100
AcDbLine
 10
1.7
 20
-8.5
 30
0.0
 11
1.7
 21
0.0
 31
0.0
  0
LINE
  5
6D
330
23
100
AcDbEntity
  8
0
  6
Continuous
 62
     7
370
    15
100
AcDbLine
 10
3.5
 20
5.5
 30
0.0
 11
-3.5
 21
5.5
 31
0.0
  0
LINE
  5
6E
330
23
100
AcDbEntity
  8
0
  6
Continuous
 62
     7
370
    15
100
AcDbLine
 10
-3.5
 20
0.0
 30
0.0
 11
3.5
 21
0.0
 31
0.0
  0
LINE
  5
6F
330
23
100
AcDbEntity
  8
0
  6
Continuous
 62
     7
370
    15
100
AcDbLine
 10
-2.5
 20
6.5
 30
0.0
 11
2.5
 21
6.5
 31
0.0
  0
LINE
  5
70
330
23
100
AcDbEntity
  8
0
  6
Continuous
 62
     7
370
    15
100
AcDbLine
 10
1.7
 20
-8.5
 30
0.0
 11
-1.7
 21
-8.5
 31
0.0
  0
VIEWPORT
  5
106
330
23
100
AcDbEntity
  8
0
100
AcDbViewport
 10
0.0
 20
0.0
 30
0.0
 40
243.84
 41
204.216
 68
     1
 69
     1
 12
-0.2657766627
 22
0.1282142618
 13
0.0
 23
0.0
 14
10.0
 24
10.0
 15
10.0
 25
10.0
 16
0.0
 26
0.0
 36
1.0
 17
0.0
 27
0.0
 37
0.0
 42
50.0
 43
0.0
 44
0.0
 45
11.1621120404
 50
0.0
 51
0.0
 72
   100
 90
   557152
  1

281
     0
 71
     1
 74
     0
110
0.0
120
0.0
130
0.0
111
1.0
121
0.0
131
0.0
112
0.0
122
1.0
132
0.0
 79
     0
146
0.0
  0
ENDBLK
  5
25
330
23
100
AcDbEntity
  8
0
100
AcDbBlockEnd
  0
BLOCK
  5
73
330
71
100
AcDbEntity
  8
0
100
AcDbBlockBegin
  2
*Paper_Space1
 70
     0
 10
0.0
 20
0.0
 30
0.0
  3
*Paper_Space1
  1

  0
LINE
  5
7F
330
71
100
AcDbEntity
  8
0
  6
Continuous
 62
     7
370
    15
100
AcDbLine
 10
3.5
 20
0.0
 30
0.0
 11
3.5
 21
5.5
 31
0.0
  0
LINE
  5
80
330
71
100
AcDbEntity
  8
0
  6
Continuous
 62
     7
370
    15
100
AcDbLine
 10
-3.5
 20
5.5
 30
0.0
 11
-3.5
 21
0.0
 31
0.0
  0
LINE
  5
81
330
71
100
AcDbEntity
  8
0
  6
Continuous
 62
     7
370
    15
100
AcDbLine
 10
3.5
 20
5.5
 30
0.0
 11
2.5
 21
6.5
 31
0.0
  0
LINE
  5
82
330
71
100
AcDbEntity
  8
0
  6
Continuous
 62
     7
370
    15
100
AcDbLine
 10
-2.5
 20
6.5
 30
0.0
 11
-3.5
 21
5.5
 31
0.0
  0
LINE
  5
83
330
71
100
AcDbEntity
  8
0
  6
Continuous
 62
     7
370
    15
100
AcDbLine
 10
-1.7
 20
0.0
 30
0.0
 11
-1.7
 21
-8.5
 31
0.0
  0
LINE
  5
84
330
71
100
AcDbEntity
  8
0
  6
Continuous
 62
     7
370
    15
100
AcDbLine
 10
1.7
 20
-8.5
 30
0.0
 11
1.7
 21
0.0
 31
0.0
  0
LINE
  5
85
330
71
100
AcDbEntity
  8
0
  6
Continuous
 62
     7
370
    15
100
AcDbLine
 10
3.5
 20
5.5
 30
0.0
 11
-3.5
 21
5.5
 31
0.0
  0
LINE
  5
86
330
71
100
AcDbEntity
  8
0
  6
Continuous
 62
     7
370
    15
100
AcDbLine
 10
-3.5
 20
0.0
 30
0.0
 11
3.5
 21
0.0
 31
0.0
  0
LINE
  5
87
330
71
100
AcDbEntity
  8
0
  6
Continuous
 62
     7
370
    15
100
AcDbLine
 10
-2.5
 20
6.5
 30
0.0
 11
2.5
 21
6.5
 31
0.0
  0
LINE
  5
88
330
71
100
AcDbEntity
  8
0
  6
Continuous
 62
     7
370
    15
100
AcDbLine
 10
1.7
 20
-8.5
 30
0.0
 11
-1.7
 21
-8.5
 31
0.0
  0
VIEWPORT
  5
107
330
71
100
AcDbEntity
  8
0
100
AcDbViewport
 10
0.0
 20
0.0
 30
0.0
 40
243.84
 41
204.216
 68
     1
 69
     1
 12
-0.2657766627
 22
0.1282142618
 13
0.0
 23
0.0
 14
10.0
 24
10.0
 15
10.0
 25
10.0
 16
0.0
 26
0.0
 36
1.0
 17
0.0
 27
0.0
 37
0.0
 42
50.0
 43
0.0
 44
0.0
 45
11.1621120404
 50
0.0
 51
0.0
 72
   100
 90
   557152
  1

281
     0
 71
     1
 74
     0
110
0.0
120
0.0
130
0.0
111
1.0
121
0.0
131
0.0
112
0.0
122
1.0
132
0.0
 79
     0
146
0.0
  0
ENDBLK
  5
74
330
71
100
AcDbEntity
  8
0
100
AcDbBlockEnd
  0
BLOCK
  5
8B
330
89
100
AcDbEntity
  8
0
100
AcDbBlockBegin
  2
*Paper_Space2
 70
     0
 10
0.0
 20
0.0
 30
0.0
  3
*Paper_Space2
  1

  0
LINE
  5
98
330
89
100
AcDbEntity
  8
0
  6
Continuous
 62
     7
370
    15
100
AcDbLine
 10
3.5
 20
0.0
 30
0.0
 11
3.5
 21
5.5
 31
0.0
  0
LINE
  5
99
330
89
100
AcDbEntity
  8
0
  6
Continuous
 62
     7
370
    15
100
AcDbLine
 10
-3.5
 20
5.5
 30
0.0
 11
-3.5
 21
0.0
 31
0.0
  0
LINE
  5
9A
330
89
100
AcDbEntity
  8
0
  6
Continuous
 62
     7
370
    15
100
AcDbLine
 10
3.5
 20
5.5
 30
0.0
 11
2.5
 21
6.5
 31
0.0
  0
LINE
  5
9B
330
89
100
AcDbEntity
  8
0
  6
Continuous
 62
     7
370
    15
100
AcDbLine
 10
-2.5
 20
6.5
 30
0.0
 11
-3.5
 21
5.5
 31
0.0
  0
LINE
  5
9C
330
89
100
AcDbEntity
  8
0
  6
Continuous
 62
     7
370
    15
100
AcDbLine
 10
-1.7
 20
0.0
 30
0.0
 11
-1.7
 21
-8.5
 31
0.0
  0
LINE
  5
9D
330
89
100
AcDbEntity
  8
0
  6
Continuous
 62
     7
370
    15
100
AcDbLine
 10
1.7
 20
-8.5
 30
0.0
 11
1.7
 21
0.0
 31
0.0
  0
LINE
  5
9E
330
89
100
AcDbEntity
  8
0
  6
Continuous
 62
     7
370
    15
100
AcDbLine
 10
3.5
 20
5.5
 30
0.0
 11
-3.5
 21
5.5
 31
0.0
  0
LINE
  5
9F
330
89
100
AcDbEntity
  8
0
  6
Continuous
 62
     7
370
    15
100
AcDbLine
 10
-3.5
 20
0.0
 30
0.0
 11
3.5
 21
0.0
 31
0.0
  0
LINE
  5
A0
330
89
100
AcDbEntity
  8
0
  6
Continuous
 62
     7
370
    15
100
AcDbLine
 10
-2.5
 20
6.5
 30
0.0
 11
2.5
 21
6.5
 31
0.0
  0
LINE
  5
A1
330
89
100
AcDbEntity
  8
0
  6
Continuous
 62
     7
370
    15
100
AcDbLine
 10
1.7
 20
-8.5
 30
0.0
 11
-1.7
 21
-8.5
 31
0.0
  0
VIEWPORT
  5
108
330
89
100
AcDbEntity
  8
0
100
AcDbViewport
 10
0.0
 20
0.0
 30
0.0
 40
243.84
 41
204.216
 68
     1
 69
     1
 12
-0.2657766627
 22
0.1282142618
 13
0.0
 23
0.0
 14
10.0
 24
10.0
 15
10.0
 25
10.0
 16
0.0
 26
0.0
 36
1.0
 17
0.0
 27
0.0
 37
0.0
 42
50.0
 43
0.0
 44
0.0
 45
11.1621120404
 50
0.0
 51
0.0
 72
   100
 90
   557152
  1

281
     0
 71
     1
 74
     0
110
0.0
120
0.0
130
0.0
111
1.0
121
0.0
131
0.0
112
0.0
122
1.0
132
0.0
 79
     0
146
0.0
  0
ENDBLK
  5
8C
330
89
100
AcDbEntity
  8
0
100
AcDbBlockEnd
  0
BLOCK
  5
A4
330
A2
100
AcDbEntity
  8
0
100
AcDbBlockBegin
  2
*Paper_Space3
 70
     0
 10
0.0
 20
0.0
 30
0.0
  3
*Paper_Space3
  1

  0
LINE
  5
B0
330
A2
100
AcDbEntity
  8
0
  6
Continuous
 62
     7
370
    15
100
AcDbLine
 10
3.5
 20
0.0
 30
0.0
 11
3.5
 21
5.5
 31
0.0
  0
LINE
  5
B1
330
A2
100
AcDbEntity
  8
0
  6
Continuous
 62
     7
370
    15
100
AcDbLine
 10
-3.5
 20
5.5
 30
0.0
 11
-3.5
 21
0.0
 31
0.0
  0
LINE
  5
B2
330
A2
100
AcDbEntity
  8
0
  6
Continuous
 62
     7
370
    15
100
AcDbLine
 10
3.5
 20
5.5
 30
0.0
 11
2.5
 21
6.5
 31
0.0
  0
LINE
  5
B3
330
A2
100
AcDbEntity
  8
0
  6
Continuous
 62
     7
370
    15
100
AcDbLine
 10
-2.5
 20
6.5
 30
0.0
 11
-3.5
 21
5.5
 31
0.0
  0
LINE
  5
B4
330
A2
100
AcDbEntity
  8
0
  6
Continuous
 62
     7
370
    15
100
AcDbLine
 10
-1.7
 20
0.0
 30
0.0
 11
-1.7
 21
-8.5
 31
0.0
  0
LINE
  5
B5
330
A2
100
AcDbEntity
  8
0
  6
Continuous
 62
     7
370
    15
100
AcDbLine
 10
1.7
 20
-8.5
 30
0.0
 11
1.7
 21
0.0
 31
0.0
  0
LINE
  5
B6
330
A2
100
AcDbEntity
  8
0
  6
Continuous
 62
     7
370
    15
100
AcDbLine
 10
3.5
 20
5.5
 30
0.0
 11
-3.5
 21
5.5
 31
0.0
  0
LINE
  5
B7
330
A2
100
AcDbEntity
  8
0
  6
Continuous
 62
     7
370
    15
100
AcDbLine
 10
-3.5
 20
0.0
 30
0.0
 11
3.5
 21
0.0
 31
0.0
  0
LINE
  5
B8
330
A2
100
AcDbEntity
  8
0
  6
Continuous
 62
     7
370
    15
100
AcDbLine
 10
-2.5
 20
6.5
 30
0.0
 11
2.5
 21
6.5
 31
0.0
  0
LINE
  5
B9
330
A2
100
AcDbEntity
  8
0
  6
Continuous
 62
     7
370
    15
100
AcDbLine
 10
1.7
 20
-8.5
 30
0.0
 11
-1.7
 21
-8.5
 31
0.0
  0
VIEWPORT
  5
109
330
A2
100
AcDbEntity
  8
0
100
AcDbViewport
 10
0.0
 20
0.0
 30
0.0
 40
243.84
 41
204.216
 68
     1
 69
     1
 12
-0.2657766627
 22
0.1282142618
 13
0.0
 23
0.0
 14
10.0
 24
10.0
 15
10.0
 25
10.0
 16
0.0
 26
0.0
 36
1.0
 17
0.0
 27
0.0
 37
0.0
 42
50.0
 43
0.0
 44
0.0
 45
11.1621120404
 50
0.0
 51
0.0
 72
   100
 90
   557152
  1

281
     0
 71
     1
 74
     0
110
0.0
120
0.0
130
0.0
111
1.0
121
0.0
131
0.0
112
0.0
122
1.0
132
0.0
 79
     0
146
0.0
  0
ENDBLK
  5
A5
330
A2
100
AcDbEntity
  8
0
100
AcDbBlockEnd
  0
BLOCK
  5
BC
330
BA
100
AcDbEntity
  8
0
100
AcDbBlockBegin
  2
*Paper_Space4
 70
     0
 10
0.0
 20
0.0
 30
0.0
  3
*Paper_Space4
  1

  0
CIRCLE
  5
BE
330
BA
100
AcDbEntity
  8
0
  6
Continuous
 62
     7
370
    15
100
AcDbCircle
 10
0.0
 20
0.0
 30
0.0
 40
1.7
  0
CIRCLE
  5
BF
330
BA
100
AcDbEntity
  8
0
  6
Continuous
 62
     7
370
    15
100
AcDbCircle
 10
0.0
 20
0.0
 30
0.0
 40
3.499999999999996
  0
VIEWPORT
  5
10A
330
BA
100
AcDbEntity
  8
0
100
AcDbViewport
 10
0.0
 20
0.0
 30
0.0
 40
243.84
 41
204.216
 68
     1
 69
     1
 12
-0.2657766627
 22
0.1282142618
 13
0.0
 23
0.0
 14
10.0
 24
10.0
 15
10.0
 25
10.0
 16
0.0
 26
0.0
 36
1.0
 17
0.0
 27
0.0
 37
0.0
 42
50.0
 43
0.0
 44
0.0
 45
11.1621120404
 50
0.0
 51
0.0
 72
   100
 90
   557152
  1

281
     0
 71
     1
 74
     0
110
0.0
120
0.0
130
0.0
111
1.0
121
0.0
131
0.0
112
0.0
122
1.0
132
0.0
 79
     0
146
0.0
  0
ENDBLK
  5
BD
330
BA
100
AcDbEntity
  8
0
100
AcDbBlockEnd
  0
BLOCK
  5
C2
330
C0
100
AcDbEntity
  8
0
100
AcDbBlockBegin
  2
*Paper_Space5
 70
     0
 10
0.0
 20
0.0
 30
0.0
  3
*Paper_Space5
  1

  0
LWPOLYLINE
  5
CA
330
C0
100
AcDbEntity
  8
0
  6
Continuous
 62
     7
370
    15
100
AcDbPolyline
 90
       90
 70
   128
 43
0.0
 10
-1.767766953
 20
4.2870051375
 10
-1.6386670493
 20
4.2175614796
 10
-1.5014033887
 20
4.1535479168
 10
-1.3566598121
 20
4.0952833612
 10
-1.2051574244
 20
4.0430580841
 10
-1.0476510031
 20
3.9971322692
 10
-0.8849252372
 20
3.9577347164
 10
-0.7177908183
 20
3.9250617026
 10
-0.5470804017
 20
3.8992760029
 10
-0.373644458
 20
3.8805060804
 10
-0.1983470364
 20
3.868845446
 10
-0.0220614598
 20
3.8643521922
 10
0.1543340258
 20
3.8670487044
 10
0.3299606271
 20
3.8769215486
 10
0.5039433811
 20
3.8939215388
 10
0.6754155146
 20
3.9179639819
 10
0.8435227619
 20
3.9489290997
 10
1.0074276213
 20
3.9866626254
 10
1.166313527
 20
4.0309765726
 10
1.3193889173
 20
4.0816501715
 10
1.4658911784
 20
4.1384309686
 10
1.6050904434
 20
4.201036085
 10
1.7362932285
 20
4.269153625
 10
1.8588458881
 20
4.3424442305
 10
1.972137871
 20
4.4205427715
 10
2.0756047622
 20
4.5030601648
 10
2.1687310949
 20
4.5895853131
 10
2.2510529184
 20
4.6796871523
 10
2.3221601095
 20
4.7729167997
 10
2.3816984157
 20
4.8688097898
 10
2.4293712202
 20
4.9668883886
 10
2.4649410195
 20
5.0666639734
 10
2.4882306066
 20
5.1676394673
 10
2.499123954
 20
5.2693118154
 10
2.4975667916
 20
5.3711744912
 10
2.483566877
 20
5.4727200201
 10
2.4571939572
 20
5.5734425072
 10
2.4185794207
 20
5.6728401583
 10
2.3679156432
 20
5.7704177791
 10
2.3054550291
 20
5.865689243
 10
2.231508754
 20
5.9581799123
 10
2.1464452145
 20
6.0474290031
 10
2.0506881929
 20
6.1329918809
 10
1.9447147459
 20
6.2144422758
 10
1.8290528278
 20
6.291374406
 10
1.7042786606
 20
6.3634049995
 10
1.5710138628
 20
6.4301752036
 10
1.429922353
 20
6.4913523723
 10
1.2817070419
 20
6.5466317242
 10
1.1271063308
 20
6.5957378603
 10
0.9668904327
 20
6.6384261363
 10
0.8018575351
 20
6.6744838813
 10
0.6328298236
 20
6.7037314575
 10
0.4606493857
 20
6.726023155
 10
0.2861740158
 20
6.7412479175
 10
0.1102729413
 20
6.7493298962
 10
-0.0661775075
 20
6.7502288269
 10
-0.2422982632
 20
6.7439402313
 10
-0.4172119012
 20
6.7304954388
 10
-0.5900470104
 20
6.7099614308
 10
-0.7599425352
 20
6.6824405065
 10
-0.9260520644
 20
6.6480697739
 10
-1.0875480489
 20
6.6070204663
 10
-1.2436259236
 20
6.5594970892
 10
-1.3935081166
 20
6.5057364016
 10
-1.5364479223
 20
6.4460062367
 10
-1.6717332216
 20
6.3806041671
 10
-1.7986900302
 20
6.3098560226
 10
-1.9166858555
 20
6.234114267
 10
-2.0251328483
 20
6.1537562418
 10
-2.1234907311
 20
6.0691822867
 10
-2.2112694899
 20
5.9808137448
 10
-2.2880318153
 20
5.8890908639
 10
-2.3533952813
 20
5.7944706026
 10
-2.4070342504
 20
5.6974243544
 10
-2.4486814959
 20
5.5984355988
 10
-2.4781295335
 20
5.4979974928
 10
-2.4952316543
 20
5.3966104139
 10
-2.4999026565
 20
5.2947794676
 10
-2.4921192694
 20
5.1930119704
 10
-2.4719202696
 20
5.091814923
 10
-2.4394062872
 20
4.9916924838
 10
-2.3947393055
 20
4.893143458
 10
-2.3381418529
 20
4.7966588117
 10
-2.2698958953
 20
4.7027192266
 10
-2.1903414305
 20
4.611792705
 10
-2.0998747949
 20
4.5243322383
 10
-1.9989466887
 20
4.4407735501
 10
-1.8880599306
 20
4.3615329255
 10
-1.767766953
 20
4.2870051375
  0
LWPOLYLINE
  5
CC
330
C0
100
AcDbEntity
  8
0
  6
Continuous
 62
     7
370
    15
100
AcDbPolyline
 90
       54
 70
   128
 43
0.0
 10
2.4752758727
 20
5.9194564737
 10
2.617140266
 20
5.8325415297
 10
2.7502139972
 20
5.740682095
 10
2.8736275014
 20
5.6444330168
 10
2.9869472843
 20
5.5441323733
 10
3.0897753058
 20
5.4401324742
 10
3.1817503789
 20
5.332798623
 10
3.2625494378
 20
5.2225078338
 10
3.3318886728
 20
5.1096475069
 10
3.3895245273
 20
4.9946140684
 10
3.4352545532
 20
4.8778115775
 10
3.4689181223
 20
4.759650307
 10
3.4903969899
 20
4.6405453029
 10
3.4996157108
 20
4.5209149258
 10
3.4965419039
 20
4.4011793817
 10
3.4811863661
 20
4.2817592461
 10
3.4536030341
 20
4.1630739866
 10
3.4138887956
 20
4.0455404894
 10
3.3621831481
 20
3.9295715954
 10
3.2986677097
 20
3.8155746494
 10
3.2235655807
 20
3.7039500699
 10
3.13714056
 20
3.5950899423
 10
3.0396962187
 20
3.4893766418
 10
2.9315748335
 20
3.3871814901
 10
2.8131561848
 20
3.2888634516
 10
2.6848562224
 20
3.1947678718
 10
2.5471256046
 20
3.1052252649
 10
2.4004481153
 20
3.0205501527
 10
2.2453389644
 20
2.9410399594
 10
2.0823429784
 20
2.8669739677
 10
1.9120326869
 20
2.7986123369
 10
1.7350063107
 20
2.7361951899
 10
1.5518856617
 20
2.679941769
 10
1.3633139576
 20
2.6300496665
 10
1.1699535635
 20
2.5866941303
 10
0.9724836649
 20
2.5500274482
 10
0.771597882
 20
2.5201784133
 10
0.5680018333
 20
2.4972518713
 10
0.3624106575
 20
2.4813283528
 10
0.155546501
 20
2.4724637894
 10
-0.0518640182
 20
2.4706893185
 10
-0.2590923632
 20
2.4760111728
 10
-0.4654106368
 20
2.4884106591
 10
-0.6700941385
 20
2.5078442239
 10
-0.8724239102
 20
2.534243606
 10
-1.071689261
 20
2.5675160765
 10
-1.2671902643
 20
2.6075447649
 10
-1.4582402155
 20
2.6541890687
 10
-1.6441680448
 20
2.7072851482
 10
-1.8243206738
 20
2.7666465015
 10
-1.99806531
 20
2.8320646197
 10
-2.1647916689
 20
2.9033097192
 10
-2.3239141181
 20
2.980131549
 10
-2.4748737342
 20
3.0622602697
  0
LWPOLYLINE
  5
CD
330
C0
100
AcDbEntity
  8
0
  6
Continuous
 62
     7
370
    15
100
AcDbPolyline
 90
       41
 70
   128
 43
0.0
 10
-2.4748737342
 20
-1.4287141957
 10
-2.3239141181
 20
-1.5108429164
 10
-2.1647916689
 20
-1.5876647462
 10
-1.99806531
 20
-1.6589098457
 10
-1.8243206738
 20
-1.7243279639
 10
-1.6441680448
 20
-1.7836893172
 10
-1.4582402155
 20
-1.8367853967
 10
-1.2671902643
 20
-1.8834297005
 10
-1.071689261
 20
-1.9234583888
 10
-0.8724239102
 20
-1.9567308594
 10
-0.6700941385
 20
-1.9831302415
 10
-0.4654106368
 20
-2.0025638062
 10
-0.2590923632
 20
-2.0149632926
 10
-0.0518640182
 20
-2.0202851469
 10
0.155546501
 20
-2.0185106759
 10
0.3624106575
 20
-2.0096461126
 10
0.5680018333
 20
-1.993722594
 10
0.771597882
 20
-1.9707960521
 10
0.9724836649
 20
-1.9409470172
 10
1.1699535635
 20
-1.9042803351
 10
1.3633139576
 20
-1.8609247988
 10
1.5518856617
 20
-1.8110326964
 10
1.7350063107
 20
-1.7547792755
 10
1.9120326869
 20
-1.6923621284
 10
2.0823429784
 20
-1.6240004977
 10
2.2453389644
 20
-1.5499345059
 10
2.4004481153
 20
-1.4704243127
 10
2.5471256046
 20
-1.3857492005
 10
2.6848562224
 20
-1.2962065936
 10
2.8131561848
 20
-1.2021110138
 10
2.9315748335
 20
-1.1037929752
 10
3.0396962187
 20
-1.0015978236
 10
3.13714056
 20
-0.895884523
 10
3.2235655807
 20
-0.7870243954
 10
3.2986677097
 20
-0.6753998159
 10
3.3621831481
 20
-0.56140287
 10
3.4138887956
 20
-0.4454339759
 10
3.4536030341
 20
-0.3279004788
 10
3.4811863661
 20
-0.2092152193
 10
3.4965419039
 20
-0.0897950837
 10
3.5
 20
0.0
  0
LWPOLYLINE
  5
CF
330
C0
100
AcDbEntity
  8
0
  6
Continuous
 62
     7
370
    15
100
AcDbPolyline
 90
       38
 70
   128
 43
0.0
 10
1.7
 20
-6.940596901
 10
1.695181146
 20
-7.0144375782
 10
1.6779101535
 20
-7.0982900079
 10
1.6482165012
 20
-7.1809749329
 10
1.6063200306
 20
-7.2618801831
 10
1.5525309284
 20
-7.3404067642
 10
1.4872474305
 20
-7.4159732931
 10
1.410952873
 20
-7.4880203014
 10
1.324212114
 20
-7.5560143784
 10
1.2276673518
 20
-7.6194521197
 10
1.1220333701
 20
-7.6778638545
 10
1.0080922459
 20
-7.7308171227
 10
0.8866875593
 20
-7.7779198769
 10
0.7587181484
 20
-7.8188233847
 10
0.6251314537
 20
-7.8532248109
 10
0.4869165044
 20
-7.8808694593
 10
0.3450965957
 20
-7.9015526587
 10
0.2007217125
 20
-7.9151212779
 10
0.054860756
 20
-7.9214748595
 10
-0.0914063703
 20
-7.920566364
 10
-0.2369967559
 20
-7.9124025173
 10
-0.3808325004
 20
-7.8970437619
 10
-0.5218486943
 20
-7.8746038086
 10
-0.659001303
 20
-7.8452487949
 10
-0.7912748967
 20
-7.8091960551
 10
-0.9176901679
 20
-7.766712511
 10
-1.0373111821
 20
-7.7181126961
 10
-1.1492523073
 20
-7.6637564261
 10
-1.2526847705
 20
-7.6040461361
 10
-1.3468427939
 20
-7.5394239001
 10
-1.4310292645
 20
-7.4703681584
 10
-1.5046208951
 20
-7.3973901758
 10
-1.567072839
 20
-7.3210302555
 10
-1.6179227238
 20
-7.2418537398
 10
-1.6567940749
 20
-7.1604468239
 10
-1.6833991023
 20
-7.077412216
 10
-1.6975408318
 20
-6.9933646754
 10
-1.7
 20
-6.940596901
  0
LINE
  5
D0
330
C0
100
AcDbEntity
  8
0
  6
Continuous
 62
     7
370
    15
100
AcDbLine
 10
2.4752758727
 20
5.9194564737
 30
0.0
 11
1.7680541948
 21
6.3278595689
 31
0.0
  0
LINE
  5
D1
330
C0
100
AcDbEntity
  8
0
  6
Continuous
 62
     7
370
    15
100
AcDbLine
 10
-1.7680541948
 20
6.3278595689
 30
0.0
 11
-2.4752758727
 21
5.9194564737
 31
0.0
  0
LINE
  5
D2
330
C0
100
AcDbEntity
  8
0
  6
Continuous
 62
     7
370
    15
100
AcDbLine
 10
3.5
 20
0.0
 30
0.0
 11
3.5
 21
4.4909744654
 31
0.0
  0
LINE
  5
D3
330
C0
100
AcDbEntity
  8
0
  6
Continuous
 62
     7
370
    15
100
AcDbLine
 10
-3.5
 20
4.4909744654
 30
0.0
 11
-3.5
 21
0.0
 31
0.0
  0
LINE
  5
D4
330
C0
100
AcDbEntity
  8
0
  6
Continuous
 62
     7
370
    15
100
AcDbLine
 10
-1.7
 20
-1.7661607853
 30
0.0
 11
-1.7
 21
-6.940596901
 31
0.0
  0
LINE
  5
D5
330
C0
100
AcDbEntity
  8
0
  6
Continuous
 62
     7
370
    15
100
AcDbLine
 10
1.7
 20
-6.940596901
 30
0.0
 11
1.7
 21
-1.7661607853
 31
0.0
  0
ARC
  5
D6
330
C0
100
AcDbEntity
  8
0
  6
Continuous
 62
     7
370
    15
100
AcDbCircle
 10
-1.9248187483
 20
4.490935818
 30
0.0
 40
1.530906368682531
100
AcDbArc
 50
111.0733542816
 51
248.9427740063
  0
ARC
  5
D7
330
C0
100
AcDbEntity
  8
0
  6
Continuous
 62
     7
370
    15
100
AcDbCircle
 10
-1.7603887519
 20
0.1660703915
 30
0.0
 40
1.747520148521134
100
AcDbArc
 50
185.4531634798
 51
245.8669774778
  0
VIEWPORT
  5
10B
330
C0
100
AcDbEntity
  8
0
100
AcDbViewport
 10
0.0
 20
0.0
 30
0.0
 40
243.84
 41
204.216
 68
     1
 69
     1
 12
-0.2657766627
 22
0.1282142618
 13
0.0
 23
0.0
 14
10.0
 24
10.0
 15
10.0
 25
10.0
 16
0.0
 26
0.0
 36
1.0
 17
0.0
 27
0.0
 37
0.0
 42
50.0
 43
0.0
 44
0.0
 45
11.1621120404
 50
0.0
 51
0.0
 72
   100
 90
   557152
  1

281
     0
 71
     1
 74
     0
110
0.0
120
0.0
130
0.0
111
1.0
121
0.0
131
0.0
112
0.0
122
1.0
132
0.0
 79
     0
146
0.0
  0
ENDBLK
  5
C3
330
C0
100
AcDbEntity
  8
0
100
AcDbBlockEnd
  0
BLOCK
  5
DA
330
D8
100
AcDbEntity
  8
0
100
AcDbBlockBegin
  2
*Paper_Space6
 70
     0
 10
0.0
 20
0.0
 30
0.0
  3
*Paper_Space6
  1

  0
LWPOLYLINE
  5
E2
330
D8
100
AcDbEntity
  8
0
  6
Continuous
 62
     7
370
    15
100
AcDbPolyline
 90
       90
 70
   128
 43
0.0
 10
-1.1667384723
 20
4.4328149376
 10
-1.007867322
 20
4.3932636913
 10
-0.8439750273
 20
4.3595827947
 10
-0.6758780916
 20
4.3319400443
 10
-0.5044139651
 20
4.310473155
 10
-0.3304368737
 20
4.2952890738
 10
-0.1548135624
 20
4.2864634468
 10
0.0215810223
 20
4.284040243
 10
0.1978680914
 20
4.2880315347
 10
0.3731693917
 20
4.2984174373
 10
0.5466115808
 20
4.315146209
 10
0.7173305785
 20
4.3381345077
 10
0.8844758714
 20
4.367267807
 10
1.0472147499
 20
4.4024009662
 10
1.2047364573
 20
4.4433589537
 10
1.3562562282
 20
4.4899377188
 10
1.5010191988
 20
4.5419052084
 10
1.6383041673
 20
4.5990025233
 10
1.7674271868
 20
4.6609452073
 10
1.8877449729
 20
4.7274246652
 10
1.9986581086
 20
4.7981096997
 10
2.0996140301
 20
4.8726481614
 10
2.1901097801
 20
4.9506687035
 10
2.2696945134
 20
5.0317826316
 10
2.3379717428
 20
5.1155858402
 10
2.3946013145
 20
5.2016608259
 10
2.439301103
 20
5.2895787675
 10
2.471848416
 20
5.3789016621
 10
2.4920811046
 20
5.4691845077
 10
2.4998983705
 20
5.5599775196
 10
2.4952612685
 20
5.6508283716
 10
2.4781929003
 20
5.7412844493
 10
2.4487782997
 20
5.8308951052
 10
2.4071640089
 20
5.9192139034
 10
2.353557348
 20
6.0058008441
 10
2.2882253828
 20
6.0902245555
 10
2.2114935939
 20
6.172064443
 10
2.1237442551
 20
6.2509127843
 10
2.0254145292
 20
6.3263767611
 10
1.9169942901
 20
6.3980804154
 10
1.7990236818
 20
6.4656665234
 10
1.6720904281
 20
6.5287983745
 10
1.5368269039
 20
6.5871614489
 10
1.3939069854
 20
6.6404649847
 10
1.2440426924
 20
6.6884434265
 10
1.0879806414
 20
6.7308577479
 10
0.9264983254
 20
6.7674966431
 10
0.7604002415
 20
6.7981775789
 10
0.5905138817
 20
6.8227477044
 10
0.4176856115
 20
6.8410846124
 10
0.2427764527
 20
6.8530969495
 10
0.0666577937
 20
6.8587248707
 10
-0.1097929511
 20
6.8579403381
 10
-0.2856967128
 20
6.8507472601
 10
-0.460177148
 20
6.8371814722
 10
-0.6323650037
 20
6.8173105587
 10
-0.8014024488
 20
6.7912335153
 10
-0.9664473472
 20
6.7590802566
 10
-1.1266774535
 20
6.7210109685
 10
-1.2812945094
 20
6.6772153102
 10
-1.4295282206
 20
6.6279114696
 10
-1.570640094
 20
6.5733450759
 10
-1.7039271175
 20
6.5137879761
 10
-1.8287252618
 20
6.4495368807
 10
-1.9444127889
 20
6.3809118854
 10
-2.0504133492
 20
6.3082548765
 10
-2.1461988534
 20
6.2319278276
 10
-2.2312921028
 20
6.1523109961
 10
-2.3052691673
 20
6.0698010292
 10
-2.3677614966
 20
5.9848089873
 10
-2.4184577574
 20
5.8977582966
 10
-2.4571053832
 20
5.809082639
 10
-2.4835118336
 20
5.7192237925
 10
-2.497545553
 20
5.6286294291
 10
-2.499136626
 20
5.5377508855
 10
-2.4882771261
 20
5.4470409139
 10
-2.4650211547
 20
5.356951427
 10
-2.4294845719
 20
5.2679312459
 10
-2.3818444192
 20
5.1804238648
 10
-2.3223380374
 20
5.0948652411
 10
-2.2512618843
 20
5.0116816234
 10
-2.1689700578
 20
4.9312874284
 10
-2.0758725315
 20
4.8540831759
 10
-1.9724331127
 20
4.7804534937
 10
-1.8591671313
 20
4.7107652011
 10
-1.7366388728
 20
4.6453654816
 10
-1.6054587669
 20
4.5845801534
 10
-1.466280346
 20
4.5287120459
 10
-1.3197969903
 20
4.4780394913
 10
-1.1667384723
 20
4.4328149376
  0
LWPOLYLINE
  5
E3
330
D8
100
AcDbEntity
  8
0
  6
Continuous
 62
     7
370
    15
100
AcDbPolyline
 90
       31
 70
   128
 43
0.0
 10
-1.6334338613
 20
3.12013863
 10
-1.8139423102
 20
3.1727766089
 10
-1.9880792207
 20
3.2308296669
 10
-2.1552329303
 20
3.2940938906
 10
-2.3148163057
 20
3.3623470621
 10
-2.4662688044
 20
3.4353494397
 10
-2.609058444
 20
3.5128445998
 10
-2.7426836707
 20
3.5945603378
 10
-2.8666751209
 20
3.6802096243
 10
-2.9805972702
 20
3.769491613
 10
-3.0840499629
 20
3.8620926977
 10
-3.1766698176
 20
3.9576876136
 10
-3.2581315037
 20
4.0559405802
 10
-3.3281488841
 20
4.1565064803
 10
-3.3864760201
 20
4.2590320725
 10
-3.4329080356
 20
4.363157232
 10
-3.4672818365
 20
4.4685162153
 10
-3.4894766834
 20
4.5747389451
 10
-3.4994146162
 20
4.6814523103
 10
-3.4970607276
 20
4.7882814763
 10
-3.4824232856
 20
4.8948512016
 10
-3.4555537048
 20
5.0007871563
 10
-3.4165463655
 20
5.1057172365
 10
-3.3655382826
 20
5.2092728714
 10
-3.3027086237
 20
5.3110903181
 10
-3.2282780803
 20
5.4108119391
 10
-3.1425080924
 20
5.5080874585
 10
-3.0456999303
 20
5.6025751926
 10
-2.938193636
 20
5.6939432497
 10
-2.8203668294
 20
5.7818706962
 10
-2.7977383414
 20
5.7975514917
  0
LWPOLYLINE
  5
E4
330
D8
100
AcDbEntity
  8
0
  6
Continuous
 62
     7
370
    15
100
AcDbPolyline
 90
       47
 70
   128
 43
0.0
 10
2.7977383414
 20
5.7975514917
 10
2.8666751209
 20
5.7486306834
 10
2.9805972702
 20
5.6593486947
 10
3.0840499629
 20
5.5667476101
 10
3.1766698176
 20
5.4711526941
 10
3.2581315037
 20
5.3728997275
 10
3.3281488841
 20
5.2723338274
 10
3.3864760201
 20
5.1698082352
 10
3.4329080356
 20
5.0656830757
 10
3.4672818365
 20
4.9603240924
 10
3.4894766834
 20
4.8541013626
 10
3.4994146162
 20
4.7473879974
 10
3.4970607276
 20
4.6405588315
 10
3.4824232856
 20
4.5339891061
 10
3.4555537048
 20
4.4280531514
 10
3.4165463655
 20
4.3231230712
 10
3.3655382826
 20
4.2195674363
 10
3.3027086237
 20
4.1177499896
 10
3.2282780803
 20
4.0180283687
 10
3.1425080924
 20
3.9207528492
 10
3.0456999303
 20
3.8262651152
 10
2.938193636
 20
3.7348970581
 10
2.8203668294
 20
3.6469696116
 10
2.6926333815
 20
3.562791624
 10
2.5554419606
 20
3.4826587737
 10
2.4092744567
 20
3.4068525301
 10
2.2546442883
 20
3.3356391655
 10
2.0920945997
 20
3.2692688194
 10
1.9221963524
 20
3.2079746201
 10
1.7455463204
 20
3.1519718657
 10
1.5627649933
 20
3.1014572678
 10
1.3744943971
 20
3.0566082609
 10
1.1813958392
 20
3.0175823788
 10
0.9841475854
 20
2.9845167012
 10
0.7834424772
 20
2.9575273726
 10
0.5799854988
 20
2.936709194
 10
0.3744913002
 20
2.9221352899
 10
0.1676816872
 20
2.9138568518
 10
-0.0397169138
 20
2.911902958
 10
-0.2469760077
 20
2.9162804716
 10
-0.4533675894
 20
2.9269740163
 10
-0.6581667009
 20
2.9439460309
 10
-0.8606539778
 20
2.9671369003
 10
-1.0601181763
 20
2.9964651659
 10
-1.255858671
 20
3.0318278111
 10
-1.4471879163
 20
3.0731006232
 10
-1.6334338613
 20
3.12013863
  0
LWPOLYLINE
  5
E5
330
D8
100
AcDbEntity
  8
0
  6
Continuous
 62
     7
370
    15
100
AcDbPolyline
 90
       36
 70
   128
 43
0.0
 10
-1.6334338613
 20
-1.5942815238
 10
-1.4471879163
 20
-1.6413195307
 10
-1.255858671
 20
-1.6825923428
 10
-1.0601181763
 20
-1.7179549879
 10
-0.8606539778
 20
-1.7472832535
 10
-0.6581667009
 20
-1.770474123
 10
-0.4533675894
 20
-1.7874461375
 10
-0.2469760077
 20
-1.7981396823
 10
-0.0397169138
 20
-1.8025171959
 10
0.1676816872
 20
-1.800563302
 10
0.3744913002
 20
-1.7922848639
 10
0.5799854988
 20
-1.7777109599
 10
0.7834424772
 20
-1.7568927812
 10
0.9841475854
 20
-1.7299034526
 10
1.1813958392
 20
-1.6968377751
 10
1.3744943971
 20
-1.6578118929
 10
1.5627649933
 20
-1.612962886
 10
1.7455463204
 20
-1.5624482882
 10
1.9221963524
 20
-1.5064455338
 10
2.0920945997
 20
-1.4451513344
 10
2.2546442883
 20
-1.3787809884
 10
2.4092744567
 20
-1.3075676238
 10
2.5554419606
 20
-1.2317613802
 10
2.6926333815
 20
-1.1516285299
 10
2.8203668294
 20
-1.0674505423
 10
2.938193636
 20
-0.9795230958
 10
3.0456999303
 20
-0.8881550387
 10
3.1425080924
 20
-0.7936673046
 10
3.2282780803
 20
-0.6963917852
 10
3.3027086237
 20
-0.5966701642
 10
3.3655382826
 20
-0.4948527175
 10
3.4165463655
 20
-0.3912970826
 10
3.4555537048
 20
-0.2863670025
 10
3.4824232856
 20
-0.1804310477
 10
3.4970607276
 20
-0.0738613224
 10
3.5
 20
0.0
  0
LWPOLYLINE
  5
E7
330
D8
100
AcDbEntity
  8
0
  6
Continuous
 62
     7
370
    15
100
AcDbPolyline
 90
       39
 70
   128
 43
0.0
 10
1.7
 20
-7.285922056
 10
1.6990360328
 20
-7.3154034728
 10
1.6878257672
 20
-7.3905194035
 10
1.6641194301
 20
-7.4648609321
 10
1.6280925349
 20
-7.5378776598
 10
1.5800118123
 20
-7.6090289964
 10
1.520233235
 20
-7.6777881622
 10
1.4491993827
 20
-7.7436460886
 10
1.3674361652
 20
-7.8061151863
 10
1.2755489287
 20
-7.864732956
 10
1.1742179743
 20
-7.9190654124
 10
1.0641935208
 20
-7.9687102969
 10
0.9462901508
 20
-8.0133000561
 10
0.8213807796
 20
-8.0525045631
 10
0.6903901925
 20
-8.0860335615
 10
0.554288198
 20
-8.1136388141
 10
0.4140824476
 20
-8.1351159415
 10
0.2708109756
 20
-8.1503059345
 10
0.1255345138
 20
-8.1590963317
 10
-0.0206713615
 20
-8.161422052
 10
-0.1667241933
 20
-8.1572658766
 10
-0.3115426575
 20
-8.1466585765
 10
-0.4540545689
 20
-8.1296786843
 10
-0.5932048191
 20
-8.1064519132
 10
-0.7279631884
 20
-8.0771502262
 10
-0.8573319729
 20
-8.0419905626
 10
-0.9803533714
 20
-8.0012332323
 10
-1.0961165766
 20
-7.9551799883
 10
-1.2037645181
 20
-7.9041717928
 10
-1.3025002083
 20
-7.8485862925
 10
-1.3915926427
 20
-7.788835023
 10
-1.470382212
 20
-7.7253603619
 10
-1.5382855859
 20
-7.6586322534
 10
-1.5948000315
 20
-7.5891447289
 10
-1.6395071356
 20
-7.5174122498
 10
-1.6720759025
 20
-7.4439658984
 10
-1.6922652044
 20
-7.3693494456
 10
-1.6999255668
 20
-7.2941153256
 10
-1.7
 20
-7.285922056
  0
LINE
  5
E8
330
D8
100
AcDbEntity
  8
0
  6
Continuous
 62
     7
370
    15
100
AcDbLine
 10
2.7977383414
 20
5.7975514917
 30
0.0
 11
1.9983845296
 21
6.3452526958
 31
0.0
  0
LINE
  5
E9
330
D8
100
AcDbEntity
  8
0
  6
Continuous
 62
     7
370
    15
100
AcDbLine
 10
-1.9983845296
 20
6.3452526958
 30
0.0
 11
-2.7977383414
 21
5.7975514917
 31
0.0
  0
LINE
  5
EA
330
D8
100
AcDbEntity
  8
0
  6
Continuous
 62
     7
370
    15
100
AcDbLine
 10
3.5
 20
0.0
 30
0.0
 11
3.5
 21
4.7144201539
 31
0.0
  0
LINE
  5
EB
330
D8
100
AcDbEntity
  8
0
  6
Continuous
 62
     7
370
    15
100
AcDbLine
 10
-3.5
 20
4.7144201539
 30
0.0
 11
-3.5
 21
0.0
 31
0.0
  0
LINE
  5
EC
330
D8
100
AcDbEntity
  8
0
  6
Continuous
 62
     7
370
    15
100
AcDbLine
 10
-1.7
 20
-1.5757135165
 30
0.0
 11
-1.7
 21
-7.285922056
 31
0.0
  0
LINE
  5
ED
330
D8
100
AcDbEntity
  8
0
  6
Continuous
 62
     7
370
    15
100
AcDbLine
 10
1.7
 20
-7.285922056
 30
0.0
 11
1.7
 21
-1.5757135165
 31
0.0
  0
ARC
  5
EE
330
D8
100
AcDbEntity
  8
0
  6
Continuous
 62
     7
370
    15
100
AcDbCircle
 10
-1.433200934
 20
0.5299664932
 30
0.0
 40
2.133664187050183
100
AcDbArc
 50
194.3818631872
 51
264.6151750714
  0
VIEWPORT
  5
10C
330
D8
100
AcDbEntity
  8
0
100
AcDbViewport
 10
0.0
 20
0.0
 30
0.0
 40
243.84
 41
204.216
 68
     1
 69
     1
 12
-0.2657766627
 22
0.1282142618
 13
0.0
 23
0.0
 14
10.0
 24
10.0
 15
10.0
 25
10.0
 16
0.0
 26
0.0
 36
1.0
 17
0.0
 27
0.0
 37
0.0
 42
50.0
 43
0.0
 44
0.0
 45
11.1621120404
 50
0.0
 51
0.0
 72
   100
 90
   557152
  1

281
     0
 71
     1
 74
     0
110
0.0
120
0.0
130
0.0
111
1.0
121
0.0
131
0.0
112
0.0
122
1.0
132
0.0
 79
     0
146
0.0
  0
ENDBLK
  5
DB
330
D8
100
AcDbEntity
  8
0
100
AcDbBlockEnd
  0
BLOCK
  5
F1
330
EF
100
AcDbEntity
  8
0
100
AcDbBlockBegin
  2
*Paper_Space7
 70
     0
 10
0.0
 20
0.0
 30
0.0
  3
*Paper_Space7
  1

  0
LWPOLYLINE
  5
F9
330
EF
100
AcDbEntity
  8
0
  6
Continuous
 62
     7
370
    15
100
AcDbPolyline
 90
       90
 70
   128
 43
0.0
 10
-0.8838834763
 20
5.348746815
 10
-0.716723859
 20
5.3299058196
 10
-0.5459935596
 20
5.3150421784
 10
-0.3725431477
 20
5.3042299414
 10
-0.1972367446
 20
5.2975229745
 10
-0.0209477179
 20
5.2949546916
 10
0.1554456692
 20
5.2965378877
 10
0.3310646339
 20
5.3022646754
 10
0.5050342511
 20
5.3121065242
 10
0.6764878132
 20
5.3260144023
 10
0.844571147
 20
5.3439190216
 10
1.0084468698
 20
5.365731182
 10
1.167298561
 20
5.3913422165
 10
1.3203348296
 20
5.4206245323
 10
1.4667932564
 20
5.4534322462
 10
1.605944193
 20
5.4896019119
 10
1.7370943964
 20
5.5289533339
 10
1.8595904829
 20
5.5712904655
 10
1.9728221832
 20
5.6164023852
 10
2.0762253825
 20
5.6640643476
 10
2.1692849315
 20
5.7140389033
 10
2.251537212
 20
5.7660770815
 10
2.3225724475
 20
5.8199196307
 10
2.3820367438
 20
5.87529831
 10
2.4296338529
 20
5.9319372256
 10
2.4651266483
 20
5.9895542052
 10
2.4883383068
 20
6.047862204
 10
2.4991531889
 20
6.1065707344
 10
2.4975174157
 20
6.1653873136
 10
2.4834391363
 20
6.2240189202
 10
2.456988488
 20
6.2821734546
 10
2.4182972466
 20
6.3395611937
 10
2.3675581701
 20
6.3958962348
 10
2.3050240378
 20
6.4508979196
 10
2.2310063917
 20
6.5042922323
 10
2.145873984
 20
6.5558131652
 10
2.05005094
 20
6.6052040436
 10
1.9440146454
 20
6.6522188047
 10
1.8282933676
 20
6.6966232232
 10
1.7034636242
 20
6.7381960787
 10
1.5701473107
 20
6.7767302571
 10
1.4290086023
 20
6.8120337832
 10
1.280750645
 20
6.8439307766
 10
1.1261120523
 20
6.872262328
 10
0.965863226
 20
6.8968872912
 10
0.8008025178
 20
6.9176829857
 10
0.6317522516
 20
6.9345458085
 10
0.4595546276
 20
6.9473917499
 10
0.2850675255
 20
6.9561568119
 10
0.1091602313
 20
6.9607973275
 10
-0.0672908937
 20
6.9612901779
 10
-0.2434067788
 20
6.9576329078
 10
-0.4183100236
 20
6.9498437374
 10
-0.5911292689
 20
6.9379614721
 10
-0.7610035379
 20
6.9220453086
 10
-0.9270865256
 20
6.9021745405
 10
-1.0885508148
 20
6.8784481629
 10
-1.2445919986
 20
6.8509843796
 10
-1.3944326877
 20
6.8199200136
 10
-1.5373263833
 20
6.7854098261
 10
-1.6725611962
 20
6.7476257451
 10
-1.7994633933
 20
6.706756009
 10
-1.9174007543
 20
6.6630042287
 10
-2.0257857212
 20
6.6165883735
 10
-2.1240783256
 20
6.5677396847
 10
-2.2117888785
 20
6.5167015242
 10
-2.2884804106
 20
6.4637281613
 10
-2.3537708483
 20
6.4090835069
 10
-2.4073349181
 20
6.3530397977
 10
-2.4489057664
 20
6.2958762408
 10
-2.4782762893
 20
6.2378776221
 10
-2.4953001645
 20
6.1793328877
 10
-2.4998925797
 20
6.1205337047
 10
-2.4920306559
 20
6.0617730075
 10
-2.4717535607
 20
6.0033435391
 10
-2.4391623136
 20
5.9455363921
 10
-2.3944192825
 20
5.8886395588
 10
-2.337747375
 20
5.8329364963
 10
-2.2694289277
 20
5.7787047146
 10
-2.1898042996
 20
5.7262143936
 10
-2.0992701766
 20
5.6757270374
 10
-1.9982775952
 20
5.6274941716
 10
-1.8873296954
 20
5.5817560898
 10
-1.766979214
 20
5.5387406569
 10
-1.6378257309
 20
5.4986621736
 10
-1.5005126825
 20
5.4617203088
 10
-1.3557241554
 20
5.4280991052
 10
-1.2041814787
 20
5.3979660617
 10
-1.0466396305
 20
5.3714712998
 10
-0.8838834763
 20
5.348746815
  0
LWPOLYLINE
  5
FA
330
EF
100
AcDbEntity
  8
0
  6
Continuous
 62
     7
370
    15
100
AcDbPolyline
 90
       28
 70
   128
 43
0.0
 10
-1.2374368668
 20
4.0941329913
 10
-1.4292144621
 20
4.1204851485
 10
-1.6159718894
 20
4.1505780327
 10
-1.7970531566
 20
4.1843059414
 10
-1.971822209
 20
4.2215504042
 10
-2.139665164
 20
4.2621805986
 10
-2.299992467
 20
4.3060538094
 10
-2.4522409627
 20
4.3530159305
 10
-2.5958758725
 20
4.4029020056
 10
-2.7303926736
 20
4.4555368082
 10
-2.8553188709
 20
4.5107354565
 10
-2.9702156565
 20
4.5683040633
 10
-3.0746794513
 20
4.6280404168
 10
-3.1683433224
 20
4.6897346908
 10
-3.250878272
 20
4.753170182
 10
-3.3219943931
 20
4.8181240708
 10
-3.3814418878
 20
4.8843682044
 10
-3.4290119445
 20
4.9516698979
 10
-3.4645374717
 20
5.0197927515
 10
-3.4878936846
 20
5.0884974813
 10
-3.4989985438
 20
5.1575427594
 10
-3.497813043
 20
5.2266860617
 10
-3.4843413463
 20
5.29568452
 10
-3.4586307735
 20
5.3642957745
 10
-3.420771634
 20
5.4322788257
 10
-3.3708969094
 20
5.4993948808
 10
-3.3091817865
 20
5.565408192
 10
-3.2739502136
 20
5.5979286843
  0
LWPOLYLINE
  5
FB
330
EF
100
AcDbEntity
  8
0
  6
Continuous
 62
     7
370
    15
100
AcDbPolyline
 90
       40
 70
   128
 43
0.0
 10
3.2739502136
 20
5.5979286843
 10
3.3219943931
 20
5.5527753869
 10
3.3814418878
 20
5.4865312533
 10
3.4290119445
 20
5.4192295598
 10
3.4645374717
 20
5.3511067062
 10
3.4878936846
 20
5.2824019764
 10
3.4989985438
 20
5.2133566983
 10
3.497813043
 20
5.144213396
 10
3.4843413463
 20
5.0752149377
 10
3.4586307735
 20
5.0066036832
 10
3.420771634
 20
4.938620632
 10
3.3708969094
 20
4.8715045769
 10
3.3091817865
 20
4.8054912657
 10
3.2358430418
 20
4.7408125724
 10
3.1511382804
 20
4.6776956834
 10
3.0553650309
 20
4.6163622989
 10
2.9488597003
 20
4.5570278548
 10
2.8319963925
 20
4.4999007654
 10
2.705185594
 20
4.4451816918
 10
2.5688727325
 20
4.3930628367
 10
2.4235366118
 20
4.3437272694
 10
2.2696877303
 20
4.297348283
 10
2.107866488
 20
4.2540887853
 10
1.9386412877
 20
4.2141007268
 10
1.7626065392
 20
4.1775245672
 10
1.5803805709
 20
4.1444887814
 10
1.3926034583
 20
4.115109409
 10
1.1999347752
 20
4.0894896459
 10
1.0030512774
 20
4.0677194827
 10
0.8026445255
 20
4.0498753876
 10
0.5994184554
 20
4.0360200389
 10
0.3940869061
 20
4.0262021039
 10
0.1873711121
 20
4.0204560684
 10
-0.0200028297
 20
4.0188021156
 10
-0.2273065108
 20
4.0212460552
 10
-0.4338117695
 20
4.0277793026
 10
-0.6387932486
 20
4.0383789096
 10
-0.841530943
 20
4.0530076447
 10
-1.0413127294
 20
4.0716141239
 10
-1.2374368668
 20
4.0941329913
  0
LWPOLYLINE
  5
FC
330
EF
100
AcDbEntity
  8
0
  6
Continuous
 62
     7
370
    15
100
AcDbPolyline
 90
       34
 70
   128
 43
0.0
 10
-1.2374368668
 20
-1.0913167376
 10
-1.0413127294
 20
-1.113835605
 10
-0.841530943
 20
-1.1324420842
 10
-0.6387932486
 20
-1.1470708193
 10
-0.4338117695
 20
-1.1576704263
 10
-0.2273065108
 20
-1.1642036737
 10
-0.0200028297
 20
-1.1666476132
 10
0.1873711121
 20
-1.1649936605
 10
0.3940869061
 20
-1.159247625
 10
0.5994184554
 20
-1.14942969
 10
0.8026445255
 20
-1.1355743412
 10
1.0030512774
 20
-1.1177302462
 10
1.1999347752
 20
-1.0959600829
 10
1.3926034583
 20
-1.0703403199
 10
1.5803805709
 20
-1.0409609474
 10
1.7626065392
 20
-1.0079251617
 10
1.9386412877
 20
-0.971349002
 10
2.107866488
 20
-0.9313609436
 10
2.2696877303
 20
-0.8881014459
 10
2.4235366118
 20
-0.8417224594
 10
2.5688727325
 20
-0.7923868922
 10
2.705185594
 20
-0.740268037
 10
2.8319963925
 20
-0.6855489634
 10
2.9488597003
 20
-0.6284218741
 10
3.0553650309
 20
-0.56908743
 10
3.1511382804
 20
-0.5077540455
 10
3.2358430418
 20
-0.4446371564
 10
3.3091817865
 20
-0.3799584632
 10
3.3708969094
 20
-0.3139451519
 10
3.420771634
 20
-0.2468290969
 10
3.4586307735
 20
-0.1788460456
 10
3.4843413463
 20
-0.1102347911
 10
3.497813043
 20
-0.0412363329
 10
3.5
 20
0.0
  0
LWPOLYLINE
  5
FD
330
EF
100
AcDbEntity
  8
0
  6
Continuous
 62
     7
370
    15
100
AcDbPolyline
 90
       22
 70
   128
 43
0.0
 10
-3.5
 20
0.0
 10
-3.4989985438
 20
-0.0279069695
 10
-3.4878936846
 20
-0.0969522476
 10
-3.4645374717
 20
-0.1656569774
 10
-3.4290119445
 20
-0.233779831
 10
-3.3814418878
 20
-0.3010815244
 10
-3.3219943931
 20
-0.367325658
 10
-3.250878272
 20
-0.4322795469
 10
-3.1683433224
 20
-0.495715038
 10
-3.0746794513
 20
-0.557409312
 10
-2.9702156565
 20
-0.6171456655
 10
-2.8553188709
 20
-0.6747142723
 10
-2.7303926736
 20
-0.7299129207
 10
-2.5958758725
 20
-0.7825477232
 10
-2.4522409627
 20
-0.8324337984
 10
-2.299992467
 20
-0.8793959194
 10
-2.139665164
 20
-0.9232691303
 10
-1.971822209
 20
-0.9638993246
 10
-1.7970531566
 20
-1.0011437874
 10
-1.6159718894
 20
-1.0348716962
 10
-1.4292144621
 20
-1.0649645803
 10
-1.2374368668
 20
-1.0913167376
  0
LWPOLYLINE
  5
FE
330
EF
100
AcDbEntity
  8
0
  6
Continuous
 62
     7
370
    15
100
AcDbPolyline
 90
       38
 70
   128
 43
0.0
 10
1.7
 20
-8.0138768537
 10
1.6943383367
 20
-8.0600860407
 10
1.6761491022
 20
-8.1084661337
 10
1.6455502462
 20
-8.1561459208
 10
1.6027683119
 20
-8.2027723975
 10
1.5481200418
 20
-8.2480003577
 10
1.4820100325
 20
-8.2914949493
 10
1.4049277394
 20
-8.3329341538
 10
1.3174438529
 20
-8.3720111696
 10
1.2202060731
 20
-8.4084366842
 10
1.1139343144
 20
-8.4419410159
 10
0.9994153757
 20
-8.4722761103
 10
0.8774971153
 20
-8.4992173769
 10
0.7490821733
 20
-8.5225653522
 10
0.6151212889
 20
-8.5421471758
 10
0.4766062617
 20
-8.5578178707
 10
0.3345626085
 20
-8.5694614167
 10
0.1900419708
 20
-8.5769916089
 10
0.0441143288
 20
-8.5803526965
 10
-0.1021399202
 20
-8.5795197952
 10
-0.247637961
 20
-8.5744990714
 10
-0.3913025769
 20
-8.5653276969
 10
-0.5320701255
 20
-8.5520735732
 10
-0.6688984131
 20
-8.5348348294
 10
-0.8007744108
 20
-8.5137390949
 10
-0.9267217549
 20
-8.4889425553
 10
-1.0458079754
 20
-8.4606287955
 10
-1.1571513996
 20
-8.4290074406
 10
-1.2599276796
 20
-8.3943126041
 10
-1.3533758959
 20
-8.3568011544
 10
-1.4368041906
 20
-8.3167508131
 10
-1.5095948897
 20
-8.274458099
 10
-1.5712090765
 20
-8.2302361325
 10
-1.6211905809
 20
-8.1844123177
 10
-1.6591693575
 20
-8.1373259179
 10
-1.6848642247
 20
-8.0893255444
 10
-1.6980849466
 20
-8.0407665753
 10
-1.7
 20
-8.0138768537
  0
LINE
  5
FF
330
EF
100
AcDbEntity
  8
0
  6
Continuous
 62
     7
370
    15
100
AcDbLine
 10
3.2739502136
 20
5.5979286843
 30
0.0
 11
2.3385358668
 21
6.4228865958
 31
0.0
  0
LINE
  5
100
330
EF
100
AcDbEntity
  8
0
  6
Continuous
 62
     7
370
    15
100
AcDbLine
 10
-2.3385358668
 20
6.4228865958
 30
0.0
 11
-3.2739502136
 21
5.5979286843
 31
0.0
  0
LINE
  5
101
330
EF
100
AcDbEntity
  8
0
  6
Continuous
 62
     7
370
    15
100
AcDbLine
 10
3.5
 20
0.0
 30
0.0
 11
3.5
 21
5.1854497289
 31
0.0
  0
LINE
  5
102
330
EF
100
AcDbEntity
  8
0
  6
Continuous
 62
     7
370
    15
100
AcDbLine
 10
-3.5
 20
5.1854497289
 30
0.0
 11
-3.5
 21
0.0
 31
0.0
  0
LINE
  5
103
330
EF
100
AcDbEntity
  8
0
  6
Continuous
 62
     7
370
    15
100
AcDbLine
 10
-1.7
 20
-1.0198039025
 30
0.0
 11
-1.7
 21
-8.0138768537
 31
0.0
  0
LINE
  5
104
330
EF
100
AcDbEntity
  8
0
  6
Continuous
 62
     7
370
    15
100
AcDbLine
 10
1.7
 20
-8.0138768537
 30
0.0
 11
1.7
 21
-1.0198039025
 31
0.0
  0
VIEWPORT
  5
10D
330
EF
100
AcDbEntity
  8
0
100
AcDbViewport
 10
0.0
 20
0.0
 30
0.0
 40
243.84
 41
204.216
 68
     1
 69
     1
 12
-0.2657766627
 22
0.1282142618
 13
0.0
 23
0.0
 14
10.0
 24
10.0
 15
10.0
 25
10.0
 16
0.0
 26
0.0
 36
1.0
 17
0.0
 27
0.0
 37
0.0
 42
50.0
 43
0.0
 44
0.0
 45
11.1621120404
 50
0.0
 51
0.0
 72
   100
 90
   557152
  1

281
     0
 71
     1
 74
     0
110
0.0
120
0.0
130
0.0
111
1.0
121
0.0
131
0.0
112
0.0
122
1.0
132
0.0
 79
     0
146
0.0
  0
ENDBLK
  5
F2
330
EF
100
AcDbEntity
  8
0
100
AcDbBlockEnd
  0
ENDSEC
  0
SECTION
  2
ENTITIES
  0
LWPOLYLINE
  5
4A
330
1F
100
AcDbEntity
  8
0
  6
Continuous
 62
     7
370
    15
100
AcDbPolyline
 90
       90
 70
   128
 43
0.0
 10
3.6818892943
 20
5.1186425559
 10
3.5514737742
 20
5.1420949061
 10
3.4240477652
 20
5.1544958299
 10
3.3002460971
 20
5.1557835466
 10
3.1806855436
 20
5.1459516408
 10
3.0659617495
 20
5.1250490946
 10
2.9566462629
 20
5.0931800433
 10
2.8532836881
 20
5.0505032571
 10
2.7563889722
 20
4.9972313496
 10
2.6664448397
 20
4.9336297186
 10
2.5838993879
 20
4.8600152243
 10
2.5091638541
 20
4.7767546105
 10
2.4426105668
 20
4.6842626772
 10
2.3845710913
 20
4.5830002148
 10
2.3353345772
 20
4.4734717076
 10
2.2951463185
 20
4.3562228211
 10
2.264206531
 20
4.2318376836
 10
2.2426693552
 20
4.1009359753
 10
2.2306420881
 20
3.9641698421
 10
2.2281846491
 20
3.822220646
 10
2.2353092809
 20
3.6757955706
 10
2.2519804891
 20
3.5256240985
 10
2.2781152184
 20
3.3724543762
 10
2.3135832671
 20
3.2170494877
 10
2.358207935
 20
3.0601836522
 10
2.4117669043
 20
2.9026383675
 10
2.4739933469
 20
2.7451985163
 10
2.5445772538
 20
2.588648456
 10
2.6231669795
 20
2.4337681111
 10
2.709370994
 20
2.2813290876
 10
2.8027598332
 20
2.1320908293
 10
2.9028682386
 20
1.9867968334
 10
3.0091974752
 20
1.8461709475
 10
3.1212178161
 20
1.7109137626
 10
3.2383711815
 20
1.5816991232
 10
3.3600739192
 20
1.4591707701
 10
3.4857197125
 20
1.3439391334
 10
3.6146826001
 20
1.2365782914
 10
3.7463200956
 20
1.1376231104
 10
3.8799763876
 20
1.04756658
 10
4.014985607
 20
0.9668573575
 10
4.1506751449
 20
0.895897532
 10
4.2863690026
 20
0.8350406219
 10
4.4213911603
 20
0.7845898132
 10
4.5550689444
 20
0.7447964493
 10
4.6867363788
 20
0.7158587788
 10
4.8157375031
 20
0.6979209677
 10
4.94142964
 20
0.6910723812
 10
5.0631865978
 20
0.6953471386
 10
5.1804017893
 20
0.7107239435
 10
5.2924912544
 20
0.7371261891
 10
5.398896569
 20
0.774422341
 10
5.4990876272
 20
0.8224265916
 10
5.5925652822
 20
0.880899786
 10
5.6788638329
 20
0.9495506138
 10
5.7575533444
 20
1.0280370601
 10
5.8282417894
 20
1.1159681092
 10
5.8905770018
 20
1.2129056931
 10
5.9442484305
 20
1.3183668737
 10
5.9889886873
 20
1.4318262486
 10
6.0245748784
 20
1.552718569
 10
6.0508297152
 20
1.6804415554
 10
6.0676223975
 20
1.8143588983
 10
6.0748692648
 20
1.9538034282
 10
6.0725342138
 20
2.0980804395
 10
6.0606288775
 20
2.2464711515
 10
6.0392125678
 20
2.3982362889
 10
6.0083919795
 20
2.5526197656
 10
5.9683206593
 20
2.7088524509
 10
5.9191982405
 20
2.8661560012
 10
5.8612694485
 20
3.0237467384
 10
5.7948228816
 20
3.1808395532
 10
5.7201895734
 20
3.3366518172
 10
5.6377413432
 20
3.4904072814
 10
5.5478889439
 20
3.641339944
 10
5.4510800156
 20
3.7886978659
 10
5.3477968557
 20
3.9317469174
 10
5.2385540155
 20
4.0697744354
 10
5.1238957374
 20
4.2020927736
 10
5.0043932432
 20
4.3280427289
 10
4.8806418883
 20
4.4469968247
 10
4.7532581957
 20
4.5583624379
 10
4.6228767846
 20
4.6615847505
 10
4.4901472087
 20
4.7561495142
 10
4.3557307199
 20
4.841585612
 10
4.2202969744
 20
4.9174674057
 10
4.0845206965
 20
4.9834168559
 10
3.9490783166
 20
5.0391054058
 10
3.8146446018
 20
5.0842556178
 10
3.6818892943
 20
5.1186425559
  0
LWPOLYLINE
  5
4C
330
1F
100
AcDbEntity
  8
0
  6
Continuous
 62
     7
370
    15
100
AcDbPolyline
 90
       81
 70
   128
 43
0.0
 10
6.1519432082
 20
1.7591690563
 10
6.1725122564
 20
1.6294294831
 10
6.1929009848
 20
1.4526178278
 10
6.2038759134
 20
1.2793937649
 10
6.2053984922
 20
1.1103657502
 10
6.1974633734
 20
0.9461275009
 10
6.1800984291
 20
0.7872559098
 10
6.1533646544
 20
0.6343090191
 10
6.1173559527
 20
0.4878240604
 10
6.0721988059
 20
0.3483155674
 10
6.01805183
 20
0.2162735689
 10
5.9551052183
 20
0.092161867
 10
5.8835800731
 20
-0.0235835912
 10
5.8037276291
 20
-0.1305562457
 10
5.7158283708
 20
-0.2283803511
 10
5.6201910476
 20
-0.3167122967
 10
5.5171515892
 20
-0.3952418132
 10
5.4070719253
 20
-0.4636930629
 10
5.2903387148
 20
-0.5218256082
 10
5.1673619874
 20
-0.5694352566
 10
5.0385737032
 20
-0.6063547773
 10
4.9044262359
 20
-0.6324544892
 10
4.7653907834
 20
-0.6476427162
 10
4.6219557126
 20
-0.6518661089
 10
4.4746248446
 20
-0.6451098326
 10
4.3239156843
 20
-0.627397619
 10
4.1703576033
 20
-0.5987916828
 10
4.0144899798
 20
-0.5593925035
 10
3.8568603046
 20
-0.5093384721
 10
3.6980222576
 20
-0.4488054052
 10
3.5385337633
 20
-0.3780059273
 10
3.3789550309
 20
-0.2971887244
 10
3.2198465864
 20
-0.2066376697
 10
3.0617673041
 20
-0.1066708271
 10
2.9052724432
 20
0.0023606662
 10
2.7509116976
 20
0.1200738331
 10
2.5992272651
 20
0.2460552018
 10
2.4507519428
 20
0.3798622582
 10
2.3060072557
 20
0.521025
 10
2.1655016247
 20
0.6690475881
 10
2.0297285809
 20
0.8234100877
 10
1.8991650323
 20
0.9835702948
 10
1.774269588
 20
1.148965641
 10
1.6554809477
 20
1.3190151689
 10
1.543216361
 20
1.4931215735
 10
1.4378701613
 20
1.6706732996
 10
1.339812381
 20
1.8510466904
 10
1.2493874515
 20
2.0336081777
 10
1.1669129938
 20
2.2177165076
 10
1.0926787024
 20
2.4027249929
 10
1.0269453279
 20
2.5879837847
 10
0.9699437612
 20
2.7728421545
 10
0.9218742225
 20
2.9566507806
 10
0.8829055576
 20
3.1387640286
 10
0.8531746455
 20
3.318542219
 10
0.8327859171
 20
3.4953538743
 10
0.8218109886
 20
3.6685779372
 10
0.8202884097
 20
3.8376059518
 10
0.8282235286
 20
4.0018442011
 10
0.8455884728
 20
4.1607157922
 10
0.8723222475
 20
4.3136626829
 10
0.9083309492
 20
4.4601476416
 10
0.9534880961
 20
4.5996561346
 10
1.0076350719
 20
4.7316981332
 10
1.0705816836
 20
4.8558098351
 10
1.1421068288
 20
4.9715552933
 10
1.2219592729
 20
5.0785279478
 10
1.3098585312
 20
5.1763520532
 10
1.4054958543
 20
5.2646839987
 10
1.5085353128
 20
5.3432135152
 10
1.6186149767
 20
5.4116647649
 10
1.7353481871
 20
5.4697973103
 10
1.8583249146
 20
5.5174069587
 10
1.9871131987
 20
5.5543264794
 10
2.121260666
 20
5.5804261913
 10
2.2602961186
 20
5.5956144182
 10
2.4037311893
 20
5.599837811
 10
2.5510620574
 20
5.5930815347
 10
2.7017712176
 20
5.5753693211
 10
2.8553292987
 20
5.5467633849
 10
2.8553292987
 20
5.5467633849
  0
LWPOLYLINE
  5
4D
330
1F
100
AcDbEntity
  8
0
  6
Continuous
 62
     7
370
    15
100
AcDbPolyline
 90
       55
 70
   128
 43
0.0
 10
-2.015308174
 20
2.8615612808
 10
-2.1073475966
 20
2.7906981477
 10
-2.2029849198
 20
2.7023662021
 10
-2.2908841781
 20
2.6045420968
 10
-2.3707366221
 20
2.4975694423
 10
-2.4422617673
 20
2.381823984
 10
-2.505208379
 20
2.2577122822
 10
-2.5593553549
 20
2.1256702836
 10
-2.6045125018
 20
1.9861617906
 10
-2.6405212034
 20
1.8396768319
 10
-2.6672549781
 20
1.6867299412
 10
-2.6846199224
 20
1.5278583501
 10
-2.6925550413
 20
1.3636201008
 10
-2.6910324624
 20
1.1945920862
 10
-2.6800575338
 20
1.0213680233
 10
-2.6596688054
 20
0.8445563679
 10
-2.6299378933
 20
0.6647781775
 10
-2.5909692285
 20
0.4826649296
 10
-2.5428996897
 20
0.2988563034
 10
-2.4858981231
 20
0.1139979336
 10
-2.4201647486
 20
-0.0712608581
 10
-2.3459304572
 20
-0.2562693434
 10
-2.2634559995
 20
-0.4403776734
 10
-2.17303107
 20
-0.6229391607
 10
-2.0749732896
 20
-0.8033125514
 10
-1.9696270899
 20
-0.9808642776
 10
-1.8573625032
 20
-1.1549706821
 10
-1.738573863
 20
-1.3250202101
 10
-1.6136784186
 20
-1.4904155562
 10
-1.48311487
 20
-1.6505757633
 10
-1.3473418263
 20
-1.8049382629
 10
-1.2068361953
 20
-1.952960851
 10
-1.0620915081
 20
-2.0941235929
 10
-0.9136161858
 20
-2.2279306492
 10
-0.7619317533
 20
-2.3539120179
 10
-0.6075710078
 20
-2.4716251848
 10
-0.4510761469
 20
-2.5806566781
 10
-0.2929968646
 20
-2.6806235207
 10
-0.1338884201
 20
-2.7711745754
 10
0.0256903123
 20
-2.8519917784
 10
0.1851788066
 20
-2.9227912562
 10
0.3440168536
 20
-2.9833243231
 10
0.5016465288
 20
-3.0333783545
 10
0.6575141523
 20
-3.0727775339
 10
0.8110722334
 20
-3.10138347
 10
0.9617813936
 20
-3.1190956837
 10
1.1091122616
 20
-3.1258519599
 10
1.2525473324
 20
-3.1216285672
 10
1.391582785
 20
-3.1064403403
 10
1.5257302523
 20
-3.0803406284
 10
1.6545185364
 20
-3.0434211076
 10
1.7774952638
 20
-2.9958114593
 10
1.8942284743
 20
-2.9376789139
 10
2.0043081382
 20
-2.8692276642
 10
2.015308174
 20
-2.8615612808
  0
LWPOLYLINE
  5
4E
330
1F
100
AcDbEntity
  8
0
  6
Continuous
 62
     7
370
    15
100
AcDbPolyline
 90
       31
 70
   128
 43
0.0
 10
-5.1095758619
 20
-5.3159246239
 10
-5.2198037221
 20
-5.2864337953
 10
-5.3315799531
 20
-5.2461114183
 10
-5.4440770031
 20
-5.1952560257
 10
-5.556461983
 20
-5.134244133
 10
-5.6679028339
 20
-5.0635274509
 10
-5.7775744866
 20
-4.9836295409
 10
-5.8846649708
 20
-4.8951419394
 10
-5.9883814257
 20
-4.7987197774
 10
-6.0879559712
 20
-4.6950769309
 10
-6.1826513921
 20
-4.5849807354
 10
-6.2717665967
 20
-4.4692463045
 10
-6.3546418071
 20
-4.3487304955
 10
-6.4306634444
 20
-4.2243255652
 10
-6.4992686708
 20
-4.0969525642
 10
-6.5599495573
 20
-3.9675545178
 10
-6.6122568439
 20
-3.8370894436
 10
-6.6558032656
 20
-3.7065232596
 10
-6.6902664201
 20
-3.5768226319
 10
-6.7153911542
 20
-3.4489478188
 10
-6.7309914531
 20
-3.3238455606
 10
-6.7369518177
 20
-3.2024420706
 10
-6.7332281196
 20
-3.0856361778
 10
-6.7198479276
 20
-2.9742926721
 10
-6.6969103041
 20
-2.869235902
 10
-6.6645850712
 20
-2.771243671
 10
-6.6231115536
 20
-2.6810414792
 10
-6.5727968067
 20
-2.5992971523
 10
-6.5140133434
 20
-2.5266158964
 10
-6.4471963757
 20
-2.4635358183
 10
-6.407803849
 20
-2.4335314853
  0
LINE
  5
50
330
1F
100
AcDbEntity
  8
0
  6
Continuous
 62
     7
370
    15
100
AcDbLine
 10
6.1519432082
 20
1.7591690563
 30
0.0
 11
6.0366135154
 21
2.4132180355
 31
0.0
  0
LINE
  5
51
330
1F
100
AcDbEntity
  8
0
  6
Continuous
 62
     7
370
    15
100
AcDbLine
 10
4.3058947349
 20
4.8706872773
 30
0.0
 11
3.7289369155
 21
5.1996259948
 31
0.0
  0
LINE
  5
52
330
1F
100
AcDbEntity
  8
0
  6
Continuous
 62
     7
370
    15
100
AcDbLine
 10
2.015308174
 20
-2.8615612808
 30
0.0
 11
5.5281516249
 21
-0.3875754298
 31
0.0
  0
LINE
  5
53
330
1F
100
AcDbEntity
  8
0
  6
Continuous
 62
     7
370
    15
100
AcDbLine
 10
1.497535277
 20
5.3355471319
 30
0.0
 11
-2.015308174
 21
2.8615612808
 31
0.0
  0
LINE
  5
54
330
1F
100
AcDbEntity
  8
0
  6
Continuous
 62
     7
370
    15
100
AcDbLine
 10
-2.5404097091
 20
0.2901533347
 30
0.0
 11
-6.407803849
 21
-2.4335314853
 31
0.0
  0
LINE
  5
55
330
1F
100
AcDbEntity
  8
0
  6
Continuous
 62
     7
370
    15
100
AcDbLine
 10
-4.4500759085
 20
-5.2133338724
 30
0.0
 11
-0.5826817687
 21
-2.4896490524
 31
0.0
  0
ARC
  5
56
330
1F
100
AcDbEntity
  8
0
  6
Continuous
 62
     7
370
    15
100
AcDbCircle
 10
2.1374026726
 20
2.4671945538
 30
0.0
 40
3.162145288606598
100
AcDbArc
 50
59.7808764645
 51
76.8772607053
  0
ARC
  5
57
330
1F
100
AcDbEntity
  8
0
  6
Continuous
 62
     7
370
    15
100
AcDbCircle
 10
-4.8972670835
 20
-4.5096638771
 30
0.0
 40
0.8337454103694831
100
AcDbArc
 50
255.2474720935
 51
302.4364742458
  0
CIRCLE
  5
58
330
1B
100
AcDbEntity
 67
     1
  8
0
  6
Continuous
 62
     7
370
    15
100
AcDbCircle
 10
0.0
 20
0.0
 30
0.0
 40
2.500000000000009
  0
CIRCLE
  5
59
330
1B
100
AcDbEntity
 67
     1
  8
0
  6
Continuous
 62
     7
370
    15
100
AcDbCircle
 10
0.0
 20
0.0
 30
0.0
 40
3.499999999999996
  0
VIEWPORT
  5
105
330
1B
100
AcDbEntity
 67
     1
  8
0
100
AcDbViewport
 10
0.0
 20
0.0
 30
0.0
 40
243.84
 41
204.216
 68
     1
 69
     1
 12
-0.2657766627
 22
0.1282142618
 13
0.0
 23
0.0
 14
10.0
 24
10.0
 15
10.0
 25
10.0
 16
0.0
 26
0.0
 36
1.0
 17
0.0
 27
0.0
 37
0.0
 42
50.0
 43
0.0
 44
0.0
 45
11.1621120404
 50
0.0
 51
0.0
 72
   100
 90
   557152
  1

281
     0
 71
     1
 74
     0
110
0.0
120
0.0
130
0.0
111
1.0
121
0.0
131
0.0
112
0.0
122
1.0
132
0.0
 79
     0
146
0.0
  0
ENDSEC
  0
SECTION
  2
OBJECTS
  0
DICTIONARY
  5
C
330
0
100
AcDbDictionary
281
     1
  3
ACAD_GROUP
350
D
  3
ACAD_LAYOUT
350
1A
  3
ACAD_MLINESTYLE
350
17
  3
ACAD_PLOTSETTINGS
350
19
  3
ACAD_PLOTSTYLENAME
350
E
  0
DICTIONARY
  5
D
102
{ACAD_REACTORS
330
C
102
}
330
C
100
AcDbDictionary
281
     1
  0
DICTIONARY
  5
1A
102
{ACAD_REACTORS
330
C
102
}
330
C
100
AcDbDictionary
281
     1
  3
_Back
350
8A
  3
_Bottom
350
BB
  3
_Dimetric
350
F0
  3
_Front
350
26
  3
_Isometric
350
C1
  3
_Left
350
72
  3
_Right
350
A3
  3
_Top
350
1E
  3
_Trimetric
350
D9
  3
Model
350
22
  0
DICTIONARY
  5
17
102
{ACAD_REACTORS
330
C
102
}
330
C
100
AcDbDictionary
281
     1
  3
Standard
350
18
  0
DICTIONARY
  5
19
102
{ACAD_REACTORS
330
C
102
}
330
C
100
AcDbDictionary
281
     1
  0
ACDBDICTIONARYWDFLT
  5
E
102
{ACAD_REACTORS
330
C
102
}
330
C
100
AcDbDictionary
281
     1
  3
Normal
350
F
100
AcDbDictionaryWithDefault
340
F
  0
LAYOUT
  5
8A
102
{ACAD_REACTORS
330
1A
102
}
330
1A
100
AcDbPlotSettings
  1

  2
none_device
  4

  6

 40
0.0
 41
0.0
 42
0.0
 43
0.0
 44
0.0
 45
0.0
 46
0.0
 47
0.0
 48
0.0
 49
0.0
140
0.0
141
0.0
142
1.0
143
1.0
 70
   688
 72
     0
 73
     0
 74
     5
  7

 75
    16
147
1.0
148
0.0
149
0.0
100
AcDbLayout
  1
_Back
 70
     1
 71
     4
 10
0.0
 20
0.0
 11
0.0
 21
0.0
 12
0.0
 22
0.0
 32
0.0
 14
0.0
 24
0.0
 34
0.0
 15
0.0
 25
0.0
 35
0.0
146
0.0
 13
0.0
 23
0.0
 33
0.0
 16
1.0
 26
0.0
 36
0.0
 17
0.0
 27
1.0
 37
0.0
 76
     0
330
89
331
108
  0
LAYOUT
  5
BB
102
{ACAD_REACTORS
330
1A
102
}
330
1A
100
AcDbPlotSettings
  1

  2
none_device
  4

  6

 40
0.0
 41
0.0
 42
0.0
 43
0.0
 44
0.0
 45
0.0
 46
0.0
 47
0.0
 48
0.0
 49
0.0
140
0.0
141
0.0
142
1.0
143
1.0
 70
   688
 72
     0
 73
     0
 74
     5
  7

 75
    16
147
1.0
148
0.0
149
0.0
100
AcDbLayout
  1
_Bottom
 70
     1
 71
     6
 10
0.0
 20
0.0
 11
0.0
 21
0.0
 12
0.0
 22
0.0
 32
0.0
 14
0.0
 24
0.0
 34
0.0
 15
0.0
 25
0.0
 35
0.0
146
0.0
 13
0.0
 23
0.0
 33
0.0
 16
1.0
 26
0.0
 36
0.0
 17
0.0
 27
1.0
 37
0.0
 76
     0
330
BA
331
10A
  0
LAYOUT
  5
F0
102
{ACAD_REACTORS
330
1A
102
}
330
1A
100
AcDbPlotSettings
  1

  2
none_device
  4

  6

 40
0.0
 41
0.0
 42
0.0
 43
0.0
 44
0.0
 45
0.0
 46
0.0
 47
0.0
 48
0.0
 49
0.0
140
0.0
141
0.0
142
1.0
143
1.0
 70
   688
 72
     0
 73
     0
 74
     5
  7

 75
    16
147
1.0
148
0.0
149
0.0
100
AcDbLayout
  1
_Dimetric
 70
     1
 71
     9
 10
0.0
 20
0.0
 11
0.0
 21
0.0
 12
0.0
 22
0.0
 32
0.0
 14
0.0
 24
0.0
 34
0.0
 15
0.0
 25
0.0
 35
0.0
146
0.0
 13
0.0
 23
0.0
 33
0.0
 16
1.0
 26
0.0
 36
0.0
 17
0.0
 27
1.0
 37
0.0
 76
     0
330
EF
331
10D
  0
LAYOUT
  5
26
102
{ACAD_REACTORS
330
1A
102
}
330
1A
100
AcDbPlotSettings
  1

  2
none_device
  4

  6

 40
0.0
 41
0.0
 42
0.0
 43
0.0
 44
0.0
 45
0.0
 46
0.0
 47
0.0
 48
0.0
 49
0.0
140
0.0
141
0.0
142
1.0
143
1.0
 70
   688
 72
     0
 73
     0
 74
     5
  7

 75
    16
147
1.0
148
0.0
149
0.0
100
AcDbLayout
  1
_Front
 70
     1
 71
     2
 10
0.0
 20
0.0
 11
0.0
 21
0.0
 12
0.0
 22
0.0
 32
0.0
 14
0.0
 24
0.0
 34
0.0
 15
0.0
 25
0.0
 35
0.0
146
0.0
 13
0.0
 23
0.0
 33
0.0
 16
1.0
 26
0.0
 36
0.0
 17
0.0
 27
1.0
 37
0.0
 76
     0
330
23
331
106
  0
LAYOUT
  5
C1
102
{ACAD_REACTORS
330
1A
102
}
330
1A
100
AcDbPlotSettings
  1

  2
none_device
  4

  6

 40
0.0
 41
0.0
 42
0.0
 43
0.0
 44
0.0
 45
0.0
 46
0.0
 47
0.0
 48
0.0
 49
0.0
140
0.0
141
0.0
142
1.0
143
1.0
 70
   688
 72
     0
 73
     0
 74
     5
  7

 75
    16
147
1.0
148
0.0
149
0.0
100
AcDbLayout
  1
_Isometric
 70
     1
 71
     7
 10
0.0
 20
0.0
 11
0.0
 21
0.0
 12
0.0
 22
0.0
 32
0.0
 14
0.0
 24
0.0
 34
0.0
 15
0.0
 25
0.0
 35
0.0
146
0.0
 13
0.0
 23
0.0
 33
0.0
 16
1.0
 26
0.0
 36
0.0
 17
0.0
 27
1.0
 37
0.0
 76
     0
330
C0
331
10B
  0
LAYOUT
  5
72
102
{ACAD_REACTORS
330
1A
102
}
330
1A
100
AcDbPlotSettings
  1

  2
none_device
  4

  6

 40
0.0
 41
0.0
 42
0.0
 43
0.0
 44
0.0
 45
0.0
 46
0.0
 47
0.0
 48
0.0
 49
0.0
140
0.0
141
0.0
142
1.0
143
1.0
 70
   688
 72
     0
 73
     0
 74
     5
  7

 75
    16
147
1.0
148
0.0
149
0.0
100
AcDbLayout
  1
_Left
 70
     1
 71
     3
 10
0.0
 20
0.0
 11
0.0
 21
0.0
 12
0.0
 22
0.0
 32
0.0
 14
0.0
 24
0.0
 34
0.0
 15
0.0
 25
0.0
 35
0.0
146
0.0
 13
0.0
 23
0.0
 33
0.0
 16
1.0
 26
0.0
 36
0.0
 17
0.0
 27
1.0
 37
0.0
 76
     0
330
71
331
107
  0
LAYOUT
  5
A3
102
{ACAD_REACTORS
330
1A
102
}
330
1A
100
AcDbPlotSettings
  1

  2
none_device
  4

  6

 40
0.0
 41
0.0
 42
0.0
 43
0.0
 44
0.0
 45
0.0
 46
0.0
 47
0.0
 48
0.0
 49
0.0
140
0.0
141
0.0
142
1.0
143
1.0
 70
   688
 72
     0
 73
     0
 74
     5
  7

 75
    16
147
1.0
148
0.0
149
0.0
100
AcDbLayout
  1
_Right
 70
     1
 71
     5
 10
0.0
 20
0.0
 11
0.0
 21
0.0
 12
0.0
 22
0.0
 32
0.0
 14
0.0
 24
0.0
 34
0.0
 15
0.0
 25
0.0
 35
0.0
146
0.0
 13
0.0
 23
0.0
 33
0.0
 16
1.0
 26
0.0
 36
0.0
 17
0.0
 27
1.0
 37
0.0
 76
     0
330
A2
331
109
  0
LAYOUT
  5
1E
102
{ACAD_REACTORS
330
1A
102
}
330
1A
100
AcDbPlotSettings
  1

  2
none_device
  4

  6

 40
0.0
 41
0.0
 42
0.0
 43
0.0
 44
0.0
 45
0.0
 46
0.0
 47
0.0
 48
0.0
 49
0.0
140
0.0
141
0.0
142
1.0
143
1.0
 70
   688
 72
     0
 73
     0
 74
     5
  7

 75
    16
147
1.0
148
0.0
149
0.0
100
AcDbLayout
  1
_Top
 70
     1
 71
     1
 10
0.0
 20
0.0
 11
420.0
 21
297.0
 12
0.0
 22
0.0
 32
0.0
 14
-3.5
 24
-3.5
 34
0.0
 15
3.5
 25
3.5
 35
0.0
146
0.0
 13
0.0
 23
0.0
 33
0.0
 16
1.0
 26
0.0
 36
0.0
 17
0.0
 27
1.0
 37
0.0
 76
     0
330
1B
331
105
  0
LAYOUT
  5
D9
102
{ACAD_REACTORS
330
1A
102
}
330
1A
100
AcDbPlotSettings
  1

  2
none_device
  4

  6

 40
0.0
 41
0.0
 42
0.0
 43
0.0
 44
0.0
 45
0.0
 46
0.0
 47
0.0
 48
0.0
 49
0.0
140
0.0
141
0.0
142
1.0
143
1.0
 70
   688
 72
     0
 73
     0
 74
     5
  7

 75
    16
147
1.0
148
0.0
149
0.0
100
AcDbLayout
  1
_Trimetric
 70
     1
 71
     8
 10
0.0
 20
0.0
 11
0.0
 21
0.0
 12
0.0
 22
0.0
 32
0.0
 14
0.0
 24
0.0
 34
0.0
 15
0.0
 25
0.0
 35
0.0
146
0.0
 13
0.0
 23
0.0
 33
0.0
 16
1.0
 26
0.0
 36
0.0
 17
0.0
 27
1.0
 37
0.0
 76
     0
330
D8
331
10C
  0
LAYOUT
  5
22
102
{ACAD_REACTORS
330
1A
102
}
330
1A
100
AcDbPlotSettings
  1

  2
none_device
  4
ANSI_A_(11.00_x_8.50_Inches)
  6

 40
6.35
 41
19.05
 42
6.35000508
 43
19.05000254
 44
279.4
 45
215.9
 46
138.541086463
 47
86.3957470869
 48
0.0
 49
0.0
140
0.0
141
0.0
142
0.7689673754
143
1.0
 70
  1696
 72
     0
 73
     0
 74
     0
  7

 75
     0
147
0.0179189148
148
0.0
149
0.0
100
AcDbLayout
  1
Model
 70
     1
 71
     0
 10
0.0
 20
0.0
 11
420.0
 21
297.0
 12
0.0
 22
0.0
 32
0.0
 14
-6.7369518177
 24
-5.3434092874
 34
0.0
 15
6.2053984922
 25
5.599837811
 35
0.0
146
0.0
 13
0.0
 23
0.0
 33
0.0
 16
1.0
 26
0.0
 36
0.0
 17
0.0
 27
1.0
 37
0.0
 76
     0
330
1F
331
29
  0
MLINESTYLE
  5
18
102
{ACAD_REACTORS
330
17
102
}
330
17
100
AcDbMlineStyle
  2
Standard
 70
     0
  3

 62
   256
 51
90.0
 52
90.0
 71
     2
 49
0.5
 62
   256
  6
BYLAYER
 49
-0.5
 62
   256
  6
BYLAYER
  0
ACDBPLACEHOLDER
  5
F
102
{ACAD_REACTORS
330
E
102
}
330
E
  0
ENDSEC
  0
EOF
