  0
SECTION
  2
HEADER
  9
$ACADVER
  1
AC1015
  9
$ACADMAINTVER
 70
     6
  9
$DWGCODEPAGE
  3
ANSI_1252
  9
$INSBASE
 10
0.0
 20
0.0
 30
0.0
  9
$EXTMIN
 10
-7.3589274306
 20
-6.7689205185
 30
0.0
  9
$EXTMAX
 10
7.3589274306
 20
6.7967590713
 30
0.0
  9
$LIMMIN
 10
0.0
 20
0.0
  9
$LIMMAX
 10
420.0
 20
297.0
  9
$ORTHOMODE
 70
     0
  9
$REGENMODE
 70
     1
  9
$FILLMODE
 70
     1
  9
$QTEXTMODE
 70
     0
  9
$MIRRTEXT
 70
     1
  9
$LTSCALE
 40
1.0
  9
$ATTMODE
 70
     1
  9
$TEXTSIZE
 40
3.5
  9
$TRACEWID
 40
1.0
  9
$TEXTSTYLE
  7
Standard
  9
$CLAYER
  8
0
  9
$CELTYPE
  6
ByLayer
  9
$CECOLOR
 62
   256
  9
$CELTSCALE
 40
1.0
  9
$DISPSILH
 70
     0
  9
$DIMSCALE
 40
1.0
  9
$DIMASZ
 40
6.0
  9
$DIMEXO
 40
1.0
  9
$DIMDLI
 40
3.75
  9
$DIMRND
 40
0.0
  9
$DIMDLE
 40
0.0
  9
$DIMEXE
 40
1.0
  9
$DIMTP
 40
0.0
  9
$DIMTM
 40
0.0
  9
$DIMTXT
 40
3.5
  9
$DIMCEN
 40
2.5
  9
$DIMTSZ
 40
0.0
  9
$DIMTOL
 70
     0
  9
$DIMLIM
 70
     0
  9
$DIMTIH
 70
     1
  9
$DIMTOH
 70
     1
  9
$DIMSE1
 70
     0
  9
$DIMSE2
 70
     0
  9
$DIMTAD
 70
     1
  9
$DIMZIN
 70
     0
  9
$DIMBLK
  1

  9
$DIMASO
 70
     1
  9
$DIMSHO
 70
     1
  9
$DIMPOST
  1

  9
$DIMAPOST
  1

  9
$DIMALT
 70
     0
  9
$DIMALTD
 70
     3
  9
$DIMALTF
 40
0.0393700787
  9
$DIMLFAC
 40
1.0
  9
$DIMTOFL
 70
     1
  9
$DIMTVP
 40
0.0
  9
$DIMTIX
 70
     0
  9
$DIMSOXD
 70
     0
  9
$DIMSAH
 70
     0
  9
$DIMBLK1
  1

  9
$DIMBLK2
  1

  9
$DIMSTYLE
  2
ISO-25
  9
$DIMCLRD
 70
     0
  9
$DIMCLRE
 70
     0
  9
$DIMCLRT
 70
     0
  9
$DIMTFAC
 40
1.0
  9
$DIMGAP
 40
1.524
  9
$DIMJUST
 70
     0
  9
$DIMSD1
 70
     0
  9
$DIMSD2
 70
     0
  9
$DIMTOLJ
 70
     0
  9
$DIMTZIN
 70
     0
  9
$DIMALTZ
 70
     0
  9
$DIMALTTZ
 70
     0
  9
$DIMUPT
 70
     0
  9
$DIMDEC
 70
     3
  9
$DIMTDEC
 70
     3
  9
$DIMALTU
 70
     2
  9
$DIMALTTD
 70
     3
  9
$DIMTXSTY
  7
Standard
  9
$DIMAUNIT
 70
     0
  9
$DIMADEC
 70
     2
  9
$DIMALTRND
 40
0.0
  9
$DIMAZIN
 70
     0
  9
$DIMDSEP
 70
    44
  9
$DIMATFIT
 70
     3
  9
$DIMFRAC
 70
     0
  9
$DIMLDRBLK
  1

  9
$DIMLUNIT
 70
     2
  9
$DIMLWD
 70
    -2
  9
$DIMLWE
 70
    -2
  9
$DIMTMOVE
 70
     0
  9
$LUNITS
 70
     2
  9
$LUPREC
 70
     2
  9
$SKETCHINC
 40
1.0
  9
$FILLETRAD
 40
10.0
  9
$AUNITS
 70
     0
  9
$AUPREC
 70
     2
  9
$MENU
  1
.
  9
$ELEVATION
 40
0.0
  9
$PELEVATION
 40
0.0
  9
$THICKNESS
 40
0.0
  9
$LIMCHECK
 70
     0
  9
$CHAMFERA
 40
10.0
  9
$CHAMFERB
 40
10.0
  9
$CHAMFERC
 40
20.0
  9
$CHAMFERD
 40
0.0
  9
$SKPOLY
 70
     0
  9
$TDCREATE
 40
2456194.547549595
  9
$TDUCREATE
 40
2456194.047549595
  9
$TDUPDATE
 40
2456194.547578611
  9
$TDUUPDATE
 40
2456194.047578611
  9
$TDINDWG
 40
0.0000000116
  9
$TDUSRTIMER
 40
0.0000000116
  9
$USRTIMER
 70
     1
  9
$ANGBASE
 50
0.0
  9
$ANGDIR
 70
     0
  9
$PDMODE
 70
     0
  9
$PDSIZE
 40
-1.0
  9
$PLINEWID
 40
0.0
  9
$SPLFRAME
 70
     0
  9
$SPLINETYPE
 70
     6
  9
$SPLINESEGS
 70
     8
  9
$HANDSEED
  5
12A
  9
$SURFTAB1
 70
     6
  9
$SURFTAB2
 70
     6
  9
$SURFTYPE
 70
     6
  9
$SURFU
 70
     6
  9
$SURFV
 70
     6
  9
$UCSBASE
  2

  9
$UCSNAME
  2

  9
$UCSORG
 10
0.0
 20
0.0
 30
0.0
  9
$UCSXDIR
 10
1.0
 20
0.0
 30
0.0
  9
$UCSYDIR
 10
0.0
 20
1.0
 30
0.0
  9
$UCSORTHOREF
  2

  9
$UCSORTHOVIEW
 70
     0
  9
$UCSORGTOP
 10
0.0
 20
0.0
 30
0.0
  9
$UCSORGBOTTOM
 10
0.0
 20
0.0
 30
0.0
  9
$UCSORGLEFT
 10
0.0
 20
0.0
 30
0.0
  9
$UCSORGRIGHT
 10
0.0
 20
0.0
 30
0.0
  9
$UCSORGFRONT
 10
0.0
 20
0.0
 30
0.0
  9
$UCSORGBACK
 10
0.0
 20
0.0
 30
0.0
  9
$PUCSBASE
  2

  9
$PUCSNAME
  2

  9
$PUCSORG
 10
0.0
 20
0.0
 30
0.0
  9
$PUCSXDIR
 10
1.0
 20
0.0
 30
0.0
  9
$PUCSYDIR
 10
0.0
 20
1.0
 30
0.0
  9
$PUCSORTHOREF
  2

  9
$PUCSORTHOVIEW
 70
     0
  9
$PUCSORGTOP
 10
0.0
 20
0.0
 30
0.0
  9
$PUCSORGBOTTOM
 10
0.0
 20
0.0
 30
0.0
  9
$PUCSORGLEFT
 10
0.0
 20
0.0
 30
0.0
  9
$PUCSORGRIGHT
 10
0.0
 20
0.0
 30
0.0
  9
$PUCSORGFRONT
 10
0.0
 20
0.0
 30
0.0
  9
$PUCSORGBACK
 10
0.0
 20
0.0
 30
0.0
  9
$USERI1
 70
     0
  9
$USERI2
 70
     0
  9
$USERI3
 70
     0
  9
$USERI4
 70
     0
  9
$USERI5
 70
     0
  9
$USERR1
 40
0.0
  9
$USERR2
 40
0.0
  9
$USERR3
 40
0.0
  9
$USERR4
 40
0.0
  9
$USERR5
 40
0.0
  9
$WORLDVIEW
 70
     1
  9
$SHADEDGE
 70
     3
  9
$SHADEDIF
 70
    70
  9
$TILEMODE
 70
     1
  9
$MAXACTVP
 70
    64
  9
$PINSBASE
 10
0.0
 20
0.0
 30
0.0
  9
$PLIMCHECK
 70
     0
  9
$PEXTMIN
 10
-5.5
 20
-5.4
 30
0.0
  9
$PEXTMAX
 10
5.5
 20
5.4
 30
0.0
  9
$PLIMMIN
 10
0.0
 20
0.0
  9
$PLIMMAX
 10
420.0
 20
297.0
  9
$UNITMODE
 70
     0
  9
$VISRETAIN
 70
     1
  9
$PLINEGEN
 70
     0
  9
$PSLTSCALE
 70
     1
  9
$TREEDEPTH
 70
  3020
  9
$CMLSTYLE
  2
Standard
  9
$CMLJUST
 70
     0
  9
$CMLSCALE
 40
20.0
  9
$PROXYGRAPHICS
 70
     1
  9
$MEASUREMENT
 70
     1
  9
$CELWEIGHT
370
    -1
  9
$ENDCAPS
280
     0
  9
$JOINSTYLE
280
     0
  9
$LWDISPLAY
290
     1
  9
$INSUNITS
 70
     4
  9
$HYPERLINKBASE
  1

  9
$STYLESHEET
  1

  9
$XEDIT
290
     1
  9
$CEPSNTYPE
380
     0
  9
$PSTYLEMODE
290
     1
  9
$FINGERPRINTGUID
  2
{000B0D04-7320-4678-BD3F-B2C211C0D797}
  9
$VERSIONGUID
  2
{FAEB1C32-E019-11D5-929B-00C0DF256EC4}
  9
$EXTNAMES
290
     1
  9
$PSVPSCALE
 40
0.0
  9
$OLESTARTUP
290
     0
  0
ENDSEC
  0
SECTION
  2
CLASSES
  0
CLASS
  1
ACDBDICTIONARYWDFLT
  2
AcDbDictionaryWithDefault
  3
ObjectDBX Classes
 90
        0
280
     0
281
     0
  0
CLASS
  1
VISUALSTYLE
  2
AcDbVisualStyle
  3
ObjectDBX Classes
 90
     4095
280
     0
281
     0
  0
CLASS
  1
MATERIAL
  2
AcDbMaterial
  3
ObjectDBX Classes
 90
     1153
280
     0
281
     0
  0
CLASS
  1
ACDBPLACEHOLDER
  2
AcDbPlaceHolder
  3
ObjectDBX Classes
 90
        0
280
     0
281
     0
  0
CLASS
  1
LAYOUT
  2
AcDbLayout
  3
ObjectDBX Classes
 90
        0
280
     0
281
     0
  0
ENDSEC
  0
SECTION
  2
TABLES
  0
TABLE
  2
VPORT
  5
8
330
0
100
AcDbSymbolTable
 70
     1
  0
VPORT
  5
29
330
8
100
AcDbSymbolTableRecord
100
AcDbViewportTableRecord
  2
*Active
 70
     0
 10
0.0
 20
0.0
 11
1.0
 21
1.0
 12
0.0
 22
0.0139192764
 13
0.0
 23
0.0
 14
10.0
 24
10.0
 15
10.0
 25
10.0
 16
0.0
 26
0.0
 36
1.0
 17
0.0
 27
0.0
 37
0.0
 40
13.8369931816
 41
1.0849331037
 42
50.0
 43
0.0
 44
0.0
 50
0.0
 51
0.0
 71
     0
 72
   100
 73
     1
 74
     3
 75
     0
 76
     0
 77
     0
 78
     0
281
     0
 65
     1
110
0.0
120
0.0
130
0.0
111
1.0
121
0.0
131
0.0
112
0.0
122
1.0
132
0.0
 79
     0
146
0.0
  0
ENDTAB
  0
TABLE
  2
LTYPE
  5
5
330
0
100
AcDbSymbolTable
 70
     6
  0
LTYPE
  5
14
330
5
100
AcDbSymbolTableRecord
100
AcDbLinetypeTableRecord
  2
ByBlock
 70
     0
  3

 72
    65
 73
     0
 40
0.0
  0
LTYPE
  5
15
330
5
100
AcDbSymbolTableRecord
100
AcDbLinetypeTableRecord
  2
ByLayer
 70
     0
  3

 72
    65
 73
     0
 40
0.0
  0
LTYPE
  5
16
330
5
100
AcDbSymbolTableRecord
100
AcDbLinetypeTableRecord
  2
Continuous
 70
     0
  3
Solid line
 72
    65
 73
     0
 40
0.0
  0
LTYPE
  5
3F
330
5
100
AcDbSymbolTableRecord
100
AcDbLinetypeTableRecord
  2
HIDDEN
 70
     0
  3
Hidden __ __ __ __ __ __ __ __ __ __ __ __ __ __
 72
    65
 73
     2
 40
1.905
 49
1.27
 74
     0
 49
-0.635
 74
     0
  0
LTYPE
  5
40
330
5
100
AcDbSymbolTableRecord
100
AcDbLinetypeTableRecord
  2
PHANTOM
 70
     0
  3
Phantom ______  __  __  ______  __  __  ______
 72
    65
 73
     6
 40
12.7
 49
6.35
 74
     0
 49
-1.27
 74
     0
 49
1.27
 74
     0
 49
-1.27
 74
     0
 49
1.27
 74
     0
 49
-1.27
 74
     0
  0
LTYPE
  5
41
330
5
100
AcDbSymbolTableRecord
100
AcDbLinetypeTableRecord
  2
CENTER
 70
     0
  3
Center ____ _ ____ _ ____ _ ____ _ ____ _ ____
 72
    65
 73
     4
 40
10.16
 49
6.35
 74
     0
 49
-1.27
 74
     0
 49
1.27
 74
     0
 49
-1.27
 74
     0
  0
LTYPE
  5
42
330
5
100
AcDbSymbolTableRecord
100
AcDbLinetypeTableRecord
  2
CENTERX2
 70
     0
  3
Center (2x) ________  __  ________  __  _____
 72
    65
 73
     4
 40
20.32
 49
12.7
 74
     0
 49
-2.54
 74
     0
 49
2.54
 74
     0
 49
-2.54
 74
     0
  0
LTYPE
  5
43
330
5
100
AcDbSymbolTableRecord
100
AcDbLinetypeTableRecord
  2
DOT2
 70
     0
  3
Dot (.5x) ........................................
 72
    65
 73
     2
 40
0.635
 49
0.0
 74
     0
 49
-0.635
 74
     0
  0
ENDTAB
  0
TABLE
  2
LAYER
  5
2
330
0
100
AcDbSymbolTable
 70
     1
  0
LAYER
  5
10
330
2
100
AcDbSymbolTableRecord
100
AcDbLayerTableRecord
  2
0
 70
     0
 62
     7
  6
Continuous
370
    -3
390
F
  0
ENDTAB
  0
TABLE
  2
STYLE
  5
3
330
0
100
AcDbSymbolTable
 70
     1
  0
STYLE
  5
11
330
3
100
AcDbSymbolTableRecord
100
AcDbTextStyleTableRecord
  2
Standard
 70
     0
 40
0.0
 41
1.0
 50
0.0
 71
     0
 42
3.5
  3
txt
  4

  0
ENDTAB
  0
TABLE
  2
VIEW
  5
6
330
0
100
AcDbSymbolTable
 70
     0
  0
ENDTAB
  0
TABLE
  2
UCS
  5
7
330
0
100
AcDbSymbolTable
 70
     0
  0
ENDTAB
  0
TABLE
  2
APPID
  5
9
330
0
100
AcDbSymbolTable
 70
     1
  0
APPID
  5
12
330
9
100
AcDbSymbolTableRecord
100
AcDbRegAppTableRecord
  2
ACAD
 70
     0
  0
ENDTAB
  0
TABLE
  2
DIMSTYLE
  5
A
330
0
100
AcDbSymbolTable
 70
     1
100
AcDbDimStyleTable
  0
DIMSTYLE
105
27
330
A
100
AcDbSymbolTableRecord
100
AcDbDimStyleTableRecord
  2
ISO-25
 70
     0
 41
2.5
 42
0.625
 43
3.75
 44
1.25
 73
     0
 74
     0
 77
     1
 78
     8
140
2.5
141
2.5
143
0.0393700787
147
0.625
171
     3
172
     1
178
     0
271
     2
272
     2
274
     3
278
    44
283
     0
284
     8
340
11
  0
ENDTAB
  0
TABLE
  2
BLOCK_RECORD
  5
1
330
0
100
AcDbSymbolTable
 70
     8
  0
BLOCK_RECORD
  5
1F
330
1
100
AcDbSymbolTableRecord
100
AcDbBlockTableRecord
  2
*Model_Space
340
22
  0
BLOCK_RECORD
  5
1B
330
1
100
AcDbSymbolTableRecord
100
AcDbBlockTableRecord
  2
*Paper_Space
340
1E
  0
BLOCK_RECORD
  5
23
330
1
100
AcDbSymbolTableRecord
100
AcDbBlockTableRecord
  2
*Paper_Space0
340
26
  0
BLOCK_RECORD
  5
7B
330
1
100
AcDbSymbolTableRecord
100
AcDbBlockTableRecord
  2
*Paper_Space1
340
7C
  0
BLOCK_RECORD
  5
93
330
1
100
AcDbSymbolTableRecord
100
AcDbBlockTableRecord
  2
*Paper_Space2
340
94
  0
BLOCK_RECORD
  5
B0
330
1
100
AcDbSymbolTableRecord
100
AcDbBlockTableRecord
  2
*Paper_Space3
340
B1
  0
BLOCK_RECORD
  5
B8
330
1
100
AcDbSymbolTableRecord
100
AcDbBlockTableRecord
  2
*Paper_Space4
340
B9
  0
BLOCK_RECORD
  5
D1
330
1
100
AcDbSymbolTableRecord
100
AcDbBlockTableRecord
  2
*Paper_Space5
340
D2
  0
BLOCK_RECORD
  5
EB
330
1
100
AcDbSymbolTableRecord
100
AcDbBlockTableRecord
  2
*Paper_Space6
340
EC
  0
BLOCK_RECORD
  5
106
330
1
100
AcDbSymbolTableRecord
100
AcDbBlockTableRecord
  2
*Paper_Space7
340
107
  0
ENDTAB
  0
ENDSEC
  0
SECTION
  2
BLOCKS
  0
BLOCK
  5
20
330
1F
100
AcDbEntity
  8
0
100
AcDbBlockBegin
  2
*Model_Space
 70
     0
 10
0.0
 20
0.0
 30
0.0
  3
*Model_Space
  1

  0
ENDBLK
  5
21
330
1F
100
AcDbEntity
  8
0
100
AcDbBlockEnd
  0
BLOCK
  5
1C
330
1B
100
AcDbEntity
 67
     1
  8
0
100
AcDbBlockBegin
  2
*Paper_Space
 70
     0
 10
0.0
 20
0.0
 30
0.0
  3
*Paper_Space
  1

  0
ENDBLK
  5
1D
330
1B
100
AcDbEntity
 67
     1
  8
0
100
AcDbBlockEnd
  0
BLOCK
  5
24
330
23
100
AcDbEntity
  8
0
100
AcDbBlockBegin
  2
*Paper_Space0
 70
     0
 10
0.0
 20
0.0
 30
0.0
  3
*Paper_Space0
  1

  0
CIRCLE
  5
77
330
23
100
AcDbEntity
  8
0
  6
Continuous
 62
     7
370
    15
100
AcDbCircle
 10
0.0
 20
0.0
 30
0.0
 40
2.999999999999994
  0
CIRCLE
  5
78
330
23
100
AcDbEntity
  8
0
  6
Continuous
 62
     7
370
    15
100
AcDbCircle
 10
0.0
 20
0.0
 30
0.0
 40
4.900000000008728
  0
CIRCLE
  5
79
330
23
100
AcDbEntity
  8
0
  6
Continuous
 62
     7
370
    15
100
AcDbCircle
 10
0.0
 20
0.0
 30
0.0
 40
5.400000000004365
  0
CIRCLE
  5
7A
330
23
100
AcDbEntity
  8
0
  6
Continuous
 62
     7
370
    15
100
AcDbCircle
 10
0.0
 20
0.0
 30
0.0
 40
2.500000000000002
  0
VIEWPORT
  5
122
330
23
100
AcDbEntity
  8
0
100
AcDbViewport
 10
0.0
 20
0.0
 30
0.0
 40
243.84
 41
204.216
 68
     1
 69
     1
 12
0.0
 22
0.0139192764
 13
0.0
 23
0.0
 14
10.0
 24
10.0
 15
10.0
 25
10.0
 16
0.0
 26
0.0
 36
1.0
 17
0.0
 27
0.0
 37
0.0
 42
50.0
 43
0.0
 44
0.0
 45
13.8369931816
 50
0.0
 51
0.0
 72
   100
 90
   557152
  1

281
     0
 71
     1
 74
     0
110
0.0
120
0.0
130
0.0
111
1.0
121
0.0
131
0.0
112
0.0
122
1.0
132
0.0
 79
     0
146
0.0
  0
ENDBLK
  5
25
330
23
100
AcDbEntity
  8
0
100
AcDbBlockEnd
  0
BLOCK
  5
7D
330
7B
100
AcDbEntity
  8
0
100
AcDbBlockBegin
  2
*Paper_Space1
 70
     0
 10
0.0
 20
0.0
 30
0.0
  3
*Paper_Space1
  1

  0
LINE
  5
89
330
7B
100
AcDbEntity
  8
0
  6
Continuous
 62
     7
370
    15
100
AcDbLine
 10
5.0
 20
-5.4
 30
0.0
 11
5.5
 21
-4.9
 31
0.0
  0
LINE
  5
8A
330
7B
100
AcDbEntity
  8
0
  6
Continuous
 62
     7
370
    15
100
AcDbLine
 10
5.5
 20
4.9
 30
0.0
 11
5.0
 21
5.4
 31
0.0
  0
LINE
  5
8B
330
7B
100
AcDbEntity
  8
0
  6
Continuous
 62
     7
370
    15
100
AcDbLine
 10
-5.0
 20
5.4
 30
0.0
 11
-5.5
 21
4.9
 31
0.0
  0
LINE
  5
8C
330
7B
100
AcDbEntity
  8
0
  6
Continuous
 62
     7
370
    15
100
AcDbLine
 10
-5.5
 20
-4.9
 30
0.0
 11
-5.0
 21
-5.4
 31
0.0
  0
LINE
  5
8D
330
7B
100
AcDbEntity
  8
0
  6
Continuous
 62
     7
370
    15
100
AcDbLine
 10
5.0
 20
5.4
 30
0.0
 11
-5.0
 21
5.4
 31
0.0
  0
LINE
  5
8E
330
7B
100
AcDbEntity
  8
0
  6
Continuous
 62
     7
370
    15
100
AcDbLine
 10
-5.0
 20
-5.4
 30
0.0
 11
5.0
 21
-5.4
 31
0.0
  0
LINE
  5
8F
330
7B
100
AcDbEntity
  8
0
  6
Continuous
 62
     7
370
    15
100
AcDbLine
 10
5.5
 20
4.9
 30
0.0
 11
5.5
 21
-4.9
 31
0.0
  0
LINE
  5
90
330
7B
100
AcDbEntity
  8
0
  6
Continuous
 62
     7
370
    15
100
AcDbLine
 10
5.0
 20
-5.4
 30
0.0
 11
5.0
 21
5.4
 31
0.0
  0
LINE
  5
91
330
7B
100
AcDbEntity
  8
0
  6
Continuous
 62
     7
370
    15
100
AcDbLine
 10
-5.0
 20
5.4
 30
0.0
 11
-5.0
 21
-5.4
 31
0.0
  0
LINE
  5
92
330
7B
100
AcDbEntity
  8
0
  6
Continuous
 62
     7
370
    15
100
AcDbLine
 10
-5.5
 20
-4.9
 30
0.0
 11
-5.5
 21
4.9
 31
0.0
  0
VIEWPORT
  5
123
330
7B
100
AcDbEntity
  8
0
100
AcDbViewport
 10
0.0
 20
0.0
 30
0.0
 40
243.84
 41
204.216
 68
     1
 69
     1
 12
0.0
 22
0.0139192764
 13
0.0
 23
0.0
 14
10.0
 24
10.0
 15
10.0
 25
10.0
 16
0.0
 26
0.0
 36
1.0
 17
0.0
 27
0.0
 37
0.0
 42
50.0
 43
0.0
 44
0.0
 45
13.8369931816
 50
0.0
 51
0.0
 72
   100
 90
   557152
  1

281
     0
 71
     1
 74
     0
110
0.0
120
0.0
130
0.0
111
1.0
121
0.0
131
0.0
112
0.0
122
1.0
132
0.0
 79
     0
146
0.0
  0
ENDBLK
  5
7E
330
7B
100
AcDbEntity
  8
0
100
AcDbBlockEnd
  0
BLOCK
  5
95
330
93
100
AcDbEntity
  8
0
100
AcDbBlockBegin
  2
*Paper_Space2
 70
     0
 10
0.0
 20
0.0
 30
0.0
  3
*Paper_Space2
  1

  0
SPLINE
  5
A4
330
93
100
AcDbEntity
  8
0
  6
Continuous
 62
     7
370
    15
100
AcDbSpline
210
0.0
220
0.0
230
1.0
 70
     8
 71
     3
 72
    27
 73
    23
 74
     0
 42
0.00000001
 43
0.00000001
 12
1.0
 22
0.0
 32
0.0
 13
1.0
 23
0.0
 33
0.0
 40
0.0
 40
0.0
 40
0.0
 40
0.0
 40
0.0309454247340834
 40
0.081838359793486
 40
0.1341802527777947
 40
0.1856478586660376
 40
0.2385155397165146
 40
0.2916662788054357
 40
0.3463333131175295
 40
0.399798342965526
 40
0.4549146450469742
 40
0.5066582238431011
 40
0.5599703335436952
 40
0.6106758758338783
 40
0.662788902163211
 40
0.7147121919707385
 40
0.7680505134846414
 40
0.8215670560964379
 40
0.8766554795783671
 40
0.929708636853916
 40
0.9844054859097506
 40
1.0
 40
1.0
 40
1.0
 40
1.0
 10
4.24469867588808
 20
-5.398530030485196
 30
0.0
 10
4.245399878647827
 20
-5.398723337229656
 30
0.0
 10
4.247254281495207
 20
-5.399234556805392
 30
0.0
 10
4.204882063235646
 20
-5.387528918740237
 30
0.0
 10
4.124783425414742
 20
-5.366283753669991
 30
0.0
 10
4.005458238169827
 20
-5.336704280317977
 30
0.0
 10
3.852707927822971
 20
-5.302529576664769
 30
0.0
 10
3.666316967504873
 20
-5.266552386474326
 30
0.0
 10
3.452955211807617
 20
-5.233300415154337
 30
0.0
 10
3.216040652907107
 20
-5.206477202988356
 30
0.0
 10
2.969033575562563
 20
-5.190076629321903
 30
0.0
 10
2.715785681741997
 20
-5.185589214396981
 30
0.0
 10
2.470386545888112
 20
-5.193130910324747
 30
0.0
 10
2.232695182974903
 20
-5.21155734239494
 30
0.0
 10
2.011327885263908
 20
-5.238387829491608
 30
0.0
 10
1.806624022018138
 20
-5.27142241150771
 30
0.0
 10
1.625846887994465
 20
-5.307057107157682
 30
0.0
 10
1.473129473926754
 20
-5.34177386796661
 30
0.0
 10
1.355970764312112
 20
-5.371273742166669
 30
0.0
 10
1.281020737586404
 20
-5.391374673208438
 30
0.0
 10
1.247651784235617
 20
-5.400650707512225
 30
0.0
 10
1.252979108613717
 20
-5.399174278605731
 30
0.0
 10
1.254161003961299
 20
-5.398846724972466
 30
0.0
  0
LINE
  5
A5
330
93
100
AcDbEntity
  8
0
  6
Continuous
 62
     7
370
    15
100
AcDbLine
 10
-5.0
 20
5.4
 30
0.0
 11
-5.5
 21
4.9
 31
0.0
  0
LINE
  5
A6
330
93
100
AcDbEntity
  8
0
  6
Continuous
 62
     7
370
    15
100
AcDbLine
 10
-5.5
 20
-4.9
 30
0.0
 11
-5.0
 21
-5.4
 31
0.0
  0
LINE
  5
A7
330
93
100
AcDbEntity
  8
0
  6
Continuous
 62
     7
370
    15
100
AcDbLine
 10
5.0
 20
-5.4
 30
0.0
 11
5.5
 21
-4.9
 31
0.0
  0
LINE
  5
A8
330
93
100
AcDbEntity
  8
0
  6
Continuous
 62
     7
370
    15
100
AcDbLine
 10
5.5
 20
4.9
 30
0.0
 11
5.0
 21
5.4
 31
0.0
  0
LINE
  5
A9
330
93
100
AcDbEntity
  8
0
  6
Continuous
 62
     7
370
    15
100
AcDbLine
 10
4.2446986759
 20
-5.4
 30
0.0
 11
5.0
 21
-5.4
 31
0.0
  0
LINE
  5
AA
330
93
100
AcDbEntity
  8
0
  6
Continuous
 62
     7
370
    15
100
AcDbLine
 10
-5.0
 20
-5.4
 30
0.0
 11
1.254161004
 21
-5.4
 31
0.0
  0
LINE
  5
AB
330
93
100
AcDbEntity
  8
0
  6
Continuous
 62
     7
370
    15
100
AcDbLine
 10
5.0
 20
5.4
 30
0.0
 11
-5.0
 21
5.4
 31
0.0
  0
LINE
  5
AC
330
93
100
AcDbEntity
  8
0
  6
Continuous
 62
     7
370
    15
100
AcDbLine
 10
-5.5
 20
-4.9
 30
0.0
 11
-5.5
 21
4.9
 31
0.0
  0
LINE
  5
AD
330
93
100
AcDbEntity
  8
0
  6
Continuous
 62
     7
370
    15
100
AcDbLine
 10
-5.0
 20
5.4
 30
0.0
 11
-5.0
 21
-5.4
 31
0.0
  0
LINE
  5
AE
330
93
100
AcDbEntity
  8
0
  6
Continuous
 62
     7
370
    15
100
AcDbLine
 10
5.0
 20
-5.4
 30
0.0
 11
5.0
 21
5.4
 31
0.0
  0
LINE
  5
AF
330
93
100
AcDbEntity
  8
0
  6
Continuous
 62
     7
370
    15
100
AcDbLine
 10
5.5
 20
4.9
 30
0.0
 11
5.5
 21
-4.9
 31
0.0
  0
VIEWPORT
  5
124
330
93
100
AcDbEntity
  8
0
100
AcDbViewport
 10
0.0
 20
0.0
 30
0.0
 40
243.84
 41
204.216
 68
     1
 69
     1
 12
0.0
 22
0.0139192764
 13
0.0
 23
0.0
 14
10.0
 24
10.0
 15
10.0
 25
10.0
 16
0.0
 26
0.0
 36
1.0
 17
0.0
 27
0.0
 37
0.0
 42
50.0
 43
0.0
 44
0.0
 45
13.8369931816
 50
0.0
 51
0.0
 72
   100
 90
   557152
  1

281
     0
 71
     1
 74
     0
110
0.0
120
0.0
130
0.0
111
1.0
121
0.0
131
0.0
112
0.0
122
1.0
132
0.0
 79
     0
146
0.0
  0
ENDBLK
  5
96
330
93
100
AcDbEntity
  8
0
100
AcDbBlockEnd
  0
BLOCK
  5
B2
330
B0
100
AcDbEntity
  8
0
100
AcDbBlockBegin
  2
*Paper_Space3
 70
     0
 10
0.0
 20
0.0
 30
0.0
  3
*Paper_Space3
  1

  0
CIRCLE
  5
B4
330
B0
100
AcDbEntity
  8
0
  6
Continuous
 62
     7
370
    15
100
AcDbCircle
 10
0.0
 20
0.0
 30
0.0
 40
2.500000000000002
  0
CIRCLE
  5
B5
330
B0
100
AcDbEntity
  8
0
  6
Continuous
 62
     7
370
    15
100
AcDbCircle
 10
0.0
 20
0.0
 30
0.0
 40
3.000000000000009
  0
CIRCLE
  5
B6
330
B0
100
AcDbEntity
  8
0
  6
Continuous
 62
     7
370
    15
100
AcDbCircle
 10
0.0
 20
0.0
 30
0.0
 40
4.900000000000007
  0
CIRCLE
  5
B7
330
B0
100
AcDbEntity
  8
0
  6
Continuous
 62
     7
370
    15
100
AcDbCircle
 10
0.0
 20
0.0
 30
0.0
 40
5.400000000004365
  0
VIEWPORT
  5
125
330
B0
100
AcDbEntity
  8
0
100
AcDbViewport
 10
0.0
 20
0.0
 30
0.0
 40
243.84
 41
204.216
 68
     1
 69
     1
 12
0.0
 22
0.0139192764
 13
0.0
 23
0.0
 14
10.0
 24
10.0
 15
10.0
 25
10.0
 16
0.0
 26
0.0
 36
1.0
 17
0.0
 27
0.0
 37
0.0
 42
50.0
 43
0.0
 44
0.0
 45
13.8369931816
 50
0.0
 51
0.0
 72
   100
 90
   557152
  1

281
     0
 71
     1
 74
     0
110
0.0
120
0.0
130
0.0
111
1.0
121
0.0
131
0.0
112
0.0
122
1.0
132
0.0
 79
     0
146
0.0
  0
ENDBLK
  5
B3
330
B0
100
AcDbEntity
  8
0
100
AcDbBlockEnd
  0
BLOCK
  5
BA
330
B8
100
AcDbEntity
  8
0
100
AcDbBlockBegin
  2
*Paper_Space4
 70
     0
 10
0.0
 20
0.0
 30
0.0
  3
*Paper_Space4
  1

  0
SPLINE
  5
C6
330
B8
100
AcDbEntity
  8
0
  6
Continuous
 62
     7
370
    15
100
AcDbSpline
210
0.0
220
0.0
230
1.0
 70
     8
 71
     3
 72
    56
 73
    52
 74
     0
 42
0.00000001
 43
0.00000001
 12
1.0
 22
0.0
 32
0.0
 13
1.0
 23
0.0
 33
0.0
 40
-0.03125
 40
-0.03125
 40
0.0
 40
0.0
 40
0.03125
 40
0.03125
 40
0.0625000000000001
 40
0.0625000000000001
 40
0.0937500000000001
 40
0.0937500000000001
 40
0.1250000000000002
 40
0.1250000000000002
 40
0.1875000000000002
 40
0.1875000000000002
 40
0.2500000000000003
 40
0.2500000000000003
 40
0.2812500000000003
 40
0.2812500000000003
 40
0.3125000000000003
 40
0.3125000000000003
 40
0.3750000000000004
 40
0.3750000000000004
 40
0.4062500000000005
 40
0.4062500000000005
 40
0.4375000000000006
 40
0.4375000000000006
 40
0.4687500000000007
 40
0.4687500000000007
 40
0.5000000000000008
 40
0.5000000000000008
 40
0.5625000000000008
 40
0.5625000000000008
 40
0.5937500000000007
 40
0.5937500000000007
 40
0.6250000000000006
 40
0.6250000000000006
 40
0.6562500000000006
 40
0.6562500000000006
 40
0.6875000000000004
 40
0.6875000000000004
 40
0.7500000000000003
 40
0.7500000000000003
 40
0.7812500000000002
 40
0.7812500000000002
 40
0.8125000000000002
 40
0.8125000000000002
 40
0.875
 40
0.875
 40
0.9374999999999999
 40
0.9374999999999999
 40
0.96875
 40
0.96875
 40
1.0
 40
1.0
 40
1.03125
 40
1.03125
 10
-2.650373708638299
 20
1.5
 30
0.0
 10
-2.849626291361695
 20
1.500000000000001
 30
0.0
 10
-2.947484329707934
 20
1.490174150341269
 30
0.0
 10
-3.139842112653028
 20
1.45177208473911
 30
0.0
 10
-3.235363434636895
 20
1.422698334318256
 30
0.0
 10
-3.416749735665362
 20
1.347253875164081
 30
0.0
 10
-3.502700680212018
 20
1.301159922309068
 30
0.0
 10
-3.665367184852314
 20
1.192341551029119
 30
0.0
 10
-3.741976381929603
 20
1.129359029667652
 30
0.0
 10
-3.948376434858742
 20
0.9229137344125384
 30
0.0
 10
-4.059977412009336
 20
0.756367550363652
 30
0.0
 10
-4.209966622554634
 20
0.3957652741767481
 30
0.0
 10
-4.249873855875673
 20
0.1977159521735686
 30
0.0
 10
-4.250062611897966
 20
-0.0974189699528036
 30
0.0
 10
-4.240203683451435
 20
-0.1973706383688752
 30
0.0
 10
-4.201702469360033
 20
-0.3901565423215938
 30
0.0
 10
-4.173221091685167
 20
-0.4839179508518201
 30
0.0
 10
-4.059747001312631
 20
-0.7572992991210097
 30
0.0
 10
-3.949263065893013
 20
-0.9220811541964609
 30
0.0
 10
-3.741221715610628
 20
-1.130086677886696
 30
0.0
 10
-3.666031541919517
 20
-1.191804328188067
 30
0.0
 10
-3.503995840239565
 20
-1.300385179622058
 30
0.0
 10
-3.416171814710886
 20
-1.347517959529138
 30
0.0
 10
-3.235321072878719
 20
-1.422692164239551
 30
0.0
 10
-3.141809776015336
 20
-1.451279808746226
 30
0.0
 10
-2.94840393922552
 20
-1.49008854124695
 30
0.0
 10
-2.84883305898382
 20
-1.499957392668233
 30
0.0
 10
-2.554280238453094
 20
-1.500084793740925
 30
0.0
 10
-2.355990446191453
 20
-1.46049834024097
 30
0.0
 10
-2.084844747632319
 20
-1.348014548449849
 30
0.0
 10
-1.997066417204739
 20
-1.30101964613507
 30
0.0
 10
-1.834536279670937
 20
-1.19226141281667
 30
0.0
 10
-1.75932236637621
 20
-1.130544472350042
 30
0.0
 10
-1.620855781482693
 20
-0.9922733048473136
 30
0.0
 10
-1.557983053440673
 20
-0.9157396332421646
 30
0.0
 10
-1.449584878931408
 20
-0.7539257189347457
 30
0.0
 10
-1.403271780614205
 20
-0.6679288218554542
 30
0.0
 10
-1.289094716752117
 20
-0.3936737039724672
 30
0.0
 10
-1.250077439618492
 20
-0.1983908875864706
 30
0.0
 10
-1.249961452108218
 20
0.0983158822033204
 30
0.0
 10
-1.259610039585515
 20
0.1960124052766841
 30
0.0
 10
-1.297990487066554
 20
0.3890391644518814
 30
0.0
 10
-1.327128917212744
 20
0.4847929028039889
 30
0.0
 10
-1.439767422438275
 20
0.7560659363184666
 30
0.0
 10
-1.551334924935663
 20
0.9225266464992272
 30
0.0
 10
-1.826355102619164
 20
1.197803606282117
 30
0.0
 10
-1.992448106190533
 20
1.309360627566056
 30
0.0
 10
-2.263462354474566
 20
1.422272354612574
 30
0.0
 10
-2.359172091689492
 20
1.451533855660326
 30
0.0
 10
-2.552291627028571
 20
1.49017058999951
 30
0.0
 10
-2.650373708638299
 20
1.5
 30
0.0
 10
-2.849626291361695
 20
1.500000000000001
 30
0.0
  0
LINE
  5
C7
330
B8
100
AcDbEntity
  8
0
  6
Continuous
 62
     7
370
    15
100
AcDbLine
 10
-5.0
 20
5.4
 30
0.0
 11
-5.5
 21
4.9
 31
0.0
  0
LINE
  5
C8
330
B8
100
AcDbEntity
  8
0
  6
Continuous
 62
     7
370
    15
100
AcDbLine
 10
-5.5
 20
-4.9
 30
0.0
 11
-5.0
 21
-5.4
 31
0.0
  0
LINE
  5
C9
330
B8
100
AcDbEntity
  8
0
  6
Continuous
 62
     7
370
    15
100
AcDbLine
 10
5.0
 20
-5.4
 30
0.0
 11
5.5
 21
-4.9
 31
0.0
  0
LINE
  5
CA
330
B8
100
AcDbEntity
  8
0
  6
Continuous
 62
     7
370
    15
100
AcDbLine
 10
5.5
 20
4.9
 30
0.0
 11
5.0
 21
5.4
 31
0.0
  0
LINE
  5
CB
330
B8
100
AcDbEntity
  8
0
  6
Continuous
 62
     7
370
    15
100
AcDbLine
 10
5.0
 20
5.4
 30
0.0
 11
-5.0
 21
5.4
 31
0.0
  0
LINE
  5
CC
330
B8
100
AcDbEntity
  8
0
  6
Continuous
 62
     7
370
    15
100
AcDbLine
 10
-5.0
 20
-5.4
 30
0.0
 11
5.0
 21
-5.4
 31
0.0
  0
LINE
  5
CD
330
B8
100
AcDbEntity
  8
0
  6
Continuous
 62
     7
370
    15
100
AcDbLine
 10
-5.0
 20
5.4
 30
0.0
 11
-5.0
 21
-5.4
 31
0.0
  0
LINE
  5
CE
330
B8
100
AcDbEntity
  8
0
  6
Continuous
 62
     7
370
    15
100
AcDbLine
 10
-5.5
 20
-4.9
 30
0.0
 11
-5.5
 21
4.9
 31
0.0
  0
LINE
  5
CF
330
B8
100
AcDbEntity
  8
0
  6
Continuous
 62
     7
370
    15
100
AcDbLine
 10
5.5
 20
4.9
 30
0.0
 11
5.5
 21
-4.9
 31
0.0
  0
LINE
  5
D0
330
B8
100
AcDbEntity
  8
0
  6
Continuous
 62
     7
370
    15
100
AcDbLine
 10
5.0
 20
-5.4
 30
0.0
 11
5.0
 21
5.4
 31
0.0
  0
VIEWPORT
  5
126
330
B8
100
AcDbEntity
  8
0
100
AcDbViewport
 10
0.0
 20
0.0
 30
0.0
 40
243.84
 41
204.216
 68
     1
 69
     1
 12
0.0
 22
0.0139192764
 13
0.0
 23
0.0
 14
10.0
 24
10.0
 15
10.0
 25
10.0
 16
0.0
 26
0.0
 36
1.0
 17
0.0
 27
0.0
 37
0.0
 42
50.0
 43
0.0
 44
0.0
 45
13.8369931816
 50
0.0
 51
0.0
 72
   100
 90
   557152
  1

281
     0
 71
     1
 74
     0
110
0.0
120
0.0
130
0.0
111
1.0
121
0.0
131
0.0
112
0.0
122
1.0
132
0.0
 79
     0
146
0.0
  0
ENDBLK
  5
BB
330
B8
100
AcDbEntity
  8
0
100
AcDbBlockEnd
  0
BLOCK
  5
D3
330
D1
100
AcDbEntity
  8
0
100
AcDbBlockBegin
  2
*Paper_Space5
 70
     0
 10
0.0
 20
0.0
 30
0.0
  3
*Paper_Space5
  1

  0
LWPOLYLINE
  5
DB
330
D1
100
AcDbEntity
  8
0
  6
Continuous
 62
     7
370
    15
100
AcDbPolyline
 90
      123
 70
   128
 43
0.0
 10
7.3539105243
 20
-0.2449224335
 10
7.3493164802
 20
-0.0416054481
 10
7.3355465303
 20
0.1558682067
 10
7.31263719
 20
0.3469748663
 10
7.2806492109
 20
0.5312077502
 10
7.2396674193
 20
0.7080783058
 10
7.1898004916
 20
0.8771175044
 10
7.1311806658
 20
1.0378770842
 10
7.0639633912
 20
1.1899307398
 10
6.988326916
 20
1.3328752523
 10
6.9044718145
 20
1.4663315585
 10
6.8126204553
 20
1.5899457562
 10
6.7130164117
 20
1.7033900428
 10
6.6059238157
 20
1.8063635845
 10
6.4916266578
 20
1.898593314
 10
6.3704280332
 20
1.9798346545
 10
6.2426493392
 20
2.0498721687
 10
6.1086294217
 20
2.1085201297
 10
5.9687236774
 20
2.1556230136
 10
5.8233031114
 20
2.1910559119
 10
5.6727533527
 20
2.2147248632
 10
5.5174736323
 20
2.2265671015
 10
5.3578757241
 20
2.2265512233
 10
5.194382853
 20
2.2146772709
 10
5.0274285727
 20
2.1909767317
 10
4.857455616
 20
2.1555124553
 10
4.6849147206
 20
2.1083784866
 10
4.510263434
 20
2.0496998164
 10
4.3339648999
 20
1.97963205
 10
4.1564866303
 20
1.8983609946
 10
3.9782992658
 20
1.8061021663
 10
3.7998753272
 20
1.703100219
 10
3.6216879627
 20
1.5896282954
 10
3.4442096932
 20
1.4659873025
 10
3.2679111591
 20
1.332505114
 10
3.0932598724
 20
1.1895357008
 10
2.9207189771
 20
1.037458192
 10
2.7507460204
 20
0.8766758699
 10
2.5837917401
 20
0.7076151001
 10
2.420298869
 20
0.5307242016
 10
2.2607009608
 20
0.3464722572
 10
2.1054212403
 20
0.1553478698
 10
1.9548714817
 20
-0.0421421329
 10
1.8094509156
 20
-0.2454740431
 10
1.6695451714
 20
-0.4541086609
 10
1.5355252539
 20
-0.667492725
 10
1.4077465598
 20
-0.8850603791
 10
1.2865479353
 20
-1.1062346729
 10
1.1722507773
 20
-1.330429092
 10
1.0651581814
 20
-1.5570491131
 10
0.9655541378
 20
-1.7854937806
 10
0.8737027786
 20
-2.0151573004
 10
0.789847677
 20
-2.245430646
 10
0.7142112018
 20
-2.4757031739
 10
0.6469939273
 20
-2.7053642428
 10
0.5883741015
 20
-2.9338048329
 10
0.5385071737
 20
-3.1604191607
 10
0.4975253821
 20
-3.3846062857
 10
0.465537403
 20
-3.6057717042
 10
0.4426280628
 20
-3.823328925
 10
0.4288581129
 20
-4.0367010256
 10
0.4242640687
 20
-4.2453221815
 10
0.4288581129
 20
-4.4486391669
 10
0.4426280628
 20
-4.6461128217
 10
0.465537403
 20
-4.8372194813
 10
0.4975253821
 20
-5.0214523652
 10
0.5385071737
 20
-5.1983229209
 10
0.5883741015
 20
-5.3673621194
 10
0.6469939273
 20
-5.5281216992
 10
0.7142112018
 20
-5.6801753549
 10
0.789847677
 20
-5.8231198673
 10
0.8737027786
 20
-5.9565761735
 10
0.9655541378
 20
-6.0801903712
 10
1.0651581814
 20
-6.1936346579
 10
1.1722507773
 20
-6.2966081996
 10
1.2865479353
 20
-6.388837929
 10
1.4077465598
 20
-6.4700792696
 10
1.5355252539
 20
-6.5401167838
 10
1.6695451714
 20
-6.5987647447
 10
1.8094509156
 20
-6.6458676286
 10
1.9548714817
 20
-6.681300527
 10
2.1054212403
 20
-6.7049694782
 10
2.2607009608
 20
-6.7168117165
 10
2.420298869
 20
-6.7167958384
 10
2.5837917401
 20
-6.7049218859
 10
2.7507460204
 20
-6.6812213467
 10
2.9207189771
 20
-6.6457570703
 10
3.0932598724
 20
-6.5986231016
 10
3.2679111591
 20
-6.5399444314
 10
3.4442096932
 20
-6.4698766651
 10
3.6216879627
 20
-6.3886056096
 10
3.7998753272
 20
-6.2963467814
 10
3.9782992658
 20
-6.1933448341
 10
4.1564866303
 20
-6.0798729104
 10
4.3339648999
 20
-5.9562319175
 10
4.510263434
 20
-5.8227497291
 10
4.6849147206
 20
-5.6797803159
 10
4.857455616
 20
-5.5277028071
 10
5.0274285727
 20
-5.3669204849
 10
5.194382853
 20
-5.1978597152
 10
5.3578757241
 20
-5.0209688166
 10
5.5174736323
 20
-4.8367168722
 10
5.6727533527
 20
-4.6455924848
 10
5.8233031114
 20
-4.4481024821
 10
5.9687236774
 20
-4.244770572
 10
6.1086294217
 20
-4.0361359541
 10
6.2426493392
 20
-3.8227518901
 10
6.3704280332
 20
-3.6051842359
 10
6.4916266578
 20
-3.3840099421
 10
6.6059238157
 20
-3.159815523
 10
6.7130164117
 20
-2.9331955019
 10
6.8126204553
 20
-2.7047508344
 10
6.9044718145
 20
-2.4750873147
 10
6.988326916
 20
-2.2448139691
 10
7.0639633912
 20
-2.0145414411
 10
7.1311806658
 20
-1.7848803722
 10
7.1898004916
 20
-1.5564397822
 10
7.2396674193
 20
-1.3298254544
 10
7.2806492109
 20
-1.1056383293
 10
7.31263719
 20
-0.8844729109
 10
7.3355465303
 20
-0.66691569
 10
7.3493164802
 20
-0.4535435894
 10
7.3539105243
 20
-0.2449224335
  0
LWPOLYLINE
  5
DC
330
D1
100
AcDbEntity
  8
0
  6
Continuous
 62
     7
370
    15
100
AcDbPolyline
 90
       99
 70
   128
 43
0.0
 10
3.5361544995
 20
-6.4499823445
 10
3.5355339059
 20
-6.4503406637
 10
3.3481750456
 20
-6.5531894121
 10
3.1612675491
 20
-6.6451679498
 10
2.9752616931
 20
-6.7260546924
 10
2.7906055819
 20
-6.7956547768
 10
2.6077440682
 20
-6.8538005303
 10
2.4271176816
 20
-6.9003518745
 10
2.2491615668
 20
-6.9351966633
 10
2.0743044355
 20
-6.9582509526
 10
1.9029675341
 20
-6.9694592024
 10
1.735563628
 20
-6.9687944112
 10
1.572496008
 20
-6.9562581805
 10
1.4141575183
 20
-6.9318807112
 10
1.2609296101
 20
-6.8957207307
 10
1.1131814228
 20
-6.8478653516
 10
0.9712688949
 20
-6.7884298617
 10
0.8355339059
 20
-6.7175574463
 10
0.7063034535
 20
-6.6354188432
 10
0.583888865
 20
-6.5422119316
 10
0.468585048
 20
-6.438161255
 10
0.3606697794
 20
-6.3235174806
 10
0.2604030366
 20
-6.1985567954
 10
0.1680263709
 20
-6.0635802406
 10
0.0837623258
 20
-5.9189129865
 10
0.0078139008
 20
-5.7649035492
 10
-0.0596359378
 20
-5.601922951
 10
-0.1184246972
 20
-5.4303638263
 10
-0.1684107504
 20
-5.2506394761
 10
-0.2094736764
 20
-5.0631828721
 10
-0.2415145512
 20
-4.8684456138
 10
-0.2644561854
 20
-4.6668968402
 10
-0.2782433106
 20
-4.4590220999
 10
-0.2828427125
 20
-4.2453221815
 10
-0.2782433106
 20
-4.0263119067
 10
-0.2644561854
 20
-3.8025188905
 10
-0.2415145512
 20
-3.5744822698
 10
-0.2094736764
 20
-3.3427514049
 10
-0.1684107504
 20
-3.1078845557
 10
-0.1184246972
 20
-2.870447537
 10
-0.0596359378
 20
-2.6310123554
 10
0.0078139008
 20
-2.3901558312
 10
0.0837623258
 20
-2.1484582089
 10
0.1680263709
 20
-1.9065017592
 10
0.2604030366
 20
-1.6648693764
 10
0.3606697794
 20
-1.424143174
 10
0.468585048
 20
-1.1849030827
 10
0.583888865
 20
-0.9477254527
 10
0.7063034535
 20
-0.7131816656
 10
0.8355339059
 20
-0.4818367581
 10
0.9712688949
 20
-0.2542480603
 10
1.1131814228
 20
-0.0309638532
 10
1.2609296101
 20
0.1874779519
 10
1.4141575183
 20
0.4005511095
 10
1.572496008
 20
0.6077423078
 10
1.735563628
 20
0.808552405
 10
1.9029675341
 20
1.0024976321
 10
2.0743044355
 20
1.1891107579
 10
2.2491615668
 20
1.3679422151
 10
2.4271176816
 20
1.5385611831
 10
2.6077440682
 20
1.7005566258
 10
2.7906055819
 20
1.853538282
 10
2.9752616931
 20
1.9971376055
 10
3.1612675491
 20
2.1310086529
 10
3.3481750456
 20
2.2548289173
 10
3.5355339059
 20
2.3683001046
 10
3.7228927663
 20
2.471148853
 10
3.9098002628
 20
2.5631273906
 10
4.0958061188
 20
2.6440141333
 10
4.28046223
 20
2.7136142177
 10
4.4633237436
 20
2.7717599711
 10
4.6439501302
 20
2.8183113154
 10
4.8219062451
 20
2.8531561042
 10
4.9967633763
 20
2.8762103935
 10
5.1681002778
 20
2.8874186433
 10
5.3355041838
 20
2.8867538521
 10
5.4985718038
 20
2.8742176214
 10
5.6569102936
 20
2.8498401521
 10
5.8101382018
 20
2.8136801716
 10
5.9578863891
 20
2.7658247925
 10
6.099798917
 20
2.7063893026
 10
6.2355339059
 20
2.6355168872
 10
6.3647643584
 20
2.5533782841
 10
6.4871789468
 20
2.4601713725
 10
6.6024827639
 20
2.3561206959
 10
6.7103980325
 20
2.2414769215
 10
6.8106647753
 20
2.1165162363
 10
6.903041441
 20
1.9815396815
 10
6.9873054861
 20
1.8368724274
 10
7.0632539111
 20
1.6828629901
 10
7.1307037496
 20
1.5198823919
 10
7.1894925091
 20
1.3483232672
 10
7.2394785623
 20
1.168598917
 10
7.2805414883
 20
0.981142313
 10
7.3125823631
 20
0.7864050547
 10
7.3355239973
 20
0.5848562811
 10
7.3493111225
 20
0.3769815408
 10
7.3539105243
 20
0.1632816224
 10
7.3539105243
 20
0.1632816224
  0
LWPOLYLINE
  5
DE
330
D1
100
AcDbEntity
  8
0
  6
Continuous
 62
     7
370
    15
100
AcDbPolyline
 90
       49
 70
   128
 43
0.0
 10
-0.8357533278
 20
6.7176841364
 10
-0.9712688949
 20
6.7884298617
 10
-1.1131814228
 20
6.8478653516
 10
-1.2609296101
 20
6.8957207307
 10
-1.4141575183
 20
6.9318807112
 10
-1.572496008
 20
6.9562581805
 10
-1.735563628
 20
6.9687944112
 10
-1.9029675341
 20
6.9694592024
 10
-2.0743044355
 20
6.9582509526
 10
-2.2491615668
 20
6.9351966634
 10
-2.4271176816
 20
6.9003518745
 10
-2.6077440683
 20
6.8538005303
 10
-2.7906055819
 20
6.7956547768
 10
-2.9752616931
 20
6.7260546924
 10
-3.1612675491
 20
6.6451679498
 10
-3.3481750456
 20
6.5531894121
 10
-3.5355339059
 20
6.4503406637
 10
-3.7228927663
 20
6.3368694764
 10
-3.9098002628
 20
6.2130492121
 10
-4.0958061188
 20
6.0791781646
 10
-4.28046223
 20
5.9355788411
 10
-4.4633237436
 20
5.7825971849
 10
-4.6439501302
 20
5.6206017422
 10
-4.8219062451
 20
5.4499827742
 10
-4.9967633763
 20
5.271151317
 10
-5.1681002778
 20
5.0845381912
 10
-5.3355041838
 20
4.8905929642
 10
-5.4985718038
 20
4.6897828669
 10
-5.6569102936
 20
4.4825916686
 10
-5.8101382018
 20
4.269518511
 10
-5.9578863891
 20
4.0510767059
 10
-6.099798917
 20
3.8277924988
 10
-6.2355339059
 20
3.600203801
 10
-6.3647643584
 20
3.3688588935
 10
-6.4871789468
 20
3.1343151065
 10
-6.6024827639
 20
2.8971374764
 10
-6.7103980325
 20
2.6578973851
 10
-6.8106647753
 20
2.4171711827
 10
-6.903041441
 20
2.1755387999
 10
-6.9873054861
 20
1.9335823502
 10
-7.0632539111
 20
1.6918847279
 10
-7.1307037496
 20
1.4510282037
 10
-7.1894925091
 20
1.2115930221
 10
-7.2394785623
 20
0.9741560034
 10
-7.2805414883
 20
0.7392891542
 10
-7.3125823631
 20
0.5075582893
 10
-7.3355239973
 20
0.2795216686
 10
-7.3493111225
 20
0.0557286524
 10
-7.3539105243
 20
-0.1632816224
  0
LWPOLYLINE
  5
DF
330
D1
100
AcDbEntity
  8
0
  6
Continuous
 62
     7
370
    15
100
AcDbPolyline
 90
       97
 70
   128
 43
0.0
 10
6.0104076401
 20
-1.0205101398
 10
6.0058657304
 20
-1.1833451012
 10
5.9922594505
 20
-1.3507267555
 10
5.9696470645
 20
-1.521938349
 10
5.9381254022
 20
-1.6962467272
 10
5.8978294442
 20
-1.8729054749
 10
5.8489317438
 20
-2.0511581122
 10
5.7916416887
 20
-2.2302413339
 10
5.7262046036
 20
-2.4093882783
 10
5.6529007002
 20
-2.5878318106
 10
5.5720438769
 20
-2.7648078081
 10
5.4839803752
 20
-2.9395584326
 10
5.3890872965
 20
-3.111335375
 10
5.2877709875
 20
-3.27940306
 10
5.1804653003
 20
-3.4430417961
 10
5.0676297341
 20
-3.601550857
 10
4.9497474683
 20
-3.7542514826
 10
4.8273232928
 20
-3.9004897854
 10
4.7008814467
 20
-4.0396395505
 10
4.5709633735
 20
-4.1711049173
 10
4.4381254022
 20
-4.2943229309
 10
4.3029363655
 20
-4.4087659528
 10
4.1659751634
 20
-4.5139439205
 10
4.0278282851
 20
-4.6094064456
 10
3.8890872965
 20
-4.6947447432
 10
3.750346308
 20
-4.7695933814
 10
3.6121994296
 20
-4.8336318469
 10
3.4752382276
 20
-4.8865859171
 10
3.3400491908
 20
-4.9282288346
 10
3.2072112196
 20
-4.9583822781
 10
3.0772931463
 20
-4.9769171259
 10
2.9508513002
 20
-4.9837540088
 10
2.8284271247
 20
-4.9788636503
 10
2.7105448589
 20
-4.9622669918
 10
2.5977092928
 20
-4.9340351025
 10
2.4904036055
 20
-4.8942888758
 10
2.3890872965
 20
-4.8431985112
 10
2.2941942178
 20
-4.7809827855
 10
2.2061307161
 20
-4.7079081158
 10
2.1252738929
 20
-4.6242874192
 10
2.0519699894
 20
-4.5304787724
 10
1.9865329043
 20
-4.4268838783
 10
1.9292428492
 20
-4.3139463462
 10
1.8803451489
 20
-4.192149792
 10
1.8400491908
 20
-4.0620157672
 10
1.8085275285
 20
-3.9241015256
 10
1.7859151426
 20
-3.7789976373
 10
1.7723088627
 20
-3.6273254593
 10
1.767766953
 20
-3.4697344752
 10
1.7723088627
 20
-3.3068995139
 10
1.7859151426
 20
-3.1395178595
 10
1.8085275285
 20
-2.968306266
 10
1.8400491908
 20
-2.7939978879
 10
1.8803451489
 20
-2.6173391402
 10
1.9292428492
 20
-2.4390865029
 10
1.9865329043
 20
-2.2600032811
 10
2.0519699894
 20
-2.0808563367
 10
2.1252738929
 20
-1.9024128045
 10
2.2061307161
 20
-1.7254368069
 10
2.2941942178
 20
-1.5506861824
 10
2.3890872965
 20
-1.37890924
 10
2.4904036055
 20
-1.210841555
 10
2.5977092928
 20
-1.0472028189
 10
2.7105448589
 20
-0.888693758
 10
2.8284271247
 20
-0.7359931324
 10
2.9508513002
 20
-0.5897548296
 10
3.0772931463
 20
-0.4506050645
 10
3.2072112196
 20
-0.3191396977
 10
3.3400491908
 20
-0.1959216841
 10
3.4752382276
 20
-0.0814786622
 10
3.6121994296
 20
0.0236993054
 10
3.750346308
 20
0.1191618306
 10
3.8890872965
 20
0.2045001281
 10
4.0278282851
 20
0.2793487663
 10
4.1659751634
 20
0.3433872318
 10
4.3029363655
 20
0.3963413021
 10
4.4381254022
 20
0.4379842196
 10
4.5709633735
 20
0.4681376631
 10
4.7008814467
 20
0.4866725108
 10
4.8273232928
 20
0.4935093938
 10
4.9497474683
 20
0.4886190353
 10
5.0676297341
 20
0.4720223767
 10
5.1804653003
 20
0.4437904875
 10
5.2877709875
 20
0.4040442608
 10
5.3890872965
 20
0.3529538962
 10
5.4839803752
 20
0.2907381704
 10
5.5720438769
 20
0.2176635008
 10
5.6529007002
 20
0.1340428042
 10
5.7262046036
 20
0.0402341574
 10
5.7916416887
 20
-0.0633607367
 10
5.8489317438
 20
-0.1762982688
 10
5.8978294442
 20
-0.298094823
 10
5.9381254022
 20
-0.4282288479
 10
5.9696470645
 20
-0.5661430894
 10
5.9922594505
 20
-0.7112469777
 10
6.0058657304
 20
-0.8629191557
 10
6.0104076401
 20
-1.0205101398
  0
LWPOLYLINE
  5
E0
330
D1
100
AcDbEntity
  8
0
  6
Continuous
 62
     7
370
    15
100
AcDbPolyline
 90
       22
 70
   128
 43
0.0
 10
5.3033008589
 20
-1.0205101398
 10
5.2986926997
 20
-0.8758709922
 10
5.284892247
 20
-0.7373063935
 10
5.2619714499
 20
-0.6055387553
 10
5.2300498069
 20
-0.4812550531
 10
5.1892937425
 20
-0.3651032446
 10
5.1399157402
 20
-0.2576888914
 10
5.0821732338
 20
-0.1595720024
 10
5.0163672661
 20
-0.0712641136
 10
4.942840919
 20
0.0067743787
 10
4.8619775247
 20
0.0741366179
 10
4.7741986676
 20
0.1304714083
 10
4.679961986
 20
0.1754850466
 10
4.5797587862
 20
0.2089428525
 10
4.4741114815
 20
0.2306703923
 10
4.3635708679
 20
0.2405543889
 10
4.248713253
 20
0.2385433117
 10
4.1301374511
 20
0.2246476453
 10
4.0084616618
 20
0.1989398356
 10
3.8843202461
 20
0.1615539109
 10
3.7583604199
 20
0.1126847843
 10
3.7039284007
 20
0.0882609532
  0
LWPOLYLINE
  5
E1
330
D1
100
AcDbEntity
  8
0
  6
Continuous
 62
     7
370
    15
100
AcDbPolyline
 90
       44
 70
   128
 43
0.0
 10
1.7758331104
 20
-3.2516599388
 10
1.7781296786
 20
-3.2762571229
 10
1.7965022807
 20
-3.4115114142
 10
1.8239413884
 20
-3.5396205994
 10
1.860303947
 20
-3.6599167764
 10
1.905400379
 20
-3.7717727766
 10
1.9589955723
 20
-3.8746054348
 10
2.0208101065
 20
-3.967878629
 10
2.0905217092
 20
-4.0511060759
 10
2.1677669364
 20
-4.1238538662
 10
2.2521430673
 20
-4.1857427267
 10
2.3432102038
 20
-4.2364499973
 10
2.4404935639
 20
-4.275711314
 10
2.5434859574
 20
-4.3033219864
 10
2.6516504294
 20
-4.3191380652
 10
2.7644230607
 20
-4.3230770928
 10
2.8812159069
 20
-4.3151185328
 10
3.0014200641
 20
-4.2953038774
 10
3.1244088436
 20
-4.2637364312
 10
3.2495410388
 20
-4.2205807722
 10
3.3761642684
 20
-4.166061894
 10
3.5036183775
 20
-4.1004640328
 10
3.6312388794
 20
-4.0241291855
 10
3.7583604199
 20
-3.9374553266
 10
3.8843202461
 20
-3.8408943334
 10
4.0084616618
 20
-3.7349496304
 10
4.1301374511
 20
-3.620173564
 10
4.248713253
 20
-3.4971645237
 10
4.3635708679
 20
-3.3665638215
 10
4.4741114815
 20
-3.229052349
 10
4.5797587862
 20
-3.0853470275
 10
4.679961986
 20
-2.9361970698
 10
4.7741986676
 20
-2.7823800748
 10
4.8619775247
 20
-2.6246979732
 10
4.942840919
 20
-2.4639728463
 10
5.0163672661
 20
-2.3010426406
 10
5.0821732338
 20
-2.1367567987
 10
5.1399157402
 20
-1.9719718309
 10
5.1892937425
 20
-1.8075468497
 10
5.2300498069
 20
-1.6443390909
 10
5.2619714499
 20
-1.4831994442
 10
5.284892247
 20
-1.324968017
 10
5.2986926997
 20
-1.1704697547
 10
5.3033008589
 20
-1.0205101398
  0
LINE
  5
E3
330
D1
100
AcDbEntity
  8
0
  6
Continuous
 62
     7
370
    15
100
AcDbLine
 10
3.5361544995
 20
-6.4499823445
 30
0.0
 11
3.8896504277
 21
-6.2458471442
 31
0.0
  0
LINE
  5
E4
330
D1
100
AcDbEntity
  8
0
  6
Continuous
 62
     7
370
    15
100
AcDbLine
 10
7.3539105243
 20
-0.2449224335
 30
0.0
 11
7.3539105243
 21
0.1632816224
 31
0.0
  0
LINE
  5
E5
330
D1
100
AcDbEntity
  8
0
  6
Continuous
 62
     7
370
    15
100
AcDbLine
 10
6.235314484
 20
2.6356435773
 30
0.0
 11
-0.8357533278
 21
6.7176841364
 31
0.0
  0
LINE
  5
E6
330
D1
100
AcDbEntity
  8
0
  6
Continuous
 62
     7
370
    15
100
AcDbLine
 10
-6.2353144841
 20
-2.6356435773
 30
0.0
 11
0.8357533278
 21
-6.7176841364
 31
0.0
  0
LINE
  5
E7
330
D1
100
AcDbEntity
  8
0
  6
Continuous
 62
     7
370
    15
100
AcDbLine
 10
-3.5361544995
 20
6.4499823445
 30
0.0
 11
-3.8896504277
 21
6.2458471442
 31
0.0
  0
LINE
  5
E8
330
D1
100
AcDbEntity
  8
0
  6
Continuous
 62
     7
370
    15
100
AcDbLine
 10
-7.3539105243
 20
0.2449224335
 30
0.0
 11
-7.3539105243
 21
-0.1632816224
 31
0.0
  0
ARC
  5
E9
330
D1
100
AcDbEntity
  8
0
  6
Continuous
 62
     7
370
    15
100
AcDbCircle
 10
-4.6878130752
 20
-0.4462617571
 30
0.0
 40
2.681073174111281
100
AcDbArc
 50
173.9412980869
 51
234.7465215197
  0
ARC
  5
EA
330
D1
100
AcDbEntity
  8
0
  6
Continuous
 62
     7
370
    15
100
AcDbCircle
 10
0.1547213394
 20
-0.089318728
 30
0.0
 40
7.516067430432338
100
AcDbArc
 50
122.5541729265
 51
177.4512036062
  0
VIEWPORT
  5
127
330
D1
100
AcDbEntity
  8
0
100
AcDbViewport
 10
0.0
 20
0.0
 30
0.0
 40
243.84
 41
204.216
 68
     1
 69
     1
 12
0.0
 22
0.0139192764
 13
0.0
 23
0.0
 14
10.0
 24
10.0
 15
10.0
 25
10.0
 16
0.0
 26
0.0
 36
1.0
 17
0.0
 27
0.0
 37
0.0
 42
50.0
 43
0.0
 44
0.0
 45
13.8369931816
 50
0.0
 51
0.0
 72
   100
 90
   557152
  1

281
     0
 71
     1
 74
     0
110
0.0
120
0.0
130
0.0
111
1.0
121
0.0
131
0.0
112
0.0
122
1.0
132
0.0
 79
     0
146
0.0
  0
ENDBLK
  5
D4
330
D1
100
AcDbEntity
  8
0
100
AcDbBlockEnd
  0
BLOCK
  5
ED
330
EB
100
AcDbEntity
  8
0
100
AcDbBlockBegin
  2
*Paper_Space6
 70
     0
 10
0.0
 20
0.0
 30
0.0
  3
*Paper_Space6
  1

  0
LWPOLYLINE
  5
F5
330
EB
100
AcDbEntity
  8
0
  6
Continuous
 62
     7
370
    15
100
AcDbPolyline
 90
      123
 70
   128
 43
0.0
 10
7.151107075
 20
0.9099817126
 10
7.1480749739
 20
1.1232392248
 10
7.1389867113
 20
1.3300123692
 10
7.1238663875
 20
1.5297528207
 10
7.1027540991
 20
1.7219309034
 10
7.0757058319
 20
1.9060369956
 10
7.042793313
 20
2.0815828811
 10
7.0041038207
 20
2.2481030436
 10
6.9597399524
 20
2.4051559018
 10
6.9098193532
 20
2.5523249796
 10
6.8544744035
 20
2.6892200111
 10
6.7938518682
 20
2.8154779753
 10
6.7281125074
 20
2.9307640588
 10
6.6574306499
 20
3.0347725436
 10
6.5819937314
 20
3.1272276178
 10
6.5020017971
 20
3.2078841073
 10
6.4176669711
 20
3.2765281256
 10
6.3292128944
 20
3.332977641
 10
6.236874131
 20
3.3770829596
 10
6.140895547
 20
3.408727122
 10
6.0415316601
 20
3.4278262135
 10
5.9390459657
 20
3.4343295869
 10
5.8337102373
 20
3.4282199964
 10
5.7258038063
 20
3.4095136434
 10
5.6156128213
 20
3.3782601338
 10
5.5034294888
 20
3.3345423465
 10
5.3895512989
 20
3.2784762129
 10
5.2742802362
 20
3.2102104106
 10
5.1579219787
 20
3.1299259681
 10
5.0407850876
 20
3.0378357852
 10
4.9231801889
 20
2.9341840688
 10
4.8054191496
 20
2.8192456843
 10
4.6878142509
 20
2.6933254278
 10
4.5706773598
 20
2.5567572172
 10
4.4543191023
 20
2.4099032068
 10
4.3390480395
 20
2.2531528271
 10
4.2251698496
 20
2.0869217518
 10
4.1129865172
 20
1.9116507959
 10
4.0027955321
 20
1.7278047464
 10
3.8948891011
 20
1.5358711301
 10
3.7895533727
 20
1.3363589204
 10
3.6870676783
 20
1.1297971878
 10
3.5877037915
 20
0.9167336969
 10
3.4917252074
 20
0.6977334537
 10
3.3993864441
 20
0.4733772076
 10
3.3109323673
 20
0.2442599109
 10
3.2265975413
 20
0.0109891415
 10
3.146605607
 20
-0.2258165083
 10
3.0711686885
 20
-0.4655290727
 10
3.0004868311
 20
-0.7075128769
 10
2.9347474702
 20
-0.9511262234
 10
2.8741249349
 20
-1.1957230935
 10
2.8187799852
 20
-1.4406548601
 10
2.768859386
 20
-1.6852720084
 10
2.7244955178
 20
-1.9289258575
 10
2.6858060254
 20
-2.1709702813
 10
2.6528935066
 20
-2.4107634214
 10
2.6258452394
 20
-2.6476693896
 10
2.6047329509
 20
-2.8810599539
 10
2.5896126272
 20
-3.1103162044
 10
2.5805243645
 20
-3.3348301947
 10
2.5774922635
 20
-3.5540065541
 10
2.5805243645
 20
-3.7672640663
 10
2.5896126272
 20
-3.9740372108
 10
2.6047329509
 20
-4.1737776622
 10
2.6258452394
 20
-4.3659557449
 10
2.6528935066
 20
-4.5500618371
 10
2.6858060254
 20
-4.7256077226
 10
2.7244955178
 20
-4.8921278852
 10
2.768859386
 20
-5.0491807433
 10
2.8187799852
 20
-5.1963498211
 10
2.8741249349
 20
-5.3332448527
 10
2.9347474702
 20
-5.4595028169
 10
3.0004868311
 20
-5.5747889003
 10
3.0711686885
 20
-5.6787973851
 10
3.146605607
 20
-5.7712524593
 10
3.2265975413
 20
-5.8519089488
 10
3.3109323673
 20
-5.9205529671
 10
3.3993864441
 20
-5.9770024825
 10
3.4917252074
 20
-6.0211078011
 10
3.5877037915
 20
-6.0527519635
 10
3.6870676783
 20
-6.0718510551
 10
3.7895533727
 20
-6.0783544284
 10
3.8948891011
 20
-6.0722448379
 10
4.0027955321
 20
-6.0535384849
 10
4.1129865172
 20
-6.0222849754
 10
4.2251698496
 20
-5.978567188
 10
4.3390480395
 20
-5.9225010545
 10
4.4543191023
 20
-5.8542352521
 10
4.5706773598
 20
-5.7739508096
 10
4.6878142509
 20
-5.6818606268
 10
4.8054191496
 20
-5.5782089103
 10
4.9231801889
 20
-5.4632705258
 10
5.0407850876
 20
-5.3373502694
 10
5.1579219787
 20
-5.2007820588
 10
5.2742802362
 20
-5.0539280483
 10
5.3895512989
 20
-4.8971776686
 10
5.5034294888
 20
-4.7309465933
 10
5.6156128213
 20
-4.5556756374
 10
5.7258038063
 20
-4.371829588
 10
5.8337102373
 20
-4.1798959717
 10
5.9390459657
 20
-3.980383762
 10
6.0415316601
 20
-3.7738220293
 10
6.140895547
 20
-3.5607585384
 10
6.236874131
 20
-3.3417582952
 10
6.3292128944
 20
-3.1174020491
 10
6.4176669711
 20
-2.8882847524
 10
6.5020017971
 20
-2.6550139831
 10
6.5819937314
 20
-2.4182083332
 10
6.6574306499
 20
-2.1784957689
 10
6.7281125074
 20
-1.9365119646
 10
6.7938518682
 20
-1.6928986181
 10
6.8544744035
 20
-1.448301748
 10
6.9098193532
 20
-1.2033699814
 10
6.9597399524
 20
-0.9587528331
 10
7.0041038207
 20
-0.715098984
 10
7.042793313
 20
-0.4730545603
 10
7.0757058319
 20
-0.2332614201
 10
7.1027540991
 20
0.0036445481
 10
7.1238663875
 20
0.2370351124
 10
7.1389867113
 20
0.4662913628
 10
7.1480749739
 20
0.6908053532
 10
7.151107075
 20
0.9099817126
  0
LWPOLYLINE
  5
F6
330
EB
100
AcDbEntity
  8
0
  6
Continuous
 62
     7
370
    15
100
AcDbPolyline
 90
       85
 70
   128
 43
0.0
 10
4.0577709512
 20
-6.1374987003
 10
4.0523070548
 20
-6.1413542563
 10
3.9304327383
 20
-6.2214668125
 10
3.8097428687
 20
-6.2894866225
 10
3.6905281985
 20
-6.3452498209
 10
3.5730759261
 20
-6.3886220692
 10
3.4576690045
 20
-6.4194988798
 10
3.344585459
 20
-6.4378058678
 10
3.2340977178
 20
-6.44349893
 10
3.1264719556
 20
-6.4365643514
 10
3.0219674521
 20
-6.417018838
 10
2.920835968
 20
-6.3849094765
 10
2.8233211378
 20
-6.3403136214
 10
2.7296578832
 20
-6.2833387079
 10
2.6400718474
 20
-6.2141219935
 10
2.5547788508
 20
-6.1328302275
 10
2.4739843718
 20
-6.0396592487
 10
2.3978830514
 20
-5.9348335143
 10
2.3266582243
 20
-5.8186055585
 10
2.2604814773
 20
-5.6912553848
 10
2.199512236
 20
-5.5530897908
 10
2.1438973808
 20
-5.4044416296
 10
2.0937708925
 20
-5.2456690076
 10
2.0492535304
 20
-5.077154422
 10
2.0104525407
 20
-4.8993038392
 10
1.9774613983
 20
-4.7125457167
 10
1.9503595818
 20
-4.5173299713
 10
1.9292123818
 20
-4.3141268948
 10
1.9140707438
 20
-4.1034260212
 10
1.9049711453
 20
-3.8857349474
 10
1.9019355082
 20
-3.6615781102
 10
1.9049711453
 20
-3.431495523
 10
1.9140707438
 20
-3.1960414751
 10
1.9292123818
 20
-2.9557831958
 10
1.9503595818
 20
-2.7112994884
 10
1.9774613983
 20
-2.4631793354
 10
2.0104525407
 20
-2.2120204802
 10
2.0492535304
 20
-1.9584279863
 10
2.0937708925
 20
-1.7030127804
 10
2.1438973808
 20
-1.44639018
 10
2.199512236
 20
-1.1891784114
 10
2.2604814773
 20
-0.9319971203
 10
2.3266582243
 20
-0.675465879
 10
2.3978830514
 20
-0.4202026937
 10
2.4739843718
 20
-0.1668225158
 10
2.5547788508
 20
0.0840642397
 10
2.6400718474
 20
0.3318531646
 10
2.7296578832
 20
0.5759473137
 10
2.8233211378
 20
0.8157586428
 10
2.920835968
 20
1.0507094254
 10
3.0219674521
 20
1.2802336445
 10
3.1264719556
 20
1.5037783562
 10
3.2340977178
 20
1.7208050216
 10
3.344585459
 20
1.9307908045
 10
3.4576690045
 20
2.1332298308
 10
3.5730759261
 20
2.3276344071
 10
3.6905281985
 20
2.5135361958
 10
3.8097428687
 20
2.6904873432
 10
3.9304327383
 20
2.8580615584
 10
4.0523070548
 20
3.0158551405
 10
4.1750722123
 20
3.1634879509
 10
4.2984324587
 20
3.3006043294
 10
4.4220906084
 20
3.4268739504
 10
4.5457487581
 20
3.5419926194
 10
4.6691090045
 20
3.6456830055
 10
4.7918741619
 20
3.7376953095
 10
4.9137484784
 20
3.8178078656
 10
5.034438348
 20
3.8858276757
 10
5.1536530183
 20
3.9415908741
 10
5.2711052906
 20
3.9849631224
 10
5.3865122122
 20
4.015839933
 10
5.4995957577
 20
4.0341469209
 10
5.6100834989
 20
4.0398399832
 10
5.7177092612
 20
4.0329054046
 10
5.8222137647
 20
4.0133598911
 10
5.9233452488
 20
3.9812505297
 10
6.020860079
 20
3.9366546746
 10
6.1145233335
 20
3.8796797611
 10
6.2041093694
 20
3.8104630467
 10
6.289402366
 20
3.7291712806
 10
6.370196845
 20
3.6360003019
 10
6.4462981654
 20
3.5311745674
 10
6.5175229925
 20
3.4149466117
 10
6.5836997395
 20
3.287596438
 10
6.6061748742
 20
3.2392667256
  0
LWPOLYLINE
  5
F7
330
EB
100
AcDbEntity
  8
0
  6
Continuous
 62
     7
370
    15
100
AcDbPolyline
 90
       21
 70
   128
 43
0.0
 10
-6.9422457086
 20
-1.2579191633
 10
-6.9392100714
 20
-1.4820760005
 10
-6.930110473
 20
-1.6997670744
 10
-6.914968835
 20
-1.910467948
 10
-6.893821635
 20
-2.1136710245
 10
-6.8667198185
 20
-2.3088867699
 10
-6.8337286761
 20
-2.4956448923
 10
-6.7949276863
 20
-2.6734954752
 10
-6.7504103242
 20
-2.8420100608
 10
-6.700283836
 20
-3.0007826828
 10
-6.6446689807
 20
-3.149430844
 10
-6.5836997395
 20
-3.287596438
 10
-6.5175229925
 20
-3.4149466117
 10
-6.4462981654
 20
-3.5311745674
 10
-6.370196845
 20
-3.6360003019
 10
-6.289402366
 20
-3.7291712806
 10
-6.2041093694
 20
-3.8104630467
 10
-6.1145233336
 20
-3.8796797611
 10
-6.020860079
 20
-3.9366546746
 10
-5.9233452488
 20
-3.9812505297
 10
-5.8383226434
 20
-4.009148057
  0
LWPOLYLINE
  5
F8
330
EB
100
AcDbEntity
  8
0
  6
Continuous
 62
     7
370
    15
100
AcDbPolyline
 90
       46
 70
   128
 43
0.0
 10
-3.0058585734
 20
6.4128070039
 10
-3.0219674521
 20
6.417018838
 10
-3.1264719556
 20
6.4365643514
 10
-3.2340977178
 20
6.44349893
 10
-3.3445854591
 20
6.4378058678
 10
-3.4576690045
 20
6.4194988798
 10
-3.5730759262
 20
6.3886220692
 10
-3.6905281985
 20
6.3452498209
 10
-3.8097428688
 20
6.2894866225
 10
-3.9304327384
 20
6.2214668125
 10
-4.0523070548
 20
6.1413542563
 10
-4.1750722123
 20
6.0493419524
 10
-4.2984324587
 20
5.9456515663
 10
-4.4220906084
 20
5.8305328972
 10
-4.5457487581
 20
5.7042632762
 10
-4.6691090045
 20
5.5671468978
 10
-4.7918741619
 20
5.4195140873
 10
-4.9137484784
 20
5.2617205052
 10
-5.034438348
 20
5.09414629
 10
-5.1536530183
 20
4.9171951426
 10
-5.2711052906
 20
4.731293354
 10
-5.3865122122
 20
4.5368887777
 10
-5.4995957577
 20
4.3344497514
 10
-5.6100834989
 20
4.1244639685
 10
-5.7177092612
 20
3.907437303
 10
-5.8222137647
 20
3.6838925914
 10
-5.9233452488
 20
3.4543683723
 10
-6.020860079
 20
3.2194175896
 10
-6.1145233336
 20
2.9796062605
 10
-6.2041093694
 20
2.7355121114
 10
-6.289402366
 20
2.4877231865
 10
-6.370196845
 20
2.236836431
 10
-6.4462981654
 20
1.9834562531
 10
-6.5175229925
 20
1.7281930678
 10
-6.5836997395
 20
1.4716618265
 10
-6.6446689807
 20
1.2144805354
 10
-6.700283836
 20
0.9572687668
 10
-6.7504103242
 20
0.7006461664
 10
-6.7949276863
 20
0.4452309605
 10
-6.8337286761
 20
0.1916384666
 10
-6.8667198185
 20
-0.0595203886
 10
-6.893821635
 20
-0.3076405415
 10
-6.914968835
 20
-0.552124249
 10
-6.930110473
 20
-0.7923825283
 10
-6.9392100714
 20
-1.0278365762
 10
-6.9422457086
 20
-1.2579191633
  0
LWPOLYLINE
  5
F9
330
EB
100
AcDbEntity
  8
0
  6
Continuous
 62
     7
370
    15
100
AcDbPolyline
 90
       97
 70
   128
 43
0.0
 10
6.264385836
 20
0.0445145997
 10
6.2613881441
 20
-0.1265955108
 10
6.2524079048
 20
-0.30282458
 10
6.2374835729
 20
-0.483417968
 10
6.2166790568
 20
-0.6676023462
 10
6.1900834444
 20
-0.8545890088
 10
6.1578106225
 20
-1.0435772502
 10
6.119998788
 20
-1.2337577938
 10
6.0768098572
 20
-1.4243162572
 10
6.0284287715
 20
-1.6144366399
 10
5.9750627063
 20
-1.8033048171
 10
5.9169401833
 20
-1.9901120265
 10
5.854310092
 20
-2.1740583308
 10
5.7874406241
 20
-2.3543560436
 10
5.7166181249
 20
-2.5302331026
 10
5.6421458672
 20
-2.7009363752
 10
5.5643427526
 20
-2.8657348837
 10
5.4835419461
 20
-3.0239229356
 10
5.4000894491
 20
-3.1748231453
 10
5.3143426181
 20
-3.3177893352
 10
5.226668634
 20
-3.4522093018
 10
5.1374429304
 20
-3.5775074384
 10
5.0470475854
 20
-3.6931471991
 10
4.9558696857
 20
-3.7986333966
 10
4.8642996692
 20
-3.8935143229
 10
4.7727296527
 20
-3.9773836832
 10
4.6815517531
 20
-4.0498823362
 10
4.5911564081
 20
-4.1106998313
 10
4.5019307045
 20
-4.1595757389
 10
4.4142567204
 20
-4.1963007647
 10
4.3285098893
 20
-4.2207176465
 10
4.2450573923
 20
-4.2327218276
 10
4.1642565858
 20
-4.2322619041
 10
4.0864534713
 20
-4.2193398455
 10
4.0119812136
 20
-4.1940109861
 10
3.9411587144
 20
-4.1563837879
 10
3.8742892464
 20
-4.1066193764
 10
3.8116591551
 20
-4.0449308504
 10
3.7535366321
 20
-3.9715823696
 10
3.7001705669
 20
-3.8868880236
 10
3.6517894813
 20
-3.7912104865
 10
3.6086005504
 20
-3.6849594641
 10
3.570788716
 20
-3.5685899398
 10
3.538515894
 20
-3.4426002256
 10
3.5119202817
 20
-3.3075298289
 10
3.4911157655
 20
-3.1639571418
 10
3.4761914337
 20
-3.0124969646
 10
3.4672111944
 20
-2.8537978731
 10
3.4642135024
 20
-2.6885394412
 10
3.4672111944
 20
-2.5174293307
 10
3.4761914337
 20
-2.3412002615
 10
3.4911157655
 20
-2.1606068735
 10
3.5119202817
 20
-1.9764224953
 10
3.538515894
 20
-1.7894358327
 10
3.570788716
 20
-1.6004475913
 10
3.6086005504
 20
-1.4102670478
 10
3.6517894813
 20
-1.2197085843
 10
3.7001705669
 20
-1.0295882017
 10
3.7535366321
 20
-0.8407200244
 10
3.8116591551
 20
-0.653912815
 10
3.8742892464
 20
-0.4699665108
 10
3.9411587144
 20
-0.2896687979
 10
4.0119812136
 20
-0.1137917389
 10
4.0864534713
 20
0.0569115337
 10
4.1642565858
 20
0.2217100421
 10
4.2450573923
 20
0.379898094
 10
4.3285098893
 20
0.5307983038
 10
4.4142567204
 20
0.6737644936
 10
4.5019307045
 20
0.8081844603
 10
4.5911564081
 20
0.9334825969
 10
4.6815517531
 20
1.0491223576
 10
4.7727296527
 20
1.1546085551
 10
4.8642996692
 20
1.2494894813
 10
4.9558696857
 20
1.3333588417
 10
5.0470475854
 20
1.4058574946
 10
5.1374429304
 20
1.4666749898
 10
5.226668634
 20
1.5155508974
 10
5.3143426181
 20
1.5522759232
 10
5.4000894491
 20
1.576692805
 10
5.4835419461
 20
1.588696986
 10
5.5643427526
 20
1.5882370625
 10
5.6421458672
 20
1.575315004
 10
5.7166181249
 20
1.5499861446
 10
5.7874406241
 20
1.5123589464
 10
5.854310092
 20
1.4625945349
 10
5.9169401833
 20
1.4009060089
 10
5.9750627063
 20
1.3275575281
 10
6.0284287715
 20
1.2428631821
 10
6.0768098572
 20
1.1471856449
 10
6.119998788
 20
1.0409346226
 10
6.1578106225
 20
0.9245650983
 10
6.1900834444
 20
0.7985753841
 10
6.2166790568
 20
0.6635049874
 10
6.2374835729
 20
0.5199323003
 10
6.2524079048
 20
0.3684721231
 10
6.2613881441
 20
0.2097730316
 10
6.264385836
 20
0.0445145997
  0
LWPOLYLINE
  5
FA
330
EB
100
AcDbEntity
  8
0
  6
Continuous
 62
     7
370
    15
100
AcDbPolyline
 90
       19
 70
   128
 43
0.0
 10
5.5888290807
 20
-0.0630569564
 10
5.5857876636
 20
0.0886026992
 10
5.5766792689
 20
0.233534639
 10
5.5615513836
 20
0.3709832549
 10
5.5404828774
 20
0.5002319535
 10
5.5135835917
 20
0.620606892
 10
5.4809937671
 20
0.7314804911
 10
5.4428833116
 20
0.8322747072
 10
5.3994509157
 20
0.922464046
 10
5.3509230157
 20
1.001578302
 10
5.2975526136
 20
1.0692050102
 10
5.239617958
 20
1.1249915961
 10
5.1774210933
 20
1.1686472143
 10
5.1112862852
 20
1.1999442647
 10
5.04155833
 20
1.218719579
 10
4.9686007569
 20
1.2248752713
 10
4.892793933
 20
1.2183792487
 10
4.8145330798
 20
1.1992653785
 10
4.8144979222
 20
1.1992541259
  0
LWPOLYLINE
  5
FB
330
EB
100
AcDbEntity
  8
0
  6
Continuous
 62
     7
370
    15
100
AcDbPolyline
 90
       35
 70
   128
 43
0.0
 10
3.5451603788
 20
-3.4712301263
 10
3.5750437372
 20
-3.5022569092
 10
3.6351486801
 20
-3.5520104458
 10
3.6993563737
 20
-3.5895112271
 10
3.7673320691
 20
-3.6145637413
 10
3.8387213722
 20
-3.6270373762
 10
3.9131520925
 20
-3.6268671
 10
3.9902361825
 20
-3.6140538006
 10
4.0695717615
 20
-3.5886642804
 10
4.1507452106
 20
-3.5508309088
 10
4.2333333289
 20
-3.5007509313
 10
4.3169055403
 20
-3.4386854419
 10
4.4010261379
 20
-3.3649580211
 10
4.4852565559
 20
-3.2799530498
 10
4.5691576559
 20
-3.1841137043
 10
4.6522920164
 20
-3.0779396467
 10
4.7342262134
 20
-2.9619844194
 10
4.8145330798
 20
-2.8368525593
 10
4.892793933
 20
-2.7031964458
 10
4.9686007569
 20
-2.5617129001
 10
5.04155833
 20
-2.4131395519
 10
5.1112862852
 20
-2.2582509939
 10
5.1774210933
 20
-2.0978547431
 10
5.239617958
 20
-1.9327870316
 10
5.2975526136
 20
-1.7639084458
 10
5.3509230157
 20
-1.5920994404
 10
5.3994509157
 20
-1.4182557482
 10
5.4428833116
 20
-1.2432837096
 10
5.4809937671
 20
-1.0680955478
 10
5.5135835917
 20
-0.8936046128
 10
5.5404828774
 20
-0.7207206195
 10
5.5615513836
 20
-0.5503449049
 10
5.5766792689
 20
-0.3833657293
 10
5.5857876636
 20
-0.2206536446
 10
5.5888290807
 20
-0.0630569564
  0
LINE
  5
FE
330
EB
100
AcDbEntity
  8
0
  6
Continuous
 62
     7
370
    15
100
AcDbLine
 10
4.0577709512
 20
-6.1374987003
 30
0.0
 11
4.5337133137
 21
-5.8006752377
 31
0.0
  0
LINE
  5
FF
330
EB
100
AcDbEntity
  8
0
  6
Continuous
 62
     7
370
    15
100
AcDbLine
 10
6.8461539104
 20
2.7078711673
 30
0.0
 11
6.6061748742
 21
3.2392667256
 31
0.0
  0
LINE
  5
100
330
EB
100
AcDbEntity
  8
0
  6
Continuous
 62
     7
370
    15
100
AcDbLine
 10
5.8383226434
 20
4.009148057
 30
0.0
 11
-3.0058585734
 21
6.4128070039
 31
0.0
  0
LINE
  5
101
330
EB
100
AcDbEntity
  8
0
  6
Continuous
 62
     7
370
    15
100
AcDbLine
 10
-5.8383226434
 20
-4.009148057
 30
0.0
 11
3.0058585733
 21
-6.4128070039
 31
0.0
  0
LINE
  5
102
330
EB
100
AcDbEntity
  8
0
  6
Continuous
 62
     7
370
    15
100
AcDbLine
 10
-4.0577709512
 20
6.1374987003
 30
0.0
 11
-4.5337133137
 21
5.8006752377
 31
0.0
  0
LINE
  5
103
330
EB
100
AcDbEntity
  8
0
  6
Continuous
 62
     7
370
    15
100
AcDbLine
 10
-6.8461539104
 20
-2.7078711673
 30
0.0
 11
-6.6061748742
 21
-3.2392667256
 31
0.0
  0
ARC
  5
104
330
EB
100
AcDbEntity
  8
0
  6
Continuous
 62
     7
370
    15
100
AcDbCircle
 10
2.076544397
 20
-0.6433258513
 30
0.0
 40
9.231503509004105
100
AcDbArc
 50
135.7296689838
 51
181.6552429222
  0
ARC
  5
105
330
EB
100
AcDbEntity
  8
0
  6
Continuous
 62
     7
370
    15
100
AcDbCircle
 10
-2.6332032487
 20
-1.0684744343
 30
0.0
 40
4.520683015467487
100
AcDbArc
 50
177.9908289588
 51
201.2626371696
  0
VIEWPORT
  5
128
330
EB
100
AcDbEntity
  8
0
100
AcDbViewport
 10
0.0
 20
0.0
 30
0.0
 40
243.84
 41
204.216
 68
     1
 69
     1
 12
0.0
 22
0.0139192764
 13
0.0
 23
0.0
 14
10.0
 24
10.0
 15
10.0
 25
10.0
 16
0.0
 26
0.0
 36
1.0
 17
0.0
 27
0.0
 37
0.0
 42
50.0
 43
0.0
 44
0.0
 45
13.8369931816
 50
0.0
 51
0.0
 72
   100
 90
   557152
  1

281
     0
 71
     1
 74
     0
110
0.0
120
0.0
130
0.0
111
1.0
121
0.0
131
0.0
112
0.0
122
1.0
132
0.0
 79
     0
146
0.0
  0
ENDBLK
  5
EE
330
EB
100
AcDbEntity
  8
0
100
AcDbBlockEnd
  0
BLOCK
  5
108
330
106
100
AcDbEntity
  8
0
100
AcDbBlockBegin
  2
*Paper_Space7
 70
     0
 10
0.0
 20
0.0
 30
0.0
  3
*Paper_Space7
  1

  0
LWPOLYLINE
  5
110
330
106
100
AcDbEntity
  8
0
  6
Continuous
 62
     7
370
    15
100
AcDbPolyline
 90
      123
 70
   128
 43
0.0
 10
6.8771905205
 20
0.8796622168
 10
6.8748934984
 20
1.1154561475
 10
6.8680085235
 20
1.3465732289
 10
6.8565538533
 20
1.5724005801
 10
6.8405598638
 20
1.7923393475
 10
6.820068968
 20
2.0058062932
 10
6.7951355041
 20
2.2122353411
 10
6.7658255912
 20
2.4110790785
 10
6.732216954
 20
2.6018102076
 10
6.6943987164
 20
2.7839229437
 10
6.6524711656
 20
2.9569343565
 10
6.606545486
 20
3.1203856509
 10
6.5567434642
 20
3.2738433835
 10
6.5031971663
 20
3.4169006119
 10
6.4460485873
 20
3.549177974
 10
6.3854492751
 20
3.6703246942
 10
6.321559928
 20
3.780019513
 10
6.2545499693
 20
3.8779715395
 10
6.1845970972
 20
3.9639210226
 10
6.1118868142
 20
4.0376400397
 10
6.0366119349
 20
4.0989331012
 10
5.9589720747
 20
4.1476376688
 10
5.8791731206
 20
4.183624587
 10
5.797426685
 20
4.2067984248
 10
5.7139495449
 20
4.2170977293
 10
5.6289630666
 20
4.2144951887
 10
5.5426926189
 20
4.1989977045
 10
5.4553669756
 20
4.1706463731
 10
5.3672177086
 20
4.1295163772
 10
5.2784785738
 20
4.0757167862
 10
5.1893848916
 20
4.0093902669
 10
5.1001729223
 20
3.9307127054
 10
5.0110792401
 20
3.8398927403
 10
4.9223401054
 20
3.7371712099
 10
4.8341908383
 20
3.6228205132
 10
4.746865195
 20
3.4971438877
 10
4.6605947474
 20
3.3604746053
 10
4.575608269
 20
3.2131750882
 10
4.4921311289
 20
3.0556359484
 10
4.4103846934
 20
2.8882749513
 10
4.3305857393
 20
2.7115359082
 10
4.2529458791
 20
2.5258874993
 10
4.1776709998
 20
2.3318220307
 10
4.1049607168
 20
2.1298541292
 10
4.0350078447
 20
1.9205193774
 10
3.9679978859
 20
1.7043728934
 10
3.9041085389
 20
1.4819878588
 10
3.8435092267
 20
1.2539539988
 10
3.7863606477
 20
1.0208760182
 10
3.7328143497
 20
0.7833719977
 10
3.6830123279
 20
0.5420717556
 10
3.6370866484
 20
0.2976151765
 10
3.5951590976
 20
0.0506505154
 10
3.55734086
 20
-0.1981673218
 10
3.5237322227
 20
-0.448178515
 10
3.4944223098
 20
-0.6987200794
 10
3.469488846
 20
-0.9491276237
 10
3.4489979502
 20
-1.1987371124
 10
3.4330039606
 20
-1.4468866257
 10
3.4215492905
 20
-1.6929181159
 10
3.4146643156
 20
-1.9361791516
 10
3.4123672935
 20
-2.1760246484
 10
3.4146643156
 20
-2.411818579
 10
3.4215492905
 20
-2.6429356604
 10
3.4330039606
 20
-2.8687630116
 10
3.4489979502
 20
-3.0887017791
 10
3.469488846
 20
-3.3021687248
 10
3.4944223098
 20
-3.5085977727
 10
3.5237322227
 20
-3.7074415101
 10
3.55734086
 20
-3.8981726392
 10
3.5951590976
 20
-4.0802853753
 10
3.6370866484
 20
-4.2532967881
 10
3.6830123279
 20
-4.4167480825
 10
3.7328143497
 20
-4.5702058151
 10
3.7863606477
 20
-4.7132630435
 10
3.8435092267
 20
-4.8455404056
 10
3.9041085389
 20
-4.9666871258
 10
3.9679978859
 20
-5.0763819446
 10
4.0350078447
 20
-5.1743339711
 10
4.1049607168
 20
-5.2602834542
 10
4.1776709998
 20
-5.3340024713
 10
4.2529458791
 20
-5.3952955327
 10
4.3305857393
 20
-5.4440001004
 10
4.4103846934
 20
-5.4799870186
 10
4.4921311289
 20
-5.5031608563
 10
4.575608269
 20
-5.5134601609
 10
4.6605947474
 20
-5.5108576203
 10
4.746865195
 20
-5.495360136
 10
4.8341908383
 20
-5.4670088046
 10
4.9223401054
 20
-5.4258788088
 10
5.0110792401
 20
-5.3720792178
 10
5.1001729223
 20
-5.3057526985
 10
5.1893848916
 20
-5.2270751369
 10
5.2784785738
 20
-5.1362551719
 10
5.3672177086
 20
-5.0335336414
 10
5.4553669756
 20
-4.9191829448
 10
5.5426926189
 20
-4.7935063193
 10
5.6289630666
 20
-4.6568370368
 10
5.7139495449
 20
-4.5095375198
 10
5.797426685
 20
-4.35199838
 10
5.8791731206
 20
-4.1846373829
 10
5.9589720747
 20
-4.0078983398
 10
6.0366119349
 20
-3.8222499308
 10
6.1118868142
 20
-3.6281844623
 10
6.1845970972
 20
-3.4262165608
 10
6.2545499693
 20
-3.216881809
 10
6.321559928
 20
-3.000735325
 10
6.3854492751
 20
-2.7783502904
 10
6.4460485873
 20
-2.5503164304
 10
6.5031971663
 20
-2.3172384497
 10
6.5567434642
 20
-2.0797344293
 10
6.606545486
 20
-1.8384341871
 10
6.6524711656
 20
-1.5939776081
 10
6.6943987164
 20
-1.347012947
 10
6.732216954
 20
-1.0981951097
 10
6.7658255912
 20
-0.8481839166
 10
6.7951355041
 20
-0.5976423522
 10
6.820068968
 20
-0.3472348078
 10
6.8405598638
 20
-0.0976253192
 10
6.8565538533
 20
0.1505241941
 10
6.8680085235
 20
0.3965556843
 10
6.8748934984
 20
0.6398167201
 10
6.8771905205
 20
0.8796622168
  0
LWPOLYLINE
  5
111
330
106
100
AcDbEntity
  8
0
  6
Continuous
 62
     7
370
    15
100
AcDbPolyline
 90
       80
 70
   128
 43
0.0
 10
4.6770717336
 20
-5.6804244754
 10
4.5833923035
 20
-5.7569094313
 10
4.4899385552
 20
-5.8209450566
 10
4.3969356272
 20
-5.8723770839
 10
4.3046075717
 20
-5.911081609
 10
4.2131768149
 20
-5.9369653891
 10
4.1228636216
 20
-5.9499660681
 10
4.0338855642
 20
-5.9500523262
 10
3.9464569986
 20
-5.9372239555
 10
3.8607885479
 20
-5.9115118607
 10
3.7770865949
 20
-5.8729779845
 10
3.6955527849
 20
-5.8217151585
 10
3.61638354
 20
-5.7578468792
 10
3.5397695859
 20
-5.6815270109
 10
3.4658954923
 20
-5.5929394148
 10
3.3949392284
 20
-5.4922975063
 10
3.3270717339
 20
-5.3798437406
 10
3.2624565077
 20
-5.2558490285
 10
3.2012492135
 20
-5.1206120842
 10
3.143597305
 20
-4.9744587053
 10
3.0896396707
 20
-4.8177409882
 10
3.0395062993
 20
-4.6508364796
 10
2.9933179665
 20
-4.474147267
 10
2.9511859439
 20
-4.2880990102
 10
2.9132117314
 20
-4.0931399158
 10
2.8794868122
 20
-3.8897396572
 10
2.8500924324
 20
-3.6783882437
 10
2.8250994059
 20
-3.4595948391
 10
2.8045679429
 20
-3.233886536
 10
2.7885475055
 20
-3.0018070855
 10
2.7770766884
 20
-2.7639155872
 10
2.7701831258
 20
-2.5207851427
 10
2.7678834248
 20
-2.2730014744
 10
2.7701831258
 20
-2.021161515
 10
2.7770766884
 20
-1.7658719689
 10
2.7885475055
 20
-1.5077478511
 10
2.8045679429
 20
-1.2474110051
 10
2.8250994059
 20
-0.9854886052
 10
2.8500924324
 20
-0.7226116454
 10
2.8794868122
 20
-0.4594134194
 10
2.9132117314
 20
-0.1965279946
 10
2.9511859439
 20
0.0654113148
 10
2.9933179665
 20
0.3257734742
 10
3.0395062993
 20
0.5839312483
 10
3.0896396707
 20
0.8392627123
 10
3.143597305
 20
1.0911527505
 10
3.2012492135
 20
1.3389945377
 10
3.2624565077
 20
1.5821910013
 10
3.3270717339
 20
1.8201562597
 10
3.3949392284
 20
2.0523170337
 10
3.4658954923
 20
2.2781140278
 10
3.5397695859
 20
2.4970032772
 10
3.61638354
 20
2.7084574585
 10
3.6955527849
 20
2.9119671601
 10
3.7770865949
 20
3.1070421092
 10
3.8607885479
 20
3.2932123533
 10
3.9464569986
 20
3.4700293919
 10
4.0338855642
 20
3.6370672573
 10
4.1228636216
 20
3.7939235407
 10
4.2131768149
 20
3.9402203614
 10
4.3046075717
 20
4.0756052777
 10
4.3969356272
 20
4.1997521354
 10
4.4899385552
 20
4.3123618539
 10
4.5833923035
 20
4.4131631464
 10
4.6770717336
 20
4.501913174
 10
4.7707511638
 20
4.5783981299
 10
4.864204912
 20
4.6424337552
 10
4.95720784
 20
4.6938657825
 10
5.0495358956
 20
4.7325703075
 10
5.1409666524
 20
4.7584540877
 10
5.2312798456
 20
4.7714547667
 10
5.3202579031
 20
4.7715410247
 10
5.4076864686
 20
4.758712654
 10
5.4933549193
 20
4.7330005593
 10
5.5770568724
 20
4.6944666831
 10
5.6585906823
 20
4.6432038571
 10
5.7377599272
 20
4.5793355777
 10
5.8143738813
 20
4.5030157094
 10
5.8882479749
 20
4.4144281134
 10
5.9398811011
 20
4.3428141483
  0
LWPOLYLINE
  5
112
330
106
100
AcDbEntity
  8
0
  6
Continuous
 62
     7
370
    15
100
AcDbPolyline
 90
       26
 70
   128
 43
0.0
 10
-6.5862600424
 20
-1.094490173
 10
-6.5839603415
 20
-1.3422738412
 10
-6.5770667789
 20
-1.5854042858
 10
-6.5655959618
 20
-1.823295784
 10
-6.5495755244
 20
-2.0553752346
 10
-6.5290440614
 20
-2.2810835377
 10
-6.5040510348
 20
-2.4998769422
 10
-6.4746566551
 20
-2.7112283558
 10
-6.4409317358
 20
-2.9146286143
 10
-6.4029575233
 20
-3.1095877088
 10
-6.3608255008
 20
-3.2956359656
 10
-6.3146371679
 20
-3.4723251782
 10
-6.2645037965
 20
-3.6392296868
 10
-6.2105461622
 20
-3.7959474039
 10
-6.1528942537
 20
-3.9421007827
 10
-6.0916869595
 20
-4.077337727
 10
-6.0270717333
 20
-4.2013324391
 10
-5.9592042389
 20
-4.3137862049
 10
-5.8882479749
 20
-4.4144281134
 10
-5.8143738813
 20
-4.5030157094
 10
-5.7377599272
 20
-4.5793355777
 10
-5.6585906823
 20
-4.6432038571
 10
-5.5770568724
 20
-4.6944666831
 10
-5.4933549194
 20
-4.7330005593
 10
-5.4076864687
 20
-4.758712654
 10
-5.3520717333
 20
-4.7683907542
  0
LWPOLYLINE
  5
113
330
106
100
AcDbEntity
  8
0
  6
Continuous
 62
     7
370
    15
100
AcDbPolyline
 90
       41
 70
   128
 43
0.0
 10
-4.002071734
 20
5.9469020557
 10
-4.0338855642
 20
5.9500523262
 10
-4.1228636216
 20
5.9499660681
 10
-4.2131768149
 20
5.9369653891
 10
-4.3046075717
 20
5.911081609
 10
-4.3969356273
 20
5.8723770839
 10
-4.4899385552
 20
5.8209450566
 10
-4.5833923035
 20
5.7569094313
 10
-4.6770717336
 20
5.6804244754
 10
-4.7707511638
 20
5.5916744479
 10
-4.864204912
 20
5.4908731553
 10
-4.95720784
 20
5.3782634368
 10
-5.0495358956
 20
5.2541165791
 10
-5.1409666524
 20
5.1187316628
 10
-5.2312798457
 20
4.9724348421
 10
-5.3202579031
 20
4.8155785588
 10
-5.4076864687
 20
4.6485406934
 10
-5.4933549194
 20
4.4717236548
 10
-5.5770568724
 20
4.2855534107
 10
-5.6585906823
 20
4.0904784615
 10
-5.7377599272
 20
3.8869687599
 10
-5.8143738813
 20
3.6755145786
 10
-5.8882479749
 20
3.4566253292
 10
-5.9592042389
 20
3.2308283352
 10
-6.0270717333
 20
2.9986675611
 10
-6.0916869595
 20
2.7607023027
 10
-6.1528942537
 20
2.5175058391
 10
-6.2105461622
 20
2.2696640519
 10
-6.2645037965
 20
2.0177740137
 10
-6.3146371679
 20
1.7624425497
 10
-6.3608255008
 20
1.5042847756
 10
-6.4029575233
 20
1.2439226163
 10
-6.4409317358
 20
0.9819833068
 10
-6.4746566551
 20
0.7190978821
 10
-6.5040510348
 20
0.455899656
 10
-6.5290440614
 20
0.1930226962
 10
-6.5495755244
 20
-0.0688997037
 10
-6.5655959618
 20
-0.3292365497
 10
-6.5770667789
 20
-0.5873606675
 10
-6.5839603415
 20
-0.8426502136
 10
-6.5862600424
 20
-1.094490173
  0
LWPOLYLINE
  5
114
330
106
100
AcDbEntity
  8
0
  6
Continuous
 62
     7
370
    15
100
AcDbPolyline
 90
       97
 70
   128
 43
0.0
 10
6.2054390785
 20
0.2872331307
 10
6.2031681237
 20
0.100242352
 10
6.1963649837
 20
-0.0899532913
 10
6.1850587907
 20
-0.2825393522
 10
6.1692979596
 20
-0.4766911478
 10
6.1491499806
 20
-0.6715772902
 10
6.1247011304
 20
-0.866363247
 10
6.0960561029
 20
-1.0602149148
 10
6.0633375603
 20
-1.2523021911
 10
6.0266856086
 20
-1.4418025286
 10
5.986257197
 20
-1.6279044578
 10
5.9422254462
 20
-1.8098110617
 10
5.8947789068
 20
-1.9867433882
 10
5.8441207523
 20
-2.157943786
 10
5.7904679087
 20
-2.3226791487
 10
5.7340501256
 20
-2.4802440542
 10
5.6751089928
 20
-2.6299637854
 10
5.613896905
 20
-2.7711972193
 10
5.550675982
 20
-2.9033395728
 10
5.4857169454
 20
-3.025824992
 10
5.4192979598
 20
-3.1381289755
 10
5.3517034414
 20
-3.2397706204
 10
5.2832228404
 20
-3.3303146817
 10
5.2141494013
 20
-3.4093734356
 10
5.144778907
 20
-3.4766083406
 10
5.0754084127
 20
-3.5317314864
 10
5.0063349736
 20
-3.5745068273
 10
4.9378543726
 20
-3.6047511926
 10
4.8702598542
 20
-3.6223350714
 10
4.8038408686
 20
-3.6271831667
 10
4.738881832
 20
-3.6192747184
 10
4.6756609089
 20
-3.5986435916
 10
4.6144488212
 20
-3.5653781319
 10
4.5555076883
 20
-3.5196207871
 10
4.4990899053
 20
-3.4615674973
 10
4.4454370616
 20
-3.3914668555
 10
4.3947789072
 20
-3.3096190435
 10
4.3473323678
 20
-3.216374546
 10
4.303300617
 20
-3.1121326505
 10
4.2628722054
 20
-2.9973397366
 10
4.2262202536
 20
-2.8724873653
 10
4.1935017111
 20
-2.7381101736
 10
4.1648566836
 20
-2.5947835853
 10
4.1404078334
 20
-2.4431213467
 10
4.1202598544
 20
-2.2837728989
 10
4.1044990232
 20
-2.1174205965
 10
4.0931928302
 20
-1.9447767855
 10
4.0863896903
 20
-1.7665807531
 10
4.0841187354
 20
-1.5835955623
 10
4.0863896903
 20
-1.3966047836
 10
4.0931928302
 20
-1.2064091403
 10
4.1044990232
 20
-1.0138230793
 10
4.1202598544
 20
-0.8196712838
 10
4.1404078334
 20
-0.6247851414
 10
4.1648566836
 20
-0.4299991846
 10
4.1935017111
 20
-0.2361475168
 10
4.2262202536
 20
-0.0440602405
 10
4.2628722054
 20
0.145440097
 10
4.303300617
 20
0.3315420262
 10
4.3473323678
 20
0.5134486301
 10
4.3947789072
 20
0.6903809566
 10
4.4454370616
 20
0.8615813545
 10
4.4990899053
 20
1.0263167172
 10
4.5555076883
 20
1.1838816227
 10
4.6144488212
 20
1.3336013538
 10
4.6756609089
 20
1.4748347878
 10
4.738881832
 20
1.6069771412
 10
4.8038408686
 20
1.7294625604
 10
4.8702598542
 20
1.8417665439
 10
4.9378543726
 20
1.9434081889
 10
5.0063349736
 20
2.0339522501
 10
5.0754084127
 20
2.1130110041
 10
5.144778907
 20
2.180245909
 10
5.2141494013
 20
2.2353690548
 10
5.2832228404
 20
2.2781443957
 10
5.3517034414
 20
2.308388761
 10
5.4192979598
 20
2.3259726398
 10
5.4857169454
 20
2.3308207352
 10
5.550675982
 20
2.3229122868
 10
5.613896905
 20
2.30228116
 10
5.6751089928
 20
2.2690157003
 10
5.7340501256
 20
2.2232583556
 10
5.7904679087
 20
2.1652050658
 10
5.8441207523
 20
2.095104424
 10
5.8947789068
 20
2.0132566119
 10
5.9422254462
 20
1.9200121145
 10
5.986257197
 20
1.8157702189
 10
6.0266856086
 20
1.7009773051
 10
6.0633375603
 20
1.5761249338
 10
6.0960561029
 20
1.4417477421
 10
6.1247011304
 20
1.2984211537
 10
6.1491499806
 20
1.1467589151
 10
6.1692979596
 20
0.9874104674
 10
6.1850587907
 20
0.8210581649
 10
6.1963649837
 20
0.6484143539
 10
6.2031681237
 20
0.4702183216
 10
6.2054390785
 20
0.2872331307
  0
LWPOLYLINE
  5
115
330
106
100
AcDbEntity
  8
0
  6
Continuous
 62
     7
370
    15
100
AcDbPolyline
 90
       20
 70
   128
 43
0.0
 10
5.5609552099
 20
0.1902563047
 10
5.5586511303
 20
0.358301759
 10
5.551750904
 20
0.5214070877
 10
5.5402905054
 20
0.6787219351
 10
5.5243296839
 20
0.8294261346
 10
5.5039516517
 20
0.9727339841
 10
5.4792626505
 20
1.1078983429
 10
5.4503913974
 20
1.2342145267
 10
5.4174884135
 20
1.3510239812
 10
5.38072524
 20
1.4577177162
 10
5.3402935429
 20
1.5537394799
 10
5.2964041143
 20
1.6385886592
 10
5.2492857735
 20
1.7118228899
 10
5.1991841737
 20
1.7730603626
 10
5.1463605213
 20
1.8219818134
 10
5.0910902145
 20
1.8583321885
 10
5.0336614071
 20
1.881921974
 10
4.9743735062
 20
1.8926281836
 10
4.9135356115
 20
1.8903950001
 10
4.9001138543
 20
1.8881930799
  0
LWPOLYLINE
  5
116
330
106
100
AcDbEntity
  8
0
  6
Continuous
 62
     7
370
    15
100
AcDbPolyline
 90
       30
 70
   128
 43
0.0
 10
4.2786394233
 20
-3.0446072944
 10
4.2915163111
 20
-3.0502427115
 10
4.3499127342
 20
-3.0674018952
 10
4.4100148128
 20
-3.0716411718
 10
4.4715092025
 20
-3.0629384398
 10
4.5340753001
 20
-3.0413390711
 10
4.5973869149
 20
-3.0069556748
 10
4.6611139694
 20
-2.9599675101
 10
4.7249242203
 20
-2.9006195515
 10
4.7884849906
 20
-2.8292212118
 10
4.8514649036
 20
-2.7461447288
 10
4.9135356115
 20
-2.6518232249
 10
4.9743735062
 20
-2.5467484487
 10
5.0336614071
 20
-2.4314682114
 10
5.0910902145
 20
-2.3065835309
 10
5.1463605213
 20
-2.1727454979
 10
5.1991841737
 20
-2.0306518821
 10
5.2492857735
 20
-1.8810434938
 10
5.2964041143
 20
-1.7247003218
 10
5.3402935429
 20
-1.5624374671
 10
5.38072524
 20
-1.395100893
 10
5.4174884135
 20
-1.2235630149
 10
5.4503913974
 20
-1.0487181519
 10
5.4792626505
 20
-0.8714778642
 10
5.5039516517
 20
-0.6927662006
 10
5.5243296839
 20
-0.5135148808
 10
5.5402905054
 20
-0.3346584384
 10
5.551750904
 20
-0.157129348
 10
5.5586511303
 20
0.018146836
 10
5.5609552099
 20
0.1902563047
  0
LINE
  5
119
330
106
100
AcDbEntity
  8
0
  6
Continuous
 62
     7
370
    15
100
AcDbLine
 10
4.6770717336
 20
-5.6804244754
 30
0.0
 11
5.144778907
 21
-5.2679455197
 31
0.0
  0
LINE
  5
11A
330
106
100
AcDbEntity
  8
0
  6
Continuous
 62
     7
370
    15
100
AcDbLine
 10
6.2906614812
 20
3.8272154537
 30
0.0
 11
5.9398811011
 21
4.3428141483
 31
0.0
  0
LINE
  5
11B
330
106
100
AcDbEntity
  8
0
  6
Continuous
 62
     7
370
    15
100
AcDbLine
 10
5.3520717333
 20
4.7683907542
 30
0.0
 11
-4.002071734
 21
5.9469020557
 31
0.0
  0
LINE
  5
11C
330
106
100
AcDbEntity
  8
0
  6
Continuous
 62
     7
370
    15
100
AcDbLine
 10
-5.3520717333
 20
-4.7683907542
 30
0.0
 11
4.0020717339
 21
-5.9469020557
 31
0.0
  0
LINE
  5
11D
330
106
100
AcDbEntity
  8
0
  6
Continuous
 62
     7
370
    15
100
AcDbLine
 10
-4.6770717337
 20
5.6804244754
 30
0.0
 11
-5.144778907
 21
5.2679455197
 31
0.0
  0
LINE
  5
11E
330
106
100
AcDbEntity
  8
0
  6
Continuous
 62
     7
370
    15
100
AcDbLine
 10
-6.2906614812
 20
-3.8272154537
 30
0.0
 11
-5.9398811011
 21
-4.3428141483
 31
0.0
  0
ARC
  5
11F
330
106
100
AcDbEntity
  8
0
  6
Continuous
 62
     7
370
    15
100
AcDbCircle
 10
2.5706494604
 20
-0.2241848494
 30
0.0
 40
9.470550717019536
100
AcDbArc
 50
144.5553171386
 51
183.9687381409
  0
ARC
  5
120
330
106
100
AcDbEntity
  8
0
  6
Continuous
 62
     7
370
    15
100
AcDbCircle
 10
-1.1660373267
 20
-1.2753415852
 30
0.0
 40
5.724843488346293
100
AcDbArc
 50
176.036774335
 51
206.4716117477
  0
VIEWPORT
  5
129
330
106
100
AcDbEntity
  8
0
100
AcDbViewport
 10
0.0
 20
0.0
 30
0.0
 40
243.84
 41
204.216
 68
     1
 69
     1
 12
0.0
 22
0.0139192764
 13
0.0
 23
0.0
 14
10.0
 24
10.0
 15
10.0
 25
10.0
 16
0.0
 26
0.0
 36
1.0
 17
0.0
 27
0.0
 37
0.0
 42
50.0
 43
0.0
 44
0.0
 45
13.8369931816
 50
0.0
 51
0.0
 72
   100
 90
   557152
  1

281
     0
 71
     1
 74
     0
110
0.0
120
0.0
130
0.0
111
1.0
121
0.0
131
0.0
112
0.0
122
1.0
132
0.0
 79
     0
146
0.0
  0
ENDBLK
  5
109
330
106
100
AcDbEntity
  8
0
100
AcDbBlockEnd
  0
ENDSEC
  0
SECTION
  2
ENTITIES
  0
LWPOLYLINE
  5
4A
330
1F
100
AcDbEntity
  8
0
  6
Continuous
 62
     7
370
    15
100
AcDbPolyline
 90
       81
 70
   128
 43
0.0
 10
0.4112676417
 20
-6.1301685923
 10
0.2911520717
 20
-6.0015314432
 10
0.1785921139
 20
-5.8626093259
 10
0.073858935
 20
-5.7137369159
 10
-0.0227951536
 20
-5.5552728598
 10
-0.1111373036
 20
-5.3875989116
 10
-0.1909546912
 20
-5.2111190123
 10
-0.2620550291
 20
-5.0262583176
 10
-0.3242670306
 20
-4.833462173
 10
-0.3774408214
 20
-4.6331950414
 10
-0.4214483012
 20
-4.4259393838
 10
-0.4561834522
 20
-4.2121944972
 10
-0.4815625943
 20
-3.9924753118
 10
-0.4975245869
 20
-3.7673111503
 10
-0.5040309762
 20
-3.537244453
 10
-0.5010660878
 20
-3.3028294706
 10
-0.4886370642
 20
-3.0646309295
 10
-0.4667738482
 20
-2.8232226707
 10
-0.4355291102
 20
-2.5791862678
 10
-0.3949781213
 20
-2.333109626
 10
-0.3452185726
 20
-2.0855855655
 10
-0.2863703392
 20
-1.8372103933
 10
-0.2185751915
 20
-1.588582467
 10
-0.141996454
 20
-1.3403007531
 10
-0.0568186117
 20
-1.092963384
 10
0.0367531347
 20
-0.847166217
 10
0.1384933625
 20
-0.6035013991
 10
0.2481569707
 20
-0.3625559401
 10
0.3654797699
 20
-0.1249102988
 10
0.4901791194
 20
0.1088630157
 10
0.6219546075
 20
0.338200823
 10
0.7604887754
 20
0.5625506282
 10
0.9054478822
 20
0.7813719529
 10
1.0564827087
 20
0.9941376376
 10
1.2132293989
 20
1.2003351109
 10
1.3753103362
 20
1.3994676251
 10
1.5423350533
 20
1.5910554525
 10
1.7139011733
 20
1.7746370413
 10
1.8895953782
 20
1.9497701274
 10
2.0689944052
 20
2.1160327997
 10
2.2516660666
 20
2.2730245171
 10
2.4371702901
 20
2.4203670726
 10
2.62506018
 20
2.5577055051
 10
2.8148830929
 20
2.6847089544
 10
3.0061817289
 20
2.801071458
 10
3.1984952327
 20
2.9065126884
 10
3.3913603044
 20
3.0007786285
 10
3.5843123151
 20
3.0836421833
 10
3.7768864264
 20
3.1549037274
 10
3.9686187105
 20
3.2143915854
 10
4.1590472675
 20
3.2619624458
 10
4.3477133384
 20
3.2975017063
 10
4.53416241
 20
3.3209237497
 10
4.7179453102
 20
3.3321721502
 10
4.8986192898
 20
3.3312198094
 10
5.0757490895
 20
3.3180690217
 10
5.2489079881
 20
3.2927514684
 10
5.4176788306
 20
3.2553281417
 10
5.5816550332
 20
3.2058891978
 10
5.7404415629
 20
3.1445537392
 10
5.8936558891
 20
3.0714695286
 10
6.0409289051
 20
2.9868126322
 10
6.1819058171
 20
2.8907869959
 10
6.3162469996
 20
2.7836239538
 10
6.4436288128
 20
2.6655816711
 10
6.5637443828
 20
2.5369445221
 10
6.6763043406
 20
2.3980224048
 10
6.7810375195
 20
2.2491499947
 10
6.877691608
 20
2.0906859387
 10
6.9660337581
 20
1.9230119905
 10
7.0458511456
 20
1.7465320912
 10
7.1169514836
 20
1.5616713965
 10
7.179163485
 20
1.3688752519
 10
7.2323372759
 20
1.1686081203
 10
7.2763447557
 20
0.9613524626
 10
7.3110799066
 20
0.7476075761
 10
7.3364590487
 20
0.5278883906
 10
7.3524210413
 20
0.3027242292
 10
7.3589274306
 20
0.0726575319
 10
7.3559625422
 20
-0.1617574505
 10
7.3454916245
 20
-0.3716739741
  0
LWPOLYLINE
  5
4C
330
1F
100
AcDbEntity
  8
0
  6
Continuous
 62
     7
370
    15
100
AcDbPolyline
 90
      123
 70
   128
 43
0.0
 10
1.0332884445
 20
-5.896187278
 10
1.1547255271
 20
-6.0083148657
 10
1.2830983594
 20
-6.1095625864
 10
1.4180665197
 20
-6.1996619494
 10
1.5592720967
 20
-6.2783740273
 10
1.7063406387
 20
-6.3454900899
 10
1.8588821462
 20
-6.4008321574
 10
2.0164921066
 20
-6.4442534727
 10
2.1787525667
 20
-6.4756388901
 10
2.3452332408
 20
-6.4949051813
 10
2.5154926522
 20
-6.5020012554
 10
2.6890793035
 20
-6.496908295
 10
2.8655328741
 20
-6.4796398057
 10
3.0443854408
 20
-6.4502415804
 10
3.2251627189
 20
-6.4087915779
 10
3.4073853194
 20
-6.3553997161
 10
3.5905700208
 20
-6.2902075808
 10
3.7742310501
 20
-6.2133880496
 10
3.9578813714
 20
-6.1251448343
 10
4.1410339771
 20
-6.0257119399
 10
4.3232031792
 20
-5.9153530446
 10
4.5039058979
 20
-5.7943608004
 10
4.6826629421
 20
-5.6630560569
 10
4.8590002801
 20
-5.5217870107
 10
5.032450297
 20
-5.3709282819
 10
5.2025530347
 20
-5.2108799208
 10
5.3688574112
 20
-5.0420663469
 10
5.5309224172
 20
-4.8649352233
 10
5.6883182854
 20
-4.67995627
 10
5.8406276304
 20
-4.4876200179
 10
5.987446555
 20
-4.2884365082
 10
6.1283857219
 20
-4.0829339397
 10
6.2630713858
 20
-3.8716572684
 10
6.3911463845
 20
-3.6551667619
 10
6.5122710861
 20
-3.4340365141
 10
6.6261242897
 20
-3.2088529228
 10
6.7324040771
 20
-2.9802131343
 10
6.8308286133
 20
-2.7487234603
 10
6.9211368942
 20
-2.5149977697
 10
7.0030894385
 20
-2.2796558611
 10
7.0764689228
 20
-2.0433218189
 10
7.1410807578
 20
-1.8066223584
 10
7.1967536046
 20
-1.5701851642
 10
7.2433398288
 20
-1.3346372251
 10
7.2807158921
 20
-1.100603172
 10
7.3087826799
 20
-0.868703621
 10
7.3274657641
 20
-0.6395535281
 10
7.3367156006
 20
-0.4137605582
 10
7.3365076605
 20
-0.1919234736
 10
7.3268424951
 20
0.0253694537
 10
7.3077457347
 20
0.2375420018
 10
7.2792680206
 20
0.4440315273
 10
7.2414848705
 20
0.644290457
 10
7.1944964785
 20
0.8377877404
 10
7.1384274494
 20
1.0240102574
 10
7.0734264682
 20
1.2024641793
 10
6.9996659058
 20
1.3726762784
 10
6.9173413619
 20
1.5341951829
 10
6.8266711465
 20
1.6865925737
 10
6.7278957006
 20
1.8294643202
 10
6.621276959
 20
1.9624315523
 10
6.5070976554
 20
2.0851416648
 10
6.3856605728
 20
2.1972692524
 10
6.2572877405
 20
2.2985169732
 10
6.1223195802
 20
2.3886163361
 10
5.9811140032
 20
2.4673284141
 10
5.8340454612
 20
2.5344444766
 10
5.6815039537
 20
2.5897865442
 10
5.5238939933
 20
2.6332078594
 10
5.3616335332
 20
2.6645932769
 10
5.1951528591
 20
2.683859568
 10
5.0248934477
 20
2.6909556422
 10
4.8513067964
 20
2.6858626818
 10
4.6748532258
 20
2.6685941924
 10
4.4960006591
 20
2.6391959671
 10
4.315223381
 20
2.5977459646
 10
4.1330007805
 20
2.5443541029
 10
3.9498160791
 20
2.4791619675
 10
3.7661550498
 20
2.4023424364
 10
3.5825047284
 20
2.3140992211
 10
3.3993521228
 20
2.2146663267
 10
3.2171829207
 20
2.1043074314
 10
3.036480202
 20
1.9833151872
 10
2.8577231578
 20
1.8520104437
 10
2.6813858198
 20
1.7107413975
 10
2.5079358028
 20
1.5598826687
 10
2.3378330652
 20
1.3998343076
 10
2.1715286887
 20
1.2310207336
 10
2.0094636827
 20
1.0538896101
 10
1.8520678145
 20
0.8689106568
 10
1.6997584695
 20
0.6765744047
 10
1.5529395449
 20
0.477390895
 10
1.412000378
 20
0.2718883265
 10
1.2773147141
 20
0.0606116551
 10
1.1492397154
 20
-0.1558788514
 10
1.0281150138
 20
-0.3770090991
 10
0.9142618102
 20
-0.6021926904
 10
0.8079820228
 20
-0.8308324789
 10
0.7095574866
 20
-1.0623221529
 10
0.6192492056
 20
-1.2960478435
 10
0.5372966613
 20
-1.5313897522
 10
0.4639171771
 20
-1.7677237944
 10
0.3993053421
 20
-2.0044232548
 10
0.3436324953
 20
-2.240860449
 10
0.2970462711
 20
-2.4764083881
 10
0.2596702078
 20
-2.7104424413
 10
0.23160342
 20
-2.9423419922
 10
0.2129203358
 20
-3.1714920851
 10
0.2036704993
 20
-3.3972850551
 10
0.2038784394
 20
-3.6191221397
 10
0.2135436048
 20
-3.8364150669
 10
0.2326403652
 20
-4.048587615
 10
0.2611180793
 20
-4.2550771405
 10
0.2989012294
 20
-4.4553360703
 10
0.3458896214
 20
-4.6488333536
 10
0.4019586505
 20
-4.8350558706
 10
0.4669596317
 20
-5.0135097925
 10
0.5407201941
 20
-5.1837218917
 10
0.623044738
 20
-5.3452407962
 10
0.7137149534
 20
-5.4976381869
 10
0.8124903993
 20
-5.6405099334
 10
0.9191091409
 20
-5.7734771655
 10
1.0332884445
 20
-5.896187278
  0
SPLINE
  5
4D
330
1F
100
AcDbEntity
  8
0
  6
Continuous
 62
     7
370
    15
100
AcDbSpline
210
0.0
220
0.0
230
1.0
 70
     8
 71
     3
 72
    56
 73
    52
 74
     0
 42
0.00000001
 43
0.00000001
 12
1.0
 22
0.0
 32
0.0
 13
1.0
 23
0.0
 33
0.0
 40
-0.03125
 40
-0.03125
 40
0.0
 40
0.0
 40
0.03125
 40
0.03125
 40
0.0625000000000001
 40
0.0625000000000001
 40
0.0937500000000001
 40
0.0937500000000001
 40
0.1250000000000002
 40
0.1250000000000002
 40
0.1875000000000002
 40
0.1875000000000002
 40
0.2500000000000003
 40
0.2500000000000003
 40
0.2812500000000003
 40
0.2812500000000003
 40
0.3125000000000003
 40
0.3125000000000003
 40
0.3750000000000004
 40
0.3750000000000004
 40
0.4062500000000005
 40
0.4062500000000005
 40
0.4375000000000006
 40
0.4375000000000006
 40
0.4687500000000007
 40
0.4687500000000007
 40
0.5000000000000008
 40
0.5000000000000008
 40
0.5625000000000008
 40
0.5625000000000008
 40
0.5937500000000007
 40
0.5937500000000007
 40
0.6250000000000006
 40
0.6250000000000006
 40
0.6562500000000006
 40
0.6562500000000006
 40
0.6875000000000004
 40
0.6875000000000004
 40
0.7500000000000003
 40
0.7500000000000003
 40
0.7812500000000002
 40
0.7812500000000002
 40
0.8125000000000002
 40
0.8125000000000002
 40
0.875
 40
0.875
 40
0.9374999999999999
 40
0.9374999999999999
 40
0.96875
 40
0.96875
 40
1.0
 40
1.0
 40
1.03125
 40
1.03125
 10
-1.443772133987184
 20
0.2748640243550168
 30
0.0
 10
-1.307186551702356
 20
0.205831235144736
 30
0.0
 10
-1.235957796013434
 20
0.1812655834387065
 30
0.0
 10
-1.087726585493895
 20
0.1509578445299162
 30
0.0
 10
-1.009808143348048
 20
0.1453290123720073
 30
0.0
 10
-0.8526798715687308
 20
0.1532486376827368
 30
0.0
 10
-0.7735322222925435
 20
0.1665085526754361
 30
0.0
 10
-0.6133049486215516
 20
0.2107951196030526
 30
0.0
 10
-0.5321652367397913
 20
0.2420799552304848
 30
0.0
 10
-0.2946819619551376
 20
0.3579527366857564
 30
0.0
 10
-0.1379719885182641
 20
0.4677000540865413
 30
0.0
 10
0.1481897579938131
 20
0.7274268654737258
 30
0.0
 10
0.2808259099406745
 20
0.8802192779538913
 30
0.0
 10
0.4457790017516629
 20
1.120542461709945
 30
0.0
 10
0.4961390411947788
 20
1.204075173895284
 30
0.0
 10
0.5823332024406344
 20
1.369534016211428
 30
0.0
 10
0.6187753423123127
 20
1.452179598186235
 30
0.0
 10
0.7073620105921865
 20
1.70051217958608
 30
0.0
 10
0.736370802322761
 20
1.860328987246708
 30
0.0
 10
0.7294046678176406
 20
2.082413011049204
 30
0.0
 10
0.7187636427360616
 20
2.152320170322824
 30
0.0
 10
0.6803645295833552
 20
2.284902519601328
 30
0.0
 10
0.6521263248244537
 20
2.348096342186851
 30
0.0
 10
0.5794609592760921
 20
2.462690675271918
 30
0.0
 10
0.5350630118737965
 20
2.514647815686229
 30
0.0
 10
0.4292922956215195
 20
2.608148274538836
 30
0.0
 10
0.3678960241724718
 20
2.649341054122679
 30
0.0
 10
0.166071480945913
 20
2.751478048928052
 30
0.0
 10
0.0024943192359185
 20
2.79345937974482
 30
0.0
 10
-0.2601471188305471
 20
2.809690703053203
 30
0.0
 10
-0.3521925284791134
 20
2.807435205844369
 30
0.0
 10
-0.536404234644338
 20
2.787182186058175
 30
0.0
 10
-0.6288640888103193
 20
2.769385236872533
 30
0.0
 10
-0.813958896826256
 20
2.717650183774958
 30
0.0
 10
-0.9062969814497004
 20
2.683572327746093
 30
0.0
 10
-1.082809961540241
 20
2.601129708014922
 30
0.0
 10
-1.168000653283799
 20
2.552529505135365
 30
0.0
 10
-1.413206941458524
 20
2.382435832148039
 30
0.0
 10
-1.554263538567448
 20
2.2421289741769
 30
0.0
 10
-1.720084242053813
 20
2.000539837371323
 30
0.0
 10
-1.766776024396978
 20
1.916372247099829
 30
0.0
 10
-1.843391327309078
 20
1.740995290310699
 30
0.0
 10
-1.873224323704153
 20
1.649251942074092
 30
0.0
 10
-1.933958931697699
 20
1.375768720098717
 30
0.0
 10
-1.937644308848196
 20
1.188775172813483
 30
0.0
 10
-1.877135662282456
 20
0.843644041915862
 30
0.0
 10
-1.812552177984079
 20
0.6822495093627994
 30
0.0
 10
-1.67585235360502
 20
0.4824533531171435
 30
0.0
 10
-1.622766009770208
 20
0.4216529461717278
 30
0.0
 10
-1.506857009821355
 20
0.3181871244587035
 30
0.0
 10
-1.443772133987184
 20
0.2748640243550168
 30
0.0
 10
-1.307186551702356
 20
0.205831235144736
 30
0.0
  0
LWPOLYLINE
  5
4E
330
1F
100
AcDbEntity
  8
0
  6
Continuous
 62
     7
370
    15
100
AcDbPolyline
 90
       66
 70
   128
 43
0.0
 10
-0.9916287526
 20
6.5517107995
 10
-1.1144548915
 20
6.6091406604
 10
-1.2732414212
 20
6.6704761189
 10
-1.4372176238
 20
6.7199150629
 10
-1.6059884663
 20
6.7573383895
 10
-1.7791473649
 20
6.7826559428
 10
-1.9562771646
 20
6.7958067306
 10
-2.1369511443
 20
6.7967590713
 10
-2.3207340445
 20
6.7855106708
 10
-2.507183116
 20
6.7620886274
 10
-2.6958491869
 20
6.7265493669
 10
-2.8862777439
 20
6.6789785065
 10
-3.078010028
 20
6.6194906485
 10
-3.2705841393
 20
6.5482291045
 10
-3.46353615
 20
6.4653655496
 10
-3.6564012217
 20
6.3710996095
 10
-3.8487147256
 20
6.2656583791
 10
-4.0400133616
 20
6.1492958755
 10
-4.2298362745
 20
6.0222924262
 10
-4.4177261643
 20
5.8849539937
 10
-4.6032303879
 20
5.7376114382
 10
-4.7859020492
 20
5.5806197209
 10
-4.9653010763
 20
5.4143570485
 10
-5.1409952812
 20
5.2392239624
 10
-5.3125614011
 20
5.0556423736
 10
-5.4795861183
 20
4.8640545462
 10
-5.6416670555
 20
4.664922032
 10
-5.7984137457
 20
4.4587245587
 10
-5.9494485722
 20
4.2459588741
 10
-6.0944076791
 20
4.0271375493
 10
-6.232941847
 20
3.8027877441
 10
-6.364717335
 20
3.5734499368
 10
-6.4894166845
 20
3.3396766223
 10
-6.6067394838
 20
3.102030981
 10
-6.7164030919
 20
2.8610855221
 10
-6.8181433197
 20
2.6174207041
 10
-6.9117150661
 20
2.3716235372
 10
-6.9968929084
 20
2.124286168
 10
-7.0734716459
 20
1.8760044541
 10
-7.1412667936
 20
1.6273765279
 10
-7.2001150271
 20
1.3790013557
 10
-7.2498745758
 20
1.1314772951
 10
-7.2904255646
 20
0.8854006533
 10
-7.3216703027
 20
0.6413642505
 10
-7.3435335187
 20
0.3999559916
 10
-7.3559625422
 20
0.1617574505
 10
-7.3589274306
 20
-0.0726575319
 10
-7.3524210413
 20
-0.3027242292
 10
-7.3364590487
 20
-0.5278883906
 10
-7.3110799066
 20
-0.7476075761
 10
-7.2763447557
 20
-0.9613524626
 10
-7.2323372758
 20
-1.1686081203
 10
-7.179163485
 20
-1.3688752519
 10
-7.1169514836
 20
-1.5616713965
 10
-7.0458511456
 20
-1.7465320912
 10
-6.966033758
 20
-1.9230119905
 10
-6.877691608
 20
-2.0906859387
 10
-6.7810375195
 20
-2.2491499947
 10
-6.6763043406
 20
-2.3980224048
 10
-6.5637443828
 20
-2.5369445221
 10
-6.4436288128
 20
-2.6655816712
 10
-6.3162469996
 20
-2.7836239538
 10
-6.1819058171
 20
-2.8907869959
 10
-6.0409289051
 20
-2.9868126322
 10
-5.8936558891
 20
-3.0714695286
 10
-5.8632677018
 20
-3.0871238784
  0
LWPOLYLINE
  5
4F
330
1F
100
AcDbEntity
  8
0
  6
Continuous
 62
     7
370
    15
100
AcDbPolyline
 90
       97
 70
   128
 43
0.0
 10
2.0945371691
 20
-4.3487867687
 10
2.0064878133
 20
-4.2522213397
 10
1.9259909142
 20
-4.1456069874
 10
1.8533911717
 20
-4.0294002507
 10
1.7889994692
 20
-3.9040987447
 10
1.7330915417
 20
-3.7702390297
 10
1.6859067956
 20
-3.6283943135
 10
1.6476472832
 20
-3.4791719971
 10
1.6184768377
 20
-3.3232110733
 10
1.5985203713
 20
-3.1611793906
 10
1.5878633408
 20
-2.9937707937
 10
1.5865513811
 20
-2.8217021518
 10
1.5945901102
 20
-2.6457102894
 10
1.6119451052
 20
-2.4665488304
 10
1.6385420492
 20
-2.284984972
 10
1.67426705
 20
-2.1017961982
 10
1.7189671278
 20
-1.9177669517
 10
1.7724508698
 20
-1.7336852739
 10
1.8344892506
 20
-1.5503394307
 10
1.9048166122
 20
-1.3685145373
 10
1.9831318021
 20
-1.1889891958
 10
2.0690994626
 20
-1.0125321612
 10
2.162351467
 20
-0.8398990496
 10
2.2624884959
 20
-0.6718291026
 10
2.3690817471
 20
-0.5090420213
 10
2.4816747721
 20
-0.3522348852
 10
2.5997854302
 20
-0.2020791665
 10
2.7229079533
 20
-0.0592178549
 10
2.8505151121
 20
0.0757372954
 10
2.9820604729
 20
0.2022083858
 10
3.1169807385
 20
0.3196538476
 10
3.2546981594
 20
0.4275707614
 10
3.3946230086
 20
0.5254970104
 10
3.5361561064
 20
0.6130132592
 10
3.6786913863
 20
0.68974475
 10
3.8216184904
 20
0.7553629067
 10
3.9643253828
 20
0.8095867423
 10
4.1062009708
 20
0.8521840619
 10
4.2466377213
 20
0.8829724573
 10
4.3850342626
 20
0.901820088
 10
4.5207979594
 20
0.9086462453
 10
4.6533474507
 20
0.9034216988
 10
4.7821151393
 20
0.8861688206
 10
4.9065496222
 20
0.8569614903
 10
5.0261180518
 20
0.8159247781
 10
5.1403084177
 20
0.7632344096
 10
5.2486317392
 20
0.699116013
 10
5.3506241593
 20
0.623844153
 10
5.4458489308
 20
0.5377411554
 10
5.5338982865
 20
0.4411757265
 10
5.6143951857
 20
0.3345613741
 10
5.6869949282
 20
0.2183546374
 10
5.7513866307
 20
0.0930531314
 10
5.8072945582
 20
-0.0408065836
 10
5.8544793043
 20
-0.1826512997
 10
5.8927388166
 20
-0.3318736161
 10
5.9219092622
 20
-0.48783454
 10
5.9418657285
 20
-0.6498662226
 10
5.9525227591
 20
-0.8172748195
 10
5.9538347188
 20
-0.9893434614
 10
5.9457959896
 20
-1.1653353239
 10
5.9284409947
 20
-1.3444967828
 10
5.9018440507
 20
-1.5260606413
 10
5.8661190499
 20
-1.709249415
 10
5.8214189721
 20
-1.8932786615
 10
5.7679352301
 20
-2.0773603394
 10
5.7058968493
 20
-2.2607061825
 10
5.6355694877
 20
-2.4425310759
 10
5.5572542978
 20
-2.6220564174
 10
5.4712866373
 20
-2.7985134521
 10
5.3780346329
 20
-2.9711465636
 10
5.277897604
 20
-3.1392165107
 10
5.1713043527
 20
-3.3020035919
 10
5.0587113278
 20
-3.458810728
 10
4.9406006697
 20
-3.6089664467
 10
4.8174781465
 20
-3.7518277583
 10
4.6898709878
 20
-3.8867829086
 10
4.558325627
 20
-4.013253999
 10
4.4234053614
 20
-4.1306994609
 10
4.2856879405
 20
-4.2386163746
 10
4.1457630913
 20
-4.3365426236
 10
4.0042299935
 20
-4.4240588725
 10
3.8616947136
 20
-4.5007903633
 10
3.7187676095
 20
-4.5664085199
 10
3.576060717
 20
-4.6206323555
 10
3.4341851291
 20
-4.6632296751
 10
3.2937483786
 20
-4.6940180706
 10
3.1553518373
 20
-4.7128657012
 10
3.0195881405
 20
-4.7196918585
 10
2.8870386492
 20
-4.714467312
 10
2.7582709606
 20
-4.6972144338
 10
2.6338364777
 20
-4.6680071035
 10
2.5142680481
 20
-4.6269703914
 10
2.4000776822
 20
-4.5742800228
 10
2.2917543607
 20
-4.5101616262
 10
2.1897619405
 20
-4.4348897663
 10
2.0945371691
 20
-4.3487867687
  0
SPLINE
  5
50
330
1F
100
AcDbEntity
  8
0
  6
Continuous
 62
     7
370
    15
100
AcDbSpline
210
0.0
220
0.0
230
1.0
 70
     8
 71
     3
 72
    16
 73
    12
 74
     0
 42
0.00000001
 43
0.00000001
 12
1.0
 22
0.0
 32
0.0
 13
1.0
 23
0.0
 33
0.0
 40
0.0
 40
0.0
 40
0.0
 40
0.0
 40
0.0453789252666158
 40
0.2031397598312263
 40
0.2851026116368467
 40
0.3670636401687388
 40
0.5058084988255466
 40
0.6485615622703379
 40
0.788517802478575
 40
0.9317405083798599
 40
1.0
 40
1.0
 40
1.0
 40
1.0
 10
-0.5079561120734863
 20
0.259816232122865
 30
0.0
 10
-0.5035684925777955
 20
0.2826208448251387
 30
0.0
 10
-0.4839272171322263
 20
0.3847061965642198
 30
0.0
 10
-0.4308130471084597
 20
0.5229748284068972
 30
0.0
 10
-0.3526989345583541
 20
0.6694687585235528
 30
0.0
 10
-0.2649996543718965
 20
0.7995509986154994
 30
0.0
 10
-0.1389258478891469
 20
0.9410964804723355
 30
0.0
 10
0.032974013193899
 20
1.07977265113983
 30
0.0
 10
0.2271196450793906
 20
1.189968162141905
 30
0.0
 10
0.3977823888749117
 20
1.262547289691209
 30
0.0
 10
0.5057080773639373
 20
1.287417370570192
 30
0.0
 10
0.5405429368242386
 20
1.295444613984755
 30
0.0
  0
LWPOLYLINE
  5
51
330
1F
100
AcDbEntity
  8
0
  6
Continuous
 62
     7
370
    15
100
AcDbPolyline
 90
       61
 70
   128
 43
0.0
 10
2.0310683265
 20
-3.7683467623
 10
2.1189592383
 20
-3.8470116756
 10
2.2136720058
 20
-3.9146514274
 10
2.3147128405
 20
-3.9709133752
 10
2.4215549623
 20
-4.0155041953
 10
2.5336413458
 20
-4.0481914119
 10
2.6503876246
 20
-4.0688046089
 10
2.7711851375
 20
-4.0772363187
 10
2.8954041022
 20
-4.0734425822
 10
3.0223968987
 20
-4.0574431782
 10
3.1515014453
 20
-4.0293215202
 10
3.2820446506
 20
-3.9892242215
 10
3.4133459228
 20
-3.9373603309
 10
3.5447207179
 20
-3.8740002426
 10
3.6754841086
 20
-3.7994742869
 10
3.804954355
 20
-3.7141710075
 10
3.9324564592
 20
-3.6185351362
 10
4.0573256844
 20
-3.5130652743
 10
4.1789110202
 20
-3.3983112927
 10
4.2965785769
 20
-3.2748714655
 10
4.4097148904
 20
-3.1433893509
 10
4.5177301204
 20
-3.0045504357
 10
4.6200611254
 20
-2.8590785618
 10
4.716174399
 20
-2.707732152
 10
4.805568851
 20
-2.5513002566
 10
4.8877784203
 20
-2.390598439
 10
4.9623745041
 20
-2.226464524
 10
5.028968193
 20
-2.05975423
 10
5.0872122983
 20
-1.8913367071
 10
5.1368031624
 20
-1.7220900063
 10
5.1774822413
 20
-1.5528965017
 10
5.2090374531
 20
-1.3846382897
 10
5.2313042837
 20
-1.2181925908
 10
5.2441666441
 20
-1.0544271758
 10
5.2475574758
 20
-0.8941958417
 10
5.2414591007
 20
-0.7383339606
 10
5.2259033129
 20
-0.587654124
 10
5.200971213
 20
-0.442941907
 10
5.1667927854
 20
-0.3049517719
 10
5.1235462207
 20
-0.1744031354
 10
5.0714569864
 20
-0.0519766178
 10
5.0107966517
 20
0.0616895059
 10
4.9418814714
 20
0.166002633
 10
4.8650707375
 20
0.2604189233
 10
4.7807649054
 20
0.3444461339
 10
4.6894035068
 20
0.4176461859
 10
4.5914628578
 20
0.4796374481
 10
4.4874535754
 20
0.5300967267
 10
4.3779179159
 20
0.5687609505
 10
4.2634269476
 20
0.595428542
 10
4.1445775734
 20
0.6099604688
 10
4.0219894187
 20
0.6122809682
 10
3.8963016016
 20
0.6023779421
 10
3.7681694001
 20
0.5803030204
 10
3.6382608362
 20
0.5461712914
 10
3.507253193
 20
0.5001607022
 10
3.3758294836
 20
0.4425111308
 10
3.2446748904
 20
0.3735231352
 10
3.1144731928
 20
0.2935563869
 10
2.9859032021
 20
0.2030277956
 10
2.9693102508
 20
0.1904815719
  0
LINE
  5
54
330
1F
100
AcDbEntity
  8
0
  6
Continuous
 62
     7
370
    15
100
AcDbLine
 10
4.6555584484
 20
-5.6938707644
 30
0.0
 11
4.8845893618
 21
-5.5002873972
 31
0.0
  0
LINE
  5
55
330
1F
100
AcDbEntity
  8
0
  6
Continuous
 62
     7
370
    15
100
AcDbLine
 10
7.3254546512
 20
-0.670886606
 30
0.0
 11
7.3454916245
 21
-0.3716739741
 31
0.0
  0
LINE
  5
56
330
1F
100
AcDbEntity
  8
0
  6
Continuous
 62
     7
370
    15
100
AcDbLine
 10
-5.8632677018
 20
-3.0871238784
 30
0.0
 11
0.9916287526
 21
-6.5517107995
 31
0.0
  0
LINE
  5
57
330
1F
100
AcDbEntity
  8
0
  6
Continuous
 62
     7
370
    15
100
AcDbLine
 10
5.8632677018
 20
3.0871238784
 30
0.0
 11
-0.9916287526
 21
6.5517107995
 31
0.0
  0
LINE
  5
58
330
1F
100
AcDbEntity
  8
0
  6
Continuous
 62
     7
370
    15
100
AcDbLine
 10
-4.6555584484
 20
5.6938707644
 30
0.0
 11
-4.8845893618
 21
5.5002873971
 31
0.0
  0
LINE
  5
59
330
1F
100
AcDbEntity
  8
0
  6
Continuous
 62
     7
370
    15
100
AcDbLine
 10
-7.3254546512
 20
0.670886606
 30
0.0
 11
-7.3454916245
 21
0.3716739741
 31
0.0
  0
ARC
  5
5A
330
1F
100
AcDbEntity
  8
0
  6
Continuous
 62
     7
370
    15
100
AcDbCircle
 10
2.3012417656
 20
-3.6534651681
 30
0.0
 40
3.11545535043123
100
AcDbArc
 50
232.6527218087
 51
319.0856472921
  0
ARC
  5
5B
330
1F
100
AcDbEntity
  8
0
  6
Continuous
 62
     7
370
    15
100
AcDbCircle
 10
3.3314637289
 20
-2.6296950908
 30
0.0
 40
1.72845475249188
100
AcDbArc
 50
175.820933118
 51
221.2060246883
  0
ARC
  5
5C
330
1F
100
AcDbEntity
  8
0
  6
Continuous
 62
     7
370
    15
100
AcDbCircle
 10
-0.1406441458
 20
0.0710840596
 30
0.0
 40
7.209803401810024
100
AcDbArc
 50
131.1464066509
 51
175.2278976352
  0
SPLINE
  5
6A
330
1B
100
AcDbEntity
 67
     1
  8
0
  6
Continuous
 62
     7
370
    15
100
AcDbSpline
210
0.0
220
0.0
230
1.0
 70
     8
 71
     3
 72
    17
 73
    13
 74
     0
 42
0.00000001
 43
0.00000001
 12
1.0
 22
0.0
 32
0.0
 13
1.0
 23
0.0
 33
0.0
 40
0.0
 40
0.0
 40
0.0
 40
0.0
 40
0.1030097247398814
 40
0.2090836623297957
 40
0.312072541218665
 40
0.4179142884158537
 40
0.5234273582081028
 40
0.6318918173448135
 40
0.7391180418791348
 40
0.8496046360325984
 40
0.9541450565204498
 40
1.0
 40
1.0
 40
1.0
 40
1.0
 10
-2.749999999999997
 20
-5.18748493974172
 30
0.0
 10
-2.831306831391749
 20
-5.188601758043008
 30
0.0
 10
-2.996339114729526
 20
-5.190868616450596
 30
0.0
 10
-3.235572334927622
 20
-5.208561538980835
 30
0.0
 10
-3.462921363566054
 20
-5.234731586050446
 30
0.0
 10
-3.670140224275663
 20
-5.267280770030879
 30
0.0
 10
-3.855406133203322
 20
-5.303072504411965
 30
0.0
 10
-4.010623380226672
 20
-5.337892815252907
 30
0.0
 10
-4.133150188584547
 20
-5.368423047642826
 30
0.0
 10
-4.212204021959407
 20
-5.389521029065215
 30
0.0
 10
-4.250108934053645
 20
-5.40002900926797
 30
0.0
 10
-4.245962811907122
 20
-5.398880274967639
 30
0.0
 10
-4.244698675888079
 20
-5.398530030485195
 30
0.0
  0
SPLINE
  5
6B
330
1B
100
AcDbEntity
 67
     1
  8
0
  6
Continuous
 62
     7
370
    15
100
AcDbSpline
210
0.0
220
0.0
230
1.0
 70
     8
 71
     3
 72
    17
 73
    13
 74
     0
 42
0.00000001
 43
0.00000001
 12
1.0
 22
0.0
 32
0.0
 13
1.0
 23
0.0
 33
0.0
 40
0.0
 40
0.0
 40
0.0
 40
0.0
 40
0.0714522352708117
 40
0.1771236701596832
 40
0.2790477207022599
 40
0.3837726305893078
 40
0.4886117743072164
 40
0.5963476498813252
 40
0.7036053440047257
 40
0.8140785511028268
 40
0.9059683279466412
 40
1.0
 40
1.0
 40
1.0
 40
1.0
 10
-1.254161003961299
 20
-5.398846724972465
 30
0.0
 10
-1.25436196526092
 20
-5.398788868870421
 30
0.0
 10
-1.254860130263233
 20
-5.398645448792711
 30
0.0
 10
-1.30187371267927
 20
-5.385687770331709
 30
0.0
 10
-1.387422819540546
 20
-5.363150157228146
 30
0.0
 10
-1.509817386899664
 20
-5.333093989476501
 30
0.0
 10
-1.667328005432148
 20
-5.298356962558467
 30
0.0
 10
-1.856088231430238
 20
-5.262675979241959
 30
0.0
 10
-2.073920907181956
 20
-5.22966647099259
 30
0.0
 10
-2.300683429482041
 20
-5.205357997460311
 30
0.0
 10
-2.529059082632347
 20
-5.19024478526351
 30
0.0
 10
-2.675789561428912
 20
-5.188411926689183
 30
0.0
 10
-2.749999999999997
 20
-5.18748493974172
 30
0.0
  0
LINE
  5
6C
330
1B
100
AcDbEntity
 67
     1
  8
0
  6
Continuous
 62
     7
370
    15
100
AcDbLine
 10
5.0
 20
-5.4
 30
0.0
 11
5.5
 21
-4.9
 31
0.0
  0
LINE
  5
6D
330
1B
100
AcDbEntity
 67
     1
  8
0
  6
Continuous
 62
     7
370
    15
100
AcDbLine
 10
5.5
 20
4.9
 30
0.0
 11
5.0
 21
5.4
 31
0.0
  0
LINE
  5
6E
330
1B
100
AcDbEntity
 67
     1
  8
0
  6
Continuous
 62
     7
370
    15
100
AcDbLine
 10
-5.0
 20
5.4
 30
0.0
 11
-5.5
 21
4.9
 31
0.0
  0
LINE
  5
6F
330
1B
100
AcDbEntity
 67
     1
  8
0
  6
Continuous
 62
     7
370
    15
100
AcDbLine
 10
-5.5
 20
-4.9
 30
0.0
 11
-5.0
 21
-5.4
 31
0.0
  0
LINE
  5
70
330
1B
100
AcDbEntity
 67
     1
  8
0
  6
Continuous
 62
     7
370
    15
100
AcDbLine
 10
5.0
 20
5.4
 30
0.0
 11
-5.0
 21
5.4
 31
0.0
  0
LINE
  5
71
330
1B
100
AcDbEntity
 67
     1
  8
0
  6
Continuous
 62
     7
370
    15
100
AcDbLine
 10
-1.254161004
 20
-5.4
 30
0.0
 11
5.0
 21
-5.4
 31
0.0
  0
LINE
  5
72
330
1B
100
AcDbEntity
 67
     1
  8
0
  6
Continuous
 62
     7
370
    15
100
AcDbLine
 10
-5.0
 20
-5.4
 30
0.0
 11
-4.2446986759
 21
-5.4
 31
0.0
  0
LINE
  5
73
330
1B
100
AcDbEntity
 67
     1
  8
0
  6
Continuous
 62
     7
370
    15
100
AcDbLine
 10
5.5
 20
4.9
 30
0.0
 11
5.5
 21
-4.9
 31
0.0
  0
LINE
  5
74
330
1B
100
AcDbEntity
 67
     1
  8
0
  6
Continuous
 62
     7
370
    15
100
AcDbLine
 10
5.0
 20
-5.4
 30
0.0
 11
5.0
 21
5.4
 31
0.0
  0
LINE
  5
75
330
1B
100
AcDbEntity
 67
     1
  8
0
  6
Continuous
 62
     7
370
    15
100
AcDbLine
 10
-5.0
 20
5.4
 30
0.0
 11
-5.0
 21
-5.4
 31
0.0
  0
LINE
  5
76
330
1B
100
AcDbEntity
 67
     1
  8
0
  6
Continuous
 62
     7
370
    15
100
AcDbLine
 10
-5.5
 20
-4.9
 30
0.0
 11
-5.5
 21
4.9
 31
0.0
  0
VIEWPORT
  5
121
330
1B
100
AcDbEntity
 67
     1
  8
0
100
AcDbViewport
 10
0.0
 20
0.0
 30
0.0
 40
243.84
 41
204.216
 68
     1
 69
     1
 12
0.0
 22
0.0139192764
 13
0.0
 23
0.0
 14
10.0
 24
10.0
 15
10.0
 25
10.0
 16
0.0
 26
0.0
 36
1.0
 17
0.0
 27
0.0
 37
0.0
 42
50.0
 43
0.0
 44
0.0
 45
13.8369931816
 50
0.0
 51
0.0
 72
   100
 90
   557152
  1

281
     0
 71
     1
 74
     0
110
0.0
120
0.0
130
0.0
111
1.0
121
0.0
131
0.0
112
0.0
122
1.0
132
0.0
 79
     0
146
0.0
  0
ENDSEC
  0
SECTION
  2
OBJECTS
  0
DICTIONARY
  5
C
330
0
100
AcDbDictionary
281
     1
  3
ACAD_GROUP
350
D
  3
ACAD_LAYOUT
350
1A
  3
ACAD_MLINESTYLE
350
17
  3
ACAD_PLOTSETTINGS
350
19
  3
ACAD_PLOTSTYLENAME
350
E
  0
DICTIONARY
  5
D
102
{ACAD_REACTORS
330
C
102
}
330
C
100
AcDbDictionary
281
     1
  0
DICTIONARY
  5
1A
102
{ACAD_REACTORS
330
C
102
}
330
C
100
AcDbDictionary
281
     1
  3
_Back
350
94
  3
_Bottom
350
B9
  3
_Dimetric
350
107
  3
_Front
350
1E
  3
_Isometric
350
D2
  3
_Left
350
26
  3
_Right
350
B1
  3
_Top
350
7C
  3
_Trimetric
350
EC
  3
Model
350
22
  0
DICTIONARY
  5
17
102
{ACAD_REACTORS
330
C
102
}
330
C
100
AcDbDictionary
281
     1
  3
Standard
350
18
  0
DICTIONARY
  5
19
102
{ACAD_REACTORS
330
C
102
}
330
C
100
AcDbDictionary
281
     1
  0
ACDBDICTIONARYWDFLT
  5
E
102
{ACAD_REACTORS
330
C
102
}
330
C
100
AcDbDictionary
281
     1
  3
Normal
350
F
100
AcDbDictionaryWithDefault
340
F
  0
LAYOUT
  5
94
102
{ACAD_REACTORS
330
1A
102
}
330
1A
100
AcDbPlotSettings
  1

  2
none_device
  4

  6

 40
0.0
 41
0.0
 42
0.0
 43
0.0
 44
0.0
 45
0.0
 46
0.0
 47
0.0
 48
0.0
 49
0.0
140
0.0
141
0.0
142
1.0
143
1.0
 70
   688
 72
     0
 73
     0
 74
     5
  7

 75
    16
147
1.0
148
0.0
149
0.0
100
AcDbLayout
  1
_Back
 70
     1
 71
     4
 10
0.0
 20
0.0
 11
0.0
 21
0.0
 12
0.0
 22
0.0
 32
0.0
 14
0.0
 24
0.0
 34
0.0
 15
0.0
 25
0.0
 35
0.0
146
0.0
 13
0.0
 23
0.0
 33
0.0
 16
1.0
 26
0.0
 36
0.0
 17
0.0
 27
1.0
 37
0.0
 76
     0
330
93
331
124
  0
LAYOUT
  5
B9
102
{ACAD_REACTORS
330
1A
102
}
330
1A
100
AcDbPlotSettings
  1

  2
none_device
  4

  6

 40
0.0
 41
0.0
 42
0.0
 43
0.0
 44
0.0
 45
0.0
 46
0.0
 47
0.0
 48
0.0
 49
0.0
140
0.0
141
0.0
142
1.0
143
1.0
 70
   688
 72
     0
 73
     0
 74
     5
  7

 75
    16
147
1.0
148
0.0
149
0.0
100
AcDbLayout
  1
_Bottom
 70
     1
 71
     6
 10
0.0
 20
0.0
 11
0.0
 21
0.0
 12
0.0
 22
0.0
 32
0.0
 14
0.0
 24
0.0
 34
0.0
 15
0.0
 25
0.0
 35
0.0
146
0.0
 13
0.0
 23
0.0
 33
0.0
 16
1.0
 26
0.0
 36
0.0
 17
0.0
 27
1.0
 37
0.0
 76
     0
330
B8
331
126
  0
LAYOUT
  5
107
102
{ACAD_REACTORS
330
1A
102
}
330
1A
100
AcDbPlotSettings
  1

  2
none_device
  4

  6

 40
0.0
 41
0.0
 42
0.0
 43
0.0
 44
0.0
 45
0.0
 46
0.0
 47
0.0
 48
0.0
 49
0.0
140
0.0
141
0.0
142
1.0
143
1.0
 70
   688
 72
     0
 73
     0
 74
     5
  7

 75
    16
147
1.0
148
0.0
149
0.0
100
AcDbLayout
  1
_Dimetric
 70
     1
 71
     9
 10
0.0
 20
0.0
 11
0.0
 21
0.0
 12
0.0
 22
0.0
 32
0.0
 14
0.0
 24
0.0
 34
0.0
 15
0.0
 25
0.0
 35
0.0
146
0.0
 13
0.0
 23
0.0
 33
0.0
 16
1.0
 26
0.0
 36
0.0
 17
0.0
 27
1.0
 37
0.0
 76
     0
330
106
331
129
  0
LAYOUT
  5
1E
102
{ACAD_REACTORS
330
1A
102
}
330
1A
100
AcDbPlotSettings
  1

  2
none_device
  4

  6

 40
0.0
 41
0.0
 42
0.0
 43
0.0
 44
0.0
 45
0.0
 46
0.0
 47
0.0
 48
0.0
 49
0.0
140
0.0
141
0.0
142
1.0
143
1.0
 70
   688
 72
     0
 73
     0
 74
     5
  7

 75
    16
147
1.0
148
0.0
149
0.0
100
AcDbLayout
  1
_Front
 70
     1
 71
     1
 10
0.0
 20
0.0
 11
420.0
 21
297.0
 12
0.0
 22
0.0
 32
0.0
 14
-5.5
 24
-5.4
 34
0.0
 15
5.5
 25
5.4
 35
0.0
146
0.0
 13
0.0
 23
0.0
 33
0.0
 16
1.0
 26
0.0
 36
0.0
 17
0.0
 27
1.0
 37
0.0
 76
     0
330
1B
331
121
  0
LAYOUT
  5
D2
102
{ACAD_REACTORS
330
1A
102
}
330
1A
100
AcDbPlotSettings
  1

  2
none_device
  4

  6

 40
0.0
 41
0.0
 42
0.0
 43
0.0
 44
0.0
 45
0.0
 46
0.0
 47
0.0
 48
0.0
 49
0.0
140
0.0
141
0.0
142
1.0
143
1.0
 70
   688
 72
     0
 73
     0
 74
     5
  7

 75
    16
147
1.0
148
0.0
149
0.0
100
AcDbLayout
  1
_Isometric
 70
     1
 71
     7
 10
0.0
 20
0.0
 11
0.0
 21
0.0
 12
0.0
 22
0.0
 32
0.0
 14
0.0
 24
0.0
 34
0.0
 15
0.0
 25
0.0
 35
0.0
146
0.0
 13
0.0
 23
0.0
 33
0.0
 16
1.0
 26
0.0
 36
0.0
 17
0.0
 27
1.0
 37
0.0
 76
     0
330
D1
331
127
  0
LAYOUT
  5
26
102
{ACAD_REACTORS
330
1A
102
}
330
1A
100
AcDbPlotSettings
  1

  2
none_device
  4

  6

 40
0.0
 41
0.0
 42
0.0
 43
0.0
 44
0.0
 45
0.0
 46
0.0
 47
0.0
 48
0.0
 49
0.0
140
0.0
141
0.0
142
1.0
143
1.0
 70
   688
 72
     0
 73
     0
 74
     5
  7

 75
    16
147
1.0
148
0.0
149
0.0
100
AcDbLayout
  1
_Left
 70
     1
 71
     2
 10
0.0
 20
0.0
 11
0.0
 21
0.0
 12
0.0
 22
0.0
 32
0.0
 14
0.0
 24
0.0
 34
0.0
 15
0.0
 25
0.0
 35
0.0
146
0.0
 13
0.0
 23
0.0
 33
0.0
 16
1.0
 26
0.0
 36
0.0
 17
0.0
 27
1.0
 37
0.0
 76
     0
330
23
331
122
  0
LAYOUT
  5
B1
102
{ACAD_REACTORS
330
1A
102
}
330
1A
100
AcDbPlotSettings
  1

  2
none_device
  4

  6

 40
0.0
 41
0.0
 42
0.0
 43
0.0
 44
0.0
 45
0.0
 46
0.0
 47
0.0
 48
0.0
 49
0.0
140
0.0
141
0.0
142
1.0
143
1.0
 70
   688
 72
     0
 73
     0
 74
     5
  7

 75
    16
147
1.0
148
0.0
149
0.0
100
AcDbLayout
  1
_Right
 70
     1
 71
     5
 10
0.0
 20
0.0
 11
0.0
 21
0.0
 12
0.0
 22
0.0
 32
0.0
 14
0.0
 24
0.0
 34
0.0
 15
0.0
 25
0.0
 35
0.0
146
0.0
 13
0.0
 23
0.0
 33
0.0
 16
1.0
 26
0.0
 36
0.0
 17
0.0
 27
1.0
 37
0.0
 76
     0
330
B0
331
125
  0
LAYOUT
  5
7C
102
{ACAD_REACTORS
330
1A
102
}
330
1A
100
AcDbPlotSettings
  1

  2
none_device
  4

  6

 40
0.0
 41
0.0
 42
0.0
 43
0.0
 44
0.0
 45
0.0
 46
0.0
 47
0.0
 48
0.0
 49
0.0
140
0.0
141
0.0
142
1.0
143
1.0
 70
   688
 72
     0
 73
     0
 74
     5
  7

 75
    16
147
1.0
148
0.0
149
0.0
100
AcDbLayout
  1
_Top
 70
     1
 71
     3
 10
0.0
 20
0.0
 11
0.0
 21
0.0
 12
0.0
 22
0.0
 32
0.0
 14
0.0
 24
0.0
 34
0.0
 15
0.0
 25
0.0
 35
0.0
146
0.0
 13
0.0
 23
0.0
 33
0.0
 16
1.0
 26
0.0
 36
0.0
 17
0.0
 27
1.0
 37
0.0
 76
     0
330
7B
331
123
  0
LAYOUT
  5
EC
102
{ACAD_REACTORS
330
1A
102
}
330
1A
100
AcDbPlotSettings
  1

  2
none_device
  4

  6

 40
0.0
 41
0.0
 42
0.0
 43
0.0
 44
0.0
 45
0.0
 46
0.0
 47
0.0
 48
0.0
 49
0.0
140
0.0
141
0.0
142
1.0
143
1.0
 70
   688
 72
     0
 73
     0
 74
     5
  7

 75
    16
147
1.0
148
0.0
149
0.0
100
AcDbLayout
  1
_Trimetric
 70
     1
 71
     8
 10
0.0
 20
0.0
 11
0.0
 21
0.0
 12
0.0
 22
0.0
 32
0.0
 14
0.0
 24
0.0
 34
0.0
 15
0.0
 25
0.0
 35
0.0
146
0.0
 13
0.0
 23
0.0
 33
0.0
 16
1.0
 26
0.0
 36
0.0
 17
0.0
 27
1.0
 37
0.0
 76
     0
330
EB
331
128
  0
LAYOUT
  5
22
102
{ACAD_REACTORS
330
1A
102
}
330
1A
100
AcDbPlotSettings
  1

  2
none_device
  4
ANSI_A_(11.00_x_8.50_Inches)
  6

 40
6.35
 41
19.05
 42
6.35000508
 43
19.05000254
 44
279.4
 45
215.9
 46
133.34999746
 47
88.680686455
 48
0.0
 49
0.0
140
0.0
141
0.0
142
0.6203154029
143
1.0
 70
  1696
 72
     0
 73
     0
 74
     0
  7

 75
     0
147
0.0179189148
148
0.0
149
0.0
100
AcDbLayout
  1
Model
 70
     1
 71
     0
 10
0.0
 20
0.0
 11
420.0
 21
297.0
 12
0.0
 22
0.0
 32
0.0
 14
-7.3589274306
 24
-6.7689205185
 34
0.0
 15
7.3589274306
 25
6.7967590713
 35
0.0
146
0.0
 13
0.0
 23
0.0
 33
0.0
 16
1.0
 26
0.0
 36
0.0
 17
0.0
 27
1.0
 37
0.0
 76
     0
330
1F
331
29
  0
MLINESTYLE
  5
18
102
{ACAD_REACTORS
330
17
102
}
330
17
100
AcDbMlineStyle
  2
Standard
 70
     0
  3

 62
   256
 51
90.0
 52
90.0
 71
     2
 49
0.5
 62
   256
  6
BYLAYER
 49
-0.5
 62
   256
  6
BYLAYER
  0
ACDBPLACEHOLDER
  5
F
102
{ACAD_REACTORS
330
E
102
}
330
E
  0
ENDSEC
  0
EOF
