  0
SECTION
  2
HEADER
  9
$ACADVER
  1
AC1015
  9
$ACADMAINTVER
 70
     6
  9
$DWGCODEPAGE
  3
ANSI_1252
  9
$INSBASE
 10
0.0
 20
0.0
 30
0.0
  9
$EXTMIN
 10
-69.0
 20
-17.0
 30
0.0
  9
$EXTMAX
 10
69.0
 20
17.0
 30
0.0
  9
$LIMMIN
 10
0.0
 20
0.0
  9
$LIMMAX
 10
420.0
 20
297.0
  9
$ORTHOMODE
 70
     0
  9
$REGENMODE
 70
     1
  9
$FILLMODE
 70
     1
  9
$QTEXTMODE
 70
     0
  9
$MIRRTEXT
 70
     1
  9
$LTSCALE
 40
1.0
  9
$ATTMODE
 70
     1
  9
$TEXTSIZE
 40
3.5
  9
$TRACEWID
 40
1.0
  9
$TEXTSTYLE
  7
Standard
  9
$CLAYER
  8
0
  9
$CELTYPE
  6
ByLayer
  9
$CECOLOR
 62
   256
  9
$CELTSCALE
 40
1.0
  9
$DISPSILH
 70
     0
  9
$DIMSCALE
 40
1.0
  9
$DIMASZ
 40
6.0
  9
$DIMEXO
 40
1.0
  9
$DIMDLI
 40
3.75
  9
$DIMRND
 40
0.0
  9
$DIMDLE
 40
0.0
  9
$DIMEXE
 40
1.0
  9
$DIMTP
 40
0.0
  9
$DIMTM
 40
0.0
  9
$DIMTXT
 40
3.5
  9
$DIMCEN
 40
2.5
  9
$DIMTSZ
 40
0.0
  9
$DIMTOL
 70
     0
  9
$DIMLIM
 70
     0
  9
$DIMTIH
 70
     1
  9
$DIMTOH
 70
     1
  9
$DIMSE1
 70
     0
  9
$DIMSE2
 70
     0
  9
$DIMTAD
 70
     1
  9
$DIMZIN
 70
     0
  9
$DIMBLK
  1

  9
$DIMASO
 70
     1
  9
$DIMSHO
 70
     1
  9
$DIMPOST
  1

  9
$DIMAPOST
  1

  9
$DIMALT
 70
     0
  9
$DIMALTD
 70
     3
  9
$DIMALTF
 40
0.0393700787
  9
$DIMLFAC
 40
1.0
  9
$DIMTOFL
 70
     1
  9
$DIMTVP
 40
0.0
  9
$DIMTIX
 70
     0
  9
$DIMSOXD
 70
     0
  9
$DIMSAH
 70
     0
  9
$DIMBLK1
  1

  9
$DIMBLK2
  1

  9
$DIMSTYLE
  2
ISO-25
  9
$DIMCLRD
 70
     0
  9
$DIMCLRE
 70
     0
  9
$DIMCLRT
 70
     0
  9
$DIMTFAC
 40
1.0
  9
$DIMGAP
 40
1.524
  9
$DIMJUST
 70
     0
  9
$DIMSD1
 70
     0
  9
$DIMSD2
 70
     0
  9
$DIMTOLJ
 70
     0
  9
$DIMTZIN
 70
     0
  9
$DIMALTZ
 70
     0
  9
$DIMALTTZ
 70
     0
  9
$DIMUPT
 70
     0
  9
$DIMDEC
 70
     3
  9
$DIMTDEC
 70
     3
  9
$DIMALTU
 70
     2
  9
$DIMALTTD
 70
     3
  9
$DIMTXSTY
  7
Standard
  9
$DIMAUNIT
 70
     0
  9
$DIMADEC
 70
     2
  9
$DIMALTRND
 40
0.0
  9
$DIMAZIN
 70
     0
  9
$DIMDSEP
 70
    44
  9
$DIMATFIT
 70
     3
  9
$DIMFRAC
 70
     0
  9
$DIMLDRBLK
  1

  9
$DIMLUNIT
 70
     2
  9
$DIMLWD
 70
    -2
  9
$DIMLWE
 70
    -2
  9
$DIMTMOVE
 70
     0
  9
$LUNITS
 70
     2
  9
$LUPREC
 70
     2
  9
$SKETCHINC
 40
1.0
  9
$FILLETRAD
 40
10.0
  9
$AUNITS
 70
     0
  9
$AUPREC
 70
     2
  9
$MENU
  1
.
  9
$ELEVATION
 40
0.0
  9
$PELEVATION
 40
0.0
  9
$THICKNESS
 40
0.0
  9
$LIMCHECK
 70
     0
  9
$CHAMFERA
 40
10.0
  9
$CHAMFERB
 40
10.0
  9
$CHAMFERC
 40
20.0
  9
$CHAMFERD
 40
0.0
  9
$SKPOLY
 70
     0
  9
$TDCREATE
 40
2456194.549936933
  9
$TDUCREATE
 40
2456194.049936933
  9
$TDUPDATE
 40
2456194.550022176
  9
$TDUUPDATE
 40
2456194.050022176
  9
$TDINDWG
 40
0.0000000116
  9
$TDUSRTIMER
 40
0.0000000116
  9
$USRTIMER
 70
     1
  9
$ANGBASE
 50
0.0
  9
$ANGDIR
 70
     0
  9
$PDMODE
 70
     0
  9
$PDSIZE
 40
-1.0
  9
$PLINEWID
 40
0.0
  9
$SPLFRAME
 70
     0
  9
$SPLINETYPE
 70
     6
  9
$SPLINESEGS
 70
     8
  9
$HANDSEED
  5
497
  9
$SURFTAB1
 70
     6
  9
$SURFTAB2
 70
     6
  9
$SURFTYPE
 70
     6
  9
$SURFU
 70
     6
  9
$SURFV
 70
     6
  9
$UCSBASE
  2

  9
$UCSNAME
  2

  9
$UCSORG
 10
0.0
 20
0.0
 30
0.0
  9
$UCSXDIR
 10
1.0
 20
0.0
 30
0.0
  9
$UCSYDIR
 10
0.0
 20
1.0
 30
0.0
  9
$UCSORTHOREF
  2

  9
$UCSORTHOVIEW
 70
     0
  9
$UCSORGTOP
 10
0.0
 20
0.0
 30
0.0
  9
$UCSORGBOTTOM
 10
0.0
 20
0.0
 30
0.0
  9
$UCSORGLEFT
 10
0.0
 20
0.0
 30
0.0
  9
$UCSORGRIGHT
 10
0.0
 20
0.0
 30
0.0
  9
$UCSORGFRONT
 10
0.0
 20
0.0
 30
0.0
  9
$UCSORGBACK
 10
0.0
 20
0.0
 30
0.0
  9
$PUCSBASE
  2

  9
$PUCSNAME
  2

  9
$PUCSORG
 10
0.0
 20
0.0
 30
0.0
  9
$PUCSXDIR
 10
1.0
 20
0.0
 30
0.0
  9
$PUCSYDIR
 10
0.0
 20
1.0
 30
0.0
  9
$PUCSORTHOREF
  2

  9
$PUCSORTHOVIEW
 70
     0
  9
$PUCSORGTOP
 10
0.0
 20
0.0
 30
0.0
  9
$PUCSORGBOTTOM
 10
0.0
 20
0.0
 30
0.0
  9
$PUCSORGLEFT
 10
0.0
 20
0.0
 30
0.0
  9
$PUCSORGRIGHT
 10
0.0
 20
0.0
 30
0.0
  9
$PUCSORGFRONT
 10
0.0
 20
0.0
 30
0.0
  9
$PUCSORGBACK
 10
0.0
 20
0.0
 30
0.0
  9
$USERI1
 70
     0
  9
$USERI2
 70
     0
  9
$USERI3
 70
     0
  9
$USERI4
 70
     0
  9
$USERI5
 70
     0
  9
$USERR1
 40
0.0
  9
$USERR2
 40
0.0
  9
$USERR3
 40
0.0
  9
$USERR4
 40
0.0
  9
$USERR5
 40
0.0
  9
$WORLDVIEW
 70
     1
  9
$SHADEDGE
 70
     3
  9
$SHADEDIF
 70
    70
  9
$TILEMODE
 70
     0
  9
$MAXACTVP
 70
    64
  9
$PINSBASE
 10
0.0
 20
0.0
 30
0.0
  9
$PLIMCHECK
 70
     0
  9
$PEXTMIN
 10
-69.0
 20
-17.0
 30
0.0
  9
$PEXTMAX
 10
69.0
 20
17.0
 30
0.0
  9
$PLIMMIN
 10
0.0
 20
0.0
  9
$PLIMMAX
 10
0.0
 20
0.0
  9
$UNITMODE
 70
     0
  9
$VISRETAIN
 70
     1
  9
$PLINEGEN
 70
     0
  9
$PSLTSCALE
 70
     1
  9
$TREEDEPTH
 70
  3020
  9
$CMLSTYLE
  2
Standard
  9
$CMLJUST
 70
     0
  9
$CMLSCALE
 40
20.0
  9
$PROXYGRAPHICS
 70
     1
  9
$MEASUREMENT
 70
     1
  9
$CELWEIGHT
370
    -1
  9
$ENDCAPS
280
     0
  9
$JOINSTYLE
280
     0
  9
$LWDISPLAY
290
     1
  9
$INSUNITS
 70
     4
  9
$HYPERLINKBASE
  1

  9
$STYLESHEET
  1

  9
$XEDIT
290
     1
  9
$CEPSNTYPE
380
     0
  9
$PSTYLEMODE
290
     1
  9
$FINGERPRINTGUID
  2
{9E1C57AB-9FBC-4C74-B575-8B687E0435E3}
  9
$VERSIONGUID
  2
{FAEB1C32-E019-11D5-929B-00C0DF256EC4}
  9
$EXTNAMES
290
     1
  9
$PSVPSCALE
 40
0.0
  9
$OLESTARTUP
290
     0
  0
ENDSEC
  0
SECTION
  2
CLASSES
  0
CLASS
  1
ACDBDICTIONARYWDFLT
  2
AcDbDictionaryWithDefault
  3
ObjectDBX Classes
 90
        0
280
     0
281
     0
  0
CLASS
  1
VISUALSTYLE
  2
AcDbVisualStyle
  3
ObjectDBX Classes
 90
     4095
280
     0
281
     0
  0
CLASS
  1
MATERIAL
  2
AcDbMaterial
  3
ObjectDBX Classes
 90
     1153
280
     0
281
     0
  0
CLASS
  1
ACDBPLACEHOLDER
  2
AcDbPlaceHolder
  3
ObjectDBX Classes
 90
        0
280
     0
281
     0
  0
CLASS
  1
LAYOUT
  2
AcDbLayout
  3
ObjectDBX Classes
 90
        0
280
     0
281
     0
  0
ENDSEC
  0
SECTION
  2
TABLES
  0
TABLE
  2
VPORT
  5
8
330
0
100
AcDbSymbolTable
 70
     1
  0
VPORT
  5
29
330
8
100
AcDbSymbolTableRecord
100
AcDbViewportTableRecord
  2
*Active
 70
     0
 10
0.0
 20
0.0
 11
1.0
 21
1.0
 12
0.0
 22
0.0
 13
0.0
 23
0.0
 14
10.0
 24
10.0
 15
10.0
 25
10.0
 16
0.0
 26
0.0
 36
1.0
 17
0.0
 27
0.0
 37
0.0
 40
34.68
 41
4.0588235294
 42
50.0
 43
0.0
 44
0.0
 50
0.0
 51
0.0
 71
     0
 72
   100
 73
     1
 74
     3
 75
     0
 76
     0
 77
     0
 78
     0
281
     0
 65
     1
110
0.0
120
0.0
130
0.0
111
1.0
121
0.0
131
0.0
112
0.0
122
1.0
132
0.0
 79
     0
146
0.0
  0
ENDTAB
  0
TABLE
  2
LTYPE
  5
5
330
0
100
AcDbSymbolTable
 70
     6
  0
LTYPE
  5
14
330
5
100
AcDbSymbolTableRecord
100
AcDbLinetypeTableRecord
  2
ByBlock
 70
     0
  3

 72
    65
 73
     0
 40
0.0
  0
LTYPE
  5
15
330
5
100
AcDbSymbolTableRecord
100
AcDbLinetypeTableRecord
  2
ByLayer
 70
     0
  3

 72
    65
 73
     0
 40
0.0
  0
LTYPE
  5
16
330
5
100
AcDbSymbolTableRecord
100
AcDbLinetypeTableRecord
  2
Continuous
 70
     0
  3
Solid line
 72
    65
 73
     0
 40
0.0
  0
LTYPE
  5
3F
330
5
100
AcDbSymbolTableRecord
100
AcDbLinetypeTableRecord
  2
HIDDEN
 70
     0
  3
Hidden __ __ __ __ __ __ __ __ __ __ __ __ __ __
 72
    65
 73
     2
 40
1.905
 49
1.27
 74
     0
 49
-0.635
 74
     0
  0
LTYPE
  5
40
330
5
100
AcDbSymbolTableRecord
100
AcDbLinetypeTableRecord
  2
PHANTOM
 70
     0
  3
Phantom ______  __  __  ______  __  __  ______
 72
    65
 73
     6
 40
12.7
 49
6.35
 74
     0
 49
-1.27
 74
     0
 49
1.27
 74
     0
 49
-1.27
 74
     0
 49
1.27
 74
     0
 49
-1.27
 74
     0
  0
LTYPE
  5
41
330
5
100
AcDbSymbolTableRecord
100
AcDbLinetypeTableRecord
  2
CENTER
 70
     0
  3
Center ____ _ ____ _ ____ _ ____ _ ____ _ ____
 72
    65
 73
     4
 40
10.16
 49
6.35
 74
     0
 49
-1.27
 74
     0
 49
1.27
 74
     0
 49
-1.27
 74
     0
  0
LTYPE
  5
42
330
5
100
AcDbSymbolTableRecord
100
AcDbLinetypeTableRecord
  2
CENTERX2
 70
     0
  3
Center (2x) ________  __  ________  __  _____
 72
    65
 73
     4
 40
20.32
 49
12.7
 74
     0
 49
-2.54
 74
     0
 49
2.54
 74
     0
 49
-2.54
 74
     0
  0
LTYPE
  5
43
330
5
100
AcDbSymbolTableRecord
100
AcDbLinetypeTableRecord
  2
DOT2
 70
     0
  3
Dot (.5x) ........................................
 72
    65
 73
     2
 40
0.635
 49
0.0
 74
     0
 49
-0.635
 74
     0
  0
ENDTAB
  0
TABLE
  2
LAYER
  5
2
330
0
100
AcDbSymbolTable
 70
     1
  0
LAYER
  5
10
330
2
100
AcDbSymbolTableRecord
100
AcDbLayerTableRecord
  2
0
 70
     0
 62
     7
  6
Continuous
370
    -3
390
F
  0
ENDTAB
  0
TABLE
  2
STYLE
  5
3
330
0
100
AcDbSymbolTable
 70
     1
  0
STYLE
  5
11
330
3
100
AcDbSymbolTableRecord
100
AcDbTextStyleTableRecord
  2
Standard
 70
     0
 40
0.0
 41
1.0
 50
0.0
 71
     0
 42
3.5
  3
txt
  4

  0
ENDTAB
  0
TABLE
  2
VIEW
  5
6
330
0
100
AcDbSymbolTable
 70
     0
  0
ENDTAB
  0
TABLE
  2
UCS
  5
7
330
0
100
AcDbSymbolTable
 70
     0
  0
ENDTAB
  0
TABLE
  2
APPID
  5
9
330
0
100
AcDbSymbolTable
 70
     1
  0
APPID
  5
12
330
9
100
AcDbSymbolTableRecord
100
AcDbRegAppTableRecord
  2
ACAD
 70
     0
  0
ENDTAB
  0
TABLE
  2
DIMSTYLE
  5
A
330
0
100
AcDbSymbolTable
 70
     1
100
AcDbDimStyleTable
  0
DIMSTYLE
105
27
330
A
100
AcDbSymbolTableRecord
100
AcDbDimStyleTableRecord
  2
ISO-25
 70
     0
 41
2.5
 42
0.625
 43
3.75
 44
1.25
 73
     0
 74
     0
 77
     1
 78
     8
140
2.5
141
2.5
143
0.0393700787
147
0.625
171
     3
172
     1
178
     0
271
     2
272
     2
274
     3
278
    44
283
     0
284
     8
340
11
  0
ENDTAB
  0
TABLE
  2
BLOCK_RECORD
  5
1
330
0
100
AcDbSymbolTable
 70
     8
  0
BLOCK_RECORD
  5
1F
330
1
100
AcDbSymbolTableRecord
100
AcDbBlockTableRecord
  2
*Model_Space
340
22
  0
BLOCK_RECORD
  5
1EA
330
1
100
AcDbSymbolTableRecord
100
AcDbBlockTableRecord
  2
*Paper_Space
340
1EB
  0
BLOCK_RECORD
  5
1B
330
1
100
AcDbSymbolTableRecord
100
AcDbBlockTableRecord
  2
*Paper_Space0
340
1E
  0
BLOCK_RECORD
  5
23
330
1
100
AcDbSymbolTableRecord
100
AcDbBlockTableRecord
  2
*Paper_Space1
340
26
  0
BLOCK_RECORD
  5
154
330
1
100
AcDbSymbolTableRecord
100
AcDbBlockTableRecord
  2
*Paper_Space2
340
155
  0
BLOCK_RECORD
  5
168
330
1
100
AcDbSymbolTableRecord
100
AcDbBlockTableRecord
  2
*Paper_Space3
340
169
  0
BLOCK_RECORD
  5
17C
330
1
100
AcDbSymbolTableRecord
100
AcDbBlockTableRecord
  2
*Paper_Space4
340
17D
  0
BLOCK_RECORD
  5
190
330
1
100
AcDbSymbolTableRecord
100
AcDbBlockTableRecord
  2
*Paper_Space5
340
191
  0
BLOCK_RECORD
  5
2D5
330
1
100
AcDbSymbolTableRecord
100
AcDbBlockTableRecord
  2
*Paper_Space6
340
2D6
  0
BLOCK_RECORD
  5
3B5
330
1
100
AcDbSymbolTableRecord
100
AcDbBlockTableRecord
  2
*Paper_Space7
340
3B6
  0
ENDTAB
  0
ENDSEC
  0
SECTION
  2
BLOCKS
  0
BLOCK
  5
20
330
1F
100
AcDbEntity
  8
0
100
AcDbBlockBegin
  2
*Model_Space
 70
     0
 10
0.0
 20
0.0
 30
0.0
  3
*Model_Space
  1

  0
ENDBLK
  5
21
330
1F
100
AcDbEntity
  8
0
100
AcDbBlockEnd
  0
BLOCK
  5
1EC
330
1EA
100
AcDbEntity
 67
     1
  8
0
100
AcDbBlockBegin
  2
*Paper_Space
 70
     0
 10
0.0
 20
0.0
 30
0.0
  3
*Paper_Space
  1

  0
ENDBLK
  5
1ED
330
1EA
100
AcDbEntity
 67
     1
  8
0
100
AcDbBlockEnd
  0
BLOCK
  5
1C
330
1B
100
AcDbEntity
  8
0
100
AcDbBlockBegin
  2
*Paper_Space0
 70
     0
 10
0.0
 20
0.0
 30
0.0
  3
*Paper_Space0
  1

  0
CIRCLE
  5
9A
330
1B
100
AcDbEntity
  8
0
  6
Continuous
 62
     7
370
    15
100
AcDbCircle
 10
64.0
 20
0.0
 30
0.0
 40
1.600000000013451
  0
CIRCLE
  5
9B
330
1B
100
AcDbEntity
  8
0
  6
Continuous
 62
     7
370
    15
100
AcDbCircle
 10
-52.0
 20
0.0
 30
0.0
 40
2.600000000027908
  0
CIRCLE
  5
9C
330
1B
100
AcDbEntity
  8
0
  6
Continuous
 62
     7
370
    15
100
AcDbCircle
 10
52.0
 20
-12.0
 30
0.0
 40
1.600000000000284
  0
CIRCLE
  5
9D
330
1B
100
AcDbEntity
  8
0
  6
Continuous
 62
     7
370
    15
100
AcDbCircle
 10
-52.0
 20
12.0
 30
0.0
 40
1.599999999999998
  0
CIRCLE
  5
9E
330
1B
100
AcDbEntity
  8
0
  6
Continuous
 62
     7
370
    15
100
AcDbCircle
 10
-64.0
 20
0.0
 30
0.0
 40
1.600000000023269
  0
CIRCLE
  5
9F
330
1B
100
AcDbEntity
  8
0
  6
Continuous
 62
     7
370
    15
100
AcDbCircle
 10
-52.0
 20
-12.0
 30
0.0
 40
1.599999999999998
  0
CIRCLE
  5
A0
330
1B
100
AcDbEntity
  8
0
  6
Continuous
 62
     7
370
    15
100
AcDbCircle
 10
52.0
 20
12.0
 30
0.0
 40
1.600000000000284
  0
CIRCLE
  5
A1
330
1B
100
AcDbEntity
  8
0
  6
Continuous
 62
     7
370
    15
100
AcDbCircle
 10
52.0
 20
0.0
 30
0.0
 40
2.600000000013505
  0
LINE
  5
C9
330
1B
100
AcDbEntity
  8
0
  6
Continuous
 62
     7
370
    15
100
AcDbLine
 10
13.4
 20
-11.655
 30
0.0
 11
13.4
 21
-16.0
 31
0.0
  0
LINE
  5
CA
330
1B
100
AcDbEntity
  8
0
  6
Continuous
 62
     7
370
    15
100
AcDbLine
 10
3.1
 20
-16.0
 30
0.0
 11
3.1
 21
-11.655
 31
0.0
  0
LINE
  5
CB
330
1B
100
AcDbEntity
  8
0
  6
Continuous
 62
     7
370
    15
100
AcDbLine
 10
-3.1
 20
-11.655
 30
0.0
 11
-3.1
 21
-16.0
 31
0.0
  0
LINE
  5
CC
330
1B
100
AcDbEntity
  8
0
  6
Continuous
 62
     7
370
    15
100
AcDbLine
 10
-8.9
 20
-16.0
 30
0.0
 11
-8.9
 21
-11.655
 31
0.0
  0
LINE
  5
CD
330
1B
100
AcDbEntity
  8
0
  6
Continuous
 62
     7
370
    15
100
AcDbLine
 10
-19.6
 20
-11.655
 30
0.0
 11
-19.6
 21
-16.0
 31
0.0
  0
LINE
  5
CE
330
1B
100
AcDbEntity
  8
0
  6
Continuous
 62
     7
370
    15
100
AcDbLine
 10
-25.4
 20
-16.0
 30
0.0
 11
-25.4
 21
-11.655
 31
0.0
  0
LINE
  5
CF
330
1B
100
AcDbEntity
  8
0
  6
Continuous
 62
     7
370
    15
100
AcDbLine
 10
-31.6
 20
-11.655
 30
0.0
 11
-31.6
 21
-16.0
 31
0.0
  0
LINE
  5
D0
330
1B
100
AcDbEntity
  8
0
  6
Continuous
 62
     7
370
    15
100
AcDbLine
 10
-69.0
 20
14.5
 30
0.0
 11
-69.0
 21
-14.5
 31
0.0
  0
LINE
  5
D1
330
1B
100
AcDbEntity
  8
0
  6
Continuous
 62
     7
370
    15
100
AcDbLine
 10
66.5
 20
17.0
 30
0.0
 11
-66.5
 21
17.0
 31
0.0
  0
LINE
  5
D2
330
1B
100
AcDbEntity
  8
0
  6
Continuous
 62
     7
370
    15
100
AcDbLine
 10
69.0
 20
-14.5
 30
0.0
 11
69.0
 21
14.5
 31
0.0
  0
LINE
  5
D3
330
1B
100
AcDbEntity
  8
0
  6
Continuous
 62
     7
370
    15
100
AcDbLine
 10
32.6
 20
-17.0
 30
0.0
 11
66.5
 21
-17.0
 31
0.0
  0
LINE
  5
D4
330
1B
100
AcDbEntity
  8
0
  6
Continuous
 62
     7
370
    15
100
AcDbLine
 10
31.6
 20
-16.0
 30
0.0
 11
31.6
 21
-11.655
 31
0.0
  0
LINE
  5
D5
330
1B
100
AcDbEntity
  8
0
  6
Continuous
 62
     7
370
    15
100
AcDbLine
 10
25.4
 20
-11.655
 30
0.0
 11
25.4
 21
-16.0
 31
0.0
  0
LINE
  5
D6
330
1B
100
AcDbEntity
  8
0
  6
Continuous
 62
     7
370
    15
100
AcDbLine
 10
19.6
 20
-16.0
 30
0.0
 11
19.6
 21
-11.655
 31
0.0
  0
LINE
  5
D7
330
1B
100
AcDbEntity
  8
0
  6
Continuous
 62
     7
370
    15
100
AcDbLine
 10
-66.5
 20
-17.0
 30
0.0
 11
-32.6
 21
-17.0
 31
0.0
  0
LINE
  5
D8
330
1B
100
AcDbEntity
  8
0
  6
Continuous
 62
     7
370
    15
100
AcDbLine
 10
-24.4
 20
-17.0
 30
0.0
 11
-20.6
 21
-17.0
 31
0.0
  0
LINE
  5
D9
330
1B
100
AcDbEntity
  8
0
  6
Continuous
 62
     7
370
    15
100
AcDbLine
 10
-7.9
 20
-17.0
 30
0.0
 11
-4.1
 21
-17.0
 31
0.0
  0
LINE
  5
DA
330
1B
100
AcDbEntity
  8
0
  6
Continuous
 62
     7
370
    15
100
AcDbLine
 10
20.6
 20
-17.0
 30
0.0
 11
24.4
 21
-17.0
 31
0.0
  0
LINE
  5
DB
330
1B
100
AcDbEntity
  8
0
  6
Continuous
 62
     7
370
    15
100
AcDbLine
 10
4.1
 20
-17.0
 30
0.0
 11
12.4
 21
-17.0
 31
0.0
  0
ARC
  5
DC
330
1B
100
AcDbEntity
  8
0
  6
Continuous
 62
     7
370
    15
100
AcDbCircle
 10
16.5
 20
-11.655
 30
0.0
 40
3.100000000000001
100
AcDbArc
 50
0.0
 51
180.0
  0
ARC
  5
DD
330
1B
100
AcDbEntity
  8
0
  6
Continuous
 62
     7
370
    15
100
AcDbCircle
 10
12.4
 20
-16.0
 30
0.0
 40
1.000000000000007
100
AcDbArc
 50
270.0
 51
0.0
  0
ARC
  5
DE
330
1B
100
AcDbEntity
  8
0
  6
Continuous
 62
     7
370
    15
100
AcDbCircle
 10
4.1
 20
-16.0
 30
0.0
 40
1.0
100
AcDbArc
 50
180.0
 51
270.0
  0
ARC
  5
DF
330
1B
100
AcDbEntity
  8
0
  6
Continuous
 62
     7
370
    15
100
AcDbCircle
 10
0.0
 20
-11.655
 30
0.0
 40
3.1
100
AcDbArc
 50
0.0
 51
180.0
  0
ARC
  5
E0
330
1B
100
AcDbEntity
  8
0
  6
Continuous
 62
     7
370
    15
100
AcDbCircle
 10
-4.1
 20
-16.0
 30
0.0
 40
0.9999999999999978
100
AcDbArc
 50
270.0
 51
0.0
  0
ARC
  5
E1
330
1B
100
AcDbEntity
  8
0
  6
Continuous
 62
     7
370
    15
100
AcDbCircle
 10
-7.9
 20
-16.0
 30
0.0
 40
1.0
100
AcDbArc
 50
180.0
 51
270.0
  0
ARC
  5
E2
330
1B
100
AcDbEntity
  8
0
  6
Continuous
 62
     7
370
    15
100
AcDbCircle
 10
-12.0
 20
-11.655
 30
0.0
 40
3.100000000000002
100
AcDbArc
 50
0.0
 51
136.5359765017
  0
ARC
  5
E3
330
1B
100
AcDbEntity
  8
0
  6
Continuous
 62
     7
370
    15
100
AcDbCircle
 10
-16.5
 20
-11.655
 30
0.0
 40
3.100000000000435
100
AcDbArc
 50
43.4640234983
 51
180.0
  0
ARC
  5
E4
330
1B
100
AcDbEntity
  8
0
  6
Continuous
 62
     7
370
    15
100
AcDbCircle
 10
-20.6
 20
-16.0
 30
0.0
 40
1.000000000000004
100
AcDbArc
 50
270.0
 51
0.0
  0
ARC
  5
E5
330
1B
100
AcDbEntity
  8
0
  6
Continuous
 62
     7
370
    15
100
AcDbCircle
 10
-24.4
 20
-16.0
 30
0.0
 40
1.0
100
AcDbArc
 50
180.0
 51
270.0
  0
ARC
  5
E6
330
1B
100
AcDbEntity
  8
0
  6
Continuous
 62
     7
370
    15
100
AcDbCircle
 10
-28.5
 20
-11.655
 30
0.0
 40
3.100000000000431
100
AcDbArc
 50
0.0
 51
180.0
  0
ARC
  5
E7
330
1B
100
AcDbEntity
  8
0
  6
Continuous
 62
     7
370
    15
100
AcDbCircle
 10
-32.6
 20
-16.0
 30
0.0
 40
1.000000000000004
100
AcDbArc
 50
270.0
 51
0.0
  0
ARC
  5
E8
330
1B
100
AcDbEntity
  8
0
  6
Continuous
 62
     7
370
    15
100
AcDbCircle
 10
-66.5
 20
-14.5
 30
0.0
 40
2.5
100
AcDbArc
 50
180.0
 51
270.0
  0
ARC
  5
E9
330
1B
100
AcDbEntity
  8
0
  6
Continuous
 62
     7
370
    15
100
AcDbCircle
 10
-66.5
 20
14.5
 30
0.0
 40
2.500000000000014
100
AcDbArc
 50
90.0
 51
180.0
  0
ARC
  5
EA
330
1B
100
AcDbEntity
  8
0
  6
Continuous
 62
     7
370
    15
100
AcDbCircle
 10
66.5
 20
14.5
 30
0.0
 40
2.499999999999986
100
AcDbArc
 50
0.0
 51
90.0
  0
ARC
  5
EB
330
1B
100
AcDbEntity
  8
0
  6
Continuous
 62
     7
370
    15
100
AcDbCircle
 10
66.5
 20
-14.5
 30
0.0
 40
2.5
100
AcDbArc
 50
270.0
 51
0.0
  0
ARC
  5
EC
330
1B
100
AcDbEntity
  8
0
  6
Continuous
 62
     7
370
    15
100
AcDbCircle
 10
32.6
 20
-16.0
 30
0.0
 40
0.9999999999999964
100
AcDbArc
 50
180.0
 51
270.0
  0
ARC
  5
ED
330
1B
100
AcDbEntity
  8
0
  6
Continuous
 62
     7
370
    15
100
AcDbCircle
 10
28.5
 20
-11.655
 30
0.0
 40
3.100000000000001
100
AcDbArc
 50
0.0
 51
180.0
  0
ARC
  5
EE
330
1B
100
AcDbEntity
  8
0
  6
Continuous
 62
     7
370
    15
100
AcDbCircle
 10
24.4
 20
-16.0
 30
0.0
 40
1.000000000000007
100
AcDbArc
 50
270.0
 51
0.0
  0
ARC
  5
EF
330
1B
100
AcDbEntity
  8
0
  6
Continuous
 62
     7
370
    15
100
AcDbCircle
 10
20.6
 20
-16.0
 30
0.0
 40
0.9999999999999964
100
AcDbArc
 50
180.0
 51
270.0
  0
VIEWPORT
  5
48E
330
1B
100
AcDbEntity
  8
0
100
AcDbViewport
 10
0.0
 20
0.0
 30
0.0
 40
243.84
 41
204.216
 68
     1
 69
     1
 12
0.0
 22
0.0
 13
0.0
 23
0.0
 14
10.0
 24
10.0
 15
10.0
 25
10.0
 16
0.0
 26
0.0
 36
1.0
 17
0.0
 27
0.0
 37
0.0
 42
50.0
 43
0.0
 44
0.0
 45
117.8865
 50
0.0
 51
0.0
 72
   100
 90
   557152
  1

281
     0
 71
     1
 74
     0
110
0.0
120
0.0
130
0.0
111
1.0
121
0.0
131
0.0
112
0.0
122
1.0
132
0.0
 79
     0
146
0.0
  0
ENDBLK
  5
1D
330
1B
100
AcDbEntity
  8
0
100
AcDbBlockEnd
  0
BLOCK
  5
24
330
23
100
AcDbEntity
  8
0
100
AcDbBlockBegin
  2
*Paper_Space1
 70
     0
 10
0.0
 20
0.0
 30
0.0
  3
*Paper_Space1
  1

  0
LINE
  5
139
330
23
100
AcDbEntity
  8
0
  6
Continuous
 62
     7
370
    15
100
AcDbLine
 10
66.5
 20
1.11
 30
0.0
 11
66.5
 21
0.0
 31
0.0
  0
LINE
  5
13A
330
23
100
AcDbEntity
  8
0
  6
Continuous
 62
     7
370
    15
100
AcDbLine
 10
69.0
 20
1.11
 30
0.0
 11
69.0
 21
0.0
 31
0.0
  0
LINE
  5
13B
330
23
100
AcDbEntity
  8
0
  6
Continuous
 62
     7
370
    15
100
AcDbLine
 10
-20.6
 20
0.0
 30
0.0
 11
-20.6
 21
1.11
 31
0.0
  0
LINE
  5
13C
330
23
100
AcDbEntity
  8
0
  6
Continuous
 62
     7
370
    15
100
AcDbLine
 10
-24.4
 20
1.11
 30
0.0
 11
-24.4
 21
0.0
 31
0.0
  0
LINE
  5
13D
330
23
100
AcDbEntity
  8
0
  6
Continuous
 62
     7
370
    15
100
AcDbLine
 10
-66.5
 20
1.11
 30
0.0
 11
-66.5
 21
0.0
 31
0.0
  0
LINE
  5
13E
330
23
100
AcDbEntity
  8
0
  6
Continuous
 62
     7
370
    15
100
AcDbLine
 10
-32.6
 20
0.0
 30
0.0
 11
-32.6
 21
1.11
 31
0.0
  0
LINE
  5
13F
330
23
100
AcDbEntity
  8
0
  6
Continuous
 62
     7
370
    15
100
AcDbLine
 10
-7.9
 20
1.11
 30
0.0
 11
-7.9
 21
0.0
 31
0.0
  0
LINE
  5
140
330
23
100
AcDbEntity
  8
0
  6
Continuous
 62
     7
370
    15
100
AcDbLine
 10
-4.1
 20
0.0
 30
0.0
 11
-4.1
 21
1.11
 31
0.0
  0
LINE
  5
141
330
23
100
AcDbEntity
  8
0
  6
Continuous
 62
     7
370
    15
100
AcDbLine
 10
4.1
 20
1.11
 30
0.0
 11
4.1
 21
0.0
 31
0.0
  0
LINE
  5
142
330
23
100
AcDbEntity
  8
0
  6
Continuous
 62
     7
370
    15
100
AcDbLine
 10
12.4
 20
0.0
 30
0.0
 11
12.4
 21
1.11
 31
0.0
  0
LINE
  5
143
330
23
100
AcDbEntity
  8
0
  6
Continuous
 62
     7
370
    15
100
AcDbLine
 10
3.1
 20
0.0
 30
0.0
 11
3.1
 21
1.11
 31
0.0
  0
LINE
  5
144
330
23
100
AcDbEntity
  8
0
  6
Continuous
 62
     7
370
    15
100
AcDbLine
 10
-3.1
 20
1.11
 30
0.0
 11
-3.1
 21
0.0
 31
0.0
  0
LINE
  5
145
330
23
100
AcDbEntity
  8
0
  6
Continuous
 62
     7
370
    15
100
AcDbLine
 10
-8.9
 20
0.0
 30
0.0
 11
-8.9
 21
1.11
 31
0.0
  0
LINE
  5
146
330
23
100
AcDbEntity
  8
0
  6
Continuous
 62
     7
370
    15
100
AcDbLine
 10
-25.4
 20
0.0
 30
0.0
 11
-25.4
 21
1.11
 31
0.0
  0
LINE
  5
147
330
23
100
AcDbEntity
  8
0
  6
Continuous
 62
     7
370
    15
100
AcDbLine
 10
-69.0
 20
1.11
 30
0.0
 11
-69.0
 21
0.0
 31
0.0
  0
LINE
  5
148
330
23
100
AcDbEntity
  8
0
  6
Continuous
 62
     7
370
    15
100
AcDbLine
 10
32.6
 20
1.11
 30
0.0
 11
32.6
 21
0.0
 31
0.0
  0
LINE
  5
149
330
23
100
AcDbEntity
  8
0
  6
Continuous
 62
     7
370
    15
100
AcDbLine
 10
24.4
 20
0.0
 30
0.0
 11
24.4
 21
1.11
 31
0.0
  0
LINE
  5
14A
330
23
100
AcDbEntity
  8
0
  6
Continuous
 62
     7
370
    15
100
AcDbLine
 10
20.6
 20
1.11
 30
0.0
 11
20.6
 21
0.0
 31
0.0
  0
LINE
  5
14B
330
23
100
AcDbEntity
  8
0
  6
Continuous
 62
     7
370
    15
100
AcDbLine
 10
-69.0
 20
1.11
 30
0.0
 11
69.0
 21
1.11
 31
0.0
  0
LINE
  5
14C
330
23
100
AcDbEntity
  8
0
  6
Continuous
 62
     7
370
    15
100
AcDbLine
 10
-69.0
 20
0.0
 30
0.0
 11
69.0
 21
0.0
 31
0.0
  0
LINE
  5
14D
330
23
100
AcDbEntity
  8
0
  6
Continuous
 62
     7
370
    15
100
AcDbLine
 10
13.4
 20
1.11
 30
0.0
 11
13.4
 21
0.0
 31
0.0
  0
LINE
  5
14E
330
23
100
AcDbEntity
  8
0
  6
Continuous
 62
     7
370
    15
100
AcDbLine
 10
19.6
 20
0.0
 30
0.0
 11
19.6
 21
1.11
 31
0.0
  0
LINE
  5
14F
330
23
100
AcDbEntity
  8
0
  6
Continuous
 62
     7
370
    15
100
AcDbLine
 10
31.6
 20
0.0
 30
0.0
 11
31.6
 21
1.11
 31
0.0
  0
LINE
  5
150
330
23
100
AcDbEntity
  8
0
  6
Continuous
 62
     7
370
    15
100
AcDbLine
 10
-19.6
 20
1.11
 30
0.0
 11
-19.6
 21
0.0
 31
0.0
  0
LINE
  5
151
330
23
100
AcDbEntity
  8
0
  6
Continuous
 62
     7
370
    15
100
AcDbLine
 10
25.4
 20
1.11
 30
0.0
 11
25.4
 21
0.0
 31
0.0
  0
LINE
  5
152
330
23
100
AcDbEntity
  8
0
  6
Continuous
 62
     7
370
    15
100
AcDbLine
 10
-31.6
 20
1.11
 30
0.0
 11
-31.6
 21
0.0
 31
0.0
  0
LINE
  5
153
330
23
100
AcDbEntity
  8
0
  6
Continuous
 62
     7
370
    15
100
AcDbLine
 10
-14.25
 20
1.11
 30
0.0
 11
-14.25
 21
0.0
 31
0.0
  0
VIEWPORT
  5
48F
330
23
100
AcDbEntity
  8
0
100
AcDbViewport
 10
0.0
 20
0.0
 30
0.0
 40
243.84
 41
204.216
 68
     1
 69
     1
 12
0.0
 22
0.0
 13
0.0
 23
0.0
 14
10.0
 24
10.0
 15
10.0
 25
10.0
 16
0.0
 26
0.0
 36
1.0
 17
0.0
 27
0.0
 37
0.0
 42
50.0
 43
0.0
 44
0.0
 45
117.8865
 50
0.0
 51
0.0
 72
   100
 90
   557152
  1

281
     0
 71
     1
 74
     0
110
0.0
120
0.0
130
0.0
111
1.0
121
0.0
131
0.0
112
0.0
122
1.0
132
0.0
 79
     0
146
0.0
  0
ENDBLK
  5
25
330
23
100
AcDbEntity
  8
0
100
AcDbBlockEnd
  0
BLOCK
  5
156
330
154
100
AcDbEntity
  8
0
100
AcDbBlockBegin
  2
*Paper_Space2
 70
     0
 10
0.0
 20
0.0
 30
0.0
  3
*Paper_Space2
  1

  0
LINE
  5
162
330
154
100
AcDbEntity
  8
0
  6
Continuous
 62
     7
370
    15
100
AcDbLine
 10
-69.0
 20
1.11
 30
0.0
 11
-69.0
 21
0.0
 31
0.0
  0
LINE
  5
163
330
154
100
AcDbEntity
  8
0
  6
Continuous
 62
     7
370
    15
100
AcDbLine
 10
-66.5
 20
1.11
 30
0.0
 11
-66.5
 21
0.0
 31
0.0
  0
LINE
  5
164
330
154
100
AcDbEntity
  8
0
  6
Continuous
 62
     7
370
    15
100
AcDbLine
 10
66.5
 20
1.11
 30
0.0
 11
66.5
 21
0.0
 31
0.0
  0
LINE
  5
165
330
154
100
AcDbEntity
  8
0
  6
Continuous
 62
     7
370
    15
100
AcDbLine
 10
69.0
 20
1.11
 30
0.0
 11
69.0
 21
0.0
 31
0.0
  0
LINE
  5
166
330
154
100
AcDbEntity
  8
0
  6
Continuous
 62
     7
370
    15
100
AcDbLine
 10
-69.0
 20
1.11
 30
0.0
 11
69.0
 21
1.11
 31
0.0
  0
LINE
  5
167
330
154
100
AcDbEntity
  8
0
  6
Continuous
 62
     7
370
    15
100
AcDbLine
 10
-69.0
 20
0.0
 30
0.0
 11
69.0
 21
0.0
 31
0.0
  0
VIEWPORT
  5
490
330
154
100
AcDbEntity
  8
0
100
AcDbViewport
 10
0.0
 20
0.0
 30
0.0
 40
243.84
 41
204.216
 68
     1
 69
     1
 12
0.0
 22
0.0
 13
0.0
 23
0.0
 14
10.0
 24
10.0
 15
10.0
 25
10.0
 16
0.0
 26
0.0
 36
1.0
 17
0.0
 27
0.0
 37
0.0
 42
50.0
 43
0.0
 44
0.0
 45
117.8865
 50
0.0
 51
0.0
 72
   100
 90
   557152
  1

281
     0
 71
     1
 74
     0
110
0.0
120
0.0
130
0.0
111
1.0
121
0.0
131
0.0
112
0.0
122
1.0
132
0.0
 79
     0
146
0.0
  0
ENDBLK
  5
157
330
154
100
AcDbEntity
  8
0
100
AcDbBlockEnd
  0
BLOCK
  5
16A
330
168
100
AcDbEntity
  8
0
100
AcDbBlockBegin
  2
*Paper_Space3
 70
     0
 10
0.0
 20
0.0
 30
0.0
  3
*Paper_Space3
  1

  0
LINE
  5
176
330
168
100
AcDbEntity
  8
0
  6
Continuous
 62
     7
370
    15
100
AcDbLine
 10
-14.5
 20
1.11
 30
0.0
 11
-14.5
 21
0.0
 31
0.0
  0
LINE
  5
177
330
168
100
AcDbEntity
  8
0
  6
Continuous
 62
     7
370
    15
100
AcDbLine
 10
-17.0
 20
1.11
 30
0.0
 11
17.0
 21
1.11
 31
0.0
  0
LINE
  5
178
330
168
100
AcDbEntity
  8
0
  6
Continuous
 62
     7
370
    15
100
AcDbLine
 10
14.5
 20
1.11
 30
0.0
 11
14.5
 21
0.0
 31
0.0
  0
LINE
  5
179
330
168
100
AcDbEntity
  8
0
  6
Continuous
 62
     7
370
    15
100
AcDbLine
 10
-17.0
 20
0.0
 30
0.0
 11
17.0
 21
0.0
 31
0.0
  0
LINE
  5
17A
330
168
100
AcDbEntity
  8
0
  6
Continuous
 62
     7
370
    15
100
AcDbLine
 10
-17.0
 20
1.11
 30
0.0
 11
-17.0
 21
0.0
 31
0.0
  0
LINE
  5
17B
330
168
100
AcDbEntity
  8
0
  6
Continuous
 62
     7
370
    15
100
AcDbLine
 10
17.0
 20
1.11
 30
0.0
 11
17.0
 21
0.0
 31
0.0
  0
VIEWPORT
  5
491
330
168
100
AcDbEntity
  8
0
100
AcDbViewport
 10
0.0
 20
0.0
 30
0.0
 40
243.84
 41
204.216
 68
     1
 69
     1
 12
0.0
 22
0.0
 13
0.0
 23
0.0
 14
10.0
 24
10.0
 15
10.0
 25
10.0
 16
0.0
 26
0.0
 36
1.0
 17
0.0
 27
0.0
 37
0.0
 42
50.0
 43
0.0
 44
0.0
 45
117.8865
 50
0.0
 51
0.0
 72
   100
 90
   557152
  1

281
     0
 71
     1
 74
     0
110
0.0
120
0.0
130
0.0
111
1.0
121
0.0
131
0.0
112
0.0
122
1.0
132
0.0
 79
     0
146
0.0
  0
ENDBLK
  5
16B
330
168
100
AcDbEntity
  8
0
100
AcDbBlockEnd
  0
BLOCK
  5
17E
330
17C
100
AcDbEntity
  8
0
100
AcDbBlockBegin
  2
*Paper_Space4
 70
     0
 10
0.0
 20
0.0
 30
0.0
  3
*Paper_Space4
  1

  0
LINE
  5
18A
330
17C
100
AcDbEntity
  8
0
  6
Continuous
 62
     7
370
    15
100
AcDbLine
 10
14.5
 20
1.11
 30
0.0
 11
14.5
 21
0.0
 31
0.0
  0
LINE
  5
18B
330
17C
100
AcDbEntity
  8
0
  6
Continuous
 62
     7
370
    15
100
AcDbLine
 10
-17.0
 20
1.11
 30
0.0
 11
17.0
 21
1.11
 31
0.0
  0
LINE
  5
18C
330
17C
100
AcDbEntity
  8
0
  6
Continuous
 62
     7
370
    15
100
AcDbLine
 10
17.0
 20
1.11
 30
0.0
 11
17.0
 21
0.0
 31
0.0
  0
LINE
  5
18D
330
17C
100
AcDbEntity
  8
0
  6
Continuous
 62
     7
370
    15
100
AcDbLine
 10
-17.0
 20
0.0
 30
0.0
 11
17.0
 21
0.0
 31
0.0
  0
LINE
  5
18E
330
17C
100
AcDbEntity
  8
0
  6
Continuous
 62
     7
370
    15
100
AcDbLine
 10
-14.5
 20
1.11
 30
0.0
 11
-14.5
 21
0.0
 31
0.0
  0
LINE
  5
18F
330
17C
100
AcDbEntity
  8
0
  6
Continuous
 62
     7
370
    15
100
AcDbLine
 10
-17.0
 20
1.11
 30
0.0
 11
-17.0
 21
0.0
 31
0.0
  0
VIEWPORT
  5
492
330
17C
100
AcDbEntity
  8
0
100
AcDbViewport
 10
0.0
 20
0.0
 30
0.0
 40
243.84
 41
204.216
 68
     1
 69
     1
 12
0.0
 22
0.0
 13
0.0
 23
0.0
 14
10.0
 24
10.0
 15
10.0
 25
10.0
 16
0.0
 26
0.0
 36
1.0
 17
0.0
 27
0.0
 37
0.0
 42
50.0
 43
0.0
 44
0.0
 45
117.8865
 50
0.0
 51
0.0
 72
   100
 90
   557152
  1

281
     0
 71
     1
 74
     0
110
0.0
120
0.0
130
0.0
111
1.0
121
0.0
131
0.0
112
0.0
122
1.0
132
0.0
 79
     0
146
0.0
  0
ENDBLK
  5
17F
330
17C
100
AcDbEntity
  8
0
100
AcDbBlockEnd
  0
BLOCK
  5
192
330
190
100
AcDbEntity
  8
0
100
AcDbBlockBegin
  2
*Paper_Space5
 70
     0
 10
0.0
 20
0.0
 30
0.0
  3
*Paper_Space5
  1

  0
CIRCLE
  5
194
330
190
100
AcDbEntity
  8
0
  6
Continuous
 62
     7
370
    15
100
AcDbCircle
 10
64.0
 20
0.0
 30
0.0
 40
1.600000000013442
  0
CIRCLE
  5
195
330
190
100
AcDbEntity
  8
0
  6
Continuous
 62
     7
370
    15
100
AcDbCircle
 10
-52.0
 20
0.0
 30
0.0
 40
2.600000000027908
  0
CIRCLE
  5
196
330
190
100
AcDbEntity
  8
0
  6
Continuous
 62
     7
370
    15
100
AcDbCircle
 10
52.0
 20
12.0
 30
0.0
 40
1.600000000000303
  0
CIRCLE
  5
197
330
190
100
AcDbEntity
  8
0
  6
Continuous
 62
     7
370
    15
100
AcDbCircle
 10
-52.0
 20
-12.0
 30
0.0
 40
1.599999999999998
  0
CIRCLE
  5
198
330
190
100
AcDbEntity
  8
0
  6
Continuous
 62
     7
370
    15
100
AcDbCircle
 10
-64.0
 20
0.0
 30
0.0
 40
1.600000000023282
  0
CIRCLE
  5
199
330
190
100
AcDbEntity
  8
0
  6
Continuous
 62
     7
370
    15
100
AcDbCircle
 10
-52.0
 20
12.0
 30
0.0
 40
1.599999999999998
  0
CIRCLE
  5
19A
330
190
100
AcDbEntity
  8
0
  6
Continuous
 62
     7
370
    15
100
AcDbCircle
 10
52.0
 20
-12.0
 30
0.0
 40
1.600000000000296
  0
CIRCLE
  5
19B
330
190
100
AcDbEntity
  8
0
  6
Continuous
 62
     7
370
    15
100
AcDbCircle
 10
52.0
 20
0.0
 30
0.0
 40
2.600000000013507
  0
LINE
  5
1C3
330
190
100
AcDbEntity
  8
0
  6
Continuous
 62
     7
370
    15
100
AcDbLine
 10
25.4
 20
11.655
 30
0.0
 11
25.4
 21
16.0
 31
0.0
  0
LINE
  5
1C4
330
190
100
AcDbEntity
  8
0
  6
Continuous
 62
     7
370
    15
100
AcDbLine
 10
31.6
 20
16.0
 30
0.0
 11
31.6
 21
11.655
 31
0.0
  0
LINE
  5
1C5
330
190
100
AcDbEntity
  8
0
  6
Continuous
 62
     7
370
    15
100
AcDbLine
 10
32.6
 20
17.0
 30
0.0
 11
66.5
 21
17.0
 31
0.0
  0
LINE
  5
1C6
330
190
100
AcDbEntity
  8
0
  6
Continuous
 62
     7
370
    15
100
AcDbLine
 10
69.0
 20
14.5
 30
0.0
 11
69.0
 21
-14.5
 31
0.0
  0
LINE
  5
1C7
330
190
100
AcDbEntity
  8
0
  6
Continuous
 62
     7
370
    15
100
AcDbLine
 10
66.5
 20
-17.0
 30
0.0
 11
-66.5
 21
-17.0
 31
0.0
  0
LINE
  5
1C8
330
190
100
AcDbEntity
  8
0
  6
Continuous
 62
     7
370
    15
100
AcDbLine
 10
-69.0
 20
-14.5
 30
0.0
 11
-69.0
 21
14.5
 31
0.0
  0
LINE
  5
1C9
330
190
100
AcDbEntity
  8
0
  6
Continuous
 62
     7
370
    15
100
AcDbLine
 10
-31.6
 20
11.655
 30
0.0
 11
-31.6
 21
16.0
 31
0.0
  0
LINE
  5
1CA
330
190
100
AcDbEntity
  8
0
  6
Continuous
 62
     7
370
    15
100
AcDbLine
 10
-19.6
 20
11.655
 30
0.0
 11
-19.6
 21
16.0
 31
0.0
  0
LINE
  5
1CB
330
190
100
AcDbEntity
  8
0
  6
Continuous
 62
     7
370
    15
100
AcDbLine
 10
-8.9
 20
16.0
 30
0.0
 11
-8.9
 21
11.655
 31
0.0
  0
LINE
  5
1CC
330
190
100
AcDbEntity
  8
0
  6
Continuous
 62
     7
370
    15
100
AcDbLine
 10
-3.1
 20
11.655
 30
0.0
 11
-3.1
 21
16.0
 31
0.0
  0
LINE
  5
1CD
330
190
100
AcDbEntity
  8
0
  6
Continuous
 62
     7
370
    15
100
AcDbLine
 10
3.1
 20
16.0
 30
0.0
 11
3.1
 21
11.655
 31
0.0
  0
LINE
  5
1CE
330
190
100
AcDbEntity
  8
0
  6
Continuous
 62
     7
370
    15
100
AcDbLine
 10
13.4
 20
11.655
 30
0.0
 11
13.4
 21
16.0
 31
0.0
  0
LINE
  5
1CF
330
190
100
AcDbEntity
  8
0
  6
Continuous
 62
     7
370
    15
100
AcDbLine
 10
19.6
 20
16.0
 30
0.0
 11
19.6
 21
11.655
 31
0.0
  0
LINE
  5
1D0
330
190
100
AcDbEntity
  8
0
  6
Continuous
 62
     7
370
    15
100
AcDbLine
 10
-25.4
 20
16.0
 30
0.0
 11
-25.4
 21
11.655
 31
0.0
  0
LINE
  5
1D1
330
190
100
AcDbEntity
  8
0
  6
Continuous
 62
     7
370
    15
100
AcDbLine
 10
-66.5
 20
17.0
 30
0.0
 11
-32.6
 21
17.0
 31
0.0
  0
LINE
  5
1D2
330
190
100
AcDbEntity
  8
0
  6
Continuous
 62
     7
370
    15
100
AcDbLine
 10
-24.4
 20
17.0
 30
0.0
 11
-20.6
 21
17.0
 31
0.0
  0
LINE
  5
1D3
330
190
100
AcDbEntity
  8
0
  6
Continuous
 62
     7
370
    15
100
AcDbLine
 10
-7.9
 20
17.0
 30
0.0
 11
-4.1
 21
17.0
 31
0.0
  0
LINE
  5
1D4
330
190
100
AcDbEntity
  8
0
  6
Continuous
 62
     7
370
    15
100
AcDbLine
 10
20.6
 20
17.0
 30
0.0
 11
24.4
 21
17.0
 31
0.0
  0
LINE
  5
1D5
330
190
100
AcDbEntity
  8
0
  6
Continuous
 62
     7
370
    15
100
AcDbLine
 10
4.1
 20
17.0
 30
0.0
 11
12.4
 21
17.0
 31
0.0
  0
ARC
  5
1D6
330
190
100
AcDbEntity
  8
0
  6
Continuous
 62
     7
370
    15
100
AcDbCircle
 10
24.4
 20
16.0
 30
0.0
 40
0.9999999999999964
100
AcDbArc
 50
0.0
 51
90.0
  0
ARC
  5
1D7
330
190
100
AcDbEntity
  8
0
  6
Continuous
 62
     7
370
    15
100
AcDbCircle
 10
28.5
 20
11.655
 30
0.0
 40
3.100000000000001
100
AcDbArc
 50
180.0
 51
0.0
  0
ARC
  5
1D8
330
190
100
AcDbEntity
  8
0
  6
Continuous
 62
     7
370
    15
100
AcDbCircle
 10
32.6
 20
16.0
 30
0.0
 40
0.9999999999999964
100
AcDbArc
 50
90.0
 51
180.0
  0
ARC
  5
1D9
330
190
100
AcDbEntity
  8
0
  6
Continuous
 62
     7
370
    15
100
AcDbCircle
 10
66.5
 20
14.5
 30
0.0
 40
2.5
100
AcDbArc
 50
0.0
 51
90.0
  0
ARC
  5
1DA
330
190
100
AcDbEntity
  8
0
  6
Continuous
 62
     7
370
    15
100
AcDbCircle
 10
66.5
 20
-14.5
 30
0.0
 40
2.499999999999986
100
AcDbArc
 50
270.0
 51
0.0
  0
ARC
  5
1DB
330
190
100
AcDbEntity
  8
0
  6
Continuous
 62
     7
370
    15
100
AcDbCircle
 10
-66.5
 20
-14.5
 30
0.0
 40
2.500000000000014
100
AcDbArc
 50
180.0
 51
270.0
  0
ARC
  5
1DC
330
190
100
AcDbEntity
  8
0
  6
Continuous
 62
     7
370
    15
100
AcDbCircle
 10
-66.5
 20
14.5
 30
0.0
 40
2.5
100
AcDbArc
 50
90.0
 51
180.0
  0
ARC
  5
1DD
330
190
100
AcDbEntity
  8
0
  6
Continuous
 62
     7
370
    15
100
AcDbCircle
 10
-32.6
 20
16.0
 30
0.0
 40
1.000000000000004
100
AcDbArc
 50
0.0
 51
90.0
  0
ARC
  5
1DE
330
190
100
AcDbEntity
  8
0
  6
Continuous
 62
     7
370
    15
100
AcDbCircle
 10
-28.5
 20
11.655
 30
0.0
 40
3.100000000000431
100
AcDbArc
 50
180.0
 51
0.0
  0
ARC
  5
1DF
330
190
100
AcDbEntity
  8
0
  6
Continuous
 62
     7
370
    15
100
AcDbCircle
 10
-24.4
 20
16.0
 30
0.0
 40
1.000000000000004
100
AcDbArc
 50
90.0
 51
180.0
  0
ARC
  5
1E0
330
190
100
AcDbEntity
  8
0
  6
Continuous
 62
     7
370
    15
100
AcDbCircle
 10
-20.6
 20
16.0
 30
0.0
 40
1.000000000000004
100
AcDbArc
 50
0.0
 51
90.0
  0
ARC
  5
1E1
330
190
100
AcDbEntity
  8
0
  6
Continuous
 62
     7
370
    15
100
AcDbCircle
 10
-16.5
 20
11.655
 30
0.0
 40
3.100000000000433
100
AcDbArc
 50
180.0
 51
316.5359765017
  0
ARC
  5
1E2
330
190
100
AcDbEntity
  8
0
  6
Continuous
 62
     7
370
    15
100
AcDbCircle
 10
-12.0
 20
11.655
 30
0.0
 40
3.100000000000001
100
AcDbArc
 50
223.4640234983
 51
0.0
  0
ARC
  5
1E3
330
190
100
AcDbEntity
  8
0
  6
Continuous
 62
     7
370
    15
100
AcDbCircle
 10
-7.9
 20
16.0
 30
0.0
 40
1.0
100
AcDbArc
 50
90.0
 51
180.0
  0
ARC
  5
1E4
330
190
100
AcDbEntity
  8
0
  6
Continuous
 62
     7
370
    15
100
AcDbCircle
 10
-4.1
 20
16.0
 30
0.0
 40
1.0
100
AcDbArc
 50
0.0
 51
90.0
  0
ARC
  5
1E5
330
190
100
AcDbEntity
  8
0
  6
Continuous
 62
     7
370
    15
100
AcDbCircle
 10
0.0
 20
11.655
 30
0.0
 40
3.100000000000001
100
AcDbArc
 50
180.0
 51
0.0
  0
ARC
  5
1E6
330
190
100
AcDbEntity
  8
0
  6
Continuous
 62
     7
370
    15
100
AcDbCircle
 10
4.1
 20
16.0
 30
0.0
 40
1.000000000000007
100
AcDbArc
 50
90.0
 51
180.0
  0
ARC
  5
1E7
330
190
100
AcDbEntity
  8
0
  6
Continuous
 62
     7
370
    15
100
AcDbCircle
 10
12.4
 20
16.0
 30
0.0
 40
0.9999999999999929
100
AcDbArc
 50
0.0
 51
90.0
  0
ARC
  5
1E8
330
190
100
AcDbEntity
  8
0
  6
Continuous
 62
     7
370
    15
100
AcDbCircle
 10
16.5
 20
11.655
 30
0.0
 40
3.100000000000001
100
AcDbArc
 50
180.0
 51
0.0
  0
ARC
  5
1E9
330
190
100
AcDbEntity
  8
0
  6
Continuous
 62
     7
370
    15
100
AcDbCircle
 10
20.6
 20
16.0
 30
0.0
 40
1.000000000000007
100
AcDbArc
 50
90.0
 51
180.0
  0
VIEWPORT
  5
493
330
190
100
AcDbEntity
  8
0
100
AcDbViewport
 10
0.0
 20
0.0
 30
0.0
 40
243.84
 41
204.216
 68
     1
 69
     1
 12
0.0
 22
0.0
 13
0.0
 23
0.0
 14
10.0
 24
10.0
 15
10.0
 25
10.0
 16
0.0
 26
0.0
 36
1.0
 17
0.0
 27
0.0
 37
0.0
 42
50.0
 43
0.0
 44
0.0
 45
117.8865
 50
0.0
 51
0.0
 72
   100
 90
   557152
  1

281
     0
 71
     1
 74
     0
110
0.0
120
0.0
130
0.0
111
1.0
121
0.0
131
0.0
112
0.0
122
1.0
132
0.0
 79
     0
146
0.0
  0
ENDBLK
  5
193
330
190
100
AcDbEntity
  8
0
100
AcDbBlockEnd
  0
BLOCK
  5
2D7
330
2D5
100
AcDbEntity
  8
0
100
AcDbBlockBegin
  2
*Paper_Space6
 70
     0
 10
0.0
 20
0.0
 30
0.0
  3
*Paper_Space6
  1

  0
LWPOLYLINE
  5
2E0
330
2D5
100
AcDbEntity
  8
0
  6
Continuous
 62
     7
370
    15
100
AcDbPolyline
 90
       26
 70
   128
 43
0.0
 10
55.856047165
 20
-15.1607759669
 10
56.2314198638
 20
-15.2335214295
 10
56.6301252157
 20
-15.2559019374
 10
57.027111097
 20
-15.2265112409
 10
57.3974334249
 20
-15.1471960655
 10
57.7178234856
 20
-15.0229400754
 10
57.9681499931
 20
-14.8615507315
 10
58.1326840125
 20
-14.6731687198
 10
58.2010872662
 20
-14.4696307748
 10
58.1690617261
 20
-14.2637259344
 10
58.0386196748
 20
-14.0683919567
 10
57.817957266
 20
-13.8959023941
 10
57.5209395304
 20
-13.7570954001
 10
57.1662291848
 20
-13.6606927287
 10
56.7761139846
 20
-13.6127517142
 10
56.3751063026
 20
-13.6162846669
 10
55.9884029264
 20
-13.6710695985
 10
55.6403018512
 20
-13.77366417
 10
55.3526755477
 20
-13.9176219874
 10
55.1435966346
 20
-14.0938976515
 10
55.0262023087
 20
-14.291415114
 10
55.0078688874
 20
-14.4977636264
 10
55.089748327
 20
-14.6999775526
 10
55.266695841
 20
-14.8853510481
 10
55.5275931666
 20
-15.0422364144
 10
55.856047165
 20
-15.1607759669
  0
LWPOLYLINE
  5
2E1
330
2D5
100
AcDbEntity
  8
0
  6
Continuous
 62
     7
370
    15
100
AcDbPolyline
 90
       33
 70
   128
 43
0.0
 10
-47.2031503385
 20
12.2661588096
 10
-46.7312273618
 20
12.1669932965
 10
-46.230809531
 20
12.1171515433
 10
-45.7211276229
 20
12.1185489405
 10
-45.2217684271
 20
12.1711317869
 10
-44.7519220377
 20
12.2728793533
 10
-44.3296443878
 20
12.4198815377
 10
-43.9711633707
 20
12.6064891287
 10
-43.6902552109
 20
12.8255309012
 10
-43.4977150514
 20
13.0685892026
 10
-43.4009421026
 20
13.3263234388
 10
-43.4036552946
 20
13.5888290276
 10
-43.5057503609
 20
13.8460180265
 10
-43.7033038455
 20
14.0880068064
 10
-43.9887238787
 20
14.3054958743
 10
-44.3510419287
 20
14.4901272472
 10
-44.776334316
 20
14.634805645
 10
-45.2482572927
 20
14.7339711581
 10
-45.7486751235
 20
14.7838129114
 10
-46.2583570317
 20
14.7824155142
 10
-46.7577162274
 20
14.7298326678
 10
-47.2275626169
 20
14.6280851014
 10
-47.6498402668
 20
14.4810829169
 10
-48.0083212838
 20
14.294475326
 10
-48.2892294437
 20
14.0754335535
 10
-48.4817696031
 20
13.8323752521
 10
-48.578542552
 20
13.5746410159
 10
-48.57582936
 20
13.3121354271
 10
-48.4737342936
 20
13.0549464282
 10
-48.276180809
 20
12.8129576483
 10
-47.9907607758
 20
12.5954685804
 10
-47.6284427258
 20
12.4108372075
 10
-47.2031503385
 20
12.2661588096
  0
LWPOLYLINE
  5
2E2
330
2D5
100
AcDbEntity
  8
0
  6
Continuous
 62
     7
370
    15
100
AcDbPolyline
 90
       26
 70
   128
 43
0.0
 10
39.6426850378
 20
-17.7424933123
 10
40.0180577365
 20
-17.815238775
 10
40.4167630884
 20
-17.8376192828
 10
40.8137489697
 20
-17.8082285863
 10
41.1840712976
 20
-17.7289134109
 10
41.5044613583
 20
-17.6046574208
 10
41.7547878658
 20
-17.4432680769
 10
41.9193218852
 20
-17.2548860652
 10
41.9877251389
 20
-17.0513481203
 10
41.9556995988
 20
-16.8454432798
 10
41.8252575475
 20
-16.6501093022
 10
41.6045951387
 20
-16.4776197396
 10
41.3075774031
 20
-16.3388127456
 10
40.9528670575
 20
-16.2424100742
 10
40.5627518573
 20
-16.1944690597
 10
40.1617441754
 20
-16.1980020124
 10
39.7750407991
 20
-16.2527869439
 10
39.4269397239
 20
-16.3553815155
 10
39.1393134205
 20
-16.4993393329
 10
38.9302345073
 20
-16.6756149969
 10
38.8128401815
 20
-16.8731324595
 10
38.7945067602
 20
-17.0794809718
 10
38.8763861997
 20
-17.2816948981
 10
39.0533337138
 20
-17.4670683936
 10
39.3142310393
 20
-17.6239537598
 10
39.6426850378
 20
-17.7424933123
  0
LWPOLYLINE
  5
2E3
330
2D5
100
AcDbEntity
  8
0
  6
Continuous
 62
     7
370
    15
100
AcDbPolyline
 90
       26
 70
   128
 43
0.0
 10
-41.1361102824
 20
18.1877758981
 10
-40.7607375836
 20
18.1150304355
 10
-40.3620322318
 20
18.0926499276
 10
-39.9650463504
 20
18.1220406241
 10
-39.5947240225
 20
18.2013557995
 10
-39.2743339619
 20
18.3256117896
 10
-39.0240074543
 20
18.4870011335
 10
-38.8594734349
 20
18.6753831452
 10
-38.7910701812
 20
18.8789210901
 10
-38.8230957213
 20
19.0848259306
 10
-38.9535377727
 20
19.2801599083
 10
-39.1742001815
 20
19.4526494709
 10
-39.471217917
 20
19.5914564649
 10
-39.8259282627
 20
19.6878591363
 10
-40.2160434628
 20
19.7358001508
 10
-40.6170511448
 20
19.732267198
 10
-41.003754521
 20
19.6774822665
 10
-41.3518555962
 20
19.5748876949
 10
-41.6394818997
 20
19.4309298776
 10
-41.8485608128
 20
19.2546542135
 10
-41.9659551387
 20
19.057136751
 10
-41.98428856
 20
18.8507882386
 10
-41.9024091204
 20
18.6485743124
 10
-41.7254616063
 20
18.4632008168
 10
-41.4645642808
 20
18.3063154506
 10
-41.1361102824
 20
18.1877758981
  0
LWPOLYLINE
  5
2E4
330
2D5
100
AcDbEntity
  8
0
  6
Continuous
 62
     7
370
    15
100
AcDbPolyline
 90
       26
 70
   128
 43
0.0
 10
-57.3494724097
 20
15.6060585527
 10
-56.9740997109
 20
15.53331309
 10
-56.5753943591
 20
15.5109325821
 10
-56.1784084777
 20
15.5403232787
 10
-55.8080861498
 20
15.6196384541
 10
-55.4876960892
 20
15.7438944441
 10
-55.2373695816
 20
15.9052837881
 10
-55.0728355622
 20
16.0936657998
 10
-55.0044323085
 20
16.2972037447
 10
-55.0364578486
 20
16.5031085852
 10
-55.1668999
 20
16.6984425628
 10
-55.3875623088
 20
16.8709321254
 10
-55.6845800443
 20
17.0097391194
 10
-56.03929039
 20
17.1061417909
 10
-56.4294055901
 20
17.1540828053
 10
-56.8304132721
 20
17.1505498526
 10
-57.2171166483
 20
17.0957649211
 10
-57.5652177236
 20
16.9931703495
 10
-57.852844027
 20
16.8492125321
 10
-58.0619229402
 20
16.6729368681
 10
-58.179317266
 20
16.4754194055
 10
-58.1976506873
 20
16.2690708932
 10
-58.1157712478
 20
16.0668569669
 10
-57.9388237337
 20
15.8814834714
 10
-57.6779264082
 20
15.7245981051
 10
-57.3494724097
 20
15.6060585527
  0
LWPOLYLINE
  5
2E5
330
2D5
100
AcDbEntity
  8
0
  6
Continuous
 62
     7
370
    15
100
AcDbPolyline
 90
       26
 70
   128
 43
0.0
 10
-52.3367996167
 20
7.2555597348
 10
-51.9614269179
 20
7.1828142722
 10
-51.5627215661
 20
7.1604337643
 10
-51.1657356847
 20
7.1898244608
 10
-50.7954133568
 20
7.2691396362
 10
-50.4750232962
 20
7.3933956263
 10
-50.2246967886
 20
7.5547849702
 10
-50.0601627692
 20
7.7431669819
 10
-49.9917595156
 20
7.9467049268
 10
-50.0237850556
 20
8.1526097673
 10
-50.154227107
 20
8.347943745
 10
-50.3748895158
 20
8.5204333076
 10
-50.6719072513
 20
8.6592403016
 10
-51.026617597
 20
8.755642973
 10
-51.4167327972
 20
8.8035839874
 10
-51.8177404791
 20
8.8000510347
 10
-52.2044438553
 20
8.7452661032
 10
-52.5525449306
 20
8.6426715316
 10
-52.840171234
 20
8.4987137143
 10
-53.0492501471
 20
8.3224380502
 10
-53.166644473
 20
8.1249205877
 10
-53.1849778943
 20
7.9185720753
 10
-53.1030984547
 20
7.7163581491
 10
-52.9261509407
 20
7.5309846535
 10
-52.6652536152
 20
7.3740992873
 10
-52.3367996167
 20
7.2555597348
  0
LWPOLYLINE
  5
2E6
330
2D5
100
AcDbEntity
  8
0
  6
Continuous
 62
     7
370
    15
100
AcDbPolyline
 90
       26
 70
   128
 43
0.0
 10
50.8433743721
 20
-6.810277149
 10
51.2187470709
 20
-6.8830226117
 10
51.6174524227
 20
-6.9054031195
 10
52.014438304
 20
-6.876012423
 10
52.3847606319
 20
-6.7966972476
 10
52.7051506926
 20
-6.6724412575
 10
52.9554772002
 20
-6.5110519136
 10
53.1200112195
 20
-6.3226699019
 10
53.1884144732
 20
-6.119131957
 10
53.1563889331
 20
-5.9132271165
 10
53.0259468818
 20
-5.7178931389
 10
52.805284473
 20
-5.5454035763
 10
52.5082667374
 20
-5.4065965823
 10
52.1535563918
 20
-5.3101939109
 10
51.7634411916
 20
-5.2622528964
 10
51.3624335097
 20
-5.2657858491
 10
50.9757301334
 20
-5.3205707806
 10
50.6276290582
 20
-5.4231653522
 10
50.3400027548
 20
-5.5671231696
 10
50.1309238416
 20
-5.7433988336
 10
50.0135295158
 20
-5.9409162961
 10
49.9951960945
 20
-6.1472648085
 10
50.077075534
 20
-6.3494787348
 10
50.2540230481
 20
-6.5348522303
 10
50.5149203736
 20
-6.6917375965
 10
50.8433743721
 20
-6.810277149
  0
LWPOLYLINE
  5
2E7
330
2D5
100
AcDbEntity
  8
0
  6
Continuous
 62
     7
370
    15
100
AcDbPolyline
 90
       33
 70
   128
 43
0.0
 10
44.776334316
 20
-12.7318942375
 10
45.2482572927
 20
-12.8310597506
 10
45.7486751234
 20
-12.8809015038
 10
46.2583570316
 20
-12.8795041066
 10
46.7577162274
 20
-12.8269212602
 10
47.2275626168
 20
-12.7251736938
 10
47.6498402667
 20
-12.5781715094
 10
48.0083212838
 20
-12.3915639184
 10
48.2892294436
 20
-12.172522146
 10
48.4817696031
 20
-11.9294638445
 10
48.5785425519
 20
-11.6717296083
 10
48.5758293599
 20
-11.4092240195
 10
48.4737342935
 20
-11.1520350207
 10
48.2761808089
 20
-10.9100462407
 10
47.9907607757
 20
-10.6925571729
 10
47.6284427257
 20
-10.5079257999
 10
47.2031503384
 20
-10.3632474021
 10
46.7312273617
 20
-10.264081889
 10
46.230809531
 20
-10.2142401357
 10
45.7211276228
 20
-10.2156375329
 10
45.2217684271
 20
-10.2682203794
 10
44.7519220376
 20
-10.3699679458
 10
44.3296443877
 20
-10.5169701302
 10
43.9711633706
 20
-10.7035777212
 10
43.6902552108
 20
-10.9226194936
 10
43.4977150513
 20
-11.165677795
 10
43.4009421025
 20
-11.4234120312
 10
43.4036552945
 20
-11.68591762
 10
43.5057503609
 20
-11.9431066189
 10
43.7033038455
 20
-12.1850953988
 10
43.9887238787
 20
-12.4025844667
 10
44.3510419287
 20
-12.5872158396
 10
44.776334316
 20
-12.7318942375
  0
LWPOLYLINE
  5
2E8
330
2D5
100
AcDbEntity
  8
0
  6
Continuous
 62
     7
370
    15
100
AcDbPolyline
 90
       18
 70
   128
 43
0.0
 10
6.4118680725
 20
-7.5784047593
 10
6.7243913233
 20
-7.3316234492
 10
7.1196371447
 20
-7.1186206346
 10
7.5841459142
 20
-6.9466498709
 10
8.1020993428
 20
-6.8215674162
 10
8.6558591477
 20
-6.7476328035
 10
9.2265677029
 20
-6.7273637874
 10
9.7947902131
 20
-6.7614506048
 10
10.3411765422
 20
-6.8487324702
 10
10.847120159
 20
-6.9862371042
 10
11.2953917606
 20
-7.1692819514
 10
11.670725995
 20
-7.3916336392
 10
11.9603413053
 20
-7.6457202475
 10
12.1543751893
 20
-7.9228891615
 10
12.2462200558
 20
-8.2137017264
 10
12.2327482381
 20
-8.508254669
 10
12.1144185027
 20
-8.7965173422
 10
11.8952604269
 20
-9.0686733063
  0
LWPOLYLINE
  5
2EC
330
2D5
100
AcDbEntity
  8
0
  6
Continuous
 62
     7
370
    15
100
AcDbPolyline
 90
        9
 70
   128
 43
0.0
 10
-4.7254300457
 20
-7.0818226786
 10
-4.7994839532
 20
-7.1753066407
 10
-4.8367043181
 20
-7.2744351931
 10
-4.8356607827
 20
-7.3753988811
 10
-4.7963934495
 20
-7.4743177268
 10
-4.72041134
 20
-7.5673903345
 10
-4.6106344042
 20
-7.651039976
 10
-4.4712813081
 20
-7.7220520425
 10
-4.3077073129
 20
-7.7776975801
  0
LWPOLYLINE
  5
2EE
330
2D5
100
AcDbEntity
  8
0
  6
Continuous
 62
     7
370
    15
100
AcDbPolyline
 90
       18
 70
   128
 43
0.0
 10
-8.1810309352
 20
-3.612367497
 10
-7.8685076844
 20
-3.3655861869
 10
-7.473261863
 20
-3.1525833723
 10
-7.0087530935
 20
-2.9806126086
 10
-6.4907996649
 20
-2.8555301539
 10
-5.93703986
 20
-2.7815955413
 10
-5.3663313048
 20
-2.7613265251
 10
-4.7981087946
 20
-2.7954133426
 10
-4.2517224655
 20
-2.8826952079
 10
-3.7457788487
 20
-3.0201998419
 10
-3.2975072471
 20
-3.2032446892
 10
-2.9221730126
 20
-3.4255963769
 10
-2.6325577024
 20
-3.6796829852
 10
-2.4385238184
 20
-3.9568518993
 10
-2.3466789519
 20
-4.2476644641
 10
-2.3601507696
 20
-4.5422174068
 10
-2.478480505
 20
-4.8304800799
 10
-2.6976385808
 20
-5.102636044
  0
LWPOLYLINE
  5
2F2
330
2D5
100
AcDbEntity
  8
0
  6
Continuous
 62
     7
370
    15
100
AcDbPolyline
 90
        9
 70
   128
 43
0.0
 10
-15.3384475058
 20
-4.1974319424
 10
-15.4125014133
 20
-4.2909159045
 10
-15.4497217782
 20
-4.3900444569
 10
-15.4486782429
 20
-4.4910081449
 10
-15.4094109096
 20
-4.5899269906
 10
-15.3334288002
 20
-4.6829995983
 10
-15.2236518643
 20
-4.7666492397
 10
-15.0842987682
 20
-4.8376613063
 10
-14.9207247731
 20
-4.8933068439
  0
LWPOLYLINE
  5
2F4
330
2D5
100
AcDbEntity
  8
0
  6
Continuous
 62
     7
370
    15
100
AcDbPolyline
 90
       14
 70
   128
 43
0.0
 10
-17.0470712301
 20
0.0390791781
 10
-16.495209274
 20
0.1071310019
 10
-15.9285081561
 20
0.1222324053
 10
-15.3659567792
 20
0.0838773735
 10
-14.8264049974
 20
-0.006648901
 10
-14.3279319993
 20
-0.1463130826
 10
-13.8872405141
 20
-0.3304353332
 10
-13.5190971401
 20
-0.5528461228
 10
-13.2358375488
 20
-0.806092957
 10
-13.0469531433
 20
-1.0816900938
 10
-12.9587730229
 20
-1.3704028818
 10
-12.9742519088
 20
-1.6625571931
 10
-13.0928711376
 20
-1.9483635821
 10
-13.3106560409
 20
-2.2182453078
  0
LWPOLYLINE
  5
2F9
330
2D5
100
AcDbEntity
  8
0
  6
Continuous
 62
     7
370
    15
100
AcDbPolyline
 90
        9
 70
   128
 43
0.0
 10
-29.9313465135
 20
-0.2313946801
 10
-30.005400421
 20
-0.3248786422
 10
-30.0426207859
 20
-0.4240071946
 10
-30.0415772505
 20
-0.5249708826
 10
-30.0023099173
 20
-0.6238897283
 10
-29.9263278079
 20
-0.716962336
 10
-29.816550872
 20
-0.8006119775
 10
-29.6771977759
 20
-0.871624044
 10
-29.5136237807
 20
-0.9272695816
  0
LWPOLYLINE
  5
2FB
330
2D5
100
AcDbEntity
  8
0
  6
Continuous
 62
     7
370
    15
100
AcDbPolyline
 90
       18
 70
   128
 43
0.0
 10
-33.386947403
 20
3.2380605015
 10
-33.0744241522
 20
3.4848418116
 10
-32.6791783308
 20
3.6978446262
 10
-32.2146695613
 20
3.8698153899
 10
-31.6967161327
 20
3.9948978446
 10
-31.1429563278
 20
4.0688324572
 10
-30.5722477726
 20
4.0891014734
 10
-30.0040252624
 20
4.0550146559
 10
-29.4576389333
 20
3.9677327906
 10
-28.9516953165
 20
3.8302281566
 10
-28.5034237149
 20
3.6471833093
 10
-28.1280894804
 20
3.4248316216
 10
-27.8384741702
 20
3.1707450133
 10
-27.6444402862
 20
2.8935760992
 10
-27.5525954197
 20
2.6027635344
 10
-27.5660672374
 20
2.3082105917
 10
-27.6843969728
 20
2.0199479186
 10
-27.9035550486
 20
1.7477919544
  0
LWPOLYLINE
  5
2FF
330
2D5
100
AcDbEntity
  8
0
  6
Continuous
 62
     7
370
    15
100
AcDbPolyline
 90
        9
 70
   128
 43
0.0
 10
-67.7919335352
 20
10.9318218383
 10
-67.977068304
 20
10.6981119331
 10
-68.0701192163
 20
10.4502905521
 10
-68.0675103778
 20
10.1978813321
 10
-67.9693420448
 20
9.9505842178
 10
-67.7793867711
 20
9.7179026987
 10
-67.5049444315
 20
9.5087785949
 10
-67.1565616912
 20
9.3312484287
 10
-66.7476267034
 20
9.1921345846
  0
LWPOLYLINE
  5
303
330
2D5
100
AcDbEntity
  8
0
  6
Continuous
 62
     7
370
    15
100
AcDbPolyline
 90
        9
 70
   128
 43
0.0
 10
67.7919335352
 20
-9.0289104307
 10
67.977068304
 20
-8.7952005255
 10
68.0701192163
 20
-8.5473791446
 10
68.0675103778
 20
-8.2949699246
 10
67.9693420448
 20
-8.0476728103
 10
67.7793867711
 20
-7.8149912911
 10
67.5049444315
 20
-7.6058671874
 10
67.1565616912
 20
-7.4283370211
 10
66.7476267034
 20
-7.289223177
  0
LWPOLYLINE
  5
307
330
2D5
100
AcDbEntity
  8
0
  6
Continuous
 62
     7
370
    15
100
AcDbPolyline
 90
        9
 70
   128
 43
0.0
 10
20.4804864221
 20
-13.9322506771
 10
20.4064325146
 20
-14.0257346392
 10
20.3692121497
 20
-14.1248631916
 10
20.3702556851
 20
-14.2258268796
 10
20.4095230183
 20
-14.3247457253
 10
20.4855051278
 20
-14.417818333
 10
20.5952820636
 20
-14.5014679744
 10
20.7346351598
 20
-14.572480041
 10
20.8982091549
 20
-14.6281255786
  0
LWPOLYLINE
  5
309
330
2D5
100
AcDbEntity
  8
0
  6
Continuous
 62
     7
370
    15
100
AcDbPolyline
 90
       18
 70
   128
 43
0.0
 10
17.0248855326
 20
-10.4627954955
 10
17.3374087835
 20
-10.2160141854
 10
17.7326546048
 20
-10.0030113708
 10
18.1971633743
 20
-9.8310406071
 10
18.7151168029
 20
-9.7059581524
 10
19.2688766078
 20
-9.6320235397
 10
19.839585163
 20
-9.6117545236
 10
20.4078076732
 20
-9.6458413411
 10
20.9541940023
 20
-9.7331232064
 10
21.4601376191
 20
-9.8706278404
 10
21.9084092207
 20
-10.0536726876
 10
22.2837434552
 20
-10.2760243754
 10
22.5733587654
 20
-10.5301109837
 10
22.7673926494
 20
-10.8072798977
 10
22.8592375159
 20
-11.0980924626
 10
22.8457656982
 20
-11.3926454052
 10
22.7274359628
 20
-11.6809080784
 10
22.508277887
 20
-11.9530640425
  0
LWPOLYLINE
  5
30D
330
2D5
100
AcDbEntity
  8
0
  6
Continuous
 62
     7
370
    15
100
AcDbPolyline
 90
        9
 70
   128
 43
0.0
 10
9.867468962
 20
-11.0478599409
 10
9.7934150545
 20
-11.141343903
 10
9.7561946896
 20
-11.2404724554
 10
9.757238225
 20
-11.3414361434
 10
9.7965055582
 20
-11.4403549891
 10
9.8724876676
 20
-11.5334275967
 10
9.9822646035
 20
-11.6170772382
 10
10.1216176996
 20
-11.6880893047
 10
10.2851916947
 20
-11.7437348424
  0
LWPOLYLINE
  5
317
330
2D5
100
AcDbEntity
  8
0
  6
Continuous
 62
     7
370
    15
100
AcDbPolyline
 90
        3
 70
   128
 43
0.0
 10
41.6958525143
 20
-17.4894067533
 10
41.4645642808
 20
-17.3548597468
 10
41.1361102824
 20
-17.2363201943
  0
LWPOLYLINE
  5
319
330
2D5
100
AcDbEntity
  8
0
  6
Continuous
 62
     7
370
    15
100
AcDbPolyline
 90
        3
 70
   128
 43
0.0
 10
57.9092146416
 20
-14.9076894079
 10
57.6779264081
 20
-14.7731424014
 10
57.3494724096
 20
-14.6546028489
  0
LWPOLYLINE
  5
31A
330
2D5
100
AcDbEntity
  8
0
  6
Continuous
 62
     7
370
    15
100
AcDbPolyline
 90
        7
 70
   128
 43
0.0
 10
20.8982091549
 20
-15.5795812824
 10
20.7346351598
 20
-15.5239357447
 10
20.5952820636
 20
-15.4529236782
 10
20.4855051278
 20
-15.3692740367
 10
20.4095230183
 20
-15.2762014291
 10
20.3702556851
 20
-15.1772825834
 10
20.3649045438
 20
-15.1240722756
  0
LWPOLYLINE
  5
325
330
2D5
100
AcDbEntity
  8
0
  6
Continuous
 62
     7
370
    15
100
AcDbPolyline
 90
        7
 70
   128
 43
0.0
 10
10.2851916947
 20
-12.6951905462
 10
10.1216176996
 20
-12.6395450085
 10
9.9822646035
 20
-12.568532942
 10
9.8724876676
 20
-12.4848833005
 10
9.7965055582
 20
-12.3918106929
 10
9.757238225
 20
-12.2928918471
 10
9.7518870837
 20
-12.2396815394
  0
LWPOLYLINE
  5
32F
330
2D5
100
AcDbEntity
  8
0
  6
Continuous
 62
     7
370
    15
100
AcDbPolyline
 90
        7
 70
   128
 43
0.0
 10
-4.3077073129
 20
-8.7291532839
 10
-4.4712813081
 20
-8.6735077462
 10
-4.6106344042
 20
-8.6024956797
 10
-4.72041134
 20
-8.5188460382
 10
-4.7963934495
 20
-8.4257734306
 10
-4.8356607827
 20
-8.3268545849
 10
-4.841011924
 20
-8.2736442771
  0
LWPOLYLINE
  5
331
330
2D5
100
AcDbEntity
  8
0
  6
Continuous
 62
     7
370
    15
100
AcDbPolyline
 90
        3
 70
   128
 43
0.0
 10
52.8965418486
 20
-6.55719059
 10
52.6652536152
 20
-6.4226435835
 10
52.3367996167
 20
-6.304104031
  0
LWPOLYLINE
  5
33A
330
2D5
100
AcDbEntity
  8
0
  6
Continuous
 62
     7
370
    15
100
AcDbPolyline
 90
        7
 70
   128
 43
0.0
 10
-14.9207247731
 20
-5.8447625477
 10
-15.0842987682
 20
-5.78911701
 10
-15.2236518643
 20
-5.7181049435
 10
-15.3334288002
 20
-5.634455302
 10
-15.4094109096
 20
-5.5413826944
 10
-15.4486782429
 20
-5.4424638487
 10
-15.4540293841
 20
-5.3892535409
  0
LWPOLYLINE
  5
345
330
2D5
100
AcDbEntity
  8
0
  6
Continuous
 62
     7
370
    15
100
AcDbPolyline
 90
        7
 70
   128
 43
0.0
 10
-29.5136237807
 20
-1.8787252854
 10
-29.6771977759
 20
-1.8230797477
 10
-29.816550872
 20
-1.7520676812
 10
-29.9263278079
 20
-1.6684180397
 10
-30.0023099173
 20
-1.5753454321
 10
-30.0415772505
 20
-1.4764265864
 10
-30.0469283918
 20
-1.4232162786
  0
LWPOLYLINE
  5
34F
330
2D5
100
AcDbEntity
  8
0
  6
Continuous
 62
     7
370
    15
100
AcDbPolyline
 90
        3
 70
   128
 43
0.0
 10
-50.2836321401
 20
7.5086462938
 10
-50.5149203736
 20
7.6431933003
 10
-50.8433743721
 20
7.7617328528
  0
LWPOLYLINE
  5
350
330
2D5
100
AcDbEntity
  8
0
  6
Continuous
 62
     7
370
    15
100
AcDbPolyline
 90
        7
 70
   128
 43
0.0
 10
-68.080888231
 20
9.3794513978
 10
-68.0675103778
 20
9.2464256283
 10
-67.9693420448
 20
8.9991285141
 10
-67.7793867711
 20
8.7664469949
 10
-67.5049444315
 20
8.5573228912
 10
-67.1565616912
 20
8.3797927249
 10
-66.7476267034
 20
8.2406788808
  0
LWPOLYLINE
  5
354
330
2D5
100
AcDbEntity
  8
0
  6
Continuous
 62
     7
370
    15
100
AcDbPolyline
 90
        3
 70
   128
 43
0.0
 10
-55.2963049331
 20
15.8591451117
 10
-55.5275931666
 20
15.9936921182
 10
-55.8560471651
 20
16.1122316707
  0
LWPOLYLINE
  5
356
330
2D5
100
AcDbEntity
  8
0
  6
Continuous
 62
     7
370
    15
100
AcDbPolyline
 90
        3
 70
   128
 43
0.0
 10
-39.0829428058
 20
18.4408624571
 10
-39.3142310393
 20
18.5754094636
 10
-39.6426850378
 20
18.6939490161
  0
LINE
  5
357
330
2D5
100
AcDbEntity
  8
0
  6
Continuous
 62
     7
370
    15
100
AcDbLine
 10
20.3649045438
 20
-14.1726165718
 30
0.0
 11
20.3649045438
 21
-15.1240722756
 31
0.0
  0
LINE
  5
358
330
2D5
100
AcDbEntity
  8
0
  6
Continuous
 62
     7
370
    15
100
AcDbLine
 10
9.7518870837
 20
-11.2882258356
 30
0.0
 11
9.7518870837
 21
-12.2396815394
 31
0.0
  0
LINE
  5
359
330
2D5
100
AcDbEntity
  8
0
  6
Continuous
 62
     7
370
    15
100
AcDbLine
 10
68.080888231
 20
-9.3794513978
 30
0.0
 11
68.080888231
 21
-8.427995694
 31
0.0
  0
LINE
  5
35A
330
2D5
100
AcDbEntity
  8
0
  6
Continuous
 62
     7
370
    15
100
AcDbLine
 10
-4.841011924
 20
-7.3221885733
 30
0.0
 11
-4.841011924
 21
-8.2736442771
 31
0.0
  0
LINE
  5
35B
330
2D5
100
AcDbEntity
  8
0
  6
Continuous
 62
     7
370
    15
100
AcDbLine
 10
-15.4540293841
 20
-4.4377978371
 30
0.0
 11
-15.4540293841
 21
-5.3892535409
 31
0.0
  0
LINE
  5
35C
330
2D5
100
AcDbEntity
  8
0
  6
Continuous
 62
     7
370
    15
100
AcDbLine
 10
-30.0469283918
 20
-0.4717605748
 30
0.0
 11
-30.0469283918
 21
-1.4232162786
 31
0.0
  0
LINE
  5
35D
330
2D5
100
AcDbEntity
  8
0
  6
Continuous
 62
     7
370
    15
100
AcDbLine
 10
-68.080888231
 20
10.3309071016
 30
0.0
 11
-68.080888231
 21
9.3794513978
 31
0.0
  0
LINE
  5
35E
330
2D5
100
AcDbEntity
  8
0
  6
Continuous
 62
     7
370
    15
100
AcDbLine
 10
6.4118680725
 20
-7.5784047593
 30
0.0
 11
4.3840766076
 21
-9.5575913939
 31
0.0
  0
LINE
  5
35F
330
2D5
100
AcDbEntity
  8
0
  6
Continuous
 62
     7
370
    15
100
AcDbLine
 10
-4.3077073129
 20
-7.7776975801
 30
0.0
 11
3.032963097
 21
-9.772734506
 31
0.0
  0
LINE
  5
360
330
2D5
100
AcDbEntity
  8
0
  6
Continuous
 62
     7
370
    15
100
AcDbLine
 10
-4.7254300457
 20
-7.0818226786
 30
0.0
 11
-2.6976385808
 21
-5.102636044
 31
0.0
  0
LINE
  5
361
330
2D5
100
AcDbEntity
  8
0
  6
Continuous
 62
     7
370
    15
100
AcDbLine
 10
-8.1810309352
 20
-3.612367497
 30
0.0
 11
-10.2088224001
 21
-5.5915541316
 31
0.0
  0
LINE
  5
362
330
2D5
100
AcDbEntity
  8
0
  6
Continuous
 62
     7
370
    15
100
AcDbLine
 10
-14.9207247731
 20
-4.8933068439
 30
0.0
 11
-11.5599359107
 21
-5.8066972437
 31
0.0
  0
LINE
  5
363
330
2D5
100
AcDbEntity
  8
0
  6
Continuous
 62
     7
370
    15
100
AcDbLine
 10
-15.3384475058
 20
-4.1974319424
 30
0.0
 11
-13.3106560409
 21
-2.2182453078
 31
0.0
  0
LINE
  5
364
330
2D5
100
AcDbEntity
  8
0
  6
Continuous
 62
     7
370
    15
100
AcDbLine
 10
-22.7739299429
 20
0.3536697653
 30
0.0
 11
-24.8017214078
 21
-1.6255168693
 31
0.0
  0
LINE
  5
365
330
2D5
100
AcDbEntity
  8
0
  6
Continuous
 62
     7
370
    15
100
AcDbLine
 10
-29.5136237807
 20
-0.9272695816
 30
0.0
 11
-26.1528349184
 21
-1.8406599814
 31
0.0
  0
LINE
  5
366
330
2D5
100
AcDbEntity
  8
0
  6
Continuous
 62
     7
370
    15
100
AcDbLine
 10
-29.9313465135
 20
-0.2313946801
 30
0.0
 11
-27.9035550486
 21
1.7477919544
 31
0.0
  0
LINE
  5
367
330
2D5
100
AcDbEntity
  8
0
  6
Continuous
 62
     7
370
    15
100
AcDbLine
 10
-33.386947403
 20
3.2380605015
 30
0.0
 11
-35.4147388679
 21
1.2588738669
 31
0.0
  0
LINE
  5
368
330
2D5
100
AcDbEntity
  8
0
  6
Continuous
 62
     7
370
    15
100
AcDbLine
 10
-66.7476267034
 20
9.1921345846
 30
0.0
 11
-36.7658523785
 21
1.0437307548
 31
0.0
  0
LINE
  5
369
330
2D5
100
AcDbEntity
  8
0
  6
Continuous
 62
     7
370
    15
100
AcDbLine
 10
-54.2577672563
 20
24.1415830356
 30
0.0
 11
-67.7919335352
 21
10.9318218383
 31
0.0
  0
LINE
  5
36A
330
2D5
100
AcDbEntity
  8
0
  6
Continuous
 62
     7
370
    15
100
AcDbLine
 10
66.7476267034
 20
-7.289223177
 30
0.0
 11
-50.8799834797
 21
24.6794408159
 31
0.0
  0
LINE
  5
36B
330
2D5
100
AcDbEntity
  8
0
  6
Continuous
 62
     7
370
    15
100
AcDbLine
 10
54.2577672563
 20
-22.2386716281
 30
0.0
 11
67.7919335352
 21
-9.0289104307
 31
0.0
  0
LINE
  5
36C
330
2D5
100
AcDbEntity
  8
0
  6
Continuous
 62
     7
370
    15
100
AcDbLine
 10
20.8982091549
 20
-14.6281255786
 30
0.0
 11
50.8799834797
 21
-22.7765294084
 31
0.0
  0
LINE
  5
36D
330
2D5
100
AcDbEntity
  8
0
  6
Continuous
 62
     7
370
    15
100
AcDbLine
 10
20.4804864221
 20
-13.9322506771
 30
0.0
 11
22.508277887
 21
-11.9530640425
 31
0.0
  0
LINE
  5
36E
330
2D5
100
AcDbEntity
  8
0
  6
Continuous
 62
     7
370
    15
100
AcDbLine
 10
17.0248855326
 20
-10.4627954955
 30
0.0
 11
14.9970940677
 21
-12.4419821301
 31
0.0
  0
LINE
  5
36F
330
2D5
100
AcDbEntity
  8
0
  6
Continuous
 62
     7
370
    15
100
AcDbLine
 10
10.2851916947
 20
-11.7437348424
 30
0.0
 11
13.6459805571
 21
-12.6571252422
 31
0.0
  0
LINE
  5
370
330
2D5
100
AcDbEntity
  8
0
  6
Continuous
 62
     7
370
    15
100
AcDbLine
 10
9.867468962
 20
-11.0478599409
 30
0.0
 11
11.8952604269
 21
-9.0686733063
 31
0.0
  0
LINE
  5
371
330
2D5
100
AcDbEntity
  8
0
  6
Continuous
 62
     7
370
    15
100
AcDbLine
 10
50.8799834797
 20
-22.7765294084
 30
0.0
 11
50.8799834797
 21
-23.7279851122
 31
0.0
  0
LINE
  5
372
330
2D5
100
AcDbEntity
  8
0
  6
Continuous
 62
     7
370
    15
100
AcDbLine
 10
54.2577672563
 20
-22.2386716281
 30
0.0
 11
54.2577672563
 21
-23.1901273319
 31
0.0
  0
LINE
  5
373
330
2D5
100
AcDbEntity
  8
0
  6
Continuous
 62
     7
370
    15
100
AcDbLine
 10
20.8982091549
 20
-14.6281255786
 30
0.0
 11
20.8982091549
 21
-15.5795812824
 31
0.0
  0
LINE
  5
374
330
2D5
100
AcDbEntity
  8
0
  6
Continuous
 62
     7
370
    15
100
AcDbLine
 10
20.8982091549
 20
-15.5795812824
 30
0.0
 11
50.8799834797
 21
-23.7279851122
 31
0.0
  0
LINE
  5
375
330
2D5
100
AcDbEntity
  8
0
  6
Continuous
 62
     7
370
    15
100
AcDbLine
 10
67.7919335352
 20
-9.0289104307
 30
0.0
 11
67.7919335352
 21
-9.9803661345
 31
0.0
  0
LINE
  5
376
330
2D5
100
AcDbEntity
  8
0
  6
Continuous
 62
     7
370
    15
100
AcDbLine
 10
54.2577672563
 20
-23.1901273319
 30
0.0
 11
67.7919335352
 21
-9.9803661345
 31
0.0
  0
LINE
  5
377
330
2D5
100
AcDbEntity
  8
0
  6
Continuous
 62
     7
370
    15
100
AcDbLine
 10
13.6459805571
 20
-13.608580946
 30
0.0
 11
13.6459805571
 21
-12.6571252422
 31
0.0
  0
LINE
  5
378
330
2D5
100
AcDbEntity
  8
0
  6
Continuous
 62
     7
370
    15
100
AcDbLine
 10
14.9970940677
 20
-12.4419821301
 30
0.0
 11
14.9970940677
 21
-13.3934378338
 31
0.0
  0
LINE
  5
379
330
2D5
100
AcDbEntity
  8
0
  6
Continuous
 62
     7
370
    15
100
AcDbLine
 10
10.2851916947
 20
-11.7437348424
 30
0.0
 11
10.2851916947
 21
-12.6951905462
 31
0.0
  0
LINE
  5
37A
330
2D5
100
AcDbEntity
  8
0
  6
Continuous
 62
     7
370
    15
100
AcDbLine
 10
10.2851916947
 20
-12.6951905462
 30
0.0
 11
13.6459805571
 21
-13.608580946
 31
0.0
  0
LINE
  5
37B
330
2D5
100
AcDbEntity
  8
0
  6
Continuous
 62
     7
370
    15
100
AcDbLine
 10
17.0248855326
 20
-11.4142511993
 30
0.0
 11
17.0248855326
 21
-10.4627954955
 31
0.0
  0
LINE
  5
37C
330
2D5
100
AcDbEntity
  8
0
  6
Continuous
 62
     7
370
    15
100
AcDbLine
 10
17.0248855326
 20
-11.4142511993
 30
0.0
 11
14.9970940677
 21
-13.3934378338
 31
0.0
  0
LINE
  5
37D
330
2D5
100
AcDbEntity
  8
0
  6
Continuous
 62
     7
370
    15
100
AcDbLine
 10
3.032963097
 20
-10.7241902098
 30
0.0
 11
3.032963097
 21
-9.772734506
 31
0.0
  0
LINE
  5
37E
330
2D5
100
AcDbEntity
  8
0
  6
Continuous
 62
     7
370
    15
100
AcDbLine
 10
4.3840766076
 20
-9.5575913939
 30
0.0
 11
4.3840766076
 21
-10.5090470976
 31
0.0
  0
LINE
  5
37F
330
2D5
100
AcDbEntity
  8
0
  6
Continuous
 62
     7
370
    15
100
AcDbLine
 10
-4.3077073129
 20
-7.7776975801
 30
0.0
 11
-4.3077073129
 21
-8.7291532839
 31
0.0
  0
LINE
  5
380
330
2D5
100
AcDbEntity
  8
0
  6
Continuous
 62
     7
370
    15
100
AcDbLine
 10
-4.3077073129
 20
-8.7291532839
 30
0.0
 11
3.032963097
 21
-10.7241902098
 31
0.0
  0
LINE
  5
381
330
2D5
100
AcDbEntity
  8
0
  6
Continuous
 62
     7
370
    15
100
AcDbLine
 10
6.4118680725
 20
-8.5298604631
 30
0.0
 11
6.4118680725
 21
-7.5784047593
 31
0.0
  0
LINE
  5
382
330
2D5
100
AcDbEntity
  8
0
  6
Continuous
 62
     7
370
    15
100
AcDbLine
 10
6.4118680725
 20
-8.5298604631
 30
0.0
 11
4.3840766076
 21
-10.5090470976
 31
0.0
  0
LINE
  5
383
330
2D5
100
AcDbEntity
  8
0
  6
Continuous
 62
     7
370
    15
100
AcDbLine
 10
-11.5599359107
 20
-6.7581529475
 30
0.0
 11
-11.5599359107
 21
-5.8066972437
 31
0.0
  0
LINE
  5
384
330
2D5
100
AcDbEntity
  8
0
  6
Continuous
 62
     7
370
    15
100
AcDbLine
 10
-10.2088224001
 20
-5.5915541316
 30
0.0
 11
-10.2088224001
 21
-6.5430098353
 31
0.0
  0
LINE
  5
385
330
2D5
100
AcDbEntity
  8
0
  6
Continuous
 62
     7
370
    15
100
AcDbLine
 10
-14.9207247731
 20
-4.8933068439
 30
0.0
 11
-14.9207247731
 21
-5.8447625477
 31
0.0
  0
LINE
  5
386
330
2D5
100
AcDbEntity
  8
0
  6
Continuous
 62
     7
370
    15
100
AcDbLine
 10
-14.9207247731
 20
-5.8447625477
 30
0.0
 11
-11.5599359107
 21
-6.7581529475
 31
0.0
  0
LINE
  5
387
330
2D5
100
AcDbEntity
  8
0
  6
Continuous
 62
     7
370
    15
100
AcDbLine
 10
-8.1810309352
 20
-4.5638232008
 30
0.0
 11
-8.1810309352
 21
-3.612367497
 31
0.0
  0
LINE
  5
388
330
2D5
100
AcDbEntity
  8
0
  6
Continuous
 62
     7
370
    15
100
AcDbLine
 10
-8.1810309352
 20
-4.5638232008
 30
0.0
 11
-10.2088224001
 21
-6.5430098353
 31
0.0
  0
LINE
  5
389
330
2D5
100
AcDbEntity
  8
0
  6
Continuous
 62
     7
370
    15
100
AcDbLine
 10
-17.0470712301
 20
0.0390791781
 30
0.0
 11
-17.0470712301
 21
-0.9123765257
 31
0.0
  0
LINE
  5
38A
330
2D5
100
AcDbEntity
  8
0
  6
Continuous
 62
     7
370
    15
100
AcDbLine
 10
-26.1528349184
 20
-2.7921156852
 30
0.0
 11
-26.1528349184
 21
-1.8406599814
 31
0.0
  0
LINE
  5
38B
330
2D5
100
AcDbEntity
  8
0
  6
Continuous
 62
     7
370
    15
100
AcDbLine
 10
-24.8017214078
 20
-1.6255168693
 30
0.0
 11
-24.8017214078
 21
-2.5769725731
 31
0.0
  0
LINE
  5
38C
330
2D5
100
AcDbEntity
  8
0
  6
Continuous
 62
     7
370
    15
100
AcDbLine
 10
-29.5136237807
 20
-0.9272695816
 30
0.0
 11
-29.5136237807
 21
-1.8787252854
 31
0.0
  0
LINE
  5
38D
330
2D5
100
AcDbEntity
  8
0
  6
Continuous
 62
     7
370
    15
100
AcDbLine
 10
-29.5136237807
 20
-1.8787252854
 30
0.0
 11
-26.1528349184
 21
-2.7921156852
 31
0.0
  0
LINE
  5
38E
330
2D5
100
AcDbEntity
  8
0
  6
Continuous
 62
     7
370
    15
100
AcDbLine
 10
-22.7739299429
 20
-0.5977859385
 30
0.0
 11
-22.7739299429
 21
0.3536697653
 31
0.0
  0
LINE
  5
38F
330
2D5
100
AcDbEntity
  8
0
  6
Continuous
 62
     7
370
    15
100
AcDbLine
 10
-22.7739299429
 20
-0.5977859385
 30
0.0
 11
-24.8017214078
 21
-2.5769725731
 31
0.0
  0
LINE
  5
390
330
2D5
100
AcDbEntity
  8
0
  6
Continuous
 62
     7
370
    15
100
AcDbLine
 10
-36.7658523785
 20
0.092275051
 30
0.0
 11
-36.7658523785
 21
1.0437307548
 31
0.0
  0
LINE
  5
391
330
2D5
100
AcDbEntity
  8
0
  6
Continuous
 62
     7
370
    15
100
AcDbLine
 10
-35.4147388679
 20
1.2588738669
 30
0.0
 11
-35.4147388679
 21
0.3074181631
 31
0.0
  0
LINE
  5
392
330
2D5
100
AcDbEntity
  8
0
  6
Continuous
 62
     7
370
    15
100
AcDbLine
 10
-66.7476267034
 20
9.1921345846
 30
0.0
 11
-66.7476267034
 21
8.2406788808
 31
0.0
  0
LINE
  5
393
330
2D5
100
AcDbEntity
  8
0
  6
Continuous
 62
     7
370
    15
100
AcDbLine
 10
-66.7476267034
 20
8.2406788808
 30
0.0
 11
-36.7658523785
 21
0.092275051
 31
0.0
  0
LINE
  5
394
330
2D5
100
AcDbEntity
  8
0
  6
Continuous
 62
     7
370
    15
100
AcDbLine
 10
-33.386947403
 20
2.2866047977
 30
0.0
 11
-33.386947403
 21
3.2380605015
 31
0.0
  0
LINE
  5
395
330
2D5
100
AcDbEntity
  8
0
  6
Continuous
 62
     7
370
    15
100
AcDbLine
 10
-33.386947403
 20
2.2866047977
 30
0.0
 11
-35.4147388679
 21
0.3074181631
 31
0.0
  0
ARC
  5
396
330
2D5
100
AcDbEntity
  8
0
  6
Continuous
 62
     7
370
    15
100
AcDbCircle
 10
3.4913564167
 20
-8.3013616691
 30
0.0
 40
1.54112376547879
100
AcDbArc
 50
252.6960345908
 51
305.398914916
  0
ARC
  5
397
330
2D5
100
AcDbEntity
  8
0
  6
Continuous
 62
     7
370
    15
100
AcDbCircle
 10
-11.101542591
 20
-4.3353244069
 30
0.0
 40
1.541123765478782
100
AcDbArc
 50
252.6960345908
 51
305.398914916
  0
ARC
  5
398
330
2D5
100
AcDbEntity
  8
0
  6
Continuous
 62
     7
370
    15
100
AcDbCircle
 10
-20.0889828687
 20
-3.0527463059
 30
0.0
 40
4.337350716811224
100
AcDbArc
 50
45.4662393413
 51
128.2452816683
  0
ARC
  5
399
330
2D5
100
AcDbEntity
  8
0
  6
Continuous
 62
     7
370
    15
100
AcDbCircle
 10
-25.6944415987
 20
-0.3692871446
 30
0.0
 40
1.541123765478779
100
AcDbArc
 50
252.6960345908
 51
305.398914916
  0
ARC
  5
39A
330
2D5
100
AcDbEntity
  8
0
  6
Continuous
 62
     7
370
    15
100
AcDbCircle
 10
-36.3074590588
 20
2.5151035916
 30
0.0
 40
1.5411237654788
100
AcDbArc
 50
252.6960345908
 51
305.398914916
  0
ARC
  5
39B
330
2D5
100
AcDbEntity
  8
0
  6
Continuous
 62
     7
370
    15
100
AcDbCircle
 10
-52.025966779
 20
21.0010087238
 30
0.0
 40
3.852809413696994
100
AcDbArc
 50
72.6960345908
 51
125.398914916
  0
ARC
  5
39C
330
2D5
100
AcDbEntity
  8
0
  6
Continuous
 62
     7
370
    15
100
AcDbCircle
 10
52.025966779
 20
-19.0980973163
 30
0.0
 40
3.852809413696978
100
AcDbArc
 50
252.6960345908
 51
305.398914916
  0
ARC
  5
39D
330
2D5
100
AcDbEntity
  8
0
  6
Continuous
 62
     7
370
    15
100
AcDbCircle
 10
14.1043738768
 20
-11.1857524053
 30
0.0
 40
1.541123765478793
100
AcDbArc
 50
252.6960345908
 51
305.398914916
  0
ARC
  5
39E
330
2D5
100
AcDbEntity
  8
0
  6
Continuous
 62
     7
370
    15
100
AcDbCircle
 10
52.025966779
 20
-20.0495530201
 30
0.0
 40
3.852809413697003
100
AcDbArc
 50
252.6960345908
 51
305.398914916
  0
ARC
  5
39F
330
2D5
100
AcDbEntity
  8
0
  6
Continuous
 62
     7
370
    15
100
AcDbCircle
 10
40.3965448368
 20
-19.6913025111
 30
0.0
 40
2.56396084679063
100
AcDbArc
 50
73.2350289456
 51
120.8193622737
  0
ARC
  5
3A0
330
2D5
100
AcDbEntity
  8
0
  6
Continuous
 62
     7
370
    15
100
AcDbCircle
 10
56.6099069641
 20
-17.1095851657
 30
0.0
 40
2.563960846810185
100
AcDbArc
 50
73.2350289456
 51
120.8193622738
  0
ARC
  5
3A1
330
2D5
100
AcDbEntity
  8
0
  6
Continuous
 62
     7
370
    15
100
AcDbCircle
 10
45.9837297766
 20
-14.7671349904
 30
0.0
 40
3.661457691164754
100
AcDbArc
 50
70.5464603917
 51
131.4629890409
  0
ARC
  5
3A2
330
2D5
100
AcDbEntity
  8
0
  6
Continuous
 62
     7
370
    15
100
AcDbCircle
 10
46.7674074579
 20
-13.4624408271
 30
0.0
 40
2.191494735787494
100
AcDbArc
 50
41.0482478161
 51
78.5312380976
  0
ARC
  5
3A3
330
2D5
100
AcDbEntity
  8
0
  6
Continuous
 62
     7
370
    15
100
AcDbCircle
 10
14.1043738768
 20
-12.1372081091
 30
0.0
 40
1.54112376547878
100
AcDbArc
 50
252.6960345908
 51
305.398914916
  0
ARC
  5
3A4
330
2D5
100
AcDbEntity
  8
0
  6
Continuous
 62
     7
370
    15
100
AcDbCircle
 10
19.7192223927
 20
-14.8523404276
 30
0.0
 40
4.36805547785417
100
AcDbArc
 50
46.5039505938
 51
128.0848320307
  0
ARC
  5
3A5
330
2D5
100
AcDbEntity
  8
0
  6
Continuous
 62
     7
370
    15
100
AcDbCircle
 10
3.4913564167
 20
-9.2528173729
 30
0.0
 40
1.541123765478784
100
AcDbArc
 50
252.6960345908
 51
305.398914916
  0
ARC
  5
3A6
330
2D5
100
AcDbEntity
  8
0
  6
Continuous
 62
     7
370
    15
100
AcDbCircle
 10
9.1062049325
 20
-11.9679496914
 30
0.0
 40
4.368055477854242
100
AcDbArc
 50
46.5039505938
 51
128.0848320307
  0
ARC
  5
3A7
330
2D5
100
AcDbEntity
  8
0
  6
Continuous
 62
     7
370
    15
100
AcDbCircle
 10
67.2512486592
 20
-9.3504429869
 30
0.0
 40
0.8301465575986258
100
AcDbArc
 50
310.6406362013
 51
357.9974645044
  0
ARC
  5
3A8
330
2D5
100
AcDbEntity
  8
0
  6
Continuous
 62
     7
370
    15
100
AcDbCircle
 10
51.5972341711
 20
-8.7590863478
 30
0.0
 40
2.563960846790626
100
AcDbArc
 50
73.2350289456
 51
120.8193622737
  0
ARC
  5
3A9
330
2D5
100
AcDbEntity
  8
0
  6
Continuous
 62
     7
370
    15
100
AcDbCircle
 10
-11.101542591
 20
-5.2867801106
 30
0.0
 40
1.541123765478784
100
AcDbArc
 50
252.6960345908
 51
305.398914916
  0
ARC
  5
3AA
330
2D5
100
AcDbEntity
  8
0
  6
Continuous
 62
     7
370
    15
100
AcDbCircle
 10
-5.4866940751
 20
-8.0019124292
 30
0.0
 40
4.368055477854245
100
AcDbArc
 50
46.5039505938
 51
128.0848320307
  0
ARC
  5
3AB
330
2D5
100
AcDbEntity
  8
0
  6
Continuous
 62
     7
370
    15
100
AcDbCircle
 10
-15.9504268477
 20
-4.7888340675
 30
0.0
 40
4.028591810402959
100
AcDbArc
 50
44.8262945261
 51
105.7961335313
  0
ARC
  5
3AC
330
2D5
100
AcDbEntity
  8
0
  6
Continuous
 62
     7
370
    15
100
AcDbCircle
 10
-25.6944415987
 20
-1.3207428483
 30
0.0
 40
1.541123765478778
100
AcDbArc
 50
252.6960345908
 51
305.398914916
  0
ARC
  5
3AD
330
2D5
100
AcDbEntity
  8
0
  6
Continuous
 62
     7
370
    15
100
AcDbCircle
 10
-20.0889828687
 20
-4.0042020097
 30
0.0
 40
4.337350716811219
100
AcDbArc
 50
45.4662393413
 51
128.2452816683
  0
ARC
  5
3AE
330
2D5
100
AcDbEntity
  8
0
  6
Continuous
 62
     7
370
    15
100
AcDbCircle
 10
-36.3074590588
 20
1.5636478879
 30
0.0
 40
1.541123765478797
100
AcDbArc
 50
252.6960345908
 51
305.398914916
  0
ARC
  5
3AF
330
2D5
100
AcDbEntity
  8
0
  6
Continuous
 62
     7
370
    15
100
AcDbCircle
 10
-30.6926105429
 20
-1.1514844307
 30
0.0
 40
4.368055477854717
100
AcDbArc
 50
46.5039505938
 51
128.0848320307
  0
ARC
  5
3B0
330
2D5
100
AcDbEntity
  8
0
  6
Continuous
 62
     7
370
    15
100
AcDbCircle
 10
-51.5829398176
 20
5.306750536
 30
0.0
 40
2.56396084679021
100
AcDbArc
 50
73.2350289456
 51
120.8193622737
  0
ARC
  5
3B1
330
2D5
100
AcDbEntity
  8
0
  6
Continuous
 62
     7
370
    15
100
AcDbCircle
 10
-45.9957548779
 20
10.2309180567
 30
0.0
 40
3.661457691180965
100
AcDbArc
 50
70.5464603917
 51
131.4629890411
  0
ARC
  5
3B2
330
2D5
100
AcDbEntity
  8
0
  6
Continuous
 62
     7
370
    15
100
AcDbCircle
 10
-45.2120771966
 20
11.5356122201
 30
0.0
 40
2.191494735795916
100
AcDbArc
 50
41.048247816
 51
78.5312380976
  0
ARC
  5
3B3
330
2D5
100
AcDbEntity
  8
0
  6
Continuous
 62
     7
370
    15
100
AcDbCircle
 10
-56.5956126106
 20
13.6572493539
 30
0.0
 40
2.563960846819418
100
AcDbArc
 50
73.2350289455
 51
120.8193622741
  0
ARC
  5
3B4
330
2D5
100
AcDbEntity
  8
0
  6
Continuous
 62
     7
370
    15
100
AcDbCircle
 10
-40.3822504833
 20
16.2389666993
 30
0.0
 40
2.563960846790153
100
AcDbArc
 50
73.2350289456
 51
120.8193622737
  0
VIEWPORT
  5
495
330
2D5
100
AcDbEntity
  8
0
100
AcDbViewport
 10
0.0
 20
0.0
 30
0.0
 40
243.84
 41
204.216
 68
     1
 69
     1
 12
0.0
 22
0.0
 13
0.0
 23
0.0
 14
10.0
 24
10.0
 15
10.0
 25
10.0
 16
0.0
 26
0.0
 36
1.0
 17
0.0
 27
0.0
 37
0.0
 42
50.0
 43
0.0
 44
0.0
 45
117.8865
 50
0.0
 51
0.0
 72
   100
 90
   557152
  1

281
     0
 71
     1
 74
     0
110
0.0
120
0.0
130
0.0
111
1.0
121
0.0
131
0.0
112
0.0
122
1.0
132
0.0
 79
     0
146
0.0
  0
ENDBLK
  5
2D8
330
2D5
100
AcDbEntity
  8
0
100
AcDbBlockEnd
  0
BLOCK
  5
3B7
330
3B5
100
AcDbEntity
  8
0
100
AcDbBlockBegin
  2
*Paper_Space7
 70
     0
 10
0.0
 20
0.0
 30
0.0
  3
*Paper_Space7
  1

  0
LWPOLYLINE
  5
3C0
330
3B5
100
AcDbEntity
  8
0
  6
Continuous
 62
     7
370
    15
100
AcDbPolyline
 90
       26
 70
   128
 43
0.0
 10
59.3008327655
 20
-6.9948419444
 10
59.6908097547
 20
-7.0260618863
 10
60.0918271511
 20
-7.0239732184
 10
60.4786875569
 20
-6.9887071796
 10
60.82708311
 20
-6.9224796647
 10
61.1151228364
 20
-6.829451992
 10
61.3247081409
 20
-6.7154694323
 10
61.442670008
 20
-6.5876939292
 10
61.4615964597
 20
-6.4541540873
 10
61.3802982774
 20
-6.323240706
 10
61.203883725
 20
-6.2031795546
 10
60.9434375775
 20
-6.1015145168
 10
60.6153246243
 20
-6.0246335808
 10
60.2401614089
 20
-5.9773674585
 10
59.841520816
 20
-5.9626860542
 10
59.4444509
 20
-5.9815118546
 10
59.0739010241
 20
-6.0326619654
 10
58.7531541999
 20
-6.112922437
 10
58.5023641298
 20
-6.2172502088
 10
58.3372888763
 20
-6.3390899832
 10
58.2683007248
 20
-6.4707861191
 10
58.2997344544
 20
-6.6040636639
 10
58.4296149684
 20
-6.7305482994
 10
58.6497813964
 20
-6.8422925306
 10
58.946399872
 20
-6.9322750566
 10
59.3008327655
 20
-6.9948419444
  0
LWPOLYLINE
  5
3C1
330
3B5
100
AcDbEntity
  8
0
  6
Continuous
 62
     7
370
    15
100
AcDbPolyline
 90
       33
 70
   128
 43
0.0
 10
-49.560784845
 20
6.36408437
 10
-49.068647185
 20
6.3198833989
 10
-48.5600962672
 20
6.308535502
 10
-48.054675418
 20
6.3304767725
 10
-47.5718076773
 20
6.3848640197
 10
-47.1300493816
 20
6.4696071723
 10
-46.7463770544
 20
6.5814495982
 10
-46.4355350081
 20
6.716093256
 10
-46.2094687282
 20
6.8683638652
 10
-46.0768658151
 20
7.0324097519
 10
-46.0428221243
 20
7.2019267244
 10
-46.1086459359
 20
7.3704003408
 10
-46.2718076776
 20
7.5313562543
 10
-46.5260371352
 20
7.6786090195
 10
-46.8615644132
 20
7.8064997952
 10
-47.2654953865
 20
7.9101138106
 10
-47.7223072144
 20
7.9854692372
 10
-48.2144448744
 20
8.0296702083
 10
-48.7229957922
 20
8.0410181052
 10
-49.2284166414
 20
8.0190768347
 10
-49.7112843821
 20
7.9646895875
 10
-50.1530426778
 20
7.8799464349
 10
-50.536715005
 20
7.768104009
 10
-50.8475570513
 20
7.6334603512
 10
-51.0736233312
 20
7.481189742
 10
-51.2062262443
 20
7.3171438553
 10
-51.2402699351
 20
7.1476268828
 10
-51.1744461235
 20
6.9791532664
 10
-51.0112843818
 20
6.8181973529
 10
-50.7570549242
 20
6.6709445877
 10
-50.4215276462
 20
6.543053812
 10
-50.0175966729
 20
6.4394397966
 10
-49.560784845
 20
6.36408437
  0
LWPOLYLINE
  5
3C2
330
3B5
100
AcDbEntity
  8
0
  6
Continuous
 62
     7
370
    15
100
AcDbPolyline
 90
       26
 70
   128
 43
0.0
 10
43.8332199187
 20
-9.3222857687
 10
44.2231969079
 20
-9.3535057106
 10
44.6242143043
 20
-9.3514170427
 10
45.0110747101
 20
-9.3161510039
 10
45.3594702631
 20
-9.2499234889
 10
45.6475099896
 20
-9.1568958163
 10
45.8570952941
 20
-9.0429132566
 10
45.9750571612
 20
-8.9151377535
 10
45.9939836128
 20
-8.7815979116
 10
45.9126854306
 20
-8.6506845303
 10
45.7362708781
 20
-8.5306233789
 10
45.4758247307
 20
-8.4289583411
 10
45.1477117775
 20
-8.3520774051
 10
44.7725485621
 20
-8.3048112828
 10
44.3739079692
 20
-8.2901298785
 10
43.9768380532
 20
-8.3089556789
 10
43.6062881773
 20
-8.3601057897
 10
43.285541353
 20
-8.4403662613
 10
43.034751283
 20
-8.5446940331
 10
42.8696760295
 20
-8.6665338075
 10
42.8006878779
 20
-8.7982299434
 10
42.8321216076
 20
-8.9315074882
 10
42.9620021216
 20
-9.0579921237
 10
43.1821685496
 20
-9.1697363549
 10
43.4787870252
 20
-9.2597188809
 10
43.8332199187
 20
-9.3222857687
  0
LWPOLYLINE
  5
3C3
330
3B5
100
AcDbEntity
  8
0
  6
Continuous
 62
     7
370
    15
100
AcDbPolyline
 90
       26
 70
   128
 43
0.0
 10
-44.9645907683
 20
10.4175465381
 10
-44.5746137791
 20
10.3863265963
 10
-44.1735963827
 20
10.3884152641
 10
-43.786735977
 20
10.423681303
 10
-43.4383404239
 20
10.4899088179
 10
-43.1503006974
 20
10.5829364906
 10
-42.9407153929
 20
10.6969190502
 10
-42.8227535259
 20
10.8246945534
 10
-42.8038270742
 20
10.9582343953
 10
-42.8851252565
 20
11.0891477765
 10
-43.0615398089
 20
11.2092089279
 10
-43.3219859564
 20
11.3108739657
 10
-43.6500989096
 20
11.3877549018
 10
-44.0252621249
 20
11.4350210241
 10
-44.4239027178
 20
11.4497024284
 10
-44.8209726338
 20
11.430876628
 10
-45.1915225097
 20
11.3797265172
 10
-45.512269334
 20
11.2994660456
 10
-45.7630594041
 20
11.1951382738
 10
-45.9281346575
 20
11.0732984994
 10
-45.9971228091
 20
10.9416023635
 10
-45.9656890794
 20
10.8083248186
 10
-45.8358085654
 20
10.6818401832
 10
-45.6156421374
 20
10.5700959519
 10
-45.3190236618
 20
10.4801134259
 10
-44.9645907683
 20
10.4175465381
  0
LWPOLYLINE
  5
3C4
330
3B5
100
AcDbEntity
  8
0
  6
Continuous
 62
     7
370
    15
100
AcDbPolyline
 90
       26
 70
   128
 43
0.0
 10
-60.4322036152
 20
8.0901027138
 10
-60.042226626
 20
8.058882772
 10
-59.6412092296
 20
8.0609714398
 10
-59.2543488238
 20
8.0962374787
 10
-58.9059532707
 20
8.1624649936
 10
-58.6179135443
 20
8.2554926663
 10
-58.4083282398
 20
8.3694752259
 10
-58.2903663727
 20
8.4972507291
 10
-58.271439921
 20
8.630790571
 10
-58.3527381033
 20
8.7617039522
 10
-58.5291526557
 20
8.8817651036
 10
-58.7895988032
 20
8.9834301415
 10
-59.1177117564
 20
9.0603110775
 10
-59.4928749718
 20
9.1075771998
 10
-59.8915155647
 20
9.1222586041
 10
-60.2885854807
 20
9.1034328037
 10
-60.6591353566
 20
9.0522826929
 10
-60.9798821809
 20
8.9720222213
 10
-61.2306722509
 20
8.8676944495
 10
-61.3957475044
 20
8.7458546751
 10
-61.464735656
 20
8.6141585392
 10
-61.4333019263
 20
8.4808809944
 10
-61.3034214123
 20
8.3543963589
 10
-61.0832549843
 20
8.2426521277
 10
-60.7866365087
 20
8.1526696016
 10
-60.4322036152
 20
8.0901027138
  0
LWPOLYLINE
  5
3C5
330
3B5
100
AcDbEntity
  8
0
  6
Continuous
 62
     7
370
    15
100
AcDbPolyline
 90
       26
 70
   128
 43
0.0
 10
-53.4498721406
 20
2.9342317661
 10
-53.0598951514
 20
2.9030118243
 10
-52.658877755
 20
2.9051004921
 10
-52.2720173493
 20
2.940366531
 10
-51.9236217962
 20
3.0065940459
 10
-51.6355820697
 20
3.0996217186
 10
-51.4259967652
 20
3.2136042782
 10
-51.3080348982
 20
3.3413797814
 10
-51.2891084465
 20
3.4749196233
 10
-51.3704066288
 20
3.6058330045
 10
-51.5468211812
 20
3.7258941559
 10
-51.8072673287
 20
3.8275591937
 10
-52.1353802818
 20
3.9044401298
 10
-52.5105434972
 20
3.9517062521
 10
-52.9091840901
 20
3.9663876563
 10
-53.3062540061
 20
3.9475618559
 10
-53.676803882
 20
3.8964117452
 10
-53.9975507063
 20
3.8161512736
 10
-54.2483407764
 20
3.7118235018
 10
-54.4134160298
 20
3.5899837273
 10
-54.4824041814
 20
3.4582875915
 10
-54.4509704517
 20
3.3250100466
 10
-54.3210899377
 20
3.1985254112
 10
-54.1009235097
 20
3.0867811799
 10
-53.8043050341
 20
2.9967986539
 10
-53.4498721406
 20
2.9342317661
  0
LWPOLYLINE
  5
3C6
330
3B5
100
AcDbEntity
  8
0
  6
Continuous
 62
     7
370
    15
100
AcDbPolyline
 90
       26
 70
   128
 43
0.0
 10
52.318501291
 20
-1.8389709967
 10
52.7084782802
 20
-1.8701909385
 10
53.1094956766
 20
-1.8681022707
 10
53.4963560823
 20
-1.8328362319
 10
53.8447516354
 20
-1.7666087169
 10
54.1327913619
 20
-1.6735810443
 10
54.3423766664
 20
-1.5595984846
 10
54.4603385334
 20
-1.4318229815
 10
54.4792649851
 20
-1.2982831396
 10
54.3979668028
 20
-1.1673697583
 10
54.2215522504
 20
-1.0473086069
 10
53.9611061029
 20
-0.9456435691
 10
53.6329931498
 20
-0.8687626331
 10
53.2578299344
 20
-0.8214965107
 10
52.8591893415
 20
-0.8068151065
 10
52.4621194255
 20
-0.8256409069
 10
52.0915695496
 20
-0.8767910177
 10
51.7708227253
 20
-0.9570514893
 10
51.5200326552
 20
-1.0613792611
 10
51.3549574018
 20
-1.1832190355
 10
51.2859692502
 20
-1.3149151714
 10
51.3174029799
 20
-1.4481927162
 10
51.4472834939
 20
-1.5746773516
 10
51.6674499219
 20
-1.6864215829
 10
51.9640683975
 20
-1.7764041089
 10
52.318501291
 20
-1.8389709967
  0
LWPOLYLINE
  5
3C7
330
3B5
100
AcDbEntity
  8
0
  6
Continuous
 62
     7
370
    15
100
AcDbPolyline
 90
       33
 70
   128
 43
0.0
 10
47.7223072143
 20
-5.8924331649
 10
48.2144448743
 20
-5.9366341359
 10
48.7229957922
 20
-5.9479820328
 10
49.2284166414
 20
-5.9260407623
 10
49.711284382
 20
-5.8716535151
 10
50.1530426778
 20
-5.7869103626
 10
50.536715005
 20
-5.6750679366
 10
50.8475570513
 20
-5.5404242788
 10
51.0736233311
 20
-5.3881536696
 10
51.2062262442
 20
-5.224107783
 10
51.240269935
 20
-5.0545908104
 10
51.1744461234
 20
-4.886117194
 10
51.0112843818
 20
-4.7251612805
 10
50.7570549242
 20
-4.5779085153
 10
50.4215276461
 20
-4.4500177396
 10
50.0175966728
 20
-4.3464037242
 10
49.560784845
 20
-4.2710482976
 10
49.068647185
 20
-4.2268473266
 10
48.5600962671
 20
-4.2154994297
 10
48.0546754179
 20
-4.2374407002
 10
47.5718076772
 20
-4.2918279474
 10
47.1300493815
 20
-4.3765710999
 10
46.7463770543
 20
-4.4884135259
 10
46.435535008
 20
-4.6230571836
 10
46.2094687281
 20
-4.7753277929
 10
46.076865815
 20
-4.9393736795
 10
46.0428221243
 20
-5.1088906521
 10
46.1086459358
 20
-5.2773642684
 10
46.2718076775
 20
-5.4383201819
 10
46.5260371351
 20
-5.5855729472
 10
46.8615644131
 20
-5.7134637229
 10
47.2654953865
 20
-5.8170777383
 10
47.7223072143
 20
-5.8924331649
  0
LWPOLYLINE
  5
3C8
330
3B5
100
AcDbEntity
  8
0
  6
Continuous
 62
     7
370
    15
100
AcDbPolyline
 90
       18
 70
   128
 43
0.0
 10
8.4138874797
 20
-4.1667718439
 10
8.6646541425
 20
-3.9953810932
 10
9.0056299297
 20
-3.8422680135
 10
9.4252033199
 20
-3.7126466872
 10
9.9090862445
 20
-3.6109312129
 10
10.4408006508
 20
-3.5405853892
 10
11.0022396424
 20
-3.5040047588
 10
11.574284088
 20
-3.5024350311
 10
12.1374536999
 20
-3.5359296614
 10
12.6725704125
 20
-3.6033480301
 10
13.1614114679
 20
-3.7023942856
 10
13.5873299703
 20
-3.8296955265
 10
13.9358217759
 20
-3.9809166616
 10
14.1950194143
 20
-4.1509080366
 10
14.3560962208
 20
-4.3338807991
 10
14.4135669178
 20
-4.5236040311
 10
14.3654744098
 20
-4.7136169355
 10
14.2134564294
 20
-4.8974488508
  0
LWPOLYLINE
  5
3CC
330
3B5
100
AcDbEntity
  8
0
  6
Continuous
 62
     7
370
    15
100
AcDbPolyline
 90
        9
 70
   128
 43
0.0
 10
-2.7570697733
 20
-4.3076969819
 10
-2.8080708938
 20
-4.3707915537
 10
-2.821164621
 20
-4.4359903893
 10
-2.7958477704
 20
-4.5007879341
 10
-2.7330932544
 20
-4.5626940547
 10
-2.6353126937
 20
-4.6193297336
 10
-2.5062637407
 20
-4.6685184935
 10
-2.350905674
 20
-4.7083700379
 10
-2.1752088171
 20
-4.7373528942
  0
LWPOLYLINE
  5
3CE
330
3B5
100
AcDbEntity
  8
0
  6
Continuous
 62
     7
370
    15
100
AcDbPolyline
 90
       18
 70
   128
 43
0.0
 10
-7.0204492413
 20
-2.2222281965
 10
-6.7696825785
 20
-2.0508374458
 10
-6.4287067913
 20
-1.8977243662
 10
-6.0091334011
 20
-1.7681030398
 10
-5.5252504765
 20
-1.6663875655
 10
-4.9935360702
 20
-1.5960417419
 10
-4.4320970785
 20
-1.5594611114
 10
-3.860052633
 20
-1.5578913838
 10
-3.2968830211
 20
-1.591386014
 10
-2.7617663085
 20
-1.6588043827
 10
-2.2729252531
 20
-1.7578506382
 10
-1.8470067507
 20
-1.8851518791
 10
-1.498514945
 20
-2.0363730142
 10
-1.2393173066
 20
-2.2063643892
 10
-1.0782405002
 20
-2.3893371517
 10
-1.0207698032
 20
-2.5790603838
 10
-1.0688623112
 20
-2.7690732882
 10
-1.2208802916
 20
-2.9529052034
  0
LWPOLYLINE
  5
3D2
330
3B5
100
AcDbEntity
  8
0
  6
Continuous
 62
     7
370
    15
100
AcDbPolyline
 90
        9
 70
   128
 43
0.0
 10
-13.982041934
 20
-2.8934834202
 10
-14.0330430545
 20
-2.956577992
 10
-14.0461367817
 20
-3.0217768276
 10
-14.0208199311
 20
-3.0865743724
 10
-13.958065415
 20
-3.1484804929
 10
-13.8602848544
 20
-3.2051161719
 10
-13.7312359013
 20
-3.2543049318
 10
-13.5758778347
 20
-3.2941564761
 10
-13.4001809778
 20
-3.3231393325
  0
LWPOLYLINE
  5
3D4
330
3B5
100
AcDbEntity
  8
0
  6
Continuous
 62
     7
370
    15
100
AcDbPolyline
 90
       14
 70
   128
 43
0.0
 10
-16.6963712649
 20
-0.2432685098
 10
-16.1651253058
 20
-0.1767790738
 10
-15.6064201011
 20
-0.1436826337
 10
-15.0389766282
 20
-0.145088178
 10
-14.4818086647
 20
-0.18094861
 10
-13.9535856783
 20
-0.2500623259
 10
-13.4720072547
 20
-0.3501134777
 10
-13.0532100233
 20
-0.4777495723
 10
-12.7112269542
 20
-0.6286938061
 10
-12.4575171448
 20
-0.7978883711
 10
-12.3005818506
 20
-0.9796639311
 10
-12.2456796264
 20
-1.1679295888
 10
-12.2946501248
 20
-1.3563769775
 10
-12.4458524523
 20
-1.5386916417
  0
LWPOLYLINE
  5
3D9
330
3B5
100
AcDbEntity
  8
0
  6
Continuous
 62
     7
370
    15
100
AcDbPolyline
 90
        9
 70
   128
 43
0.0
 10
-29.416378655
 20
-0.9489397729
 10
-29.4673797754
 20
-1.0120343446
 10
-29.4804735026
 20
-1.0772331803
 10
-29.455156652
 20
-1.142030725
 10
-29.392402136
 20
-1.2039368456
 10
-29.2946215754
 20
-1.2605725245
 10
-29.1655726223
 20
-1.3097612844
 10
-29.0102145556
 20
-1.3496128288
 10
-28.8345176988
 20
-1.3785956852
  0
LWPOLYLINE
  5
3DB
330
3B5
100
AcDbEntity
  8
0
  6
Continuous
 62
     7
370
    15
100
AcDbPolyline
 90
       18
 70
   128
 43
0.0
 10
-33.6797581229
 20
1.1365290125
 10
-33.4289914601
 20
1.3079197632
 10
-33.0880156729
 20
1.4610328429
 10
-32.6684422827
 20
1.5906541693
 10
-32.1845593581
 20
1.6923696435
 10
-31.6528449518
 20
1.7627154672
 10
-31.0914059601
 20
1.7992960976
 10
-30.5193615146
 20
1.8008658253
 10
-29.9561919027
 20
1.7673711951
 10
-29.4210751901
 20
1.6999528263
 10
-28.9322341347
 20
1.6009065708
 10
-28.5063156323
 20
1.47360533
 10
-28.1578238267
 20
1.3223841948
 10
-27.8986261883
 20
1.1523928198
 10
-27.7375493818
 20
0.9694200573
 10
-27.6800786848
 20
0.7796968253
 10
-27.7281711928
 20
0.5896839209
 10
-27.8801891732
 20
0.4058520057
  0
LWPOLYLINE
  5
3DF
330
3B5
100
AcDbEntity
  8
0
  6
Continuous
 62
     7
370
    15
100
AcDbPolyline
 90
        9
 70
   128
 43
0.0
 10
-69.6701140864
 20
4.6570766746
 10
-69.7976168875
 20
4.4993402452
 10
-69.8303512055
 20
4.3363431561
 10
-69.767059079
 20
4.1743492943
 10
-69.6101727889
 20
4.0195839928
 10
-69.3657213874
 20
3.8779947955
 10
-69.0430990047
 20
3.7550228958
 10
-68.654703838
 20
3.6553940348
 10
-68.2154616959
 20
3.5829368938
  0
LWPOLYLINE
  5
3E3
330
3B5
100
AcDbEntity
  8
0
  6
Continuous
 62
     7
370
    15
100
AcDbPolyline
 90
        9
 70
   128
 43
0.0
 10
69.6701140864
 20
-2.5640406022
 10
69.7976168875
 20
-2.4063041728
 10
69.8303512055
 20
-2.2433070838
 10
69.767059079
 20
-2.0813132219
 10
69.6101727889
 20
-1.9265479204
 10
69.3657213874
 20
-1.7849587231
 10
69.0430990047
 20
-1.6619868234
 10
68.654703838
 20
-1.5623579624
 10
68.2154616959
 20
-1.4899008215
  0
LWPOLYLINE
  5
3E7
330
3B5
100
AcDbEntity
  8
0
  6
Continuous
 62
     7
370
    15
100
AcDbPolyline
 90
        9
 70
   128
 43
0.0
 10
23.9022391083
 20
-7.666454191
 10
23.8512379879
 20
-7.7295487628
 10
23.8381442607
 20
-7.7947475984
 10
23.8634611112
 20
-7.8595451431
 10
23.9262156273
 20
-7.9214512637
 10
24.0239961879
 20
-7.9780869426
 10
24.153045141
 20
-8.0272757025
 10
24.3084032076
 20
-8.0671272469
 10
24.4841000645
 20
-8.0961101033
  0
LWPOLYLINE
  5
3E9
330
3B5
100
AcDbEntity
  8
0
  6
Continuous
 62
     7
370
    15
100
AcDbPolyline
 90
       18
 70
   128
 43
0.0
 10
19.6388596404
 20
-5.5809854056
 10
19.8896263032
 20
-5.4095946549
 10
20.2306020904
 20
-5.2564815752
 10
20.6501754806
 20
-5.1268602489
 10
21.1340584051
 20
-5.0251447746
 10
21.6657728115
 20
-4.9547989509
 10
22.2272118031
 20
-4.9182183205
 10
22.7992562487
 20
-4.9166485928
 10
23.3624258606
 20
-4.9501432231
 10
23.8975425732
 20
-5.0175615918
 10
24.3863836286
 20
-5.1166078473
 10
24.812302131
 20
-5.2439090882
 10
25.1607939366
 20
-5.3951302233
 10
25.419991575
 20
-5.5651215983
 10
25.5810683814
 20
-5.7480943608
 10
25.6385390785
 20
-5.9378175928
 10
25.5904465705
 20
-6.1278304972
 10
25.4384285901
 20
-6.3116624125
  0
LWPOLYLINE
  5
3ED
330
3B5
100
AcDbEntity
  8
0
  6
Continuous
 62
     7
370
    15
100
AcDbPolyline
 90
        9
 70
   128
 43
0.0
 10
12.6772669476
 20
-6.2522406293
 10
12.6262658272
 20
-6.3153352011
 10
12.6131721
 20
-6.3805340367
 10
12.6384889506
 20
-6.4453315814
 10
12.7012434666
 20
-6.507237702
 10
12.7990240272
 20
-6.5638733809
 10
12.9280729803
 20
-6.6130621408
 10
13.083431047
 20
-6.6529136852
 10
13.2591279038
 20
-6.6818965416
  0
LWPOLYLINE
  5
3F7
330
3B5
100
AcDbEntity
  8
0
  6
Continuous
 62
     7
370
    15
100
AcDbPolyline
 90
        8
 70
   128
 43
0.0
 10
24.4841000645
 20
-9.1426281395
 10
24.3084032076
 20
-9.1136452831
 10
24.153045141
 20
-9.0737937387
 10
24.0239961879
 20
-9.0246049788
 10
23.9262156273
 20
-8.9679692999
 10
23.8634611112
 20
-8.9060631793
 10
23.8381442607
 20
-8.8412656346
 10
23.837653455
 20
-8.8308233573
  0
LWPOLYLINE
  5
400
330
3B5
100
AcDbEntity
  8
0
  6
Continuous
 62
     7
370
    15
100
AcDbPolyline
 90
        8
 70
   128
 43
0.0
 10
13.2591279038
 20
-7.7284145778
 10
13.083431047
 20
-7.6994317214
 10
12.9280729803
 20
-7.659580177
 10
12.7990240272
 20
-7.6103914171
 10
12.7012434666
 20
-7.5537557382
 10
12.6384889506
 20
-7.4918496176
 10
12.6131721
 20
-7.4270520729
 10
12.6126812943
 20
-7.4166097956
  0
LWPOLYLINE
  5
40C
330
3B5
100
AcDbEntity
  8
0
  6
Continuous
 62
     7
370
    15
100
AcDbPolyline
 90
        8
 70
   128
 43
0.0
 10
-2.1752088171
 20
-5.7838709304
 10
-2.350905674
 20
-5.754888074
 10
-2.5062637407
 20
-5.7150365297
 10
-2.6353126937
 20
-5.6658477698
 10
-2.7330932544
 20
-5.6092120908
 10
-2.7958477704
 20
-5.5473059703
 10
-2.821164621
 20
-5.4825084255
 10
-2.8216554266
 20
-5.4720661483
  0
LWPOLYLINE
  5
414
330
3B5
100
AcDbEntity
  8
0
  6
Continuous
 62
     7
370
    15
100
AcDbPolyline
 90
        8
 70
   128
 43
0.0
 10
-13.4001809778
 20
-4.3696573687
 10
-13.5758778347
 20
-4.3406745123
 10
-13.7312359013
 20
-4.3008229679
 10
-13.8602848544
 20
-4.2516342081
 10
-13.958065415
 20
-4.1949985291
 10
-14.0208199311
 20
-4.1330924085
 10
-14.0461367817
 20
-4.0682948638
 10
-14.0466275873
 20
-4.0578525865
  0
LWPOLYLINE
  5
416
330
3B5
100
AcDbEntity
  8
0
  6
Continuous
 62
     7
370
    15
100
AcDbPolyline
 90
        3
 70
   128
 43
0.0
 10
69.6701140864
 20
-3.6105586384
 10
69.7976168875
 20
-3.452822209
 10
69.8315782196
 20
-3.3159308131
  0
LWPOLYLINE
  5
421
330
3B5
100
AcDbEntity
  8
0
  6
Continuous
 62
     7
370
    15
100
AcDbPolyline
 90
        8
 70
   128
 43
0.0
 10
-28.8345176988
 20
-2.4251137214
 10
-29.0102145556
 20
-2.396130865
 10
-29.1655726223
 20
-2.3562793206
 10
-29.2946215754
 20
-2.3070905607
 10
-29.392402136
 20
-2.2504548818
 10
-29.455156652
 20
-2.1885487612
 10
-29.4804735026
 20
-2.1237512164
 10
-29.4809643083
 20
-2.1133089392
  0
LWPOLYLINE
  5
42C
330
3B5
100
AcDbEntity
  8
0
  6
Continuous
 62
     7
370
    15
100
AcDbPolyline
 90
        8
 70
   128
 43
0.0
 10
-69.8315782196
 20
3.3159308131
 10
-69.8303512055
 20
3.28982512
 10
-69.767059079
 20
3.1278312581
 10
-69.6101727889
 20
2.9730659566
 10
-69.3657213874
 20
2.8314767593
 10
-69.0430990047
 20
2.7085048596
 10
-68.654703838
 20
2.6088759986
 10
-68.2154616959
 20
2.5364188576
  0
LINE
  5
431
330
3B5
100
AcDbEntity
  8
0
  6
Continuous
 62
     7
370
    15
100
AcDbLine
 10
23.837653455
 20
-7.7843053211
 30
0.0
 11
23.837653455
 21
-8.8308233573
 31
0.0
  0
LINE
  5
432
330
3B5
100
AcDbEntity
  8
0
  6
Continuous
 62
     7
370
    15
100
AcDbLine
 10
12.6126812943
 20
-6.3700917594
 30
0.0
 11
12.6126812943
 21
-7.4166097956
 31
0.0
  0
LINE
  5
433
330
3B5
100
AcDbEntity
  8
0
  6
Continuous
 62
     7
370
    15
100
AcDbLine
 10
-2.8216554266
 20
-4.4255481121
 30
0.0
 11
-2.8216554266
 21
-5.4720661483
 31
0.0
  0
LINE
  5
434
330
3B5
100
AcDbEntity
  8
0
  6
Continuous
 62
     7
370
    15
100
AcDbLine
 10
-14.0466275873
 20
-3.0113345504
 30
0.0
 11
-14.0466275873
 21
-4.0578525865
 31
0.0
  0
LINE
  5
435
330
3B5
100
AcDbEntity
  8
0
  6
Continuous
 62
     7
370
    15
100
AcDbLine
 10
69.8315782196
 20
-3.3159308131
 30
0.0
 11
69.8315782196
 21
-2.2694127769
 31
0.0
  0
LINE
  5
436
330
3B5
100
AcDbEntity
  8
0
  6
Continuous
 62
     7
370
    15
100
AcDbLine
 10
-29.4809643083
 20
-1.066790903
 30
0.0
 11
-29.4809643083
 21
-2.1133089392
 31
0.0
  0
LINE
  5
437
330
3B5
100
AcDbEntity
  8
0
  6
Continuous
 62
     7
370
    15
100
AcDbLine
 10
-69.8315782196
 20
4.3624488493
 30
0.0
 11
-69.8315782196
 21
3.3159308131
 31
0.0
  0
LINE
  5
438
330
3B5
100
AcDbEntity
  8
0
  6
Continuous
 62
     7
370
    15
100
AcDbLine
 10
8.4138874797
 20
-4.1667718439
 30
0.0
 11
6.8776979979
 21
-5.5215636224
 31
0.0
  0
LINE
  5
439
330
3B5
100
AcDbEntity
  8
0
  6
Continuous
 62
     7
370
    15
100
AcDbLine
 10
-2.1752088171
 20
-4.7373528942
 30
0.0
 11
5.5887302607
 21
-5.7155172744
 31
0.0
  0
LINE
  5
43A
330
3B5
100
AcDbEntity
  8
0
  6
Continuous
 62
     7
370
    15
100
AcDbLine
 10
-2.7570697733
 20
-4.3076969819
 30
0.0
 11
-1.2208802916
 21
-2.9529052034
 31
0.0
  0
LINE
  5
43B
330
3B5
100
AcDbEntity
  8
0
  6
Continuous
 62
     7
370
    15
100
AcDbLine
 10
-7.0204492413
 20
-2.2222281965
 30
0.0
 11
-8.556638723
 21
-3.577019975
 31
0.0
  0
LINE
  5
43C
330
3B5
100
AcDbEntity
  8
0
  6
Continuous
 62
     7
370
    15
100
AcDbLine
 10
-13.4001809778
 20
-3.3231393325
 30
0.0
 11
-9.8456064603
 21
-3.7709736271
 31
0.0
  0
LINE
  5
43D
330
3B5
100
AcDbEntity
  8
0
  6
Continuous
 62
     7
370
    15
100
AcDbLine
 10
-13.982041934
 20
-2.8934834202
 30
0.0
 11
-12.4458524523
 21
-1.5386916417
 31
0.0
  0
LINE
  5
43E
330
3B5
100
AcDbEntity
  8
0
  6
Continuous
 62
     7
370
    15
100
AcDbLine
 10
-22.4547859622
 20
-0.2776845492
 30
0.0
 11
-23.990975444
 21
-1.6324763277
 31
0.0
  0
LINE
  5
43F
330
3B5
100
AcDbEntity
  8
0
  6
Continuous
 62
     7
370
    15
100
AcDbLine
 10
-28.8345176988
 20
-1.3785956852
 30
0.0
 11
-25.2799431812
 21
-1.8264299797
 31
0.0
  0
LINE
  5
440
330
3B5
100
AcDbEntity
  8
0
  6
Continuous
 62
     7
370
    15
100
AcDbLine
 10
-29.416378655
 20
-0.9489397729
 30
0.0
 11
-27.8801891732
 21
0.4058520057
 31
0.0
  0
LINE
  5
441
330
3B5
100
AcDbEntity
  8
0
  6
Continuous
 62
     7
370
    15
100
AcDbLine
 10
-33.6797581229
 20
1.1365290125
 30
0.0
 11
-35.2159476047
 21
-0.218262766
 31
0.0
  0
LINE
  5
442
330
3B5
100
AcDbEntity
  8
0
  6
Continuous
 62
     7
370
    15
100
AcDbLine
 10
-68.2154616959
 20
3.5829368938
 30
0.0
 11
-36.5049153419
 21
-0.412216418
 31
0.0
  0
LINE
  5
443
330
3B5
100
AcDbEntity
  8
0
  6
Continuous
 62
     7
370
    15
100
AcDbLine
 10
-59.4170657615
 20
13.6994153575
 30
0.0
 11
-69.6701140864
 21
4.6570766746
 31
0.0
  0
LINE
  5
444
330
3B5
100
AcDbEntity
  8
0
  6
Continuous
 62
     7
370
    15
100
AcDbLine
 10
68.2154616959
 20
-1.4899008215
 30
0.0
 11
-56.1946464184
 21
14.1842994875
 31
0.0
  0
LINE
  5
445
330
3B5
100
AcDbEntity
  8
0
  6
Continuous
 62
     7
370
    15
100
AcDbLine
 10
59.4170657615
 20
-11.6063792851
 30
0.0
 11
69.6701140864
 21
-2.5640406022
 31
0.0
  0
LINE
  5
446
330
3B5
100
AcDbEntity
  8
0
  6
Continuous
 62
     7
370
    15
100
AcDbLine
 10
24.4841000645
 20
-8.0961101033
 30
0.0
 11
56.1946464184
 21
-12.0912634151
 31
0.0
  0
LINE
  5
447
330
3B5
100
AcDbEntity
  8
0
  6
Continuous
 62
     7
370
    15
100
AcDbLine
 10
23.9022391083
 20
-7.666454191
 30
0.0
 11
25.4384285901
 21
-6.3116624125
 31
0.0
  0
LINE
  5
448
330
3B5
100
AcDbEntity
  8
0
  6
Continuous
 62
     7
370
    15
100
AcDbLine
 10
19.6388596404
 20
-5.5809854056
 30
0.0
 11
18.1026701586
 21
-6.9357771841
 31
0.0
  0
LINE
  5
449
330
3B5
100
AcDbEntity
  8
0
  6
Continuous
 62
     7
370
    15
100
AcDbLine
 10
13.2591279038
 20
-6.6818965416
 30
0.0
 11
16.8137024214
 21
-7.1297308361
 31
0.0
  0
LINE
  5
44A
330
3B5
100
AcDbEntity
  8
0
  6
Continuous
 62
     7
370
    15
100
AcDbLine
 10
12.6772669476
 20
-6.2522406293
 30
0.0
 11
14.2134564294
 21
-4.8974488508
 31
0.0
  0
LINE
  5
44B
330
3B5
100
AcDbEntity
  8
0
  6
Continuous
 62
     7
370
    15
100
AcDbLine
 10
56.1946464184
 20
-12.0912634151
 30
0.0
 11
56.1946464184
 21
-13.1377814513
 31
0.0
  0
LINE
  5
44C
330
3B5
100
AcDbEntity
  8
0
  6
Continuous
 62
     7
370
    15
100
AcDbLine
 10
59.4170657615
 20
-11.6063792851
 30
0.0
 11
59.4170657615
 21
-12.6528973213
 31
0.0
  0
LINE
  5
44D
330
3B5
100
AcDbEntity
  8
0
  6
Continuous
 62
     7
370
    15
100
AcDbLine
 10
24.4841000645
 20
-8.0961101033
 30
0.0
 11
24.4841000645
 21
-9.1426281395
 31
0.0
  0
LINE
  5
44E
330
3B5
100
AcDbEntity
  8
0
  6
Continuous
 62
     7
370
    15
100
AcDbLine
 10
24.4841000645
 20
-9.1426281395
 30
0.0
 11
56.1946464184
 21
-13.1377814513
 31
0.0
  0
LINE
  5
44F
330
3B5
100
AcDbEntity
  8
0
  6
Continuous
 62
     7
370
    15
100
AcDbLine
 10
69.6701140864
 20
-2.5640406022
 30
0.0
 11
69.6701140864
 21
-3.6105586384
 31
0.0
  0
LINE
  5
450
330
3B5
100
AcDbEntity
  8
0
  6
Continuous
 62
     7
370
    15
100
AcDbLine
 10
59.4170657615
 20
-12.6528973213
 30
0.0
 11
69.6701140864
 21
-3.6105586384
 31
0.0
  0
LINE
  5
451
330
3B5
100
AcDbEntity
  8
0
  6
Continuous
 62
     7
370
    15
100
AcDbLine
 10
16.8137024214
 20
-8.1762488723
 30
0.0
 11
16.8137024214
 21
-7.1297308361
 31
0.0
  0
LINE
  5
452
330
3B5
100
AcDbEntity
  8
0
  6
Continuous
 62
     7
370
    15
100
AcDbLine
 10
18.1026701586
 20
-6.9357771841
 30
0.0
 11
18.1026701586
 21
-7.9822952203
 31
0.0
  0
LINE
  5
453
330
3B5
100
AcDbEntity
  8
0
  6
Continuous
 62
     7
370
    15
100
AcDbLine
 10
13.2591279038
 20
-6.6818965416
 30
0.0
 11
13.2591279038
 21
-7.7284145778
 31
0.0
  0
LINE
  5
454
330
3B5
100
AcDbEntity
  8
0
  6
Continuous
 62
     7
370
    15
100
AcDbLine
 10
13.2591279038
 20
-7.7284145778
 30
0.0
 11
16.8137024214
 21
-8.1762488723
 31
0.0
  0
LINE
  5
455
330
3B5
100
AcDbEntity
  8
0
  6
Continuous
 62
     7
370
    15
100
AcDbLine
 10
19.6388596404
 20
-6.6275034418
 30
0.0
 11
19.6388596404
 21
-5.5809854056
 31
0.0
  0
LINE
  5
456
330
3B5
100
AcDbEntity
  8
0
  6
Continuous
 62
     7
370
    15
100
AcDbLine
 10
19.6388596404
 20
-6.6275034418
 30
0.0
 11
18.1026701586
 21
-7.9822952203
 31
0.0
  0
LINE
  5
457
330
3B5
100
AcDbEntity
  8
0
  6
Continuous
 62
     7
370
    15
100
AcDbLine
 10
5.5887302607
 20
-6.7620353106
 30
0.0
 11
5.5887302607
 21
-5.7155172744
 31
0.0
  0
LINE
  5
458
330
3B5
100
AcDbEntity
  8
0
  6
Continuous
 62
     7
370
    15
100
AcDbLine
 10
6.8776979979
 20
-5.5215636224
 30
0.0
 11
6.8776979979
 21
-6.5680816586
 31
0.0
  0
LINE
  5
459
330
3B5
100
AcDbEntity
  8
0
  6
Continuous
 62
     7
370
    15
100
AcDbLine
 10
-2.1752088171
 20
-4.7373528942
 30
0.0
 11
-2.1752088171
 21
-5.7838709304
 31
0.0
  0
LINE
  5
45A
330
3B5
100
AcDbEntity
  8
0
  6
Continuous
 62
     7
370
    15
100
AcDbLine
 10
-2.1752088171
 20
-5.7838709304
 30
0.0
 11
5.5887302607
 21
-6.7620353106
 31
0.0
  0
LINE
  5
45B
330
3B5
100
AcDbEntity
  8
0
  6
Continuous
 62
     7
370
    15
100
AcDbLine
 10
8.4138874797
 20
-5.2132898801
 30
0.0
 11
8.4138874797
 21
-4.1667718439
 31
0.0
  0
LINE
  5
45C
330
3B5
100
AcDbEntity
  8
0
  6
Continuous
 62
     7
370
    15
100
AcDbLine
 10
8.4138874797
 20
-5.2132898801
 30
0.0
 11
6.8776979979
 21
-6.5680816586
 31
0.0
  0
LINE
  5
45D
330
3B5
100
AcDbEntity
  8
0
  6
Continuous
 62
     7
370
    15
100
AcDbLine
 10
-9.8456064603
 20
-4.8174916633
 30
0.0
 11
-9.8456064603
 21
-3.7709736271
 31
0.0
  0
LINE
  5
45E
330
3B5
100
AcDbEntity
  8
0
  6
Continuous
 62
     7
370
    15
100
AcDbLine
 10
-8.556638723
 20
-3.577019975
 30
0.0
 11
-8.556638723
 21
-4.6235380112
 31
0.0
  0
LINE
  5
45F
330
3B5
100
AcDbEntity
  8
0
  6
Continuous
 62
     7
370
    15
100
AcDbLine
 10
-13.4001809778
 20
-3.3231393325
 30
0.0
 11
-13.4001809778
 21
-4.3696573687
 31
0.0
  0
LINE
  5
460
330
3B5
100
AcDbEntity
  8
0
  6
Continuous
 62
     7
370
    15
100
AcDbLine
 10
-13.4001809778
 20
-4.3696573687
 30
0.0
 11
-9.8456064603
 21
-4.8174916633
 31
0.0
  0
LINE
  5
461
330
3B5
100
AcDbEntity
  8
0
  6
Continuous
 62
     7
370
    15
100
AcDbLine
 10
-7.0204492413
 20
-3.2687462327
 30
0.0
 11
-7.0204492413
 21
-2.2222281965
 31
0.0
  0
LINE
  5
462
330
3B5
100
AcDbEntity
  8
0
  6
Continuous
 62
     7
370
    15
100
AcDbLine
 10
-7.0204492413
 20
-3.2687462327
 30
0.0
 11
-8.556638723
 21
-4.6235380112
 31
0.0
  0
LINE
  5
463
330
3B5
100
AcDbEntity
  8
0
  6
Continuous
 62
     7
370
    15
100
AcDbLine
 10
-25.2799431812
 20
-2.8729480159
 30
0.0
 11
-25.2799431812
 21
-1.8264299797
 31
0.0
  0
LINE
  5
464
330
3B5
100
AcDbEntity
  8
0
  6
Continuous
 62
     7
370
    15
100
AcDbLine
 10
-23.990975444
 20
-1.6324763277
 30
0.0
 11
-23.990975444
 21
-2.6789943639
 31
0.0
  0
LINE
  5
465
330
3B5
100
AcDbEntity
  8
0
  6
Continuous
 62
     7
370
    15
100
AcDbLine
 10
-28.8345176988
 20
-1.3785956852
 30
0.0
 11
-28.8345176988
 21
-2.4251137214
 31
0.0
  0
LINE
  5
466
330
3B5
100
AcDbEntity
  8
0
  6
Continuous
 62
     7
370
    15
100
AcDbLine
 10
-28.8345176988
 20
-2.4251137214
 30
0.0
 11
-25.2799431812
 21
-2.8729480159
 31
0.0
  0
LINE
  5
467
330
3B5
100
AcDbEntity
  8
0
  6
Continuous
 62
     7
370
    15
100
AcDbLine
 10
-22.4547859622
 20
-1.3242025854
 30
0.0
 11
-22.4547859622
 21
-0.2776845492
 31
0.0
  0
LINE
  5
468
330
3B5
100
AcDbEntity
  8
0
  6
Continuous
 62
     7
370
    15
100
AcDbLine
 10
-22.4547859622
 20
-1.3242025854
 30
0.0
 11
-23.990975444
 21
-2.6789943639
 31
0.0
  0
LINE
  5
469
330
3B5
100
AcDbEntity
  8
0
  6
Continuous
 62
     7
370
    15
100
AcDbLine
 10
-16.6963712649
 20
-0.2432685098
 30
0.0
 11
-16.6963712649
 21
-1.289786546
 31
0.0
  0
LINE
  5
46A
330
3B5
100
AcDbEntity
  8
0
  6
Continuous
 62
     7
370
    15
100
AcDbLine
 10
-36.5049153419
 20
-1.4587344542
 30
0.0
 11
-36.5049153419
 21
-0.412216418
 31
0.0
  0
LINE
  5
46B
330
3B5
100
AcDbEntity
  8
0
  6
Continuous
 62
     7
370
    15
100
AcDbLine
 10
-35.2159476047
 20
-0.218262766
 30
0.0
 11
-35.2159476047
 21
-1.2647808022
 31
0.0
  0
LINE
  5
46C
330
3B5
100
AcDbEntity
  8
0
  6
Continuous
 62
     7
370
    15
100
AcDbLine
 10
-68.2154616959
 20
3.5829368938
 30
0.0
 11
-68.2154616959
 21
2.5364188576
 31
0.0
  0
LINE
  5
46D
330
3B5
100
AcDbEntity
  8
0
  6
Continuous
 62
     7
370
    15
100
AcDbLine
 10
-68.2154616959
 20
2.5364188576
 30
0.0
 11
-36.5049153419
 21
-1.4587344542
 31
0.0
  0
LINE
  5
46E
330
3B5
100
AcDbEntity
  8
0
  6
Continuous
 62
     7
370
    15
100
AcDbLine
 10
-33.6797581229
 20
0.0900109764
 30
0.0
 11
-33.6797581229
 21
1.1365290125
 31
0.0
  0
LINE
  5
46F
330
3B5
100
AcDbEntity
  8
0
  6
Continuous
 62
     7
370
    15
100
AcDbLine
 10
-33.6797581229
 20
0.0900109764
 30
0.0
 11
-35.2159476047
 21
-1.2647808022
 31
0.0
  0
ARC
  5
470
330
3B5
100
AcDbEntity
  8
0
  6
Continuous
 62
     7
370
    15
100
AcDbCircle
 10
5.9567726491
 20
-3.7813791189
 30
0.0
 40
1.968843722643774
100
AcDbArc
 50
259.2261330329
 51
297.8883001309
  0
ARC
  5
471
330
3B5
100
AcDbEntity
  8
0
  6
Continuous
 62
     7
370
    15
100
AcDbCircle
 10
-9.4775640719
 20
-1.8368354716
 30
0.0
 40
1.968843722643715
100
AcDbArc
 50
259.2261330329
 51
297.8883001309
  0
ARC
  5
472
330
3B5
100
AcDbEntity
  8
0
  6
Continuous
 62
     7
370
    15
100
AcDbCircle
 10
-19.5427429352
 20
-5.7544687558
 30
0.0
 40
6.202834822678261
100
AcDbArc
 50
62.6849863208
 51
117.9998793686
  0
ARC
  5
473
330
3B5
100
AcDbEntity
  8
0
  6
Continuous
 62
     7
370
    15
100
AcDbCircle
 10
-24.9119007928
 20
0.1077081758
 30
0.0
 40
1.968843722643753
100
AcDbArc
 50
259.2261330329
 51
297.8883001309
  0
ARC
  5
474
330
3B5
100
AcDbEntity
  8
0
  6
Continuous
 62
     7
370
    15
100
AcDbCircle
 10
-36.1368729535
 20
1.5219217375
 30
0.0
 40
1.968843722643755
100
AcDbArc
 50
259.2261330329
 51
297.8883001309
  0
ARC
  5
475
330
3B5
100
AcDbEntity
  8
0
  6
Continuous
 62
     7
370
    15
100
AcDbCircle
 10
-57.1147523895
 20
9.3489540988
 30
0.0
 40
4.922109306609324
100
AcDbArc
 50
79.2261330329
 51
117.8883001309
  0
ARC
  5
476
330
3B5
100
AcDbEntity
  8
0
  6
Continuous
 62
     7
370
    15
100
AcDbCircle
 10
57.1147523895
 20
-7.2559180264
 30
0.0
 40
4.922109306609355
100
AcDbArc
 50
259.2261330329
 51
297.8883001309
  0
ARC
  5
477
330
3B5
100
AcDbEntity
  8
0
  6
Continuous
 62
     7
370
    15
100
AcDbCircle
 10
17.1817448098
 20
-5.1955926806
 30
0.0
 40
1.968843722643769
100
AcDbArc
 50
259.2261330329
 51
297.8883001309
  0
ARC
  5
478
330
3B5
100
AcDbEntity
  8
0
  6
Continuous
 62
     7
370
    15
100
AcDbCircle
 10
57.1147523895
 20
-8.3024360626
 30
0.0
 40
4.922109306609349
100
AcDbArc
 50
259.2261330329
 51
297.8883001309
  0
ARC
  5
479
330
3B5
100
AcDbEntity
  8
0
  6
Continuous
 62
     7
370
    15
100
AcDbCircle
 10
44.3989053435
 20
-14.0792052657
 30
0.0
 40
4.742658727387789
100
AcDbArc
 50
86.2580991262
 51
93.7419008738
  0
ARC
  5
47A
330
3B5
100
AcDbEntity
  8
0
  6
Continuous
 62
     7
370
    15
100
AcDbCircle
 10
17.1817448098
 20
-6.2421107168
 30
0.0
 40
1.968843722643726
100
AcDbArc
 50
259.2261330329
 51
297.8883001309
  0
ARC
  5
47B
330
3B5
100
AcDbEntity
  8
0
  6
Continuous
 62
     7
370
    15
100
AcDbCircle
 10
59.8665181903
 20
-11.7517614414
 30
0.0
 40
4.742658727411498
100
AcDbArc
 50
86.2580991254
 51
93.7419008746
  0
ARC
  5
47C
330
3B5
100
AcDbEntity
  8
0
  6
Continuous
 62
     7
370
    15
100
AcDbCircle
 10
22.5844191011
 20
-12.2955875178
 30
0.0
 40
6.387761550736624
100
AcDbArc
 50
65.4298232535
 51
117.4597550226
  0
ARC
  5
47D
330
3B5
100
AcDbEntity
  8
0
  6
Continuous
 62
     7
370
    15
100
AcDbCircle
 10
48.6166705775
 20
-11.2051381099
 30
0.0
 40
5.962789042819127
100
AcDbArc
 50
80.889771434
 51
110.0855270227
  0
ARC
  5
47E
330
3B5
100
AcDbEntity
  8
0
  6
Continuous
 62
     7
370
    15
100
AcDbCircle
 10
49.1207945621
 20
-9.5409701593
 30
0.0
 40
4.246260863670992
100
AcDbArc
 50
67.9606241065
 51
84.0524339147
  0
ARC
  5
47F
330
3B5
100
AcDbEntity
  8
0
  6
Continuous
 62
     7
370
    15
100
AcDbCircle
 10
5.9567726491
 20
-4.8278971551
 30
0.0
 40
1.968843722643726
100
AcDbArc
 50
259.2261330329
 51
297.8883001309
  0
ARC
  5
480
330
3B5
100
AcDbEntity
  8
0
  6
Continuous
 62
     7
370
    15
100
AcDbCircle
 10
11.3594469404
 20
-10.8813739561
 30
0.0
 40
6.387761550736646
100
AcDbArc
 50
65.4298232535
 51
117.4597550226
  0
ARC
  5
481
330
3B5
100
AcDbEntity
  8
0
  6
Continuous
 62
     7
370
    15
100
AcDbCircle
 10
-9.4775640719
 20
-2.8833535078
 30
0.0
 40
1.968843722643745
100
AcDbArc
 50
259.2261330329
 51
297.8883001309
  0
ARC
  5
482
330
3B5
100
AcDbEntity
  8
0
  6
Continuous
 62
     7
370
    15
100
AcDbCircle
 10
-4.0748897806
 20
-8.9368303087
 30
0.0
 40
6.387761550736638
100
AcDbArc
 50
65.4298232535
 51
117.4597550226
  0
ARC
  5
483
330
3B5
100
AcDbEntity
  8
0
  6
Continuous
 62
     7
370
    15
100
AcDbCircle
 10
52.8841867158
 20
-6.5958904936
 30
0.0
 40
4.742658727389984
100
AcDbArc
 50
86.2580991262
 51
93.7419008738
  0
ARC
  5
484
330
3B5
100
AcDbEntity
  8
0
  6
Continuous
 62
     7
370
    15
100
AcDbCircle
 10
-24.9119007928
 20
-0.9388098604
 30
0.0
 40
1.968843722643751
100
AcDbArc
 50
259.2261330329
 51
297.8883001309
  0
ARC
  5
485
330
3B5
100
AcDbEntity
  8
0
  6
Continuous
 62
     7
370
    15
100
AcDbCircle
 10
-15.335993915
 20
-7.8744098751
 30
0.0
 40
6.723681351760667
100
AcDbArc
 50
66.396358437
 51
101.6730258736
  0
ARC
  5
486
330
3B5
100
AcDbEntity
  8
0
  6
Continuous
 62
     7
370
    15
100
AcDbCircle
 10
-19.5427429352
 20
-6.800986792
 30
0.0
 40
6.202834822678259
100
AcDbArc
 50
62.6849863208
 51
117.9998793686
  0
ARC
  5
487
330
3B5
100
AcDbEntity
  8
0
  6
Continuous
 62
     7
370
    15
100
AcDbCircle
 10
-36.1368729535
 20
0.4754037013
 30
0.0
 40
1.96884372264376
100
AcDbArc
 50
259.2261330329
 51
297.8883001309
  0
ARC
  5
488
330
3B5
100
AcDbEntity
  8
0
  6
Continuous
 62
     7
370
    15
100
AcDbCircle
 10
-30.7341986622
 20
-5.5780730996
 30
0.0
 40
6.387761550737435
100
AcDbArc
 50
65.4298232535
 51
117.4597550226
  0
ARC
  5
489
330
3B5
100
AcDbEntity
  8
0
  6
Continuous
 62
     7
370
    15
100
AcDbCircle
 10
-52.8841867158
 20
-1.8226877308
 30
0.0
 40
4.742658727390457
100
AcDbArc
 50
86.2580991262
 51
93.7419008738
  0
ARC
  5
48A
330
3B5
100
AcDbEntity
  8
0
  6
Continuous
 62
     7
370
    15
100
AcDbCircle
 10
-48.6664214818
 20
1.0513794249
 30
0.0
 40
5.962789042840841
100
AcDbArc
 50
80.889771434
 51
110.0855270229
  0
ARC
  5
48B
330
3B5
100
AcDbEntity
  8
0
  6
Continuous
 62
     7
370
    15
100
AcDbCircle
 10
-48.1622974973
 20
2.7155473755
 30
0.0
 40
4.24626086368234
100
AcDbArc
 50
67.9606241063
 51
84.0524339147
  0
ARC
  5
48C
330
3B5
100
AcDbEntity
  8
0
  6
Continuous
 62
     7
370
    15
100
AcDbCircle
 10
-59.8665181904
 20
3.3331832169
 30
0.0
 40
4.74265872742917
100
AcDbArc
 50
86.2580991248
 51
93.7419008752
  0
ARC
  5
48D
330
3B5
100
AcDbEntity
  8
0
  6
Continuous
 62
     7
370
    15
100
AcDbCircle
 10
-44.3989053435
 20
5.6606270412
 30
0.0
 40
4.742658727392373
100
AcDbArc
 50
86.2580991262
 51
93.7419008738
  0
VIEWPORT
  5
496
330
3B5
100
AcDbEntity
  8
0
100
AcDbViewport
 10
0.0
 20
0.0
 30
0.0
 40
243.84
 41
204.216
 68
     1
 69
     1
 12
0.0
 22
0.0
 13
0.0
 23
0.0
 14
10.0
 24
10.0
 15
10.0
 25
10.0
 16
0.0
 26
0.0
 36
1.0
 17
0.0
 27
0.0
 37
0.0
 42
50.0
 43
0.0
 44
0.0
 45
117.8865
 50
0.0
 51
0.0
 72
   100
 90
   557152
  1

281
     0
 71
     1
 74
     0
110
0.0
120
0.0
130
0.0
111
1.0
121
0.0
131
0.0
112
0.0
122
1.0
132
0.0
 79
     0
146
0.0
  0
ENDBLK
  5
3B8
330
3B5
100
AcDbEntity
  8
0
100
AcDbBlockEnd
  0
ENDSEC
  0
SECTION
  2
ENTITIES
  0
CIRCLE
  5
44
330
1F
100
AcDbEntity
  8
0
  6
Continuous
 62
     7
370
    15
100
AcDbCircle
 10
64.0
 20
0.0
 30
0.0
 40
1.600000000013451
  0
CIRCLE
  5
45
330
1F
100
AcDbEntity
  8
0
  6
Continuous
 62
     7
370
    15
100
AcDbCircle
 10
-52.0
 20
0.0
 30
0.0
 40
2.600000000027908
  0
CIRCLE
  5
46
330
1F
100
AcDbEntity
  8
0
  6
Continuous
 62
     7
370
    15
100
AcDbCircle
 10
52.0
 20
-12.0
 30
0.0
 40
1.600000000000284
  0
CIRCLE
  5
47
330
1F
100
AcDbEntity
  8
0
  6
Continuous
 62
     7
370
    15
100
AcDbCircle
 10
-52.0
 20
12.0
 30
0.0
 40
1.599999999999998
  0
CIRCLE
  5
48
330
1F
100
AcDbEntity
  8
0
  6
Continuous
 62
     7
370
    15
100
AcDbCircle
 10
-64.0
 20
0.0
 30
0.0
 40
1.600000000023269
  0
CIRCLE
  5
49
330
1F
100
AcDbEntity
  8
0
  6
Continuous
 62
     7
370
    15
100
AcDbCircle
 10
-52.0
 20
-12.0
 30
0.0
 40
1.599999999999998
  0
CIRCLE
  5
4A
330
1F
100
AcDbEntity
  8
0
  6
Continuous
 62
     7
370
    15
100
AcDbCircle
 10
52.0
 20
12.0
 30
0.0
 40
1.600000000000284
  0
CIRCLE
  5
4B
330
1F
100
AcDbEntity
  8
0
  6
Continuous
 62
     7
370
    15
100
AcDbCircle
 10
52.0
 20
0.0
 30
0.0
 40
2.600000000013505
  0
LINE
  5
73
330
1F
100
AcDbEntity
  8
0
  6
Continuous
 62
     7
370
    15
100
AcDbLine
 10
13.4
 20
-11.655
 30
0.0
 11
13.4
 21
-16.0
 31
0.0
  0
LINE
  5
74
330
1F
100
AcDbEntity
  8
0
  6
Continuous
 62
     7
370
    15
100
AcDbLine
 10
3.1
 20
-16.0
 30
0.0
 11
3.1
 21
-11.655
 31
0.0
  0
LINE
  5
75
330
1F
100
AcDbEntity
  8
0
  6
Continuous
 62
     7
370
    15
100
AcDbLine
 10
-3.1
 20
-11.655
 30
0.0
 11
-3.1
 21
-16.0
 31
0.0
  0
LINE
  5
76
330
1F
100
AcDbEntity
  8
0
  6
Continuous
 62
     7
370
    15
100
AcDbLine
 10
-8.9
 20
-16.0
 30
0.0
 11
-8.9
 21
-11.655
 31
0.0
  0
LINE
  5
77
330
1F
100
AcDbEntity
  8
0
  6
Continuous
 62
     7
370
    15
100
AcDbLine
 10
-19.6
 20
-11.655
 30
0.0
 11
-19.6
 21
-16.0
 31
0.0
  0
LINE
  5
78
330
1F
100
AcDbEntity
  8
0
  6
Continuous
 62
     7
370
    15
100
AcDbLine
 10
-25.4
 20
-16.0
 30
0.0
 11
-25.4
 21
-11.655
 31
0.0
  0
LINE
  5
79
330
1F
100
AcDbEntity
  8
0
  6
Continuous
 62
     7
370
    15
100
AcDbLine
 10
-31.6
 20
-11.655
 30
0.0
 11
-31.6
 21
-16.0
 31
0.0
  0
LINE
  5
7A
330
1F
100
AcDbEntity
  8
0
  6
Continuous
 62
     7
370
    15
100
AcDbLine
 10
-69.0
 20
14.5
 30
0.0
 11
-69.0
 21
-14.5
 31
0.0
  0
LINE
  5
7B
330
1F
100
AcDbEntity
  8
0
  6
Continuous
 62
     7
370
    15
100
AcDbLine
 10
66.5
 20
17.0
 30
0.0
 11
-66.5
 21
17.0
 31
0.0
  0
LINE
  5
7C
330
1F
100
AcDbEntity
  8
0
  6
Continuous
 62
     7
370
    15
100
AcDbLine
 10
69.0
 20
-14.5
 30
0.0
 11
69.0
 21
14.5
 31
0.0
  0
LINE
  5
7D
330
1F
100
AcDbEntity
  8
0
  6
Continuous
 62
     7
370
    15
100
AcDbLine
 10
32.6
 20
-17.0
 30
0.0
 11
66.5
 21
-17.0
 31
0.0
  0
LINE
  5
7E
330
1F
100
AcDbEntity
  8
0
  6
Continuous
 62
     7
370
    15
100
AcDbLine
 10
31.6
 20
-16.0
 30
0.0
 11
31.6
 21
-11.655
 31
0.0
  0
LINE
  5
7F
330
1F
100
AcDbEntity
  8
0
  6
Continuous
 62
     7
370
    15
100
AcDbLine
 10
25.4
 20
-11.655
 30
0.0
 11
25.4
 21
-16.0
 31
0.0
  0
LINE
  5
80
330
1F
100
AcDbEntity
  8
0
  6
Continuous
 62
     7
370
    15
100
AcDbLine
 10
19.6
 20
-16.0
 30
0.0
 11
19.6
 21
-11.655
 31
0.0
  0
LINE
  5
81
330
1F
100
AcDbEntity
  8
0
  6
Continuous
 62
     7
370
    15
100
AcDbLine
 10
-66.5
 20
-17.0
 30
0.0
 11
-32.6
 21
-17.0
 31
0.0
  0
LINE
  5
82
330
1F
100
AcDbEntity
  8
0
  6
Continuous
 62
     7
370
    15
100
AcDbLine
 10
-24.4
 20
-17.0
 30
0.0
 11
-20.6
 21
-17.0
 31
0.0
  0
LINE
  5
83
330
1F
100
AcDbEntity
  8
0
  6
Continuous
 62
     7
370
    15
100
AcDbLine
 10
-7.9
 20
-17.0
 30
0.0
 11
-4.1
 21
-17.0
 31
0.0
  0
LINE
  5
84
330
1F
100
AcDbEntity
  8
0
  6
Continuous
 62
     7
370
    15
100
AcDbLine
 10
20.6
 20
-17.0
 30
0.0
 11
24.4
 21
-17.0
 31
0.0
  0
LINE
  5
85
330
1F
100
AcDbEntity
  8
0
  6
Continuous
 62
     7
370
    15
100
AcDbLine
 10
4.1
 20
-17.0
 30
0.0
 11
12.4
 21
-17.0
 31
0.0
  0
ARC
  5
86
330
1F
100
AcDbEntity
  8
0
  6
Continuous
 62
     7
370
    15
100
AcDbCircle
 10
16.5
 20
-11.655
 30
0.0
 40
3.100000000000001
100
AcDbArc
 50
0.0
 51
180.0
  0
ARC
  5
87
330
1F
100
AcDbEntity
  8
0
  6
Continuous
 62
     7
370
    15
100
AcDbCircle
 10
12.4
 20
-16.0
 30
0.0
 40
1.000000000000007
100
AcDbArc
 50
270.0
 51
0.0
  0
ARC
  5
88
330
1F
100
AcDbEntity
  8
0
  6
Continuous
 62
     7
370
    15
100
AcDbCircle
 10
4.1
 20
-16.0
 30
0.0
 40
1.0
100
AcDbArc
 50
180.0
 51
270.0
  0
ARC
  5
89
330
1F
100
AcDbEntity
  8
0
  6
Continuous
 62
     7
370
    15
100
AcDbCircle
 10
0.0
 20
-11.655
 30
0.0
 40
3.1
100
AcDbArc
 50
0.0
 51
180.0
  0
ARC
  5
8A
330
1F
100
AcDbEntity
  8
0
  6
Continuous
 62
     7
370
    15
100
AcDbCircle
 10
-4.1
 20
-16.0
 30
0.0
 40
0.9999999999999978
100
AcDbArc
 50
270.0
 51
0.0
  0
ARC
  5
8B
330
1F
100
AcDbEntity
  8
0
  6
Continuous
 62
     7
370
    15
100
AcDbCircle
 10
-7.9
 20
-16.0
 30
0.0
 40
1.0
100
AcDbArc
 50
180.0
 51
270.0
  0
ARC
  5
8C
330
1F
100
AcDbEntity
  8
0
  6
Continuous
 62
     7
370
    15
100
AcDbCircle
 10
-12.0
 20
-11.655
 30
0.0
 40
3.100000000000002
100
AcDbArc
 50
0.0
 51
136.5359765017
  0
ARC
  5
8D
330
1F
100
AcDbEntity
  8
0
  6
Continuous
 62
     7
370
    15
100
AcDbCircle
 10
-16.5
 20
-11.655
 30
0.0
 40
3.100000000000435
100
AcDbArc
 50
43.4640234983
 51
180.0
  0
ARC
  5
8E
330
1F
100
AcDbEntity
  8
0
  6
Continuous
 62
     7
370
    15
100
AcDbCircle
 10
-20.6
 20
-16.0
 30
0.0
 40
1.000000000000004
100
AcDbArc
 50
270.0
 51
0.0
  0
ARC
  5
8F
330
1F
100
AcDbEntity
  8
0
  6
Continuous
 62
     7
370
    15
100
AcDbCircle
 10
-24.4
 20
-16.0
 30
0.0
 40
1.0
100
AcDbArc
 50
180.0
 51
270.0
  0
ARC
  5
90
330
1F
100
AcDbEntity
  8
0
  6
Continuous
 62
     7
370
    15
100
AcDbCircle
 10
-28.5
 20
-11.655
 30
0.0
 40
3.100000000000431
100
AcDbArc
 50
0.0
 51
180.0
  0
ARC
  5
91
330
1F
100
AcDbEntity
  8
0
  6
Continuous
 62
     7
370
    15
100
AcDbCircle
 10
-32.6
 20
-16.0
 30
0.0
 40
1.000000000000004
100
AcDbArc
 50
270.0
 51
0.0
  0
ARC
  5
92
330
1F
100
AcDbEntity
  8
0
  6
Continuous
 62
     7
370
    15
100
AcDbCircle
 10
-66.5
 20
-14.5
 30
0.0
 40
2.5
100
AcDbArc
 50
180.0
 51
270.0
  0
ARC
  5
93
330
1F
100
AcDbEntity
  8
0
  6
Continuous
 62
     7
370
    15
100
AcDbCircle
 10
-66.5
 20
14.5
 30
0.0
 40
2.500000000000014
100
AcDbArc
 50
90.0
 51
180.0
  0
ARC
  5
94
330
1F
100
AcDbEntity
  8
0
  6
Continuous
 62
     7
370
    15
100
AcDbCircle
 10
66.5
 20
14.5
 30
0.0
 40
2.499999999999986
100
AcDbArc
 50
0.0
 51
90.0
  0
ARC
  5
95
330
1F
100
AcDbEntity
  8
0
  6
Continuous
 62
     7
370
    15
100
AcDbCircle
 10
66.5
 20
-14.5
 30
0.0
 40
2.5
100
AcDbArc
 50
270.0
 51
0.0
  0
ARC
  5
96
330
1F
100
AcDbEntity
  8
0
  6
Continuous
 62
     7
370
    15
100
AcDbCircle
 10
32.6
 20
-16.0
 30
0.0
 40
0.9999999999999964
100
AcDbArc
 50
180.0
 51
270.0
  0
ARC
  5
97
330
1F
100
AcDbEntity
  8
0
  6
Continuous
 62
     7
370
    15
100
AcDbCircle
 10
28.5
 20
-11.655
 30
0.0
 40
3.100000000000001
100
AcDbArc
 50
0.0
 51
180.0
  0
ARC
  5
98
330
1F
100
AcDbEntity
  8
0
  6
Continuous
 62
     7
370
    15
100
AcDbCircle
 10
24.4
 20
-16.0
 30
0.0
 40
1.000000000000007
100
AcDbArc
 50
270.0
 51
0.0
  0
ARC
  5
99
330
1F
100
AcDbEntity
  8
0
  6
Continuous
 62
     7
370
    15
100
AcDbCircle
 10
20.6
 20
-16.0
 30
0.0
 40
0.9999999999999964
100
AcDbArc
 50
180.0
 51
270.0
  0
LWPOLYLINE
  5
1F9
330
1EA
100
AcDbEntity
 67
     1
  8
0
  6
Continuous
 62
     7
370
    15
100
AcDbPolyline
 90
       26
 70
   128
 43
0.0
 10
44.123463146
 20
-25.8718257666
 10
44.4403677307
 20
-26.0137325499
 10
44.8084482263
 20
-26.1056844687
 10
45.2045767814
 20
-26.1419038459
 10
45.6038631822
 20
-26.1201148846
 10
45.9812187955
 20
-26.0416866656
 10
46.3129329805
 20
-25.9115471222
 10
46.5781629148
 20
-25.7378734007
 10
46.7602432263
 20
-25.5315780595
 10
46.8477331393
 20
-25.3056233937
 10
46.8351353409
 20
-25.0742069661
 10
46.723241397
 20
-24.8518695217
 10
46.5190820157
 20
-24.65258134
 10
46.2354852818
 20
-24.4888644303
 10
45.8902706209
 20
-24.3710057281
 10
45.50512914
 20
-24.3064107293
 10
45.1042606946
 20
-24.2991381751
 10
44.7128533235
 20
-24.3496450268
 10
44.3555005914
 20
-24.4547577532
 10
44.0546562845
 20
-24.6078717352
 10
43.8292235572
 20
-24.7993662581
 10
43.6933671768
 20
-25.0172090168
 10
43.6556234993
 20
-25.2477121495
 10
43.7183640988
 20
-25.4763922968
 10
43.8776467527
 20
-25.6888806439
 10
44.123463146
 20
-25.8718257666
  0
LWPOLYLINE
  5
1FA
330
1EA
100
AcDbEntity
 67
     1
  8
0
  6
Continuous
 62
     7
370
    15
100
AcDbPolyline
 90
       33
 70
   128
 43
0.0
 10
-38.6080302528
 20
21.0716406632
 10
-38.2140352276
 20
20.8849785142
 10
-37.7645295459
 20
20.7462760245
 10
-37.276787459
 20
20.6608634531
 10
-36.7695526217
 20
20.6320231571
 10
-36.2623177845
 20
20.6608634531
 10
-35.7745756976
 20
20.7462760245
 10
-35.3250700159
 20
20.8849785142
 10
-34.9310749906
 20
21.0716406632
 10
-34.6077316297
 20
21.2990891499
 10
-34.3674658372
 20
21.5585832565
 10
-34.2195108927
 20
21.8401507699
 10
-34.1695526217
 20
22.1329712086
 10
-34.2195108927
 20
22.4257916473
 10
-34.3674658372
 20
22.7073591607
 10
-34.6077316297
 20
22.9668532673
 10
-34.9310749906
 20
23.194301754
 10
-35.3250700159
 20
23.380963903
 10
-35.7745756976
 20
23.5196663927
 10
-36.2623177845
 20
23.6050789641
 10
-36.7695526217
 20
23.63391926
 10
-37.276787459
 20
23.6050789641
 10
-37.7645295459
 20
23.5196663927
 10
-38.2140352276
 20
23.380963903
 10
-38.6080302528
 20
23.194301754
 10
-38.9313736138
 20
22.9668532673
 10
-39.1716394063
 20
22.7073591607
 10
-39.3195943508
 20
22.4257916473
 10
-39.3695526218
 20
22.1329712086
 10
-39.3195943508
 20
21.8401507699
 10
-39.1716394063
 20
21.5585832565
 10
-38.9313736138
 20
21.2990891499
 10
-38.6080302528
 20
21.0716406632
  0
LWPOLYLINE
  5
1FB
330
1EA
100
AcDbEntity
 67
     1
  8
0
  6
Continuous
 62
     7
370
    15
100
AcDbPolyline
 90
       26
 70
   128
 43
0.0
 10
27.1529003976
 20
-25.8718257666
 10
27.4698049823
 20
-26.0137325499
 10
27.8378854778
 20
-26.1056844687
 10
28.2340140329
 20
-26.1419038459
 10
28.6333004337
 20
-26.1201148846
 10
29.010656047
 20
-26.0416866656
 10
29.342370232
 20
-25.9115471222
 10
29.6076001663
 20
-25.7378734007
 10
29.7896804778
 20
-25.5315780595
 10
29.8771703908
 20
-25.3056233937
 10
29.8645725924
 20
-25.0742069661
 10
29.7526786486
 20
-24.8518695217
 10
29.5485192673
 20
-24.65258134
 10
29.2649225333
 20
-24.4888644303
 10
28.9197078725
 20
-24.3710057281
 10
28.5345663915
 20
-24.3064107293
 10
28.1336979462
 20
-24.2991381751
 10
27.7422905751
 20
-24.3496450268
 10
27.3849378429
 20
-24.4547577532
 10
27.0840935361
 20
-24.6078717352
 10
26.8586608088
 20
-24.7993662581
 10
26.7228044284
 20
-25.0172090168
 10
26.6850607509
 20
-25.2477121495
 10
26.7478013504
 20
-25.4763922968
 10
26.9070840043
 20
-25.6888806439
 10
27.1529003976
 20
-25.8718257666
  0
LWPOLYLINE
  5
1FC
330
1EA
100
AcDbEntity
 67
     1
  8
0
  6
Continuous
 62
     7
370
    15
100
AcDbPolyline
 90
       26
 70
   128
 43
0.0
 10
-29.4156420974
 20
26.3782933901
 10
-29.0987375127
 20
26.2363866068
 10
-28.7306570171
 20
26.1444346879
 10
-28.334528462
 20
26.1082153108
 10
-27.9352420612
 20
26.130004272
 10
-27.5578864479
 20
26.208432491
 10
-27.2261722629
 20
26.3385720344
 10
-26.9609423286
 20
26.512245756
 10
-26.7788620171
 20
26.7185410972
 10
-26.6913721041
 20
26.9444957629
 10
-26.7039699025
 20
27.1759121906
 10
-26.8158638464
 20
27.3982496349
 10
-27.0200232277
 20
27.5975378167
 10
-27.3036199616
 20
27.7612547264
 10
-27.6488346224
 20
27.8791134285
 10
-28.0339761034
 20
27.9437084274
 10
-28.4348445488
 20
27.9509809816
 10
-28.8262519199
 20
27.9004741298
 10
-29.183604652
 20
27.7953614034
 10
-29.4844489589
 20
27.6422474215
 10
-29.7098816862
 20
27.4507528986
 10
-29.8457380666
 20
27.2329101399
 10
-29.883481744
 20
27.0024070071
 10
-29.8207411445
 20
26.7737268598
 10
-29.6614584907
 20
26.5612385127
 10
-29.4156420974
 20
26.3782933901
  0
LWPOLYLINE
  5
1FD
330
1EA
100
AcDbEntity
 67
     1
  8
0
  6
Continuous
 62
     7
370
    15
100
AcDbPolyline
 90
       26
 70
   128
 43
0.0
 10
-46.3862048459
 20
26.3782933901
 10
-46.0693002612
 20
26.2363866068
 10
-45.7012197656
 20
26.1444346879
 10
-45.3050912105
 20
26.1082153108
 10
-44.9058048097
 20
26.130004272
 10
-44.5284491964
 20
26.208432491
 10
-44.1967350114
 20
26.3385720344
 10
-43.9315050771
 20
26.512245756
 10
-43.7494247656
 20
26.7185410972
 10
-43.6619348526
 20
26.9444957629
 10
-43.674532651
 20
27.1759121906
 10
-43.7864265948
 20
27.398249635
 10
-43.9905859761
 20
27.5975378167
 10
-44.2741827101
 20
27.7612547264
 10
-44.6193973709
 20
27.8791134285
 10
-45.0045388519
 20
27.9437084274
 10
-45.4054072973
 20
27.9509809816
 10
-45.7968146684
 20
27.9004741299
 10
-46.1541674005
 20
27.7953614034
 10
-46.4550117074
 20
27.6422474215
 10
-46.6804444347
 20
27.4507528986
 10
-46.8163008151
 20
27.2329101399
 10
-46.8540444926
 20
27.0024070071
 10
-46.7913038931
 20
26.7737268599
 10
-46.6320212392
 20
26.5612385127
 10
-46.3862048459
 20
26.3782933901
  0
LWPOLYLINE
  5
1FE
330
1EA
100
AcDbEntity
 67
     1
  8
0
  6
Continuous
 62
     7
370
    15
100
AcDbPolyline
 90
       26
 70
   128
 43
0.0
 10
-46.3862048458
 20
16.5813960482
 10
-46.0693002611
 20
16.4394892649
 10
-45.7012197656
 20
16.3475373461
 10
-45.3050912105
 20
16.3113179689
 10
-44.9058048097
 20
16.3331069301
 10
-44.5284491964
 20
16.4115351492
 10
-44.1967350114
 20
16.5416746925
 10
-43.9315050771
 20
16.7153484141
 10
-43.7494247656
 20
16.9216437553
 10
-43.6619348526
 20
17.147598421
 10
-43.674532651
 20
17.3790148487
 10
-43.7864265948
 20
17.6013522931
 10
-43.9905859761
 20
17.8006404748
 10
-44.2741827101
 20
17.9643573845
 10
-44.6193973709
 20
18.0822160866
 10
-45.0045388519
 20
18.1468110855
 10
-45.4054072973
 20
18.1540836397
 10
-45.7968146683
 20
18.103576788
 10
-46.1541674005
 20
17.9984640615
 10
-46.4550117074
 20
17.8453500796
 10
-46.6804444346
 20
17.6538555567
 10
-46.816300815
 20
17.436012798
 10
-46.8540444925
 20
17.2055096653
 10
-46.791303893
 20
16.976829518
 10
-46.6320212391
 20
16.7643411708
 10
-46.3862048458
 20
16.5813960482
  0
LWPOLYLINE
  5
1FF
330
1EA
100
AcDbEntity
 67
     1
  8
0
  6
Continuous
 62
     7
370
    15
100
AcDbPolyline
 90
       26
 70
   128
 43
0.0
 10
44.123463146
 20
-16.0749284247
 10
44.4403677307
 20
-16.216835208
 10
44.8084482263
 20
-16.3087871268
 10
45.2045767814
 20
-16.345006504
 10
45.6038631822
 20
-16.3232175428
 10
45.9812187955
 20
-16.2447893237
 10
46.3129329805
 20
-16.1146497804
 10
46.5781629148
 20
-15.9409760588
 10
46.7602432263
 20
-15.7346807176
 10
46.8477331393
 20
-15.5087260519
 10
46.8351353409
 20
-15.2773096242
 10
46.723241397
 20
-15.0549721798
 10
46.5190820157
 20
-14.8556839981
 10
46.2354852818
 20
-14.6919670884
 10
45.890270621
 20
-14.5741083863
 10
45.50512914
 20
-14.5095133874
 10
45.1042606946
 20
-14.5022408332
 10
44.7128533235
 20
-14.5527476849
 10
44.3555005914
 20
-14.6578604114
 10
44.0546562845
 20
-14.8109743933
 10
43.8292235572
 20
-15.0024689162
 10
43.6933671768
 20
-15.2203116749
 10
43.6556234994
 20
-15.4508148076
 10
43.7183640989
 20
-15.6794949549
 10
43.8776467527
 20
-15.8919833021
 10
44.123463146
 20
-16.0749284247
  0
LWPOLYLINE
  5
200
330
1EA
100
AcDbEntity
 67
     1
  8
0
  6
Continuous
 62
     7
370
    15
100
AcDbPolyline
 90
       33
 70
   128
 43
0.0
 10
34.9310749906
 20
-21.3815811516
 10
35.3250700158
 20
-21.5682433006
 10
35.7745756975
 20
-21.7069457903
 10
36.2623177844
 20
-21.7923583617
 10
36.7695526217
 20
-21.8211986576
 10
37.2767874589
 20
-21.7923583617
 10
37.7645295458
 20
-21.7069457903
 10
38.2140352275
 20
-21.5682433006
 10
38.6080302528
 20
-21.3815811516
 10
38.9313736137
 20
-21.1541326649
 10
39.1716394062
 20
-20.8946385583
 10
39.3195943508
 20
-20.6130710449
 10
39.3695526217
 20
-20.3202506062
 10
39.3195943508
 20
-20.0274301675
 10
39.1716394062
 20
-19.7458626541
 10
38.9313736137
 20
-19.4863685475
 10
38.6080302528
 20
-19.2589200608
 10
38.2140352275
 20
-19.0722579118
 10
37.7645295458
 20
-18.9335554221
 10
37.2767874589
 20
-18.8481428507
 10
36.7695526217
 20
-18.8193025548
 10
36.2623177844
 20
-18.8481428507
 10
35.7745756975
 20
-18.9335554221
 10
35.3250700158
 20
-19.0722579118
 10
34.9310749906
 20
-19.2589200608
 10
34.6077316297
 20
-19.4863685475
 10
34.3674658371
 20
-19.7458626541
 10
34.2195108926
 20
-20.0274301675
 10
34.1695526217
 20
-20.3202506062
 10
34.2195108926
 20
-20.6130710449
 10
34.3674658371
 20
-20.8946385583
 10
34.6077316297
 20
-21.1541326649
 10
34.9310749906
 20
-21.3815811516
  0
LWPOLYLINE
  5
201
330
1EA
100
AcDbEntity
 67
     1
  8
0
  6
Continuous
 62
     7
370
    15
100
AcDbPolyline
 90
       18
 70
   128
 43
0.0
 10
1.2339013332
 20
-9.3211923197
 10
1.6740094701
 20
-9.1102160888
 10
2.1737772397
 20
-8.9495171889
 10
2.71618565
 20
-8.8445680285
 10
3.282763633
 20
-8.7989425252
 10
3.8542170552
 20
-8.8141944008
 10
4.4110857556
 20
-8.8898042711
 10
4.9344062384
 20
-9.0231973325
 10
5.4063574524
 20
-9.2098310444
 10
5.8108676649
 20
-9.4433498195
 10
6.1341617659
 20
-9.715801456
 10
6.3652303624
 20
-10.0179079402
 10
6.4962046906
 20
-10.3393813982
 10
6.5226245767
 20
-10.6692744368
 10
6.4435903234
 20
-10.9963529444
 10
6.2617933472
 20
-11.3094786546
 10
5.9834245261
 20
-11.5979884469
 10
5.6179633765
 20
-11.8520574663
  0
LWPOLYLINE
  5
207
330
1EA
100
AcDbEntity
 67
     1
  8
0
  6
Continuous
 62
     7
370
    15
100
AcDbPolyline
 90
       18
 70
   128
 43
0.0
 10
-10.4333605564
 20
-2.5858253971
 10
-9.9932524194
 20
-2.3748491662
 10
-9.4934846498
 20
-2.2141502664
 10
-8.9510762396
 20
-2.109201106
 10
-8.3844982565
 20
-2.0635756026
 10
-7.8130448344
 20
-2.0788274783
 10
-7.256176134
 20
-2.1544373485
 10
-6.7328556512
 20
-2.28783041
 10
-6.2609044372
 20
-2.4744641218
 10
-5.8563942247
 20
-2.7079828969
 10
-5.5331001237
 20
-2.9804345335
 10
-5.3020315272
 20
-3.2825410177
 10
-5.171057199
 20
-3.6040144757
 10
-5.1446373128
 20
-3.9339075143
 10
-5.2236715662
 20
-4.2609860219
 10
-5.4054685424
 20
-4.574111732
 10
-5.6838373635
 20
-4.8626215243
 10
-6.0492985131
 20
-5.1166905438
  0
LWPOLYLINE
  5
20D
330
1EA
100
AcDbEntity
 67
     1
  8
0
  6
Continuous
 62
     7
370
    15
100
AcDbPolyline
 90
       14
 70
   128
 43
0.0
 10
-16.8097052816
 20
2.8361395918
 10
-16.2434388114
 20
2.8149117284
 10
-15.6933623709
 20
2.7344514377
 10
-15.1779078069
 20
2.5974547662
 10
-14.7143468633
 20
2.4085121698
 10
-14.3182124435
 20
2.1739546977
 10
-14.002778137
 20
1.9016418527
 10
-13.7786134507
 20
1.6006982367
 10
-13.6532296481
 20
1.2812078057
 10
-13.6308280635
 20
0.9538759784
 10
-13.7121593247
 20
0.6296709213
 10
-13.8944982005
 20
0.3194560299
 10
-14.1717349181
 20
0.0336259199
 10
-14.5345798873
 20
-0.2182418728
  0
LWPOLYLINE
  5
20E
330
1EA
100
AcDbEntity
 67
     1
  8
0
  6
Continuous
 62
     7
370
    15
100
AcDbPolyline
 90
       14
 70
   128
 43
0.0
 10
-22.100622446
 20
4.1495415254
 10
-21.6643273587
 20
4.3590074675
 10
-21.169201438
 20
4.5190528179
 10
-20.63183526
 20
4.6243148104
 10
-20.0702347784
 20
4.671266348
 10
-19.5032179851
 20
4.6583341885
 10
-18.9497843604
 20
4.58595166
 10
-18.4284782427
 20
4.4565441411
 10
-17.9567674487
 20
4.274447792
 10
-17.5504579653
 20
4.0457642591
 10
-17.2231643257
 20
3.7781562226
 10
-16.9858534171
 20
3.4805906366
 10
-16.8464770038
 20
3.1630382669
 10
-16.8097052816
 20
2.8361395918
  0
LWPOLYLINE
  5
214
330
1EA
100
AcDbEntity
 67
     1
  8
0
  6
Continuous
 62
     7
370
    15
100
AcDbPolyline
 90
       18
 70
   128
 43
0.0
 10
-30.5859038202
 20
9.0479901963
 10
-30.1457956833
 20
9.2589664272
 10
-29.6460279136
 20
9.4196653271
 10
-29.1036195034
 20
9.5246144875
 10
-28.5370415203
 20
9.5702399908
 10
-27.9655880982
 20
9.5549881152
 10
-27.4087193978
 20
9.4793782449
 10
-26.885398915
 20
9.3459851835
 10
-26.413447701
 20
9.1593514716
 10
-26.0089374885
 20
8.9258326965
 10
-25.6856433875
 20
8.65338106
 10
-25.454574791
 20
8.3512745758
 10
-25.3236004628
 20
8.0298011178
 10
-25.2971805767
 20
7.6999080792
 10
-25.37621483
 20
7.3728295716
 10
-25.5580118062
 20
7.0597038614
 10
-25.8363806273
 20
6.7711940692
 10
-26.2018417769
 20
6.5171250497
  0
LWPOLYLINE
  5
221
330
1EA
100
AcDbEntity
 67
     1
  8
0
  6
Continuous
 62
     7
370
    15
100
AcDbPolyline
 90
       18
 70
   128
 43
0.0
 10
9.7191827074
 20
-14.2196409906
 10
10.1592908444
 20
-14.0086647597
 10
10.659058614
 20
-13.8479658599
 10
11.2014670242
 20
-13.7430166994
 10
11.7680450073
 20
-13.6973911961
 10
12.3394984294
 20
-13.7126430718
 10
12.8963671298
 20
-13.788252942
 10
13.4196876126
 20
-13.9216460034
 10
13.8916388266
 20
-14.1082797153
 10
14.2961490391
 20
-14.3417984904
 10
14.6194431401
 20
-14.6142501269
 10
14.8505117366
 20
-14.9163566112
 10
14.9814860648
 20
-15.2378300691
 10
15.007905951
 20
-15.5677231078
 10
14.9288716976
 20
-15.8948016153
 10
14.7470747214
 20
-16.2079273255
 10
14.4687059003
 20
-16.4964371178
 10
14.1032447508
 20
-16.7505061373
  0
LWPOLYLINE
  5
22C
330
1EA
100
AcDbEntity
 67
     1
  8
0
  6
Continuous
 62
     7
370
    15
100
AcDbPolyline
 90
        3
 70
   128
 43
0.0
 10
46.6490182436
 20
-25.6718794277
 10
46.6320212391
 20
-25.6548782115
 10
46.3862048458
 20
-25.4719330889
  0
LWPOLYLINE
  5
22E
330
1EA
100
AcDbEntity
 67
     1
  8
0
  6
Continuous
 62
     7
370
    15
100
AcDbPolyline
 90
        3
 70
   128
 43
0.0
 10
29.6784554952
 20
-25.6718794277
 10
29.6614584907
 20
-25.6548782115
 10
29.4156420974
 20
-25.4719330889
  0
LWPOLYLINE
  5
236
330
1EA
100
AcDbEntity
 67
     1
  8
0
  6
Continuous
 62
     7
370
    15
100
AcDbPolyline
 90
        3
 70
   128
 43
0.0
 10
46.6490182436
 20
-15.8749820859
 10
46.6320212391
 20
-15.8579808696
 10
46.3862048458
 20
-15.675035747
  0
LWPOLYLINE
  5
253
330
1EA
100
AcDbEntity
 67
     1
  8
0
  6
Continuous
 62
     7
370
    15
100
AcDbPolyline
 90
       14
 70
   128
 43
0.0
 10
-22.100622446
 20
3.2431812242
 10
-21.6643273587
 20
3.4526471663
 10
-21.169201438
 20
3.6126925167
 10
-20.63183526
 20
3.7179545092
 10
-20.0702347784
 20
3.7649060468
 10
-19.5032179851
 20
3.7519738874
 10
-18.9497843604
 20
3.6795913588
 10
-18.4284782427
 20
3.5501838399
 10
-17.9567674487
 20
3.3680874908
 10
-17.5504579653
 20
3.1394039579
 10
-17.2231643257
 20
2.8717959214
 10
-16.9858534171
 20
2.5742303354
 10
-16.8464770038
 20
2.2566779657
 10
-16.8097052816
 20
2.0257180112
  0
LWPOLYLINE
  5
264
330
1EA
100
AcDbEntity
 67
     1
  8
0
  6
Continuous
 62
     7
370
    15
100
AcDbPolyline
 90
        3
 70
   128
 43
0.0
 10
-43.8606497482
 20
16.781342387
 10
-43.8776467527
 20
16.7983436033
 10
-44.123463146
 20
16.9812887259
  0
LWPOLYLINE
  5
269
330
1EA
100
AcDbEntity
 67
     1
  8
0
  6
Continuous
 62
     7
370
    15
100
AcDbPolyline
 90
        3
 70
   128
 43
0.0
 10
-43.8606497482
 20
26.5782397289
 10
-43.8776467527
 20
26.5952409452
 10
-44.123463146
 20
26.7781860678
  0
LWPOLYLINE
  5
26B
330
1EA
100
AcDbEntity
 67
     1
  8
0
  6
Continuous
 62
     7
370
    15
100
AcDbPolyline
 90
        3
 70
   128
 43
0.0
 10
-26.8900869998
 20
26.5782397289
 10
-26.9070840043
 20
26.5952409451
 10
-27.1529003976
 20
26.7781860678
  0
LINE
  5
26C
330
1EA
100
AcDbEntity
 67
     1
  8
0
  6
Continuous
 62
     7
370
    15
100
AcDbLine
 10
59.7756492761
 20
-21.2266109074
 30
0.0
 11
59.7756492761
 21
-20.3202506062
 31
0.0
  0
LINE
  5
26D
330
1EA
100
AcDbEntity
 67
     1
  8
0
  6
Continuous
 62
     7
370
    15
100
AcDbLine
 10
10.7379725677
 20
-18.9323568161
 30
0.0
 11
10.7379725677
 21
-19.8387171173
 31
0.0
  0
LINE
  5
26E
330
1EA
100
AcDbEntity
 67
     1
  8
0
  6
Continuous
 62
     7
370
    15
100
AcDbLine
 10
2.2526911935
 20
-14.0339081452
 30
0.0
 11
2.2526911935
 21
-14.9402684464
 31
0.0
  0
LINE
  5
26F
330
1EA
100
AcDbEntity
 67
     1
  8
0
  6
Continuous
 62
     7
370
    15
100
AcDbLine
 10
-9.4145706961
 20
-7.2985412226
 30
0.0
 11
-9.4145706961
 21
-8.2049015238
 31
0.0
  0
LINE
  5
270
330
1EA
100
AcDbEntity
 67
     1
  8
0
  6
Continuous
 62
     7
370
    15
100
AcDbLine
 10
-17.8998520704
 20
-2.4000925517
 30
0.0
 11
-17.8998520704
 21
-3.3064528529
 31
0.0
  0
LINE
  5
271
330
1EA
100
AcDbEntity
 67
     1
  8
0
  6
Continuous
 62
     7
370
    15
100
AcDbLine
 10
-29.5671139599
 20
4.3352743708
 30
0.0
 11
-29.5671139599
 21
3.4289140697
 31
0.0
  0
LINE
  5
272
330
1EA
100
AcDbEntity
 67
     1
  8
0
  6
Continuous
 62
     7
370
    15
100
AcDbLine
 10
-59.7756492761
 20
22.1329712086
 30
0.0
 11
-59.7756492761
 21
21.2266109074
 31
0.0
  0
LINE
  5
273
330
1EA
100
AcDbEntity
 67
     1
  8
0
  6
Continuous
 62
     7
370
    15
100
AcDbLine
 10
35.0017856687
 20
-33.1786783674
 30
0.0
 11
35.0017856687
 21
-34.0850386686
 31
0.0
  0
LINE
  5
274
330
1EA
100
AcDbEntity
 67
     1
  8
0
  6
Continuous
 62
     7
370
    15
100
AcDbLine
 10
38.5373195747
 20
-33.1786783674
 30
0.0
 11
38.5373195747
 21
-34.0850386686
 31
0.0
  0
LINE
  5
275
330
1EA
100
AcDbEntity
 67
     1
  8
0
  6
Continuous
 62
     7
370
    15
100
AcDbLine
 10
1.2339013332
 20
-9.3211923197
 30
0.0
 11
-1.8384776311
 21
-11.0948389426
 31
0.0
  0
LINE
  5
276
330
1EA
100
AcDbEntity
 67
     1
  8
0
  6
Continuous
 62
     7
370
    15
100
AcDbLine
 10
-9.1216774773
 20
-7.7067452785
 30
0.0
 11
-3.2526911935
 21
-11.0948389426
 31
0.0
  0
LINE
  5
277
330
1EA
100
AcDbEntity
 67
     1
  8
0
  6
Continuous
 62
     7
370
    15
100
AcDbLine
 10
-9.1216774773
 20
-6.8903371667
 30
0.0
 11
-6.0492985131
 21
-5.1166905438
 31
0.0
  0
LINE
  5
278
330
1EA
100
AcDbEntity
 67
     1
  8
0
  6
Continuous
 62
     7
370
    15
100
AcDbLine
 10
-10.4333605564
 20
-2.5858253971
 30
0.0
 11
-13.5057395207
 21
-4.3594720201
 31
0.0
  0
LINE
  5
279
330
1EA
100
AcDbEntity
 67
     1
  8
0
  6
Continuous
 62
     7
370
    15
100
AcDbLine
 10
-17.6069588515
 20
-2.8082966076
 30
0.0
 11
-14.919953083
 21
-4.3594720201
 31
0.0
  0
LINE
  5
27A
330
1EA
100
AcDbEntity
 67
     1
  8
0
  6
Continuous
 62
     7
370
    15
100
AcDbLine
 10
-17.6069588515
 20
-1.9918884958
 30
0.0
 11
-14.5345798873
 21
-0.2182418728
 31
0.0
  0
LINE
  5
27B
330
1EA
100
AcDbEntity
 67
     1
  8
0
  6
Continuous
 62
     7
370
    15
100
AcDbLine
 10
-22.100622446
 20
4.1495415254
 30
0.0
 11
-25.1730014102
 21
2.3758949025
 31
0.0
  0
LINE
  5
27C
330
1EA
100
AcDbEntity
 67
     1
  8
0
  6
Continuous
 62
     7
370
    15
100
AcDbLine
 10
-29.2742207411
 20
3.9270703149
 30
0.0
 11
-26.5872149726
 21
2.3758949025
 31
0.0
  0
LINE
  5
27D
330
1EA
100
AcDbEntity
 67
     1
  8
0
  6
Continuous
 62
     7
370
    15
100
AcDbLine
 10
-29.2742207411
 20
4.7434784268
 30
0.0
 11
-26.2018417769
 21
6.5171250497
 31
0.0
  0
LINE
  5
27E
330
1EA
100
AcDbEntity
 67
     1
  8
0
  6
Continuous
 62
     7
370
    15
100
AcDbLine
 10
-30.5859038202
 20
9.0479901963
 30
0.0
 11
-33.6582827845
 21
7.2743435734
 31
0.0
  0
LINE
  5
27F
330
1EA
100
AcDbEntity
 67
     1
  8
0
  6
Continuous
 62
     7
370
    15
100
AcDbLine
 10
-59.0434162291
 20
21.1124610688
 30
0.0
 11
-35.0724963469
 21
7.2743435734
 31
0.0
  0
LINE
  5
280
330
1EA
100
AcDbEntity
 67
     1
  8
0
  6
Continuous
 62
     7
370
    15
100
AcDbLine
 10
-38.5373195747
 20
34.9913989698
 30
0.0
 11
-59.0434162291
 21
23.1534813484
 31
0.0
  0
LINE
  5
281
330
1EA
100
AcDbEntity
 67
     1
  8
0
  6
Continuous
 62
     7
370
    15
100
AcDbLine
 10
59.0434162291
 20
-19.2997404664
 30
0.0
 11
-35.0017856687
 21
34.9913989698
 31
0.0
  0
LINE
  5
282
330
1EA
100
AcDbEntity
 67
     1
  8
0
  6
Continuous
 62
     7
370
    15
100
AcDbLine
 10
38.5373195747
 20
-33.1786783674
 30
0.0
 11
59.0434162291
 21
-21.340760746
 31
0.0
  0
LINE
  5
283
330
1EA
100
AcDbEntity
 67
     1
  8
0
  6
Continuous
 62
     7
370
    15
100
AcDbLine
 10
11.0308657865
 20
-19.340560872
 30
0.0
 11
35.0017856687
 21
-33.1786783674
 31
0.0
  0
LINE
  5
284
330
1EA
100
AcDbEntity
 67
     1
  8
0
  6
Continuous
 62
     7
370
    15
100
AcDbLine
 10
11.0308657865
 20
-18.5241527602
 30
0.0
 11
14.1032447508
 21
-16.7505061373
 31
0.0
  0
LINE
  5
285
330
1EA
100
AcDbEntity
 67
     1
  8
0
  6
Continuous
 62
     7
370
    15
100
AcDbLine
 10
9.7191827074
 20
-14.2196409906
 30
0.0
 11
6.6468037432
 21
-15.9932876135
 31
0.0
  0
LINE
  5
286
330
1EA
100
AcDbEntity
 67
     1
  8
0
  6
Continuous
 62
     7
370
    15
100
AcDbLine
 10
2.5455844123
 20
-14.4421122011
 30
0.0
 11
5.2325901808
 21
-15.9932876135
 31
0.0
  0
LINE
  5
287
330
1EA
100
AcDbEntity
 67
     1
  8
0
  6
Continuous
 62
     7
370
    15
100
AcDbLine
 10
2.5455844123
 20
-13.6257040893
 30
0.0
 11
5.6179633765
 21
-11.8520574663
 31
0.0
  0
LINE
  5
288
330
1EA
100
AcDbEntity
 67
     1
  8
0
  6
Continuous
 62
     7
370
    15
100
AcDbLine
 10
59.0434162291
 20
-21.340760746
 30
0.0
 11
59.0434162291
 21
-22.2471210472
 31
0.0
  0
LINE
  5
289
330
1EA
100
AcDbEntity
 67
     1
  8
0
  6
Continuous
 62
     7
370
    15
100
AcDbLine
 10
38.5373195747
 20
-34.0850386686
 30
0.0
 11
59.0434162291
 21
-22.2471210472
 31
0.0
  0
LINE
  5
28A
330
1EA
100
AcDbEntity
 67
     1
  8
0
  6
Continuous
 62
     7
370
    15
100
AcDbLine
 10
11.0308657865
 20
-19.340560872
 30
0.0
 11
11.0308657865
 21
-20.2469211732
 31
0.0
  0
LINE
  5
28B
330
1EA
100
AcDbEntity
 67
     1
  8
0
  6
Continuous
 62
     7
370
    15
100
AcDbLine
 10
11.0308657865
 20
-20.2469211732
 30
0.0
 11
35.0017856687
 21
-34.0850386686
 31
0.0
  0
LINE
  5
28C
330
1EA
100
AcDbEntity
 67
     1
  8
0
  6
Continuous
 62
     7
370
    15
100
AcDbLine
 10
9.7191827074
 20
-15.1260012918
 30
0.0
 11
9.7191827074
 21
-14.2196409906
 31
0.0
  0
LINE
  5
28D
330
1EA
100
AcDbEntity
 67
     1
  8
0
  6
Continuous
 62
     7
370
    15
100
AcDbLine
 10
5.2325901808
 20
-16.8996479147
 30
0.0
 11
5.2325901808
 21
-15.9932876135
 31
0.0
  0
LINE
  5
28E
330
1EA
100
AcDbEntity
 67
     1
  8
0
  6
Continuous
 62
     7
370
    15
100
AcDbLine
 10
6.6468037432
 20
-15.9932876135
 30
0.0
 11
6.6468037432
 21
-16.8996479147
 31
0.0
  0
LINE
  5
28F
330
1EA
100
AcDbEntity
 67
     1
  8
0
  6
Continuous
 62
     7
370
    15
100
AcDbLine
 10
9.7191827074
 20
-15.1260012918
 30
0.0
 11
6.6468037432
 21
-16.8996479147
 31
0.0
  0
LINE
  5
290
330
1EA
100
AcDbEntity
 67
     1
  8
0
  6
Continuous
 62
     7
370
    15
100
AcDbLine
 10
2.5455844123
 20
-14.4421122011
 30
0.0
 11
2.5455844123
 21
-15.3484725023
 31
0.0
  0
LINE
  5
291
330
1EA
100
AcDbEntity
 67
     1
  8
0
  6
Continuous
 62
     7
370
    15
100
AcDbLine
 10
2.5455844123
 20
-15.3484725023
 30
0.0
 11
5.2325901808
 21
-16.8996479147
 31
0.0
  0
LINE
  5
292
330
1EA
100
AcDbEntity
 67
     1
  8
0
  6
Continuous
 62
     7
370
    15
100
AcDbLine
 10
1.2339013332
 20
-10.2275526209
 30
0.0
 11
1.2339013332
 21
-9.3211923197
 31
0.0
  0
LINE
  5
293
330
1EA
100
AcDbEntity
 67
     1
  8
0
  6
Continuous
 62
     7
370
    15
100
AcDbLine
 10
-3.2526911935
 20
-12.0011992438
 30
0.0
 11
-3.2526911935
 21
-11.0948389426
 31
0.0
  0
LINE
  5
294
330
1EA
100
AcDbEntity
 67
     1
  8
0
  6
Continuous
 62
     7
370
    15
100
AcDbLine
 10
-1.8384776311
 20
-11.0948389426
 30
0.0
 11
-1.8384776311
 21
-12.0011992438
 31
0.0
  0
LINE
  5
295
330
1EA
100
AcDbEntity
 67
     1
  8
0
  6
Continuous
 62
     7
370
    15
100
AcDbLine
 10
1.2339013332
 20
-10.2275526209
 30
0.0
 11
-1.8384776311
 21
-12.0011992438
 31
0.0
  0
LINE
  5
296
330
1EA
100
AcDbEntity
 67
     1
  8
0
  6
Continuous
 62
     7
370
    15
100
AcDbLine
 10
-9.1216774773
 20
-7.7067452785
 30
0.0
 11
-9.1216774773
 21
-8.6131055797
 31
0.0
  0
LINE
  5
297
330
1EA
100
AcDbEntity
 67
     1
  8
0
  6
Continuous
 62
     7
370
    15
100
AcDbLine
 10
-9.1216774773
 20
-8.6131055797
 30
0.0
 11
-3.2526911935
 21
-12.0011992438
 31
0.0
  0
LINE
  5
298
330
1EA
100
AcDbEntity
 67
     1
  8
0
  6
Continuous
 62
     7
370
    15
100
AcDbLine
 10
-10.4333605564
 20
-3.4921856983
 30
0.0
 11
-10.4333605564
 21
-2.5858253971
 31
0.0
  0
LINE
  5
299
330
1EA
100
AcDbEntity
 67
     1
  8
0
  6
Continuous
 62
     7
370
    15
100
AcDbLine
 10
-14.919953083
 20
-5.2658323213
 30
0.0
 11
-14.919953083
 21
-4.3594720201
 31
0.0
  0
LINE
  5
29A
330
1EA
100
AcDbEntity
 67
     1
  8
0
  6
Continuous
 62
     7
370
    15
100
AcDbLine
 10
-13.5057395207
 20
-4.3594720201
 30
0.0
 11
-13.5057395207
 21
-5.2658323213
 31
0.0
  0
LINE
  5
29B
330
1EA
100
AcDbEntity
 67
     1
  8
0
  6
Continuous
 62
     7
370
    15
100
AcDbLine
 10
-10.4333605564
 20
-3.4921856983
 30
0.0
 11
-13.5057395207
 21
-5.2658323213
 31
0.0
  0
LINE
  5
29C
330
1EA
100
AcDbEntity
 67
     1
  8
0
  6
Continuous
 62
     7
370
    15
100
AcDbLine
 10
-17.6069588515
 20
-2.8082966076
 30
0.0
 11
-17.6069588515
 21
-3.7146569088
 31
0.0
  0
LINE
  5
29D
330
1EA
100
AcDbEntity
 67
     1
  8
0
  6
Continuous
 62
     7
370
    15
100
AcDbLine
 10
-17.6069588515
 20
-3.7146569088
 30
0.0
 11
-14.919953083
 21
-5.2658323213
 31
0.0
  0
LINE
  5
29E
330
1EA
100
AcDbEntity
 67
     1
  8
0
  6
Continuous
 62
     7
370
    15
100
AcDbLine
 10
-16.8097052816
 20
2.8361395918
 30
0.0
 11
-16.8097052816
 21
1.9297792906
 31
0.0
  0
LINE
  5
29F
330
1EA
100
AcDbEntity
 67
     1
  8
0
  6
Continuous
 62
     7
370
    15
100
AcDbLine
 10
-22.100622446
 20
3.2431812242
 30
0.0
 11
-22.100622446
 21
4.1495415254
 31
0.0
  0
LINE
  5
2A0
330
1EA
100
AcDbEntity
 67
     1
  8
0
  6
Continuous
 62
     7
370
    15
100
AcDbLine
 10
-26.5872149726
 20
1.4695346013
 30
0.0
 11
-26.5872149726
 21
2.3758949025
 31
0.0
  0
LINE
  5
2A1
330
1EA
100
AcDbEntity
 67
     1
  8
0
  6
Continuous
 62
     7
370
    15
100
AcDbLine
 10
-25.1730014102
 20
2.3758949025
 30
0.0
 11
-25.1730014102
 21
1.4695346013
 31
0.0
  0
LINE
  5
2A2
330
1EA
100
AcDbEntity
 67
     1
  8
0
  6
Continuous
 62
     7
370
    15
100
AcDbLine
 10
-22.100622446
 20
3.2431812242
 30
0.0
 11
-25.1730014102
 21
1.4695346013
 31
0.0
  0
LINE
  5
2A3
330
1EA
100
AcDbEntity
 67
     1
  8
0
  6
Continuous
 62
     7
370
    15
100
AcDbLine
 10
-29.2742207411
 20
3.9270703149
 30
0.0
 11
-29.2742207411
 21
3.0207100137
 31
0.0
  0
LINE
  5
2A4
330
1EA
100
AcDbEntity
 67
     1
  8
0
  6
Continuous
 62
     7
370
    15
100
AcDbLine
 10
-29.2742207411
 20
3.0207100137
 30
0.0
 11
-26.5872149726
 21
1.4695346013
 31
0.0
  0
LINE
  5
2A5
330
1EA
100
AcDbEntity
 67
     1
  8
0
  6
Continuous
 62
     7
370
    15
100
AcDbLine
 10
-30.5859038202
 20
8.1416298952
 30
0.0
 11
-30.5859038202
 21
9.0479901963
 31
0.0
  0
LINE
  5
2A6
330
1EA
100
AcDbEntity
 67
     1
  8
0
  6
Continuous
 62
     7
370
    15
100
AcDbLine
 10
-35.0724963469
 20
6.3679832722
 30
0.0
 11
-35.0724963469
 21
7.2743435734
 31
0.0
  0
LINE
  5
2A7
330
1EA
100
AcDbEntity
 67
     1
  8
0
  6
Continuous
 62
     7
370
    15
100
AcDbLine
 10
-33.6582827845
 20
7.2743435734
 30
0.0
 11
-33.6582827845
 21
6.3679832722
 31
0.0
  0
LINE
  5
2A8
330
1EA
100
AcDbEntity
 67
     1
  8
0
  6
Continuous
 62
     7
370
    15
100
AcDbLine
 10
-30.5859038202
 20
8.1416298952
 30
0.0
 11
-33.6582827845
 21
6.3679832722
 31
0.0
  0
LINE
  5
2A9
330
1EA
100
AcDbEntity
 67
     1
  8
0
  6
Continuous
 62
     7
370
    15
100
AcDbLine
 10
-59.0434162291
 20
21.1124610688
 30
0.0
 11
-59.0434162291
 21
20.2061007676
 31
0.0
  0
LINE
  5
2AA
330
1EA
100
AcDbEntity
 67
     1
  8
0
  6
Continuous
 62
     7
370
    15
100
AcDbLine
 10
-59.0434162291
 20
20.2061007676
 30
0.0
 11
-35.0724963469
 21
6.3679832722
 31
0.0
  0
ARC
  5
2AB
330
1EA
100
AcDbEntity
 67
     1
  8
0
  6
Continuous
 62
     7
370
    15
100
AcDbCircle
 10
36.7695526217
 20
-29.766900655
 30
0.0
 40
3.842554769779331
100
AcDbArc
 50
242.6096722366
 51
297.3903277634
  0
ARC
  5
2AC
330
1EA
100
AcDbEntity
 67
     1
  8
0
  6
Continuous
 62
     7
370
    15
100
AcDbCircle
 10
36.7695526217
 20
-30.6732609562
 30
0.0
 40
3.842554769779331
100
AcDbArc
 50
242.6096722366
 51
297.3903277634
  0
ARC
  5
2AD
330
1EA
100
AcDbEntity
 67
     1
  8
0
  6
Continuous
 62
     7
370
    15
100
AcDbCircle
 10
-2.5455844123
 20
-9.7301278576
 30
0.0
 40
1.537021907911733
100
AcDbArc
 50
242.6096722366
 51
297.3903277634
  0
ARC
  5
2AE
330
1EA
100
AcDbEntity
 67
     1
  8
0
  6
Continuous
 62
     7
370
    15
100
AcDbCircle
 10
-8.9667504505
 20
-7.2985412226
 30
0.0
 40
0.4366153168342719
100
AcDbArc
 50
110.7834207995
 51
249.2165792005
  0
ARC
  5
2AF
330
1EA
100
AcDbEntity
 67
     1
  8
0
  6
Continuous
 62
     7
370
    15
100
AcDbCircle
 10
-14.2128463018
 20
-2.9947609351
 30
0.0
 40
1.537021907911726
100
AcDbArc
 50
242.6096722366
 51
297.3903277634
  0
ARC
  5
2B0
330
1EA
100
AcDbEntity
 67
     1
  8
0
  6
Continuous
 62
     7
370
    15
100
AcDbCircle
 10
-17.4520318247
 20
-2.4000925517
 30
0.0
 40
0.4366153168342705
100
AcDbArc
 50
110.7834207995
 51
249.2165792005
  0
ARC
  5
2B1
330
1EA
100
AcDbEntity
 67
     1
  8
0
  6
Continuous
 62
     7
370
    15
100
AcDbCircle
 10
-25.8801081914
 20
3.7406059874
 30
0.0
 40
1.537021907911732
100
AcDbArc
 50
242.6096722366
 51
297.3903277634
  0
ARC
  5
2B2
330
1EA
100
AcDbEntity
 67
     1
  8
0
  6
Continuous
 62
     7
370
    15
100
AcDbCircle
 10
-29.1192937143
 20
4.3352743708
 30
0.0
 40
0.4366153168342701
100
AcDbArc
 50
110.7834207995
 51
249.2165792005
  0
ARC
  5
2B3
330
1EA
100
AcDbEntity
 67
     1
  8
0
  6
Continuous
 62
     7
370
    15
100
AcDbCircle
 10
-34.3653895657
 20
8.6390546584
 30
0.0
 40
1.537021907911742
100
AcDbArc
 50
242.6096722366
 51
297.3903277634
  0
ARC
  5
2B4
330
1EA
100
AcDbEntity
 67
     1
  8
0
  6
Continuous
 62
     7
370
    15
100
AcDbCircle
 10
-58.6560986621
 20
22.1329712086
 30
0.0
 40
1.091538292085671
100
AcDbArc
 50
110.7834207995
 51
249.2165792005
  0
ARC
  5
2B5
330
1EA
100
AcDbEntity
 67
     1
  8
0
  6
Continuous
 62
     7
370
    15
100
AcDbCircle
 10
-36.7695526217
 20
31.5796212574
 30
0.0
 40
3.842554769779406
100
AcDbArc
 50
62.6096722366
 51
117.3903277634
  0
ARC
  5
2B6
330
1EA
100
AcDbEntity
 67
     1
  8
0
  6
Continuous
 62
     7
370
    15
100
AcDbCircle
 10
58.6560986621
 20
-20.3202506062
 30
0.0
 40
1.091538292085671
100
AcDbArc
 50
290.7834207995
 51
69.2165792005
  0
ARC
  5
2B7
330
1EA
100
AcDbEntity
 67
     1
  8
0
  6
Continuous
 62
     7
370
    15
100
AcDbCircle
 10
11.1857928133
 20
-18.9323568161
 30
0.0
 40
0.4366153168342719
100
AcDbArc
 50
110.7834207995
 51
249.2165792005
  0
ARC
  5
2B8
330
1EA
100
AcDbEntity
 67
     1
  8
0
  6
Continuous
 62
     7
370
    15
100
AcDbCircle
 10
5.939696962
 20
-14.6285765286
 30
0.0
 40
1.537021907911747
100
AcDbArc
 50
242.6096722366
 51
297.3903277634
  0
ARC
  5
2B9
330
1EA
100
AcDbEntity
 67
     1
  8
0
  6
Continuous
 62
     7
370
    15
100
AcDbCircle
 10
2.7005114391
 20
-14.0339081452
 30
0.0
 40
0.4366153168342735
100
AcDbArc
 50
110.7834207995
 51
249.2165792005
  0
ARC
  5
2BA
330
1EA
100
AcDbEntity
 67
     1
  8
0
  6
Continuous
 62
     7
370
    15
100
AcDbCircle
 10
45.2733478649
 20
-27.4655776129
 30
0.0
 40
2.28321465228302
100
AcDbArc
 50
60.8296442144
 51
128.2236021493
  0
ARC
  5
2BB
330
1EA
100
AcDbEntity
 67
     1
  8
0
  6
Continuous
 62
     7
370
    15
100
AcDbCircle
 10
28.3027851164
 20
-27.4655776129
 30
0.0
 40
2.283214652266641
100
AcDbArc
 50
60.8296442145
 51
128.2236021492
  0
ARC
  5
2BC
330
1EA
100
AcDbEntity
 67
     1
  8
0
  6
Continuous
 62
     7
370
    15
100
AcDbCircle
 10
36.810001225
 20
-23.0287504273
 30
0.0
 40
3.381178670176828
100
AcDbArc
 50
57.8744821099
 51
138.1623848847
  0
ARC
  5
2BD
330
1EA
100
AcDbEntity
 67
     1
  8
0
  6
Continuous
 62
     7
370
    15
100
AcDbCircle
 10
37.8642622356
 20
-21.5892468303
 30
0.0
 40
1.606509061967076
100
AcDbArc
 50
30.5186735936
 51
62.4209758763
  0
ARC
  5
2BE
330
1EA
100
AcDbEntity
 67
     1
  8
0
  6
Continuous
 62
     7
370
    15
100
AcDbCircle
 10
58.5245066199
 20
-21.1018449651
 30
0.0
 40
1.257348196234474
100
AcDbArc
 50
294.3746582936
 51
354.3052007488
  0
ARC
  5
2BF
330
1EA
100
AcDbEntity
 67
     1
  8
0
  6
Continuous
 62
     7
370
    15
100
AcDbCircle
 10
11.2384296302
 20
-19.7888107404
 30
0.0
 40
0.5029392784937526
100
AcDbArc
 50
185.6947992512
 51
245.6253417064
  0
ARC
  5
2C0
330
1EA
100
AcDbEntity
 67
     1
  8
0
  6
Continuous
 62
     7
370
    15
100
AcDbCircle
 10
11.8432378511
 20
-18.545029445
 30
0.0
 40
4.02509177114323
100
AcDbArc
 50
40.3632550692
 51
121.8504226421
  0
ARC
  5
2C1
330
1EA
100
AcDbEntity
 67
     1
  8
0
  6
Continuous
 62
     7
370
    15
100
AcDbCircle
 10
45.2733478649
 20
-17.668680271
 30
0.0
 40
2.28321465226674
100
AcDbArc
 50
60.8296442145
 51
128.2236021491
  0
ARC
  5
2C2
330
1EA
100
AcDbEntity
 67
     1
  8
0
  6
Continuous
 62
     7
370
    15
100
AcDbCircle
 10
5.939696962
 20
-15.5349368298
 30
0.0
 40
1.537021907911727
100
AcDbArc
 50
242.6096722366
 51
297.3903277634
  0
ARC
  5
2C3
330
1EA
100
AcDbEntity
 67
     1
  8
0
  6
Continuous
 62
     7
370
    15
100
AcDbCircle
 10
2.7531482559
 20
-14.8903620695
 30
0.0
 40
0.5029392784937863
100
AcDbArc
 50
185.6947992512
 51
245.6253417064
  0
ARC
  5
2C4
330
1EA
100
AcDbEntity
 67
     1
  8
0
  6
Continuous
 62
     7
370
    15
100
AcDbCircle
 10
3.3579564769
 20
-13.6465807741
 30
0.0
 40
4.025091771143292
100
AcDbArc
 50
40.3632550692
 51
121.8504226421
  0
ARC
  5
2C5
330
1EA
100
AcDbEntity
 67
     1
  8
0
  6
Continuous
 62
     7
370
    15
100
AcDbCircle
 10
-2.5455844123
 20
-10.6364881588
 30
0.0
 40
1.537021907911695
100
AcDbArc
 50
242.6096722366
 51
297.3903277634
  0
ARC
  5
2C6
330
1EA
100
AcDbEntity
 67
     1
  8
0
  6
Continuous
 62
     7
370
    15
100
AcDbCircle
 10
-8.9141136336
 20
-8.1549951469
 30
0.0
 40
0.5029392784937661
100
AcDbArc
 50
185.6947992512
 51
245.6253417064
  0
ARC
  5
2C7
330
1EA
100
AcDbEntity
 67
     1
  8
0
  6
Continuous
 62
     7
370
    15
100
AcDbCircle
 10
-8.3093054127
 20
-6.9112138516
 30
0.0
 40
4.02509177114329
100
AcDbArc
 50
40.3632550692
 51
121.8504226421
  0
ARC
  5
2C8
330
1EA
100
AcDbEntity
 67
     1
  8
0
  6
Continuous
 62
     7
370
    15
100
AcDbCircle
 10
-14.2128463018
 20
-3.9011212363
 30
0.0
 40
1.537021907911726
100
AcDbArc
 50
242.6096722366
 51
297.3903277634
  0
ARC
  5
2C9
330
1EA
100
AcDbEntity
 67
     1
  8
0
  6
Continuous
 62
     7
370
    15
100
AcDbCircle
 10
-17.3993950079
 20
-3.256546476
 30
0.0
 40
0.5029392784937714
100
AcDbArc
 50
185.6947992512
 51
245.6253417064
  0
ARC
  5
2CA
330
1EA
100
AcDbEntity
 67
     1
  8
0
  6
Continuous
 62
     7
370
    15
100
AcDbCircle
 10
-16.3702108674
 20
-1.2796968884
 30
0.0
 40
3.23942783281375
100
AcDbArc
 50
35.3385709112
 51
97.7973866553
  0
ARC
  5
2CB
330
1EA
100
AcDbEntity
 67
     1
  8
0
  6
Continuous
 62
     7
370
    15
100
AcDbCircle
 10
-25.8801081914
 20
2.8342456862
 30
0.0
 40
1.537021907911733
100
AcDbArc
 50
242.6096722366
 51
297.3903277634
  0
ARC
  5
2CC
330
1EA
100
AcDbEntity
 67
     1
  8
0
  6
Continuous
 62
     7
370
    15
100
AcDbCircle
 10
-29.0666568974
 20
3.4788204466
 30
0.0
 40
0.5029392784937694
100
AcDbArc
 50
185.6947992512
 51
245.6253417064
  0
ARC
  5
2CD
330
1EA
100
AcDbEntity
 67
     1
  8
0
  6
Continuous
 62
     7
370
    15
100
AcDbCircle
 10
-28.4618486765
 20
4.7226017419
 30
0.0
 40
4.0250917711438
100
AcDbArc
 50
40.3632550692
 51
121.8504226421
  0
ARC
  5
2CE
330
1EA
100
AcDbEntity
 67
     1
  8
0
  6
Continuous
 62
     7
370
    15
100
AcDbCircle
 10
-34.3653895657
 20
7.7326943572
 30
0.0
 40
1.537021907911743
100
AcDbArc
 50
242.6096722366
 51
297.3903277634
  0
ARC
  5
2CF
330
1EA
100
AcDbEntity
 67
     1
  8
0
  6
Continuous
 62
     7
370
    15
100
AcDbCircle
 10
-45.236320127
 20
14.9876442019
 30
0.0
 40
2.283214652266461
100
AcDbArc
 50
60.8296442145
 51
128.2236021491
  0
ARC
  5
2D0
330
1EA
100
AcDbEntity
 67
     1
  8
0
  6
Continuous
 62
     7
370
    15
100
AcDbCircle
 10
-36.7291040185
 20
19.4244713875
 30
0.0
 40
3.381178670193563
100
AcDbArc
 50
57.8744821099
 51
138.1623848848
  0
ARC
  5
2D1
330
1EA
100
AcDbEntity
 67
     1
  8
0
  6
Continuous
 62
     7
370
    15
100
AcDbCircle
 10
-35.6748430079
 20
20.8639749845
 30
0.0
 40
1.606509061974186
100
AcDbArc
 50
30.5186735934
 51
62.4209758763
  0
ARC
  5
2D2
330
1EA
100
AcDbEntity
 67
     1
  8
0
  6
Continuous
 62
     7
370
    15
100
AcDbCircle
 10
-58.5245066199
 20
21.3513768496
 30
0.0
 40
1.257348196234447
100
AcDbArc
 50
185.6947992512
 51
245.6253417064
  0
ARC
  5
2D3
330
1EA
100
AcDbEntity
 67
     1
  8
0
  6
Continuous
 62
     7
370
    15
100
AcDbCircle
 10
-45.236320127
 20
24.7845415437
 30
0.0
 40
2.283214652294944
100
AcDbArc
 50
60.8296442144
 51
128.2236021495
  0
ARC
  5
2D4
330
1EA
100
AcDbEntity
 67
     1
  8
0
  6
Continuous
 62
     7
370
    15
100
AcDbCircle
 10
-28.2657573785
 20
24.7845415437
 30
0.0
 40
2.283214652266434
100
AcDbArc
 50
60.8296442145
 51
128.2236021491
  0
VIEWPORT
  5
494
330
1EA
100
AcDbEntity
 67
     1
  8
0
100
AcDbViewport
 10
0.0
 20
0.0
 30
0.0
 40
243.84
 41
204.216
 68
     1
 69
     1
 12
0.0
 22
0.0
 13
0.0
 23
0.0
 14
10.0
 24
10.0
 15
10.0
 25
10.0
 16
0.0
 26
0.0
 36
1.0
 17
0.0
 27
0.0
 37
0.0
 42
50.0
 43
0.0
 44
0.0
 45
117.8865
 50
0.0
 51
0.0
 72
   100
 90
   557152
  1

281
     0
 71
     1
 74
     0
110
0.0
120
0.0
130
0.0
111
1.0
121
0.0
131
0.0
112
0.0
122
1.0
132
0.0
 79
     0
146
0.0
  0
ENDSEC
  0
SECTION
  2
OBJECTS
  0
DICTIONARY
  5
C
330
0
100
AcDbDictionary
281
     1
  3
ACAD_GROUP
350
D
  3
ACAD_LAYOUT
350
1A
  3
ACAD_MLINESTYLE
350
17
  3
ACAD_PLOTSETTINGS
350
19
  3
ACAD_PLOTSTYLENAME
350
E
  0
DICTIONARY
  5
D
102
{ACAD_REACTORS
330
C
102
}
330
C
100
AcDbDictionary
281
     1
  0
DICTIONARY
  5
1A
102
{ACAD_REACTORS
330
C
102
}
330
C
100
AcDbDictionary
281
     1
  3
_Back
350
155
  3
_Bottom
350
191
  3
_Dimetric
350
3B6
  3
_Front
350
26
  3
_Isometric
350
1EB
  3
_Left
350
169
  3
_Right
350
17D
  3
_Top
350
1E
  3
_Trimetric
350
2D6
  3
Model
350
22
  0
DICTIONARY
  5
17
102
{ACAD_REACTORS
330
C
102
}
330
C
100
AcDbDictionary
281
     1
  3
Standard
350
18
  0
DICTIONARY
  5
19
102
{ACAD_REACTORS
330
C
102
}
330
C
100
AcDbDictionary
281
     1
  0
ACDBDICTIONARYWDFLT
  5
E
102
{ACAD_REACTORS
330
C
102
}
330
C
100
AcDbDictionary
281
     1
  3
Normal
350
F
100
AcDbDictionaryWithDefault
340
F
  0
LAYOUT
  5
155
102
{ACAD_REACTORS
330
1A
102
}
330
1A
100
AcDbPlotSettings
  1

  2
none_device
  4

  6

 40
0.0
 41
0.0
 42
0.0
 43
0.0
 44
0.0
 45
0.0
 46
0.0
 47
0.0
 48
0.0
 49
0.0
140
0.0
141
0.0
142
1.0
143
1.0
 70
   688
 72
     0
 73
     0
 74
     5
  7

 75
    16
147
1.0
148
0.0
149
0.0
100
AcDbLayout
  1
_Back
 70
     1
 71
     3
 10
0.0
 20
0.0
 11
0.0
 21
0.0
 12
0.0
 22
0.0
 32
0.0
 14
0.0
 24
0.0
 34
0.0
 15
0.0
 25
0.0
 35
0.0
146
0.0
 13
0.0
 23
0.0
 33
0.0
 16
1.0
 26
0.0
 36
0.0
 17
0.0
 27
1.0
 37
0.0
 76
     0
330
154
331
490
  0
LAYOUT
  5
191
102
{ACAD_REACTORS
330
1A
102
}
330
1A
100
AcDbPlotSettings
  1

  2
none_device
  4

  6

 40
0.0
 41
0.0
 42
0.0
 43
0.0
 44
0.0
 45
0.0
 46
0.0
 47
0.0
 48
0.0
 49
0.0
140
0.0
141
0.0
142
1.0
143
1.0
 70
   688
 72
     0
 73
     0
 74
     5
  7

 75
    16
147
1.0
148
0.0
149
0.0
100
AcDbLayout
  1
_Bottom
 70
     1
 71
     6
 10
0.0
 20
0.0
 11
0.0
 21
0.0
 12
0.0
 22
0.0
 32
0.0
 14
0.0
 24
0.0
 34
0.0
 15
0.0
 25
0.0
 35
0.0
146
0.0
 13
0.0
 23
0.0
 33
0.0
 16
1.0
 26
0.0
 36
0.0
 17
0.0
 27
1.0
 37
0.0
 76
     0
330
190
331
493
  0
LAYOUT
  5
3B6
102
{ACAD_REACTORS
330
1A
102
}
330
1A
100
AcDbPlotSettings
  1

  2
none_device
  4

  6

 40
0.0
 41
0.0
 42
0.0
 43
0.0
 44
0.0
 45
0.0
 46
0.0
 47
0.0
 48
0.0
 49
0.0
140
0.0
141
0.0
142
1.0
143
1.0
 70
   688
 72
     0
 73
     0
 74
     5
  7

 75
    16
147
1.0
148
0.0
149
0.0
100
AcDbLayout
  1
_Dimetric
 70
     1
 71
     9
 10
0.0
 20
0.0
 11
0.0
 21
0.0
 12
0.0
 22
0.0
 32
0.0
 14
0.0
 24
0.0
 34
0.0
 15
0.0
 25
0.0
 35
0.0
146
0.0
 13
0.0
 23
0.0
 33
0.0
 16
1.0
 26
0.0
 36
0.0
 17
0.0
 27
1.0
 37
0.0
 76
     0
330
3B5
331
496
  0
LAYOUT
  5
26
102
{ACAD_REACTORS
330
1A
102
}
330
1A
100
AcDbPlotSettings
  1

  2
none_device
  4

  6

 40
0.0
 41
0.0
 42
0.0
 43
0.0
 44
0.0
 45
0.0
 46
0.0
 47
0.0
 48
0.0
 49
0.0
140
0.0
141
0.0
142
1.0
143
1.0
 70
   688
 72
     0
 73
     0
 74
     5
  7

 75
    16
147
1.0
148
0.0
149
0.0
100
AcDbLayout
  1
_Front
 70
     1
 71
     2
 10
0.0
 20
0.0
 11
0.0
 21
0.0
 12
0.0
 22
0.0
 32
0.0
 14
0.0
 24
0.0
 34
0.0
 15
0.0
 25
0.0
 35
0.0
146
0.0
 13
0.0
 23
0.0
 33
0.0
 16
1.0
 26
0.0
 36
0.0
 17
0.0
 27
1.0
 37
0.0
 76
     0
330
23
331
48F
  0
LAYOUT
  5
1EB
102
{ACAD_REACTORS
330
1A
102
}
330
1A
100
AcDbPlotSettings
  1

  2
none_device
  4
ANSI_A_(11.00_x_8.50_Inches)
  6

 40
6.35
 41
19.05
 42
6.35000508
 43
19.05000254
 44
279.4
 45
215.9
 46
133.34999746
 47
88.89999873
 48
0.0
 49
0.0
140
0.0
141
0.0
142
0.0789130435
143
1.0
 70
  1696
 72
     0
 73
     0
 74
     5
  7

 75
    16
147
1.0
148
0.0
149
0.0
100
AcDbLayout
  1
_Isometric
 70
     1
 71
     7
 10
0.0
 20
0.0
 11
0.0
 21
0.0
 12
0.0
 22
0.0
 32
0.0
 14
-69.0
 24
-17.0
 34
0.0
 15
69.0
 25
17.0
 35
0.0
146
0.0
 13
0.0
 23
0.0
 33
0.0
 16
1.0
 26
0.0
 36
0.0
 17
0.0
 27
1.0
 37
0.0
 76
     0
330
1EA
331
494
  0
LAYOUT
  5
169
102
{ACAD_REACTORS
330
1A
102
}
330
1A
100
AcDbPlotSettings
  1

  2
none_device
  4

  6

 40
0.0
 41
0.0
 42
0.0
 43
0.0
 44
0.0
 45
0.0
 46
0.0
 47
0.0
 48
0.0
 49
0.0
140
0.0
141
0.0
142
1.0
143
1.0
 70
   688
 72
     0
 73
     0
 74
     5
  7

 75
    16
147
1.0
148
0.0
149
0.0
100
AcDbLayout
  1
_Left
 70
     1
 71
     4
 10
0.0
 20
0.0
 11
0.0
 21
0.0
 12
0.0
 22
0.0
 32
0.0
 14
0.0
 24
0.0
 34
0.0
 15
0.0
 25
0.0
 35
0.0
146
0.0
 13
0.0
 23
0.0
 33
0.0
 16
1.0
 26
0.0
 36
0.0
 17
0.0
 27
1.0
 37
0.0
 76
     0
330
168
331
491
  0
LAYOUT
  5
17D
102
{ACAD_REACTORS
330
1A
102
}
330
1A
100
AcDbPlotSettings
  1

  2
none_device
  4

  6

 40
0.0
 41
0.0
 42
0.0
 43
0.0
 44
0.0
 45
0.0
 46
0.0
 47
0.0
 48
0.0
 49
0.0
140
0.0
141
0.0
142
1.0
143
1.0
 70
   688
 72
     0
 73
     0
 74
     5
  7

 75
    16
147
1.0
148
0.0
149
0.0
100
AcDbLayout
  1
_Right
 70
     1
 71
     5
 10
0.0
 20
0.0
 11
0.0
 21
0.0
 12
0.0
 22
0.0
 32
0.0
 14
0.0
 24
0.0
 34
0.0
 15
0.0
 25
0.0
 35
0.0
146
0.0
 13
0.0
 23
0.0
 33
0.0
 16
1.0
 26
0.0
 36
0.0
 17
0.0
 27
1.0
 37
0.0
 76
     0
330
17C
331
492
  0
LAYOUT
  5
1E
102
{ACAD_REACTORS
330
1A
102
}
330
1A
100
AcDbPlotSettings
  1

  2
none_device
  4

  6

 40
0.0
 41
0.0
 42
0.0
 43
0.0
 44
0.0
 45
0.0
 46
0.0
 47
0.0
 48
0.0
 49
0.0
140
0.0
141
0.0
142
1.0
143
1.0
 70
   688
 72
     0
 73
     0
 74
     5
  7

 75
    16
147
1.0
148
0.0
149
0.0
100
AcDbLayout
  1
_Top
 70
     1
 71
     1
 10
0.0
 20
0.0
 11
420.0
 21
297.0
 12
0.0
 22
0.0
 32
0.0
 14
1.0000000000E+20
 24
1.0000000000E+20
 34
1.0000000000E+20
 15
-1.0000000000E+20
 25
-1.0000000000E+20
 35
-1.0000000000E+20
146
0.0
 13
0.0
 23
0.0
 33
0.0
 16
1.0
 26
0.0
 36
0.0
 17
0.0
 27
1.0
 37
0.0
 76
     0
330
1B
331
48E
  0
LAYOUT
  5
2D6
102
{ACAD_REACTORS
330
1A
102
}
330
1A
100
AcDbPlotSettings
  1

  2
none_device
  4

  6

 40
0.0
 41
0.0
 42
0.0
 43
0.0
 44
0.0
 45
0.0
 46
0.0
 47
0.0
 48
0.0
 49
0.0
140
0.0
141
0.0
142
1.0
143
1.0
 70
   688
 72
     0
 73
     0
 74
     5
  7

 75
    16
147
1.0
148
0.0
149
0.0
100
AcDbLayout
  1
_Trimetric
 70
     1
 71
     8
 10
0.0
 20
0.0
 11
0.0
 21
0.0
 12
0.0
 22
0.0
 32
0.0
 14
0.0
 24
0.0
 34
0.0
 15
0.0
 25
0.0
 35
0.0
146
0.0
 13
0.0
 23
0.0
 33
0.0
 16
1.0
 26
0.0
 36
0.0
 17
0.0
 27
1.0
 37
0.0
 76
     0
330
2D5
331
495
  0
LAYOUT
  5
22
102
{ACAD_REACTORS
330
1A
102
}
330
1A
100
AcDbPlotSettings
  1

  2
none_device
  4

  6

 40
0.0
 41
0.0
 42
0.0
 43
0.0
 44
0.0
 45
0.0
 46
0.0
 47
0.0
 48
0.0
 49
0.0
140
0.0
141
0.0
142
1.0
143
1.0
 70
  1712
 72
     0
 73
     0
 74
     0
  7

 75
     0
147
1.0
148
0.0
149
0.0
100
AcDbLayout
  1
Model
 70
     1
 71
     0
 10
0.0
 20
0.0
 11
420.0
 21
297.0
 12
0.0
 22
0.0
 32
0.0
 14
-69.0
 24
-17.0
 34
0.0
 15
69.0
 25
17.0
 35
0.0
146
0.0
 13
0.0
 23
0.0
 33
0.0
 16
1.0
 26
0.0
 36
0.0
 17
0.0
 27
1.0
 37
0.0
 76
     0
330
1F
331
29
  0
MLINESTYLE
  5
18
102
{ACAD_REACTORS
330
17
102
}
330
17
100
AcDbMlineStyle
  2
Standard
 70
     0
  3

 62
   256
 51
90.0
 52
90.0
 71
     2
 49
0.5
 62
   256
  6
BYLAYER
 49
-0.5
 62
   256
  6
BYLAYER
  0
ACDBPLACEHOLDER
  5
F
102
{ACAD_REACTORS
330
E
102
}
330
E
  0
ENDSEC
  0
EOF
