  0
SECTION
  2
HEADER
  9
$ACADVER
  1
AC1015
  9
$ACADMAINTVER
 70
     6
  9
$DWGCODEPAGE
  3
ANSI_1252
  9
$INSBASE
 10
0.0
 20
0.0
 30
0.0
  9
$EXTMIN
 10
-3.4574959924
 20
-4.597808679
 30
0.0
  9
$EXTMAX
 10
3.3451786425
 20
8.8372440172
 30
0.0
  9
$LIMMIN
 10
0.0
 20
0.0
  9
$LIMMAX
 10
420.0
 20
297.0
  9
$ORTHOMODE
 70
     0
  9
$REGENMODE
 70
     1
  9
$FILLMODE
 70
     1
  9
$QTEXTMODE
 70
     0
  9
$MIRRTEXT
 70
     1
  9
$LTSCALE
 40
1.0
  9
$ATTMODE
 70
     1
  9
$TEXTSIZE
 40
3.5
  9
$TRACEWID
 40
1.0
  9
$TEXTSTYLE
  7
Standard
  9
$CLAYER
  8
0
  9
$CELTYPE
  6
ByLayer
  9
$CECOLOR
 62
   256
  9
$CELTSCALE
 40
1.0
  9
$DISPSILH
 70
     0
  9
$DIMSCALE
 40
1.0
  9
$DIMASZ
 40
6.0
  9
$DIMEXO
 40
1.0
  9
$DIMDLI
 40
3.75
  9
$DIMRND
 40
0.0
  9
$DIMDLE
 40
0.0
  9
$DIMEXE
 40
1.0
  9
$DIMTP
 40
0.0
  9
$DIMTM
 40
0.0
  9
$DIMTXT
 40
3.5
  9
$DIMCEN
 40
2.5
  9
$DIMTSZ
 40
0.0
  9
$DIMTOL
 70
     0
  9
$DIMLIM
 70
     0
  9
$DIMTIH
 70
     1
  9
$DIMTOH
 70
     1
  9
$DIMSE1
 70
     0
  9
$DIMSE2
 70
     0
  9
$DIMTAD
 70
     1
  9
$DIMZIN
 70
     0
  9
$DIMBLK
  1

  9
$DIMASO
 70
     1
  9
$DIMSHO
 70
     1
  9
$DIMPOST
  1

  9
$DIMAPOST
  1

  9
$DIMALT
 70
     0
  9
$DIMALTD
 70
     3
  9
$DIMALTF
 40
0.0393700787
  9
$DIMLFAC
 40
1.0
  9
$DIMTOFL
 70
     1
  9
$DIMTVP
 40
0.0
  9
$DIMTIX
 70
     0
  9
$DIMSOXD
 70
     0
  9
$DIMSAH
 70
     0
  9
$DIMBLK1
  1

  9
$DIMBLK2
  1

  9
$DIMSTYLE
  2
ISO-25
  9
$DIMCLRD
 70
     0
  9
$DIMCLRE
 70
     0
  9
$DIMCLRT
 70
     0
  9
$DIMTFAC
 40
1.0
  9
$DIMGAP
 40
1.524
  9
$DIMJUST
 70
     0
  9
$DIMSD1
 70
     0
  9
$DIMSD2
 70
     0
  9
$DIMTOLJ
 70
     0
  9
$DIMTZIN
 70
     0
  9
$DIMALTZ
 70
     0
  9
$DIMALTTZ
 70
     0
  9
$DIMUPT
 70
     0
  9
$DIMDEC
 70
     3
  9
$DIMTDEC
 70
     3
  9
$DIMALTU
 70
     2
  9
$DIMALTTD
 70
     3
  9
$DIMTXSTY
  7
Standard
  9
$DIMAUNIT
 70
     0
  9
$DIMADEC
 70
     2
  9
$DIMALTRND
 40
0.0
  9
$DIMAZIN
 70
     0
  9
$DIMDSEP
 70
    44
  9
$DIMATFIT
 70
     3
  9
$DIMFRAC
 70
     0
  9
$DIMLDRBLK
  1

  9
$DIMLUNIT
 70
     2
  9
$DIMLWD
 70
    -2
  9
$DIMLWE
 70
    -2
  9
$DIMTMOVE
 70
     0
  9
$LUNITS
 70
     2
  9
$LUPREC
 70
     2
  9
$SKETCHINC
 40
1.0
  9
$FILLETRAD
 40
10.0
  9
$AUNITS
 70
     0
  9
$AUPREC
 70
     2
  9
$MENU
  1
.
  9
$ELEVATION
 40
0.0
  9
$PELEVATION
 40
0.0
  9
$THICKNESS
 40
0.0
  9
$LIMCHECK
 70
     0
  9
$CHAMFERA
 40
10.0
  9
$CHAMFERB
 40
10.0
  9
$CHAMFERC
 40
20.0
  9
$CHAMFERD
 40
0.0
  9
$SKPOLY
 70
     0
  9
$TDCREATE
 40
2456194.545576678
  9
$TDUCREATE
 40
2456194.045576678
  9
$TDUPDATE
 40
2456194.545605972
  9
$TDUUPDATE
 40
2456194.045605972
  9
$TDINDWG
 40
0.0000000116
  9
$TDUSRTIMER
 40
0.0000000116
  9
$USRTIMER
 70
     1
  9
$ANGBASE
 50
0.0
  9
$ANGDIR
 70
     0
  9
$PDMODE
 70
     0
  9
$PDSIZE
 40
-1.0
  9
$PLINEWID
 40
0.0
  9
$SPLFRAME
 70
     0
  9
$SPLINETYPE
 70
     6
  9
$SPLINESEGS
 70
     8
  9
$HANDSEED
  5
192
  9
$SURFTAB1
 70
     6
  9
$SURFTAB2
 70
     6
  9
$SURFTYPE
 70
     6
  9
$SURFU
 70
     6
  9
$SURFV
 70
     6
  9
$UCSBASE
  2

  9
$UCSNAME
  2

  9
$UCSORG
 10
0.0
 20
0.0
 30
0.0
  9
$UCSXDIR
 10
1.0
 20
0.0
 30
0.0
  9
$UCSYDIR
 10
0.0
 20
1.0
 30
0.0
  9
$UCSORTHOREF
  2

  9
$UCSORTHOVIEW
 70
     0
  9
$UCSORGTOP
 10
0.0
 20
0.0
 30
0.0
  9
$UCSORGBOTTOM
 10
0.0
 20
0.0
 30
0.0
  9
$UCSORGLEFT
 10
0.0
 20
0.0
 30
0.0
  9
$UCSORGRIGHT
 10
0.0
 20
0.0
 30
0.0
  9
$UCSORGFRONT
 10
0.0
 20
0.0
 30
0.0
  9
$UCSORGBACK
 10
0.0
 20
0.0
 30
0.0
  9
$PUCSBASE
  2

  9
$PUCSNAME
  2

  9
$PUCSORG
 10
0.0
 20
0.0
 30
0.0
  9
$PUCSXDIR
 10
1.0
 20
0.0
 30
0.0
  9
$PUCSYDIR
 10
0.0
 20
1.0
 30
0.0
  9
$PUCSORTHOREF
  2

  9
$PUCSORTHOVIEW
 70
     0
  9
$PUCSORGTOP
 10
0.0
 20
0.0
 30
0.0
  9
$PUCSORGBOTTOM
 10
0.0
 20
0.0
 30
0.0
  9
$PUCSORGLEFT
 10
0.0
 20
0.0
 30
0.0
  9
$PUCSORGRIGHT
 10
0.0
 20
0.0
 30
0.0
  9
$PUCSORGFRONT
 10
0.0
 20
0.0
 30
0.0
  9
$PUCSORGBACK
 10
0.0
 20
0.0
 30
0.0
  9
$USERI1
 70
     0
  9
$USERI2
 70
     0
  9
$USERI3
 70
     0
  9
$USERI4
 70
     0
  9
$USERI5
 70
     0
  9
$USERR1
 40
0.0
  9
$USERR2
 40
0.0
  9
$USERR3
 40
0.0
  9
$USERR4
 40
0.0
  9
$USERR5
 40
0.0
  9
$WORLDVIEW
 70
     1
  9
$SHADEDGE
 70
     3
  9
$SHADEDIF
 70
    70
  9
$TILEMODE
 70
     1
  9
$MAXACTVP
 70
    64
  9
$PINSBASE
 10
0.0
 20
0.0
 30
0.0
  9
$PLIMCHECK
 70
     0
  9
$PEXTMIN
 10
-3.25
 20
-4.5
 30
0.0
  9
$PEXTMAX
 10
3.25
 20
8.5
 30
0.0
  9
$PLIMMIN
 10
0.0
 20
0.0
  9
$PLIMMAX
 10
420.0
 20
297.0
  9
$UNITMODE
 70
     0
  9
$VISRETAIN
 70
     1
  9
$PLINEGEN
 70
     0
  9
$PSLTSCALE
 70
     1
  9
$TREEDEPTH
 70
  3020
  9
$CMLSTYLE
  2
Standard
  9
$CMLJUST
 70
     0
  9
$CMLSCALE
 40
20.0
  9
$PROXYGRAPHICS
 70
     1
  9
$MEASUREMENT
 70
     1
  9
$CELWEIGHT
370
    -1
  9
$ENDCAPS
280
     0
  9
$JOINSTYLE
280
     0
  9
$LWDISPLAY
290
     1
  9
$INSUNITS
 70
     4
  9
$HYPERLINKBASE
  1

  9
$STYLESHEET
  1

  9
$XEDIT
290
     1
  9
$CEPSNTYPE
380
     0
  9
$PSTYLEMODE
290
     1
  9
$FINGERPRINTGUID
  2
{A45BB74B-1E3F-42F8-A670-FFBAB23D82A7}
  9
$VERSIONGUID
  2
{FAEB1C32-E019-11D5-929B-00C0DF256EC4}
  9
$EXTNAMES
290
     1
  9
$PSVPSCALE
 40
0.0
  9
$OLESTARTUP
290
     0
  0
ENDSEC
  0
SECTION
  2
CLASSES
  0
CLASS
  1
ACDBDICTIONARYWDFLT
  2
AcDbDictionaryWithDefault
  3
ObjectDBX Classes
 90
        0
280
     0
281
     0
  0
CLASS
  1
VISUALSTYLE
  2
AcDbVisualStyle
  3
ObjectDBX Classes
 90
     4095
280
     0
281
     0
  0
CLASS
  1
MATERIAL
  2
AcDbMaterial
  3
ObjectDBX Classes
 90
     1153
280
     0
281
     0
  0
CLASS
  1
ACDBPLACEHOLDER
  2
AcDbPlaceHolder
  3
ObjectDBX Classes
 90
        0
280
     0
281
     0
  0
CLASS
  1
LAYOUT
  2
AcDbLayout
  3
ObjectDBX Classes
 90
        0
280
     0
281
     0
  0
ENDSEC
  0
SECTION
  2
TABLES
  0
TABLE
  2
VPORT
  5
8
330
0
100
AcDbSymbolTable
 70
     1
  0
VPORT
  5
29
330
8
100
AcDbSymbolTableRecord
100
AcDbViewportTableRecord
  2
*Active
 70
     0
 10
0.0
 20
0.0
 11
1.0
 21
1.0
 12
-0.0561586749
 22
2.1197176691
 13
0.0
 23
0.0
 14
10.0
 24
10.0
 15
10.0
 25
10.0
 16
0.0
 26
0.0
 36
1.0
 17
0.0
 27
0.0
 37
0.0
 40
13.7037537501
 41
0.506337771
 42
50.0
 43
0.0
 44
0.0
 50
0.0
 51
0.0
 71
     0
 72
   100
 73
     1
 74
     3
 75
     0
 76
     0
 77
     0
 78
     0
281
     0
 65
     1
110
0.0
120
0.0
130
0.0
111
1.0
121
0.0
131
0.0
112
0.0
122
1.0
132
0.0
 79
     0
146
0.0
  0
ENDTAB
  0
TABLE
  2
LTYPE
  5
5
330
0
100
AcDbSymbolTable
 70
     6
  0
LTYPE
  5
14
330
5
100
AcDbSymbolTableRecord
100
AcDbLinetypeTableRecord
  2
ByBlock
 70
     0
  3

 72
    65
 73
     0
 40
0.0
  0
LTYPE
  5
15
330
5
100
AcDbSymbolTableRecord
100
AcDbLinetypeTableRecord
  2
ByLayer
 70
     0
  3

 72
    65
 73
     0
 40
0.0
  0
LTYPE
  5
16
330
5
100
AcDbSymbolTableRecord
100
AcDbLinetypeTableRecord
  2
Continuous
 70
     0
  3
Solid line
 72
    65
 73
     0
 40
0.0
  0
LTYPE
  5
3F
330
5
100
AcDbSymbolTableRecord
100
AcDbLinetypeTableRecord
  2
HIDDEN
 70
     0
  3
Hidden __ __ __ __ __ __ __ __ __ __ __ __ __ __
 72
    65
 73
     2
 40
1.905
 49
1.27
 74
     0
 49
-0.635
 74
     0
  0
LTYPE
  5
40
330
5
100
AcDbSymbolTableRecord
100
AcDbLinetypeTableRecord
  2
PHANTOM
 70
     0
  3
Phantom ______  __  __  ______  __  __  ______
 72
    65
 73
     6
 40
12.7
 49
6.35
 74
     0
 49
-1.27
 74
     0
 49
1.27
 74
     0
 49
-1.27
 74
     0
 49
1.27
 74
     0
 49
-1.27
 74
     0
  0
LTYPE
  5
41
330
5
100
AcDbSymbolTableRecord
100
AcDbLinetypeTableRecord
  2
CENTER
 70
     0
  3
Center ____ _ ____ _ ____ _ ____ _ ____ _ ____
 72
    65
 73
     4
 40
10.16
 49
6.35
 74
     0
 49
-1.27
 74
     0
 49
1.27
 74
     0
 49
-1.27
 74
     0
  0
LTYPE
  5
42
330
5
100
AcDbSymbolTableRecord
100
AcDbLinetypeTableRecord
  2
CENTERX2
 70
     0
  3
Center (2x) ________  __  ________  __  _____
 72
    65
 73
     4
 40
20.32
 49
12.7
 74
     0
 49
-2.54
 74
     0
 49
2.54
 74
     0
 49
-2.54
 74
     0
  0
LTYPE
  5
43
330
5
100
AcDbSymbolTableRecord
100
AcDbLinetypeTableRecord
  2
DOT2
 70
     0
  3
Dot (.5x) ........................................
 72
    65
 73
     2
 40
0.635
 49
0.0
 74
     0
 49
-0.635
 74
     0
  0
ENDTAB
  0
TABLE
  2
LAYER
  5
2
330
0
100
AcDbSymbolTable
 70
     1
  0
LAYER
  5
10
330
2
100
AcDbSymbolTableRecord
100
AcDbLayerTableRecord
  2
0
 70
     0
 62
     7
  6
Continuous
370
    -3
390
F
  0
ENDTAB
  0
TABLE
  2
STYLE
  5
3
330
0
100
AcDbSymbolTable
 70
     1
  0
STYLE
  5
11
330
3
100
AcDbSymbolTableRecord
100
AcDbTextStyleTableRecord
  2
Standard
 70
     0
 40
0.0
 41
1.0
 50
0.0
 71
     0
 42
3.5
  3
txt
  4

  0
ENDTAB
  0
TABLE
  2
VIEW
  5
6
330
0
100
AcDbSymbolTable
 70
     0
  0
ENDTAB
  0
TABLE
  2
UCS
  5
7
330
0
100
AcDbSymbolTable
 70
     0
  0
ENDTAB
  0
TABLE
  2
APPID
  5
9
330
0
100
AcDbSymbolTable
 70
     1
  0
APPID
  5
12
330
9
100
AcDbSymbolTableRecord
100
AcDbRegAppTableRecord
  2
ACAD
 70
     0
  0
ENDTAB
  0
TABLE
  2
DIMSTYLE
  5
A
330
0
100
AcDbSymbolTable
 70
     1
100
AcDbDimStyleTable
  0
DIMSTYLE
105
27
330
A
100
AcDbSymbolTableRecord
100
AcDbDimStyleTableRecord
  2
ISO-25
 70
     0
 41
2.5
 42
0.625
 43
3.75
 44
1.25
 73
     0
 74
     0
 77
     1
 78
     8
140
2.5
141
2.5
143
0.0393700787
147
0.625
171
     3
172
     1
178
     0
271
     2
272
     2
274
     3
278
    44
283
     0
284
     8
340
11
  0
ENDTAB
  0
TABLE
  2
BLOCK_RECORD
  5
1
330
0
100
AcDbSymbolTable
 70
     8
  0
BLOCK_RECORD
  5
1F
330
1
100
AcDbSymbolTableRecord
100
AcDbBlockTableRecord
  2
*Model_Space
340
22
  0
BLOCK_RECORD
  5
1B
330
1
100
AcDbSymbolTableRecord
100
AcDbBlockTableRecord
  2
*Paper_Space
340
1E
  0
BLOCK_RECORD
  5
23
330
1
100
AcDbSymbolTableRecord
100
AcDbBlockTableRecord
  2
*Paper_Space0
340
26
  0
BLOCK_RECORD
  5
99
330
1
100
AcDbSymbolTableRecord
100
AcDbBlockTableRecord
  2
*Paper_Space1
340
9A
  0
BLOCK_RECORD
  5
AD
330
1
100
AcDbSymbolTableRecord
100
AcDbBlockTableRecord
  2
*Paper_Space2
340
AE
  0
BLOCK_RECORD
  5
D5
330
1
100
AcDbSymbolTableRecord
100
AcDbBlockTableRecord
  2
*Paper_Space3
340
D6
  0
BLOCK_RECORD
  5
FA
330
1
100
AcDbSymbolTableRecord
100
AcDbBlockTableRecord
  2
*Paper_Space4
340
FB
  0
BLOCK_RECORD
  5
11D
330
1
100
AcDbSymbolTableRecord
100
AcDbBlockTableRecord
  2
*Paper_Space5
340
11E
  0
BLOCK_RECORD
  5
145
330
1
100
AcDbSymbolTableRecord
100
AcDbBlockTableRecord
  2
*Paper_Space6
340
146
  0
BLOCK_RECORD
  5
169
330
1
100
AcDbSymbolTableRecord
100
AcDbBlockTableRecord
  2
*Paper_Space7
340
16A
  0
ENDTAB
  0
ENDSEC
  0
SECTION
  2
BLOCKS
  0
BLOCK
  5
20
330
1F
100
AcDbEntity
  8
0
100
AcDbBlockBegin
  2
*Model_Space
 70
     0
 10
0.0
 20
0.0
 30
0.0
  3
*Model_Space
  1

  0
ENDBLK
  5
21
330
1F
100
AcDbEntity
  8
0
100
AcDbBlockEnd
  0
BLOCK
  5
1C
330
1B
100
AcDbEntity
 67
     1
  8
0
100
AcDbBlockBegin
  2
*Paper_Space
 70
     0
 10
0.0
 20
0.0
 30
0.0
  3
*Paper_Space
  1

  0
ENDBLK
  5
1D
330
1B
100
AcDbEntity
 67
     1
  8
0
100
AcDbBlockEnd
  0
BLOCK
  5
24
330
23
100
AcDbEntity
  8
0
100
AcDbBlockBegin
  2
*Paper_Space0
 70
     0
 10
0.0
 20
0.0
 30
0.0
  3
*Paper_Space0
  1

  0
CIRCLE
  5
91
330
23
100
AcDbEntity
  8
0
  6
Continuous
 62
     7
370
    15
100
AcDbCircle
 10
0.0
 20
0.0
 30
0.0
 40
0.850000000000001
  0
CIRCLE
  5
92
330
23
100
AcDbEntity
  8
0
  6
Continuous
 62
     7
370
    15
100
AcDbCircle
 10
0.0
 20
0.0
 30
0.0
 40
0.1
  0
SPLINE
  5
93
330
23
100
AcDbEntity
  8
0
  6
Continuous
 62
     7
370
    15
100
AcDbSpline
210
0.0
220
0.0
230
1.0
 70
    24
 71
     3
 72
    18
 73
    14
 74
     0
 42
0.00000001
 43
0.00000001
 12
1.0
 22
0.0
 32
0.0
 13
1.0
 23
0.0
 33
0.0
 40
0.0
 40
0.0
 40
0.0
 40
0.0
 40
0.2500000000000002
 40
0.2500000000000002
 40
0.3750000000000004
 40
0.3750000000000004
 40
0.5000000000000003
 40
0.5000000000000003
 40
0.6250000000000003
 40
0.6250000000000003
 40
0.7500000000000002
 40
0.7500000000000002
 40
1.0
 40
1.0
 40
1.0
 40
1.0
 10
3.250000000000593
 20
-1.876388374865949
 30
0.0
 10
3.009199234036593
 20
-2.015414761916331
 30
0.0
 10
2.757854295478657
 20
-2.160528829852205
 30
0.0
 10
2.349282961986485
 20
-2.396417599227075
 30
0.0
 10
2.207181976608754
 20
-2.478459641387019
 30
0.0
 10
1.920058130076591
 20
-2.644230671473121
 30
0.0
 10
1.773642077464775
 20
-2.728764018862236
 30
0.0
 10
1.475639577429009
 20
-2.900815842477067
 30
0.0
 10
1.3295520330877
 20
-2.985159525527772
 30
0.0
 10
1.042404622738001
 20
-3.150944160190275
 30
0.0
 10
0.9002073212470083
 20
-3.233041810484138
 30
0.0
 10
0.4919843405441177
 20
-3.468729458282343
 30
0.0
 10
0.2407414381152617
 20
-3.613784615631623
 30
0.0
 10
-0.0000000000006365
 20
-3.752776749732934
 30
0.0
  0
SPLINE
  5
94
330
23
100
AcDbEntity
  8
0
  6
Continuous
 62
     7
370
    15
100
AcDbSpline
210
0.0
220
0.0
230
1.0
 70
    24
 71
     3
 72
    18
 73
    14
 74
     0
 42
0.00000001
 43
0.00000001
 12
1.0
 22
0.0
 32
0.0
 13
1.0
 23
0.0
 33
0.0
 40
0.0
 40
0.0
 40
0.0
 40
0.0
 40
0.25
 40
0.25
 40
0.3750000000000001
 40
0.3750000000000001
 40
0.5000000000000002
 40
0.5000000000000002
 40
0.6250000000000003
 40
0.6250000000000003
 40
0.7500000000000002
 40
0.7500000000000002
 40
1.0
 40
1.0
 40
1.0
 40
1.0
 10
0.0000000000005922
 20
-3.752776749732909
 30
0.0
 10
-0.240800765963408
 20
-3.613750362682526
 30
0.0
 10
-0.4921457045213443
 20
-3.468636294746653
 30
0.0
 10
-0.9007170380135169
 20
-3.232747525371781
 30
0.0
 10
-1.042818023391249
 20
-3.150705483211838
 30
0.0
 10
-1.329941869923411
 20
-2.984934453125735
 30
0.0
 10
-1.476357922535227
 20
-2.90040110573662
 30
0.0
 10
-1.774360422570993
 20
-2.728349282121792
 30
0.0
 10
-1.920447966912303
 20
-2.644005599071084
 30
0.0
 10
-2.207595377262003
 20
-2.478220964408582
 30
0.0
 10
-2.349792678752994
 20
-2.39612331411472
 30
0.0
 10
-2.758015659455884
 20
-2.160435666316518
 30
0.0
 10
-3.009258561884741
 20
-2.015380508967235
 30
0.0
 10
-3.250000000000637
 20
-1.876388374865924
 30
0.0
  0
SPLINE
  5
95
330
23
100
AcDbEntity
  8
0
  6
Continuous
 62
     7
370
    15
100
AcDbSpline
210
0.0
220
0.0
230
1.0
 70
    24
 71
     3
 72
    20
 73
    16
 74
     0
 42
0.00000001
 43
0.00000001
 12
1.0
 22
0.0
 32
0.0
 13
1.0
 23
0.0
 33
0.0
 40
0.0
 40
0.0
 40
0.0
 40
0.0
 40
0.25
 40
0.25
 40
0.375
 40
0.375
 40
0.5
 40
0.5
 40
0.625
 40
0.625
 40
0.75
 40
0.75
 40
0.875
 40
0.875
 40
1.0
 40
1.0
 40
1.0
 40
1.0
 10
-3.250000000000001
 20
-1.876388374866407
 30
0.0
 10
-3.25
 20
-1.600988295684187
 30
0.0
 10
-3.250000000000001
 20
-1.305515496165291
 30
0.0
 10
-3.250000000000001
 20
-0.8376821119593764
 30
0.0
 10
-3.250000000000001
 20
-0.6771613839055438
 30
0.0
 10
-3.250000000000001
 20
-0.3437721497297232
 30
0.0
 10
-3.250000000000001
 20
-0.1716381882647775
 30
0.0
 10
-3.250000000000001
 20
0.1679941130327695
 30
0.0
 10
-3.250000000000001
 20
0.3390777594887004
 30
0.0
 10
-3.250000000000001
 20
0.6740148931927861
 30
0.0
 10
-3.250000000000001
 20
0.8353449608625146
 30
0.0
 10
-3.250000000000001
 20
1.148888204249463
 30
0.0
 10
-3.250000000000001
 20
1.301893276567286
 30
0.0
 10
-3.25
 20
1.597199089664585
 30
0.0
 10
-3.250000000000001
 20
1.738852801191967
 30
0.0
 10
-3.250000000000001
 20
1.876388374867003
 30
0.0
  0
SPLINE
  5
96
330
23
100
AcDbEntity
  8
0
  6
Continuous
 62
     7
370
    15
100
AcDbSpline
210
0.0
220
0.0
230
1.0
 70
    24
 71
     3
 72
    18
 73
    14
 74
     0
 42
0.00000001
 43
0.00000001
 12
1.0
 22
0.0
 32
0.0
 13
1.0
 23
0.0
 33
0.0
 40
0.0
 40
0.0
 40
0.0
 40
0.0
 40
0.2499999999999999
 40
0.2499999999999999
 40
0.3749999999999999
 40
0.3749999999999999
 40
0.5
 40
0.5
 40
0.625
 40
0.625
 40
0.7500000000000001
 40
0.7500000000000001
 40
1.0
 40
1.0
 40
1.0
 40
1.0
 10
-3.250000000000594
 20
1.87638837486593
 30
0.0
 10
-3.009199234036594
 20
2.015414761916313
 30
0.0
 10
-2.757854295478657
 20
2.160528829852189
 30
0.0
 10
-2.349282961986484
 20
2.396417599227059
 30
0.0
 10
-2.207181976608753
 20
2.478459641387005
 30
0.0
 10
-1.920058130076591
 20
2.64423067147311
 30
0.0
 10
-1.773642077464775
 20
2.728764018862224
 30
0.0
 10
-1.475639577429009
 20
2.900815842477055
 30
0.0
 10
-1.329552033087699
 20
2.985159525527763
 30
0.0
 10
-1.042404622737999
 20
3.150944160190266
 30
0.0
 10
-0.9002073212470075
 20
3.233041810484128
 30
0.0
 10
-0.491984340544118
 20
3.468729458282335
 30
0.0
 10
-0.2407414381152618
 20
3.613784615631618
 30
0.0
 10
0.000000000000636
 20
3.752776749732929
 30
0.0
  0
SPLINE
  5
97
330
23
100
AcDbEntity
  8
0
  6
Continuous
 62
     7
370
    15
100
AcDbSpline
210
0.0
220
0.0
230
1.0
 70
    24
 71
     3
 72
    18
 73
    14
 74
     0
 42
0.00000001
 43
0.00000001
 12
1.0
 22
0.0
 32
0.0
 13
1.0
 23
0.0
 33
0.0
 40
0.0
 40
0.0
 40
0.0
 40
0.0
 40
0.2499999999999999
 40
0.2499999999999999
 40
0.3749999999999998
 40
0.3749999999999998
 40
0.4999999999999998
 40
0.4999999999999998
 40
0.6249999999999998
 40
0.6249999999999998
 40
0.7499999999999998
 40
0.7499999999999998
 40
1.0
 40
1.0
 40
1.0
 40
1.0
 10
-0.0000000000005931
 20
3.752776749732905
 30
0.0
 10
0.240800765963407
 20
3.61375036268252
 30
0.0
 10
0.4921457045213433
 20
3.468636294746646
 30
0.0
 10
0.9007170380135155
 20
3.232747525371773
 30
0.0
 10
1.042818023391247
 20
3.150705483211828
 30
0.0
 10
1.329941869923409
 20
2.984934453125724
 30
0.0
 10
1.476357922535225
 20
2.90040110573661
 30
0.0
 10
1.774360422570991
 20
2.728349282121779
 30
0.0
 10
1.920447966912302
 20
2.644005599071072
 30
0.0
 10
2.207595377262002
 20
2.478220964408568
 30
0.0
 10
2.349792678752993
 20
2.396123314114705
 30
0.0
 10
2.758015659455881
 20
2.160435666316499
 30
0.0
 10
3.009258561884739
 20
2.015380508967215
 30
0.0
 10
3.250000000000637
 20
1.876388374865904
 30
0.0
  0
SPLINE
  5
98
330
23
100
AcDbEntity
  8
0
  6
Continuous
 62
     7
370
    15
100
AcDbSpline
210
0.0
220
0.0
230
1.0
 70
    24
 71
     3
 72
    20
 73
    16
 74
     0
 42
0.00000001
 43
0.00000001
 12
1.0
 22
0.0
 32
0.0
 13
1.0
 23
0.0
 33
0.0
 40
0.0
 40
0.0
 40
0.0
 40
0.0
 40
0.25
 40
0.25
 40
0.375
 40
0.375
 40
0.5
 40
0.5
 40
0.625
 40
0.625
 40
0.75
 40
0.75
 40
0.875
 40
0.875
 40
1.0
 40
1.0
 40
1.0
 40
1.0
 10
3.25
 20
-1.876388374866405
 30
0.0
 10
3.25
 20
-1.600988295684186
 30
0.0
 10
3.25
 20
-1.305515496165289
 30
0.0
 10
3.25
 20
-0.837682111959375
 30
0.0
 10
3.25
 20
-0.6771613839055414
 30
0.0
 10
3.25
 20
-0.343772149729721
 30
0.0
 10
3.25
 20
-0.1716381882647774
 30
0.0
 10
3.25
 20
0.1679941130327693
 30
0.0
 10
3.25
 20
0.3390777594887006
 30
0.0
 10
3.25
 20
0.6740148931927861
 30
0.0
 10
3.25
 20
0.8353449608625146
 30
0.0
 10
3.25
 20
1.148888204249463
 30
0.0
 10
3.25
 20
1.301893276567283
 30
0.0
 10
3.25
 20
1.597199089664582
 30
0.0
 10
3.25
 20
1.738852801191968
 30
0.0
 10
3.25
 20
1.876388374867003
 30
0.0
  0
VIEWPORT
  5
18A
330
23
100
AcDbEntity
  8
0
100
AcDbViewport
 10
0.0
 20
0.0
 30
0.0
 40
243.84
 41
204.216
 68
     1
 69
     1
 12
-0.0561586749
 22
2.1197176691
 13
0.0
 23
0.0
 14
10.0
 24
10.0
 15
10.0
 25
10.0
 16
0.0
 26
0.0
 36
1.0
 17
0.0
 27
0.0
 37
0.0
 42
50.0
 43
0.0
 44
0.0
 45
13.7037537501
 50
0.0
 51
0.0
 72
   100
 90
   557152
  1

281
     0
 71
     1
 74
     0
110
0.0
120
0.0
130
0.0
111
1.0
121
0.0
131
0.0
112
0.0
122
1.0
132
0.0
 79
     0
146
0.0
  0
ENDBLK
  5
25
330
23
100
AcDbEntity
  8
0
100
AcDbBlockEnd
  0
BLOCK
  5
9B
330
99
100
AcDbEntity
  8
0
100
AcDbBlockBegin
  2
*Paper_Space1
 70
     0
 10
0.0
 20
0.0
 30
0.0
  3
*Paper_Space1
  1

  0
CIRCLE
  5
9D
330
99
100
AcDbEntity
  8
0
  6
Continuous
 62
     7
370
    15
100
AcDbCircle
 10
0.0
 20
0.0
 30
0.0
 40
2.499999999999999
  0
CIRCLE
  5
9E
330
99
100
AcDbEntity
  8
0
  6
Continuous
 62
     7
370
    15
100
AcDbCircle
 10
0.0
 20
0.0
 30
0.0
 40
0.9999999999999987
  0
CIRCLE
  5
9F
330
99
100
AcDbEntity
  8
0
  6
Continuous
 62
     7
370
    15
100
AcDbCircle
 10
0.0
 20
0.0
 30
0.0
 40
3.0
  0
CIRCLE
  5
A6
330
99
100
AcDbEntity
  8
0
  6
Continuous
 62
     7
370
    15
100
AcDbCircle
 10
0.0
 20
0.0
 30
0.0
 40
0.1
  0
LINE
  5
A7
330
99
100
AcDbEntity
  8
0
  6
Continuous
 62
     7
370
    15
100
AcDbLine
 10
3.25
 20
-1.8763883749
 30
0.0
 11
3.25
 21
1.8763883749
 31
0.0
  0
LINE
  5
A8
330
99
100
AcDbEntity
  8
0
  6
Continuous
 62
     7
370
    15
100
AcDbLine
 10
0.0
 20
-3.7527767497
 30
0.0
 11
3.25
 21
-1.8763883749
 31
0.0
  0
LINE
  5
A9
330
99
100
AcDbEntity
  8
0
  6
Continuous
 62
     7
370
    15
100
AcDbLine
 10
-3.25
 20
-1.8763883749
 30
0.0
 11
0.0
 21
-3.7527767497
 31
0.0
  0
LINE
  5
AA
330
99
100
AcDbEntity
  8
0
  6
Continuous
 62
     7
370
    15
100
AcDbLine
 10
0.0
 20
3.7527767497
 30
0.0
 11
-3.25
 21
1.8763883749
 31
0.0
  0
LINE
  5
AB
330
99
100
AcDbEntity
  8
0
  6
Continuous
 62
     7
370
    15
100
AcDbLine
 10
-3.25
 20
1.8763883749
 30
0.0
 11
-3.25
 21
-1.8763883749
 31
0.0
  0
LINE
  5
AC
330
99
100
AcDbEntity
  8
0
  6
Continuous
 62
     7
370
    15
100
AcDbLine
 10
3.25
 20
1.8763883749
 30
0.0
 11
0.0
 21
3.7527767497
 31
0.0
  0
VIEWPORT
  5
18B
330
99
100
AcDbEntity
  8
0
100
AcDbViewport
 10
0.0
 20
0.0
 30
0.0
 40
243.84
 41
204.216
 68
     1
 69
     1
 12
-0.0561586749
 22
2.1197176691
 13
0.0
 23
0.0
 14
10.0
 24
10.0
 15
10.0
 25
10.0
 16
0.0
 26
0.0
 36
1.0
 17
0.0
 27
0.0
 37
0.0
 42
50.0
 43
0.0
 44
0.0
 45
13.7037537501
 50
0.0
 51
0.0
 72
   100
 90
   557152
  1

281
     0
 71
     1
 74
     0
110
0.0
120
0.0
130
0.0
111
1.0
121
0.0
131
0.0
112
0.0
122
1.0
132
0.0
 79
     0
146
0.0
  0
ENDBLK
  5
9C
330
99
100
AcDbEntity
  8
0
100
AcDbBlockEnd
  0
BLOCK
  5
AF
330
AD
100
AcDbEntity
  8
0
100
AcDbBlockBegin
  2
*Paper_Space2
 70
     0
 10
0.0
 20
0.0
 30
0.0
  3
*Paper_Space2
  1

  0
SPLINE
  5
B9
330
AD
100
AcDbEntity
  8
0
  6
Continuous
 62
     7
370
    15
100
AcDbSpline
210
0.0
220
0.0
230
1.0
 70
     8
 71
     3
 72
    20
 73
    16
 74
     0
 42
0.00000001
 43
0.00000001
 12
1.0
 22
0.0
 32
0.0
 13
1.0
 23
0.0
 33
0.0
 40
0.0
 40
0.0
 40
0.0
 40
0.0
 40
0.25
 40
0.25
 40
0.375
 40
0.375
 40
0.5
 40
0.5
 40
0.625
 40
0.625
 40
0.75
 40
0.75
 40
0.875
 40
0.875
 40
1.0
 40
1.0
 40
1.0
 40
1.0
 10
0.3531760718107533
 20
-1.876388374866404
 30
0.0
 10
0.5498904140837763
 20
-1.600988295684185
 30
0.0
 10
0.7290194228201067
 20
-1.305515496165288
 30
0.0
 10
0.9244215343218076
 20
-0.8376821119593738
 30
0.0
 10
0.9775578661831404
 20
-0.6771613839055411
 30
0.0
 10
1.051458071368206
 20
-0.3437721497297206
 30
0.0
 10
1.071291836801727
 20
-0.1716381882647749
 30
0.0
 10
1.071563846793518
 20
0.1679941130327721
 30
0.0
 10
1.052217077369689
 20
0.3390777594887031
 30
0.0
 10
0.9785303821708436
 20
0.6740148931927886
 30
0.0
 10
0.9253062452695215
 20
0.8353449608625173
 30
0.0
 10
0.7945292419636479
 20
1.148888204249466
 30
0.0
 10
0.7164816961015745
 20
1.301893276567289
 30
0.0
 10
0.5446410179127349
 20
1.597199089664587
 30
0.0
 10
0.4514157672937092
 20
1.73885280119197
 30
0.0
 10
0.3531760718115122
 20
1.876388374867006
 30
0.0
  0
SPLINE
  5
BC
330
AD
100
AcDbEntity
  8
0
  6
Continuous
 62
     7
370
    15
100
AcDbSpline
210
0.0
220
0.0
230
1.0
 70
     8
 71
     3
 72
    18
 73
    14
 74
     0
 42
0.00000001
 43
0.00000001
 12
1.0
 22
0.0
 32
0.0
 13
1.0
 23
0.0
 33
0.0
 40
0.0
 40
0.0
 40
0.0
 40
0.0
 40
0.25
 40
0.25
 40
0.3750000000000001
 40
0.3750000000000001
 40
0.5000000000000002
 40
0.5000000000000002
 40
0.6250000000000003
 40
0.6250000000000003
 40
0.7500000000000002
 40
0.7500000000000002
 40
1.0
 40
1.0
 40
1.0
 40
1.0
 10
0.3531760718118852
 20
-3.752776749732907
 30
0.0
 10
0.5517851961696295
 20
-3.613750362682523
 30
0.0
 10
0.727941353244963
 20
-3.468636294746651
 30
0.0
 10
0.9249840426216251
 20
-3.232747525371779
 30
0.0
 10
0.9789246019248254
 20
-3.150705483211835
 30
0.0
 10
1.051854322096522
 20
-2.984934453125732
 30
0.0
 10
1.071459898992814
 20
-2.900401105736617
 30
0.0
 10
1.071397168257047
 20
-2.728349282121789
 30
0.0
 10
1.051787856302101
 20
-2.644005599071081
 30
0.0
 10
0.9787869534714907
 20
-2.47822096440858
 30
0.0
 10
0.9247656313870062
 20
-2.396123314114718
 30
0.0
 10
0.7278085905251114
 20
-2.160435666316515
 30
0.0
 10
0.5517362633853362
 20
-2.015380508967232
 30
0.0
 10
0.3531760718119767
 20
-1.876388374865921
 30
0.0
  0
SPLINE
  5
BF
330
AD
100
AcDbEntity
  8
0
  6
Continuous
 62
     7
370
    15
100
AcDbSpline
210
0.0
220
0.0
230
1.0
 70
     8
 71
     3
 72
    18
 73
    14
 74
     0
 42
0.00000001
 43
0.00000001
 12
1.0
 22
0.0
 32
0.0
 13
1.0
 23
0.0
 33
0.0
 40
0.0
 40
0.0
 40
0.0
 40
0.0
 40
0.2499999999999999
 40
0.2499999999999999
 40
0.3749999999999999
 40
0.3749999999999999
 40
0.5
 40
0.5
 40
0.625
 40
0.625
 40
0.7500000000000001
 40
0.7500000000000001
 40
1.0
 40
1.0
 40
1.0
 40
1.0
 10
0.3531760718118869
 20
1.876388374865932
 30
0.0
 10
0.5517851961696322
 20
2.015414761916316
 30
0.0
 10
0.7279413532449673
 20
2.160528829852191
 30
0.0
 10
0.9249840426216317
 20
2.396417599227061
 30
0.0
 10
0.9789246019248329
 20
2.478459641387007
 30
0.0
 10
1.051854322096531
 20
2.644230671473113
 30
0.0
 10
1.071459898992821
 20
2.728764018862227
 30
0.0
 10
1.071397168257057
 20
2.900815842477058
 30
0.0
 10
1.051787856302111
 20
2.985159525527766
 30
0.0
 10
0.9787869534714994
 20
3.150944160190269
 30
0.0
 10
0.9247656313870157
 20
3.233041810484131
 30
0.0
 10
0.7278085905251205
 20
3.468729458282338
 30
0.0
 10
0.5517362633853453
 20
3.61378461563162
 30
0.0
 10
0.3531760718119845
 20
3.752776749732932
 30
0.0
  0
LINE
  5
C7
330
AD
100
AcDbEntity
  8
0
  6
Continuous
 62
     7
370
    15
100
AcDbLine
 10
0.3531760718
 20
-3.7527767497
 30
0.0
 11
4.5
 21
-0.85
 31
0.0
  0
LINE
  5
C8
330
AD
100
AcDbEntity
  8
0
  6
Continuous
 62
     7
370
    15
100
AcDbLine
 10
4.5
 20
0.85
 30
0.0
 11
0.3531760718
 21
3.7527767497
 31
0.0
  0
LINE
  5
C9
330
AD
100
AcDbEntity
  8
0
  6
Continuous
 62
     7
370
    15
100
AcDbLine
 10
-8.0
 20
-3.0
 30
0.0
 11
-3.5
 21
-3.0
 31
0.0
  0
LINE
  5
CA
330
AD
100
AcDbEntity
  8
0
  6
Continuous
 62
     7
370
    15
100
AcDbLine
 10
-3.5
 20
3.0
 30
0.0
 11
-8.0
 21
3.0
 31
0.0
  0
LINE
  5
CB
330
AD
100
AcDbEntity
  8
0
  6
Continuous
 62
     7
370
    15
100
AcDbLine
 10
-8.0
 20
3.0
 30
0.0
 11
-8.5
 21
2.5
 31
0.0
  0
LINE
  5
CC
330
AD
100
AcDbEntity
  8
0
  6
Continuous
 62
     7
370
    15
100
AcDbLine
 10
-8.5
 20
-2.5
 30
0.0
 11
-8.0
 21
-3.0
 31
0.0
  0
LINE
  5
CD
330
AD
100
AcDbEntity
  8
0
  6
Continuous
 62
     7
370
    15
100
AcDbLine
 10
0.3531760718
 20
-1.8763883749
 30
0.0
 11
-3.5
 21
-1.8763883749
 31
0.0
  0
LINE
  5
CE
330
AD
100
AcDbEntity
  8
0
  6
Continuous
 62
     7
370
    15
100
AcDbLine
 10
0.3531760718
 20
1.8763883749
 30
0.0
 11
-3.5
 21
1.8763883749
 31
0.0
  0
LINE
  5
CF
330
AD
100
AcDbEntity
  8
0
  6
Continuous
 62
     7
370
    15
100
AcDbLine
 10
-3.5
 20
-3.7527767497
 30
0.0
 11
-3.5
 21
3.7527767497
 31
0.0
  0
LINE
  5
D0
330
AD
100
AcDbEntity
  8
0
  6
Continuous
 62
     7
370
    15
100
AcDbLine
 10
0.3531760718
 20
-3.7527767497
 30
0.0
 11
-3.5
 21
-3.7527767497
 31
0.0
  0
LINE
  5
D1
330
AD
100
AcDbEntity
  8
0
  6
Continuous
 62
     7
370
    15
100
AcDbLine
 10
0.3531760718
 20
3.7527767497
 30
0.0
 11
-3.5
 21
3.7527767497
 31
0.0
  0
LINE
  5
D2
330
AD
100
AcDbEntity
  8
0
  6
Continuous
 62
     7
370
    15
100
AcDbLine
 10
4.5
 20
-0.85
 30
0.0
 11
4.5
 21
0.85
 31
0.0
  0
LINE
  5
D3
330
AD
100
AcDbEntity
  8
0
  6
Continuous
 62
     7
370
    15
100
AcDbLine
 10
-8.0
 20
3.0
 30
0.0
 11
-8.0
 21
-3.0
 31
0.0
  0
LINE
  5
D4
330
AD
100
AcDbEntity
  8
0
  6
Continuous
 62
     7
370
    15
100
AcDbLine
 10
-8.5
 20
-2.5
 30
0.0
 11
-8.5
 21
2.5
 31
0.0
  0
VIEWPORT
  5
18C
330
AD
100
AcDbEntity
  8
0
100
AcDbViewport
 10
0.0
 20
0.0
 30
0.0
 40
243.84
 41
204.216
 68
     1
 69
     1
 12
-0.0561586749
 22
2.1197176691
 13
0.0
 23
0.0
 14
10.0
 24
10.0
 15
10.0
 25
10.0
 16
0.0
 26
0.0
 36
1.0
 17
0.0
 27
0.0
 37
0.0
 42
50.0
 43
0.0
 44
0.0
 45
13.7037537501
 50
0.0
 51
0.0
 72
   100
 90
   557152
  1

281
     0
 71
     1
 74
     0
110
0.0
120
0.0
130
0.0
111
1.0
121
0.0
131
0.0
112
0.0
122
1.0
132
0.0
 79
     0
146
0.0
  0
ENDBLK
  5
B0
330
AD
100
AcDbEntity
  8
0
100
AcDbBlockEnd
  0
BLOCK
  5
D7
330
D5
100
AcDbEntity
  8
0
100
AcDbBlockBegin
  2
*Paper_Space3
 70
     0
 10
0.0
 20
0.0
 30
0.0
  3
*Paper_Space3
  1

  0
SPLINE
  5
E2
330
D5
100
AcDbEntity
  8
0
  6
Continuous
 62
     7
370
    15
100
AcDbSpline
210
0.0
220
0.0
230
1.0
 70
     8
 71
     3
 72
    18
 73
    14
 74
     0
 42
0.00000001
 43
0.00000001
 12
1.0
 22
0.0
 32
0.0
 13
1.0
 23
0.0
 33
0.0
 40
0.0
 40
0.0
 40
0.0
 40
0.0
 40
0.2500000000000002
 40
0.2500000000000002
 40
0.3750000000000004
 40
0.3750000000000004
 40
0.5000000000000003
 40
0.5000000000000003
 40
0.6250000000000003
 40
0.6250000000000003
 40
0.7500000000000002
 40
0.7500000000000002
 40
1.0
 40
1.0
 40
1.0
 40
1.0
 10
-0.3531760718118765
 20
-1.876388374865946
 30
0.0
 10
-0.5517851961696217
 20
-2.015414761916329
 30
0.0
 10
-0.7279413532449565
 20
-2.160528829852203
 30
0.0
 10
-0.9249840426216213
 20
-2.396417599227072
 30
0.0
 10
-0.9789246019248211
 20
-2.478459641387016
 30
0.0
 10
-1.051854322096519
 20
-2.644230671473118
 30
0.0
 10
-1.071459898992813
 20
-2.728764018862233
 30
0.0
 10
-1.071397168257049
 20
-2.900815842477065
 30
0.0
 10
-1.051787856302103
 20
-2.98515952552777
 30
0.0
 10
-0.9787869534714938
 20
-3.150944160190273
 30
0.0
 10
-0.9247656313870118
 20
-3.233041810484135
 30
0.0
 10
-0.7278085905251184
 20
-3.46872945828234
 30
0.0
 10
-0.5517362633853445
 20
-3.613784615631621
 30
0.0
 10
-0.3531760718119849
 20
-3.752776749732932
 30
0.0
  0
SPLINE
  5
E5
330
D5
100
AcDbEntity
  8
0
  6
Continuous
 62
     7
370
    15
100
AcDbSpline
210
0.0
220
0.0
230
1.0
 70
     8
 71
     3
 72
    20
 73
    16
 74
     0
 42
0.00000001
 43
0.00000001
 12
1.0
 22
0.0
 32
0.0
 13
1.0
 23
0.0
 33
0.0
 40
0.0
 40
0.0
 40
0.0
 40
0.0
 40
0.25
 40
0.25
 40
0.375
 40
0.375
 40
0.5
 40
0.5
 40
0.625
 40
0.625
 40
0.75
 40
0.75
 40
0.875
 40
0.875
 40
1.0
 40
1.0
 40
1.0
 40
1.0
 10
-0.3531760718107542
 20
-1.876388374866403
 30
0.0
 10
-0.5498904140837771
 20
-1.600988295684183
 30
0.0
 10
-0.7290194228201079
 20
-1.305515496165287
 30
0.0
 10
-0.9244215343218085
 20
-0.8376821119593724
 30
0.0
 10
-0.9775578661831404
 20
-0.6771613839055388
 30
0.0
 10
-1.051458071368206
 20
-0.3437721497297184
 30
0.0
 10
-1.071291836801727
 20
-0.1716381882647748
 30
0.0
 10
-1.071563846793518
 20
0.167994113032772
 30
0.0
 10
-1.052217077369689
 20
0.3390777594887032
 30
0.0
 10
-0.9785303821708436
 20
0.6740148931927886
 30
0.0
 10
-0.9253062452695215
 20
0.8353449608625173
 30
0.0
 10
-0.7945292419636479
 20
1.148888204249466
 30
0.0
 10
-0.7164816961015754
 20
1.301893276567285
 30
0.0
 10
-0.5446410179127367
 20
1.597199089664584
 30
0.0
 10
-0.4514157672937087
 20
1.73885280119197
 30
0.0
 10
-0.3531760718115122
 20
1.876388374867006
 30
0.0
  0
SPLINE
  5
E6
330
D5
100
AcDbEntity
  8
0
  6
Continuous
 62
     7
370
    15
100
AcDbSpline
210
0.0
220
0.0
230
1.0
 70
     8
 71
     3
 72
    18
 73
    14
 74
     0
 42
0.00000001
 43
0.00000001
 12
1.0
 22
0.0
 32
0.0
 13
1.0
 23
0.0
 33
0.0
 40
0.0
 40
0.0
 40
0.0
 40
0.0
 40
0.2499999999999999
 40
0.2499999999999999
 40
0.3749999999999998
 40
0.3749999999999998
 40
0.4999999999999998
 40
0.4999999999999998
 40
0.6249999999999998
 40
0.6249999999999998
 40
0.7499999999999998
 40
0.7499999999999998
 40
1.0
 40
1.0
 40
1.0
 40
1.0
 10
-0.3531760718118848
 20
3.752776749732907
 30
0.0
 10
-0.5517851961696304
 20
3.613750362682523
 30
0.0
 10
-0.7279413532449651
 20
3.468636294746649
 30
0.0
 10
-0.9249840426216304
 20
3.232747525371776
 30
0.0
 10
-0.9789246019248311
 20
3.150705483211831
 30
0.0
 10
-1.05185432209653
 20
2.984934453125726
 30
0.0
 10
-1.071459898992821
 20
2.900401105736612
 30
0.0
 10
-1.071397168257057
 20
2.728349282121781
 30
0.0
 10
-1.051787856302111
 20
2.644005599071074
 30
0.0
 10
-0.9787869534715002
 20
2.478220964408571
 30
0.0
 10
-0.9247656313870175
 20
2.396123314114707
 30
0.0
 10
-0.7278085905251223
 20
2.160435666316502
 30
0.0
 10
-0.551736263385348
 20
2.015380508967218
 30
0.0
 10
-0.3531760718119871
 20
1.876388374865906
 30
0.0
  0
LINE
  5
EC
330
D5
100
AcDbEntity
  8
0
  6
Continuous
 62
     7
370
    15
100
AcDbLine
 10
-0.3531760718
 20
3.7527767497
 30
0.0
 11
-4.5
 21
0.85
 31
0.0
  0
LINE
  5
ED
330
D5
100
AcDbEntity
  8
0
  6
Continuous
 62
     7
370
    15
100
AcDbLine
 10
-4.5
 20
-0.85
 30
0.0
 11
-0.3531760718
 21
-3.7527767497
 31
0.0
  0
LINE
  5
EE
330
D5
100
AcDbEntity
  8
0
  6
Continuous
 62
     7
370
    15
100
AcDbLine
 10
8.0
 20
3.0
 30
0.0
 11
3.5
 21
3.0
 31
0.0
  0
LINE
  5
EF
330
D5
100
AcDbEntity
  8
0
  6
Continuous
 62
     7
370
    15
100
AcDbLine
 10
3.5
 20
-3.0
 30
0.0
 11
8.0
 21
-3.0
 31
0.0
  0
LINE
  5
F0
330
D5
100
AcDbEntity
  8
0
  6
Continuous
 62
     7
370
    15
100
AcDbLine
 10
8.0
 20
-3.0
 30
0.0
 11
8.5
 21
-2.5
 31
0.0
  0
LINE
  5
F1
330
D5
100
AcDbEntity
  8
0
  6
Continuous
 62
     7
370
    15
100
AcDbLine
 10
8.5
 20
2.5
 30
0.0
 11
8.0
 21
3.0
 31
0.0
  0
LINE
  5
F2
330
D5
100
AcDbEntity
  8
0
  6
Continuous
 62
     7
370
    15
100
AcDbLine
 10
-0.3531760718
 20
-1.8763883749
 30
0.0
 11
3.5
 21
-1.8763883749
 31
0.0
  0
LINE
  5
F3
330
D5
100
AcDbEntity
  8
0
  6
Continuous
 62
     7
370
    15
100
AcDbLine
 10
3.5
 20
3.7527767497
 30
0.0
 11
3.5
 21
-3.7527767497
 31
0.0
  0
LINE
  5
F4
330
D5
100
AcDbEntity
  8
0
  6
Continuous
 62
     7
370
    15
100
AcDbLine
 10
-0.3531760718
 20
-3.7527767497
 30
0.0
 11
3.5
 21
-3.7527767497
 31
0.0
  0
LINE
  5
F5
330
D5
100
AcDbEntity
  8
0
  6
Continuous
 62
     7
370
    15
100
AcDbLine
 10
-0.3531760718
 20
1.8763883749
 30
0.0
 11
3.5
 21
1.8763883749
 31
0.0
  0
LINE
  5
F6
330
D5
100
AcDbEntity
  8
0
  6
Continuous
 62
     7
370
    15
100
AcDbLine
 10
-4.5
 20
0.85
 30
0.0
 11
-4.5
 21
-0.85
 31
0.0
  0
LINE
  5
F7
330
D5
100
AcDbEntity
  8
0
  6
Continuous
 62
     7
370
    15
100
AcDbLine
 10
-0.3531760718
 20
3.7527767497
 30
0.0
 11
3.5
 21
3.7527767497
 31
0.0
  0
LINE
  5
F8
330
D5
100
AcDbEntity
  8
0
  6
Continuous
 62
     7
370
    15
100
AcDbLine
 10
8.0
 20
-3.0
 30
0.0
 11
8.0
 21
3.0
 31
0.0
  0
LINE
  5
F9
330
D5
100
AcDbEntity
  8
0
  6
Continuous
 62
     7
370
    15
100
AcDbLine
 10
8.5
 20
2.5
 30
0.0
 11
8.5
 21
-2.5
 31
0.0
  0
VIEWPORT
  5
18D
330
D5
100
AcDbEntity
  8
0
100
AcDbViewport
 10
0.0
 20
0.0
 30
0.0
 40
243.84
 41
204.216
 68
     1
 69
     1
 12
-0.0561586749
 22
2.1197176691
 13
0.0
 23
0.0
 14
10.0
 24
10.0
 15
10.0
 25
10.0
 16
0.0
 26
0.0
 36
1.0
 17
0.0
 27
0.0
 37
0.0
 42
50.0
 43
0.0
 44
0.0
 45
13.7037537501
 50
0.0
 51
0.0
 72
   100
 90
   557152
  1

281
     0
 71
     1
 74
     0
110
0.0
120
0.0
130
0.0
111
1.0
121
0.0
131
0.0
112
0.0
122
1.0
132
0.0
 79
     0
146
0.0
  0
ENDBLK
  5
D8
330
D5
100
AcDbEntity
  8
0
100
AcDbBlockEnd
  0
BLOCK
  5
FC
330
FA
100
AcDbEntity
  8
0
100
AcDbBlockBegin
  2
*Paper_Space4
 70
     0
 10
0.0
 20
0.0
 30
0.0
  3
*Paper_Space4
  1

  0
SPLINE
  5
107
330
FA
100
AcDbEntity
  8
0
  6
Continuous
 62
     7
370
    15
100
AcDbSpline
210
0.0
220
0.0
230
1.0
 70
     8
 71
     3
 72
    18
 73
    14
 74
     0
 42
0.00000001
 43
0.00000001
 12
1.0
 22
0.0
 32
0.0
 13
1.0
 23
0.0
 33
0.0
 40
0.0
 40
0.0
 40
0.0
 40
0.0
 40
0.25
 40
0.25
 40
0.3750000000000001
 40
0.3750000000000001
 40
0.5000000000000002
 40
0.5000000000000002
 40
0.6250000000000003
 40
0.6250000000000003
 40
0.7500000000000002
 40
0.7500000000000002
 40
1.0
 40
1.0
 40
1.0
 40
1.0
 10
0.0000000000005927
 20
0.3531760718118852
 30
0.0
 10
-0.2408007659634075
 20
0.5517851961696295
 30
0.0
 10
-0.4921457045213439
 20
0.727941353244963
 30
0.0
 10
-0.9007170380135164
 20
0.9249840426216251
 30
0.0
 10
-1.042818023391249
 20
0.9789246019248254
 30
0.0
 10
-1.329941869923411
 20
1.051854322096522
 30
0.0
 10
-1.476357922535227
 20
1.071459898992814
 30
0.0
 10
-1.774360422570993
 20
1.071397168257047
 30
0.0
 10
-1.920447966912303
 20
1.051787856302101
 30
0.0
 10
-2.207595377262003
 20
0.9787869534714907
 30
0.0
 10
-2.349792678752994
 20
0.9247656313870062
 30
0.0
 10
-2.758015659455883
 20
0.7278085905251114
 30
0.0
 10
-3.00925856188474
 20
0.5517362633853362
 30
0.0
 10
-3.250000000000636
 20
0.3531760718119767
 30
0.0
  0
SPLINE
  5
108
330
FA
100
AcDbEntity
  8
0
  6
Continuous
 62
     7
370
    15
100
AcDbSpline
210
0.0
220
0.0
230
1.0
 70
     8
 71
     3
 72
    18
 73
    14
 74
     0
 42
0.00000001
 43
0.00000001
 12
1.0
 22
0.0
 32
0.0
 13
1.0
 23
0.0
 33
0.0
 40
0.0
 40
0.0
 40
0.0
 40
0.0
 40
0.2500000000000002
 40
0.2500000000000002
 40
0.3750000000000004
 40
0.3750000000000004
 40
0.5000000000000003
 40
0.5000000000000003
 40
0.6250000000000003
 40
0.6250000000000003
 40
0.7500000000000002
 40
0.7500000000000002
 40
1.0
 40
1.0
 40
1.0
 40
1.0
 10
3.250000000000593
 20
0.3531760718118765
 30
0.0
 10
3.009199234036594
 20
0.5517851961696217
 30
0.0
 10
2.757854295478658
 20
0.7279413532449565
 30
0.0
 10
2.349282961986486
 20
0.9249840426216213
 30
0.0
 10
2.207181976608754
 20
0.9789246019248211
 30
0.0
 10
1.920058130076592
 20
1.051854322096519
 30
0.0
 10
1.773642077464775
 20
1.071459898992813
 30
0.0
 10
1.47563957742901
 20
1.071397168257049
 30
0.0
 10
1.3295520330877
 20
1.051787856302103
 30
0.0
 10
1.042404622738001
 20
0.9787869534714938
 30
0.0
 10
0.9002073212470088
 20
0.9247656313870118
 30
0.0
 10
0.4919843405441181
 20
0.7278085905251184
 30
0.0
 10
0.2407414381152621
 20
0.5517362633853445
 30
0.0
 10
-0.0000000000006361
 20
0.3531760718119849
 30
0.0
  0
SPLINE
  5
109
330
FA
100
AcDbEntity
  8
0
  6
Continuous
 62
     7
370
    15
100
AcDbSpline
210
0.0
220
0.0
230
1.0
 70
    24
 71
     3
 72
    15
 73
    11
 74
     0
 42
0.00000001
 43
0.00000001
 12
1.0
 22
0.0
 32
0.0
 13
1.0
 23
0.0
 33
0.0
 40
0.0
 40
0.0
 40
0.0
 40
0.0
 40
0.1253204657414379
 40
0.2509011667223341
 40
0.3893776824711703
 40
0.5285772226031842
 40
0.670885990574552
 40
0.8147655999099094
 40
0.9116868121300483
 40
1.0
 40
1.0
 40
1.0
 40
1.0
 10
-3.25
 20
0.3531760718106141
 30
0.0
 10
-3.250000000000001
 20
0.4019738918296756
 30
0.0
 10
-3.25
 20
0.499670863380593
 30
0.0
 10
-3.25
 20
0.6386958706222118
 30
0.0
 10
-3.25
 20
0.7695214138239681
 30
0.0
 10
-3.25
 20
0.8865895368391488
 30
0.0
 10
-3.250000000000001
 20
0.981210751189461
 30
0.0
 10
-3.25
 20
1.03875755491207
 30
0.0
 10
-3.25
 20
1.067342372928316
 30
0.0
 10
-3.25
 20
1.069599707018875
 30
0.0
 10
-3.25
 20
1.070675923798954
 30
0.0
  0
SPLINE
  5
10A
330
FA
100
AcDbEntity
  8
0
  6
Continuous
 62
     7
370
    15
100
AcDbSpline
210
0.0
220
0.0
230
1.0
 70
    24
 71
     3
 72
    15
 73
    11
 74
     0
 42
0.00000001
 43
0.00000001
 12
1.0
 22
0.0
 32
0.0
 13
1.0
 23
0.0
 33
0.0
 40
0.0
 40
0.0
 40
0.0
 40
0.0
 40
0.0845294386207553
 40
0.1852263755600169
 40
0.3228470926135754
 40
0.4620418034050547
 40
0.6051109766660923
 40
0.7490978162050161
 40
0.8744030027362004
 40
1.0
 40
1.0
 40
1.0
 40
1.0
 10
3.25
 20
1.070239597285702
 30
0.0
 10
3.25
 20
1.06945184078608
 30
0.0
 10
3.250000000000001
 20
1.067725657770677
 30
0.0
 10
3.25
 20
1.03979633727066
 30
0.0
 10
3.250000000000001
 20
0.9838377943136457
 30
0.0
 10
3.250000000000001
 20
0.891932743089594
 30
0.0
 10
3.25
 20
0.7742473553446292
 30
0.0
 10
3.250000000000001
 20
0.6407530608926116
 30
0.0
 10
3.25
 20
0.4997738602797379
 30
0.0
 10
3.250000000000001
 20
0.4020798754934196
 30
0.0
 10
3.250000000000001
 20
0.3531760718106149
 30
0.0
  0
LINE
  5
110
330
FA
100
AcDbEntity
  8
0
  6
Continuous
 62
     7
370
    15
100
AcDbLine
 10
3.25
 20
1.0714285714
 30
0.0
 11
0.85
 21
4.5
 31
0.0
  0
LINE
  5
111
330
FA
100
AcDbEntity
  8
0
  6
Continuous
 62
     7
370
    15
100
AcDbLine
 10
-0.85
 20
4.5
 30
0.0
 11
-3.25
 21
1.0714285714
 31
0.0
  0
LINE
  5
112
330
FA
100
AcDbEntity
  8
0
  6
Continuous
 62
     7
370
    15
100
AcDbLine
 10
3.0
 20
-8.0
 30
0.0
 11
3.0
 21
-3.5
 31
0.0
  0
LINE
  5
113
330
FA
100
AcDbEntity
  8
0
  6
Continuous
 62
     7
370
    15
100
AcDbLine
 10
-3.0
 20
-3.5
 30
0.0
 11
-3.0
 21
-8.0
 31
0.0
  0
LINE
  5
114
330
FA
100
AcDbEntity
  8
0
  6
Continuous
 62
     7
370
    15
100
AcDbLine
 10
-3.0
 20
-8.0
 30
0.0
 11
-2.5
 21
-8.5
 31
0.0
  0
LINE
  5
115
330
FA
100
AcDbEntity
  8
0
  6
Continuous
 62
     7
370
    15
100
AcDbLine
 10
2.5
 20
-8.5
 30
0.0
 11
3.0
 21
-8.0
 31
0.0
  0
LINE
  5
116
330
FA
100
AcDbEntity
  8
0
  6
Continuous
 62
     7
370
    15
100
AcDbLine
 10
0.0
 20
0.3531760718
 30
0.0
 11
0.0
 21
-3.5
 31
0.0
  0
LINE
  5
117
330
FA
100
AcDbEntity
  8
0
  6
Continuous
 62
     7
370
    15
100
AcDbLine
 10
3.25
 20
-3.5
 30
0.0
 11
-3.25
 21
-3.5
 31
0.0
  0
LINE
  5
118
330
FA
100
AcDbEntity
  8
0
  6
Continuous
 62
     7
370
    15
100
AcDbLine
 10
-3.25
 20
0.3531760718
 30
0.0
 11
-3.25
 21
-3.5
 31
0.0
  0
LINE
  5
119
330
FA
100
AcDbEntity
  8
0
  6
Continuous
 62
     7
370
    15
100
AcDbLine
 10
0.85
 20
4.5
 30
0.0
 11
-0.85
 21
4.5
 31
0.0
  0
LINE
  5
11A
330
FA
100
AcDbEntity
  8
0
  6
Continuous
 62
     7
370
    15
100
AcDbLine
 10
3.25
 20
0.3531760718
 30
0.0
 11
3.25
 21
-3.5
 31
0.0
  0
LINE
  5
11B
330
FA
100
AcDbEntity
  8
0
  6
Continuous
 62
     7
370
    15
100
AcDbLine
 10
-3.0
 20
-8.0
 30
0.0
 11
3.0
 21
-8.0
 31
0.0
  0
LINE
  5
11C
330
FA
100
AcDbEntity
  8
0
  6
Continuous
 62
     7
370
    15
100
AcDbLine
 10
2.5
 20
-8.5
 30
0.0
 11
-2.5
 21
-8.5
 31
0.0
  0
VIEWPORT
  5
18E
330
FA
100
AcDbEntity
  8
0
100
AcDbViewport
 10
0.0
 20
0.0
 30
0.0
 40
243.84
 41
204.216
 68
     1
 69
     1
 12
-0.0561586749
 22
2.1197176691
 13
0.0
 23
0.0
 14
10.0
 24
10.0
 15
10.0
 25
10.0
 16
0.0
 26
0.0
 36
1.0
 17
0.0
 27
0.0
 37
0.0
 42
50.0
 43
0.0
 44
0.0
 45
13.7037537501
 50
0.0
 51
0.0
 72
   100
 90
   557152
  1

281
     0
 71
     1
 74
     0
110
0.0
120
0.0
130
0.0
111
1.0
121
0.0
131
0.0
112
0.0
122
1.0
132
0.0
 79
     0
146
0.0
  0
ENDBLK
  5
FD
330
FA
100
AcDbEntity
  8
0
100
AcDbBlockEnd
  0
BLOCK
  5
11F
330
11D
100
AcDbEntity
  8
0
100
AcDbBlockBegin
  2
*Paper_Space5
 70
     0
 10
0.0
 20
0.0
 30
0.0
  3
*Paper_Space5
  1

  0
SPLINE
  5
127
330
11D
100
AcDbEntity
  8
0
  6
Continuous
 62
     7
370
    15
100
AcDbSpline
210
0.0
220
0.0
230
1.0
 70
     8
 71
     3
 72
    20
 73
    16
 74
     0
 42
0.00000001
 43
0.00000001
 12
1.0
 22
0.0
 32
0.0
 13
1.0
 23
0.0
 33
0.0
 40
0.0
 40
0.0
 40
0.0
 40
0.0
 40
0.1023791282446721
 40
0.2050619703184357
 40
0.3090826982056658
 40
0.4138175338652844
 40
0.483646938415113
 40
0.5538712327748606
 40
0.6255200473928807
 40
0.6977429590772
 40
0.7675977195953387
 40
0.8380023210001765
 40
0.9099927989700315
 40
0.9824551754912565
 40
1.0
 40
1.0
 40
1.0
 40
1.0
 10
2.048363843526162
 20
-3.002978773702139
 30
0.0
 10
1.958267292194441
 20
-3.030597580402425
 30
0.0
 10
1.777806912703561
 20
-3.08591712665085
 30
0.0
 10
1.510986786332137
 20
-3.162951354401709
 30
0.0
 10
1.248515101503305
 20
-3.234017006602737
 30
0.0
 10
1.022547540768796
 20
-3.289535928525002
 30
0.0
 10
0.8334752565604518
 20
-3.330848373893607
 30
0.0
 10
0.6781415795758043
 20
-3.360610998894894
 30
0.0
 10
0.531262348141784
 20
-3.383848879990364
 30
0.0
 10
0.3967126881708413
 20
-3.399524552582747
 30
0.0
 10
0.276329425494022
 20
-3.407373489234509
 30
0.0
 10
0.1695144941020821
 20
-3.407875520377595
 30
0.0
 10
0.0772144398345686
 20
-3.400347878301156
 30
0.0
 10
0.0138960727648603
 20
-3.391488885774185
 30
0.0
 10
-0.012397165367868
 20
-3.382480904900927
 30
0.0
 10
-0.0175224247196358
 20
-3.380725007130628
 30
0.0
  0
SPLINE
  5
128
330
11D
100
AcDbEntity
  8
0
  6
Continuous
 62
     7
370
    15
100
AcDbSpline
210
0.0
220
0.0
230
1.0
 70
     8
 71
     3
 72
    12
 73
     8
 74
     0
 42
0.00000001
 43
0.00000001
 12
1.0
 22
0.0
 32
0.0
 13
1.0
 23
0.0
 33
0.0
 40
0.0
 40
0.0
 40
0.0
 40
0.0
 40
0.0086858469967933
 40
0.2317955148951087
 40
0.4560481021593964
 40
0.7275281930160395
 40
1.0
 40
1.0
 40
1.0
 40
1.0
 10
-2.934558424389665
 20
1.685909130177319
 30
0.0
 10
-2.933827904506913
 20
1.68886806370826
 30
0.0
 10
-2.914332830229641
 20
1.76783186788279
 30
0.0
 10
-2.863215790191803
 20
1.925222357119641
 30
0.0
 10
-2.776955153163918
 20
2.172498018388083
 30
0.0
 10
-2.671840796700184
 20
2.436500033450685
 30
0.0
 10
-2.589217300551023
 20
2.621816032883805
 30
0.0
 10
-2.547830234186395
 20
2.714642963774259
 30
0.0
  0
SPLINE
  5
129
330
11D
100
AcDbEntity
  8
0
  6
Continuous
 62
     7
370
    15
100
AcDbSpline
210
0.0
220
0.0
230
1.0
 70
     8
 71
     3
 72
    18
 73
    14
 74
     0
 42
0.00000001
 43
0.00000001
 12
1.0
 22
0.0
 32
0.0
 13
1.0
 23
0.0
 33
0.0
 40
0.0
 40
0.0
 40
0.0
 40
0.0
 40
0.2499999999999999
 40
0.2499999999999999
 40
0.3749999999999999
 40
0.3749999999999999
 40
0.5
 40
0.5
 40
0.625
 40
0.625
 40
0.7500000000000001
 40
0.7500000000000001
 40
1.0
 40
1.0
 40
1.0
 40
1.0
 10
-2.547830234187707
 20
2.714642963773706
 30
0.0
 10
-2.517996238298533
 20
2.648794783292469
 30
0.0
 10
-2.464829741043033
 20
2.592778660996822
 30
0.0
 10
-2.315256402373761
 20
2.538177367805059
 30
0.0
 10
-2.252917567264166
 20
2.525143089853223
 30
0.0
 10
-2.101459448024354
 20
2.513526575073002
 30
0.0
 10
-2.011790900720414
 20
2.514780800647309
 30
0.0
 10
-1.801026954805932
 20
2.533647914142632
 30
0.0
 10
-1.683861584097557
 20
2.550889046133679
 30
0.0
 10
-1.429198269614862
 20
2.598843493390638
 30
0.0
 10
-1.290450750289554
 20
2.629885782987808
 30
0.0
 10
-0.8625238532024733
 20
2.73609475275338
 30
0.0
 10
-0.560366356670208
 20
2.823853274985385
 30
0.0
 10
-0.2497331953306319
 20
2.920127469088142
 30
0.0
  0
SPLINE
  5
12A
330
11D
100
AcDbEntity
  8
0
  6
Continuous
 62
     7
370
    15
100
AcDbSpline
210
0.0
220
0.0
230
1.0
 70
     8
 71
     3
 72
    18
 73
    14
 74
     0
 42
0.00000001
 43
0.00000001
 12
1.0
 22
0.0
 32
0.0
 13
1.0
 23
0.0
 33
0.0
 40
0.0
 40
0.0
 40
0.0
 40
0.0
 40
0.2499999999999999
 40
0.2499999999999999
 40
0.3749999999999998
 40
0.3749999999999998
 40
0.4999999999999998
 40
0.4999999999999998
 40
0.6249999999999998
 40
0.6249999999999998
 40
0.7499999999999998
 40
0.7499999999999998
 40
1.0
 40
1.0
 40
1.0
 40
1.0
 10
-0.2497331953314303
 20
2.920127469088665
 30
0.0
 10
-0.2198991994422559
 20
2.627237850696101
 30
0.0
 10
-0.1667327021867553
 20
2.33423861070365
 30
0.0
 10
-0.0171593635174851
 20
1.89441170299171
 30
0.0
 10
0.0451794715921104
 20
1.747396073611779
 30
0.0
 10
0.1966375908319224
 20
1.465061935844269
 30
0.0
 10
0.2863061381358611
 20
1.32826630520152
 30
0.0
 10
0.4970700840503428
 20
1.066158747215087
 30
0.0
 10
0.6142354547587191
 20
0.9456597603348161
 30
0.0
 10
0.868898769241413
 20
0.7228743672207688
 30
0.0
 10
1.007646288566721
 20
0.6198444927682123
 30
0.0
 10
1.4355731856538
 20
0.3411562959646052
 30
0.0
 10
1.737730682186066
 20
0.1920279062962119
 30
0.0
 10
2.048363843525642
 20
0.0613166003493329
 30
0.0
  0
SPLINE
  5
12B
330
11D
100
AcDbEntity
  8
0
  6
Continuous
 62
     7
370
    15
100
AcDbSpline
210
0.0
220
0.0
230
1.0
 70
     8
 71
     3
 72
    20
 73
    16
 74
     0
 42
0.00000001
 43
0.00000001
 12
1.0
 22
0.0
 32
0.0
 13
1.0
 23
0.0
 33
0.0
 40
0.0
 40
0.0
 40
0.0
 40
0.0
 40
0.25
 40
0.25
 40
0.375
 40
0.375
 40
0.5
 40
0.5
 40
0.625
 40
0.625
 40
0.75
 40
0.75
 40
0.875
 40
0.875
 40
1.0
 40
1.0
 40
1.0
 40
1.0
 10
2.048363843526064
 20
-3.002978773702289
 30
0.0
 10
1.909265798148157
 20
-2.858402961825222
 30
0.0
 10
1.782602461363474
 20
-2.690258550113457
 30
0.0
 10
1.644432303262451
 20
-2.388017433195339
 30
0.0
 10
1.606859242675925
 20
-2.278636173767818
 30
0.0
 10
1.554603906458487
 20
-2.03657662130915
 30
0.0
 10
1.54057931642398
 20
-1.904118440155412
 30
0.0
 10
1.540386976314235
 20
-1.626905840693185
 30
0.0
 10
1.554067208167877
 20
-1.479311631368095
 30
0.0
 10
1.606171570026207
 20
-1.175742584435803
 30
0.0
 10
1.643806718151933
 20
-1.022283691443679
 30
0.0
 10
1.736280024012772
 20
-0.7128791337578191
 30
0.0
 10
1.791467972946812
 20
-0.556084923009963
 30
0.0
 10
1.912977681777835
 20
-0.2448096128216714
 30
0.0
 10
1.978897888668365
 20
-0.0910886507884306
 30
0.0
 10
2.048363843525528
 20
0.0613166003506844
 30
0.0
  0
LWPOLYLINE
  5
12C
330
11D
100
AcDbEntity
  8
0
  6
Continuous
 62
     7
370
    15
100
AcDbPolyline
 90
       55
 70
   128
 43
0.0
 10
-3.7830212793
 20
-1.4899448041
 10
-3.7789572567
 20
-1.4117155024
 10
-3.7668201478
 20
-1.3392363385
 10
-3.7467740861
 20
-1.2734874687
 10
-3.7190901602
 20
-1.2153580336
 10
-3.6841427478
 20
-1.1656341343
 10
-3.6424044527
 20
-1.124988201
 10
-3.5944397137
 20
-1.0939699004
 10
-3.5408971715
 20
-1.0729987017
 10
-3.4825008973
 20
-1.0623582045
 10
-3.4200406005
 20
-1.0621923031
 10
-3.3543609494
 20
-1.0725032411
 10
-3.2863501487
 20
-1.0931515809
 10
-3.2169279277
 20
-1.1238580889
 10
-3.1470331029
 20
-1.1642075124
 10
-3.077610882
 20
-1.2136541946
 10
-3.0096000812
 20
-1.271529454
 10
-2.9439204302
 20
-1.3370506269
 10
-2.8814601333
 20
-1.409331652
 10
-2.8230638591
 20
-1.4873950523
 10
-2.769521317
 20
-1.5701851543
 10
-2.721556578
 20
-1.6565823638
 10
-2.6798182828
 20
-1.7454183069
 10
-2.6448708705
 20
-1.8354916297
 10
-2.6171869446
 20
-1.9255842452
 10
-2.5971408829
 20
-2.0144778052
 10
-2.585003774
 20
-2.1009701768
 10
-2.5809397513
 20
-2.1838916991
 10
-2.585003774
 20
-2.2621210008
 10
-2.5971408829
 20
-2.3346001647
 10
-2.6171869446
 20
-2.4003490345
 10
-2.6448708705
 20
-2.4584784696
 10
-2.6798182828
 20
-2.5082023689
 10
-2.721556578
 20
-2.5488483022
 10
-2.769521317
 20
-2.5798666028
 10
-2.8230638591
 20
-2.6008378015
 10
-2.8814601333
 20
-2.6114782987
 10
-2.9439204302
 20
-2.6116442001
 10
-3.0096000812
 20
-2.6013332621
 10
-3.077610882
 20
-2.5806849223
 10
-3.1470331029
 20
-2.5499784143
 10
-3.2169279277
 20
-2.5096289908
 10
-3.2863501487
 20
-2.4601823086
 10
-3.3543609494
 20
-2.4023070492
 10
-3.4200406005
 20
-2.3367858763
 10
-3.4825008973
 20
-2.2645048512
 10
-3.5408971715
 20
-2.1864414509
 10
-3.5944397137
 20
-2.1036513489
 10
-3.6424044527
 20
-2.0172541394
 10
-3.6841427478
 20
-1.9284181963
 10
-3.7190901602
 20
-1.8383448735
 10
-3.7467740861
 20
-1.748252258
 10
-3.7668201478
 20
-1.659358698
 10
-3.7789572567
 20
-1.5728663264
 10
-3.7830212793
 20
-1.4899448041
  0
LWPOLYLINE
  5
130
330
11D
100
AcDbEntity
  8
0
  6
Continuous
 62
     7
370
    15
100
AcDbPolyline
 90
       19
 70
   128
 43
0.0
 10
-3.1112698372
 20
-1.8777386572
 10
-3.1155342129
 20
-1.847349545
 10
-3.1278129933
 20
-1.8157022648
 10
-3.1466251763
 20
-1.7866139458
 10
-3.1697017349
 20
-1.7635930684
 10
-3.1942592957
 20
-1.7494162903
 10
-3.2173358544
 20
-1.7457935402
 10
-3.2361480374
 20
-1.7531617751
 10
-3.2484268178
 20
-1.7706322771
 10
-3.2526911935
 20
-1.796097846
 10
-3.2484268178
 20
-1.8264869582
 10
-3.2361480374
 20
-1.8581342384
 10
-3.2173358544
 20
-1.8872225574
 10
-3.1942592957
 20
-1.9102434348
 10
-3.1697017349
 20
-1.9244202129
 10
-3.1466251763
 20
-1.928042963
 10
-3.1278129933
 20
-1.9206747281
 10
-3.1155342129
 20
-1.9032042261
 10
-3.1112698372
 20
-1.8777386572
  0
LWPOLYLINE
  5
135
330
11D
100
AcDbEntity
  8
0
  6
Continuous
 62
     7
370
    15
100
AcDbPolyline
 90
       53
 70
   128
 43
0.0
 10
7.1567323484
 20
0.6674858601
 10
7.2245288997
 20
0.7103331717
 10
7.3095337215
 20
0.7758342757
 10
7.388269364
 20
0.850780037
 10
7.460437156
 20
0.9348861606
 10
7.5257633402
 20
1.0278336033
 10
7.584000112
 20
1.1292697834
 10
7.6349265595
 20
1.2388099189
 10
7.6783495012
 20
1.3560384865
 10
7.714104219
 20
1.480510798
 10
7.742055083
 20
1.6117546875
 10
7.762096066
 20
1.7492723017
 10
7.7741511457
 20
1.8925419894
 10
7.7781745931
 20
2.0410202796
 10
7.7741511457
 20
2.1941439431
 10
7.762096066
 20
2.3513321295
 10
7.742055083
 20
2.5119885702
 10
7.714104219
 20
2.6755038403
 10
7.6783495012
 20
2.8412576704
 10
7.6349265595
 20
3.0086212993
 10
7.584000112
 20
3.1769598595
 10
7.5257633402
 20
3.3456347852
 10
7.460437156
 20
3.5140062347
 10
7.388269364
 20
3.6814355173
 10
7.3095337215
 20
3.8472875164
 10
7.2245288997
 20
4.0109330987
 10
7.1335773509
 20
4.1717515003
 10
7.0370240856
 20
4.3291326819
 10
6.9352353634
 20
4.4824796429
 10
6.8285973037
 20
4.6312106856
 10
6.7175144213
 20
4.7747616224
 10
6.6024080915
 20
4.9125879153
 10
6.4837149521
 20
5.0441667419
 10
6.3618852469
 20
5.1689989788
 10
6.2373811176
 20
5.2866110945
 10
6.1106748511
 20
5.3965569459
 10
5.9822470875
 20
5.4984194708
 10
5.8525849975
 20
5.5918122698
 10
5.7221804337
 20
5.6763810719
 10
5.5915280653
 20
5.7518050787
 10
5.4611235015
 20
5.8177981812
 10
5.3314614115
 20
5.8741100448
 10
5.2030336479
 20
5.9205270595
 10
5.0763273814
 20
5.9568731495
 10
4.9518232521
 20
5.9830104417
 10
4.8299935468
 20
5.9988397884
 10
4.7113004075
 20
6.0043011435
 10
4.5961940777
 20
5.9993737901
 10
4.4851111953
 20
5.9840764195
 10
4.3784731356
 20
5.9584670597
 10
4.2766844134
 20
5.9226428559
 10
4.1801311481
 20
5.8767397015
 10
4.1569761505
 20
5.8637790344
  0
LINE
  5
137
330
11D
100
AcDbEntity
  8
0
  6
Continuous
 62
     7
370
    15
100
AcDbLine
 10
-2.9345261361
 20
1.6869352749
 30
0.0
 11
-3.7616248524
 21
-1.3187567676
 31
0.0
  0
LINE
  5
138
330
11D
100
AcDbEntity
  8
0
  6
Continuous
 62
     7
370
    15
100
AcDbLine
 10
-3.0231330934
 20
-2.5980006239
 30
0.0
 11
-0.0178532465
 21
-3.3819193687
 31
0.0
  0
LINE
  5
139
330
11D
100
AcDbEntity
  8
0
  6
Continuous
 62
     7
370
    15
100
AcDbLine
 10
4.1569761505
 20
5.8637790344
 30
0.0
 11
1.6555771105
 21
4.4197521056
 31
0.0
  0
LINE
  5
13A
330
11D
100
AcDbEntity
  8
0
  6
Continuous
 62
     7
370
    15
100
AcDbLine
 10
4.772970773
 20
-0.7086304059
 30
0.0
 11
7.1567323484
 21
0.6674858601
 31
0.0
  0
LINE
  5
13B
330
11D
100
AcDbEntity
  8
0
  6
Continuous
 62
     7
370
    15
100
AcDbLine
 10
7.7781745931
 20
2.0410202796
 30
0.0
 11
7.7781745931
 21
2.4492243355
 31
0.0
  0
LINE
  5
13C
330
11D
100
AcDbEntity
  8
0
  6
Continuous
 62
     7
370
    15
100
AcDbLine
 10
6.0106949519
 20
5.5109206164
 30
0.0
 11
5.6571990237
 21
5.7150558167
 31
0.0
  0
LINE
  5
13D
330
11D
100
AcDbEntity
  8
0
  6
Continuous
 62
     7
370
    15
100
AcDbLine
 10
-0.2497331953
 20
2.9201274691
 30
0.0
 11
2.4748737342
 21
4.4930095697
 31
0.0
  0
LINE
  5
13E
330
11D
100
AcDbEntity
  8
0
  6
Continuous
 62
     7
370
    15
100
AcDbLine
 10
2.4748737342
 20
4.4930095697
 30
0.0
 11
4.772970773
 21
1.634198701
 31
0.0
  0
LINE
  5
13F
330
11D
100
AcDbEntity
  8
0
  6
Continuous
 62
     7
370
    15
100
AcDbLine
 10
2.0483638435
 20
0.0613166004
 30
0.0
 11
4.772970773
 21
1.634198701
 31
0.0
  0
LINE
  5
140
330
11D
100
AcDbEntity
  8
0
  6
Continuous
 62
     7
370
    15
100
AcDbLine
 10
4.772970773
 20
1.634198701
 30
0.0
 11
4.772970773
 21
-1.430096673
 31
0.0
  0
LINE
  5
141
330
11D
100
AcDbEntity
  8
0
  6
Continuous
 62
     7
370
    15
100
AcDbLine
 10
2.0483638435
 20
-3.0029787737
 30
0.0
 11
4.772970773
 21
-1.430096673
 31
0.0
  0
LINE
  5
142
330
11D
100
AcDbEntity
  8
0
  6
Continuous
 62
     7
370
    15
100
AcDbLine
 10
-2.5478302342
 20
2.7146429638
 30
0.0
 11
0.1767766953
 21
4.2875250644
 31
0.0
  0
LINE
  5
143
330
11D
100
AcDbEntity
  8
0
  6
Continuous
 62
     7
370
    15
100
AcDbLine
 10
0.1767766953
 20
4.2875250644
 30
0.0
 11
2.4748737342
 21
4.4930095697
 31
0.0
  0
ARC
  5
144
330
11D
100
AcDbEntity
  8
0
  6
Continuous
 62
     7
370
    15
100
AcDbCircle
 10
3.9441967565
 20
2.2769363216
 30
0.0
 40
3.837846949900852
100
AcDbArc
 50
2.572977711
 51
57.4216457563
  0
VIEWPORT
  5
18F
330
11D
100
AcDbEntity
  8
0
100
AcDbViewport
 10
0.0
 20
0.0
 30
0.0
 40
243.84
 41
204.216
 68
     1
 69
     1
 12
-0.0561586749
 22
2.1197176691
 13
0.0
 23
0.0
 14
10.0
 24
10.0
 15
10.0
 25
10.0
 16
0.0
 26
0.0
 36
1.0
 17
0.0
 27
0.0
 37
0.0
 42
50.0
 43
0.0
 44
0.0
 45
13.7037537501
 50
0.0
 51
0.0
 72
   100
 90
   557152
  1

281
     0
 71
     1
 74
     0
110
0.0
120
0.0
130
0.0
111
1.0
121
0.0
131
0.0
112
0.0
122
1.0
132
0.0
 79
     0
146
0.0
  0
ENDBLK
  5
120
330
11D
100
AcDbEntity
  8
0
100
AcDbBlockEnd
  0
BLOCK
  5
147
330
145
100
AcDbEntity
  8
0
100
AcDbBlockBegin
  2
*Paper_Space6
 70
     0
 10
0.0
 20
0.0
 30
0.0
  3
*Paper_Space6
  1

  0
SPLINE
  5
14D
330
145
100
AcDbEntity
  8
0
  6
Continuous
 62
     7
370
    15
100
AcDbSpline
210
0.0
220
0.0
230
1.0
 70
     8
 71
     3
 72
    18
 73
    14
 74
     0
 42
0.00000001
 43
0.00000001
 12
1.0
 22
0.0
 32
0.0
 13
1.0
 23
0.0
 33
0.0
 40
0.0
 40
0.0
 40
0.0
 40
0.0
 40
0.2500000000000002
 40
0.2500000000000002
 40
0.3750000000000004
 40
0.3750000000000004
 40
0.5000000000000003
 40
0.5000000000000003
 40
0.6250000000000003
 40
0.6250000000000003
 40
0.7500000000000002
 40
0.7500000000000002
 40
1.0
 40
1.0
 40
1.0
 40
1.0
 10
2.709533251257109
 20
-2.550442797773657
 30
0.0
 10
2.403874727587547
 20
-2.702199624114956
 30
0.0
 10
2.099369442896312
 20
-2.846412623142545
 30
0.0
 10
1.646062637003458
 20
-3.040156868472508
 30
0.0
 10
1.495212140124062
 20
-3.10089480440372
 30
0.0
 10
1.207238642965199
 20
-3.207193674942368
 30
0.0
 10
1.06859580039602
 20
-3.25338998752094
 30
0.0
 10
0.8050662652043381
 20
-3.329208972795459
 30
0.0
 10
0.6850153691069943
 20
-3.357458938416819
 30
0.0
 10
0.4651261805397545
 20
-3.397291093269303
 30
0.0
 10
0.3645758121682265
 20
-3.408875934202204
 30
0.0
 10
0.0954549531369732
 20
-3.42306109102093
 30
0.0
 10
-0.0445766795196213
 20
-3.406804872812483
 30
0.0
 10
-0.1648256441956484
 20
-3.377632398404264
 30
0.0
  0
SPLINE
  5
14F
330
145
100
AcDbEntity
  8
0
  6
Continuous
 62
     7
370
    15
100
AcDbSpline
210
0.0
220
0.0
230
1.0
 70
     8
 71
     3
 72
    20
 73
    16
 74
     0
 42
0.00000001
 43
0.00000001
 12
1.0
 22
0.0
 32
0.0
 13
1.0
 23
0.0
 33
0.0
 40
0.0
 40
0.0
 40
0.0
 40
0.0
 40
0.0109940576905145
 40
0.106648448703989
 40
0.2033586978785111
 40
0.2685053481050832
 40
0.3341290580317773
 40
0.4012874304740094
 40
0.4689728446675289
 40
0.549624559344278
 40
0.6309621899404052
 40
0.7140195164144392
 40
0.7975023189684982
 40
0.8985665657574687
 40
1.0
 40
1.0
 40
1.0
 40
1.0
 10
-3.279567315036287
 20
-0.4446446449116142
 30
0.0
 10
-3.281701690548149
 20
-0.4380262295377726
 30
0.0
 10
-3.302406315146236
 20
-0.3738239347737725
 30
0.0
 10
-3.33155450326394
 20
-0.2333645931451278
 30
0.0
 10
-3.359444701042893
 20
-0.0427527252818983
 30
0.0
 10
-3.372386395701115
 20
0.1409393598410195
 30
0.0
 10
-3.375749959392912
 20
0.3095485725260927
 30
0.0
 10
-3.370678221962897
 20
0.4884996382399625
 30
0.0
 10
-3.356272038055691
 20
0.687960688422692
 30
0.0
 10
-3.331088476211601
 20
0.9067852044778386
 30
0.0
 10
-3.294137036175564
 20
1.144700458176962
 30
0.0
 10
-3.248006219316345
 20
1.387731845006751
 30
0.0
 10
-3.190188647725162
 20
1.650900533181209
 30
0.0
 10
-3.12109190308483
 20
1.931956990121729
 30
0.0
 10
-3.066520158626226
 20
2.129660870444174
 30
0.0
 10
-3.03918453964607
 20
2.228693034378241
 30
0.0
  0
SPLINE
  5
150
330
145
100
AcDbEntity
  8
0
  6
Continuous
 62
     7
370
    15
100
AcDbSpline
210
0.0
220
0.0
230
1.0
 70
     8
 71
     3
 72
    18
 73
    14
 74
     0
 42
0.00000001
 43
0.00000001
 12
1.0
 22
0.0
 32
0.0
 13
1.0
 23
0.0
 33
0.0
 40
0.0
 40
0.0
 40
0.0
 40
0.0
 40
0.2499999999999999
 40
0.2499999999999999
 40
0.3749999999999999
 40
0.3749999999999999
 40
0.5
 40
0.5
 40
0.625
 40
0.625
 40
0.7500000000000001
 40
0.7500000000000001
 40
1.0
 40
1.0
 40
1.0
 40
1.0
 10
-3.039184539647184
 20
2.228693034377515
 30
0.0
 10
-2.918905941052016
 20
2.199513370761889
 30
0.0
 10
-2.778823188838178
 20
2.183244937485792
 30
0.0
 10
-2.509434212054258
 20
2.197479743343741
 30
0.0
 10
-2.408931335781087
 20
2.20907685808562
 30
0.0
 10
-2.189029766862407
 20
2.248935439820423
 30
0.0
 10
-2.068686588962855
 20
2.277270718679285
 30
0.0
 10
-1.805098501480922
 20
2.353146852784091
 30
0.0
 10
-1.666744454444649
 20
2.399261254830879
 30
0.0
 10
-1.378716896399854
 20
2.505598547171737
 30
0.0
 10
-1.227743524186859
 20
2.566397785642549
 30
0.0
 10
-0.7747847795804947
 20
2.760014354593497
 30
0.0
 10
-0.4704088605352638
 20
2.904163198107364
 30
0.0
 10
-0.164825644194523
 20
3.05588263500804
 30
0.0
  0
SPLINE
  5
151
330
145
100
AcDbEntity
  8
0
  6
Continuous
 62
     7
370
    15
100
AcDbSpline
210
0.0
220
0.0
230
1.0
 70
     8
 71
     3
 72
    18
 73
    14
 74
     0
 42
0.00000001
 43
0.00000001
 12
1.0
 22
0.0
 32
0.0
 13
1.0
 23
0.0
 33
0.0
 40
0.0
 40
0.0
 40
0.0
 40
0.0
 40
0.2499999999999999
 40
0.2499999999999999
 40
0.3749999999999998
 40
0.3749999999999998
 40
0.4999999999999998
 40
0.4999999999999998
 40
0.6249999999999998
 40
0.6249999999999998
 40
0.7499999999999998
 40
0.7499999999999998
 40
1.0
 40
1.0
 40
1.0
 40
1.0
 10
-0.1648256441955634
 20
3.05588263500836
 30
0.0
 10
-0.0445470456003952
 20
2.788365225564039
 30
0.0
 10
0.0955357066134433
 20
2.523322724474943
 30
0.0
 10
0.3649246833973613
 20
2.133165250910878
 30
0.0
 10
0.4654275596705332
 20
2.004114854008094
 30
0.0
 10
0.6853291285892128
 20
1.759786422955859
 30
0.0
 10
0.8056723064887642
 20
1.643203259413035
 30
0.0
 10
1.069260393970697
 20
1.424124999060232
 30
0.0
 10
1.207614441006971
 20
1.325646106843318
 30
0.0
 10
1.495641999051766
 20
1.14777306360108
 30
0.0
 10
1.646615371264761
 20
1.067829459479137
 30
0.0
 10
2.099574115871124
 20
0.8573985386860377
 30
0.0
 10
2.403950034916356
 20
0.7528743068438866
 30
0.0
 10
2.709533251257096
 20
0.6663147189316623
 30
0.0
  0
SPLINE
  5
152
330
145
100
AcDbEntity
  8
0
  6
Continuous
 62
     7
370
    15
100
AcDbSpline
210
0.0
220
0.0
230
1.0
 70
     8
 71
     3
 72
    20
 73
    16
 74
     0
 42
0.00000001
 43
0.00000001
 12
1.0
 22
0.0
 32
0.0
 13
1.0
 23
0.0
 33
0.0
 40
0.0
 40
0.0
 40
0.0
 40
0.0
 40
0.25
 40
0.25
 40
0.375
 40
0.375
 40
0.5
 40
0.5
 40
0.625
 40
0.625
 40
0.75
 40
0.75
 40
0.875
 40
0.875
 40
1.0
 40
1.0
 40
1.0
 40
1.0
 10
2.709533251257108
 20
-2.550442797773394
 30
0.0
 10
2.617727574781878
 20
-2.403984009960558
 30
0.0
 10
2.53412889238102
 20
-2.232309264825362
 30
0.0
 10
2.442935627955979
 20
-1.920305207444832
 30
0.0
 10
2.418137146891638
 20
-1.806916166023563
 30
0.0
 10
2.383648261890782
 20
-1.554808025148405
 30
0.0
 10
2.374391935017838
 20
-1.416294880834147
 30
0.0
 10
2.374264989208925
 20
-1.125297080900876
 30
0.0
 10
2.38329403728972
 20
-0.9698371457488474
 30
0.0
 10
2.417683278164516
 20
-0.6491750336020918
 30
0.0
 10
2.442522737436145
 20
-0.4866441012376018
 30
0.0
 10
2.503555761857088
 20
-0.1583149827615217
 30
0.0
 10
2.539980191628225
 20
0.0083873221700226
 30
0.0
 10
2.62017744376957
 20
0.3397887855146539
 30
0.0
 10
2.66368523836532
 20
0.5036746563775745
 30
0.0
 10
2.709533251256754
 20
0.666314718932974
 30
0.0
  0
LWPOLYLINE
  5
153
330
145
100
AcDbEntity
  8
0
  6
Continuous
 62
     7
370
    15
100
AcDbPolyline
 90
       55
 70
   128
 43
0.0
 10
-2.8518846536
 20
-1.8454795201
 10
-2.8468015525
 20
-1.7622766057
 10
-2.8316209894
 20
-1.682961824
 10
-2.8065482554
 20
-1.6086077711
 10
-2.7719224162
 20
-1.5402199583
 10
-2.7282117269
 20
-1.4787232133
 10
-2.6760072996
 20
-1.4249491741
 10
-2.6160151095
 20
-1.3796250423
 10
-2.5490464482
 20
-1.3433637492
 10
-2.4760069519
 20
-1.3166556663
 10
-2.3978843545
 20
-1.2998619749
 10
-2.3157351301
 20
-1.2932097806
 10
-2.230670206
 20
-1.2967890431
 10
-2.1438399395
 20
-1.310551359
 10
-2.0564185609
 20
-1.3343106165
 10
-1.9695882943
 20
-1.3677455124
 10
-1.8845233703
 20
-1.4104038972
 10
-1.8023741459
 20
-1.4617088893
 10
-1.7242515485
 20
-1.5209666768
 10
-1.6512120522
 20
-1.5873758997
 10
-1.5842433909
 20
-1.6600384873
 10
-1.5242512008
 20
-1.7379718026
 10
-1.4720467735
 20
-1.8201219313
 10
-1.4283360841
 20
-1.9053779338
 10
-1.393710245
 20
-1.9925868689
 10
-1.368637511
 20
-2.0805693855
 10
-1.3534569479
 20
-2.1681356708
 10
-1.3483738468
 20
-2.2541015411
 10
-1.3534569479
 20
-2.3373044555
 10
-1.368637511
 20
-2.4166192373
 10
-1.393710245
 20
-2.4909732901
 10
-1.4283360841
 20
-2.5593611029
 10
-1.4720467735
 20
-2.6208578479
 10
-1.5242512008
 20
-2.6746318871
 10
-1.5842433909
 20
-2.7199560189
 10
-1.6512120522
 20
-2.7562173121
 10
-1.7242515485
 20
-2.7829253949
 10
-1.8023741459
 20
-2.7997190864
 10
-1.8845233703
 20
-2.8063712806
 10
-1.9695882943
 20
-2.8027920181
 10
-2.0564185609
 20
-2.7890297023
 10
-2.1438399395
 20
-2.7652704448
 10
-2.230670206
 20
-2.7318355488
 10
-2.3157351301
 20
-2.6891771641
 10
-2.3978843545
 20
-2.6378721719
 10
-2.4760069519
 20
-2.5786143844
 10
-2.5490464482
 20
-2.5122051615
 10
-2.6160151095
 20
-2.439542574
 10
-2.6760072996
 20
-2.3616092586
 10
-2.7282117269
 20
-2.27945913
 10
-2.7719224162
 20
-2.1942031274
 10
-2.8065482554
 20
-2.1069941923
 10
-2.8316209894
 20
-2.0190116758
 10
-2.8468015525
 20
-1.9314453905
 10
-2.8518846536
 20
-1.8454795201
  0
LWPOLYLINE
  5
154
330
145
100
AcDbEntity
  8
0
  6
Continuous
 62
     7
370
    15
100
AcDbPolyline
 90
       19
 70
   128
 43
0.0
 10
-2.011687438
 20
-2.0738271201
 10
-2.0170211319
 20
-2.0430606881
 10
-2.0323788914
 20
-2.0131059744
 10
-2.0559083441
 20
-1.9875759596
 10
-2.0847714907
 20
-1.9695499402
 10
-2.1154870097
 20
-1.9612021203
 10
-2.1443501563
 20
-1.9635393701
 10
-2.1678796089
 20
-1.9762797828
 10
-2.1832373684
 20
-1.9978866766
 10
-2.1885710624
 20
-2.0257539412
 10
-2.1832373684
 20
-2.0565203732
 10
-2.1678796089
 20
-2.0864750869
 10
-2.1443501563
 20
-2.1120051017
 10
-2.1154870097
 20
-2.130031121
 10
-2.0847714907
 20
-2.1383789409
 10
-2.0559083441
 20
-2.1360416911
 10
-2.0323788914
 20
-2.1233012784
 10
-2.0170211319
 20
-2.1016943847
 10
-2.011687438
 20
-2.0738271201
  0
LWPOLYLINE
  5
15C
330
145
100
AcDbEntity
  8
0
  6
Continuous
 62
     7
370
    15
100
AcDbPolyline
 90
       53
 70
   128
 43
0.0
 10
5.8289975874
 20
1.4971779357
 10
5.8991411319
 20
1.5697678448
 10
5.989405438
 20
1.6772611387
 10
6.0711125616
 20
1.7922152202
 10
6.1439525594
 20
1.914194029
 10
6.2076491244
 20
2.0427348576
 10
6.2619606337
 20
2.1773501068
 10
6.3066810652
 20
2.3175291347
 10
6.3416407789
 20
2.4627401942
 10
6.3667071607
 20
2.6124324501
 10
6.3817851252
 20
2.7660380684
 10
6.3868174765
 20
2.9229743704
 10
6.3817851252
 20
3.0826460429
 10
6.3667071607
 20
3.2444473965
 10
6.3416407789
 20
3.4077646633
 10
6.3066810652
 20
3.5719783251
 10
6.2619606337
 20
3.736465463
 10
6.2076491244
 20
3.9006021211
 10
6.1439525594
 20
4.0637656728
 10
6.0711125616
 20
4.2253371828
 10
5.989405438
 20
4.3847037551
 10
5.8991411319
 20
4.5412608577
 10
5.8006620465
 20
4.6944146158
 10
5.6943417469
 20
4.8435840648
 10
5.5805835422
 20
4.9882033539
 10
5.4598189564
 20
5.1277238926
 10
5.3325060909
 20
5.2616164317
 10
5.199127887
 20
5.3893730709
 10
5.060190294
 20
5.5105091855
 10
4.9162203496
 20
5.6245652648
 10
4.7677641812
 20
5.731108655
 10
4.6153849339
 20
5.8297352005
 10
4.4596606344
 20
5.920070777
 10
4.3011819983
 20
6.0017727108
 10
4.1405501893
 20
6.0745310784
 10
3.9783745389
 20
6.1380698824
 10
3.815270235
 20
6.1921480985
 10
3.6518559879
 20
6.2365605893
 10
3.4887516839
 20
6.2711388831
 10
3.3265760336
 20
6.2957518126
 10
3.1659442246
 20
6.3103060125
 10
3.0074655885
 20
6.3147462737
 10
2.851741289
 20
6.3090557528
 10
2.6993620417
 20
6.293256036
 10
2.5509058733
 20
6.2674070569
 10
2.4069359289
 20
6.2316068696
 10
2.2679983358
 20
6.1859912764
 10
2.1346201319
 20
6.1307333129
 10
2.0073072665
 20
6.0660425916
 10
1.8865426807
 20
5.9921645064
 10
1.772784476
 20
5.9093793022
 10
1.6664641764
 20
5.8180010117
 10
1.6381286355
 20
5.7909661732
  0
LINE
  5
15D
330
145
100
AcDbEntity
  8
0
  6
Continuous
 62
     7
370
    15
100
AcDbLine
 10
-3.2798672502
 20
-0.446377277
 30
0.0
 11
-2.8204615633
 21
-2.062468373
 31
0.0
  0
LINE
  5
15E
330
145
100
AcDbEntity
  8
0
  6
Continuous
 62
     7
370
    15
100
AcDbLine
 10
-2.1302761202
 20
-2.769603378
 30
0.0
 11
-0.3491287992
 21
-3.3229634611
 31
0.0
  0
LINE
  5
15F
330
145
100
AcDbEntity
  8
0
  6
Continuous
 62
     7
370
    15
100
AcDbLine
 10
1.6381286355
 20
5.7909661732
 30
0.0
 11
0.2162929798
 21
4.4032109848
 31
0.0
  0
LINE
  5
160
330
145
100
AcDbEntity
  8
0
  6
Continuous
 62
     7
370
    15
100
AcDbLine
 10
4.5077927567
 20
0.2076415176
 30
0.0
 11
5.8289975874
 21
1.4971779357
 31
0.0
  0
LINE
  5
161
330
145
100
AcDbEntity
  8
0
  6
Continuous
 62
     7
370
    15
100
AcDbLine
 10
-0.1648256442
 20
-3.3776323984
 30
0.0
 11
-0.3488028309
 21
-3.3218827929
 31
0.0
  0
LINE
  5
162
330
145
100
AcDbEntity
  8
0
  6
Continuous
 62
     7
370
    15
100
AcDbLine
 10
-0.1648256442
 20
3.055882635
 30
0.0
 11
1.6334338613
 21
4.8110390405
 31
0.0
  0
LINE
  5
163
330
145
100
AcDbEntity
  8
0
  6
Continuous
 62
     7
370
    15
100
AcDbLine
 10
1.6334338613
 20
4.8110390405
 30
0.0
 11
4.5077927567
 21
2.4214711244
 31
0.0
  0
LINE
  5
164
330
145
100
AcDbEntity
  8
0
  6
Continuous
 62
     7
370
    15
100
AcDbLine
 10
2.7095332513
 20
0.6663147189
 30
0.0
 11
4.5077927567
 21
2.4214711244
 31
0.0
  0
LINE
  5
165
330
145
100
AcDbEntity
  8
0
  6
Continuous
 62
     7
370
    15
100
AcDbLine
 10
4.5077927567
 20
2.4214711244
 30
0.0
 11
4.5077927567
 21
-0.7952863923
 31
0.0
  0
LINE
  5
166
330
145
100
AcDbEntity
  8
0
  6
Continuous
 62
     7
370
    15
100
AcDbLine
 10
2.7095332513
 20
-2.5504427978
 30
0.0
 11
4.5077927567
 21
-0.7952863923
 31
0.0
  0
LINE
  5
167
330
145
100
AcDbEntity
  8
0
  6
Continuous
 62
     7
370
    15
100
AcDbLine
 10
-3.0391845396
 20
2.2286930344
 30
0.0
 11
-1.2409250342
 21
3.9838494399
 31
0.0
  0
LINE
  5
168
330
145
100
AcDbEntity
  8
0
  6
Continuous
 62
     7
370
    15
100
AcDbLine
 10
-1.2409250342
 20
3.9838494399
 30
0.0
 11
1.6334338613
 21
4.8110390405
 31
0.0
  0
VIEWPORT
  5
190
330
145
100
AcDbEntity
  8
0
100
AcDbViewport
 10
0.0
 20
0.0
 30
0.0
 40
243.84
 41
204.216
 68
     1
 69
     1
 12
-0.0561586749
 22
2.1197176691
 13
0.0
 23
0.0
 14
10.0
 24
10.0
 15
10.0
 25
10.0
 16
0.0
 26
0.0
 36
1.0
 17
0.0
 27
0.0
 37
0.0
 42
50.0
 43
0.0
 44
0.0
 45
13.7037537501
 50
0.0
 51
0.0
 72
   100
 90
   557152
  1

281
     0
 71
     1
 74
     0
110
0.0
120
0.0
130
0.0
111
1.0
121
0.0
131
0.0
112
0.0
122
1.0
132
0.0
 79
     0
146
0.0
  0
ENDBLK
  5
148
330
145
100
AcDbEntity
  8
0
100
AcDbBlockEnd
  0
BLOCK
  5
16B
330
169
100
AcDbEntity
  8
0
100
AcDbBlockBegin
  2
*Paper_Space7
 70
     0
 10
0.0
 20
0.0
 30
0.0
  3
*Paper_Space7
  1

  0
SPLINE
  5
16F
330
169
100
AcDbEntity
  8
0
  6
Continuous
 62
     7
370
    15
100
AcDbSpline
210
0.0
220
0.0
230
1.0
 70
     8
 71
     3
 72
    18
 73
    14
 74
     0
 42
0.00000001
 43
0.00000001
 12
1.0
 22
0.0
 32
0.0
 13
1.0
 23
0.0
 33
0.0
 40
0.0
 40
0.0
 40
0.0
 40
0.0
 40
0.2500000000000002
 40
0.2500000000000002
 40
0.3750000000000004
 40
0.3750000000000004
 40
0.5000000000000003
 40
0.5000000000000003
 40
0.6250000000000003
 40
0.6250000000000003
 40
0.7500000000000002
 40
0.7500000000000002
 40
1.0
 40
1.0
 40
1.0
 40
1.0
 10
2.915230029217156
 20
-2.262214086497455
 30
0.0
 10
2.619762608728935
 20
-2.426838053579643
 30
0.0
 10
2.322370340631766
 20
-2.588957956013997
 30
0.0
 10
1.870521742718219
 20
-2.824644280037679
 30
0.0
 10
1.718527574684484
 20
-2.902066421800587
 30
0.0
 10
1.424163259515871
 20
-3.047258813509707
 30
0.0
 10
1.280271965127429
 20
-3.11581543310781
 30
0.0
 10
1.001538329898632
 20
-3.242887956879421
 30
0.0
 10
0.8718188837713533
 20
-3.299077084419369
 30
0.0
 10
0.6290267932117717
 20
-3.398777659506843
 30
0.0
 10
0.5151128189145577
 20
-3.442577847249952
 30
0.0
 10
0.2028900156845471
 20
-3.55526460574163
 30
0.0
 10
0.0301247684756161
 20
-3.607514466021652
 30
0.0
 10
-0.1248665976374906
 20
-3.648273838930312
 30
0.0
  0
SPLINE
  5
170
330
169
100
AcDbEntity
  8
0
  6
Continuous
 62
     7
370
    15
100
AcDbSpline
210
0.0
220
0.0
230
1.0
 70
     8
 71
     3
 72
    18
 73
    14
 74
     0
 42
0.00000001
 43
0.00000001
 12
1.0
 22
0.0
 32
0.0
 13
1.0
 23
0.0
 33
0.0
 40
0.0
 40
0.0
 40
0.0
 40
0.0
 40
0.25
 40
0.25
 40
0.3750000000000001
 40
0.3750000000000001
 40
0.5000000000000002
 40
0.5000000000000002
 40
0.6250000000000003
 40
0.6250000000000003
 40
0.7500000000000002
 40
0.7500000000000002
 40
1.0
 40
1.0
 40
1.0
 40
1.0
 10
-0.1248665976363059
 20
-3.648273838930402
 30
0.0
 10
-0.4203340181245268
 20
-3.550747136545618
 30
0.0
 10
-0.7177262862216961
 20
-3.439237328350442
 30
0.0
 10
-1.169574884135242
 20
-3.230127523212305
 30
0.0
 10
-1.32156905216898
 20
-3.152849706694109
 30
0.0
 10
-1.615933367337592
 20
-2.985461246398832
 30
0.0
 10
-1.759824661726032
 20
-2.894620257524884
 30
0.0
 10
-2.038558296954829
 20
-2.697268751437357
 30
0.0
 10
-2.168277743082108
 20
-2.594417905011499
 30
0.0
 10
-2.411069833641689
 20
-2.381511975059302
 30
0.0
 10
-2.524983807938901
 20
-2.270507348818416
 30
0.0
 10
-2.83720661116891
 20
-1.938777216630165
 30
0.0
 10
-3.009971858377841
 20
-1.717508449148028
 30
0.0
 10
-3.164963224490947
 20
-1.496181740569889
 30
0.0
  0
SPLINE
  5
171
330
169
100
AcDbEntity
  8
0
  6
Continuous
 62
     7
370
    15
100
AcDbSpline
210
0.0
220
0.0
230
1.0
 70
     8
 71
     3
 72
    20
 73
    16
 74
     0
 42
0.00000001
 43
0.00000001
 12
1.0
 22
0.0
 32
0.0
 13
1.0
 23
0.0
 33
0.0
 40
0.0
 40
0.0
 40
0.0
 40
0.0
 40
0.25
 40
0.25
 40
0.375
 40
0.375
 40
0.5
 40
0.5
 40
0.625
 40
0.625
 40
0.75
 40
0.75
 40
0.875
 40
0.875
 40
1.0
 40
1.0
 40
1.0
 40
1.0
 10
-3.164963224489919
 20
-1.496181740570037
 30
0.0
 10
-3.234512247162917
 20
-1.297868528498504
 30
0.0
 10
-3.29784391554073
 20
-1.075147383111096
 30
0.0
 10
-3.366928994575392
 20
-0.6949971513265031
 30
0.0
 10
-3.385715524864346
 20
-0.5602249199326995
 30
0.0
 10
-3.411843192967071
 20
-0.2689449729561078
 30
0.0
 10
-3.418855487982716
 20
-0.1128397806293459
 30
0.0
 10
-3.418951658037567
 20
0.2072838098405908
 30
0.0
 10
-3.412111542112315
 20
0.374615433816705
 30
0.0
 10
-3.386059361189127
 20
0.7133730557889855
 30
0.0
 10
-3.36724178713058
 20
0.882072042684129
 30
0.0
 10
-3.321005134210769
 20
1.218460342513368
 30
0.0
 10
-3.293411159750078
 20
1.387050506143026
 30
0.0
 10
-3.232656305348504
 20
1.719048242001316
 30
0.0
 10
-3.199696201910802
 20
1.88166872096871
 30
0.0
 10
-3.164963224490187
 20
2.041970110222564
 30
0.0
  0
SPLINE
  5
172
330
169
100
AcDbEntity
  8
0
  6
Continuous
 62
     7
370
    15
100
AcDbSpline
210
0.0
220
0.0
230
1.0
 70
     8
 71
     3
 72
    18
 73
    14
 74
     0
 42
0.00000001
 43
0.00000001
 12
1.0
 22
0.0
 32
0.0
 13
1.0
 23
0.0
 33
0.0
 40
0.0
 40
0.0
 40
0.0
 40
0.0
 40
0.2499999999999999
 40
0.2499999999999999
 40
0.3749999999999999
 40
0.3749999999999999
 40
0.5
 40
0.5
 40
0.625
 40
0.625
 40
0.7500000000000001
 40
0.7500000000000001
 40
1.0
 40
1.0
 40
1.0
 40
1.0
 10
-3.164963224490875
 20
2.041970110221505
 30
0.0
 10
-3.00993366260932
 20
2.082739527790129
 30
0.0
 10
-2.837102607699306
 20
2.135006765855914
 30
0.0
 10
-2.52458423159527
 20
2.247815384202139
 30
0.0
 10
-2.410731798817073
 20
2.291599677278028
 30
0.0
 10
-2.167936583320074
 20
2.391312397963849
 30
0.0
 10
-2.037908525300896
 20
2.44764279229513
 30
0.0
 10
-1.75913053274346
 20
2.574754435553541
 30
0.0
 10
-1.615545209161618
 20
2.643172117578613
 30
0.0
 10
-1.321133685189612
 20
2.788396753876299
 30
0.0
 10
-1.169020867726562
 20
2.865885154749281
 30
0.0
 10
-0.7175284053326201
 20
3.101396207685436
 30
0.0
 10
-0.4202612216524197
 20
3.263446455184436
 30
0.0
 10
-0.1248665976363001
 20
3.428029862654311
 30
0.0
  0
SPLINE
  5
173
330
169
100
AcDbEntity
  8
0
  6
Continuous
 62
     7
370
    15
100
AcDbSpline
210
0.0
220
0.0
230
1.0
 70
     8
 71
     3
 72
    18
 73
    14
 74
     0
 42
0.00000001
 43
0.00000001
 12
1.0
 22
0.0
 32
0.0
 13
1.0
 23
0.0
 33
0.0
 40
0.0
 40
0.0
 40
0.0
 40
0.0
 40
0.2499999999999999
 40
0.2499999999999999
 40
0.3749999999999998
 40
0.3749999999999998
 40
0.4999999999999998
 40
0.4999999999999998
 40
0.6249999999999998
 40
0.6249999999999998
 40
0.7499999999999998
 40
0.7499999999999998
 40
1.0
 40
1.0
 40
1.0
 40
1.0
 10
-0.1248665976374145
 20
3.428029862654464
 30
0.0
 10
0.03016296424414
 20
3.206648610756112
 30
0.0
 10
0.2029940191541532
 20
2.985286138192366
 30
0.0
 10
0.5155123952581891
 20
2.653298627376773
 30
0.0
 10
0.6293648280363876
 20
2.542382962171553
 30
0.0
 10
0.8721600435333848
 20
2.329514830852974
 30
0.0
 10
1.002188101552563
 20
2.226447616712206
 30
0.0
 10
1.280966094109999
 20
2.029135230111477
 30
0.0
 10
1.424551417691842
 20
1.938512938170742
 30
0.0
 10
1.718962941663847
 20
1.771131069428756
 30
0.0
 10
1.871075759126897
 20
1.69381465631774
 30
0.0
 10
2.322568221520837
 20
1.484908818573963
 30
0.0
 10
2.619835405201039
 20
1.373440438310801
 30
0.0
 10
2.915230029217158
 20
1.275937764293875
 30
0.0
  0
SPLINE
  5
174
330
169
100
AcDbEntity
  8
0
  6
Continuous
 62
     7
370
    15
100
AcDbSpline
210
0.0
220
0.0
230
1.0
 70
     8
 71
     3
 72
    20
 73
    16
 74
     0
 42
0.00000001
 43
0.00000001
 12
1.0
 22
0.0
 32
0.0
 13
1.0
 23
0.0
 33
0.0
 40
0.0
 40
0.0
 40
0.0
 40
0.0
 40
0.25
 40
0.25
 40
0.375
 40
0.375
 40
0.5
 40
0.5
 40
0.625
 40
0.625
 40
0.75
 40
0.75
 40
0.875
 40
0.875
 40
1.0
 40
1.0
 40
1.0
 40
1.0
 10
2.915230029216999
 20
-2.262214086497465
 30
0.0
 10
2.845681006544
 20
-2.063900874425932
 30
0.0
 10
2.782349338166187
 20
-1.841179729038523
 30
0.0
 10
2.713264259131525
 20
-1.461029497253931
 30
0.0
 10
2.694477728842571
 20
-1.326257265860126
 30
0.0
 10
2.668350060739847
 20
-1.034977318883535
 30
0.0
 10
2.661337765724202
 20
-0.8788721265567747
 30
0.0
 10
2.661241595669352
 20
-0.5587485360868385
 30
0.0
 10
2.668081711594603
 20
-0.3914169121107239
 30
0.0
 10
2.694133892517792
 20
-0.0526592901384437
 30
0.0
 10
2.712951466576337
 20
0.1160396967566999
 30
0.0
 10
2.75918811949615
 20
0.4524279965859383
 30
0.0
 10
2.786782093956839
 20
0.6210181602155941
 30
0.0
 10
2.847536948358413
 20
0.9530158960738845
 30
0.0
 10
2.880497051796117
 20
1.115636375041281
 30
0.0
 10
2.915230029216731
 20
1.275937764295135
 30
0.0
  0
LWPOLYLINE
  5
175
330
169
100
AcDbEntity
  8
0
  6
Continuous
 62
     7
370
    15
100
AcDbPolyline
 90
       55
 70
   128
 43
0.0
 10
-2.386092452
 20
-1.3029480591
 10
-2.3807162554
 20
-1.2105899645
 10
-2.3646603695
 20
-1.1208355289
 10
-2.3381419224
 20
-1.034898527
 10
-2.3015195309
 20
-0.9539411094
 10
-2.2552884498
 20
-0.8790580864
 10
-2.2000738753
 20
-0.8112621222
 10
-2.1366224897
 20
-0.751470041
 10
-2.0657923642
 20
-0.7004904283
 10
-1.9885413547
 20
-0.6590126956
 10
-1.9059141486
 20
-0.6275977583
 10
-1.8190281371
 20
-0.6066704495
 10
-1.7290583045
 20
-0.5965137751
 10
-1.6372213384
 20
-0.5972650868
 10
-1.5447591762
 20
-0.6089142242
 10
-1.4529222101
 20
-0.6313036529
 10
-1.3629523775
 20
-0.6641305942
 10
-1.276066366
 20
-0.70695112
 10
-1.1934391599
 20
-0.7591861563
 10
-1.1161881504
 20
-0.8201293136
 10
-1.0453580249
 20
-0.8889564404
 10
-0.9819066393
 20
-0.9647367679
 10
-0.9266920648
 20
-1.0464454971
 10
-0.8804609837
 20
-1.1329776576
 10
-0.8438385922
 20
-1.2231630505
 10
-0.8173201452
 20
-1.3157820729
 10
-0.8012642592
 20
-1.4095822115
 10
-0.7958880626
 20
-1.5032949804
 10
-0.8012642592
 20
-1.595653075
 10
-0.8173201452
 20
-1.6854075106
 10
-0.8438385922
 20
-1.7713445125
 10
-0.8804609837
 20
-1.8523019301
 10
-0.9266920648
 20
-1.9271849532
 10
-0.9819066393
 20
-1.9949809173
 10
-1.0453580249
 20
-2.0547729985
 10
-1.1161881504
 20
-2.1057526112
 10
-1.1934391599
 20
-2.1472303439
 10
-1.276066366
 20
-2.1786452812
 10
-1.3629523775
 20
-2.19957259
 10
-1.4529222101
 20
-2.2097292644
 10
-1.5447591762
 20
-2.2089779527
 10
-1.6372213384
 20
-2.1973288153
 10
-1.7290583045
 20
-2.1749393866
 10
-1.8190281371
 20
-2.1421124453
 10
-1.9059141486
 20
-2.0992919195
 10
-1.9885413547
 20
-2.0470568833
 10
-2.0657923642
 20
-1.9861137259
 10
-2.1366224897
 20
-1.9172865991
 10
-2.2000738753
 20
-1.8415062716
 10
-2.2552884498
 20
-1.7597975424
 10
-2.3015195309
 20
-1.6732653819
 10
-2.3381419224
 20
-1.583079989
 10
-2.3646603695
 20
-1.4904609666
 10
-2.3807162554
 20
-1.396660828
 10
-2.386092452
 20
-1.3029480591
  0
LWPOLYLINE
  5
176
330
169
100
AcDbEntity
  8
0
  6
Continuous
 62
     7
370
    15
100
AcDbPolyline
 90
       19
 70
   128
 43
0.0
 10
-1.4974488226
 20
-1.4149066328
 10
-1.5030900614
 20
-1.3819499351
 10
-1.5193333611
 20
-1.3515468431
 10
-1.54421954
 20
-1.3273644182
 10
-1.5747469576
 20
-1.3123194178
 10
-1.607233557
 20
-1.308226491
 10
-1.6377609746
 20
-1.3155793052
 10
-1.6626471535
 20
-1.3334910024
 10
-1.6788904532
 20
-1.3598011677
 10
-1.684531692
 20
-1.3913364067
 10
-1.6788904532
 20
-1.4242931044
 10
-1.6626471535
 20
-1.4546961964
 10
-1.6377609746
 20
-1.4788786213
 10
-1.607233557
 20
-1.4939236217
 10
-1.5747469576
 20
-1.4980165485
 10
-1.54421954
 20
-1.4906637344
 10
-1.5193333611
 20
-1.4727520371
 10
-1.5030900614
 20
-1.4464418718
 10
-1.4974488226
 20
-1.4149066328
  0
LINE
  5
17F
330
169
100
AcDbEntity
  8
0
  6
Continuous
 62
     7
370
    15
100
AcDbLine
 10
0.8441136408
 20
4.7444382573
 30
0.0
 11
0.1532630899
 21
4.1351653404
 31
0.0
  0
LINE
  5
180
330
169
100
AcDbEntity
  8
0
  6
Continuous
 62
     7
370
    15
100
AcDbLine
 10
4.2775334936
 20
-0.2275700503
 30
0.0
 11
4.8127406074
 21
0.2444382574
 31
0.0
  0
LINE
  5
181
330
169
100
AcDbEntity
  8
0
  6
Continuous
 62
     7
370
    15
100
AcDbLine
 10
-0.1248665976
 20
3.4280298627
 30
0.0
 11
1.2374368668
 21
4.6294685884
 31
0.0
  0
LINE
  5
182
330
169
100
AcDbEntity
  8
0
  6
Continuous
 62
     7
370
    15
100
AcDbLine
 10
1.2374368668
 20
4.6294685884
 30
0.0
 11
4.2775334936
 21
2.47737649
 31
0.0
  0
LINE
  5
183
330
169
100
AcDbEntity
  8
0
  6
Continuous
 62
     7
370
    15
100
AcDbLine
 10
2.9152300292
 20
1.2759377643
 30
0.0
 11
4.2775334936
 21
2.47737649
 31
0.0
  0
LINE
  5
184
330
169
100
AcDbEntity
  8
0
  6
Continuous
 62
     7
370
    15
100
AcDbLine
 10
4.2775334936
 20
2.47737649
 30
0.0
 11
4.2775334936
 21
-1.0607753608
 31
0.0
  0
LINE
  5
185
330
169
100
AcDbEntity
  8
0
  6
Continuous
 62
     7
370
    15
100
AcDbLine
 10
2.9152300292
 20
-2.2622140865
 30
0.0
 11
4.2775334936
 21
-1.0607753608
 31
0.0
  0
LINE
  5
186
330
169
100
AcDbEntity
  8
0
  6
Continuous
 62
     7
370
    15
100
AcDbLine
 10
-3.1649632245
 20
2.0419701102
 30
0.0
 11
-1.8026597601
 21
3.2434088359
 31
0.0
  0
LINE
  5
187
330
169
100
AcDbEntity
  8
0
  6
Continuous
 62
     7
370
    15
100
AcDbLine
 10
-1.8026597601
 20
3.2434088359
 30
0.0
 11
1.2374368668
 21
4.6294685884
 31
0.0
  0
ARC
  5
188
330
169
100
AcDbEntity
  8
0
  6
Continuous
 62
     7
370
    15
100
AcDbCircle
 10
2.6024058601
 20
2.2951062388
 30
0.0
 40
3.015098483534234
100
AcDbArc
 50
317.1459628757
 51
125.6732813442
  0
VIEWPORT
  5
191
330
169
100
AcDbEntity
  8
0
100
AcDbViewport
 10
0.0
 20
0.0
 30
0.0
 40
243.84
 41
204.216
 68
     1
 69
     1
 12
-0.0561586749
 22
2.1197176691
 13
0.0
 23
0.0
 14
10.0
 24
10.0
 15
10.0
 25
10.0
 16
0.0
 26
0.0
 36
1.0
 17
0.0
 27
0.0
 37
0.0
 42
50.0
 43
0.0
 44
0.0
 45
13.7037537501
 50
0.0
 51
0.0
 72
   100
 90
   557152
  1

281
     0
 71
     1
 74
     0
110
0.0
120
0.0
130
0.0
111
1.0
121
0.0
131
0.0
112
0.0
122
1.0
132
0.0
 79
     0
146
0.0
  0
ENDBLK
  5
16C
330
169
100
AcDbEntity
  8
0
100
AcDbBlockEnd
  0
ENDSEC
  0
SECTION
  2
ENTITIES
  0
LWPOLYLINE
  5
4A
330
1F
100
AcDbEntity
  8
0
  6
Continuous
 62
     7
370
    15
100
AcDbPolyline
 90
       94
 70
   128
 43
0.0
 10
-1.6530216871
 20
7.8152042508
 10
-1.5080032255
 20
7.8021070204
 10
-1.3574883647
 20
7.7913029509
 10
-1.2021638696
 20
7.7828413387
 10
-1.0427384502
 20
7.7767607922
 10
-0.8799395281
 20
7.7730890556
 10
-0.7145099175
 20
7.7718428821
 10
-0.5472044357
 20
7.7730279579
 10
-0.3787864592
 20
7.7766388755
 10
-0.2100244407
 20
7.7826591593
 10
-0.0416884026
 20
7.7910613401
 10
0.1254535764
 20
7.8018070807
 10
0.2906388659
 20
7.8148473506
 10
0.4531137632
 20
7.8301226502
 10
0.6121369325
 20
7.8475632817
 10
0.7669827878
 20
7.8670896676
 10
0.9169448028
 20
7.8886127134
 10
1.0613387353
 20
7.9120342145
 10
1.1995057489
 20
7.9372473038
 10
1.3308154192
 20
7.9641369398
 10
1.4546686102
 20
7.9925804313
 10
1.5705002083
 20
8.0224479972
 10
1.6777817005
 20
8.0536033586
 10
1.7760235859
 20
8.0859043607
 10
1.8647776093
 20
8.1192036215
 10
1.9436388065
 20
8.1533492041
 10
2.0122473519
 20
8.18818531
 10
2.0702902005
 20
8.22355299
 10
2.117502516
 20
8.2592908696
 10
2.1536688795
 20
8.2952358851
 10
2.1786242722
 20
8.3312240274
 10
2.1922548283
 20
8.3670910911
 10
2.1944983548
 20
8.4026734228
 10
2.1853446149
 20
8.4378086687
 10
2.164835375
 20
8.4723365146
 10
2.1330642142
 20
8.5060994179
 10
2.0901760969
 20
8.5389433262
 10
2.0363667117
 20
8.5707183802
 10
1.9718815786
 20
8.6012795978
 10
1.8970149285
 20
8.6304875351
 10
1.8121083606
 20
8.6582089229
 10
1.7175492842
 20
8.6843172749
 10
1.6137691507
 20
8.7086934647
 10
1.5012414849
 20
8.7312262694
 10
1.3804797249
 20
8.7518128768
 10
1.2520348788
 20
8.7703593552
 10
1.116493011
 20
8.786781081
 10
0.974472568
 20
8.8010031258
 10
0.8266215565
 20
8.8129605976
 10
0.6736145867
 20
8.8225989372
 10
0.5161497944
 20
8.8298741672
 10
0.3549456552
 20
8.8347530922
 10
0.1907377067
 20
8.8372134509
 10
0.0242751921
 20
8.8372440172
 10
-0.1436823583
 20
8.8348446516
 10
-0.3123685928
 20
8.830026302
 10
-0.4810138347
 20
8.8228109532
 10
-0.6488485946
 20
8.8132315274
 10
-0.8151070808
 20
8.8013317332
 10
-0.9790306941
 20
8.7871658667
 10
-1.1398714885
 20
8.7707985635
 10
-1.2968955845
 20
8.7523045037
 10
-1.4493865171
 20
8.7317680716
 10
-1.5966485052
 20
8.7092829703
 10
-1.738009626
 20
8.6849517939
 10
-1.8728248813
 20
8.6588855603
 10
-2.0004791398
 20
8.6312032035
 10
-2.1203899446
 20
8.6020310318
 10
-2.2320101701
 20
8.5715021511
 10
-2.3348305188
 20
8.5397558578
 10
-2.4283818451
 20
8.5069370029
 10
-2.5122372957
 20
8.4731953313
 10
-2.5860142574
 20
8.4386847985
 10
-2.6493761029
 20
8.4035628681
 10
-2.7020337266
 20
8.3679897935
 10
-2.7437468639
 20
8.3321278865
 10
-2.7743251872
 20
8.2961407766
 10
-2.7936291747
 20
8.2601926649
 10
-2.8015707467
 20
8.2244475743
 10
-2.7981136677
 20
8.1890686014
 10
-2.7832737115
 20
8.1542171725
 10
-2.7571185894
 20
8.1200523065
 10
-2.7197676413
 20
8.08672989
 10
-2.6713912909
 20
8.0544019655
 10
-2.6122102685
 20
8.0232160378
 10
-2.5424946034
 20
7.9933144012
 10
-2.4625623924
 20
7.9648334901
 10
-2.3727783476
 20
7.9379032562
 10
-2.2735521332
 20
7.9126465761
 10
-2.1653364955
 20
7.8891786903
 10
-2.0486251978
 20
7.8676066772
 10
-1.9239507669
 20
7.848028965
 10
-1.7918820635
 20
7.8305348824
 10
-1.6530216871
 20
7.8152042508
  0
LWPOLYLINE
  5
4B
330
1F
100
AcDbEntity
  8
0
  6
Continuous
 62
     7
370
    15
100
AcDbPolyline
 90
       21
 70
   128
 43
0.0
 10
-1.9051029881
 20
7.2287964927
 10
-2.0573495654
 20
7.2454642691
 10
-2.2028750557
 20
7.2642969535
 10
-2.3411274311
 20
7.2852231069
 10
-2.4715822528
 20
7.3081633495
 10
-2.593744661
 20
7.3330306609
 10
-2.707151252
 20
7.3597307109
 10
-2.8113718357
 20
7.3881622171
 10
-2.9060110676
 20
7.4182173291
 10
-2.9907099488
 20
7.4497820375
 10
-3.0651471874
 20
7.4827366066
 10
-3.1290404174
 20
7.5169560284
 10
-3.18214727
 20
7.5523104969
 10
-3.2242662927
 20
7.5886659005
 10
-3.2552377135
 20
7.6258843307
 10
-3.2749440473
 20
7.6638246052
 10
-3.2833105413
 20
7.7023428037
 10
-3.2803054583
 20
7.7412928133
 10
-3.2659401978
 20
7.7805268834
 10
-3.2402692521
 20
7.8198961857
 10
-3.2184219705
 20
7.8446104329
  0
LWPOLYLINE
  5
4C
330
1F
100
AcDbEntity
  8
0
  6
Continuous
 62
     7
370
    15
100
AcDbPolyline
 90
       40
 70
   128
 43
0.0
 10
2.6374528298
 20
8.0585355614
 10
2.6531896647
 20
8.0436876139
 10
2.6841610855
 20
8.0064691837
 10
2.7038674194
 20
7.9685289091
 10
2.7122339133
 20
7.9300107107
 10
2.7092288304
 20
7.891060701
 10
2.6948635698
 20
7.851826631
 10
2.6691926241
 20
7.8124573287
 10
2.6323133719
 20
7.7731021355
 10
2.5843657088
 20
7.7339103391
 10
2.5255315167
 20
7.6950306074
 10
2.4560339738
 20
7.6566104245
 10
2.3761367083
 20
7.6187955314
 10
2.2861427976
 20
7.5817293729
 10
2.1863936197
 20
7.5455525536
 10
2.0772675572
 20
7.5104023047
 10
1.9591785628
 20
7.4764119629
 10
1.8325745883
 20
7.4437104654
 10
1.6979358861
 20
7.4124218601
 10
1.5557731869
 20
7.3826648355
 10
1.4066257624
 20
7.35455227
 10
1.25105938
 20
7.3281908044
 10
1.0896641562
 20
7.3036804366
 10
0.9230523184
 20
7.2811141429
 10
0.7518558824
 20
7.260577525
 10
0.5767242548
 20
7.2421484853
 10
0.39832177
 20
7.2258969314
 10
0.2173251696
 20
7.2118845111
 10
0.0344210358
 20
7.2001643782
 10
-0.1496968134
 20
7.1907809914
 10
-0.3343299559
 20
7.1837699448
 10
-0.5187780151
 20
7.179157834
 10
-0.7023413162
 20
7.1769621541
 10
-0.8843235407
 20
7.1771912341
 10
-1.0640343677
 20
7.1798442051
 10
-1.2407920926
 20
7.1849110034
 10
-1.4139262127
 20
7.192372409
 10
-1.5827799709
 20
7.2022001181
 10
-1.7467128473
 20
7.2143568509
 10
-1.9051029881
 20
7.2287964927
  0
LWPOLYLINE
  5
4D
330
1F
100
AcDbEntity
  8
0
  6
Continuous
 62
     7
370
    15
100
AcDbPolyline
 90
       36
 70
   128
 43
0.0
 10
-1.7444876865
 20
2.8321970668
 10
-1.5860975457
 20
2.817757425
 10
-1.4221646693
 20
2.8056006922
 10
-1.253310911
 20
2.7957729831
 10
-1.080176791
 20
2.7883115775
 10
-0.9034190661
 20
2.7832447792
 10
-0.723708239
 20
2.7805918082
 10
-0.5417260145
 20
2.7803627281
 10
-0.3581627135
 20
2.782558408
 10
-0.1737146543
 20
2.7871705189
 10
0.0109184882
 20
2.7941815654
 10
0.1950363374
 20
2.8035649523
 10
0.3779404713
 20
2.8152850852
 10
0.5589370716
 20
2.8292975055
 10
0.7373395564
 20
2.8455490593
 10
0.912471184
 20
2.8639780991
 10
1.08366762
 20
2.884514717
 10
1.2502794578
 20
2.9070810107
 10
1.4116746816
 20
2.9315913785
 10
1.567241064
 20
2.9579528441
 10
1.7163884885
 20
2.9860654096
 10
1.8585511877
 20
3.0158224342
 10
1.9931898899
 20
3.0471110395
 10
2.1197938644
 20
3.079812537
 10
2.2378828588
 20
3.1138028787
 10
2.3470089213
 20
3.1489531277
 10
2.4467580993
 20
3.185129947
 10
2.5367520099
 20
3.2221961055
 10
2.6166492755
 20
3.2600109986
 10
2.6861468183
 20
3.2984311815
 10
2.7449810104
 20
3.3373109132
 10
2.7929286735
 20
3.3765027096
 10
2.8298079257
 20
3.4158579028
 10
2.8554788715
 20
3.455227205
 10
2.869844132
 20
3.4944612751
 10
2.8730771402
 20
3.5290994078
  0
LWPOLYLINE
  5
4E
330
1F
100
AcDbEntity
  8
0
  6
Continuous
 62
     7
370
    15
100
AcDbPolyline
 90
       18
 70
   128
 43
0.0
 10
-3.1229231649
 20
3.3100552547
 10
-3.1226952397
 20
3.3057433778
 10
-3.1143287457
 20
3.2672251793
 10
-3.0946224119
 20
3.2292849047
 10
-3.063650991
 20
3.1920664745
 10
-3.0215319684
 20
3.1557110709
 10
-2.9684251158
 20
3.1203566024
 10
-2.9045318857
 20
3.0861371807
 10
-2.8300946472
 20
3.0531826116
 10
-2.745395766
 20
3.0216179032
 10
-2.650756534
 20
2.9915627912
 10
-2.5465359504
 20
2.963131285
 10
-2.4331293594
 20
2.936431235
 10
-2.3109669511
 20
2.9115639236
 10
-2.1805121294
 20
2.888623681
 10
-2.0422597541
 20
2.8676975276
 10
-1.8967342638
 20
2.8488648432
 10
-1.7444876865
 20
2.8321970668
  0
SPLINE
  5
52
330
1F
100
AcDbEntity
  8
0
  6
Continuous
 62
     7
370
    15
100
AcDbSpline
210
0.0
220
0.0
230
1.0
 70
     8
 71
     3
 72
    18
 73
    14
 74
     0
 42
0.00000001
 43
0.00000001
 12
1.0
 22
0.0
 32
0.0
 13
1.0
 23
0.0
 33
0.0
 40
0.0
 40
0.0
 40
0.0
 40
0.0
 40
0.2499999999999999
 40
0.2499999999999999
 40
0.3749999999999999
 40
0.3749999999999999
 40
0.5
 40
0.5
 40
0.625
 40
0.625
 40
0.7500000000000001
 40
0.7500000000000001
 40
1.0
 40
1.0
 40
1.0
 40
1.0
 10
-0.1638781514300079
 20
-1.139416136853818
 30
0.0
 10
0.0901294709506518
 20
-1.298023033187932
 30
0.0
 10
0.3541477646618265
 20
-1.433141100371148
 30
0.0
 10
0.7801326036027412
 20
-1.565526790212215
 30
0.0
 10
0.927769220817524
 20
-1.597314931431352
 30
0.0
 10
1.224791071905846
 20
-1.626312913416076
 30
0.0
 10
1.375626895449887
 20
-1.623919970518639
 30
0.0
 10
1.681198527090499
 20
-1.580001705702066
 30
0.0
 10
1.830297826775418
 20
-1.539343296462188
 30
0.0
 10
2.122135242362385
 20
-1.425760367605051
 30
0.0
 10
2.266017216102389
 20
-1.352053190503227
 30
0.0
 10
2.677582099294391
 20
-1.099543705634648
 30
0.0
 10
2.928923923497026
 20
-0.8905417780145507
 30
0.0
 10
3.168694828577749
 20
-0.6611142086367763
 30
0.0
  0
LWPOLYLINE
  5
58
330
1F
100
AcDbEntity
  8
0
  6
Continuous
 62
     7
370
    15
100
AcDbPolyline
 90
       60
 70
   128
 43
0.0
 10
-0.84323935
 20
8.108894383
 10
-0.7507880317
 20
8.1010517096
 10
-0.6532674522
 20
8.0955163145
 10
-0.5517825586
 20
8.0923509159
 10
-0.4474832152
 20
8.0915913791
 10
-0.3415511753
 20
8.09324631
 10
-0.2351866913
 20
8.0972969575
 10
-0.1295949153
 20
8.1036974262
 10
-0.0259722442
 20
8.1123751962
 10
0.0745072357
 20
8.1232319448
 10
0.1707050516
 20
8.1361446609
 10
0.261531244
 20
8.1509670381
 10
0.3459567157
 20
8.167531133
 10
0.4230248925
 20
8.1856492679
 10
0.4918625611
 20
8.2051161569
 10
0.5516897631
 20
8.2257112324
 10
0.6018286326
 20
8.2472011441
 10
0.641711076
 20
8.2693424026
 10
0.6708852094
 20
8.2918841387
 10
0.6890204781
 20
8.3145709454
 10
0.6959114024
 20
8.3371457721
 10
0.6914799052
 20
8.3593528371
 10
0.6757761973
 20
8.3809405255
 10
0.6489782079
 20
8.40166424
 10
0.611389569
 20
8.4212891728
 10
0.5634361748
 20
8.4395929655
 10
0.5056613564
 20
8.4563682288
 10
0.4387197257
 20
8.4714248923
 10
0.3633697581
 20
8.484592358
 10
0.2804651987
 20
8.4957214332
 10
0.1909453895
 20
8.504686021
 10
0.0958246255
 20
8.5113845492
 10
-0.0038193369
 20
8.5157411206
 10
-0.1068574918
 20
8.5177063736
 10
-0.2121223758
 20
8.5172580412
 10
-0.3184212957
 20
8.5144012029
 10
-0.4245498422
 20
8.5091682281
 10
-0.5293055364
 20
8.5016184084
 10
-0.6315014546
 20
8.4918372863
 10
-0.7299796761
 20
8.4799356857
 10
-0.8236244034
 20
8.4660484567
 10
-0.9113746042
 20
8.4503329469
 10
-0.9922360337
 20
8.4329672195
 10
-1.0652924996
 20
8.4141480351
 10
-1.1297162429
 20
8.3940886225
 10
-1.184777317
 20
8.373016263
 10
-1.2298518578
 20
8.3511697147
 10
-1.2644291527
 20
8.3287965077
 10
-1.2881174273
 20
8.3061501396
 10
-1.3006482838
 20
8.2834872026
 10
-1.3018797427
 20
8.2610644769
 10
-1.2917978511
 20
8.2391360209
 10
-1.2705168408
 20
8.2179502928
 10
-1.2382778341
 20
8.1977473354
 10
-1.195446112
 20
8.1787560562
 10
-1.1425069748
 20
8.1611916341
 10
-1.0800602443
 20
8.1452530809
 10
-1.0088134667
 20
8.1311209868
 10
-0.9295738966
 20
8.1189554742
 10
-0.84323935
 20
8.108894383
  0
SPLINE
  5
59
330
1F
100
AcDbEntity
  8
0
  6
Continuous
 62
     7
370
    15
100
AcDbSpline
210
0.0
220
0.0
230
1.0
 70
     8
 71
     3
 72
    12
 73
     8
 74
     0
 42
0.00000001
 43
0.00000001
 12
1.0
 22
0.0
 32
0.0
 13
1.0
 23
0.0
 33
0.0
 40
0.0
 40
0.0
 40
0.0
 40
0.0
 40
0.0966678981327951
 40
0.319828588344224
 40
0.5430938693386418
 40
0.7715196703819909
 40
1.0
 40
1.0
 40
1.0
 40
1.0
 10
-3.241632632361282
 20
-1.171834059222294
 30
0.0
 10
-3.244036636378654
 20
-1.168846218478325
 30
0.0
 10
-3.251990354480535
 20
-1.158960859369468
 30
0.0
 10
-3.266021189851854
 20
-1.11520314699479
 30
0.0
 10
-3.283700252559851
 20
-1.039297946003715
 30
0.0
 10
-3.301723358187367
 20
-0.9418356841029117
 30
0.0
 10
-3.313885513903266
 20
-0.8628568723431677
 30
0.0
 10
-3.31996731749564
 20
-0.8233627536768555
 30
0.0
  0
SPLINE
  5
5A
330
1F
100
AcDbEntity
  8
0
  6
Continuous
 62
     7
370
    15
100
AcDbSpline
210
0.0
220
0.0
230
1.0
 70
     8
 71
     3
 72
    20
 73
    16
 74
     0
 42
0.00000001
 43
0.00000001
 12
1.0
 22
0.0
 32
0.0
 13
1.0
 23
0.0
 33
0.0
 40
0.0
 40
0.0
 40
0.0
 40
0.0
 40
0.25
 40
0.25
 40
0.375
 40
0.375
 40
0.5
 40
0.5
 40
0.625
 40
0.625
 40
0.75
 40
0.75
 40
0.875
 40
0.875
 40
1.0
 40
1.0
 40
1.0
 40
1.0
 10
-3.319967317495732
 20
-0.8233627536769822
 30
0.0
 10
-3.081334378061475
 20
-1.038750805316943
 30
0.0
 10
-2.8264479206705
 20
-1.238648092773747
 30
0.0
 10
-2.426025207246989
 20
-1.46896051817726
 30
0.0
 10
-2.289130549973413
 20
-1.534394709977555
 30
0.0
 10
-2.006112188328282
 20
-1.634674398184353
 30
0.0
 10
-1.860639434460334
 20
-1.668549296352275
 30
0.0
 10
-1.574998605685049
 20
-1.69741839307158
 30
0.0
 10
-1.431807610819727
 20
-1.69292458700593
 30
0.0
 10
-1.15275517839249
 20
-1.649138974497196
 30
0.0
 10
-1.018976114272365
 20
-1.610724799721034
 30
0.0
 10
-0.7599536497366889
 20
-1.509358932569155
 30
0.0
 10
-0.6340619196952261
 20
-1.445990619810127
 30
0.0
 10
-0.3918428096425477
 20
-1.302968705236585
 30
0.0
 10
-0.2760393129099533
 20
-1.223815444537979
 30
0.0
 10
-0.1638781514287986
 20
-1.139416136853426
 30
0.0
  0
SPLINE
  5
5B
330
1F
100
AcDbEntity
  8
0
  6
Continuous
 62
     7
370
    15
100
AcDbSpline
210
0.0
220
0.0
230
1.0
 70
     8
 71
     3
 72
    18
 73
    14
 74
     0
 42
0.00000001
 43
0.00000001
 12
1.0
 22
0.0
 32
0.0
 13
1.0
 23
0.0
 33
0.0
 40
0.0
 40
0.0
 40
0.0
 40
0.0
 40
0.2499999999999999
 40
0.2499999999999999
 40
0.3749999999999998
 40
0.3749999999999998
 40
0.4999999999999998
 40
0.4999999999999998
 40
0.6249999999999998
 40
0.6249999999999998
 40
0.7499999999999998
 40
0.7499999999999998
 40
1.0
 40
1.0
 40
1.0
 40
1.0
 10
3.168694828577061
 20
-0.6611142086369176
 30
0.0
 10
3.188859777530206
 20
-0.7963039059697375
 30
0.0
 10
3.208795905848064
 20
-0.9069793829451661
 30
0.0
 10
3.238015341958249
 20
-0.9996326567189179
 30
0.0
 10
3.247657072884417
 20
-1.017601875728446
 30
0.0
 10
3.26585170509292
 20
-1.01867786907105
 30
0.0
 10
3.27450226174886
 20
-1.00204637578002
 30
0.0
 10
3.290682366674541
 20
-0.929148203784647
 30
0.0
 10
3.297915415284744
 20
-0.8742831906589548
 30
0.0
 10
3.310902729065972
 20
-0.7327759816445436
 30
0.0
 10
3.316696283519955
 20
-0.6452405158612822
 30
0.0
 10
3.331834050793295
 20
-0.3530324912569536
 30
0.0
 10
3.339192797332318
 20
-0.1195978961563934
 30
0.0
 10
3.345178642517417
 20
0.1332411027558718
 30
0.0
  0
LINE
  5
60
330
1F
100
AcDbEntity
  8
0
  6
Continuous
 62
     7
370
    15
100
AcDbLine
 10
2.6374528298
 20
8.0585355614
 30
0.0
 11
2.1324414945
 21
8.5066534747
 31
0.0
  0
LINE
  5
61
330
1F
100
AcDbEntity
  8
0
  6
Continuous
 62
     7
370
    15
100
AcDbLine
 10
-2.7474541724
 20
8.3283825342
 30
0.0
 11
-3.2184219705
 21
7.8446104329
 31
0.0
  0
LINE
  5
62
330
1F
100
AcDbEntity
  8
0
  6
Continuous
 62
     7
370
    15
100
AcDbLine
 10
-3.2835384666
 20
7.7066546807
 30
0.0
 11
-3.1229231649
 21
3.3100552547
 31
0.0
  0
LINE
  5
63
330
1F
100
AcDbEntity
  8
0
  6
Continuous
 62
     7
370
    15
100
AcDbLine
 10
2.8730771402
 20
3.5290994078
 30
0.0
 11
2.7124618386
 21
7.9256988337
 31
0.0
  0
LINE
  5
64
330
1F
100
AcDbEntity
  8
0
  6
Continuous
 62
     7
370
    15
100
AcDbLine
 10
-3.2425240516
 20
-1.1725327729
 30
0.0
 11
-0.6781686578
 21
-4.454131065
 31
0.0
  0
LINE
  5
65
330
1F
100
AcDbEntity
  8
0
  6
Continuous
 62
     7
370
    15
100
AcDbLine
 10
1.0013612761
 20
-4.392774962
 30
0.0
 11
3.268072192
 21
-1.0094787551
 31
0.0
  0
LINE
  5
66
330
1F
100
AcDbEntity
  8
0
  6
Continuous
 62
     7
370
    15
100
AcDbLine
 10
-0.1638781514
 20
-1.1394161369
 30
0.0
 11
-0.3014068263
 21
2.6252220199
 31
0.0
  0
LINE
  5
67
330
1F
100
AcDbEntity
  8
0
  6
Continuous
 62
     7
370
    15
100
AcDbLine
 10
-0.3014068263
 20
2.6252220199
 30
0.0
 11
3.0311661537
 21
3.1035239481
 31
0.0
  0
LINE
  5
68
330
1F
100
AcDbEntity
  8
0
  6
Continuous
 62
     7
370
    15
100
AcDbLine
 10
3.1686948286
 20
-0.6611142086
 30
0.0
 11
3.0311661537
 21
3.1035239481
 31
0.0
  0
LINE
  5
69
330
1F
100
AcDbEntity
  8
0
  6
Continuous
 62
     7
370
    15
100
AcDbLine
 10
-3.4574959924
 20
2.9412754031
 30
0.0
 11
-0.3014068263
 21
2.6252220199
 31
0.0
  0
LINE
  5
6A
330
1F
100
AcDbEntity
  8
0
  6
Continuous
 62
     7
370
    15
100
AcDbLine
 10
-3.2810121784
 20
3.7356307144
 30
0.0
 11
-3.4574959924
 21
2.9412754031
 31
0.0
  0
LINE
  5
6B
330
1F
100
AcDbEntity
  8
0
  6
Continuous
 62
     7
370
    15
100
AcDbLine
 10
-3.1392136362
 20
3.7559821116
 30
0.0
 11
-3.2810121784
 21
3.7356307144
 31
0.0
  0
LINE
  5
6C
330
1F
100
AcDbEntity
  8
0
  6
Continuous
 62
     7
370
    15
100
AcDbLine
 10
3.2076499676
 20
3.8978792595
 30
0.0
 11
2.8583270475
 21
3.932860746
 31
0.0
  0
LINE
  5
6D
330
1F
100
AcDbEntity
  8
0
  6
Continuous
 62
     7
370
    15
100
AcDbLine
 10
3.0311661537
 20
3.1035239481
 30
0.0
 11
3.2076499676
 21
3.8978792595
 31
0.0
  0
LINE
  5
6E
330
1F
100
AcDbEntity
  8
0
  6
Continuous
 62
     7
370
    15
100
AcDbLine
 10
-3.3199673175
 20
-0.8233627537
 30
0.0
 11
-3.4574959924
 21
2.9412754031
 31
0.0
  0
LINE
  5
6F
330
1F
100
AcDbEntity
  8
0
  6
Continuous
 62
     7
370
    15
100
AcDbLine
 10
3.3451786425
 20
0.1332411028
 30
0.0
 11
3.2076499676
 21
3.8978792595
 31
0.0
  0
ARC
  5
70
330
1F
100
AcDbEntity
  8
0
  6
Continuous
 62
     7
370
    15
100
AcDbCircle
 10
0.0863856381
 20
-2.453724144
 30
0.0
 40
2.144084534936934
100
AcDbArc
 50
259.6652346558
 51
295.2611155765
  0
ARC
  5
71
330
1F
100
AcDbEntity
  8
0
  6
Continuous
 62
     7
370
    15
100
AcDbCircle
 10
-0.3212671492
 20
-3.9261263774
 30
0.0
 40
0.6373128250761648
100
AcDbArc
 50
235.9435157368
 51
272.0687192204
  0
SPLINE
  5
7B
330
1B
100
AcDbEntity
 67
     1
  8
0
  6
Continuous
 62
     7
370
    15
100
AcDbSpline
210
0.0
220
0.0
230
1.0
 70
     8
 71
     3
 72
    18
 73
    14
 74
     0
 42
0.00000001
 43
0.00000001
 12
1.0
 22
0.0
 32
0.0
 13
1.0
 23
0.0
 33
0.0
 40
0.0
 40
0.0
 40
0.0
 40
0.0
 40
0.2499999999999999
 40
0.2499999999999999
 40
0.3749999999999998
 40
0.3749999999999998
 40
0.4999999999999998
 40
0.4999999999999998
 40
0.6249999999999998
 40
0.6249999999999998
 40
0.7499999999999998
 40
0.7499999999999998
 40
1.0
 40
1.0
 40
1.0
 40
1.0
 10
-0.0000000000005927
 20
-0.3531760718118848
 30
0.0
 10
0.2408007659634074
 20
-0.5517851961696304
 30
0.0
 10
0.4921457045213438
 20
-0.7279413532449651
 30
0.0
 10
0.9007170380135159
 20
-0.9249840426216304
 30
0.0
 10
1.042818023391248
 20
-0.9789246019248311
 30
0.0
 10
1.32994186992341
 20
-1.05185432209653
 30
0.0
 10
1.476357922535225
 20
-1.071459898992821
 30
0.0
 10
1.774360422570991
 20
-1.071397168257057
 30
0.0
 10
1.920447966912302
 20
-1.051787856302111
 30
0.0
 10
2.207595377262003
 20
-0.9787869534715002
 30
0.0
 10
2.349792678752994
 20
-0.9247656313870175
 30
0.0
 10
2.758015659455882
 20
-0.7278085905251223
 30
0.0
 10
3.009258561884739
 20
-0.551736263385348
 30
0.0
 10
3.250000000000637
 20
-0.3531760718119871
 30
0.0
  0
SPLINE
  5
7C
330
1B
100
AcDbEntity
 67
     1
  8
0
  6
Continuous
 62
     7
370
    15
100
AcDbSpline
210
0.0
220
0.0
230
1.0
 70
    24
 71
     3
 72
    16
 73
    12
 74
     0
 42
0.00000001
 43
0.00000001
 12
1.0
 22
0.0
 32
0.0
 13
1.0
 23
0.0
 33
0.0
 40
0.0
 40
0.0
 40
0.0
 40
0.0
 40
0.0093181314751377
 40
0.1096228839196267
 40
0.2099374461813494
 40
0.330421439643812
 40
0.4509441053472187
 40
0.5748174204621413
 40
0.6987231591984632
 40
0.8490869403314983
 40
1.0
 40
1.0
 40
1.0
 40
1.0
 10
-3.25
 20
-1.070675327878784
 30
0.0
 10
-3.250000000000001
 20
-1.070921202029346
 30
0.0
 10
-3.250000000000003
 20
-1.07381378124845
 30
0.0
 10
-3.25
 20
-1.062210678695295
 30
0.0
 10
-3.250000000000001
 20
-1.032918540334254
 30
0.0
 10
-3.250000000000001
 20
-0.9783721438875719
 30
0.0
 10
-3.25
 20
-0.8993211981250552
 30
0.0
 10
-3.250000000000001
 20
-0.8005236378878836
 30
0.0
 10
-3.25
 20
-0.6766356839829485
 30
0.0
 10
-3.249999999999999
 20
-0.5286800216831441
 30
0.0
 10
-3.250000000000001
 20
-0.4117484504321681
 30
0.0
 10
-3.25
 20
-0.3531760718106245
 30
0.0
  0
SPLINE
  5
7D
330
1B
100
AcDbEntity
 67
     1
  8
0
  6
Continuous
 62
     7
370
    15
100
AcDbSpline
210
0.0
220
0.0
230
1.0
 70
     8
 71
     3
 72
    18
 73
    14
 74
     0
 42
0.00000001
 43
0.00000001
 12
1.0
 22
0.0
 32
0.0
 13
1.0
 23
0.0
 33
0.0
 40
0.0
 40
0.0
 40
0.0
 40
0.0
 40
0.2499999999999999
 40
0.2499999999999999
 40
0.3749999999999999
 40
0.3749999999999999
 40
0.5
 40
0.5
 40
0.625
 40
0.625
 40
0.7500000000000001
 40
0.7500000000000001
 40
1.0
 40
1.0
 40
1.0
 40
1.0
 10
-3.250000000000593
 20
-0.3531760718118869
 30
0.0
 10
-3.009199234036593
 20
-0.5517851961696322
 30
0.0
 10
-2.757854295478656
 20
-0.7279413532449673
 30
0.0
 10
-2.349282961986484
 20
-0.9249840426216317
 30
0.0
 10
-2.207181976608753
 20
-0.9789246019248329
 30
0.0
 10
-1.92005813007659
 20
-1.051854322096531
 30
0.0
 10
-1.773642077464775
 20
-1.071459898992821
 30
0.0
 10
-1.475639577429009
 20
-1.071397168257057
 30
0.0
 10
-1.329552033087698
 20
-1.051787856302111
 30
0.0
 10
-1.042404622737999
 20
-0.9787869534714994
 30
0.0
 10
-0.9002073212470071
 20
-0.9247656313870157
 30
0.0
 10
-0.4919843405441175
 20
-0.7278085905251205
 30
0.0
 10
-0.2407414381152614
 20
-0.5517362633853453
 30
0.0
 10
0.0000000000006364
 20
-0.3531760718119845
 30
0.0
  0
SPLINE
  5
7E
330
1B
100
AcDbEntity
 67
     1
  8
0
  6
Continuous
 62
     7
370
    15
100
AcDbSpline
210
0.0
220
0.0
230
1.0
 70
    24
 71
     3
 72
    16
 73
    12
 74
     0
 42
0.00000001
 43
0.00000001
 12
1.0
 22
0.0
 32
0.0
 13
1.0
 23
0.0
 33
0.0
 40
0.0
 40
0.0
 40
0.0
 40
0.0
 40
0.1503981722039645
 40
0.3012748568255956
 40
0.4220403990444964
 40
0.5427768665548396
 40
0.6664375385879624
 40
0.790055383799789
 40
0.8873458769919967
 40
0.9846274674348022
 40
1.0
 40
1.0
 40
1.0
 40
1.0
 10
3.25
 20
-0.3531760718106245
 30
0.0
 10
3.250000000000001
 20
-0.4115522713084105
 30
0.0
 10
3.250000000000001
 20
-0.5284904021911887
 30
0.0
 10
3.250000000000001
 20
-0.6753819003843795
 30
0.0
 10
3.25
 20
-0.7976475798042839
 30
0.0
 10
3.25
 20
-0.896228933862818
 30
0.0
 10
3.250000000000001
 20
-0.9767692124869566
 30
0.0
 10
3.25
 20
-1.032117552319156
 30
0.0
 10
3.25
 20
-1.061545662476002
 30
0.0
 10
3.250000000000002
 20
-1.073433031212873
 30
0.0
 10
3.25
 20
-1.07061240318087
 30
0.0
 10
3.25
 20
-1.070227506515586
 30
0.0
  0
LINE
  5
84
330
1B
100
AcDbEntity
 67
     1
  8
0
  6
Continuous
 62
     7
370
    15
100
AcDbLine
 10
-3.25
 20
-1.0714285714
 30
0.0
 11
-0.85
 21
-4.5
 31
0.0
  0
LINE
  5
85
330
1B
100
AcDbEntity
 67
     1
  8
0
  6
Continuous
 62
     7
370
    15
100
AcDbLine
 10
0.85
 20
-4.5
 30
0.0
 11
3.25
 21
-1.0714285714
 31
0.0
  0
LINE
  5
86
330
1B
100
AcDbEntity
 67
     1
  8
0
  6
Continuous
 62
     7
370
    15
100
AcDbLine
 10
-3.0
 20
8.0
 30
0.0
 11
-3.0
 21
3.5
 31
0.0
  0
LINE
  5
87
330
1B
100
AcDbEntity
 67
     1
  8
0
  6
Continuous
 62
     7
370
    15
100
AcDbLine
 10
3.0
 20
3.5
 30
0.0
 11
3.0
 21
8.0
 31
0.0
  0
LINE
  5
88
330
1B
100
AcDbEntity
 67
     1
  8
0
  6
Continuous
 62
     7
370
    15
100
AcDbLine
 10
3.0
 20
8.0
 30
0.0
 11
2.5
 21
8.5
 31
0.0
  0
LINE
  5
89
330
1B
100
AcDbEntity
 67
     1
  8
0
  6
Continuous
 62
     7
370
    15
100
AcDbLine
 10
-2.5
 20
8.5
 30
0.0
 11
-3.0
 21
8.0
 31
0.0
  0
LINE
  5
8A
330
1B
100
AcDbEntity
 67
     1
  8
0
  6
Continuous
 62
     7
370
    15
100
AcDbLine
 10
0.0
 20
-0.3531760718
 30
0.0
 11
0.0
 21
3.5
 31
0.0
  0
LINE
  5
8B
330
1B
100
AcDbEntity
 67
     1
  8
0
  6
Continuous
 62
     7
370
    15
100
AcDbLine
 10
-3.25
 20
3.5
 30
0.0
 11
3.25
 21
3.5
 31
0.0
  0
LINE
  5
8C
330
1B
100
AcDbEntity
 67
     1
  8
0
  6
Continuous
 62
     7
370
    15
100
AcDbLine
 10
3.25
 20
-0.3531760718
 30
0.0
 11
3.25
 21
3.5
 31
0.0
  0
LINE
  5
8D
330
1B
100
AcDbEntity
 67
     1
  8
0
  6
Continuous
 62
     7
370
    15
100
AcDbLine
 10
-0.85
 20
-4.5
 30
0.0
 11
0.85
 21
-4.5
 31
0.0
  0
LINE
  5
8E
330
1B
100
AcDbEntity
 67
     1
  8
0
  6
Continuous
 62
     7
370
    15
100
AcDbLine
 10
-3.25
 20
-0.3531760718
 30
0.0
 11
-3.25
 21
3.5
 31
0.0
  0
LINE
  5
8F
330
1B
100
AcDbEntity
 67
     1
  8
0
  6
Continuous
 62
     7
370
    15
100
AcDbLine
 10
3.0
 20
8.0
 30
0.0
 11
-3.0
 21
8.0
 31
0.0
  0
LINE
  5
90
330
1B
100
AcDbEntity
 67
     1
  8
0
  6
Continuous
 62
     7
370
    15
100
AcDbLine
 10
-2.5
 20
8.5
 30
0.0
 11
2.5
 21
8.5
 31
0.0
  0
VIEWPORT
  5
189
330
1B
100
AcDbEntity
 67
     1
  8
0
100
AcDbViewport
 10
0.0
 20
0.0
 30
0.0
 40
243.84
 41
204.216
 68
     1
 69
     1
 12
-0.0561586749
 22
2.1197176691
 13
0.0
 23
0.0
 14
10.0
 24
10.0
 15
10.0
 25
10.0
 16
0.0
 26
0.0
 36
1.0
 17
0.0
 27
0.0
 37
0.0
 42
50.0
 43
0.0
 44
0.0
 45
13.7037537501
 50
0.0
 51
0.0
 72
   100
 90
   557152
  1

281
     0
 71
     1
 74
     0
110
0.0
120
0.0
130
0.0
111
1.0
121
0.0
131
0.0
112
0.0
122
1.0
132
0.0
 79
     0
146
0.0
  0
ENDSEC
  0
SECTION
  2
OBJECTS
  0
DICTIONARY
  5
C
330
0
100
AcDbDictionary
281
     1
  3
ACAD_GROUP
350
D
  3
ACAD_LAYOUT
350
1A
  3
ACAD_MLINESTYLE
350
17
  3
ACAD_PLOTSETTINGS
350
19
  3
ACAD_PLOTSTYLENAME
350
E
  0
DICTIONARY
  5
D
102
{ACAD_REACTORS
330
C
102
}
330
C
100
AcDbDictionary
281
     1
  0
DICTIONARY
  5
1A
102
{ACAD_REACTORS
330
C
102
}
330
C
100
AcDbDictionary
281
     1
  3
_Back
350
9A
  3
_Bottom
350
FB
  3
_Dimetric
350
16A
  3
_Front
350
26
  3
_Isometric
350
11E
  3
_Left
350
AE
  3
_Right
350
D6
  3
_Top
350
1E
  3
_Trimetric
350
146
  3
Model
350
22
  0
DICTIONARY
  5
17
102
{ACAD_REACTORS
330
C
102
}
330
C
100
AcDbDictionary
281
     1
  3
Standard
350
18
  0
DICTIONARY
  5
19
102
{ACAD_REACTORS
330
C
102
}
330
C
100
AcDbDictionary
281
     1
  0
ACDBDICTIONARYWDFLT
  5
E
102
{ACAD_REACTORS
330
C
102
}
330
C
100
AcDbDictionary
281
     1
  3
Normal
350
F
100
AcDbDictionaryWithDefault
340
F
  0
LAYOUT
  5
9A
102
{ACAD_REACTORS
330
1A
102
}
330
1A
100
AcDbPlotSettings
  1

  2
none_device
  4

  6

 40
0.0
 41
0.0
 42
0.0
 43
0.0
 44
0.0
 45
0.0
 46
0.0
 47
0.0
 48
0.0
 49
0.0
140
0.0
141
0.0
142
1.0
143
1.0
 70
   688
 72
     0
 73
     0
 74
     5
  7

 75
    16
147
1.0
148
0.0
149
0.0
100
AcDbLayout
  1
_Back
 70
     1
 71
     3
 10
0.0
 20
0.0
 11
0.0
 21
0.0
 12
0.0
 22
0.0
 32
0.0
 14
0.0
 24
0.0
 34
0.0
 15
0.0
 25
0.0
 35
0.0
146
0.0
 13
0.0
 23
0.0
 33
0.0
 16
1.0
 26
0.0
 36
0.0
 17
0.0
 27
1.0
 37
0.0
 76
     0
330
99
331
18B
  0
LAYOUT
  5
FB
102
{ACAD_REACTORS
330
1A
102
}
330
1A
100
AcDbPlotSettings
  1

  2
none_device
  4

  6

 40
0.0
 41
0.0
 42
0.0
 43
0.0
 44
0.0
 45
0.0
 46
0.0
 47
0.0
 48
0.0
 49
0.0
140
0.0
141
0.0
142
1.0
143
1.0
 70
   688
 72
     0
 73
     0
 74
     5
  7

 75
    16
147
1.0
148
0.0
149
0.0
100
AcDbLayout
  1
_Bottom
 70
     1
 71
     6
 10
0.0
 20
0.0
 11
0.0
 21
0.0
 12
0.0
 22
0.0
 32
0.0
 14
0.0
 24
0.0
 34
0.0
 15
0.0
 25
0.0
 35
0.0
146
0.0
 13
0.0
 23
0.0
 33
0.0
 16
1.0
 26
0.0
 36
0.0
 17
0.0
 27
1.0
 37
0.0
 76
     0
330
FA
331
18E
  0
LAYOUT
  5
16A
102
{ACAD_REACTORS
330
1A
102
}
330
1A
100
AcDbPlotSettings
  1

  2
none_device
  4

  6

 40
0.0
 41
0.0
 42
0.0
 43
0.0
 44
0.0
 45
0.0
 46
0.0
 47
0.0
 48
0.0
 49
0.0
140
0.0
141
0.0
142
1.0
143
1.0
 70
   688
 72
     0
 73
     0
 74
     5
  7

 75
    16
147
1.0
148
0.0
149
0.0
100
AcDbLayout
  1
_Dimetric
 70
     1
 71
     9
 10
0.0
 20
0.0
 11
0.0
 21
0.0
 12
0.0
 22
0.0
 32
0.0
 14
0.0
 24
0.0
 34
0.0
 15
0.0
 25
0.0
 35
0.0
146
0.0
 13
0.0
 23
0.0
 33
0.0
 16
1.0
 26
0.0
 36
0.0
 17
0.0
 27
1.0
 37
0.0
 76
     0
330
169
331
191
  0
LAYOUT
  5
26
102
{ACAD_REACTORS
330
1A
102
}
330
1A
100
AcDbPlotSettings
  1

  2
none_device
  4

  6

 40
0.0
 41
0.0
 42
0.0
 43
0.0
 44
0.0
 45
0.0
 46
0.0
 47
0.0
 48
0.0
 49
0.0
140
0.0
141
0.0
142
1.0
143
1.0
 70
   688
 72
     0
 73
     0
 74
     5
  7

 75
    16
147
1.0
148
0.0
149
0.0
100
AcDbLayout
  1
_Front
 70
     1
 71
     2
 10
0.0
 20
0.0
 11
0.0
 21
0.0
 12
0.0
 22
0.0
 32
0.0
 14
0.0
 24
0.0
 34
0.0
 15
0.0
 25
0.0
 35
0.0
146
0.0
 13
0.0
 23
0.0
 33
0.0
 16
1.0
 26
0.0
 36
0.0
 17
0.0
 27
1.0
 37
0.0
 76
     0
330
23
331
18A
  0
LAYOUT
  5
11E
102
{ACAD_REACTORS
330
1A
102
}
330
1A
100
AcDbPlotSettings
  1

  2
none_device
  4

  6

 40
0.0
 41
0.0
 42
0.0
 43
0.0
 44
0.0
 45
0.0
 46
0.0
 47
0.0
 48
0.0
 49
0.0
140
0.0
141
0.0
142
1.0
143
1.0
 70
   688
 72
     0
 73
     0
 74
     5
  7

 75
    16
147
1.0
148
0.0
149
0.0
100
AcDbLayout
  1
_Isometric
 70
     1
 71
     7
 10
0.0
 20
0.0
 11
0.0
 21
0.0
 12
0.0
 22
0.0
 32
0.0
 14
0.0
 24
0.0
 34
0.0
 15
0.0
 25
0.0
 35
0.0
146
0.0
 13
0.0
 23
0.0
 33
0.0
 16
1.0
 26
0.0
 36
0.0
 17
0.0
 27
1.0
 37
0.0
 76
     0
330
11D
331
18F
  0
LAYOUT
  5
AE
102
{ACAD_REACTORS
330
1A
102
}
330
1A
100
AcDbPlotSettings
  1

  2
none_device
  4

  6

 40
0.0
 41
0.0
 42
0.0
 43
0.0
 44
0.0
 45
0.0
 46
0.0
 47
0.0
 48
0.0
 49
0.0
140
0.0
141
0.0
142
1.0
143
1.0
 70
   688
 72
     0
 73
     0
 74
     5
  7

 75
    16
147
1.0
148
0.0
149
0.0
100
AcDbLayout
  1
_Left
 70
     1
 71
     4
 10
0.0
 20
0.0
 11
0.0
 21
0.0
 12
0.0
 22
0.0
 32
0.0
 14
0.0
 24
0.0
 34
0.0
 15
0.0
 25
0.0
 35
0.0
146
0.0
 13
0.0
 23
0.0
 33
0.0
 16
1.0
 26
0.0
 36
0.0
 17
0.0
 27
1.0
 37
0.0
 76
     0
330
AD
331
18C
  0
LAYOUT
  5
D6
102
{ACAD_REACTORS
330
1A
102
}
330
1A
100
AcDbPlotSettings
  1

  2
none_device
  4

  6

 40
0.0
 41
0.0
 42
0.0
 43
0.0
 44
0.0
 45
0.0
 46
0.0
 47
0.0
 48
0.0
 49
0.0
140
0.0
141
0.0
142
1.0
143
1.0
 70
   688
 72
     0
 73
     0
 74
     5
  7

 75
    16
147
1.0
148
0.0
149
0.0
100
AcDbLayout
  1
_Right
 70
     1
 71
     5
 10
0.0
 20
0.0
 11
0.0
 21
0.0
 12
0.0
 22
0.0
 32
0.0
 14
0.0
 24
0.0
 34
0.0
 15
0.0
 25
0.0
 35
0.0
146
0.0
 13
0.0
 23
0.0
 33
0.0
 16
1.0
 26
0.0
 36
0.0
 17
0.0
 27
1.0
 37
0.0
 76
     0
330
D5
331
18D
  0
LAYOUT
  5
1E
102
{ACAD_REACTORS
330
1A
102
}
330
1A
100
AcDbPlotSettings
  1

  2
none_device
  4

  6

 40
0.0
 41
0.0
 42
0.0
 43
0.0
 44
0.0
 45
0.0
 46
0.0
 47
0.0
 48
0.0
 49
0.0
140
0.0
141
0.0
142
1.0
143
1.0
 70
   688
 72
     0
 73
     0
 74
     5
  7

 75
    16
147
1.0
148
0.0
149
0.0
100
AcDbLayout
  1
_Top
 70
     1
 71
     1
 10
0.0
 20
0.0
 11
420.0
 21
297.0
 12
0.0
 22
0.0
 32
0.0
 14
-3.25
 24
-4.5
 34
0.0
 15
3.25
 25
8.5
 35
0.0
146
0.0
 13
0.0
 23
0.0
 33
0.0
 16
1.0
 26
0.0
 36
0.0
 17
0.0
 27
1.0
 37
0.0
 76
     0
330
1B
331
189
  0
LAYOUT
  5
146
102
{ACAD_REACTORS
330
1A
102
}
330
1A
100
AcDbPlotSettings
  1

  2
none_device
  4

  6

 40
0.0
 41
0.0
 42
0.0
 43
0.0
 44
0.0
 45
0.0
 46
0.0
 47
0.0
 48
0.0
 49
0.0
140
0.0
141
0.0
142
1.0
143
1.0
 70
   688
 72
     0
 73
     0
 74
     5
  7

 75
    16
147
1.0
148
0.0
149
0.0
100
AcDbLayout
  1
_Trimetric
 70
     1
 71
     8
 10
0.0
 20
0.0
 11
0.0
 21
0.0
 12
0.0
 22
0.0
 32
0.0
 14
0.0
 24
0.0
 34
0.0
 15
0.0
 25
0.0
 35
0.0
146
0.0
 13
0.0
 23
0.0
 33
0.0
 16
1.0
 26
0.0
 36
0.0
 17
0.0
 27
1.0
 37
0.0
 76
     0
330
145
331
190
  0
LAYOUT
  5
22
102
{ACAD_REACTORS
330
1A
102
}
330
1A
100
AcDbPlotSettings
  1

  2
none_device
  4
ANSI_A_(11.00_x_8.50_Inches)
  6

 40
6.35
 41
19.05
 42
6.35000508
 43
19.05000254
 44
279.4
 45
215.9
 46
134.2434373005
 47
55.176976978
 48
0.0
 49
0.0
140
0.0
141
0.0
142
0.6263466315
143
1.0
 70
  1696
 72
     0
 73
     0
 74
     0
  7

 75
     0
147
0.0179189148
148
0.0
149
0.0
100
AcDbLayout
  1
Model
 70
     1
 71
     0
 10
0.0
 20
0.0
 11
420.0
 21
297.0
 12
0.0
 22
0.0
 32
0.0
 14
-3.4574959924
 24
-4.597808679
 34
0.0
 15
3.3451786425
 25
8.8372440172
 35
0.0
146
0.0
 13
0.0
 23
0.0
 33
0.0
 16
1.0
 26
0.0
 36
0.0
 17
0.0
 27
1.0
 37
0.0
 76
     0
330
1F
331
29
  0
MLINESTYLE
  5
18
102
{ACAD_REACTORS
330
17
102
}
330
17
100
AcDbMlineStyle
  2
Standard
 70
     0
  3

 62
   256
 51
90.0
 52
90.0
 71
     2
 49
0.5
 62
   256
  6
BYLAYER
 49
-0.5
 62
   256
  6
BYLAYER
  0
ACDBPLACEHOLDER
  5
F
102
{ACAD_REACTORS
330
E
102
}
330
E
  0
ENDSEC
  0
EOF
