  0
SECTION
  2
HEADER
  9
$ACADVER
  1
AC1015
  9
$ACADMAINTVER
 70
     6
  9
$DWGCODEPAGE
  3
ANSI_1252
  9
$INSBASE
 10
0.0
 20
0.0
 30
0.0
  9
$EXTMIN
 10
-21.1518730615
 20
-18.5167436834
 30
0.0
  9
$EXTMAX
 10
20.8274296562
 20
18.7932148012
 30
0.0
  9
$LIMMIN
 10
0.0
 20
0.0
  9
$LIMMAX
 10
420.0
 20
297.0
  9
$ORTHOMODE
 70
     0
  9
$REGENMODE
 70
     1
  9
$FILLMODE
 70
     1
  9
$QTEXTMODE
 70
     0
  9
$MIRRTEXT
 70
     1
  9
$LTSCALE
 40
1.0
  9
$ATTMODE
 70
     1
  9
$TEXTSIZE
 40
3.5
  9
$TRACEWID
 40
1.0
  9
$TEXTSTYLE
  7
Standard
  9
$CLAYER
  8
0
  9
$CELTYPE
  6
ByLayer
  9
$CECOLOR
 62
   256
  9
$CELTSCALE
 40
1.0
  9
$DISPSILH
 70
     0
  9
$DIMSCALE
 40
1.0
  9
$DIMASZ
 40
6.0
  9
$DIMEXO
 40
1.0
  9
$DIMDLI
 40
3.75
  9
$DIMRND
 40
0.0
  9
$DIMDLE
 40
0.0
  9
$DIMEXE
 40
1.0
  9
$DIMTP
 40
0.0
  9
$DIMTM
 40
0.0
  9
$DIMTXT
 40
3.5
  9
$DIMCEN
 40
2.5
  9
$DIMTSZ
 40
0.0
  9
$DIMTOL
 70
     0
  9
$DIMLIM
 70
     0
  9
$DIMTIH
 70
     1
  9
$DIMTOH
 70
     1
  9
$DIMSE1
 70
     0
  9
$DIMSE2
 70
     0
  9
$DIMTAD
 70
     1
  9
$DIMZIN
 70
     0
  9
$DIMBLK
  1

  9
$DIMASO
 70
     1
  9
$DIMSHO
 70
     1
  9
$DIMPOST
  1

  9
$DIMAPOST
  1

  9
$DIMALT
 70
     0
  9
$DIMALTD
 70
     3
  9
$DIMALTF
 40
0.0393700787
  9
$DIMLFAC
 40
1.0
  9
$DIMTOFL
 70
     1
  9
$DIMTVP
 40
0.0
  9
$DIMTIX
 70
     0
  9
$DIMSOXD
 70
     0
  9
$DIMSAH
 70
     0
  9
$DIMBLK1
  1

  9
$DIMBLK2
  1

  9
$DIMSTYLE
  2
ISO-25
  9
$DIMCLRD
 70
     0
  9
$DIMCLRE
 70
     0
  9
$DIMCLRT
 70
     0
  9
$DIMTFAC
 40
1.0
  9
$DIMGAP
 40
1.524
  9
$DIMJUST
 70
     0
  9
$DIMSD1
 70
     0
  9
$DIMSD2
 70
     0
  9
$DIMTOLJ
 70
     0
  9
$DIMTZIN
 70
     0
  9
$DIMALTZ
 70
     0
  9
$DIMALTTZ
 70
     0
  9
$DIMUPT
 70
     0
  9
$DIMDEC
 70
     3
  9
$DIMTDEC
 70
     3
  9
$DIMALTU
 70
     2
  9
$DIMALTTD
 70
     3
  9
$DIMTXSTY
  7
Standard
  9
$DIMAUNIT
 70
     0
  9
$DIMADEC
 70
     2
  9
$DIMALTRND
 40
0.0
  9
$DIMAZIN
 70
     0
  9
$DIMDSEP
 70
    44
  9
$DIMATFIT
 70
     3
  9
$DIMFRAC
 70
     0
  9
$DIMLDRBLK
  1

  9
$DIMLUNIT
 70
     2
  9
$DIMLWD
 70
    -2
  9
$DIMLWE
 70
    -2
  9
$DIMTMOVE
 70
     0
  9
$LUNITS
 70
     2
  9
$LUPREC
 70
     2
  9
$SKETCHINC
 40
1.0
  9
$FILLETRAD
 40
10.0
  9
$AUNITS
 70
     0
  9
$AUPREC
 70
     2
  9
$MENU
  1
.
  9
$ELEVATION
 40
0.0
  9
$PELEVATION
 40
0.0
  9
$THICKNESS
 40
0.0
  9
$LIMCHECK
 70
     0
  9
$CHAMFERA
 40
10.0
  9
$CHAMFERB
 40
10.0
  9
$CHAMFERC
 40
20.0
  9
$CHAMFERD
 40
0.0
  9
$SKPOLY
 70
     0
  9
$TDCREATE
 40
2456194.542402327
  9
$TDUCREATE
 40
2456194.042402327
  9
$TDUPDATE
 40
2456194.54254853
  9
$TDUUPDATE
 40
2456194.04254853
  9
$TDINDWG
 40
0.0000000116
  9
$TDUSRTIMER
 40
0.0000000116
  9
$USRTIMER
 70
     1
  9
$ANGBASE
 50
0.0
  9
$ANGDIR
 70
     0
  9
$PDMODE
 70
     0
  9
$PDSIZE
 40
-1.0
  9
$PLINEWID
 40
0.0
  9
$SPLFRAME
 70
     0
  9
$SPLINETYPE
 70
     6
  9
$SPLINESEGS
 70
     8
  9
$HANDSEED
  5
2DE
  9
$SURFTAB1
 70
     6
  9
$SURFTAB2
 70
     6
  9
$SURFTYPE
 70
     6
  9
$SURFU
 70
     6
  9
$SURFV
 70
     6
  9
$UCSBASE
  2

  9
$UCSNAME
  2

  9
$UCSORG
 10
0.0
 20
0.0
 30
0.0
  9
$UCSXDIR
 10
1.0
 20
0.0
 30
0.0
  9
$UCSYDIR
 10
0.0
 20
1.0
 30
0.0
  9
$UCSORTHOREF
  2

  9
$UCSORTHOVIEW
 70
     0
  9
$UCSORGTOP
 10
0.0
 20
0.0
 30
0.0
  9
$UCSORGBOTTOM
 10
0.0
 20
0.0
 30
0.0
  9
$UCSORGLEFT
 10
0.0
 20
0.0
 30
0.0
  9
$UCSORGRIGHT
 10
0.0
 20
0.0
 30
0.0
  9
$UCSORGFRONT
 10
0.0
 20
0.0
 30
0.0
  9
$UCSORGBACK
 10
0.0
 20
0.0
 30
0.0
  9
$PUCSBASE
  2

  9
$PUCSNAME
  2

  9
$PUCSORG
 10
0.0
 20
0.0
 30
0.0
  9
$PUCSXDIR
 10
1.0
 20
0.0
 30
0.0
  9
$PUCSYDIR
 10
0.0
 20
1.0
 30
0.0
  9
$PUCSORTHOREF
  2

  9
$PUCSORTHOVIEW
 70
     0
  9
$PUCSORGTOP
 10
0.0
 20
0.0
 30
0.0
  9
$PUCSORGBOTTOM
 10
0.0
 20
0.0
 30
0.0
  9
$PUCSORGLEFT
 10
0.0
 20
0.0
 30
0.0
  9
$PUCSORGRIGHT
 10
0.0
 20
0.0
 30
0.0
  9
$PUCSORGFRONT
 10
0.0
 20
0.0
 30
0.0
  9
$PUCSORGBACK
 10
0.0
 20
0.0
 30
0.0
  9
$USERI1
 70
     0
  9
$USERI2
 70
     0
  9
$USERI3
 70
     0
  9
$USERI4
 70
     0
  9
$USERI5
 70
     0
  9
$USERR1
 40
0.0
  9
$USERR2
 40
0.0
  9
$USERR3
 40
0.0
  9
$USERR4
 40
0.0
  9
$USERR5
 40
0.0
  9
$WORLDVIEW
 70
     1
  9
$SHADEDGE
 70
     3
  9
$SHADEDIF
 70
    70
  9
$TILEMODE
 70
     1
  9
$MAXACTVP
 70
    64
  9
$PINSBASE
 10
0.0
 20
0.0
 30
0.0
  9
$PLIMCHECK
 70
     0
  9
$PEXTMIN
 10
-21.0
 20
-4.75
 30
0.0
  9
$PEXTMAX
 10
21.0
 20
4.75
 30
0.0
  9
$PLIMMIN
 10
0.0
 20
0.0
  9
$PLIMMAX
 10
420.0
 20
297.0
  9
$UNITMODE
 70
     0
  9
$VISRETAIN
 70
     1
  9
$PLINEGEN
 70
     0
  9
$PSLTSCALE
 70
     1
  9
$TREEDEPTH
 70
  3020
  9
$CMLSTYLE
  2
Standard
  9
$CMLJUST
 70
     0
  9
$CMLSCALE
 40
20.0
  9
$PROXYGRAPHICS
 70
     1
  9
$MEASUREMENT
 70
     1
  9
$CELWEIGHT
370
    -1
  9
$ENDCAPS
280
     0
  9
$JOINSTYLE
280
     0
  9
$LWDISPLAY
290
     1
  9
$INSUNITS
 70
     4
  9
$HYPERLINKBASE
  1

  9
$STYLESHEET
  1

  9
$XEDIT
290
     1
  9
$CEPSNTYPE
380
     0
  9
$PSTYLEMODE
290
     1
  9
$FINGERPRINTGUID
  2
{674D68BF-8A78-4960-B76E-17EE0FC06F3A}
  9
$VERSIONGUID
  2
{FAEB1C32-E019-11D5-929B-00C0DF256EC4}
  9
$EXTNAMES
290
     1
  9
$PSVPSCALE
 40
0.0
  9
$OLESTARTUP
290
     0
  0
ENDSEC
  0
SECTION
  2
CLASSES
  0
CLASS
  1
ACDBDICTIONARYWDFLT
  2
AcDbDictionaryWithDefault
  3
ObjectDBX Classes
 90
        0
280
     0
281
     0
  0
CLASS
  1
VISUALSTYLE
  2
AcDbVisualStyle
  3
ObjectDBX Classes
 90
     4095
280
     0
281
     0
  0
CLASS
  1
MATERIAL
  2
AcDbMaterial
  3
ObjectDBX Classes
 90
     1153
280
     0
281
     0
  0
CLASS
  1
SCALE
  2
AcDbScale
  3
ObjectDBX Classes
 90
     1153
280
     0
281
     0
  0
CLASS
  1
DICTIONARYVAR
  2
AcDbDictionaryVar
  3
ObjectDBX Classes
 90
        0
280
     0
281
     0
  0
CLASS
  1
ACDBPLACEHOLDER
  2
AcDbPlaceHolder
  3
ObjectDBX Classes
 90
        0
280
     0
281
     0
  0
CLASS
  1
LAYOUT
  2
AcDbLayout
  3
ObjectDBX Classes
 90
        0
280
     0
281
     0
  0
ENDSEC
  0
SECTION
  2
TABLES
  0
TABLE
  2
VPORT
  5
8
330
0
100
AcDbSymbolTable
 70
     1
  0
VPORT
  5
29
330
8
100
AcDbSymbolTableRecord
100
AcDbViewportTableRecord
  2
*Active
 70
     0
 10
0.0
 20
0.0
 11
1.0
 21
1.0
 12
-0.1622217027
 22
0.1382355589
 13
0.0
 23
0.0
 14
10.0
 24
10.0
 15
10.0
 25
10.0
 16
0.0
 26
0.0
 36
1.0
 17
0.0
 27
0.0
 37
0.0
 40
38.0561576543
 41
1.1251500785
 42
50.0
 43
0.0
 44
0.0
 50
0.0
 51
0.0
 71
     0
 72
   100
 73
     1
 74
     3
 75
     0
 76
     0
 77
     0
 78
     0
281
     0
 65
     1
110
0.0
120
0.0
130
0.0
111
1.0
121
0.0
131
0.0
112
0.0
122
1.0
132
0.0
 79
     0
146
0.0
  0
ENDTAB
  0
TABLE
  2
LTYPE
  5
5
330
0
100
AcDbSymbolTable
 70
     6
  0
LTYPE
  5
14
330
5
100
AcDbSymbolTableRecord
100
AcDbLinetypeTableRecord
  2
ByBlock
 70
     0
  3

 72
    65
 73
     0
 40
0.0
  0
LTYPE
  5
15
330
5
100
AcDbSymbolTableRecord
100
AcDbLinetypeTableRecord
  2
ByLayer
 70
     0
  3

 72
    65
 73
     0
 40
0.0
  0
LTYPE
  5
16
330
5
100
AcDbSymbolTableRecord
100
AcDbLinetypeTableRecord
  2
Continuous
 70
     0
  3
Solid line
 72
    65
 73
     0
 40
0.0
  0
LTYPE
  5
3F
330
5
100
AcDbSymbolTableRecord
100
AcDbLinetypeTableRecord
  2
HIDDEN
 70
     0
  3
Hidden __ __ __ __ __ __ __ __ __ __ __ __ __ __
 72
    65
 73
     2
 40
1.905
 49
1.27
 74
     0
 49
-0.635
 74
     0
  0
LTYPE
  5
40
330
5
100
AcDbSymbolTableRecord
100
AcDbLinetypeTableRecord
  2
PHANTOM
 70
     0
  3
Phantom ______  __  __  ______  __  __  ______
 72
    65
 73
     6
 40
12.7
 49
6.35
 74
     0
 49
-1.27
 74
     0
 49
1.27
 74
     0
 49
-1.27
 74
     0
 49
1.27
 74
     0
 49
-1.27
 74
     0
  0
LTYPE
  5
41
330
5
100
AcDbSymbolTableRecord
100
AcDbLinetypeTableRecord
  2
CENTER
 70
     0
  3
Center ____ _ ____ _ ____ _ ____ _ ____ _ ____
 72
    65
 73
     4
 40
10.16
 49
6.35
 74
     0
 49
-1.27
 74
     0
 49
1.27
 74
     0
 49
-1.27
 74
     0
  0
LTYPE
  5
42
330
5
100
AcDbSymbolTableRecord
100
AcDbLinetypeTableRecord
  2
CENTERX2
 70
     0
  3
Center (2x) ________  __  ________  __  _____
 72
    65
 73
     4
 40
20.32
 49
12.7
 74
     0
 49
-2.54
 74
     0
 49
2.54
 74
     0
 49
-2.54
 74
     0
  0
LTYPE
  5
43
330
5
100
AcDbSymbolTableRecord
100
AcDbLinetypeTableRecord
  2
DOT2
 70
     0
  3
Dot (.5x) ........................................
 72
    65
 73
     2
 40
0.635
 49
0.0
 74
     0
 49
-0.635
 74
     0
  0
ENDTAB
  0
TABLE
  2
LAYER
  5
2
330
0
100
AcDbSymbolTable
 70
     1
  0
LAYER
  5
10
330
2
100
AcDbSymbolTableRecord
100
AcDbLayerTableRecord
  2
0
 70
     0
 62
     7
  6
Continuous
370
    -3
390
F
  0
ENDTAB
  0
TABLE
  2
STYLE
  5
3
330
0
100
AcDbSymbolTable
 70
     1
  0
STYLE
  5
11
330
3
100
AcDbSymbolTableRecord
100
AcDbTextStyleTableRecord
  2
Standard
 70
     0
 40
0.0
 41
1.0
 50
0.0
 71
     0
 42
3.5
  3
txt
  4

  0
ENDTAB
  0
TABLE
  2
VIEW
  5
6
330
0
100
AcDbSymbolTable
 70
     0
  0
ENDTAB
  0
TABLE
  2
UCS
  5
7
330
0
100
AcDbSymbolTable
 70
     0
  0
ENDTAB
  0
TABLE
  2
APPID
  5
9
330
0
100
AcDbSymbolTable
 70
     1
  0
APPID
  5
12
330
9
100
AcDbSymbolTableRecord
100
AcDbRegAppTableRecord
  2
ACAD
 70
     0
  0
ENDTAB
  0
TABLE
  2
DIMSTYLE
  5
A
330
0
100
AcDbSymbolTable
 70
     1
100
AcDbDimStyleTable
  0
DIMSTYLE
105
27
330
A
100
AcDbSymbolTableRecord
100
AcDbDimStyleTableRecord
  2
ISO-25
 70
     0
 41
2.5
 42
0.625
 43
3.75
 44
1.25
 73
     0
 74
     0
 77
     1
 78
     8
140
2.5
141
2.5
143
0.0393700787
147
0.625
171
     3
172
     1
178
     0
271
     2
272
     2
274
     3
278
    44
283
     0
284
     8
340
11
  0
ENDTAB
  0
TABLE
  2
BLOCK_RECORD
  5
1
330
0
100
AcDbSymbolTable
 70
     8
  0
BLOCK_RECORD
  5
1F
330
1
100
AcDbSymbolTableRecord
100
AcDbBlockTableRecord
  2
*Model_Space
340
22
  0
BLOCK_RECORD
  5
1B
330
1
100
AcDbSymbolTableRecord
100
AcDbBlockTableRecord
  2
*Paper_Space
340
1E
  0
BLOCK_RECORD
  5
23
330
1
100
AcDbSymbolTableRecord
100
AcDbBlockTableRecord
  2
*Paper_Space0
340
26
  0
BLOCK_RECORD
  5
F8
330
1
100
AcDbSymbolTableRecord
100
AcDbBlockTableRecord
  2
*Paper_Space1
340
F9
  0
BLOCK_RECORD
  5
126
330
1
100
AcDbSymbolTableRecord
100
AcDbBlockTableRecord
  2
*Paper_Space2
340
127
  0
BLOCK_RECORD
  5
14A
330
1
100
AcDbSymbolTableRecord
100
AcDbBlockTableRecord
  2
*Paper_Space3
340
14B
  0
BLOCK_RECORD
  5
16E
330
1
100
AcDbSymbolTableRecord
100
AcDbBlockTableRecord
  2
*Paper_Space4
340
16F
  0
BLOCK_RECORD
  5
194
330
1
100
AcDbSymbolTableRecord
100
AcDbBlockTableRecord
  2
*Paper_Space5
340
195
  0
BLOCK_RECORD
  5
1F3
330
1
100
AcDbSymbolTableRecord
100
AcDbBlockTableRecord
  2
*Paper_Space6
340
1F4
  0
BLOCK_RECORD
  5
257
330
1
100
AcDbSymbolTableRecord
100
AcDbBlockTableRecord
  2
*Paper_Space7
340
258
  0
ENDTAB
  0
ENDSEC
  0
SECTION
  2
BLOCKS
  0
BLOCK
  5
20
330
1F
100
AcDbEntity
  8
0
100
AcDbBlockBegin
  2
*Model_Space
 70
     0
 10
0.0
 20
0.0
 30
0.0
  3
*Model_Space
  1

  0
ENDBLK
  5
21
330
1F
100
AcDbEntity
  8
0
100
AcDbBlockEnd
  0
BLOCK
  5
1C
330
1B
100
AcDbEntity
 67
     1
  8
0
100
AcDbBlockBegin
  2
*Paper_Space
 70
     0
 10
0.0
 20
0.0
 30
0.0
  3
*Paper_Space
  1

  0
ENDBLK
  5
1D
330
1B
100
AcDbEntity
 67
     1
  8
0
100
AcDbBlockEnd
  0
BLOCK
  5
24
330
23
100
AcDbEntity
  8
0
100
AcDbBlockBegin
  2
*Paper_Space0
 70
     0
 10
0.0
 20
0.0
 30
0.0
  3
*Paper_Space0
  1

  0
CIRCLE
  5
D9
330
23
100
AcDbEntity
  8
0
  6
Continuous
 62
     7
370
    15
100
AcDbCircle
 10
6.0
 20
-2.155
 30
0.0
 40
2.999999999999998
  0
CIRCLE
  5
DA
330
23
100
AcDbEntity
  8
0
  6
Continuous
 62
     7
370
    15
100
AcDbCircle
 10
-6.0
 20
-2.155
 30
0.0
 40
3.000000000000005
  0
LINE
  5
EB
330
23
100
AcDbEntity
  8
0
  6
Continuous
 62
     7
370
    15
100
AcDbLine
 10
-20.5
 20
7.5
 30
0.0
 11
-20.5
 21
-7.5
 31
0.0
  0
LINE
  5
EC
330
23
100
AcDbEntity
  8
0
  6
Continuous
 62
     7
370
    15
100
AcDbLine
 10
20.5
 20
-7.5
 30
0.0
 11
20.5
 21
7.5
 31
0.0
  0
LINE
  5
ED
330
23
100
AcDbEntity
  8
0
  6
Continuous
 62
     7
370
    15
100
AcDbLine
 10
-21.0
 20
-7.0
 30
0.0
 11
21.0
 21
-7.0
 31
0.0
  0
LINE
  5
EE
330
23
100
AcDbEntity
  8
0
  6
Continuous
 62
     7
370
    15
100
AcDbLine
 10
21.0
 20
7.5
 30
0.0
 11
-21.0
 21
7.5
 31
0.0
  0
LINE
  5
EF
330
23
100
AcDbEntity
  8
0
  6
Continuous
 62
     7
370
    15
100
AcDbLine
 10
-21.0
 20
-7.0
 30
0.0
 11
-21.0
 21
7.5
 31
0.0
  0
LINE
  5
F0
330
23
100
AcDbEntity
  8
0
  6
Continuous
 62
     7
370
    15
100
AcDbLine
 10
-21.0
 20
-7.0
 30
0.0
 11
-20.5
 21
-7.5
 31
0.0
  0
LINE
  5
F1
330
23
100
AcDbEntity
  8
0
  6
Continuous
 62
     7
370
    15
100
AcDbLine
 10
21.0
 20
7.5
 30
0.0
 11
21.0
 21
-7.0
 31
0.0
  0
LINE
  5
F2
330
23
100
AcDbEntity
  8
0
  6
Continuous
 62
     7
370
    15
100
AcDbLine
 10
20.5
 20
-7.5
 30
0.0
 11
21.0
 21
-7.0
 31
0.0
  0
LINE
  5
F3
330
23
100
AcDbEntity
  8
0
  6
Continuous
 62
     7
370
    15
100
AcDbLine
 10
20.5
 20
-7.5
 30
0.0
 11
-20.5
 21
-7.5
 31
0.0
  0
LINE
  5
F4
330
23
100
AcDbEntity
  8
0
  6
HIDDEN
 62
     7
370
     0
100
AcDbLine
 10
17.05
 20
-7.5
 30
0.0
 11
17.05
 21
7.5
 31
0.0
  0
LINE
  5
F5
330
23
100
AcDbEntity
  8
0
  6
HIDDEN
 62
     7
370
     0
100
AcDbLine
 10
13.95
 20
7.5
 30
0.0
 11
13.95
 21
-7.5
 31
0.0
  0
LINE
  5
F6
330
23
100
AcDbEntity
  8
0
  6
HIDDEN
 62
     7
370
     0
100
AcDbLine
 10
-13.95
 20
-7.5
 30
0.0
 11
-13.95
 21
7.5
 31
0.0
  0
LINE
  5
F7
330
23
100
AcDbEntity
  8
0
  6
HIDDEN
 62
     7
370
     0
100
AcDbLine
 10
-17.05
 20
7.5
 30
0.0
 11
-17.05
 21
-7.5
 31
0.0
  0
VIEWPORT
  5
2D4
330
23
100
AcDbEntity
  8
0
100
AcDbViewport
 10
0.0
 20
0.0
 30
0.0
 40
243.84
 41
204.216
 68
     1
 69
     1
 12
-0.1622217027
 22
0.1382355589
 13
0.0
 23
0.0
 14
10.0
 24
10.0
 15
10.0
 25
10.0
 16
0.0
 26
0.0
 36
1.0
 17
0.0
 27
0.0
 37
0.0
 42
50.0
 43
0.0
 44
0.0
 45
38.0561576543
 50
0.0
 51
0.0
 72
   100
 90
   557152
  1

281
     0
 71
     1
 74
     0
110
0.0
120
0.0
130
0.0
111
1.0
121
0.0
131
0.0
112
0.0
122
1.0
132
0.0
 79
     0
146
0.0
  0
ENDBLK
  5
25
330
23
100
AcDbEntity
  8
0
100
AcDbBlockEnd
  0
BLOCK
  5
FA
330
F8
100
AcDbEntity
  8
0
100
AcDbBlockBegin
  2
*Paper_Space1
 70
     0
 10
0.0
 20
0.0
 30
0.0
  3
*Paper_Space1
  1

  0
CIRCLE
  5
FF
330
F8
100
AcDbEntity
  8
0
  6
Continuous
 62
     7
370
    15
100
AcDbCircle
 10
15.5
 20
0.75
 30
0.0
 40
1.549999999999995
  0
CIRCLE
  5
100
330
F8
100
AcDbEntity
  8
0
  6
Continuous
 62
     7
370
    15
100
AcDbCircle
 10
-15.5
 20
0.75
 30
0.0
 40
1.550000000000004
  0
LINE
  5
116
330
F8
100
AcDbEntity
  8
0
  6
Continuous
 62
     7
370
    15
100
AcDbLine
 10
20.5
 20
-4.75
 30
0.0
 11
21.0
 21
-4.25
 31
0.0
  0
LINE
  5
117
330
F8
100
AcDbEntity
  8
0
  6
Continuous
 62
     7
370
    15
100
AcDbLine
 10
-21.0
 20
-4.25
 30
0.0
 11
-20.5
 21
-4.75
 31
0.0
  0
LINE
  5
118
330
F8
100
AcDbEntity
  8
0
  6
Continuous
 62
     7
370
    15
100
AcDbLine
 10
-20.5
 20
4.75
 30
0.0
 11
-21.0
 21
4.25
 31
0.0
  0
LINE
  5
119
330
F8
100
AcDbEntity
  8
0
  6
Continuous
 62
     7
370
    15
100
AcDbLine
 10
21.0
 20
4.25
 30
0.0
 11
20.5
 21
4.75
 31
0.0
  0
LINE
  5
11A
330
F8
100
AcDbEntity
  8
0
  6
Continuous
 62
     7
370
    15
100
AcDbLine
 10
20.5
 20
-4.75
 30
0.0
 11
-20.5
 21
-4.75
 31
0.0
  0
LINE
  5
11B
330
F8
100
AcDbEntity
  8
0
  6
Continuous
 62
     7
370
    15
100
AcDbLine
 10
21.0
 20
4.25
 30
0.0
 11
21.0
 21
-4.25
 31
0.0
  0
LINE
  5
11C
330
F8
100
AcDbEntity
  8
0
  6
Continuous
 62
     7
370
    15
100
AcDbLine
 10
-20.5
 20
4.75
 30
0.0
 11
20.5
 21
4.75
 31
0.0
  0
LINE
  5
11D
330
F8
100
AcDbEntity
  8
0
  6
Continuous
 62
     7
370
    15
100
AcDbLine
 10
-21.0
 20
-4.25
 30
0.0
 11
-21.0
 21
4.25
 31
0.0
  0
LINE
  5
11E
330
F8
100
AcDbEntity
  8
0
  6
HIDDEN
 62
     7
370
     0
100
AcDbLine
 10
-21.0
 20
4.25
 30
0.0
 11
21.0
 21
4.25
 31
0.0
  0
LINE
  5
11F
330
F8
100
AcDbEntity
  8
0
  6
HIDDEN
 62
     7
370
     0
100
AcDbLine
 10
20.5
 20
4.75
 30
0.0
 11
20.5
 21
-4.75
 31
0.0
  0
LINE
  5
120
330
F8
100
AcDbEntity
  8
0
  6
HIDDEN
 62
     7
370
     0
100
AcDbLine
 10
21.0
 20
-4.25
 30
0.0
 11
-21.0
 21
-4.25
 31
0.0
  0
LINE
  5
121
330
F8
100
AcDbEntity
  8
0
  6
HIDDEN
 62
     7
370
     0
100
AcDbLine
 10
-20.5
 20
-4.75
 30
0.0
 11
-20.5
 21
4.75
 31
0.0
  0
LINE
  5
122
330
F8
100
AcDbEntity
  8
0
  6
HIDDEN
 62
     7
370
     0
100
AcDbLine
 10
3.0
 20
4.75
 30
0.0
 11
3.0
 21
-4.75
 31
0.0
  0
LINE
  5
123
330
F8
100
AcDbEntity
  8
0
  6
HIDDEN
 62
     7
370
     0
100
AcDbLine
 10
9.0
 20
-4.75
 30
0.0
 11
9.0
 21
4.75
 31
0.0
  0
LINE
  5
124
330
F8
100
AcDbEntity
  8
0
  6
HIDDEN
 62
     7
370
     0
100
AcDbLine
 10
-9.0
 20
4.75
 30
0.0
 11
-9.0
 21
-4.75
 31
0.0
  0
LINE
  5
125
330
F8
100
AcDbEntity
  8
0
  6
HIDDEN
 62
     7
370
     0
100
AcDbLine
 10
-3.0
 20
-4.75
 30
0.0
 11
-3.0
 21
4.75
 31
0.0
  0
VIEWPORT
  5
2D5
330
F8
100
AcDbEntity
  8
0
100
AcDbViewport
 10
0.0
 20
0.0
 30
0.0
 40
243.84
 41
204.216
 68
     1
 69
     1
 12
-0.1622217027
 22
0.1382355589
 13
0.0
 23
0.0
 14
10.0
 24
10.0
 15
10.0
 25
10.0
 16
0.0
 26
0.0
 36
1.0
 17
0.0
 27
0.0
 37
0.0
 42
50.0
 43
0.0
 44
0.0
 45
38.0561576543
 50
0.0
 51
0.0
 72
   100
 90
   557152
  1

281
     0
 71
     1
 74
     0
110
0.0
120
0.0
130
0.0
111
1.0
121
0.0
131
0.0
112
0.0
122
1.0
132
0.0
 79
     0
146
0.0
  0
ENDBLK
  5
FB
330
F8
100
AcDbEntity
  8
0
100
AcDbBlockEnd
  0
BLOCK
  5
128
330
126
100
AcDbEntity
  8
0
100
AcDbBlockBegin
  2
*Paper_Space2
 70
     0
 10
0.0
 20
0.0
 30
0.0
  3
*Paper_Space2
  1

  0
LINE
  5
13D
330
126
100
AcDbEntity
  8
0
  6
Continuous
 62
     7
370
    15
100
AcDbLine
 10
7.5
 20
-4.25
 30
0.0
 11
7.0
 21
-4.75
 31
0.0
  0
LINE
  5
13E
330
126
100
AcDbEntity
  8
0
  6
Continuous
 62
     7
370
    15
100
AcDbLine
 10
-7.5
 20
-4.25
 30
0.0
 11
7.5
 21
-4.25
 31
0.0
  0
LINE
  5
13F
330
126
100
AcDbEntity
  8
0
  6
Continuous
 62
     7
370
    15
100
AcDbLine
 10
7.0
 20
4.75
 30
0.0
 11
7.5
 21
4.25
 31
0.0
  0
LINE
  5
140
330
126
100
AcDbEntity
  8
0
  6
Continuous
 62
     7
370
    15
100
AcDbLine
 10
7.5
 20
4.25
 30
0.0
 11
-7.5
 21
4.25
 31
0.0
  0
LINE
  5
141
330
126
100
AcDbEntity
  8
0
  6
Continuous
 62
     7
370
    15
100
AcDbLine
 10
7.0
 20
-4.75
 30
0.0
 11
7.0
 21
4.75
 31
0.0
  0
LINE
  5
142
330
126
100
AcDbEntity
  8
0
  6
Continuous
 62
     7
370
    15
100
AcDbLine
 10
-7.5
 20
4.75
 30
0.0
 11
-7.5
 21
-4.75
 31
0.0
  0
LINE
  5
143
330
126
100
AcDbEntity
  8
0
  6
Continuous
 62
     7
370
    15
100
AcDbLine
 10
7.5
 20
4.25
 30
0.0
 11
7.5
 21
-4.25
 31
0.0
  0
LINE
  5
144
330
126
100
AcDbEntity
  8
0
  6
Continuous
 62
     7
370
    15
100
AcDbLine
 10
-7.5
 20
4.75
 30
0.0
 11
7.0
 21
4.75
 31
0.0
  0
LINE
  5
145
330
126
100
AcDbEntity
  8
0
  6
Continuous
 62
     7
370
    15
100
AcDbLine
 10
7.0
 20
-4.75
 30
0.0
 11
-7.5
 21
-4.75
 31
0.0
  0
LINE
  5
146
330
126
100
AcDbEntity
  8
0
  6
HIDDEN
 62
     7
370
     0
100
AcDbLine
 10
7.5
 20
2.3
 30
0.0
 11
-7.5
 21
2.3
 31
0.0
  0
LINE
  5
147
330
126
100
AcDbEntity
  8
0
  6
HIDDEN
 62
     7
370
     0
100
AcDbLine
 10
-7.5
 20
-0.8
 30
0.0
 11
7.5
 21
-0.8
 31
0.0
  0
LINE
  5
148
330
126
100
AcDbEntity
  8
0
  6
HIDDEN
 62
     7
370
     0
100
AcDbLine
 10
-0.845
 20
4.75
 30
0.0
 11
-0.845
 21
-4.75
 31
0.0
  0
LINE
  5
149
330
126
100
AcDbEntity
  8
0
  6
HIDDEN
 62
     7
370
     0
100
AcDbLine
 10
5.155
 20
-4.75
 30
0.0
 11
5.155
 21
4.75
 31
0.0
  0
VIEWPORT
  5
2D6
330
126
100
AcDbEntity
  8
0
100
AcDbViewport
 10
0.0
 20
0.0
 30
0.0
 40
243.84
 41
204.216
 68
     1
 69
     1
 12
-0.1622217027
 22
0.1382355589
 13
0.0
 23
0.0
 14
10.0
 24
10.0
 15
10.0
 25
10.0
 16
0.0
 26
0.0
 36
1.0
 17
0.0
 27
0.0
 37
0.0
 42
50.0
 43
0.0
 44
0.0
 45
38.0561576543
 50
0.0
 51
0.0
 72
   100
 90
   557152
  1

281
     0
 71
     1
 74
     0
110
0.0
120
0.0
130
0.0
111
1.0
121
0.0
131
0.0
112
0.0
122
1.0
132
0.0
 79
     0
146
0.0
  0
ENDBLK
  5
129
330
126
100
AcDbEntity
  8
0
100
AcDbBlockEnd
  0
BLOCK
  5
14C
330
14A
100
AcDbEntity
  8
0
100
AcDbBlockBegin
  2
*Paper_Space3
 70
     0
 10
0.0
 20
0.0
 30
0.0
  3
*Paper_Space3
  1

  0
LINE
  5
161
330
14A
100
AcDbEntity
  8
0
  6
Continuous
 62
     7
370
    15
100
AcDbLine
 10
-7.5
 20
-4.25
 30
0.0
 11
7.5
 21
-4.25
 31
0.0
  0
LINE
  5
162
330
14A
100
AcDbEntity
  8
0
  6
Continuous
 62
     7
370
    15
100
AcDbLine
 10
-7.0
 20
4.75
 30
0.0
 11
-7.0
 21
-4.75
 31
0.0
  0
LINE
  5
163
330
14A
100
AcDbEntity
  8
0
  6
Continuous
 62
     7
370
    15
100
AcDbLine
 10
7.5
 20
4.25
 30
0.0
 11
-7.5
 21
4.25
 31
0.0
  0
LINE
  5
164
330
14A
100
AcDbEntity
  8
0
  6
Continuous
 62
     7
370
    15
100
AcDbLine
 10
7.5
 20
-4.75
 30
0.0
 11
7.5
 21
4.75
 31
0.0
  0
LINE
  5
165
330
14A
100
AcDbEntity
  8
0
  6
Continuous
 62
     7
370
    15
100
AcDbLine
 10
7.5
 20
-4.75
 30
0.0
 11
-7.0
 21
-4.75
 31
0.0
  0
LINE
  5
166
330
14A
100
AcDbEntity
  8
0
  6
Continuous
 62
     7
370
    15
100
AcDbLine
 10
-7.5
 20
-4.25
 30
0.0
 11
-7.5
 21
4.25
 31
0.0
  0
LINE
  5
167
330
14A
100
AcDbEntity
  8
0
  6
Continuous
 62
     7
370
    15
100
AcDbLine
 10
-7.0
 20
4.75
 30
0.0
 11
-7.5
 21
4.25
 31
0.0
  0
LINE
  5
168
330
14A
100
AcDbEntity
  8
0
  6
Continuous
 62
     7
370
    15
100
AcDbLine
 10
-7.5
 20
-4.25
 30
0.0
 11
-7.0
 21
-4.75
 31
0.0
  0
LINE
  5
169
330
14A
100
AcDbEntity
  8
0
  6
Continuous
 62
     7
370
    15
100
AcDbLine
 10
-7.0
 20
4.75
 30
0.0
 11
7.5
 21
4.75
 31
0.0
  0
LINE
  5
16A
330
14A
100
AcDbEntity
  8
0
  6
HIDDEN
 62
     7
370
     0
100
AcDbLine
 10
-7.5
 20
-0.8
 30
0.0
 11
7.5
 21
-0.8
 31
0.0
  0
LINE
  5
16B
330
14A
100
AcDbEntity
  8
0
  6
HIDDEN
 62
     7
370
     0
100
AcDbLine
 10
7.5
 20
2.3
 30
0.0
 11
-7.5
 21
2.3
 31
0.0
  0
LINE
  5
16C
330
14A
100
AcDbEntity
  8
0
  6
HIDDEN
 62
     7
370
     0
100
AcDbLine
 10
-5.155
 20
4.75
 30
0.0
 11
-5.155
 21
-4.75
 31
0.0
  0
LINE
  5
16D
330
14A
100
AcDbEntity
  8
0
  6
HIDDEN
 62
     7
370
     0
100
AcDbLine
 10
0.845
 20
-4.75
 30
0.0
 11
0.845
 21
4.75
 31
0.0
  0
VIEWPORT
  5
2D7
330
14A
100
AcDbEntity
  8
0
100
AcDbViewport
 10
0.0
 20
0.0
 30
0.0
 40
243.84
 41
204.216
 68
     1
 69
     1
 12
-0.1622217027
 22
0.1382355589
 13
0.0
 23
0.0
 14
10.0
 24
10.0
 15
10.0
 25
10.0
 16
0.0
 26
0.0
 36
1.0
 17
0.0
 27
0.0
 37
0.0
 42
50.0
 43
0.0
 44
0.0
 45
38.0561576543
 50
0.0
 51
0.0
 72
   100
 90
   557152
  1

281
     0
 71
     1
 74
     0
110
0.0
120
0.0
130
0.0
111
1.0
121
0.0
131
0.0
112
0.0
122
1.0
132
0.0
 79
     0
146
0.0
  0
ENDBLK
  5
14D
330
14A
100
AcDbEntity
  8
0
100
AcDbBlockEnd
  0
BLOCK
  5
170
330
16E
100
AcDbEntity
  8
0
100
AcDbBlockBegin
  2
*Paper_Space4
 70
     0
 10
0.0
 20
0.0
 30
0.0
  3
*Paper_Space4
  1

  0
CIRCLE
  5
172
330
16E
100
AcDbEntity
  8
0
  6
Continuous
 62
     7
370
    15
100
AcDbCircle
 10
6.0
 20
2.155
 30
0.0
 40
2.999999999999998
  0
CIRCLE
  5
173
330
16E
100
AcDbEntity
  8
0
  6
Continuous
 62
     7
370
    15
100
AcDbCircle
 10
-6.0
 20
2.155
 30
0.0
 40
3.000000000000005
  0
LINE
  5
187
330
16E
100
AcDbEntity
  8
0
  6
Continuous
 62
     7
370
    15
100
AcDbLine
 10
-20.5
 20
7.5
 30
0.0
 11
-20.5
 21
-7.5
 31
0.0
  0
LINE
  5
188
330
16E
100
AcDbEntity
  8
0
  6
Continuous
 62
     7
370
    15
100
AcDbLine
 10
21.0
 20
7.0
 30
0.0
 11
-21.0
 21
7.0
 31
0.0
  0
LINE
  5
189
330
16E
100
AcDbEntity
  8
0
  6
Continuous
 62
     7
370
    15
100
AcDbLine
 10
20.5
 20
-7.5
 30
0.0
 11
20.5
 21
7.5
 31
0.0
  0
LINE
  5
18A
330
16E
100
AcDbEntity
  8
0
  6
Continuous
 62
     7
370
    15
100
AcDbLine
 10
-21.0
 20
-7.5
 30
0.0
 11
21.0
 21
-7.5
 31
0.0
  0
LINE
  5
18B
330
16E
100
AcDbEntity
  8
0
  6
Continuous
 62
     7
370
    15
100
AcDbLine
 10
-21.0
 20
-7.5
 30
0.0
 11
-21.0
 21
7.0
 31
0.0
  0
LINE
  5
18C
330
16E
100
AcDbEntity
  8
0
  6
Continuous
 62
     7
370
    15
100
AcDbLine
 10
-20.5
 20
7.5
 30
0.0
 11
20.5
 21
7.5
 31
0.0
  0
LINE
  5
18D
330
16E
100
AcDbEntity
  8
0
  6
Continuous
 62
     7
370
    15
100
AcDbLine
 10
21.0
 20
7.0
 30
0.0
 11
21.0
 21
-7.5
 31
0.0
  0
LINE
  5
18E
330
16E
100
AcDbEntity
  8
0
  6
Continuous
 62
     7
370
    15
100
AcDbLine
 10
20.5
 20
7.5
 30
0.0
 11
21.0
 21
7.0
 31
0.0
  0
LINE
  5
18F
330
16E
100
AcDbEntity
  8
0
  6
Continuous
 62
     7
370
    15
100
AcDbLine
 10
-21.0
 20
7.0
 30
0.0
 11
-20.5
 21
7.5
 31
0.0
  0
LINE
  5
190
330
16E
100
AcDbEntity
  8
0
  6
HIDDEN
 62
     7
370
     0
100
AcDbLine
 10
-17.05
 20
7.5
 30
0.0
 11
-17.05
 21
-7.5
 31
0.0
  0
LINE
  5
191
330
16E
100
AcDbEntity
  8
0
  6
HIDDEN
 62
     7
370
     0
100
AcDbLine
 10
-13.95
 20
-7.5
 30
0.0
 11
-13.95
 21
7.5
 31
0.0
  0
LINE
  5
192
330
16E
100
AcDbEntity
  8
0
  6
HIDDEN
 62
     7
370
     0
100
AcDbLine
 10
13.95
 20
7.5
 30
0.0
 11
13.95
 21
-7.5
 31
0.0
  0
LINE
  5
193
330
16E
100
AcDbEntity
  8
0
  6
HIDDEN
 62
     7
370
     0
100
AcDbLine
 10
17.05
 20
-7.5
 30
0.0
 11
17.05
 21
7.5
 31
0.0
  0
VIEWPORT
  5
2D8
330
16E
100
AcDbEntity
  8
0
100
AcDbViewport
 10
0.0
 20
0.0
 30
0.0
 40
243.84
 41
204.216
 68
     1
 69
     1
 12
-0.1622217027
 22
0.1382355589
 13
0.0
 23
0.0
 14
10.0
 24
10.0
 15
10.0
 25
10.0
 16
0.0
 26
0.0
 36
1.0
 17
0.0
 27
0.0
 37
0.0
 42
50.0
 43
0.0
 44
0.0
 45
38.0561576543
 50
0.0
 51
0.0
 72
   100
 90
   557152
  1

281
     0
 71
     1
 74
     0
110
0.0
120
0.0
130
0.0
111
1.0
121
0.0
131
0.0
112
0.0
122
1.0
132
0.0
 79
     0
146
0.0
  0
ENDBLK
  5
171
330
16E
100
AcDbEntity
  8
0
100
AcDbBlockEnd
  0
BLOCK
  5
196
330
194
100
AcDbEntity
  8
0
100
AcDbBlockBegin
  2
*Paper_Space5
 70
     0
 10
0.0
 20
0.0
 30
0.0
  3
*Paper_Space5
  1

  0
LWPOLYLINE
  5
1A4
330
194
100
AcDbEntity
  8
0
  6
Continuous
 62
     7
370
    15
100
AcDbPolyline
 90
       45
 70
   128
 43
0.0
 10
-15.1674404565
 20
3.2453217695
 10
-15.178596314
 20
3.4318810131
 10
-15.2118367857
 20
3.6275227274
 10
-15.2664851912
 20
3.8282642115
 10
-15.3414290468
 20
4.0300189474
 10
-15.4351427115
 20
4.2286797907
 10
-15.5457184454
 20
4.4202025794
 10
-15.6709052456
 20
4.600688462
 10
-15.8081546696
 20
4.7664632662
 10
-15.9546727151
 20
4.9141522951
 10
-16.1074766971
 20
5.040749026
 10
-16.2634559673
 20
5.1436763146
 10
-16.4194352375
 20
5.2208388581
 10
-16.5722392195
 20
5.2706658495
 10
-16.718757265
 20
5.2921429551
 10
-16.856006689
 20
5.2848329628
 10
-16.9811934891
 20
5.2488846832
 10
-17.0917692231
 20
5.1850299194
 10
-17.1854828878
 20
5.0945685703
 10
-17.2604267434
 20
4.9793421681
 10
-17.3150751489
 20
4.8416963901
 10
-17.3483156206
 20
4.6844333074
 10
-17.3594714781
 20
4.5107543429
 10
-17.3483156206
 20
4.3241950993
 10
-17.3150751489
 20
4.128553385
 10
-17.2604267434
 20
3.927811901
 10
-17.1854828878
 20
3.726057165
 10
-17.0917692231
 20
3.5273963217
 10
-16.9811934891
 20
3.335873533
 10
-16.856006689
 20
3.1553876505
 10
-16.718757265
 20
2.9896128462
 10
-16.5722392195
 20
2.8419238173
 10
-16.4194352375
 20
2.7153270864
 10
-16.2634559673
 20
2.6123997978
 10
-16.1074766971
 20
2.5352372543
 10
-15.9546727151
 20
2.4854102629
 10
-15.8081546696
 20
2.4639331573
 10
-15.6709052456
 20
2.4712431496
 10
-15.5457184454
 20
2.5071914293
 10
-15.4351427115
 20
2.5710461931
 10
-15.3414290468
 20
2.6615075421
 10
-15.2664851912
 20
2.7767339443
 10
-15.2118367857
 20
2.9143797223
 10
-15.178596314
 20
3.071642805
 10
-15.1674404565
 20
3.2453217695
  0
LWPOLYLINE
  5
1A5
330
194
100
AcDbEntity
  8
0
  6
Continuous
 62
     7
370
    15
100
AcDbPolyline
 90
       45
 70
   128
 43
0.0
 10
6.7528697603
 20
-9.4090039637
 10
6.7417139028
 20
-9.2224447202
 10
6.7084734311
 20
-9.0268030058
 10
6.6538250256
 20
-8.8260615218
 10
6.57888117
 20
-8.6243067858
 10
6.4851675053
 20
-8.4256459426
 10
6.3745917713
 20
-8.2341231538
 10
6.2494049712
 20
-8.0536372713
 10
6.1121555472
 20
-7.8878624671
 10
5.9656375017
 20
-7.7401734381
 10
5.8128335197
 20
-7.6135767072
 10
5.6568542495
 20
-7.5106494186
 10
5.5008749793
 20
-7.4334868752
 10
5.3480709973
 20
-7.3836598838
 10
5.2015529518
 20
-7.3621827782
 10
5.0643035278
 20
-7.3694927704
 10
4.9391167276
 20
-7.4054410501
 10
4.8285409937
 20
-7.4692958139
 10
4.734827329
 20
-7.559757163
 10
4.6598834734
 20
-7.6749835651
 10
4.6052350679
 20
-7.8126293431
 10
4.5719945962
 20
-7.9698924258
 10
4.5608387387
 20
-8.1435713904
 10
4.5719945962
 20
-8.3301306339
 10
4.6052350679
 20
-8.5257723483
 10
4.6598834734
 20
-8.7265138323
 10
4.734827329
 20
-8.9282685682
 10
4.8285409937
 20
-9.1269294115
 10
4.9391167276
 20
-9.3184522003
 10
5.0643035278
 20
-9.4989380828
 10
5.2015529518
 20
-9.664712887
 10
5.3480709973
 20
-9.8124019159
 10
5.5008749793
 20
-9.9389986469
 10
5.6568542495
 20
-10.0419259355
 10
5.8128335197
 20
-10.1190884789
 10
5.9656375017
 20
-10.1689154703
 10
6.1121555472
 20
-10.1903925759
 10
6.2494049712
 20
-10.1830825837
 10
6.3745917713
 20
-10.147134304
 10
6.4851675053
 20
-10.0832795402
 10
6.57888117
 20
-9.9928181911
 10
6.6538250256
 20
-9.877591789
 10
6.7084734311
 20
-9.739946011
 10
6.7417139028
 20
-9.5826829283
 10
6.7528697603
 20
-9.4090039637
  0
LWPOLYLINE
  5
1AC
330
194
100
AcDbEntity
  8
0
  6
Continuous
 62
     7
370
    15
100
AcDbPolyline
 90
       62
 70
   128
 43
0.0
 10
0.5975052301
 20
-0.6749473872
 10
0.8268647648
 20
-0.7943726346
 10
1.0762795547
 20
-0.899550751
 10
1.343105741
 20
-0.9893668223
 10
1.6245148997
 20
-1.0628687757
 10
1.9175240239
 20
-1.1192774723
 10
2.2190271438
 20
-1.1579949658
 10
2.5258282514
 20
-1.1786108411
 10
2.8346751787
 20
-1.180906565
 10
3.1422940713
 20
-1.164857802
 10
3.4454240925
 20
-1.1306346732
 10
3.7408519886
 20
-1.0785999522
 10
4.0254461505
 20
-1.0093052199
 10
4.2961898092
 20
-0.9234850177
 10
4.5502130146
 20
-0.8220490613
 10
4.7848230576
 20
-0.7060725969
 10
4.9975330132
 20
-0.5767850039
 10
5.1860881032
 20
-0.4355567629
 10
5.3484895965
 20
-0.2838849285
 10
5.483015997
 20
-0.1233772598
 10
5.5882412914
 20
0.0442648219
 10
5.6630500653
 20
0.217264269
 10
5.7066493272
 20
0.3937872441
 10
5.718576914
 20
0.5719625599
 10
5.6987063903
 20
0.7499015137
 10
5.6472483887
 20
0.9257179084
 10
5.5647483768
 20
1.0975480463
 10
5.4520808751
 20
1.2635704853
 10
5.3104401873
 20
1.4220253462
 10
5.1413277399
 20
1.5712329681
 10
4.9465361669
 20
1.7096117131
 10
4.7281303074
 20
1.835694732
 10
4.4884253178
 20
1.9481455136
 10
4.2299621308
 20
2.0457720514
 10
3.9554805203
 20
2.12753948
 10
3.6678900597
 20
2.1925810443
 10
3.3702392795
 20
2.2402072874
 10
3.0656833519
 20
2.2699133595
 10
2.7574506456
 20
2.2813843686
 10
2.448808504
 20
2.2744987193
 10
2.1430286104
 20
2.2493294011
 10
1.8433523079
 20
2.2061432152
 10
1.5529562398
 20
2.1453979458
 10
1.2749186767
 20
2.0677375078
 10
1.0121868859
 20
1.9739851213
 10
0.7675458898
 20
1.8651345848
 10
0.5435889437
 20
1.7423397412
 10
0.342690047
 20
1.6069022462
 10
0.166978778
 20
1.4602577712
 10
0.0183177199
 20
1.3039607839
 10
-0.1017172832
 20
1.1396680713
 10
-0.1918538303
 20
0.969121177
 10
-0.2511364516
 20
0.7941279406
 10
-0.2789367366
 20
0.6165433339
 10
-0.2749599954
 20
0.4382497979
 10
-0.2392483824
 20
0.2611372884
 10
-0.1721804496
 20
0.0870832421
 10
-0.0744671337
 20
-0.0820673248
 10
0.0528557798
 20
-0.2445213742
 10
0.2084386363
 20
-0.3985568528
 10
0.3906322188
 20
-0.5425409462
 10
0.5975052301
 20
-0.6749473872
  0
LWPOLYLINE
  5
1AD
330
194
100
AcDbEntity
  8
0
  6
Continuous
 62
     7
370
    15
100
AcDbPolyline
 90
       62
 70
   128
 43
0.0
 10
-7.8877761441
 20
4.2235012837
 10
-7.6584166095
 20
4.1040760363
 10
-7.4090018196
 20
3.9988979199
 10
-7.1421756333
 20
3.9090818486
 10
-6.8607664745
 20
3.8355798952
 10
-6.5677573503
 20
3.7791711987
 10
-6.2662542304
 20
3.7404537052
 10
-5.9594531228
 20
3.7198378298
 10
-5.6506061956
 20
3.717542106
 10
-5.342987303
 20
3.7335908689
 10
-5.0398572818
 20
3.7678139977
 10
-4.7444293856
 20
3.8198487188
 10
-4.4598352238
 20
3.8891434511
 10
-4.189091565
 20
3.9749636532
 10
-3.9350683596
 20
4.0763996096
 10
-3.7004583167
 20
4.1923760741
 10
-3.487748361
 20
4.3216636671
 10
-3.2991932711
 20
4.462891908
 10
-3.1367917777
 20
4.6145637424
 10
-3.0022653772
 20
4.7750714111
 10
-2.8970400829
 20
4.9427134929
 10
-2.8222313089
 20
5.1157129399
 10
-2.7786320471
 20
5.2922359151
 10
-2.7667044602
 20
5.4704112309
 10
-2.7865749839
 20
5.6483501847
 10
-2.8380329855
 20
5.8241665793
 10
-2.9205329975
 20
5.9959967172
 10
-3.0332004991
 20
6.1620191562
 10
-3.1748411869
 20
6.3204740171
 10
-3.3439536343
 20
6.469681639
 10
-3.5387452074
 20
6.608060384
 10
-3.7571510669
 20
6.734143403
 10
-3.9968560564
 20
6.8465941845
 10
-4.2553192435
 20
6.9442207224
 10
-4.529800854
 20
7.025988151
 10
-4.8173913145
 20
7.0910297152
 10
-5.1150420948
 20
7.1386559584
 10
-5.4195980223
 20
7.1683620304
 10
-5.7278307286
 20
7.1798330395
 10
-6.0364728703
 20
7.1729473902
 10
-6.3422527638
 20
7.1477780721
 10
-6.6419290663
 20
7.1045918861
 10
-6.9323251344
 20
7.0438466167
 10
-7.2103626975
 20
6.9661861787
 10
-7.4730944883
 20
6.8724337922
 10
-7.7177354845
 20
6.7635832557
 10
-7.9416924306
 20
6.6407884121
 10
-8.1425913272
 20
6.5053509172
 10
-8.3183025962
 20
6.3587064421
 10
-8.4669636543
 20
6.2024094548
 10
-8.5869986574
 20
6.0381167422
 10
-8.6771352045
 20
5.867569848
 10
-8.7364178258
 20
5.6925766116
 10
-8.7642181109
 20
5.5149920049
 10
-8.7602413697
 20
5.3366984688
 10
-8.7245297566
 20
5.1595859594
 10
-8.6574618238
 20
4.9855319131
 10
-8.5597485079
 20
4.8163813462
 10
-8.4324255945
 20
4.6539272967
 10
-8.276842738
 20
4.4998918181
 10
-8.0946491554
 20
4.3559077247
 10
-7.8877761441
 20
4.2235012837
  0
LWPOLYLINE
  5
1B6
330
194
100
AcDbEntity
  8
0
  6
HIDDEN
 62
     7
370
     0
100
AcDbPolyline
 90
       45
 70
   128
 43
0.0
 10
17.3594714781
 20
-3.285943125
 10
17.3483156206
 20
-3.0993838815
 10
17.3150751489
 20
-2.9037421671
 10
17.2604267434
 20
-2.7030006831
 10
17.1854828878
 20
-2.5012459472
 10
17.0917692231
 20
-2.3025851039
 10
16.9811934891
 20
-2.1110623151
 10
16.856006689
 20
-1.9305764326
 10
16.718757265
 20
-1.7648016284
 10
16.5722392195
 20
-1.6171125995
 10
16.4194352375
 20
-1.4905158685
 10
16.2634559673
 20
-1.38758858
 10
16.1074766971
 20
-1.3104260365
 10
15.9546727151
 20
-1.2605990451
 10
15.8081546696
 20
-1.2391219395
 10
15.6709052456
 20
-1.2464319318
 10
15.5457184454
 20
-1.2823802114
 10
15.4351427115
 20
-1.3462349752
 10
15.3414290468
 20
-1.4366963243
 10
15.2664851912
 20
-1.5519227265
 10
15.2118367857
 20
-1.6895685045
 10
15.178596314
 20
-1.8468315872
 10
15.1674404565
 20
-2.0205105517
 10
15.178596314
 20
-2.2070697953
 10
15.2118367857
 20
-2.4027115096
 10
15.2664851912
 20
-2.6034529936
 10
15.3414290468
 20
-2.8052077296
 10
15.4351427115
 20
-3.0038685729
 10
15.5457184454
 20
-3.1953913616
 10
15.6709052456
 20
-3.3758772441
 10
15.8081546696
 20
-3.5416520483
 10
15.9546727151
 20
-3.6893410773
 10
16.1074766971
 20
-3.8159378082
 10
16.2634559673
 20
-3.9188650968
 10
16.4194352375
 20
-3.9960276402
 10
16.5722392195
 20
-4.0458546317
 10
16.718757265
 20
-4.0673317372
 10
16.856006689
 20
-4.060021745
 10
16.9811934891
 20
-4.0240734653
 10
17.0917692231
 20
-3.9602187015
 10
17.1854828878
 20
-3.8697573524
 10
17.2604267434
 20
-3.7545309503
 10
17.3150751489
 20
-3.6168851723
 10
17.3483156206
 20
-3.4596220896
 10
17.3594714781
 20
-3.285943125
  0
LWPOLYLINE
  5
1B7
330
194
100
AcDbEntity
  8
0
  6
HIDDEN
 62
     7
370
     0
100
AcDbPolyline
 90
       62
 70
   128
 43
0.0
 10
0.5975052301
 20
-8.4320851001
 10
0.8268647648
 20
-8.5515103475
 10
1.0762795547
 20
-8.656688464
 10
1.343105741
 20
-8.7465045352
 10
1.6245148997
 20
-8.8200064886
 10
1.9175240239
 20
-8.8764151852
 10
2.2190271438
 20
-8.9151326787
 10
2.5258282514
 20
-8.9357485541
 10
2.8346751787
 20
-8.9380442779
 10
3.1422940713
 20
-8.921995515
 10
3.4454240925
 20
-8.8877723861
 10
3.7408519886
 20
-8.8357376651
 10
4.0254461505
 20
-8.7664429328
 10
4.2961898092
 20
-8.6806227307
 10
4.5502130146
 20
-8.5791867742
 10
4.7848230576
 20
-8.4632103098
 10
4.9975330132
 20
-8.3339227168
 10
5.1860881032
 20
-8.1926944758
 10
5.3484895965
 20
-8.0410226414
 10
5.483015997
 20
-7.8805149727
 10
5.5882412914
 20
-7.712872891
 10
5.6630500653
 20
-7.5398734439
 10
5.7066493272
 20
-7.3633504688
 10
5.718576914
 20
-7.185175153
 10
5.6987063903
 20
-7.0072361992
 10
5.6472483887
 20
-6.8314198046
 10
5.5647483768
 20
-6.6595896666
 10
5.4520808751
 20
-6.4935672276
 10
5.3104401873
 20
-6.3351123667
 10
5.1413277399
 20
-6.1859047448
 10
4.9465361669
 20
-6.0475259998
 10
4.7281303074
 20
-5.9214429809
 10
4.4884253178
 20
-5.8089921993
 10
4.2299621308
 20
-5.7113656615
 10
3.9554805203
 20
-5.6295982329
 10
3.6678900597
 20
-5.5645566686
 10
3.3702392795
 20
-5.5169304255
 10
3.0656833519
 20
-5.4872243535
 10
2.7574506456
 20
-5.4757533443
 10
2.448808504
 20
-5.4826389936
 10
2.1430286104
 20
-5.5078083118
 10
1.8433523079
 20
-5.5509944977
 10
1.5529562398
 20
-5.6117397672
 10
1.2749186767
 20
-5.6894002051
 10
1.0121868859
 20
-5.7831525916
 10
0.7675458898
 20
-5.8920031281
 10
0.5435889437
 20
-6.0147979718
 10
0.342690047
 20
-6.1502354667
 10
0.166978778
 20
-6.2968799418
 10
0.0183177199
 20
-6.4531769291
 10
-0.1017172832
 20
-6.6174696416
 10
-0.1918538303
 20
-6.7880165359
 10
-0.2511364516
 20
-6.9630097723
 10
-0.2789367366
 20
-7.140594379
 10
-0.2749599954
 20
-7.318887915
 10
-0.2392483824
 20
-7.4960004245
 10
-0.1721804496
 20
-7.6700544708
 10
-0.0744671337
 20
-7.8392050377
 10
0.0528557798
 20
-8.0016590871
 10
0.2084386363
 20
-8.1556945657
 10
0.3906322188
 20
-8.2996786591
 10
0.5975052301
 20
-8.4320851001
  0
LWPOLYLINE
  5
1B9
330
194
100
AcDbEntity
  8
0
  6
HIDDEN
 62
     7
370
     0
100
AcDbPolyline
 90
       62
 70
   128
 43
0.0
 10
-7.8877761441
 20
-3.5336364292
 10
-7.6584166095
 20
-3.6530616766
 10
-7.4090018196
 20
-3.758239793
 10
-7.1421756333
 20
-3.8480558643
 10
-6.8607664745
 20
-3.9215578177
 10
-6.5677573503
 20
-3.9779665143
 10
-6.2662542304
 20
-4.0166840078
 10
-5.9594531228
 20
-4.0372998831
 10
-5.6506061956
 20
-4.039595607
 10
-5.342987303
 20
-4.023546844
 10
-5.0398572818
 20
-3.9893237152
 10
-4.7444293856
 20
-3.9372889941
 10
-4.4598352238
 20
-3.8679942618
 10
-4.189091565
 20
-3.7821740597
 10
-3.9350683596
 20
-3.6807381033
 10
-3.7004583167
 20
-3.5647616389
 10
-3.487748361
 20
-3.4354740458
 10
-3.2991932711
 20
-3.2942458049
 10
-3.1367917777
 20
-3.1425739705
 10
-3.0022653772
 20
-2.9820663018
 10
-2.8970400829
 20
-2.81442422
 10
-2.8222313089
 20
-2.641424773
 10
-2.7786320471
 20
-2.4649017979
 10
-2.7667044602
 20
-2.286726482
 10
-2.7865749839
 20
-2.1087875282
 10
-2.8380329855
 20
-1.9329711336
 10
-2.9205329975
 20
-1.7611409957
 10
-3.0332004991
 20
-1.5951185567
 10
-3.1748411869
 20
-1.4366636958
 10
-3.3439536343
 20
-1.2874560739
 10
-3.5387452074
 20
-1.1490773289
 10
-3.7571510669
 20
-1.0229943099
 10
-3.9968560564
 20
-0.9105435284
 10
-4.2553192435
 20
-0.8129169905
 10
-4.529800854
 20
-0.7311495619
 10
-4.8173913145
 20
-0.6661079977
 10
-5.1150420948
 20
-0.6184817545
 10
-5.4195980223
 20
-0.5887756825
 10
-5.7278307286
 20
-0.5773046734
 10
-6.0364728703
 20
-0.5841903227
 10
-6.3422527638
 20
-0.6093596408
 10
-6.6419290663
 20
-0.6525458268
 10
-6.9323251344
 20
-0.7132910962
 10
-7.2103626975
 20
-0.7909515342
 10
-7.4730944883
 20
-0.8847039207
 10
-7.7177354845
 20
-0.9935544572
 10
-7.9416924306
 20
-1.1163493008
 10
-8.1425913272
 20
-1.2517867957
 10
-8.3183025962
 20
-1.3984312708
 10
-8.4669636543
 20
-1.5547282581
 10
-8.5869986574
 20
-1.7190209707
 10
-8.6771352045
 20
-1.889567865
 10
-8.7364178258
 20
-2.0645611013
 10
-8.7642181109
 20
-2.2421457081
 10
-8.7602413697
 20
-2.4204392441
 10
-8.7245297566
 20
-2.5975517535
 10
-8.6574618238
 20
-2.7716057998
 10
-8.5597485079
 20
-2.9407563667
 10
-8.4324255945
 20
-3.1032104162
 10
-8.276842738
 20
-3.2572458948
 10
-8.0946491554
 20
-3.4012299882
 10
-7.8877761441
 20
-3.5336364292
  0
LWPOLYLINE
  5
1BA
330
194
100
AcDbEntity
  8
0
  6
HIDDEN
 62
     7
370
     0
100
AcDbPolyline
 90
       45
 70
   128
 43
0.0
 10
-4.5608387387
 20
9.3683826082
 10
-4.5719945962
 20
9.5549418518
 10
-4.6052350679
 20
9.7505835661
 10
-4.6598834734
 20
9.9513250501
 10
-4.734827329
 20
10.1530797861
 10
-4.8285409937
 20
10.3517406294
 10
-4.9391167276
 20
10.5432634181
 10
-5.0643035278
 20
10.7237493006
 10
-5.2015529518
 20
10.8895241048
 10
-5.3480709973
 20
11.0372131338
 10
-5.5008749793
 20
11.1638098647
 10
-5.6568542495
 20
11.2667371533
 10
-5.8128335197
 20
11.3438996967
 10
-5.9656375017
 20
11.3937266882
 10
-6.1121555472
 20
11.4152037937
 10
-6.2494049712
 20
11.4078938015
 10
-6.3745917713
 20
11.3719455218
 10
-6.4851675053
 20
11.308090758
 10
-6.57888117
 20
11.2176294089
 10
-6.6538250256
 20
11.1024030068
 10
-6.7084734311
 20
10.9647572288
 10
-6.7417139028
 20
10.8074941461
 10
-6.7528697603
 20
10.6338151815
 10
-6.7417139028
 20
10.447255938
 10
-6.7084734311
 20
10.2516142236
 10
-6.6538250256
 20
10.0508727396
 10
-6.57888117
 20
9.8491180037
 10
-6.4851675053
 20
9.6504571604
 10
-6.3745917713
 20
9.4589343716
 10
-6.2494049712
 20
9.2784484891
 10
-6.1121555472
 20
9.1126736849
 10
-5.9656375017
 20
8.964984656
 10
-5.8128335197
 20
8.838387925
 10
-5.6568542495
 20
8.7354606365
 10
-5.5008749793
 20
8.658298093
 10
-5.3480709973
 20
8.6084711016
 10
-5.2015529518
 20
8.586993996
 10
-5.0643035278
 20
8.5943039883
 10
-4.9391167276
 20
8.6302522679
 10
-4.8285409937
 20
8.6941070317
 10
-4.734827329
 20
8.7845683808
 10
-4.6598834734
 20
8.899794783
 10
-4.6052350679
 20
9.0374405609
 10
-4.5719945962
 20
9.1947036436
 10
-4.5608387387
 20
9.3683826082
  0
LINE
  5
1CA
330
194
100
AcDbEntity
  8
0
  6
Continuous
 62
     7
370
    15
100
AcDbLine
 10
9.545941546
 20
-7.3470426811
 30
0.0
 11
9.8994949366
 21
-7.959415115
 31
0.0
  0
LINE
  5
1CB
330
194
100
AcDbEntity
  8
0
  6
Continuous
 62
     7
370
    15
100
AcDbLine
 10
9.1923881554
 20
-7.959415115
 30
0.0
 11
9.8994949366
 21
-7.959415115
 31
0.0
  0
LINE
  5
1CC
330
194
100
AcDbEntity
  8
0
  6
Continuous
 62
     7
370
    15
100
AcDbLine
 10
9.545941546
 20
-7.3470426811
 30
0.0
 11
9.1923881554
 21
-7.959415115
 31
0.0
  0
LINE
  5
1CD
330
194
100
AcDbEntity
  8
0
  6
Continuous
 62
     7
370
    15
100
AcDbLine
 10
9.1923881554
 20
-14.900012016
 30
0.0
 11
9.1923881554
 21
-7.959415115
 31
0.0
  0
LINE
  5
1CE
330
194
100
AcDbEntity
  8
0
  6
Continuous
 62
     7
370
    15
100
AcDbLine
 10
9.8994949366
 20
-7.959415115
 30
0.0
 11
9.8994949366
 21
-14.900012016
 31
0.0
  0
LINE
  5
1CF
330
194
100
AcDbEntity
  8
0
  6
Continuous
 62
     7
370
    15
100
AcDbLine
 10
9.1923881554
 20
-14.900012016
 30
0.0
 11
9.8994949366
 21
-14.900012016
 31
0.0
  0
LINE
  5
1D0
330
194
100
AcDbEntity
  8
0
  6
Continuous
 62
     7
370
    15
100
AcDbLine
 10
-19.4454364826
 20
9.3893236113
 30
0.0
 11
9.545941546
 21
-7.3470426811
 31
0.0
  0
LINE
  5
1D1
330
194
100
AcDbEntity
  8
0
  6
Continuous
 62
     7
370
    15
100
AcDbLine
 10
9.1923881554
 20
-7.959415115
 30
0.0
 11
-19.7989898732
 21
8.7769511774
 31
0.0
  0
LINE
  5
1D2
330
194
100
AcDbEntity
  8
0
  6
Continuous
 62
     7
370
    15
100
AcDbLine
 10
-19.4454364826
 20
9.3893236113
 30
0.0
 11
-19.7989898732
 21
8.7769511774
 31
0.0
  0
LINE
  5
1D3
330
194
100
AcDbEntity
  8
0
  6
Continuous
 62
     7
370
    15
100
AcDbLine
 10
9.545941546
 20
-7.3470426811
 30
0.0
 11
19.7989898732
 21
-1.4280838704
 31
0.0
  0
LINE
  5
1D4
330
194
100
AcDbEntity
  8
0
  6
Continuous
 62
     7
370
    15
100
AcDbLine
 10
19.7989898732
 20
-1.4280838704
 30
0.0
 11
20.1525432638
 21
-2.0404563043
 31
0.0
  0
LINE
  5
1D5
330
194
100
AcDbEntity
  8
0
  6
Continuous
 62
     7
370
    15
100
AcDbLine
 10
20.1525432638
 20
-2.0404563043
 30
0.0
 11
9.8994949366
 21
-7.959415115
 31
0.0
  0
LINE
  5
1D6
330
194
100
AcDbEntity
  8
0
  6
Continuous
 62
     7
370
    15
100
AcDbLine
 10
-19.7989898732
 20
9.1851552333
 30
0.0
 11
-19.7989898732
 21
1.8363542763
 31
0.0
  0
LINE
  5
1D7
330
194
100
AcDbEntity
  8
0
  6
Continuous
 62
     7
370
    15
100
AcDbLine
 10
-19.7989898732
 20
1.8363542763
 30
0.0
 11
9.1923881554
 21
-14.900012016
 31
0.0
  0
LINE
  5
1D8
330
194
100
AcDbEntity
  8
0
  6
Continuous
 62
     7
370
    15
100
AcDbLine
 10
9.8994949366
 20
-14.900012016
 30
0.0
 11
20.1525432638
 21
-8.9810532053
 31
0.0
  0
LINE
  5
1D9
330
194
100
AcDbEntity
  8
0
  6
Continuous
 62
     7
370
    15
100
AcDbLine
 10
20.1525432638
 20
-8.9810532053
 30
0.0
 11
20.1525432638
 21
-2.0404563043
 31
0.0
  0
LINE
  5
1DA
330
194
100
AcDbEntity
  8
0
  6
Continuous
 62
     7
370
    15
100
AcDbLine
 10
-9.1923881554
 20
15.308282422
 30
0.0
 11
-19.4454364826
 21
9.3893236113
 31
0.0
  0
LINE
  5
1DB
330
194
100
AcDbEntity
  8
0
  6
Continuous
 62
     7
370
    15
100
AcDbLine
 10
19.7989898732
 20
-1.4280838704
 30
0.0
 11
-9.1923881554
 21
15.308282422
 31
0.0
  0
LINE
  5
1DC
330
194
100
AcDbEntity
  8
0
  6
Continuous
 62
     7
370
    15
100
AcDbLine
 10
9.545941546
 20
-15.104180394
 30
0.0
 11
9.8994949366
 21
-14.900012016
 31
0.0
  0
LINE
  5
1DD
330
194
100
AcDbEntity
  8
0
  6
Continuous
 62
     7
370
    15
100
AcDbLine
 10
9.1923881554
 20
-14.900012016
 30
0.0
 11
9.545941546
 21
-15.104180394
 31
0.0
  0
LINE
  5
1DE
330
194
100
AcDbEntity
  8
0
  6
Continuous
 62
     7
370
    15
100
AcDbLine
 10
9.545941546
 20
-15.104180394
 30
0.0
 11
-19.4454364826
 21
1.6321858983
 31
0.0
  0
LINE
  5
1DF
330
194
100
AcDbEntity
  8
0
  6
Continuous
 62
     7
370
    15
100
AcDbLine
 10
-19.7989898732
 20
1.8363542763
 30
0.0
 11
-19.4454364826
 21
1.6321858983
 31
0.0
  0
LINE
  5
1E0
330
194
100
AcDbEntity
  8
0
  6
Continuous
 62
     7
370
    15
100
AcDbLine
 10
19.7989898732
 20
-9.1852215833
 30
0.0
 11
9.545941546
 21
-15.104180394
 31
0.0
  0
LINE
  5
1E1
330
194
100
AcDbEntity
  8
0
  6
Continuous
 62
     7
370
    15
100
AcDbLine
 10
20.1525432638
 20
-8.9810532053
 30
0.0
 11
19.7989898732
 21
-9.1852215833
 31
0.0
  0
LINE
  5
1E2
330
194
100
AcDbEntity
  8
0
  6
Continuous
 62
     7
370
    15
100
AcDbLine
 10
-19.4454364826
 20
9.3893236113
 30
0.0
 11
-19.7989898732
 21
9.1851552333
 31
0.0
  0
LINE
  5
1E3
330
194
100
AcDbEntity
  8
0
  6
HIDDEN
 62
     7
370
     0
100
AcDbLine
 10
-9.1923881554
 20
7.5511447091
 30
0.0
 11
19.7989898732
 21
-9.1852215833
 31
0.0
  0
LINE
  5
1E4
330
194
100
AcDbEntity
  8
0
  6
HIDDEN
 62
     7
370
     0
100
AcDbLine
 10
-9.545941546
 20
15.104114044
 30
0.0
 11
-9.1923881554
 21
15.308282422
 31
0.0
  0
LINE
  5
1E5
330
194
100
AcDbEntity
  8
0
  6
HIDDEN
 62
     7
370
     0
100
AcDbLine
 10
-19.7989898732
 20
9.1851552333
 30
0.0
 11
-9.545941546
 21
15.104114044
 31
0.0
  0
LINE
  5
1E6
330
194
100
AcDbEntity
  8
0
  6
HIDDEN
 62
     7
370
     0
100
AcDbLine
 10
-9.545941546
 20
15.104114044
 30
0.0
 11
-9.545941546
 21
8.163517143
 31
0.0
  0
LINE
  5
1E7
330
194
100
AcDbEntity
  8
0
  6
HIDDEN
 62
     7
370
     0
100
AcDbLine
 10
-19.7989898732
 20
2.2445583322
 30
0.0
 11
-19.4454364826
 21
1.6321858983
 31
0.0
  0
LINE
  5
1E8
330
194
100
AcDbEntity
  8
0
  6
HIDDEN
 62
     7
370
     0
100
AcDbLine
 10
-9.545941546
 20
8.163517143
 30
0.0
 11
-19.7989898732
 21
2.2445583322
 31
0.0
  0
LINE
  5
1E9
330
194
100
AcDbEntity
  8
0
  6
HIDDEN
 62
     7
370
     0
100
AcDbLine
 10
-9.1923881554
 20
7.5511447091
 30
0.0
 11
-9.545941546
 21
8.163517143
 31
0.0
  0
LINE
  5
1EA
330
194
100
AcDbEntity
  8
0
  6
HIDDEN
 62
     7
370
     0
100
AcDbLine
 10
-19.4454364826
 20
1.6321858983
 30
0.0
 11
-9.1923881554
 21
7.5511447091
 31
0.0
  0
LINE
  5
1EB
330
194
100
AcDbEntity
  8
0
  6
HIDDEN
 62
     7
370
     0
100
AcDbLine
 10
6.4317912673
 20
-10.1186634137
 30
0.0
 11
17.0383929851
 21
-3.9956025751
 31
0.0
  0
LINE
  5
1EC
330
194
100
AcDbEntity
  8
0
  6
HIDDEN
 62
     7
370
     0
100
AcDbLine
 10
15.4885189495
 20
-1.3108511017
 30
0.0
 11
4.8819172317
 21
-7.4339119404
 31
0.0
  0
LINE
  5
1ED
330
194
100
AcDbEntity
  8
0
  6
HIDDEN
 62
     7
370
     0
100
AcDbLine
 10
-0.2811744263
 20
0.5496647805
 30
0.0
 11
-0.2811744263
 21
-7.2074729324
 31
0.0
  0
LINE
  5
1EE
330
194
100
AcDbEntity
  8
0
  6
HIDDEN
 62
     7
370
     0
100
AcDbLine
 10
5.7188255737
 20
-7.2074729324
 30
0.0
 11
5.7188255737
 21
0.5496647805
 31
0.0
  0
LINE
  5
1EF
330
194
100
AcDbEntity
  8
0
  6
HIDDEN
 62
     7
370
     0
100
AcDbLine
 10
-8.7664558006
 20
5.4481134514
 30
0.0
 11
-8.7664558006
 21
-2.3090242615
 31
0.0
  0
LINE
  5
1F0
330
194
100
AcDbEntity
  8
0
  6
HIDDEN
 62
     7
370
     0
100
AcDbLine
 10
-2.7664558006
 20
-2.3090242615
 30
0.0
 11
-2.7664558006
 21
5.4481134514
 31
0.0
  0
LINE
  5
1F1
330
194
100
AcDbEntity
  8
0
  6
HIDDEN
 62
     7
370
     0
100
AcDbLine
 10
-15.4885189495
 20
2.5356623195
 30
0.0
 11
-4.8819172317
 21
8.6587231582
 31
0.0
  0
LINE
  5
1F2
330
194
100
AcDbEntity
  8
0
  6
HIDDEN
 62
     7
370
     0
100
AcDbLine
 10
-6.4317912673
 20
11.3434746316
 30
0.0
 11
-17.0383929851
 21
5.2204137929
 31
0.0
  0
VIEWPORT
  5
2D9
330
194
100
AcDbEntity
  8
0
100
AcDbViewport
 10
0.0
 20
0.0
 30
0.0
 40
243.84
 41
204.216
 68
     1
 69
     1
 12
-0.1622217027
 22
0.1382355589
 13
0.0
 23
0.0
 14
10.0
 24
10.0
 15
10.0
 25
10.0
 16
0.0
 26
0.0
 36
1.0
 17
0.0
 27
0.0
 37
0.0
 42
50.0
 43
0.0
 44
0.0
 45
38.0561576543
 50
0.0
 51
0.0
 72
   100
 90
   557152
  1

281
     0
 71
     1
 74
     0
110
0.0
120
0.0
130
0.0
111
1.0
121
0.0
131
0.0
112
0.0
122
1.0
132
0.0
 79
     0
146
0.0
  0
ENDBLK
  5
197
330
194
100
AcDbEntity
  8
0
100
AcDbBlockEnd
  0
BLOCK
  5
1F5
330
1F3
100
AcDbEntity
  8
0
100
AcDbBlockBegin
  2
*Paper_Space6
 70
     0
 10
0.0
 20
0.0
 30
0.0
  3
*Paper_Space6
  1

  0
LWPOLYLINE
  5
203
330
1F3
100
AcDbEntity
  8
0
  6
Continuous
 62
     7
370
    15
100
AcDbPolyline
 90
       45
 70
   128
 43
0.0
 10
-15.8378482144
 20
0.5796621553
 10
-15.8518014713
 20
0.7725351715
 10
-15.8933771941
 20
0.9690662418
 10
-15.9617290208
 20
1.1652545604
 10
-16.0554655055
 20
1.3571062988
 10
-16.1726784435
 20
1.5407159089
 10
-16.3109817175
 20
1.7123456286
 10
-16.4675598717
 20
1.8685015716
 10
-16.6392254264
 20
2.0060048534
 10
-16.8224837659
 20
2.1220563035
 10
-17.0136042789
 20
2.2142934492
 10
-17.208696303
 20
2.2808386082
 10
-17.403788327
 20
2.3203371129
 10
-17.59490884
 20
2.3319848876
 10
-17.7781671795
 20
2.3155448173
 10
-17.9498327342
 20
2.2713515744
 10
-18.1064108884
 20
2.2003048058
 10
-18.2447141624
 20
2.103850819
 10
-18.3619271005
 20
1.9839531388
 10
-18.4556635851
 20
1.8430525364
 10
-18.5240154119
 20
1.6840173417
 10
-18.5655911346
 20
1.5100850525
 10
-18.5795443916
 20
1.3247964289
 10
-18.5655911346
 20
1.1319234127
 10
-18.5240154119
 20
0.9353923424
 10
-18.4556635851
 20
0.7392040238
 10
-18.3619271005
 20
0.5473522854
 10
-18.2447141624
 20
0.3637426753
 10
-18.1064108884
 20
0.1921129556
 10
-17.9498327342
 20
0.0359570126
 10
-17.7781671795
 20
-0.1015462692
 10
-17.59490884
 20
-0.2175977193
 10
-17.403788327
 20
-0.309834865
 10
-17.208696303
 20
-0.376380024
 10
-17.0136042789
 20
-0.4158785287
 10
-16.8224837659
 20
-0.4275263034
 10
-16.6392254264
 20
-0.4110862331
 10
-16.4675598717
 20
-0.3668929902
 10
-16.3109817175
 20
-0.2958462216
 10
-16.1726784435
 20
-0.1993922348
 10
-16.0554655055
 20
-0.0794945546
 10
-15.9617290208
 20
0.0614060478
 10
-15.8933771941
 20
0.2204412425
 10
-15.8518014713
 20
0.3943735316
 10
-15.8378482144
 20
0.5796621553
  0
LWPOLYLINE
  5
204
330
1F3
100
AcDbEntity
  8
0
  6
Continuous
 62
     7
370
    15
100
AcDbPolyline
 90
       45
 70
   128
 43
0.0
 10
11.5791135576
 20
-6.8716805799
 10
11.5651603007
 20
-6.6788075637
 10
11.5235845779
 20
-6.4822764934
 10
11.4552327512
 20
-6.2860881748
 10
11.3614962665
 20
-6.0942364364
 10
11.2442833285
 20
-5.9106268263
 10
11.1059800545
 20
-5.7389971066
 10
10.9494019003
 20
-5.5828411636
 10
10.7777363456
 20
-5.4453378818
 10
10.5944780061
 20
-5.3292864317
 10
10.4033574931
 20
-5.237049286
 10
10.208265469
 20
-5.170504127
 10
10.013173445
 20
-5.1310056223
 10
9.822052932
 20
-5.1193578476
 10
9.6387945925
 20
-5.1357979179
 10
9.4671290378
 20
-5.1799911608
 10
9.3105508836
 20
-5.2510379294
 10
9.1722476096
 20
-5.3474919162
 10
9.0550346715
 20
-5.4673895964
 10
8.9612981869
 20
-5.6082901988
 10
8.8929463601
 20
-5.7673253935
 10
8.8513706374
 20
-5.9412576827
 10
8.8374173804
 20
-6.1265463063
 10
8.8513706374
 20
-6.3194193225
 10
8.8929463601
 20
-6.5159503929
 10
8.9612981869
 20
-6.7121387114
 10
9.0550346715
 20
-6.9039904498
 10
9.1722476096
 20
-7.0876000599
 10
9.3105508836
 20
-7.2592297796
 10
9.4671290378
 20
-7.4153857226
 10
9.6387945925
 20
-7.5528890044
 10
9.822052932
 20
-7.6689404545
 10
10.013173445
 20
-7.7611776002
 10
10.208265469
 20
-7.8277227592
 10
10.4033574931
 20
-7.8672212639
 10
10.5944780061
 20
-7.8788690386
 10
10.7777363456
 20
-7.8624289683
 10
10.9494019003
 20
-7.8182357254
 10
11.1059800545
 20
-7.7471889568
 10
11.2442833285
 20
-7.65073497
 10
11.3614962665
 20
-7.5308372899
 10
11.4552327512
 20
-7.3899366874
 10
11.5235845779
 20
-7.2309014927
 10
11.5651603007
 20
-7.0569692036
 10
11.5791135576
 20
-6.8716805799
  0
LWPOLYLINE
  5
209
330
1F3
100
AcDbEntity
  8
0
  6
Continuous
 62
     7
370
    15
100
AcDbPolyline
 90
       62
 70
   128
 43
0.0
 10
2.9006940001
 20
0.2812003802
 10
3.1809248904
 20
0.2142991604
 10
3.4730265253
 20
0.1625926366
 10
3.7739025546
 20
0.1266289108
 10
4.0803636177
 20
0.1067892074
 10
4.3891611511
 20
0.1032838321
 10
4.697021824
 20
0.1161499429
 10
5.0006822368
 20
0.1452511558
 10
5.2969235136
 20
0.1902789906
 10
5.582605423
 20
0.2507561412
 10
5.8546996659
 20
0.3260415346
 10
6.1103219755
 20
0.415337127
 10
6.3467626918
 20
0.5176963628
 10
6.5615154843
 20
0.6320342088
 10
6.7523039201
 20
0.7571386553
 10
6.9171055942
 20
0.8916835641
 10
7.0541735679
 20
1.0342427256
 10
7.1620548866
 20
1.1833049773
 10
7.2396059815
 20
1.3372902222
 10
7.2860047916
 20
1.4945661784
 10
7.3007594781
 20
1.6534656816
 10
7.2837136376
 20
1.8123043577
 10
7.2350479602
 20
1.9693984771
 10
7.1552783143
 20
2.123082803
 10
7.0452502779
 20
2.2717282435
 10
6.9061301755
 20
2.4137591197
 10
6.7393927149
 20
2.5476698692
 10
6.5468053547
 20
2.6720410046
 10
6.3304095687
 20
2.785554161
 10
6.0924992062
 20
2.8870060707
 10
5.8355961761
 20
2.9753213181
 10
5.5624237145
 20
3.0495637398
 10
5.2758775174
 20
3.1089463476
 10
4.9789950459
 20
3.152839671
 10
4.6749233279
 20
3.1807784299
 10
4.3668855993
 20
3.1924664665
 10
4.0581471367
 20
3.1877798848
 10
3.7519806446
 20
3.1667683635
 10
3.4516315639
 20
3.1296546302
 10
3.1602836697
 20
3.0768320996
 10
2.8810253221
 20
3.0088607037
 10
2.616816729
 20
2.9264609561
 10
2.3704585672
 20
2.8305063148
 10
2.1445622947
 20
2.7220139227
 10
1.941522468
 20
2.6021338262
 10
1.7634913598
 20
2.4721367842
 10
1.6123561442
 20
2.3334007976
 10
1.489718892
 20
2.1873965024
 10
1.3968795886
 20
2.0356715805
 10
1.3348223538
 20
1.8798343538
 10
1.3042050096
 20
1.7215367357
 10
1.3053521076
 20
1.5624567202
 10
1.3382514882
 20
1.4042805952
 10
1.4025544097
 20
1.2486850668
 10
1.4975792453
 20
1.0973194865
 10
1.622318708
 20
0.951788367
 10
1.7754505285
 20
0.8136343743
 10
1.9553514714
 20
0.6843219753
 10
2.1601145419
 20
0.5652219134
 10
2.3875692006
 20
0.457596679
 10
2.6353043715
 20
0.3625871262
 10
2.9006940001
 20
0.2812003802
  0
LWPOLYLINE
  5
20A
330
1F3
100
AcDbEntity
  8
0
  6
Continuous
 62
     7
370
    15
100
AcDbPolyline
 90
       62
 70
   128
 43
0.0
 10
-7.71232346
 20
3.1655911164
 10
-7.4320925697
 20
3.0986898966
 10
-7.1399909349
 20
3.0469833729
 10
-6.8391149055
 20
3.011019647
 10
-6.5326538424
 20
2.9911799436
 10
-6.223856309
 20
2.9876745684
 10
-5.9159956361
 20
3.0005406792
 10
-5.6123352233
 20
3.029641892
 10
-5.3160939465
 20
3.0746697268
 10
-5.0304120371
 20
3.1351468774
 10
-4.7583177942
 20
3.2104322708
 10
-4.5026954846
 20
3.2997278632
 10
-4.2662547683
 20
3.4020870991
 10
-4.0515019758
 20
3.516424945
 10
-3.86071354
 20
3.6415293915
 10
-3.6959118659
 20
3.7760743003
 10
-3.5588438922
 20
3.9186334618
 10
-3.4509625735
 20
4.0676957135
 10
-3.3734114786
 20
4.2216809584
 10
-3.3270126685
 20
4.3789569146
 10
-3.312257982
 20
4.5378564179
 10
-3.3293038225
 20
4.6966950939
 10
-3.3779694999
 20
4.8537892133
 10
-3.4577391459
 20
5.0074735392
 10
-3.5677671823
 20
5.1561189797
 10
-3.7068872846
 20
5.2981498559
 10
-3.8736247452
 20
5.4320606054
 10
-4.0662121054
 20
5.5564317408
 10
-4.2826078914
 20
5.6699448972
 10
-4.5205182539
 20
5.7713968069
 10
-4.777421284
 20
5.8597120543
 10
-5.0505937456
 20
5.933954476
 10
-5.3371399427
 20
5.9933370838
 10
-5.6340224143
 20
6.0372304072
 10
-5.9380941322
 20
6.0651691661
 10
-6.2461318608
 20
6.0768572027
 10
-6.5548703234
 20
6.072170621
 10
-6.8610368156
 20
6.0511590997
 10
-7.1613858962
 20
6.0140453664
 10
-7.4527337904
 20
5.9612228358
 10
-7.7319921381
 20
5.8932514399
 10
-7.9962007312
 20
5.8108516923
 10
-8.2425588929
 20
5.714897051
 10
-8.4684551654
 20
5.6064046589
 10
-8.6714949921
 20
5.4865245624
 10
-8.8495261003
 20
5.3565275204
 10
-9.000661316
 20
5.2177915338
 10
-9.1232985681
 20
5.0717872386
 10
-9.2161378715
 20
4.9200623167
 10
-9.2781951063
 20
4.76422509
 10
-9.3088124505
 20
4.6059274719
 10
-9.3076653525
 20
4.4468474564
 10
-9.2747659719
 20
4.2886713314
 10
-9.2104630504
 20
4.133075803
 10
-9.1154382148
 20
3.9817102227
 10
-8.9906987521
 20
3.8361791032
 10
-8.8375669316
 20
3.6980251105
 10
-8.6576659887
 20
3.5687127115
 10
-8.4529029182
 20
3.4496126496
 10
-8.2254482595
 20
3.3419874152
 10
-7.9777130886
 20
3.2469778625
 10
-7.71232346
 20
3.1655911164
  0
LWPOLYLINE
  5
217
330
1F3
100
AcDbEntity
  8
0
  6
HIDDEN
 62
     7
370
     0
100
AcDbPolyline
 90
       45
 70
   128
 43
0.0
 10
18.5795443916
 20
-0.0390454778
 10
18.5655911346
 20
0.1538275384
 10
18.5240154119
 20
0.3503586087
 10
18.4556635851
 20
0.5465469273
 10
18.3619271005
 20
0.7383986657
 10
18.2447141624
 20
0.9220082758
 10
18.1064108884
 20
1.0936379955
 10
17.9498327342
 20
1.2497939385
 10
17.7781671795
 20
1.3872972202
 10
17.59490884
 20
1.5033486704
 10
17.403788327
 20
1.5955858161
 10
17.208696303
 20
1.662130975
 10
17.0136042789
 20
1.7016294797
 10
16.8224837659
 20
1.7132772545
 10
16.6392254264
 20
1.6968371842
 10
16.4675598717
 20
1.6526439412
 10
16.3109817175
 20
1.5815971727
 10
16.1726784435
 20
1.4851431858
 10
16.0554655055
 20
1.3652455057
 10
15.9617290208
 20
1.2243449033
 10
15.8933771941
 20
1.0653097085
 10
15.8518014713
 20
0.8913774194
 10
15.8378482144
 20
0.7060887957
 10
15.8518014713
 20
0.5132157795
 10
15.8933771941
 20
0.3166847092
 10
15.9617290208
 20
0.1204963907
 10
16.0554655055
 20
-0.0713553478
 10
16.1726784435
 20
-0.2549649579
 10
16.3109817175
 20
-0.4265946775
 10
16.4675598717
 20
-0.5827506206
 10
16.6392254264
 20
-0.7202539023
 10
16.8224837659
 20
-0.8363053525
 10
17.0136042789
 20
-0.9285424982
 10
17.208696303
 20
-0.9950876571
 10
17.403788327
 20
-1.0345861618
 10
17.59490884
 20
-1.0462339365
 10
17.7781671795
 20
-1.0297938662
 10
17.9498327342
 20
-0.9856006233
 10
18.1064108884
 20
-0.9145538548
 10
18.2447141624
 20
-0.8180998679
 10
18.3619271005
 20
-0.6982021878
 10
18.4556635851
 20
-0.5573015854
 10
18.5240154119
 20
-0.3982663906
 10
18.5655911346
 20
-0.2243341015
 10
18.5795443916
 20
-0.0390454778
  0
LWPOLYLINE
  5
219
330
1F3
100
AcDbEntity
  8
0
  6
HIDDEN
 62
     7
370
     0
100
AcDbPolyline
 90
       62
 70
   128
 43
0.0
 10
2.9006940001
 20
-7.8618889765
 10
3.1809248904
 20
-7.9287901962
 10
3.4730265253
 20
-7.98049672
 10
3.7739025546
 20
-8.0164604458
 10
4.0803636177
 20
-8.0363001493
 10
4.3891611511
 20
-8.0398055245
 10
4.697021824
 20
-8.0269394137
 10
5.0006822368
 20
-7.9978382009
 10
5.2969235136
 20
-7.952810366
 10
5.582605423
 20
-7.8923332155
 10
5.8546996659
 20
-7.8170478221
 10
6.1103219755
 20
-7.7277522297
 10
6.3467626918
 20
-7.6253929938
 10
6.5615154843
 20
-7.5110551478
 10
6.7523039201
 20
-7.3859507013
 10
6.9171055942
 20
-7.2514057926
 10
7.0541735679
 20
-7.1088466311
 10
7.1620548866
 20
-6.9597843794
 10
7.2396059815
 20
-6.8057991345
 10
7.2860047916
 20
-6.6485231783
 10
7.3007594781
 20
-6.489623675
 10
7.2837136376
 20
-6.330784999
 10
7.2350479602
 20
-6.1736908796
 10
7.1552783143
 20
-6.0200065536
 10
7.0452502779
 20
-5.8713611132
 10
6.9061301755
 20
-5.729330237
 10
6.7393927149
 20
-5.5954194875
 10
6.5468053547
 20
-5.4710483521
 10
6.3304095687
 20
-5.3575351957
 10
6.0924992062
 20
-5.256083286
 10
5.8355961761
 20
-5.1677680385
 10
5.5624237145
 20
-5.0935256168
 10
5.2758775174
 20
-5.0341430091
 10
4.9789950459
 20
-4.9902496857
 10
4.6749233279
 20
-4.9623109268
 10
4.3668855993
 20
-4.9506228902
 10
4.0581471367
 20
-4.9553094719
 10
3.7519806446
 20
-4.9763209931
 10
3.4516315639
 20
-5.0134347264
 10
3.1602836697
 20
-5.0662572571
 10
2.8810253221
 20
-5.134228653
 10
2.616816729
 20
-5.2166284006
 10
2.3704585672
 20
-5.3125830419
 10
2.1445622947
 20
-5.421075434
 10
1.941522468
 20
-5.5409555305
 10
1.7634913598
 20
-5.6709525725
 10
1.6123561442
 20
-5.8096885591
 10
1.489718892
 20
-5.9556928542
 10
1.3968795886
 20
-6.1074177761
 10
1.3348223538
 20
-6.2632550028
 10
1.3042050096
 20
-6.421552621
 10
1.3053521076
 20
-6.5806326365
 10
1.3382514882
 20
-6.7388087615
 10
1.4025544097
 20
-6.8944042899
 10
1.4975792453
 20
-7.0457698702
 10
1.622318708
 20
-7.1913009897
 10
1.7754505285
 20
-7.3294549824
 10
1.9553514714
 20
-7.4587673814
 10
2.1601145419
 20
-7.5778674433
 10
2.3875692006
 20
-7.6854926777
 10
2.6353043715
 20
-7.7805022304
 10
2.9006940001
 20
-7.8618889765
  0
LWPOLYLINE
  5
21C
330
1F3
100
AcDbEntity
  8
0
  6
HIDDEN
 62
     7
370
     0
100
AcDbPolyline
 90
       62
 70
   128
 43
0.0
 10
-7.71232346
 20
-4.9774982403
 10
-7.4320925697
 20
-5.04439946
 10
-7.1399909349
 20
-5.0961059838
 10
-6.8391149055
 20
-5.1320697096
 10
-6.5326538424
 20
-5.1519094131
 10
-6.223856309
 20
-5.1554147883
 10
-5.9159956361
 20
-5.1425486775
 10
-5.6123352233
 20
-5.1134474647
 10
-5.3160939465
 20
-5.0684196298
 10
-5.0304120371
 20
-5.0079424793
 10
-4.7583177942
 20
-4.9326570859
 10
-4.5026954846
 20
-4.8433614935
 10
-4.2662547683
 20
-4.7410022576
 10
-4.0515019758
 20
-4.6266644116
 10
-3.86071354
 20
-4.5015599651
 10
-3.6959118659
 20
-4.3670150564
 10
-3.5588438922
 20
-4.2244558949
 10
-3.4509625735
 20
-4.0753936432
 10
-3.3734114786
 20
-3.9214083983
 10
-3.3270126685
 20
-3.7641324421
 10
-3.312257982
 20
-3.6052329388
 10
-3.3293038225
 20
-3.4463942628
 10
-3.3779694999
 20
-3.2893001434
 10
-3.4577391459
 20
-3.1356158174
 10
-3.5677671823
 20
-2.986970377
 10
-3.7068872846
 20
-2.8449395008
 10
-3.8736247452
 20
-2.7110287513
 10
-4.0662121054
 20
-2.5866576159
 10
-4.2826078914
 20
-2.4731444595
 10
-4.5205182539
 20
-2.3716925498
 10
-4.777421284
 20
-2.2833773023
 10
-5.0505937456
 20
-2.2091348806
 10
-5.3371399427
 20
-2.1497522729
 10
-5.6340224143
 20
-2.1058589495
 10
-5.9380941322
 20
-2.0779201906
 10
-6.2461318608
 20
-2.0662321539
 10
-6.5548703234
 20
-2.0709187357
 10
-6.8610368156
 20
-2.0919302569
 10
-7.1613858962
 20
-2.1290439902
 10
-7.4527337904
 20
-2.1818665208
 10
-7.7319921381
 20
-2.2498379168
 10
-7.9962007312
 20
-2.3322376643
 10
-8.2425588929
 20
-2.4281923057
 10
-8.4684551654
 20
-2.5366846978
 10
-8.6714949921
 20
-2.6565647943
 10
-8.8495261003
 20
-2.7865618363
 10
-9.000661316
 20
-2.9252978229
 10
-9.1232985681
 20
-3.071302118
 10
-9.2161378715
 20
-3.2230270399
 10
-9.2781951063
 20
-3.3788642666
 10
-9.3088124505
 20
-3.5371618848
 10
-9.3076653525
 20
-3.6962419003
 10
-9.2747659719
 20
-3.8544180253
 10
-9.2104630504
 20
-4.0100135537
 10
-9.1154382148
 20
-4.161379134
 10
-8.9906987521
 20
-4.3069102535
 10
-8.8375669316
 20
-4.4450642461
 10
-8.6576659887
 20
-4.5743766452
 10
-8.4529029182
 20
-4.6934767071
 10
-8.2254482595
 20
-4.8011019415
 10
-7.9777130886
 20
-4.8961114942
 10
-7.71232346
 20
-4.9774982403
  0
LWPOLYLINE
  5
21D
330
1F3
100
AcDbEntity
  8
0
  6
HIDDEN
 62
     7
370
     0
100
AcDbPolyline
 90
       45
 70
   128
 43
0.0
 10
-8.8374173804
 20
7.4122972574
 10
-8.8513706374
 20
7.6051702736
 10
-8.8929463601
 20
7.8017013439
 10
-8.9612981869
 20
7.9978896625
 10
-9.0550346715
 20
8.1897414009
 10
-9.1722476096
 20
8.373351011
 10
-9.3105508836
 20
8.5449807307
 10
-9.4671290378
 20
8.7011366737
 10
-9.6387945925
 20
8.8386399554
 10
-9.822052932
 20
8.9546914056
 10
-10.013173445
 20
9.0469285513
 10
-10.208265469
 20
9.1134737102
 10
-10.4033574931
 20
9.1529722149
 10
-10.5944780061
 20
9.1646199897
 10
-10.7777363456
 20
9.1481799194
 10
-10.9494019003
 20
9.1039866764
 10
-11.1059800545
 20
9.0329399079
 10
-11.2442833285
 20
8.936485921
 10
-11.3614962665
 20
8.8165882409
 10
-11.4552327512
 20
8.6756876385
 10
-11.5235845779
 20
8.5166524437
 10
-11.5651603007
 20
8.3427201546
 10
-11.5791135576
 20
8.1574315309
 10
-11.5651603007
 20
7.9645585147
 10
-11.5235845779
 20
7.7680274444
 10
-11.4552327512
 20
7.5718391259
 10
-11.3614962665
 20
7.3799873874
 10
-11.2442833285
 20
7.1963777773
 10
-11.1059800545
 20
7.0247480577
 10
-10.9494019003
 20
6.8685921146
 10
-10.7777363456
 20
6.7310888329
 10
-10.5944780061
 20
6.6150373827
 10
-10.4033574931
 20
6.522800237
 10
-10.208265469
 20
6.4562550781
 10
-10.013173445
 20
6.4167565734
 10
-9.822052932
 20
6.4051087987
 10
-9.6387945925
 20
6.421548869
 10
-9.4671290378
 20
6.4657421119
 10
-9.3105508836
 20
6.5367888804
 10
-9.1722476096
 20
6.6332428673
 10
-9.0550346715
 20
6.7531405474
 10
-8.9612981869
 20
6.8940411498
 10
-8.8929463601
 20
7.0530763446
 10
-8.8513706374
 20
7.2270086337
 10
-8.8374173804
 20
7.4122972574
  0
LINE
  5
22B
330
1F3
100
AcDbEntity
  8
0
  6
Continuous
 62
     7
370
    15
100
AcDbLine
 10
14.8637037719
 20
-4.0445192103
 30
0.0
 11
15.3059128327
 21
-4.593285808
 31
0.0
  0
LINE
  5
22C
330
1F3
100
AcDbEntity
  8
0
  6
Continuous
 62
     7
370
    15
100
AcDbLine
 10
14.6303560774
 20
-4.7008573641
 30
0.0
 11
15.3059128327
 21
-4.593285808
 31
0.0
  0
LINE
  5
22D
330
1F3
100
AcDbEntity
  8
0
  6
Continuous
 62
     7
370
    15
100
AcDbLine
 10
14.8637037719
 20
-4.0445192103
 30
0.0
 11
14.6303560774
 21
-4.7008573641
 31
0.0
  0
LINE
  5
22E
330
1F3
100
AcDbEntity
  8
0
  6
Continuous
 62
     7
370
    15
100
AcDbLine
 10
-21.3974392169
 20
5.8104824717
 30
0.0
 11
14.8637037719
 21
-4.0445192103
 31
0.0
  0
LINE
  5
22F
330
1F3
100
AcDbEntity
  8
0
  6
Continuous
 62
     7
370
    15
100
AcDbLine
 10
14.6303560774
 20
-4.7008573641
 30
0.0
 11
-21.6307869114
 21
5.154144318
 31
0.0
  0
LINE
  5
230
330
1F3
100
AcDbEntity
  8
0
  6
Continuous
 62
     7
370
    15
100
AcDbLine
 10
-21.3974392169
 20
5.8104824717
 30
0.0
 11
-21.6307869114
 21
5.154144318
 31
0.0
  0
LINE
  5
231
330
1F3
100
AcDbEntity
  8
0
  6
Continuous
 62
     7
370
    15
100
AcDbLine
 10
14.6303560774
 20
-11.98677942
 30
0.0
 11
14.6303560774
 21
-4.7008573641
 31
0.0
  0
LINE
  5
232
330
1F3
100
AcDbEntity
  8
0
  6
Continuous
 62
     7
370
    15
100
AcDbLine
 10
15.3059128327
 20
-4.593285808
 30
0.0
 11
15.3059128327
 21
-11.879207864
 31
0.0
  0
LINE
  5
233
330
1F3
100
AcDbEntity
  8
0
  6
Continuous
 62
     7
370
    15
100
AcDbLine
 10
14.6303560774
 20
-11.98677942
 30
0.0
 11
15.3059128327
 21
-11.879207864
 31
0.0
  0
LINE
  5
234
330
1F3
100
AcDbEntity
  8
0
  6
Continuous
 62
     7
370
    15
100
AcDbLine
 10
14.8637037719
 20
-4.0445192103
 30
0.0
 11
21.6307869114
 21
2.5603613883
 31
0.0
  0
LINE
  5
235
330
1F3
100
AcDbEntity
  8
0
  6
Continuous
 62
     7
370
    15
100
AcDbLine
 10
21.6307869114
 20
2.5603613883
 30
0.0
 11
22.0729959722
 21
2.0115947907
 31
0.0
  0
LINE
  5
236
330
1F3
100
AcDbEntity
  8
0
  6
Continuous
 62
     7
370
    15
100
AcDbLine
 10
22.0729959722
 20
2.0115947907
 30
0.0
 11
15.3059128327
 21
-4.593285808
 31
0.0
  0
LINE
  5
237
330
1F3
100
AcDbEntity
  8
0
  6
Continuous
 62
     7
370
    15
100
AcDbLine
 10
-21.6307869114
 20
5.154144318
 30
0.0
 11
-21.6307869114
 21
-2.131777738
 31
0.0
  0
LINE
  5
238
330
1F3
100
AcDbEntity
  8
0
  6
Continuous
 62
     7
370
    15
100
AcDbLine
 10
-21.6307869114
 20
-2.131777738
 30
0.0
 11
14.6303560774
 21
-11.98677942
 31
0.0
  0
LINE
  5
239
330
1F3
100
AcDbEntity
  8
0
  6
Continuous
 62
     7
370
    15
100
AcDbLine
 10
-14.6303560774
 20
12.4153630704
 30
0.0
 11
-21.3974392169
 21
5.8104824717
 31
0.0
  0
LINE
  5
23A
330
1F3
100
AcDbEntity
  8
0
  6
Continuous
 62
     7
370
    15
100
AcDbLine
 10
21.6307869114
 20
2.5603613883
 30
0.0
 11
-14.6303560774
 21
12.4153630704
 31
0.0
  0
LINE
  5
23B
330
1F3
100
AcDbEntity
  8
0
  6
Continuous
 62
     7
370
    15
100
AcDbLine
 10
15.3059128327
 20
-11.879207864
 30
0.0
 11
22.0729959722
 21
-5.2743272653
 31
0.0
  0
LINE
  5
23C
330
1F3
100
AcDbEntity
  8
0
  6
Continuous
 62
     7
370
    15
100
AcDbLine
 10
22.0729959722
 20
-5.2743272653
 30
0.0
 11
22.0729959722
 21
2.0115947907
 31
0.0
  0
LINE
  5
23D
330
1F3
100
AcDbEntity
  8
0
  6
Continuous
 62
     7
370
    15
100
AcDbLine
 10
14.8637037719
 20
-12.187608567
 30
0.0
 11
15.3059128327
 21
-11.879207864
 31
0.0
  0
LINE
  5
23E
330
1F3
100
AcDbEntity
  8
0
  6
Continuous
 62
     7
370
    15
100
AcDbLine
 10
14.6303560774
 20
-11.98677942
 30
0.0
 11
14.8637037719
 21
-12.187608567
 31
0.0
  0
LINE
  5
23F
330
1F3
100
AcDbEntity
  8
0
  6
Continuous
 62
     7
370
    15
100
AcDbLine
 10
14.8637037719
 20
-12.187608567
 30
0.0
 11
-21.3974392169
 21
-2.3326068849
 31
0.0
  0
LINE
  5
240
330
1F3
100
AcDbEntity
  8
0
  6
Continuous
 62
     7
370
    15
100
AcDbLine
 10
-21.6307869114
 20
-2.131777738
 30
0.0
 11
-21.3974392169
 21
-2.3326068849
 31
0.0
  0
LINE
  5
241
330
1F3
100
AcDbEntity
  8
0
  6
Continuous
 62
     7
370
    15
100
AcDbLine
 10
-21.8396482777
 20
5.5020817687
 30
0.0
 11
-21.6307869114
 21
5.154144318
 31
0.0
  0
LINE
  5
242
330
1F3
100
AcDbEntity
  8
0
  6
Continuous
 62
     7
370
    15
100
AcDbLine
 10
-21.3974392169
 20
5.8104824717
 30
0.0
 11
-21.8396482777
 21
5.5020817687
 31
0.0
  0
LINE
  5
243
330
1F3
100
AcDbEntity
  8
0
  6
Continuous
 62
     7
370
    15
100
AcDbLine
 10
-21.8396482777
 20
-1.7838402873
 30
0.0
 11
-21.8396482777
 21
5.5020817687
 31
0.0
  0
LINE
  5
244
330
1F3
100
AcDbEntity
  8
0
  6
Continuous
 62
     7
370
    15
100
AcDbLine
 10
-21.8396482777
 20
-1.7838402873
 30
0.0
 11
-21.6307869114
 21
-2.131777738
 31
0.0
  0
LINE
  5
245
330
1F3
100
AcDbEntity
  8
0
  6
Continuous
 62
     7
370
    15
100
AcDbLine
 10
-21.8396482777
 20
5.5020817687
 30
0.0
 11
-15.0725651383
 21
12.1069623674
 31
0.0
  0
LINE
  5
246
330
1F3
100
AcDbEntity
  8
0
  6
Continuous
 62
     7
370
    15
100
AcDbLine
 10
-15.0725651383
 20
12.1069623674
 30
0.0
 11
-14.6303560774
 21
12.4153630704
 31
0.0
  0
LINE
  5
247
330
1F3
100
AcDbEntity
  8
0
  6
HIDDEN
 62
     7
370
     0
100
AcDbLine
 10
21.6307869114
 20
-5.5827279683
 30
0.0
 11
14.8637037719
 21
-12.187608567
 31
0.0
  0
LINE
  5
248
330
1F3
100
AcDbEntity
  8
0
  6
HIDDEN
 62
     7
370
     0
100
AcDbLine
 10
-14.6303560774
 20
4.2722737137
 30
0.0
 11
21.6307869114
 21
-5.5827279683
 31
0.0
  0
LINE
  5
249
330
1F3
100
AcDbEntity
  8
0
  6
HIDDEN
 62
     7
370
     0
100
AcDbLine
 10
22.0729959722
 20
-5.2743272653
 30
0.0
 11
21.6307869114
 21
-5.5827279683
 31
0.0
  0
LINE
  5
24A
330
1F3
100
AcDbEntity
  8
0
  6
HIDDEN
 62
     7
370
     0
100
AcDbLine
 10
-15.0725651383
 20
12.1069623674
 30
0.0
 11
-15.0725651383
 21
4.8210403114
 31
0.0
  0
LINE
  5
24B
330
1F3
100
AcDbEntity
  8
0
  6
HIDDEN
 62
     7
370
     0
100
AcDbLine
 10
-21.8396482777
 20
-1.7838402873
 30
0.0
 11
-21.3974392169
 21
-2.3326068849
 31
0.0
  0
LINE
  5
24C
330
1F3
100
AcDbEntity
  8
0
  6
HIDDEN
 62
     7
370
     0
100
AcDbLine
 10
-15.0725651383
 20
4.8210403114
 30
0.0
 11
-21.8396482777
 21
-1.7838402873
 31
0.0
  0
LINE
  5
24D
330
1F3
100
AcDbEntity
  8
0
  6
HIDDEN
 62
     7
370
     0
100
AcDbLine
 10
-14.6303560774
 20
4.2722737137
 30
0.0
 11
-15.0725651383
 21
4.8210403114
 31
0.0
  0
LINE
  5
24E
330
1F3
100
AcDbEntity
  8
0
  6
HIDDEN
 62
     7
370
     0
100
AcDbLine
 10
-21.3974392169
 20
-2.3326068849
 30
0.0
 11
-14.6303560774
 21
4.2722737137
 31
0.0
  0
LINE
  5
24F
330
1F3
100
AcDbEntity
  8
0
  6
HIDDEN
 62
     7
370
     0
100
AcDbLine
 10
11.2909066149
 20
-7.6083420711
 30
0.0
 11
18.2913374489
 21
-0.775706969
 31
0.0
  0
LINE
  5
250
330
1F3
100
AcDbEntity
  8
0
  6
HIDDEN
 62
     7
370
     0
100
AcDbLine
 10
16.1260551571
 20
1.442750287
 30
0.0
 11
9.1256243231
 21
-5.3898848151
 31
0.0
  0
LINE
  5
251
330
1F3
100
AcDbEntity
  8
0
  6
HIDDEN
 62
     7
370
     0
100
AcDbLine
 10
1.3007801669
 20
1.6477274006
 30
0.0
 11
1.3007801669
 21
-6.4953619561
 31
0.0
  0
LINE
  5
252
330
1F3
100
AcDbEntity
  8
0
  6
HIDDEN
 62
     7
370
     0
100
AcDbLine
 10
7.3007801669
 20
-6.4953619561
 30
0.0
 11
7.3007801669
 21
1.6477274006
 31
0.0
  0
LINE
  5
253
330
1F3
100
AcDbEntity
  8
0
  6
HIDDEN
 62
     7
370
     0
100
AcDbLine
 10
-9.3122372932
 20
4.5321181368
 30
0.0
 11
-9.3122372932
 21
-3.6109712199
 31
0.0
  0
LINE
  5
254
330
1F3
100
AcDbEntity
  8
0
  6
HIDDEN
 62
     7
370
     0
100
AcDbLine
 10
-3.3122372932
 20
-3.6109712199
 30
0.0
 11
-3.3122372932
 21
4.5321181368
 31
0.0
  0
LINE
  5
255
330
1F3
100
AcDbEntity
  8
0
  6
HIDDEN
 62
     7
370
     0
100
AcDbLine
 10
-16.1260551571
 20
-0.1569993359
 30
0.0
 11
-9.1256243231
 21
6.6756357662
 31
0.0
  0
LINE
  5
256
330
1F3
100
AcDbEntity
  8
0
  6
HIDDEN
 62
     7
370
     0
100
AcDbLine
 10
-11.2909066149
 20
8.8940930222
 30
0.0
 11
-18.2913374489
 21
2.0614579201
 31
0.0
  0
VIEWPORT
  5
2DA
330
1F3
100
AcDbEntity
  8
0
100
AcDbViewport
 10
0.0
 20
0.0
 30
0.0
 40
243.84
 41
204.216
 68
     1
 69
     1
 12
-0.1622217027
 22
0.1382355589
 13
0.0
 23
0.0
 14
10.0
 24
10.0
 15
10.0
 25
10.0
 16
0.0
 26
0.0
 36
1.0
 17
0.0
 27
0.0
 37
0.0
 42
50.0
 43
0.0
 44
0.0
 45
38.0561576543
 50
0.0
 51
0.0
 72
   100
 90
   557152
  1

281
     0
 71
     1
 74
     0
110
0.0
120
0.0
130
0.0
111
1.0
121
0.0
131
0.0
112
0.0
122
1.0
132
0.0
 79
     0
146
0.0
  0
ENDBLK
  5
1F6
330
1F3
100
AcDbEntity
  8
0
100
AcDbBlockEnd
  0
BLOCK
  5
259
330
257
100
AcDbEntity
  8
0
100
AcDbBlockBegin
  2
*Paper_Space7
 70
     0
 10
0.0
 20
0.0
 30
0.0
  3
*Paper_Space7
  1

  0
LWPOLYLINE
  5
264
330
257
100
AcDbEntity
  8
0
  6
Continuous
 62
     7
370
    15
100
AcDbPolyline
 90
       45
 70
   128
 43
0.0
 10
-15.7006805656
 20
0.0125941804
 10
-15.715438378
 20
0.2224258503
 10
-15.7594113888
 20
0.4317045716
 10
-15.8317044341
 20
0.6361700332
 10
-15.9308458361
 20
0.8316599078
 10
-16.0548173618
 20
1.0141945854
 10
-16.2010953083
 20
1.1800581863
 10
-16.3667018786
 20
1.325874206
 10
-16.5482658004
 20
1.4486742507
 10
-16.7420909559
 20
1.5459584657
 10
-16.9442316238
 20
1.6157464249
 10
-17.1505728031
 20
1.6566174467
 10
-17.3569139823
 20
1.6677395149
 10
-17.5590546503
 20
1.6488862164
 10
-17.7528798057
 20
1.6004413499
 10
-17.9344437275
 20
1.5233911132
 10
-18.1000502978
 20
1.4193040269
 10
-18.2463282444
 20
1.2902990039
 10
-18.37029977
 20
1.1390022145
 10
-18.469441172
 20
0.968493625
 10
-18.5417342174
 20
0.7822442986
 10
-18.5857072281
 20
0.5840457345
 10
-18.6004650405
 20
0.3779326839
 10
-18.5857072281
 20
0.1681010141
 10
-18.5417342174
 20
-0.0411777073
 10
-18.469441172
 20
-0.2456431688
 10
-18.37029977
 20
-0.4411330435
 10
-18.2463282444
 20
-0.6236677211
 10
-18.1000502978
 20
-0.789531322
 10
-17.9344437275
 20
-0.9353473417
 10
-17.7528798057
 20
-1.0581473864
 10
-17.5590546503
 20
-1.1554316014
 10
-17.3569139823
 20
-1.2252195605
 10
-17.1505728031
 20
-1.2660905823
 10
-16.9442316238
 20
-1.2772126506
 10
-16.7420909559
 20
-1.2583593521
 10
-16.5482658004
 20
-1.2099144855
 10
-16.3667018786
 20
-1.1328642488
 10
-16.2010953083
 20
-1.0287771625
 10
-16.0548173618
 20
-0.8997721396
 10
-15.9308458361
 20
-0.7484753502
 10
-15.8317044341
 20
-0.5779667607
 10
-15.7594113888
 20
-0.3917174343
 10
-15.715438378
 20
-0.1935188702
 10
-15.7006805656
 20
0.0125941804
  0
LWPOLYLINE
  5
265
330
257
100
AcDbEntity
  8
0
  6
Continuous
 62
     7
370
    15
100
AcDbPolyline
 90
       45
 70
   128
 43
0.0
 10
13.2971641828
 20
-3.640790854
 10
13.2824063704
 20
-3.4309591842
 10
13.2384333597
 20
-3.2216804628
 10
13.1661403144
 20
-3.0172150013
 10
13.0669989123
 20
-2.8217251266
 10
12.9430273867
 20
-2.639190449
 10
12.7967494401
 20
-2.4733268481
 10
12.6311428698
 20
-2.3275108284
 10
12.449578948
 20
-2.2047107837
 10
12.2557537926
 20
-2.1074265687
 10
12.0536131247
 20
-2.0376386095
 10
11.8472719454
 20
-1.9967675878
 10
11.6409307661
 20
-1.9856455195
 10
11.4387900982
 20
-2.004498818
 10
11.2449649427
 20
-2.0529436846
 10
11.0634010209
 20
-2.1299939213
 10
10.8977944506
 20
-2.2340810076
 10
10.7515165041
 20
-2.3630860305
 10
10.6275449784
 20
-2.5143828199
 10
10.5284035764
 20
-2.6848914094
 10
10.4561105311
 20
-2.8711407358
 10
10.4121375204
 20
-3.0693392999
 10
10.397379708
 20
-3.2754523505
 10
10.4121375204
 20
-3.4852840204
 10
10.4561105311
 20
-3.6945627417
 10
10.5284035764
 20
-3.8990282033
 10
10.6275449784
 20
-4.0945180779
 10
10.7515165041
 20
-4.2770527555
 10
10.8977944506
 20
-4.4429163564
 10
11.0634010209
 20
-4.5887323761
 10
11.2449649427
 20
-4.7115324208
 10
11.4387900982
 20
-4.8088166358
 10
11.6409307661
 20
-4.878604595
 10
11.8472719454
 20
-4.9194756168
 10
12.0536131247
 20
-4.930597685
 10
12.2557537926
 20
-4.9117443865
 10
12.449578948
 20
-4.86329952
 10
12.6311428698
 20
-4.7862492832
 10
12.7967494401
 20
-4.6821621969
 10
12.9430273867
 20
-4.553157174
 10
13.0669989123
 20
-4.4018603846
 10
13.1661403144
 20
-4.2313517951
 10
13.2384333597
 20
-4.0451024687
 10
13.2824063704
 20
-3.8469039046
 10
13.2971641828
 20
-3.640790854
  0
LWPOLYLINE
  5
26F
330
257
100
AcDbEntity
  8
0
  6
Continuous
 62
     7
370
    15
100
AcDbPolyline
 90
       62
 70
   128
 43
0.0
 10
3.7899183523
 20
2.1638825147
 10
4.0840806907
 20
2.132487615
 10
4.3863680968
 20
2.1113411337
 10
4.693576249
 20
2.100667229
 10
5.0024486643
 20
2.1005790468
 10
5.3097112184
 20
2.1110775218
 10
5.6121068517
 20
2.1320513677
 10
5.9064300952
 20
2.1632782565
 10
6.1895610495
 20
2.2044271753
 10
6.4584984558
 20
2.2550619354
 10
6.7103915109
 20
2.3146457958
 10
6.9425700857
 20
2.3825471526
 10
7.1525730294
 20
2.4580462347
 10
7.3381742588
 20
2.5403427329
 10
7.4974063545
 20
2.6285642839
 10
7.6285814167
 20
2.7217757174
 10
7.7303089572
 20
2.8189889689
 10
7.8015106387
 20
2.9191735538
 10
7.8414317057
 20
3.0212674905
 10
7.8496489849
 20
3.124188558
 10
7.8260753712
 20
3.2268457674
 10
7.7709607506
 20
3.3281509265
 10
7.684889352
 20
3.4270301757
 10
7.5687735534
 20
3.5224353702
 10
7.4238442114
 20
3.6133551912
 10
7.2516376129
 20
3.6988258661
 10
7.0539791907
 20
3.7779413843
 10
6.8329641734
 20
3.8498631018
 10
6.590935375
 20
3.9138286305
 10
6.330458361
 20
3.9691599197
 10
6.0542942526
 20
4.0152704441
 10
5.765370458
 20
4.0516714207
 10
5.4667496413
 20
4.07797699
 10
5.1615972575
 20
4.0939083065
 10
4.8531479978
 20
4.0992964942
 10
4.544671501
 20
4.094084437
 10
4.2394376947
 20
4.0783273841
 10
3.9406821333
 20
4.0521923641
 10
3.6515717
 20
4.0159564147
 10
3.3751710372
 20
3.970003646
 10
3.1144100609
 20
3.9148211688
 10
2.8720529022
 20
3.850993931
 10
2.6506686072
 20
3.7791985173
 10
2.4526039047
 20
3.7001959769
 10
2.2799583296
 20
3.6148237563
 10
2.1345619682
 20
3.5239868225
 10
2.0179560578
 20
3.4286480694
 10
1.9313766503
 20
3.3298181116
 10
1.8757415089
 20
3.2285445711
 10
1.8516403798
 20
3.1259009728
 10
1.8593287412
 20
3.0229753643
 10
1.8987250944
 20
2.9208587826
 10
1.9694118282
 20
2.820633689
 10
2.0706396458
 20
2.7233624943
 10
2.2013355071
 20
2.6300762974
 10
2.3601140033
 20
2.5417639553
 10
2.5452920431
 20
2.4593616006
 10
2.7549066931
 20
2.3837427189
 10
2.9867359857
 20
2.3157088891
 10
3.238322473
 20
2.2559812867
 10
3.5069992755
 20
2.2051930393
 10
3.7899183523
 20
2.1638825147
  0
LWPOLYLINE
  5
270
330
257
100
AcDbEntity
  8
0
  6
Continuous
 62
     7
370
    15
100
AcDbPolyline
 90
       62
 70
   128
 43
0.0
 10
-7.4350538084
 20
3.5780960764
 10
-7.14089147
 20
3.5467011767
 10
-6.8386040638
 20
3.5255546954
 10
-6.5313959117
 20
3.5148807907
 10
-6.2225234963
 20
3.5147926085
 10
-5.9152609423
 20
3.5252910836
 10
-5.612865309
 20
3.5462649295
 10
-5.3185420655
 20
3.5774918182
 10
-5.0354111112
 20
3.618640737
 10
-4.7664737049
 20
3.6692754972
 10
-4.5145806498
 20
3.7288593575
 10
-4.282402075
 20
3.7967607143
 10
-4.0723991313
 20
3.8722597964
 10
-3.8867979019
 20
3.9545562946
 10
-3.7275658062
 20
4.0427778457
 10
-3.596390744
 20
4.1359892791
 10
-3.4946632035
 20
4.2332025306
 10
-3.423461522
 20
4.3333871155
 10
-3.383540455
 20
4.4354810523
 10
-3.3753231758
 20
4.5384021198
 10
-3.3988967895
 20
4.6410593291
 10
-3.4540114101
 20
4.7423644883
 10
-3.5400828087
 20
4.8412437374
 10
-3.6561986073
 20
4.9366489319
 10
-3.8011279493
 20
5.0275687529
 10
-3.9733345478
 20
5.1130394278
 10
-4.17099297
 20
5.1921549461
 10
-4.3920079873
 20
5.2640766635
 10
-4.6340367857
 20
5.3280421922
 10
-4.8945137997
 20
5.3833734814
 10
-5.1706779081
 20
5.4294840058
 10
-5.4596017027
 20
5.4658849824
 10
-5.7582225194
 20
5.4921905517
 10
-6.0633749032
 20
5.5081218682
 10
-6.3718241629
 20
5.5135100559
 10
-6.6803006597
 20
5.5082979988
 10
-6.985534466
 20
5.4925409458
 10
-7.2842900274
 20
5.4664059258
 10
-7.5734004607
 20
5.4301699764
 10
-7.8498011235
 20
5.3842172077
 10
-8.1105620998
 20
5.3290347305
 10
-8.3529192585
 20
5.2652074927
 10
-8.5743035535
 20
5.193412079
 10
-8.772368256
 20
5.1144095386
 10
-8.945013831
 20
5.0290373181
 10
-9.0904101925
 20
4.9382003842
 10
-9.2070161029
 20
4.8428616311
 10
-9.2935955104
 20
4.7440316733
 10
-9.3492306518
 20
4.6427581328
 10
-9.3733317808
 20
4.5401145345
 10
-9.3656434195
 20
4.437188926
 10
-9.3262470663
 20
4.3350723443
 10
-9.2555603325
 20
4.2348472507
 10
-9.1543325149
 20
4.137576056
 10
-9.0236366536
 20
4.0442898591
 10
-8.8648581573
 20
3.955977517
 10
-8.6796801176
 20
3.8735751623
 10
-8.4700654676
 20
3.7979562806
 10
-8.2382361749
 20
3.7299224508
 10
-7.9866496877
 20
3.6701948484
 10
-7.7179728852
 20
3.619406601
 10
-7.4350538084
 20
3.5780960764
  0
LWPOLYLINE
  5
27A
330
257
100
AcDbEntity
  8
0
  6
HIDDEN
 62
     7
370
     0
100
AcDbPolyline
 90
       45
 70
   128
 43
0.0
 10
18.6004650405
 20
1.0362808785
 10
18.5857072281
 20
1.2461125484
 10
18.5417342174
 20
1.4553912697
 10
18.469441172
 20
1.6598567312
 10
18.37029977
 20
1.8553466059
 10
18.2463282444
 20
2.0378812835
 10
18.1000502978
 20
2.2037448844
 10
17.9344437275
 20
2.3495609041
 10
17.7528798057
 20
2.4723609488
 10
17.5590546503
 20
2.5696451638
 10
17.3569139823
 20
2.639433123
 10
17.1505728031
 20
2.6803041447
 10
16.9442316238
 20
2.691426213
 10
16.7420909559
 20
2.6725729145
 10
16.5482658004
 20
2.624128048
 10
16.3667018786
 20
2.5470778112
 10
16.2010953083
 20
2.4429907249
 10
16.0548173618
 20
2.313985702
 10
15.9308458361
 20
2.1626889126
 10
15.8317044341
 20
1.9921803231
 10
15.7594113888
 20
1.8059309967
 10
15.715438378
 20
1.6077324326
 10
15.7006805656
 20
1.401619382
 10
15.715438378
 20
1.1917877121
 10
15.7594113888
 20
0.9825089908
 10
15.8317044341
 20
0.7780435293
 10
15.9308458361
 20
0.5825536546
 10
16.0548173618
 20
0.400018977
 10
16.2010953083
 20
0.2341553761
 10
16.3667018786
 20
0.0883393564
 10
16.5482658004
 20
-0.0344606883
 10
16.7420909559
 20
-0.1317449033
 10
16.9442316238
 20
-0.2015328625
 10
17.1505728031
 20
-0.2424038842
 10
17.3569139823
 20
-0.2535259525
 10
17.5590546503
 20
-0.234672654
 10
17.7528798057
 20
-0.1862277875
 10
17.9344437275
 20
-0.1091775507
 10
18.1000502978
 20
-0.0050904644
 10
18.2463282444
 20
0.1239145585
 10
18.37029977
 20
0.2752113479
 10
18.469441172
 20
0.4457199374
 10
18.5417342174
 20
0.6319692638
 10
18.5857072281
 20
0.8301678279
 10
18.6004650405
 20
1.0362808785
  0
LWPOLYLINE
  5
27B
330
257
100
AcDbEntity
  8
0
  6
HIDDEN
 62
     7
370
     0
100
AcDbPolyline
 90
       62
 70
   128
 43
0.0
 10
3.7899183523
 20
-6.7928033806
 10
4.0840806907
 20
-6.8241982803
 10
4.3863680968
 20
-6.8453447616
 10
4.693576249
 20
-6.8560186663
 10
5.0024486643
 20
-6.8561068485
 10
5.3097112184
 20
-6.8456083735
 10
5.6121068517
 20
-6.8246345275
 10
5.9064300952
 20
-6.7934076388
 10
6.1895610495
 20
-6.75225872
 10
6.4584984558
 20
-6.7016239598
 10
6.7103915109
 20
-6.6420400995
 10
6.9425700857
 20
-6.5741387427
 10
7.1525730294
 20
-6.4986396606
 10
7.3381742588
 20
-6.4163431624
 10
7.4974063545
 20
-6.3281216114
 10
7.6285814167
 20
-6.2349101779
 10
7.7303089572
 20
-6.1376969264
 10
7.8015106387
 20
-6.0375123415
 10
7.8414317057
 20
-5.9354184047
 10
7.8496489849
 20
-5.8324973373
 10
7.8260753712
 20
-5.7298401279
 10
7.7709607506
 20
-5.6285349687
 10
7.684889352
 20
-5.5296557196
 10
7.5687735534
 20
-5.4342505251
 10
7.4238442114
 20
-5.3433307041
 10
7.2516376129
 20
-5.2578600292
 10
7.0539791907
 20
-5.1787445109
 10
6.8329641734
 20
-5.1068227935
 10
6.590935375
 20
-5.0428572648
 10
6.330458361
 20
-4.9875259756
 10
6.0542942526
 20
-4.9414154512
 10
5.765370458
 20
-4.9050144746
 10
5.4667496413
 20
-4.8787089053
 10
5.1615972575
 20
-4.8627775888
 10
4.8531479978
 20
-4.8573894011
 10
4.544671501
 20
-4.8626014582
 10
4.2394376947
 20
-4.8783585112
 10
3.9406821333
 20
-4.9044935312
 10
3.6515717
 20
-4.9407294806
 10
3.3751710372
 20
-4.9866822493
 10
3.1144100609
 20
-5.0418647265
 10
2.8720529022
 20
-5.1056919643
 10
2.6506686072
 20
-5.177487378
 10
2.4526039047
 20
-5.2564899184
 10
2.2799583296
 20
-5.341862139
 10
2.1345619682
 20
-5.4326990728
 10
2.0179560578
 20
-5.5280378259
 10
1.9313766503
 20
-5.6268677837
 10
1.8757415089
 20
-5.7281413242
 10
1.8516403798
 20
-5.8307849225
 10
1.8593287412
 20
-5.933710531
 10
1.8987250944
 20
-6.0358271127
 10
1.9694118282
 20
-6.1360522063
 10
2.0706396458
 20
-6.233323401
 10
2.2013355071
 20
-6.3266095979
 10
2.3601140033
 20
-6.41492194
 10
2.5452920431
 20
-6.4973242947
 10
2.7549066931
 20
-6.5729431764
 10
2.9867359857
 20
-6.6409770062
 10
3.238322473
 20
-6.7007046086
 10
3.5069992755
 20
-6.751492856
 10
3.7899183523
 20
-6.7928033806
  0
LWPOLYLINE
  5
27C
330
257
100
AcDbEntity
  8
0
  6
HIDDEN
 62
     7
370
     0
100
AcDbPolyline
 90
       62
 70
   128
 43
0.0
 10
-7.4350538084
 20
-5.3785898189
 10
-7.14089147
 20
-5.4099847186
 10
-6.8386040638
 20
-5.4311311999
 10
-6.5313959117
 20
-5.4418051046
 10
-6.2225234963
 20
-5.4418932868
 10
-5.9152609423
 20
-5.4313948117
 10
-5.612865309
 20
-5.4104209658
 10
-5.3185420655
 20
-5.3791940771
 10
-5.0354111112
 20
-5.3380451583
 10
-4.7664737049
 20
-5.2874103981
 10
-4.5145806498
 20
-5.2278265378
 10
-4.282402075
 20
-5.159925181
 10
-4.0723991313
 20
-5.0844260989
 10
-3.8867979019
 20
-5.0021296007
 10
-3.7275658062
 20
-4.9139080496
 10
-3.596390744
 20
-4.8206966162
 10
-3.4946632035
 20
-4.7234833647
 10
-3.423461522
 20
-4.6232987798
 10
-3.383540455
 20
-4.521204843
 10
-3.3753231758
 20
-4.4182837755
 10
-3.3988967895
 20
-4.3156265662
 10
-3.4540114101
 20
-4.214321407
 10
-3.5400828087
 20
-4.1154421579
 10
-3.6561986073
 20
-4.0200369634
 10
-3.8011279493
 20
-3.9291171423
 10
-3.9733345478
 20
-3.8436464675
 10
-4.17099297
 20
-3.7645309492
 10
-4.3920079873
 20
-3.6926092317
 10
-4.6340367857
 20
-3.6286437031
 10
-4.8945137997
 20
-3.5733124139
 10
-5.1706779081
 20
-3.5272018895
 10
-5.4596017027
 20
-3.4908009129
 10
-5.7582225194
 20
-3.4644953436
 10
-6.0633749032
 20
-3.4485640271
 10
-6.3718241629
 20
-3.4431758394
 10
-6.6803006597
 20
-3.4483878965
 10
-6.985534466
 20
-3.4641449495
 10
-7.2842900274
 20
-3.4902799695
 10
-7.5734004607
 20
-3.5265159189
 10
-7.8498011235
 20
-3.5724686876
 10
-8.1105620998
 20
-3.6276511648
 10
-8.3529192585
 20
-3.6914784026
 10
-8.5743035535
 20
-3.7632738163
 10
-8.772368256
 20
-3.8422763567
 10
-8.945013831
 20
-3.9276485772
 10
-9.0904101925
 20
-4.0184855111
 10
-9.2070161029
 20
-4.1138242642
 10
-9.2935955104
 20
-4.212654222
 10
-9.3492306518
 20
-4.3139277625
 10
-9.3733317808
 20
-4.4165713608
 10
-9.3656434195
 20
-4.5194969693
 10
-9.3262470663
 20
-4.621613551
 10
-9.2555603325
 20
-4.7218386446
 10
-9.1543325149
 20
-4.8191098393
 10
-9.0236366536
 20
-4.9123960362
 10
-8.8648581573
 20
-5.0007083783
 10
-8.6796801176
 20
-5.083110733
 10
-8.4700654676
 20
-5.1587296147
 10
-8.2382361749
 20
-5.2267634445
 10
-7.9866496877
 20
-5.2864910469
 10
-7.7179728852
 20
-5.3372792943
 10
-7.4350538084
 20
-5.3785898189
  0
LWPOLYLINE
  5
27D
330
257
100
AcDbEntity
  8
0
  6
HIDDEN
 62
     7
370
     0
100
AcDbPolyline
 90
       45
 70
   128
 43
0.0
 10
-10.397379708
 20
4.689665913
 10
-10.4121375204
 20
4.8994975828
 10
-10.4561105311
 20
5.1087763041
 10
-10.5284035764
 20
5.3132417657
 10
-10.6275449784
 20
5.5087316403
 10
-10.7515165041
 20
5.6912663179
 10
-10.8977944506
 20
5.8571299189
 10
-11.0634010209
 20
6.0029459385
 10
-11.2449649427
 20
6.1257459832
 10
-11.4387900982
 20
6.2230301982
 10
-11.6409307661
 20
6.2928181574
 10
-11.8472719454
 20
6.3336891792
 10
-12.0536131247
 20
6.3448112474
 10
-12.2557537926
 20
6.3259579489
 10
-12.449578948
 20
6.2775130824
 10
-12.6311428698
 20
6.2004628457
 10
-12.7967494401
 20
6.0963757594
 10
-12.9430273867
 20
5.9673707364
 10
-13.0669989123
 20
5.816073947
 10
-13.1661403144
 20
5.6455653575
 10
-13.2384333597
 20
5.4593160311
 10
-13.2824063704
 20
5.261117467
 10
-13.2971641828
 20
5.0550044164
 10
-13.2824063704
 20
4.8451727466
 10
-13.2384333597
 20
4.6358940252
 10
-13.1661403144
 20
4.4314285637
 10
-13.0669989123
 20
4.235938689
 10
-12.9430273867
 20
4.0534040114
 10
-12.7967494401
 20
3.8875404105
 10
-12.6311428698
 20
3.7417243908
 10
-12.449578948
 20
3.6189243461
 10
-12.2557537926
 20
3.5216401311
 10
-12.0536131247
 20
3.451852172
 10
-11.8472719454
 20
3.4109811502
 10
-11.6409307661
 20
3.3998590819
 10
-11.4387900982
 20
3.4187123805
 10
-11.2449649427
 20
3.467157247
 10
-11.0634010209
 20
3.5442074837
 10
-10.8977944506
 20
3.64829457
 10
-10.7515165041
 20
3.777299593
 10
-10.6275449784
 20
3.9285963823
 10
-10.5284035764
 20
4.0991049718
 10
-10.4561105311
 20
4.2853542982
 10
-10.4121375204
 20
4.4835528623
 10
-10.397379708
 20
4.689665913
  0
LINE
  5
28B
330
257
100
AcDbEntity
  8
0
  6
Continuous
 62
     7
370
    15
100
AcDbLine
 10
16.7011203743
 20
-0.1202386954
 30
0.0
 11
17.1688275476
 21
-0.6505687813
 31
0.0
  0
LINE
  5
28C
330
257
100
AcDbEntity
  8
0
  6
Continuous
 62
     7
370
    15
100
AcDbLine
 10
16.524343679
 20
-0.7475456073
 30
0.0
 11
17.1688275476
 21
-0.6505687813
 31
0.0
  0
LINE
  5
28D
330
257
100
AcDbEntity
  8
0
  6
Continuous
 62
     7
370
    15
100
AcDbLine
 10
16.7011203743
 20
-0.1202386954
 30
0.0
 11
16.524343679
 21
-0.7475456073
 31
0.0
  0
LINE
  5
28E
330
257
100
AcDbEntity
  8
0
  6
Continuous
 62
     7
370
    15
100
AcDbLine
 10
16.524343679
 20
-8.761422461
 30
0.0
 11
16.524343679
 21
-0.7475456073
 31
0.0
  0
LINE
  5
28F
330
257
100
AcDbEntity
  8
0
  6
Continuous
 62
     7
370
    15
100
AcDbLine
 10
17.1688275476
 20
-0.6505687813
 30
0.0
 11
17.1688275476
 21
-8.664445635
 31
0.0
  0
LINE
  5
290
330
257
100
AcDbEntity
  8
0
  6
Continuous
 62
     7
370
    15
100
AcDbLine
 10
16.524343679
 20
-8.761422461
 30
0.0
 11
17.1688275476
 21
-8.664445635
 31
0.0
  0
LINE
  5
291
330
257
100
AcDbEntity
  8
0
  6
Continuous
 62
     7
370
    15
100
AcDbLine
 10
-21.6508678414
 20
4.7116576404
 30
0.0
 11
16.7011203743
 21
-0.1202386954
 31
0.0
  0
LINE
  5
292
330
257
100
AcDbEntity
  8
0
  6
Continuous
 62
     7
370
    15
100
AcDbLine
 10
16.524343679
 20
-0.7475456073
 30
0.0
 11
-21.8276445367
 21
4.0843507285
 31
0.0
  0
LINE
  5
293
330
257
100
AcDbEntity
  8
0
  6
Continuous
 62
     7
370
    15
100
AcDbLine
 10
-21.6508678414
 20
4.7116576404
 30
0.0
 11
-21.8276445367
 21
4.0843507285
 31
0.0
  0
LINE
  5
294
330
257
100
AcDbEntity
  8
0
  6
Continuous
 62
     7
370
    15
100
AcDbLine
 10
-21.8276445367
 20
4.0843507285
 30
0.0
 11
-21.8276445367
 21
-3.9295261252
 31
0.0
  0
LINE
  5
295
330
257
100
AcDbEntity
  8
0
  6
Continuous
 62
     7
370
    15
100
AcDbLine
 10
-21.8276445367
 20
-3.9295261252
 30
0.0
 11
16.524343679
 21
-8.761422461
 31
0.0
  0
LINE
  5
296
330
257
100
AcDbEntity
  8
0
  6
Continuous
 62
     7
370
    15
100
AcDbLine
 10
16.7011203743
 20
-0.1202386954
 30
0.0
 11
21.8276445367
 21
4.400930646
 31
0.0
  0
LINE
  5
297
330
257
100
AcDbEntity
  8
0
  6
Continuous
 62
     7
370
    15
100
AcDbLine
 10
21.8276445367
 20
4.400930646
 30
0.0
 11
22.29535171
 21
3.8706005601
 31
0.0
  0
LINE
  5
298
330
257
100
AcDbEntity
  8
0
  6
Continuous
 62
     7
370
    15
100
AcDbLine
 10
22.29535171
 20
3.8706005601
 30
0.0
 11
17.1688275476
 21
-0.6505687813
 31
0.0
  0
LINE
  5
299
330
257
100
AcDbEntity
  8
0
  6
Continuous
 62
     7
370
    15
100
AcDbLine
 10
16.7011203743
 20
-9.0769245907
 30
0.0
 11
22.29535171
 21
-4.1432762936
 31
0.0
  0
LINE
  5
29A
330
257
100
AcDbEntity
  8
0
  6
Continuous
 62
     7
370
    15
100
AcDbLine
 10
22.29535171
 20
-4.1432762936
 30
0.0
 11
22.29535171
 21
3.8706005601
 31
0.0
  0
LINE
  5
29B
330
257
100
AcDbEntity
  8
0
  6
Continuous
 62
     7
370
    15
100
AcDbLine
 10
-16.524343679
 20
9.2328269818
 30
0.0
 11
-22.1185750148
 21
4.2991786847
 31
0.0
  0
LINE
  5
29C
330
257
100
AcDbEntity
  8
0
  6
Continuous
 62
     7
370
    15
100
AcDbLine
 10
21.8276445367
 20
4.400930646
 30
0.0
 11
-16.524343679
 21
9.2328269818
 31
0.0
  0
LINE
  5
29D
330
257
100
AcDbEntity
  8
0
  6
Continuous
 62
     7
370
    15
100
AcDbLine
 10
16.524343679
 20
-8.761422461
 30
0.0
 11
16.7011203743
 21
-9.0769245907
 31
0.0
  0
LINE
  5
29E
330
257
100
AcDbEntity
  8
0
  6
Continuous
 62
     7
370
    15
100
AcDbLine
 10
16.7011203743
 20
-9.0769245907
 30
0.0
 11
-21.6508678414
 21
-4.2450282549
 31
0.0
  0
LINE
  5
29F
330
257
100
AcDbEntity
  8
0
  6
Continuous
 62
     7
370
    15
100
AcDbLine
 10
-21.8276445367
 20
-3.9295261252
 30
0.0
 11
-21.6508678414
 21
-4.2450282549
 31
0.0
  0
LINE
  5
2A0
330
257
100
AcDbEntity
  8
0
  6
Continuous
 62
     7
370
    15
100
AcDbLine
 10
-22.1185750148
 20
4.2991786847
 30
0.0
 11
-21.8276445367
 21
4.0843507285
 31
0.0
  0
LINE
  5
2A1
330
257
100
AcDbEntity
  8
0
  6
Continuous
 62
     7
370
    15
100
AcDbLine
 10
-22.1185750148
 20
-3.714698169
 30
0.0
 11
-22.1185750148
 21
4.2991786847
 31
0.0
  0
LINE
  5
2A2
330
257
100
AcDbEntity
  8
0
  6
Continuous
 62
     7
370
    15
100
AcDbLine
 10
-22.1185750148
 20
-3.714698169
 30
0.0
 11
-21.8276445367
 21
-3.9295261252
 31
0.0
  0
LINE
  5
2A3
330
257
100
AcDbEntity
  8
0
  6
Continuous
 62
     7
370
    15
100
AcDbLine
 10
-22.1185750148
 20
-3.714698169
 30
0.0
 11
-21.6508678414
 21
-4.2450282549
 31
0.0
  0
LINE
  5
2A4
330
257
100
AcDbEntity
  8
0
  6
HIDDEN
 62
     7
370
     0
100
AcDbLine
 10
-16.524343679
 20
0.2761410865
 30
0.0
 11
21.8276445367
 21
-4.5557552493
 31
0.0
  0
LINE
  5
2A5
330
257
100
AcDbEntity
  8
0
  6
HIDDEN
 62
     7
370
     0
100
AcDbLine
 10
-16.9920508524
 20
8.8203480261
 30
0.0
 11
-16.9920508524
 21
0.8064711724
 31
0.0
  0
LINE
  5
2A6
330
257
100
AcDbEntity
  8
0
  6
HIDDEN
 62
     7
370
     0
100
AcDbLine
 10
-16.9920508524
 20
0.8064711724
 30
0.0
 11
-22.1185750148
 21
-3.714698169
 31
0.0
  0
LINE
  5
2A7
330
257
100
AcDbEntity
  8
0
  6
HIDDEN
 62
     7
370
     0
100
AcDbLine
 10
-16.524343679
 20
0.2761410865
 30
0.0
 11
-16.9920508524
 21
0.8064711724
 31
0.0
  0
LINE
  5
2A8
330
257
100
AcDbEntity
  8
0
  6
HIDDEN
 62
     7
370
     0
100
AcDbLine
 10
-21.6508678414
 20
-4.2450282549
 30
0.0
 11
-16.524343679
 21
0.2761410865
 31
0.0
  0
LINE
  5
2A9
330
257
100
AcDbEntity
  8
0
  6
HIDDEN
 62
     7
370
     0
100
AcDbLine
 10
12.8725005784
 20
-4.6206216022
 30
0.0
 11
18.1758014361
 21
0.0564501303
 31
0.0
  0
LINE
  5
2AA
330
257
100
AcDbEntity
  8
0
  6
HIDDEN
 62
     7
370
     0
100
AcDbLine
 10
16.12534417
 20
2.3814501302
 30
0.0
 11
10.8220433123
 21
-2.2956216023
 31
0.0
  0
LINE
  5
2AB
330
257
100
AcDbEntity
  8
0
  6
HIDDEN
 62
     7
370
     0
100
AcDbLine
 10
1.8505785238
 20
3.0992968612
 30
0.0
 11
1.8505785238
 21
-5.8573890341
 31
0.0
  0
LINE
  5
2AC
330
257
100
AcDbEntity
  8
0
  6
HIDDEN
 62
     7
370
     0
100
AcDbLine
 10
7.8505785238
 20
-5.8573890341
 30
0.0
 11
7.8505785238
 21
3.0992968612
 31
0.0
  0
LINE
  5
2AD
330
257
100
AcDbEntity
  8
0
  6
HIDDEN
 62
     7
370
     0
100
AcDbLine
 10
-9.3743936369
 20
4.5135104229
 30
0.0
 11
-9.3743936369
 21
-4.4431754724
 31
0.0
  0
LINE
  5
2AE
330
257
100
AcDbEntity
  8
0
  6
HIDDEN
 62
     7
370
     0
100
AcDbLine
 10
-3.3743936369
 20
-4.4431754724
 30
0.0
 11
-3.3743936369
 21
4.5135104229
 31
0.0
  0
LINE
  5
2AF
330
257
100
AcDbEntity
  8
0
  6
HIDDEN
 62
     7
370
     0
100
AcDbLine
 10
-16.12534417
 20
-0.9672365678
 30
0.0
 11
-10.8220433123
 21
3.7098351647
 31
0.0
  0
LINE
  5
2B0
330
257
100
AcDbEntity
  8
0
  6
HIDDEN
 62
     7
370
     0
100
AcDbLine
 10
-12.8725005784
 20
6.0348351647
 30
0.0
 11
-18.1758014361
 21
1.3577634322
 31
0.0
  0
VIEWPORT
  5
2DB
330
257
100
AcDbEntity
  8
0
100
AcDbViewport
 10
0.0
 20
0.0
 30
0.0
 40
243.84
 41
204.216
 68
     1
 69
     1
 12
-0.1622217027
 22
0.1382355589
 13
0.0
 23
0.0
 14
10.0
 24
10.0
 15
10.0
 25
10.0
 16
0.0
 26
0.0
 36
1.0
 17
0.0
 27
0.0
 37
0.0
 42
50.0
 43
0.0
 44
0.0
 45
38.0561576543
 50
0.0
 51
0.0
 72
   100
 90
   557152
  1

281
     0
 71
     1
 74
     0
110
0.0
120
0.0
130
0.0
111
1.0
121
0.0
131
0.0
112
0.0
122
1.0
132
0.0
 79
     0
146
0.0
  0
ENDBLK
  5
25A
330
257
100
AcDbEntity
  8
0
100
AcDbBlockEnd
  0
ENDSEC
  0
SECTION
  2
ENTITIES
  0
LWPOLYLINE
  5
4F
330
1F
100
AcDbEntity
  8
0
  6
Continuous
 62
     7
370
    15
100
AcDbPolyline
 90
       62
 70
   128
 43
0.0
 10
8.4095487145
 20
1.6387274273
 10
8.631172581
 20
1.8206889725
 10
8.8298120944
 20
2.0235203385
 10
9.0033616267
 20
2.2450714621
 10
9.1499815095
 20
2.4829938464
 10
9.2681175356
 20
2.734765455
 10
9.3565174338
 20
2.9977174462
 10
9.4142441431
 20
3.2690624633
 10
9.4406857461
 20
3.5459241818
 10
9.4355619552
 20
3.8253677986
 10
9.3989270839
 20
4.1044311417
 10
9.3311694708
 20
4.3801560704
 10
9.2330073637
 20
4.6496198318
 10
9.1054813051
 20
4.909966043
 10
8.9499431031
 20
5.1584349694
 10
8.7680415013
 20
5.3923927786
 10
8.5617047019
 20
5.6093594595
 10
8.3331199263
 20
5.8070351114
 10
8.0847102301
 20
5.9833243232
 10
7.8191088177
 20
6.1363583855
 10
7.5391311303
 20
6.2645150989
 10
7.247745001
 20
6.3664359707
 10
6.9480391952
 20
6.441040614
 10
6.643190669
 20
6.4875382012
 10
6.3364308927
 20
6.5054358463
 10
6.0310115962
 20
6.4945438297
 10
5.7301703
 20
6.4549776096
 10
5.4370959966
 20
6.3871565977
 10
5.1548953467
 20
6.2917997137
 10
4.8865597473
 20
6.1699177642
 10
4.6349336226
 20
6.0228027282
 10
4.4026842719
 20
5.8520140616
 10
4.1922735963
 20
5.6593621669
 10
4.0059320013
 20
5.4468892021
 10
3.845634754
 20
5.2168474334
 10
3.7130810452
 20
4.9716753608
 10
3.6096759772
 20
4.7139718693
 10
3.5365156695
 20
4.44646868
 10
3.4943756394
 20
4.1720013932
 10
3.4837025819
 20
3.8934794305
 10
3.5046096339
 20
3.6138551939
 10
3.5568751755
 20
3.33609277
 10
3.6399451789
 20
3.0631365095
 10
3.7529390816
 20
2.7978798166
 10
3.8946591199
 20
2.5431344784
 10
4.0636030263
 20
2.3016008588
 10
4.2579799532
 20
2.0758392742
 10
4.4757294569
 20
1.8682428536
 10
4.7145433386
 20
1.6810121706
 10
4.9718901116
 20
1.5161319172
 10
5.2450418361
 20
1.375349865
 10
5.5311030359
 20
1.2601583388
 10
5.8270413911
 20
1.1717783974
 10
6.1297198816
 20
1.1111468902
 10
6.43593004
 20
1.0789065262
 10
6.7424259624
 20
1.0753990614
 10
7.0459587159
 20
1.1006616757
 10
7.3433107778
 20
1.1544265791
 10
7.6313301422
 20
1.2361238503
 10
7.9069637322
 20
1.3448874779
 10
8.1672897632
 20
1.4795645403
 10
8.4095487145
 20
1.6387274273
  0
LWPOLYLINE
  5
50
330
1F
100
AcDbEntity
  8
0
  6
Continuous
 62
     7
370
    15
100
AcDbPolyline
 90
       62
 70
   128
 43
0.0
 10
-0.6135658372
 20
-4.9965794013
 10
-0.3919419708
 20
-4.814617856
 10
-0.1933024573
 20
-4.6117864901
 10
-0.019752925
 20
-4.3902353664
 10
0.1268669578
 20
-4.1523129821
 10
0.2450029839
 20
-3.9005413735
 10
0.3334028821
 20
-3.6375893824
 10
0.3911295914
 20
-3.3662443652
 10
0.4175711944
 20
-3.0893826467
 10
0.4124474035
 20
-2.80993903
 10
0.3758125322
 20
-2.5308756868
 10
0.3080549191
 20
-2.2551507581
 10
0.2098928119
 20
-1.9856869967
 10
0.0823667534
 20
-1.7253407855
 10
-0.0731714486
 20
-1.4768718591
 10
-0.2550730505
 20
-1.24291405
 10
-0.4614098499
 20
-1.025947369
 10
-0.6899946254
 20
-0.8282717171
 10
-0.9384043217
 20
-0.6519825053
 10
-1.204005734
 20
-0.4989484431
 10
-1.4839834214
 20
-0.3707917296
 10
-1.7753695508
 20
-0.2688708579
 10
-2.0750753566
 20
-0.1942662145
 10
-2.3799238827
 20
-0.1477686273
 10
-2.686683659
 20
-0.1298709822
 10
-2.9921029556
 20
-0.1407629988
 10
-3.2929442518
 20
-0.1803292189
 10
-3.5860185551
 20
-0.2481502308
 10
-3.868219205
 20
-0.3435071148
 10
-4.1365548044
 20
-0.4653890644
 10
-4.3881809292
 20
-0.6125041004
 10
-4.6204302798
 20
-0.7832927669
 10
-4.8308409554
 20
-0.9759446616
 10
-5.0171825505
 20
-1.1884176264
 10
-5.1774797977
 20
-1.4184593951
 10
-5.3100335065
 20
-1.6636314677
 10
-5.4134385745
 20
-1.9213349592
 10
-5.4865988822
 20
-2.1888381486
 10
-5.5287389123
 20
-2.4633054353
 10
-5.5394119699
 20
-2.7418273981
 10
-5.5185049179
 20
-3.0214516346
 10
-5.4662393763
 20
-3.2992140586
 10
-5.3831693728
 20
-3.5721703191
 10
-5.2701754701
 20
-3.8374270119
 10
-5.1284554318
 20
-4.0921723501
 10
-4.9595115255
 20
-4.3337059698
 10
-4.7651345985
 20
-4.5594675544
 10
-4.5473850948
 20
-4.767063975
 10
-4.3085712131
 20
-4.9542946579
 10
-4.0512244402
 20
-5.1191749113
 10
-3.7780727156
 20
-5.2599569635
 10
-3.4920115158
 20
-5.3751484897
 10
-3.1960731606
 20
-5.4635284311
 10
-2.8933946702
 20
-5.5241599383
 10
-2.5871845118
 20
-5.5564003023
 10
-2.2806885893
 20
-5.5599077671
 10
-1.9771558358
 20
-5.5346451529
 10
-1.6798037739
 20
-5.4808802494
 10
-1.3917844095
 20
-5.3991829782
 10
-1.1161508195
 20
-5.2904193507
 10
-0.8558247885
 20
-5.1557422882
 10
-0.6135658372
 20
-4.9965794013
  0
LWPOLYLINE
  5
56
330
1F
100
AcDbEntity
  8
0
  6
Continuous
 62
     7
370
    15
100
AcDbPolyline
 90
       45
 70
   128
 43
0.0
 10
-5.5354069659
 20
-12.7720167592
 10
-5.5215897741
 20
-12.6870807074
 10
-5.5317797869
 20
-12.6213209882
 10
-5.565769565
 20
-12.5760762798
 10
-5.6228671747
 20
-12.552267634
 10
-5.7019102731
 20
-12.5503797263
 10
-5.8012897708
 20
-12.5704509889
 10
-5.9189825877
 20
-12.6120728288
 10
-6.0525928376
 20
-12.6743979455
 10
-6.199400601
 20
-12.7561575791
 10
-6.3564172952
 20
-12.8556873395
 10
-6.5204465132
 20
-12.9709610877
 10
-6.688149093
 20
-13.0996321826
 10
-6.8561110938
 20
-13.2390812517
 10
-7.0209132935
 20
-13.3864695142
 10
-7.1792007948
 20
-13.53879657
 10
-7.3277513204
 20
-13.6929614796
 10
-7.4635408101
 20
-13.84582589
 10
-7.5838049814
 20
-13.9942779227
 10
-7.6860956027
 20
-14.1352955223
 10
-7.7683303318
 20
-14.2660079771
 10
-7.8288351068
 20
-14.3837543586
 10
-7.8663782251
 20
-14.4861376899
 10
-7.8801954169
 20
-14.5710737418
 10
-7.8700054041
 20
-14.636833461
 10
-7.8360156259
 20
-14.6820781694
 10
-7.7789180163
 20
-14.7058868151
 10
-7.6998749179
 20
-14.7077747229
 10
-7.6004954202
 20
-14.6877034603
 10
-7.4828026032
 20
-14.6460816203
 10
-7.3491923534
 20
-14.5837565037
 10
-7.20238459
 20
-14.50199687
 10
-7.0453678957
 20
-14.4024671096
 10
-6.8813386778
 20
-14.2871933615
 10
-6.713636098
 20
-14.1585222666
 10
-6.5456740972
 20
-14.0190731975
 10
-6.3808718974
 20
-13.871684935
 10
-6.2225843962
 20
-13.7193578791
 10
-6.0740338706
 20
-13.5651929695
 10
-5.9382443809
 20
-13.4123285591
 10
-5.8179802096
 20
-13.2638765265
 10
-5.7156895883
 20
-13.1228589269
 10
-5.6334548592
 20
-12.992146472
 10
-5.5729500841
 20
-12.8744000906
 10
-5.5354069659
 20
-12.7720167592
  0
LWPOLYLINE
  5
57
330
1F
100
AcDbEntity
  8
0
  6
Continuous
 62
     7
370
    15
100
AcDbPolyline
 90
       45
 70
   128
 43
0.0
 10
17.7743056261
 20
4.3691925478
 10
17.7881228179
 20
4.4541285997
 10
17.7779328051
 20
4.5198883189
 10
17.7439430269
 20
4.5651330273
 10
17.6868454173
 20
4.588941673
 10
17.6078023189
 20
4.5908295808
 10
17.5084228212
 20
4.5707583182
 10
17.3907300042
 20
4.5291364782
 10
17.2571197544
 20
4.4668113616
 10
17.110311991
 20
4.3850517279
 10
16.9532952967
 20
4.2855219675
 10
16.7892660788
 20
4.1702482194
 10
16.621563499
 20
4.0415771245
 10
16.4536014982
 20
3.9021280554
 10
16.2887992984
 20
3.7547397929
 10
16.1305117972
 20
3.602412737
 10
15.9819612716
 20
3.4482478274
 10
15.8461717819
 20
3.295383417
 10
15.7259076106
 20
3.1469313844
 10
15.6236169893
 20
3.0059137848
 10
15.5413822602
 20
2.87520133
 10
15.4808774851
 20
2.7574549485
 10
15.4433343669
 20
2.6550716171
 10
15.4295171751
 20
2.5701355653
 10
15.4397071879
 20
2.5043758461
 10
15.473696966
 20
2.4591311377
 10
15.5307945757
 20
2.4353224919
 10
15.6098376741
 20
2.4334345842
 10
15.7092171718
 20
2.4535058468
 10
15.8269099887
 20
2.4951276867
 10
15.9605202386
 20
2.5574528034
 10
16.107328002
 20
2.639212437
 10
16.2643446962
 20
2.7387421974
 10
16.4283739142
 20
2.8540159456
 10
16.596076494
 20
2.9826870405
 10
16.7640384948
 20
3.1221361096
 10
16.9288406945
 20
3.2695243721
 10
17.0871281958
 20
3.4218514279
 10
17.2356787214
 20
3.5760163375
 10
17.3714682111
 20
3.7288807479
 10
17.4917323824
 20
3.8773327806
 10
17.5940230037
 20
4.0183503802
 10
17.6762577328
 20
4.149062835
 10
17.7367625078
 20
4.2668092165
 10
17.7743056261
 20
4.3691925478
  0
LWPOLYLINE
  5
60
330
1F
100
AcDbEntity
  8
0
  6
HIDDEN
 62
     7
370
     0
100
AcDbPolyline
 90
       45
 70
   128
 43
0.0
 10
-15.2687091259
 20
-2.018185033
 10
-15.2548919341
 20
-1.9332489812
 10
-15.2650819469
 20
-1.867489262
 10
-15.2990717251
 20
-1.8222445536
 10
-15.3561693347
 20
-1.7984359079
 10
-15.4352124332
 20
-1.7965480001
 10
-15.5345919308
 20
-1.8166192627
 10
-15.6522847478
 20
-1.8582411026
 10
-15.7858949977
 20
-1.9205662193
 10
-15.9327027611
 20
-2.002325853
 10
-16.0897194553
 20
-2.1018556134
 10
-16.2537486732
 20
-2.2171293615
 10
-16.421451253
 20
-2.3458004564
 10
-16.5894132538
 20
-2.4852495255
 10
-16.7542154536
 20
-2.632637788
 10
-16.9125029548
 20
-2.7849648438
 10
-17.0610534804
 20
-2.9391297535
 10
-17.1968429701
 20
-3.0919941639
 10
-17.3171071415
 20
-3.2404461965
 10
-17.4193977627
 20
-3.3814637961
 10
-17.5016324918
 20
-3.5121762509
 10
-17.5621372669
 20
-3.6299226324
 10
-17.5996803851
 20
-3.7323059638
 10
-17.6134975769
 20
-3.8172420156
 10
-17.6033075641
 20
-3.8830017348
 10
-17.569317786
 20
-3.9282464432
 10
-17.5122201763
 20
-3.952055089
 10
-17.4331770779
 20
-3.9539429967
 10
-17.3337975802
 20
-3.9338717341
 10
-17.2161047633
 20
-3.8922498942
 10
-17.0824945134
 20
-3.8299247775
 10
-16.93568675
 20
-3.7481651438
 10
-16.7786700558
 20
-3.6486353834
 10
-16.6146408378
 20
-3.5333616353
 10
-16.446938258
 20
-3.4046905404
 10
-16.2789762572
 20
-3.2652414713
 10
-16.1141740575
 20
-3.1178532088
 10
-15.9558865562
 20
-2.965526153
 10
-15.8073360306
 20
-2.8113612433
 10
-15.6715465409
 20
-2.6584968329
 10
-15.5512823696
 20
-2.5100448003
 10
-15.4489917484
 20
-2.3690272007
 10
-15.3667570192
 20
-2.2383147459
 10
-15.3062522442
 20
-2.1205683644
 10
-15.2687091259
 20
-2.018185033
  0
LWPOLYLINE
  5
62
330
1F
100
AcDbEntity
  8
0
  6
HIDDEN
 62
     7
370
     0
100
AcDbPolyline
 90
       36
 70
   128
 43
0.0
 10
-4.936726976
 20
-4.3626371168
 10
-4.9741790643
 20
-4.3771221473
 10
-5.2425146637
 20
-4.4990040968
 10
-5.4941407885
 20
-4.6461191329
 10
-5.7263901391
 20
-4.8169077994
 10
-5.9368008147
 20
-5.0095596941
 10
-6.1231424098
 20
-5.2220326589
 10
-6.283439657
 20
-5.4520744276
 10
-6.4159933658
 20
-5.6972465002
 10
-6.5193984338
 20
-5.9549499917
 10
-6.5925587415
 20
-6.222453181
 10
-6.6346987716
 20
-6.4969204678
 10
-6.6453718292
 20
-6.7754424305
 10
-6.6244647772
 20
-7.0550666671
 10
-6.5721992356
 20
-7.332829091
 10
-6.4891292321
 20
-7.6057853516
 10
-6.3761353294
 20
-7.8710420444
 10
-6.2344152911
 20
-8.1257873826
 10
-6.0654713848
 20
-8.3673210022
 10
-5.8710944578
 20
-8.5930825868
 10
-5.6533449541
 20
-8.8006790075
 10
-5.4145310724
 20
-8.9879096904
 10
-5.1571842995
 20
-9.1527899438
 10
-4.8840325749
 20
-9.293571996
 10
-4.5979713751
 20
-9.4087635222
 10
-4.3020330199
 20
-9.4971434636
 10
-3.9993545295
 20
-9.5577749708
 10
-3.6931443711
 20
-9.5900153348
 10
-3.3866484486
 20
-9.5935227996
 10
-3.0831156951
 20
-9.5682601853
 10
-2.7857636332
 20
-9.5144952819
 10
-2.4977442688
 20
-9.4327980107
 10
-2.2221106788
 20
-9.3240343831
 10
-1.9617846478
 20
-9.1893573207
 10
-1.7195256965
 20
-9.0301944337
 10
-1.7195256965
 20
-9.0301944337
  0
LWPOLYLINE
  5
6A
330
1F
100
AcDbEntity
  8
0
  6
HIDDEN
 62
     7
370
     0
100
AcDbPolyline
 90
       36
 70
   128
 43
0.0
 10
4.0863875758
 20
2.2726697118
 10
4.0489354874
 20
2.2581846812
 10
3.780599888
 20
2.1363027317
 10
3.5289737633
 20
1.9891876957
 10
3.2967244126
 20
1.8183990292
 10
3.086313737
 20
1.6257471345
 10
2.899972142
 20
1.4132741696
 10
2.7396748947
 20
1.1832324009
 10
2.6071211859
 20
0.9380603283
 10
2.5037161179
 20
0.6803568368
 10
2.4305558102
 20
0.4128536475
 10
2.3884157801
 20
0.1383863607
 10
2.3777427226
 20
-0.140135602
 10
2.3986497746
 20
-0.4197598386
 10
2.4509153162
 20
-0.6975222625
 10
2.5339853196
 20
-0.970478523
 10
2.6469792223
 20
-1.2357352158
 10
2.7886992606
 20
-1.4904805541
 10
2.957643167
 20
-1.7320141737
 10
3.1520200939
 20
-1.9577757583
 10
3.3697695976
 20
-2.1653721789
 10
3.6085834793
 20
-2.3526028619
 10
3.8659302523
 20
-2.5174831153
 10
4.1390819768
 20
-2.6582651675
 10
4.4251431766
 20
-2.7734566937
 10
4.7210815318
 20
-2.8618366351
 10
5.0237600223
 20
-2.9224681423
 10
5.3299701807
 20
-2.9547085063
 10
5.6364661031
 20
-2.9582159711
 10
5.9399988566
 20
-2.9329533568
 10
6.2373509185
 20
-2.8791884534
 10
6.5253702829
 20
-2.7974911822
 10
6.8010038729
 20
-2.6887275546
 10
7.0613299039
 20
-2.5540504922
 10
7.3035888552
 20
-2.3948876052
 10
7.3035888552
 20
-2.3948876052
  0
LWPOLYLINE
  5
6B
330
1F
100
AcDbEntity
  8
0
  6
HIDDEN
 62
     7
370
     0
100
AcDbPolyline
 90
       45
 70
   128
 43
0.0
 10
8.041003466
 20
15.123024274
 10
8.0548206578
 20
15.2079603258
 10
8.044630645
 20
15.2737200451
 10
8.0106408669
 20
15.3189647534
 10
7.9535432572
 20
15.3427733992
 10
7.8745001588
 20
15.344661307
 10
7.7751206611
 20
15.3245900443
 10
7.6574278442
 20
15.2829682044
 10
7.5238175943
 20
15.2206430878
 10
7.3770098309
 20
15.1388834541
 10
7.2199931367
 20
15.0393536937
 10
7.0559639187
 20
14.9240799455
 10
6.8882613389
 20
14.7954088507
 10
6.7202993381
 20
14.6559597815
 10
6.5554971383
 20
14.5085715191
 10
6.3972096371
 20
14.3562444632
 10
6.2486591115
 20
14.2020795536
 10
6.1128696218
 20
14.0492151432
 10
5.9926054505
 20
13.9007631105
 10
5.8903148292
 20
13.759745511
 10
5.8080801001
 20
13.6290330561
 10
5.7475753251
 20
13.5112866746
 10
5.7100322068
 20
13.4089033433
 10
5.696215015
 20
13.3239672915
 10
5.7064050278
 20
13.2582075722
 10
5.740394806
 20
13.2129628639
 10
5.7974924156
 20
13.1891542181
 10
5.876535514
 20
13.1872663103
 10
5.9759150117
 20
13.207337573
 10
6.0936078287
 20
13.2489594129
 10
6.2272180785
 20
13.3112845295
 10
6.3740258419
 20
13.3930441632
 10
6.5310425362
 20
13.4925739236
 10
6.6950717541
 20
13.6078476718
 10
6.8627743339
 20
13.7365187666
 10
7.0307363347
 20
13.8759678358
 10
7.1955385345
 20
14.0233560982
 10
7.3538260357
 20
14.1756831541
 10
7.5023765613
 20
14.3298480637
 10
7.638166051
 20
14.4827124741
 10
7.7584302223
 20
14.6311645068
 10
7.8607208436
 20
14.7721821063
 10
7.9429555727
 20
14.9028945612
 10
8.0034603478
 20
15.0206409427
 10
8.041003466
 20
15.123024274
  0
LINE
  5
7C
330
1F
100
AcDbEntity
  8
0
  6
Continuous
 62
     7
370
    15
100
AcDbLine
 10
-10.3192997548
 20
-14.3369631214
 30
0.0
 11
-10.0530647632
 21
-14.907719707
 31
0.0
  0
LINE
  5
7D
330
1F
100
AcDbEntity
  8
0
  6
Continuous
 62
     7
370
    15
100
AcDbLine
 10
-10.7534712748
 20
-14.8257297673
 30
0.0
 11
-10.0530647632
 21
-14.907719707
 31
0.0
  0
LINE
  5
7E
330
1F
100
AcDbEntity
  8
0
  6
Continuous
 62
     7
370
    15
100
AcDbLine
 10
-10.3192997548
 20
-14.3369631214
 30
0.0
 11
-10.7534712748
 21
-14.8257297673
 31
0.0
  0
LINE
  5
7F
330
1F
100
AcDbEntity
  8
0
  6
Continuous
 62
     7
370
    15
100
AcDbLine
 10
-19.7281585096
 20
-3.9415924528
 30
0.0
 11
-10.3192997548
 21
-14.3369631214
 31
0.0
  0
LINE
  5
80
330
1F
100
AcDbEntity
  8
0
  6
Continuous
 62
     7
370
    15
100
AcDbLine
 10
-10.7534712748
 20
-14.8257297673
 30
0.0
 11
-20.1623300295
 21
-4.4303590986
 31
0.0
  0
LINE
  5
81
330
1F
100
AcDbEntity
  8
0
  6
Continuous
 62
     7
370
    15
100
AcDbLine
 10
-20.1623300295
 20
-4.4303590986
 30
0.0
 11
-19.7281585096
 21
-3.9415924528
 31
0.0
  0
LINE
  5
82
330
1F
100
AcDbEntity
  8
0
  6
Continuous
 62
     7
370
    15
100
AcDbLine
 10
-10.3192997548
 20
-14.3369631214
 30
0.0
 11
20.5096749635
 21
8.3336685428
 31
0.0
  0
LINE
  5
83
330
1F
100
AcDbEntity
  8
0
  6
Continuous
 62
     7
370
    15
100
AcDbLine
 10
20.5096749635
 20
8.3336685428
 30
0.0
 11
20.7759099552
 21
7.7629119572
 31
0.0
  0
LINE
  5
84
330
1F
100
AcDbEntity
  8
0
  6
Continuous
 62
     7
370
    15
100
AcDbLine
 10
20.7759099552
 20
7.7629119572
 30
0.0
 11
-10.0530647632
 21
-14.907719707
 31
0.0
  0
LINE
  5
85
330
1F
100
AcDbEntity
  8
0
  6
Continuous
 62
     7
370
    15
100
AcDbLine
 10
11.1008162088
 20
18.7290392114
 30
0.0
 11
-19.7281585096
 21
-3.9415924528
 31
0.0
  0
LINE
  5
86
330
1F
100
AcDbEntity
  8
0
  6
Continuous
 62
     7
370
    15
100
AcDbLine
 10
20.5096749635
 20
8.3336685428
 30
0.0
 11
11.1008162088
 21
18.7290392114
 31
0.0
  0
LINE
  5
87
330
1F
100
AcDbEntity
  8
0
  6
Continuous
 62
     7
370
    15
100
AcDbLine
 10
-11.7430143068
 20
-18.4347537437
 30
0.0
 11
-10.7534712748
 21
-14.8257297673
 31
0.0
  0
LINE
  5
88
330
1F
100
AcDbEntity
  8
0
  6
Continuous
 62
     7
370
    15
100
AcDbLine
 10
-10.0530647632
 20
-14.907719707
 30
0.0
 11
-11.0426077952
 21
-18.5167436834
 31
0.0
  0
LINE
  5
89
330
1F
100
AcDbEntity
  8
0
  6
Continuous
 62
     7
370
    15
100
AcDbLine
 10
-11.7430143068
 20
-18.4347537437
 30
0.0
 11
-11.0426077952
 21
-18.5167436834
 31
0.0
  0
LINE
  5
8A
330
1F
100
AcDbEntity
  8
0
  6
Continuous
 62
     7
370
    15
100
AcDbLine
 10
-21.1518730615
 20
-8.0393830751
 30
0.0
 11
-11.7430143068
 21
-18.4347537437
 31
0.0
  0
LINE
  5
8B
330
1F
100
AcDbEntity
  8
0
  6
Continuous
 62
     7
370
    15
100
AcDbLine
 10
-20.1623300295
 20
-4.4303590986
 30
0.0
 11
-21.1518730615
 21
-8.0393830751
 31
0.0
  0
LINE
  5
8C
330
1F
100
AcDbEntity
  8
0
  6
Continuous
 62
     7
370
    15
100
AcDbLine
 10
19.7863669232
 20
4.1538879808
 30
0.0
 11
20.7759099552
 21
7.7629119572
 31
0.0
  0
LINE
  5
8D
330
1F
100
AcDbEntity
  8
0
  6
Continuous
 62
     7
370
    15
100
AcDbLine
 10
-11.0426077952
 20
-18.5167436834
 30
0.0
 11
19.7863669232
 21
4.1538879808
 31
0.0
  0
LINE
  5
8E
330
1F
100
AcDbEntity
  8
0
  6
Continuous
 62
     7
370
    15
100
AcDbLine
 10
20.5096749635
 20
8.3336685428
 30
0.0
 11
20.8274296562
 21
8.3978441326
 31
0.0
  0
LINE
  5
8F
330
1F
100
AcDbEntity
  8
0
  6
Continuous
 62
     7
370
    15
100
AcDbLine
 10
20.7759099552
 20
7.7629119572
 30
0.0
 11
20.8274296562
 21
8.3978441326
 31
0.0
  0
LINE
  5
90
330
1F
100
AcDbEntity
  8
0
  6
Continuous
 62
     7
370
    15
100
AcDbLine
 10
11.4185709015
 20
18.7932148012
 30
0.0
 11
20.8274296562
 21
8.3978441326
 31
0.0
  0
LINE
  5
91
330
1F
100
AcDbEntity
  8
0
  6
Continuous
 62
     7
370
    15
100
AcDbLine
 10
11.1008162088
 20
18.7290392114
 30
0.0
 11
11.4185709015
 21
18.7932148012
 31
0.0
  0
LINE
  5
92
330
1F
100
AcDbEntity
  8
0
  6
HIDDEN
 62
     7
370
     0
100
AcDbLine
 10
-11.7430143068
 20
-18.4347537437
 30
0.0
 11
-11.4252596141
 21
-18.3705781539
 31
0.0
  0
LINE
  5
93
330
1F
100
AcDbEntity
  8
0
  6
HIDDEN
 62
     7
370
     0
100
AcDbLine
 10
-20.8341183689
 20
-7.9752074852
 30
0.0
 11
-21.1518730615
 21
-8.0393830751
 31
0.0
  0
LINE
  5
94
330
1F
100
AcDbEntity
  8
0
  6
HIDDEN
 62
     7
370
     0
100
AcDbLine
 10
-11.0426077952
 20
-18.5167436834
 30
0.0
 11
-11.4252596141
 21
-18.3705781539
 31
0.0
  0
LINE
  5
95
330
1F
100
AcDbEntity
  8
0
  6
HIDDEN
 62
     7
370
     0
100
AcDbLine
 10
19.4037151042
 20
4.3000535103
 30
0.0
 11
-11.4252596141
 21
-18.3705781539
 31
0.0
  0
LINE
  5
96
330
1F
100
AcDbEntity
  8
0
  6
HIDDEN
 62
     7
370
     0
100
AcDbLine
 10
-11.4252596141
 20
-18.3705781539
 30
0.0
 11
-20.8341183689
 21
-7.9752074852
 31
0.0
  0
LINE
  5
97
330
1F
100
AcDbEntity
  8
0
  6
HIDDEN
 62
     7
370
     0
100
AcDbLine
 10
-20.8341183689
 20
-7.9752074852
 30
0.0
 11
9.9948563495
 21
14.6954241789
 31
0.0
  0
LINE
  5
98
330
1F
100
AcDbEntity
  8
0
  6
HIDDEN
 62
     7
370
     0
100
AcDbLine
 10
20.8274296562
 20
8.3978441326
 30
0.0
 11
19.8378866242
 21
4.7888201562
 31
0.0
  0
LINE
  5
99
330
1F
100
AcDbEntity
  8
0
  6
HIDDEN
 62
     7
370
     0
100
AcDbLine
 10
10.4290278695
 20
15.1841908248
 30
0.0
 11
11.4185709015
 21
18.7932148012
 31
0.0
  0
LINE
  5
9A
330
1F
100
AcDbEntity
  8
0
  6
HIDDEN
 62
     7
370
     0
100
AcDbLine
 10
19.7863669232
 20
4.1538879808
 30
0.0
 11
19.8378866242
 21
4.7888201562
 31
0.0
  0
LINE
  5
9B
330
1F
100
AcDbEntity
  8
0
  6
HIDDEN
 62
     7
370
     0
100
AcDbLine
 10
19.7863669232
 20
4.1538879808
 30
0.0
 11
19.4037151042
 21
4.3000535103
 31
0.0
  0
LINE
  5
9C
330
1F
100
AcDbEntity
  8
0
  6
HIDDEN
 62
     7
370
     0
100
AcDbLine
 10
19.4037151042
 20
4.3000535103
 30
0.0
 11
19.8378866242
 21
4.7888201562
 31
0.0
  0
LINE
  5
9D
330
1F
100
AcDbEntity
  8
0
  6
HIDDEN
 62
     7
370
     0
100
AcDbLine
 10
19.8378866242
 20
4.7888201562
 30
0.0
 11
10.4290278695
 21
15.1841908248
 31
0.0
  0
LINE
  5
9E
330
1F
100
AcDbEntity
  8
0
  6
HIDDEN
 62
     7
370
     0
100
AcDbLine
 10
9.9948563495
 20
14.6954241789
 30
0.0
 11
19.4037151042
 21
4.3000535103
 31
0.0
  0
LINE
  5
9F
330
1F
100
AcDbEntity
  8
0
  6
HIDDEN
 62
     7
370
     0
100
AcDbLine
 10
10.4290278695
 20
15.1841908248
 30
0.0
 11
9.9948563495
 21
14.6954241789
 31
0.0
  0
LINE
  5
A0
330
1F
100
AcDbEntity
  8
0
  6
HIDDEN
 62
     7
370
     0
100
AcDbLine
 10
-5.5517059381
 20
-12.5889474123
 30
0.0
 11
-15.2850080981
 21
-1.8351156861
 31
0.0
  0
LINE
  5
A1
330
1F
100
AcDbEntity
  8
0
  6
HIDDEN
 62
     7
370
     0
100
AcDbLine
 10
-17.5833814129
 20
-3.9153753107
 30
0.0
 11
-7.8500792529
 21
-14.6692070369
 31
0.0
  0
LINE
  5
A2
330
1F
100
AcDbEntity
  8
0
  6
HIDDEN
 62
     7
370
     0
100
AcDbLine
 10
-5.4534438978
 20
-2.0525339415
 30
0.0
 11
-6.5594037571
 21
-6.0861489739
 31
0.0
  0
LINE
  5
A3
330
1F
100
AcDbEntity
  8
0
  6
HIDDEN
 62
     7
370
     0
100
AcDbLine
 10
-0.7729684999
 20
-7.6727072031
 30
0.0
 11
0.3329913594
 21
-3.6390921706
 31
0.0
  0
LINE
  5
A4
330
1F
100
AcDbEntity
  8
0
  6
HIDDEN
 62
     7
370
     0
100
AcDbLine
 10
3.5696706539
 20
4.5827728871
 30
0.0
 11
2.4637107946
 21
0.5491578546
 31
0.0
  0
LINE
  5
A5
330
1F
100
AcDbEntity
  8
0
  6
HIDDEN
 62
     7
370
     0
100
AcDbLine
 10
8.2501460518
 20
-1.0374003745
 30
0.0
 11
9.3561059111
 21
2.996214658
 31
0.0
  0
LINE
  5
A6
330
1F
100
AcDbEntity
  8
0
  6
HIDDEN
 62
     7
370
     0
100
AcDbLine
 10
17.7580066539
 20
4.5522618948
 30
0.0
 11
8.0247044938
 21
15.306093621
 31
0.0
  0
LINE
  5
A7
330
1F
100
AcDbEntity
  8
0
  6
HIDDEN
 62
     7
370
     0
100
AcDbLine
 10
5.726331179
 20
13.2258339963
 30
0.0
 11
15.4596333391
 21
2.4720022702
 31
0.0
  0
ARC
  5
A8
330
1F
100
AcDbEntity
  8
0
  6
Continuous
 62
     7
370
    15
100
AcDbCircle
 10
-3.8134869366
 20
-7.4166580331
 30
0.0
 40
3.254030107911502
100
AcDbArc
 50
39.1412137154
 51
110.1930452952
  0
ARC
  5
A9
330
1F
100
AcDbEntity
  8
0
  6
Continuous
 62
     7
370
    15
100
AcDbCircle
 10
5.2096276151
 20
-0.7813512045
 30
0.0
 40
3.254030107911506
100
AcDbArc
 50
39.1412137154
 51
110.1930452952
  0
ARC
  5
AA
330
1F
100
AcDbEntity
  8
0
  6
HIDDEN
 62
     7
370
     0
100
AcDbCircle
 10
-3.2145576137
 20
-6.9959934658
 30
0.0
 40
2.52449876443929
100
AcDbArc
 50
306.3139517075
 51
40.3169477982
  0
ARC
  5
AB
330
1F
100
AcDbEntity
  8
0
  6
HIDDEN
 62
     7
370
     0
100
AcDbCircle
 10
5.808556938
 20
-0.3606866372
 30
0.0
 40
2.524498764439287
100
AcDbArc
 50
306.3139517075
 51
40.3169477982
  0
CIRCLE
  5
B5
330
1B
100
AcDbEntity
 67
     1
  8
0
  6
Continuous
 62
     7
370
    15
100
AcDbCircle
 10
15.5
 20
0.75
 30
0.0
 40
1.550000000000004
  0
CIRCLE
  5
B8
330
1B
100
AcDbEntity
 67
     1
  8
0
  6
Continuous
 62
     7
370
    15
100
AcDbCircle
 10
-15.5
 20
0.75
 30
0.0
 40
1.549999999999995
  0
LINE
  5
C6
330
1B
100
AcDbEntity
 67
     1
  8
0
  6
Continuous
 62
     7
370
    15
100
AcDbLine
 10
-20.5
 20
4.75
 30
0.0
 11
-20.5
 21
-4.75
 31
0.0
  0
LINE
  5
C7
330
1B
100
AcDbEntity
 67
     1
  8
0
  6
Continuous
 62
     7
370
    15
100
AcDbLine
 10
-21.0
 20
-4.25
 30
0.0
 11
-20.5
 21
-4.75
 31
0.0
  0
LINE
  5
C8
330
1B
100
AcDbEntity
 67
     1
  8
0
  6
Continuous
 62
     7
370
    15
100
AcDbLine
 10
-21.0
 20
-4.25
 30
0.0
 11
21.0
 21
-4.25
 31
0.0
  0
LINE
  5
C9
330
1B
100
AcDbEntity
 67
     1
  8
0
  6
Continuous
 62
     7
370
    15
100
AcDbLine
 10
20.5
 20
-4.75
 30
0.0
 11
20.5
 21
4.75
 31
0.0
  0
LINE
  5
CA
330
1B
100
AcDbEntity
 67
     1
  8
0
  6
Continuous
 62
     7
370
    15
100
AcDbLine
 10
20.5
 20
-4.75
 30
0.0
 11
-20.5
 21
-4.75
 31
0.0
  0
LINE
  5
CB
330
1B
100
AcDbEntity
 67
     1
  8
0
  6
Continuous
 62
     7
370
    15
100
AcDbLine
 10
-21.0
 20
-4.25
 30
0.0
 11
-21.0
 21
4.25
 31
0.0
  0
LINE
  5
CC
330
1B
100
AcDbEntity
 67
     1
  8
0
  6
Continuous
 62
     7
370
    15
100
AcDbLine
 10
21.0
 20
4.25
 30
0.0
 11
-21.0
 21
4.25
 31
0.0
  0
LINE
  5
CD
330
1B
100
AcDbEntity
 67
     1
  8
0
  6
Continuous
 62
     7
370
    15
100
AcDbLine
 10
20.5
 20
-4.75
 30
0.0
 11
21.0
 21
-4.25
 31
0.0
  0
LINE
  5
CE
330
1B
100
AcDbEntity
 67
     1
  8
0
  6
Continuous
 62
     7
370
    15
100
AcDbLine
 10
-20.5
 20
4.75
 30
0.0
 11
20.5
 21
4.75
 31
0.0
  0
LINE
  5
CF
330
1B
100
AcDbEntity
 67
     1
  8
0
  6
Continuous
 62
     7
370
    15
100
AcDbLine
 10
-20.5
 20
4.75
 30
0.0
 11
-21.0
 21
4.25
 31
0.0
  0
LINE
  5
D0
330
1B
100
AcDbEntity
 67
     1
  8
0
  6
Continuous
 62
     7
370
    15
100
AcDbLine
 10
20.5
 20
4.75
 30
0.0
 11
21.0
 21
4.25
 31
0.0
  0
LINE
  5
D1
330
1B
100
AcDbEntity
 67
     1
  8
0
  6
Continuous
 62
     7
370
    15
100
AcDbLine
 10
21.0
 20
4.25
 30
0.0
 11
21.0
 21
-4.25
 31
0.0
  0
LINE
  5
D2
330
1B
100
AcDbEntity
 67
     1
  8
0
  6
HIDDEN
 62
     7
370
     0
100
AcDbLine
 10
3.0
 20
4.75
 30
0.0
 11
3.0
 21
-4.75
 31
0.0
  0
LINE
  5
D3
330
1B
100
AcDbEntity
 67
     1
  8
0
  6
HIDDEN
 62
     7
370
     0
100
AcDbLine
 10
9.0
 20
-4.75
 30
0.0
 11
9.0
 21
4.75
 31
0.0
  0
LINE
  5
D4
330
1B
100
AcDbEntity
 67
     1
  8
0
  6
HIDDEN
 62
     7
370
     0
100
AcDbLine
 10
-9.0
 20
4.75
 30
0.0
 11
-9.0
 21
-4.75
 31
0.0
  0
LINE
  5
D5
330
1B
100
AcDbEntity
 67
     1
  8
0
  6
HIDDEN
 62
     7
370
     0
100
AcDbLine
 10
-3.0
 20
-4.75
 30
0.0
 11
-3.0
 21
4.75
 31
0.0
  0
VIEWPORT
  5
2B1
330
1B
100
AcDbEntity
 67
     1
  8
0
100
AcDbViewport
 10
0.0
 20
0.0
 30
0.0
 40
243.84
 41
204.216
 68
     1
 69
     1
 12
-0.1622217027
 22
0.1382355589
 13
0.0
 23
0.0
 14
10.0
 24
10.0
 15
10.0
 25
10.0
 16
0.0
 26
0.0
 36
1.0
 17
0.0
 27
0.0
 37
0.0
 42
50.0
 43
0.0
 44
0.0
 45
38.0561576543
 50
0.0
 51
0.0
 72
   100
 90
   557152
  1

281
     0
 71
     1
 74
     0
110
0.0
120
0.0
130
0.0
111
1.0
121
0.0
131
0.0
112
0.0
122
1.0
132
0.0
 79
     0
146
0.0
  0
ENDSEC
  0
SECTION
  2
OBJECTS
  0
DICTIONARY
  5
C
330
0
100
AcDbDictionary
281
     1
  3
ACAD_GROUP
350
D
  3
ACAD_LAYOUT
350
1A
  3
ACAD_MLINESTYLE
350
17
  3
ACAD_PLOTSETTINGS
350
19
  3
ACAD_PLOTSTYLENAME
350
E
  3
ACAD_SCALELIST
350
2B2
  3
AcDbVariableDictionary
350
2DC
  0
DICTIONARY
  5
D
102
{ACAD_REACTORS
330
C
102
}
330
C
100
AcDbDictionary
281
     1
  0
DICTIONARY
  5
1A
102
{ACAD_REACTORS
330
C
102
}
330
C
100
AcDbDictionary
281
     1
  3
_Back
350
F9
  3
_Bottom
350
16F
  3
_Dimetric
350
258
  3
_Front
350
1E
  3
_Isometric
350
195
  3
_Left
350
127
  3
_Right
350
14B
  3
_Top
350
26
  3
_Trimetric
350
1F4
  3
Model
350
22
  0
DICTIONARY
  5
17
102
{ACAD_REACTORS
330
C
102
}
330
C
100
AcDbDictionary
281
     1
  3
Standard
350
18
  0
DICTIONARY
  5
19
102
{ACAD_REACTORS
330
C
102
}
330
C
100
AcDbDictionary
281
     1
  0
ACDBDICTIONARYWDFLT
  5
E
102
{ACAD_REACTORS
330
C
102
}
330
C
100
AcDbDictionary
281
     1
  3
Normal
350
F
100
AcDbDictionaryWithDefault
340
F
  0
DICTIONARY
  5
2B2
102
{ACAD_REACTORS
330
C
102
}
330
C
100
AcDbDictionary
281
     1
  3
A0
350
2B3
  3
A1
350
2B4
  3
A2
350
2B5
  3
A3
350
2B6
  3
A4
350
2B7
  3
A5
350
2B8
  3
A6
350
2B9
  3
A7
350
2BA
  3
A8
350
2BB
  3
A9
350
2BC
  3
B0
350
2BD
  3
B1
350
2BE
  3
B2
350
2BF
  3
B3
350
2C0
  3
B4
350
2C1
  3
B5
350
2C2
  3
B6
350
2C3
  3
B7
350
2C4
  3
B8
350
2C5
  3
B9
350
2C6
  3
C0
350
2C7
  3
C1
350
2C8
  3
C2
350
2C9
  3
C3
350
2CA
  3
C4
350
2CB
  3
C5
350
2CC
  3
C6
350
2CD
  3
C7
350
2CE
  3
C8
350
2CF
  3
C9
350
2D0
  3
D0
350
2D1
  3
D1
350
2D2
  3
D2
350
2D3
  0
DICTIONARY
  5
2DC
102
{ACAD_REACTORS
330
C
102
}
330
C
100
AcDbDictionary
281
     1
  3
CANNOSCALE
350
2DD
  0
LAYOUT
  5
F9
102
{ACAD_REACTORS
330
1A
102
}
330
1A
100
AcDbPlotSettings
  1

  2
none_device
  4

  6

 40
0.0
 41
0.0
 42
0.0
 43
0.0
 44
0.0
 45
0.0
 46
0.0
 47
0.0
 48
0.0
 49
0.0
140
0.0
141
0.0
142
1.0
143
1.0
 70
   688
 72
     0
 73
     0
 74
     5
  7

 75
    16
147
1.0
148
0.0
149
0.0
100
AcDbLayout
  1
_Back
 70
     1
 71
     3
 10
0.0
 20
0.0
 11
0.0
 21
0.0
 12
0.0
 22
0.0
 32
0.0
 14
0.0
 24
0.0
 34
0.0
 15
0.0
 25
0.0
 35
0.0
146
0.0
 13
0.0
 23
0.0
 33
0.0
 16
1.0
 26
0.0
 36
0.0
 17
0.0
 27
1.0
 37
0.0
 76
     0
330
F8
331
2D5
  0
LAYOUT
  5
16F
102
{ACAD_REACTORS
330
1A
102
}
330
1A
100
AcDbPlotSettings
  1

  2
none_device
  4

  6

 40
0.0
 41
0.0
 42
0.0
 43
0.0
 44
0.0
 45
0.0
 46
0.0
 47
0.0
 48
0.0
 49
0.0
140
0.0
141
0.0
142
1.0
143
1.0
 70
   688
 72
     0
 73
     0
 74
     5
  7

 75
    16
147
1.0
148
0.0
149
0.0
100
AcDbLayout
  1
_Bottom
 70
     1
 71
     6
 10
0.0
 20
0.0
 11
0.0
 21
0.0
 12
0.0
 22
0.0
 32
0.0
 14
0.0
 24
0.0
 34
0.0
 15
0.0
 25
0.0
 35
0.0
146
0.0
 13
0.0
 23
0.0
 33
0.0
 16
1.0
 26
0.0
 36
0.0
 17
0.0
 27
1.0
 37
0.0
 76
     0
330
16E
331
2D8
  0
LAYOUT
  5
258
102
{ACAD_REACTORS
330
1A
102
}
330
1A
100
AcDbPlotSettings
  1

  2
none_device
  4

  6

 40
0.0
 41
0.0
 42
0.0
 43
0.0
 44
0.0
 45
0.0
 46
0.0
 47
0.0
 48
0.0
 49
0.0
140
0.0
141
0.0
142
1.0
143
1.0
 70
   688
 72
     0
 73
     0
 74
     5
  7

 75
    16
147
1.0
148
0.0
149
0.0
100
AcDbLayout
  1
_Dimetric
 70
     1
 71
     9
 10
0.0
 20
0.0
 11
0.0
 21
0.0
 12
0.0
 22
0.0
 32
0.0
 14
0.0
 24
0.0
 34
0.0
 15
0.0
 25
0.0
 35
0.0
146
0.0
 13
0.0
 23
0.0
 33
0.0
 16
1.0
 26
0.0
 36
0.0
 17
0.0
 27
1.0
 37
0.0
 76
     0
330
257
331
2DB
  0
LAYOUT
  5
1E
102
{ACAD_REACTORS
330
1A
102
}
330
1A
100
AcDbPlotSettings
  1

  2
none_device
  4

  6

 40
0.0
 41
0.0
 42
0.0
 43
0.0
 44
0.0
 45
0.0
 46
0.0
 47
0.0
 48
0.0
 49
0.0
140
0.0
141
0.0
142
1.0
143
1.0
 70
   688
 72
     0
 73
     0
 74
     5
  7

 75
    16
147
1.0
148
0.0
149
0.0
100
AcDbLayout
  1
_Front
 70
     1
 71
     1
 10
0.0
 20
0.0
 11
420.0
 21
297.0
 12
0.0
 22
0.0
 32
0.0
 14
-21.0
 24
-4.75
 34
0.0
 15
21.0
 25
4.75
 35
0.0
146
0.0
 13
0.0
 23
0.0
 33
0.0
 16
1.0
 26
0.0
 36
0.0
 17
0.0
 27
1.0
 37
0.0
 76
     0
330
1B
331
2B1
  0
LAYOUT
  5
195
102
{ACAD_REACTORS
330
1A
102
}
330
1A
100
AcDbPlotSettings
  1

  2
none_device
  4

  6

 40
0.0
 41
0.0
 42
0.0
 43
0.0
 44
0.0
 45
0.0
 46
0.0
 47
0.0
 48
0.0
 49
0.0
140
0.0
141
0.0
142
1.0
143
1.0
 70
   688
 72
     0
 73
     0
 74
     5
  7

 75
    16
147
1.0
148
0.0
149
0.0
100
AcDbLayout
  1
_Isometric
 70
     1
 71
     7
 10
0.0
 20
0.0
 11
0.0
 21
0.0
 12
0.0
 22
0.0
 32
0.0
 14
0.0
 24
0.0
 34
0.0
 15
0.0
 25
0.0
 35
0.0
146
0.0
 13
0.0
 23
0.0
 33
0.0
 16
1.0
 26
0.0
 36
0.0
 17
0.0
 27
1.0
 37
0.0
 76
     0
330
194
331
2D9
  0
LAYOUT
  5
127
102
{ACAD_REACTORS
330
1A
102
}
330
1A
100
AcDbPlotSettings
  1

  2
none_device
  4

  6

 40
0.0
 41
0.0
 42
0.0
 43
0.0
 44
0.0
 45
0.0
 46
0.0
 47
0.0
 48
0.0
 49
0.0
140
0.0
141
0.0
142
1.0
143
1.0
 70
   688
 72
     0
 73
     0
 74
     5
  7

 75
    16
147
1.0
148
0.0
149
0.0
100
AcDbLayout
  1
_Left
 70
     1
 71
     4
 10
0.0
 20
0.0
 11
0.0
 21
0.0
 12
0.0
 22
0.0
 32
0.0
 14
0.0
 24
0.0
 34
0.0
 15
0.0
 25
0.0
 35
0.0
146
0.0
 13
0.0
 23
0.0
 33
0.0
 16
1.0
 26
0.0
 36
0.0
 17
0.0
 27
1.0
 37
0.0
 76
     0
330
126
331
2D6
  0
LAYOUT
  5
14B
102
{ACAD_REACTORS
330
1A
102
}
330
1A
100
AcDbPlotSettings
  1

  2
none_device
  4

  6

 40
0.0
 41
0.0
 42
0.0
 43
0.0
 44
0.0
 45
0.0
 46
0.0
 47
0.0
 48
0.0
 49
0.0
140
0.0
141
0.0
142
1.0
143
1.0
 70
   688
 72
     0
 73
     0
 74
     5
  7

 75
    16
147
1.0
148
0.0
149
0.0
100
AcDbLayout
  1
_Right
 70
     1
 71
     5
 10
0.0
 20
0.0
 11
0.0
 21
0.0
 12
0.0
 22
0.0
 32
0.0
 14
0.0
 24
0.0
 34
0.0
 15
0.0
 25
0.0
 35
0.0
146
0.0
 13
0.0
 23
0.0
 33
0.0
 16
1.0
 26
0.0
 36
0.0
 17
0.0
 27
1.0
 37
0.0
 76
     0
330
14A
331
2D7
  0
LAYOUT
  5
26
102
{ACAD_REACTORS
330
1A
102
}
330
1A
100
AcDbPlotSettings
  1

  2
none_device
  4

  6

 40
0.0
 41
0.0
 42
0.0
 43
0.0
 44
0.0
 45
0.0
 46
0.0
 47
0.0
 48
0.0
 49
0.0
140
0.0
141
0.0
142
1.0
143
1.0
 70
   688
 72
     0
 73
     0
 74
     5
  7

 75
    16
147
1.0
148
0.0
149
0.0
100
AcDbLayout
  1
_Top
 70
     1
 71
     2
 10
0.0
 20
0.0
 11
0.0
 21
0.0
 12
0.0
 22
0.0
 32
0.0
 14
0.0
 24
0.0
 34
0.0
 15
0.0
 25
0.0
 35
0.0
146
0.0
 13
0.0
 23
0.0
 33
0.0
 16
1.0
 26
0.0
 36
0.0
 17
0.0
 27
1.0
 37
0.0
 76
     0
330
23
331
2D4
  0
LAYOUT
  5
1F4
102
{ACAD_REACTORS
330
1A
102
}
330
1A
100
AcDbPlotSettings
  1

  2
none_device
  4

  6

 40
0.0
 41
0.0
 42
0.0
 43
0.0
 44
0.0
 45
0.0
 46
0.0
 47
0.0
 48
0.0
 49
0.0
140
0.0
141
0.0
142
1.0
143
1.0
 70
   688
 72
     0
 73
     0
 74
     5
  7

 75
    16
147
1.0
148
0.0
149
0.0
100
AcDbLayout
  1
_Trimetric
 70
     1
 71
     8
 10
0.0
 20
0.0
 11
0.0
 21
0.0
 12
0.0
 22
0.0
 32
0.0
 14
0.0
 24
0.0
 34
0.0
 15
0.0
 25
0.0
 35
0.0
146
0.0
 13
0.0
 23
0.0
 33
0.0
 16
1.0
 26
0.0
 36
0.0
 17
0.0
 27
1.0
 37
0.0
 76
     0
330
1F3
331
2DA
  0
LAYOUT
  5
22
102
{ACAD_REACTORS
330
1A
102
}
330
1A
100
AcDbPlotSettings
  1

  2
none_device
  4
ANSI_A_(11.00_x_8.50_Inches)
  6

 40
6.35
 41
19.05
 42
6.35000508
 43
19.05000254
 44
279.4
 45
215.9
 46
134.2793318886
 47
88.1080759351
 48
0.0
 49
0.0
140
0.0
141
0.0
142
0.2255430009
143
1.0
 70
  1696
 72
     0
 73
     0
 74
     0
  7

 75
     0
147
0.0179189148
148
0.0
149
0.0
100
AcDbLayout
  1
Model
 70
     1
 71
     0
 10
0.0
 20
0.0
 11
420.0
 21
297.0
 12
0.0
 22
0.0
 32
0.0
 14
-21.1518730615
 24
-18.5167436834
 34
0.0
 15
20.8274296562
 25
18.7932148012
 35
0.0
146
0.0
 13
0.0
 23
0.0
 33
0.0
 16
1.0
 26
0.0
 36
0.0
 17
0.0
 27
1.0
 37
0.0
 76
     0
330
1F
331
29
  0
MLINESTYLE
  5
18
102
{ACAD_REACTORS
330
17
102
}
330
17
100
AcDbMlineStyle
  2
Standard
 70
     0
  3

 62
   256
 51
90.0
 52
90.0
 71
     2
 49
0.5
 62
   256
  6
BYLAYER
 49
-0.5
 62
   256
  6
BYLAYER
  0
ACDBPLACEHOLDER
  5
F
102
{ACAD_REACTORS
330
E
102
}
330
E
  0
SCALE
  5
2B3
102
{ACAD_REACTORS
330
2B2
102
}
330
2B2
100
AcDbScale
 70
     0
300
1:1
140
1.0
141
1.0
290
     1
  0
SCALE
  5
2B4
102
{ACAD_REACTORS
330
2B2
102
}
330
2B2
100
AcDbScale
 70
     0
300
1:2
140
1.0
141
2.0
290
     0
  0
SCALE
  5
2B5
102
{ACAD_REACTORS
330
2B2
102
}
330
2B2
100
AcDbScale
 70
     0
300
1:4
140
1.0
141
4.0
290
     0
  0
SCALE
  5
2B6
102
{ACAD_REACTORS
330
2B2
102
}
330
2B2
100
AcDbScale
 70
     0
300
1:5
140
1.0
141
5.0
290
     0
  0
SCALE
  5
2B7
102
{ACAD_REACTORS
330
2B2
102
}
330
2B2
100
AcDbScale
 70
     0
300
1:8
140
1.0
141
8.0
290
     0
  0
SCALE
  5
2B8
102
{ACAD_REACTORS
330
2B2
102
}
330
2B2
100
AcDbScale
 70
     0
300
1:10
140
1.0
141
10.0
290
     0
  0
SCALE
  5
2B9
102
{ACAD_REACTORS
330
2B2
102
}
330
2B2
100
AcDbScale
 70
     0
300
1:16
140
1.0
141
16.0
290
     0
  0
SCALE
  5
2BA
102
{ACAD_REACTORS
330
2B2
102
}
330
2B2
100
AcDbScale
 70
     0
300
1:20
140
1.0
141
20.0
290
     0
  0
SCALE
  5
2BB
102
{ACAD_REACTORS
330
2B2
102
}
330
2B2
100
AcDbScale
 70
     0
300
1:30
140
1.0
141
30.0
290
     0
  0
SCALE
  5
2BC
102
{ACAD_REACTORS
330
2B2
102
}
330
2B2
100
AcDbScale
 70
     0
300
1:40
140
1.0
141
40.0
290
     0
  0
SCALE
  5
2BD
102
{ACAD_REACTORS
330
2B2
102
}
330
2B2
100
AcDbScale
 70
     0
300
1:50
140
1.0
141
50.0
290
     0
  0
SCALE
  5
2BE
102
{ACAD_REACTORS
330
2B2
102
}
330
2B2
100
AcDbScale
 70
     0
300
1:100
140
1.0
141
100.0
290
     0
  0
SCALE
  5
2BF
102
{ACAD_REACTORS
330
2B2
102
}
330
2B2
100
AcDbScale
 70
     0
300
2:1
140
2.0
141
1.0
290
     0
  0
SCALE
  5
2C0
102
{ACAD_REACTORS
330
2B2
102
}
330
2B2
100
AcDbScale
 70
     0
300
4:1
140
4.0
141
1.0
290
     0
  0
SCALE
  5
2C1
102
{ACAD_REACTORS
330
2B2
102
}
330
2B2
100
AcDbScale
 70
     0
300
8:1
140
8.0
141
1.0
290
     0
  0
SCALE
  5
2C2
102
{ACAD_REACTORS
330
2B2
102
}
330
2B2
100
AcDbScale
 70
     0
300
10:1
140
10.0
141
1.0
290
     0
  0
SCALE
  5
2C3
102
{ACAD_REACTORS
330
2B2
102
}
330
2B2
100
AcDbScale
 70
     0
300
100:1
140
100.0
141
1.0
290
     0
  0
SCALE
  5
2C4
102
{ACAD_REACTORS
330
2B2
102
}
330
2B2
100
AcDbScale
 70
     0
300
1/128" = 1'-0"
140
0.0078125
141
12.0
290
     0
  0
SCALE
  5
2C5
102
{ACAD_REACTORS
330
2B2
102
}
330
2B2
100
AcDbScale
 70
     0
300
1/64" = 1'-0"
140
0.015625
141
12.0
290
     0
  0
SCALE
  5
2C6
102
{ACAD_REACTORS
330
2B2
102
}
330
2B2
100
AcDbScale
 70
     0
300
1/32" = 1'-0"
140
0.03125
141
12.0
290
     0
  0
SCALE
  5
2C7
102
{ACAD_REACTORS
330
2B2
102
}
330
2B2
100
AcDbScale
 70
     0
300
1/16" = 1'-0"
140
0.0625
141
12.0
290
     0
  0
SCALE
  5
2C8
102
{ACAD_REACTORS
330
2B2
102
}
330
2B2
100
AcDbScale
 70
     0
300
3/32" = 1'-0"
140
0.09375
141
12.0
290
     0
  0
SCALE
  5
2C9
102
{ACAD_REACTORS
330
2B2
102
}
330
2B2
100
AcDbScale
 70
     0
300
1/8" = 1'-0"
140
0.125
141
12.0
290
     0
  0
SCALE
  5
2CA
102
{ACAD_REACTORS
330
2B2
102
}
330
2B2
100
AcDbScale
 70
     0
300
3/16" = 1'-0"
140
0.1875
141
12.0
290
     0
  0
SCALE
  5
2CB
102
{ACAD_REACTORS
330
2B2
102
}
330
2B2
100
AcDbScale
 70
     0
300
1/4" = 1'-0"
140
0.25
141
12.0
290
     0
  0
SCALE
  5
2CC
102
{ACAD_REACTORS
330
2B2
102
}
330
2B2
100
AcDbScale
 70
     0
300
3/8" = 1'-0"
140
0.375
141
12.0
290
     0
  0
SCALE
  5
2CD
102
{ACAD_REACTORS
330
2B2
102
}
330
2B2
100
AcDbScale
 70
     0
300
1/2" = 1'-0"
140
0.5
141
12.0
290
     0
  0
SCALE
  5
2CE
102
{ACAD_REACTORS
330
2B2
102
}
330
2B2
100
AcDbScale
 70
     0
300
3/4" = 1'-0"
140
0.75
141
12.0
290
     0
  0
SCALE
  5
2CF
102
{ACAD_REACTORS
330
2B2
102
}
330
2B2
100
AcDbScale
 70
     0
300
1" = 1'-0"
140
1.0
141
12.0
290
     0
  0
SCALE
  5
2D0
102
{ACAD_REACTORS
330
2B2
102
}
330
2B2
100
AcDbScale
 70
     0
300
1-1/2" = 1'-0"
140
1.5
141
12.0
290
     0
  0
SCALE
  5
2D1
102
{ACAD_REACTORS
330
2B2
102
}
330
2B2
100
AcDbScale
 70
     0
300
3" = 1'-0"
140
3.0
141
12.0
290
     0
  0
SCALE
  5
2D2
102
{ACAD_REACTORS
330
2B2
102
}
330
2B2
100
AcDbScale
 70
     0
300
6" = 1'-0"
140
6.0
141
12.0
290
     0
  0
SCALE
  5
2D3
102
{ACAD_REACTORS
330
2B2
102
}
330
2B2
100
AcDbScale
 70
     0
300
1'-0" = 1'-0"
140
12.0
141
12.0
290
     0
  0
DICTIONARYVAR
  5
2DD
102
{ACAD_REACTORS
330
2DC
102
}
330
2DC
100
DictionaryVariables
280
     0
  1
1:1
  0
ENDSEC
  0
EOF
