  0
SECTION
  2
HEADER
  9
$ACADVER
  1
AC1015
  9
$ACADMAINTVER
 70
     6
  9
$DWGCODEPAGE
  3
ANSI_1252
  9
$INSBASE
 10
0.0
 20
0.0
 30
0.0
  9
$EXTMIN
 10
-13.6117648313
 20
-15.3427276892
 30
0.0
  9
$EXTMAX
 10
12.5076187599
 20
10.9624126625
 30
0.0
  9
$LIMMIN
 10
0.0
 20
0.0
  9
$LIMMAX
 10
420.0
 20
297.0
  9
$ORTHOMODE
 70
     0
  9
$REGENMODE
 70
     1
  9
$FILLMODE
 70
     1
  9
$QTEXTMODE
 70
     0
  9
$MIRRTEXT
 70
     1
  9
$LTSCALE
 40
1.0
  9
$ATTMODE
 70
     1
  9
$TEXTSIZE
 40
3.5
  9
$TRACEWID
 40
1.0
  9
$TEXTSTYLE
  7
Standard
  9
$CLAYER
  8
0
  9
$CELTYPE
  6
ByLayer
  9
$CECOLOR
 62
   256
  9
$CELTSCALE
 40
1.0
  9
$DISPSILH
 70
     0
  9
$DIMSCALE
 40
1.0
  9
$DIMASZ
 40
3.302
  9
$DIMEXO
 40
1.0
  9
$DIMDLI
 40
3.75
  9
$DIMRND
 40
0.0
  9
$DIMDLE
 40
0.0
  9
$DIMEXE
 40
1.0
  9
$DIMTP
 40
0.0
  9
$DIMTM
 40
0.0
  9
$DIMTXT
 40
3.5
  9
$DIMCEN
 40
2.5
  9
$DIMTSZ
 40
0.0
  9
$DIMTOL
 70
     0
  9
$DIMLIM
 70
     0
  9
$DIMTIH
 70
     1
  9
$DIMTOH
 70
     1
  9
$DIMSE1
 70
     0
  9
$DIMSE2
 70
     0
  9
$DIMTAD
 70
     1
  9
$DIMZIN
 70
     0
  9
$DIMBLK
  1

  9
$DIMASO
 70
     1
  9
$DIMSHO
 70
     1
  9
$DIMPOST
  1

  9
$DIMAPOST
  1

  9
$DIMALT
 70
     0
  9
$DIMALTD
 70
     3
  9
$DIMALTF
 40
0.0393700787
  9
$DIMLFAC
 40
1.0
  9
$DIMTOFL
 70
     1
  9
$DIMTVP
 40
0.0
  9
$DIMTIX
 70
     0
  9
$DIMSOXD
 70
     0
  9
$DIMSAH
 70
     0
  9
$DIMBLK1
  1

  9
$DIMBLK2
  1

  9
$DIMSTYLE
  2
ISO-25
  9
$DIMCLRD
 70
     0
  9
$DIMCLRE
 70
     0
  9
$DIMCLRT
 70
     0
  9
$DIMTFAC
 40
1.0
  9
$DIMGAP
 40
1.524
  9
$DIMJUST
 70
     0
  9
$DIMSD1
 70
     0
  9
$DIMSD2
 70
     0
  9
$DIMTOLJ
 70
     0
  9
$DIMTZIN
 70
     0
  9
$DIMALTZ
 70
     0
  9
$DIMALTTZ
 70
     0
  9
$DIMUPT
 70
     0
  9
$DIMDEC
 70
     2
  9
$DIMTDEC
 70
     2
  9
$DIMALTU
 70
     2
  9
$DIMALTTD
 70
     3
  9
$DIMTXSTY
  7
Standard
  9
$DIMAUNIT
 70
     0
  9
$DIMADEC
 70
     2
  9
$DIMALTRND
 40
0.0
  9
$DIMAZIN
 70
     0
  9
$DIMDSEP
 70
    44
  9
$DIMATFIT
 70
     3
  9
$DIMFRAC
 70
     0
  9
$DIMLDRBLK
  1

  9
$DIMLUNIT
 70
     2
  9
$DIMLWD
 70
    -2
  9
$DIMLWE
 70
    -2
  9
$DIMTMOVE
 70
     0
  9
$LUNITS
 70
     2
  9
$LUPREC
 70
     2
  9
$SKETCHINC
 40
1.0
  9
$FILLETRAD
 40
10.0
  9
$AUNITS
 70
     0
  9
$AUPREC
 70
     2
  9
$MENU
  1
.
  9
$ELEVATION
 40
0.0
  9
$PELEVATION
 40
0.0
  9
$THICKNESS
 40
0.0
  9
$LIMCHECK
 70
     0
  9
$CHAMFERA
 40
10.0
  9
$CHAMFERB
 40
10.0
  9
$CHAMFERC
 40
20.0
  9
$CHAMFERD
 40
0.0
  9
$SKPOLY
 70
     0
  9
$TDCREATE
 40
2456194.548380891
  9
$TDUCREATE
 40
2456194.048380891
  9
$TDUPDATE
 40
2456194.548440683
  9
$TDUUPDATE
 40
2456194.048440683
  9
$TDINDWG
 40
0.0000000116
  9
$TDUSRTIMER
 40
0.0000000116
  9
$USRTIMER
 70
     1
  9
$ANGBASE
 50
0.0
  9
$ANGDIR
 70
     0
  9
$PDMODE
 70
     0
  9
$PDSIZE
 40
-1.0
  9
$PLINEWID
 40
0.0
  9
$SPLFRAME
 70
     0
  9
$SPLINETYPE
 70
     6
  9
$SPLINESEGS
 70
     8
  9
$HANDSEED
  5
225
  9
$SURFTAB1
 70
     6
  9
$SURFTAB2
 70
     6
  9
$SURFTYPE
 70
     6
  9
$SURFU
 70
     6
  9
$SURFV
 70
     6
  9
$UCSBASE
  2

  9
$UCSNAME
  2

  9
$UCSORG
 10
0.0
 20
0.0
 30
0.0
  9
$UCSXDIR
 10
1.0
 20
0.0
 30
0.0
  9
$UCSYDIR
 10
0.0
 20
1.0
 30
0.0
  9
$UCSORTHOREF
  2

  9
$UCSORTHOVIEW
 70
     0
  9
$UCSORGTOP
 10
0.0
 20
0.0
 30
0.0
  9
$UCSORGBOTTOM
 10
0.0
 20
0.0
 30
0.0
  9
$UCSORGLEFT
 10
0.0
 20
0.0
 30
0.0
  9
$UCSORGRIGHT
 10
0.0
 20
0.0
 30
0.0
  9
$UCSORGFRONT
 10
0.0
 20
0.0
 30
0.0
  9
$UCSORGBACK
 10
0.0
 20
0.0
 30
0.0
  9
$PUCSBASE
  2

  9
$PUCSNAME
  2

  9
$PUCSORG
 10
0.0
 20
0.0
 30
0.0
  9
$PUCSXDIR
 10
1.0
 20
0.0
 30
0.0
  9
$PUCSYDIR
 10
0.0
 20
1.0
 30
0.0
  9
$PUCSORTHOREF
  2

  9
$PUCSORTHOVIEW
 70
     0
  9
$PUCSORGTOP
 10
0.0
 20
0.0
 30
0.0
  9
$PUCSORGBOTTOM
 10
0.0
 20
0.0
 30
0.0
  9
$PUCSORGLEFT
 10
0.0
 20
0.0
 30
0.0
  9
$PUCSORGRIGHT
 10
0.0
 20
0.0
 30
0.0
  9
$PUCSORGFRONT
 10
0.0
 20
0.0
 30
0.0
  9
$PUCSORGBACK
 10
0.0
 20
0.0
 30
0.0
  9
$USERI1
 70
     0
  9
$USERI2
 70
     0
  9
$USERI3
 70
     0
  9
$USERI4
 70
     0
  9
$USERI5
 70
     0
  9
$USERR1
 40
0.0
  9
$USERR2
 40
0.0
  9
$USERR3
 40
0.0
  9
$USERR4
 40
0.0
  9
$USERR5
 40
0.0
  9
$WORLDVIEW
 70
     1
  9
$SHADEDGE
 70
     3
  9
$SHADEDIF
 70
    70
  9
$TILEMODE
 70
     0
  9
$MAXACTVP
 70
    64
  9
$PINSBASE
 10
0.0
 20
0.0
 30
0.0
  9
$PLIMCHECK
 70
     0
  9
$PEXTMIN
 10
-13.6117648313
 20
-15.3427276892
 30
0.0
  9
$PEXTMAX
 10
12.5076187599
 20
10.9624126625
 30
0.0
  9
$PLIMMIN
 10
0.0
 20
0.0
  9
$PLIMMAX
 10
0.0
 20
0.0
  9
$UNITMODE
 70
     0
  9
$VISRETAIN
 70
     1
  9
$PLINEGEN
 70
     0
  9
$PSLTSCALE
 70
     1
  9
$TREEDEPTH
 70
  3020
  9
$CMLSTYLE
  2
Standard
  9
$CMLJUST
 70
     0
  9
$CMLSCALE
 40
20.0
  9
$PROXYGRAPHICS
 70
     1
  9
$MEASUREMENT
 70
     1
  9
$CELWEIGHT
370
    -1
  9
$ENDCAPS
280
     0
  9
$JOINSTYLE
280
     0
  9
$LWDISPLAY
290
     1
  9
$INSUNITS
 70
     4
  9
$HYPERLINKBASE
  1

  9
$STYLESHEET
  1

  9
$XEDIT
290
     1
  9
$CEPSNTYPE
380
     0
  9
$PSTYLEMODE
290
     1
  9
$FINGERPRINTGUID
  2
{411B0211-4A47-49FF-ACE0-7E41F776FBD8}
  9
$VERSIONGUID
  2
{FAEB1C32-E019-11D5-929B-00C0DF256EC4}
  9
$EXTNAMES
290
     1
  9
$PSVPSCALE
 40
0.0
  9
$OLESTARTUP
290
     0
  0
ENDSEC
  0
SECTION
  2
CLASSES
  0
CLASS
  1
ACDBDICTIONARYWDFLT
  2
AcDbDictionaryWithDefault
  3
ObjectDBX Classes
 90
        0
280
     0
281
     0
  0
CLASS
  1
VISUALSTYLE
  2
AcDbVisualStyle
  3
ObjectDBX Classes
 90
     4095
280
     0
281
     0
  0
CLASS
  1
MATERIAL
  2
AcDbMaterial
  3
ObjectDBX Classes
 90
     1153
280
     0
281
     0
  0
CLASS
  1
ACDBPLACEHOLDER
  2
AcDbPlaceHolder
  3
ObjectDBX Classes
 90
        0
280
     0
281
     0
  0
CLASS
  1
LAYOUT
  2
AcDbLayout
  3
ObjectDBX Classes
 90
        0
280
     0
281
     0
  0
ENDSEC
  0
SECTION
  2
TABLES
  0
TABLE
  2
VPORT
  5
8
330
0
100
AcDbSymbolTable
 70
     1
  0
VPORT
  5
29
330
8
100
AcDbSymbolTableRecord
100
AcDbViewportTableRecord
  2
*Active
 70
     0
 10
0.0
 20
0.0
 11
1.0
 21
1.0
 12
-0.5520730357
 22
-2.1901575134
 13
0.0
 23
0.0
 14
10.0
 24
10.0
 15
10.0
 25
10.0
 16
0.0
 26
0.0
 36
1.0
 17
0.0
 27
0.0
 37
0.0
 40
26.8312431587
 41
0.9929383855
 42
50.0
 43
0.0
 44
0.0
 50
0.0
 51
0.0
 71
     0
 72
   100
 73
     1
 74
     3
 75
     0
 76
     0
 77
     0
 78
     0
281
     0
 65
     1
110
0.0
120
0.0
130
0.0
111
1.0
121
0.0
131
0.0
112
0.0
122
1.0
132
0.0
 79
     0
146
0.0
  0
ENDTAB
  0
TABLE
  2
LTYPE
  5
5
330
0
100
AcDbSymbolTable
 70
     6
  0
LTYPE
  5
14
330
5
100
AcDbSymbolTableRecord
100
AcDbLinetypeTableRecord
  2
ByBlock
 70
     0
  3

 72
    65
 73
     0
 40
0.0
  0
LTYPE
  5
15
330
5
100
AcDbSymbolTableRecord
100
AcDbLinetypeTableRecord
  2
ByLayer
 70
     0
  3

 72
    65
 73
     0
 40
0.0
  0
LTYPE
  5
16
330
5
100
AcDbSymbolTableRecord
100
AcDbLinetypeTableRecord
  2
Continuous
 70
     0
  3
Solid line
 72
    65
 73
     0
 40
0.0
  0
LTYPE
  5
3F
330
5
100
AcDbSymbolTableRecord
100
AcDbLinetypeTableRecord
  2
HIDDEN
 70
     0
  3
Hidden __ __ __ __ __ __ __ __ __ __ __ __ __ __
 72
    65
 73
     2
 40
1.905
 49
1.27
 74
     0
 49
-0.635
 74
     0
  0
LTYPE
  5
40
330
5
100
AcDbSymbolTableRecord
100
AcDbLinetypeTableRecord
  2
PHANTOM
 70
     0
  3
Phantom ______  __  __  ______  __  __  ______
 72
    65
 73
     6
 40
12.7
 49
6.35
 74
     0
 49
-1.27
 74
     0
 49
1.27
 74
     0
 49
-1.27
 74
     0
 49
1.27
 74
     0
 49
-1.27
 74
     0
  0
LTYPE
  5
41
330
5
100
AcDbSymbolTableRecord
100
AcDbLinetypeTableRecord
  2
CENTER
 70
     0
  3
Center ____ _ ____ _ ____ _ ____ _ ____ _ ____
 72
    65
 73
     4
 40
10.16
 49
6.35
 74
     0
 49
-1.27
 74
     0
 49
1.27
 74
     0
 49
-1.27
 74
     0
  0
LTYPE
  5
42
330
5
100
AcDbSymbolTableRecord
100
AcDbLinetypeTableRecord
  2
CENTERX2
 70
     0
  3
Center (2x) ________  __  ________  __  _____
 72
    65
 73
     4
 40
20.32
 49
12.7
 74
     0
 49
-2.54
 74
     0
 49
2.54
 74
     0
 49
-2.54
 74
     0
  0
LTYPE
  5
43
330
5
100
AcDbSymbolTableRecord
100
AcDbLinetypeTableRecord
  2
DOT2
 70
     0
  3
Dot (.5x) ........................................
 72
    65
 73
     2
 40
0.635
 49
0.0
 74
     0
 49
-0.635
 74
     0
  0
ENDTAB
  0
TABLE
  2
LAYER
  5
2
330
0
100
AcDbSymbolTable
 70
     1
  0
LAYER
  5
10
330
2
100
AcDbSymbolTableRecord
100
AcDbLayerTableRecord
  2
0
 70
     0
 62
     7
  6
Continuous
370
    -3
390
F
  0
ENDTAB
  0
TABLE
  2
STYLE
  5
3
330
0
100
AcDbSymbolTable
 70
     1
  0
STYLE
  5
11
330
3
100
AcDbSymbolTableRecord
100
AcDbTextStyleTableRecord
  2
Standard
 70
     0
 40
0.0
 41
1.0
 50
0.0
 71
     0
 42
3.5
  3
txt
  4

  0
ENDTAB
  0
TABLE
  2
VIEW
  5
6
330
0
100
AcDbSymbolTable
 70
     0
  0
ENDTAB
  0
TABLE
  2
UCS
  5
7
330
0
100
AcDbSymbolTable
 70
     0
  0
ENDTAB
  0
TABLE
  2
APPID
  5
9
330
0
100
AcDbSymbolTable
 70
     1
  0
APPID
  5
12
330
9
100
AcDbSymbolTableRecord
100
AcDbRegAppTableRecord
  2
ACAD
 70
     0
  0
ENDTAB
  0
TABLE
  2
DIMSTYLE
  5
A
330
0
100
AcDbSymbolTable
 70
     1
100
AcDbDimStyleTable
  0
DIMSTYLE
105
27
330
A
100
AcDbSymbolTableRecord
100
AcDbDimStyleTableRecord
  2
ISO-25
 70
     0
 41
2.5
 42
0.625
 43
3.75
 44
1.25
 73
     0
 74
     0
 77
     1
 78
     8
140
2.5
141
2.5
143
0.0393700787
147
0.625
171
     3
172
     1
178
     0
271
     2
272
     2
274
     3
278
    44
283
     0
284
     8
340
11
  0
ENDTAB
  0
TABLE
  2
BLOCK_RECORD
  5
1
330
0
100
AcDbSymbolTable
 70
     8
  0
BLOCK_RECORD
  5
1F
330
1
100
AcDbSymbolTableRecord
100
AcDbBlockTableRecord
  2
*Model_Space
340
22
  0
BLOCK_RECORD
  5
113
330
1
100
AcDbSymbolTableRecord
100
AcDbBlockTableRecord
  2
*Paper_Space
340
114
  0
BLOCK_RECORD
  5
1B
330
1
100
AcDbSymbolTableRecord
100
AcDbBlockTableRecord
  2
*Paper_Space0
340
1E
  0
BLOCK_RECORD
  5
23
330
1
100
AcDbSymbolTableRecord
100
AcDbBlockTableRecord
  2
*Paper_Space1
340
26
  0
BLOCK_RECORD
  5
CA
330
1
100
AcDbSymbolTableRecord
100
AcDbBlockTableRecord
  2
*Paper_Space2
340
CB
  0
BLOCK_RECORD
  5
EE
330
1
100
AcDbSymbolTableRecord
100
AcDbBlockTableRecord
  2
*Paper_Space3
340
EF
  0
BLOCK_RECORD
  5
137
330
1
100
AcDbSymbolTableRecord
100
AcDbBlockTableRecord
  2
*Paper_Space4
340
138
  0
BLOCK_RECORD
  5
15E
330
1
100
AcDbSymbolTableRecord
100
AcDbBlockTableRecord
  2
*Paper_Space5
340
15F
  0
BLOCK_RECORD
  5
19B
330
1
100
AcDbSymbolTableRecord
100
AcDbBlockTableRecord
  2
*Paper_Space6
340
19C
  0
BLOCK_RECORD
  5
1DE
330
1
100
AcDbSymbolTableRecord
100
AcDbBlockTableRecord
  2
*Paper_Space7
340
1DF
  0
ENDTAB
  0
ENDSEC
  0
SECTION
  2
BLOCKS
  0
BLOCK
  5
20
330
1F
100
AcDbEntity
  8
0
100
AcDbBlockBegin
  2
*Model_Space
 70
     0
 10
0.0
 20
0.0
 30
0.0
  3
*Model_Space
  1

  0
ENDBLK
  5
21
330
1F
100
AcDbEntity
  8
0
100
AcDbBlockEnd
  0
BLOCK
  5
115
330
113
100
AcDbEntity
 67
     1
  8
0
100
AcDbBlockBegin
  2
*Paper_Space
 70
     0
 10
0.0
 20
0.0
 30
0.0
  3
*Paper_Space
  1

  0
ENDBLK
  5
116
330
113
100
AcDbEntity
 67
     1
  8
0
100
AcDbBlockEnd
  0
BLOCK
  5
1C
330
1B
100
AcDbEntity
  8
0
100
AcDbBlockBegin
  2
*Paper_Space0
 70
     0
 10
0.0
 20
0.0
 30
0.0
  3
*Paper_Space0
  1

  0
CIRCLE
  5
93
330
1B
100
AcDbEntity
  8
0
  6
Continuous
 62
     7
370
    15
100
AcDbCircle
 10
-4.0
 20
0.0
 30
0.0
 40
3.000000000000004
  0
LINE
  5
9C
330
1B
100
AcDbEntity
  8
0
  6
Continuous
 62
     7
370
    15
100
AcDbLine
 10
9.5
 20
-9.0
 30
0.0
 11
9.0
 21
-9.5
 31
0.0
  0
LINE
  5
9D
330
1B
100
AcDbEntity
  8
0
  6
Continuous
 62
     7
370
    15
100
AcDbLine
 10
9.0
 20
-9.5
 30
0.0
 11
9.0
 21
9.5
 31
0.0
  0
LINE
  5
9E
330
1B
100
AcDbEntity
  8
0
  6
Continuous
 62
     7
370
    15
100
AcDbLine
 10
-9.0
 20
9.5
 30
0.0
 11
-9.0
 21
-9.5
 31
0.0
  0
LINE
  5
9F
330
1B
100
AcDbEntity
  8
0
  6
Continuous
 62
     7
370
    15
100
AcDbLine
 10
-9.5
 20
-9.0
 30
0.0
 11
9.5
 21
-9.0
 31
0.0
  0
LINE
  5
A0
330
1B
100
AcDbEntity
  8
0
  6
Continuous
 62
     7
370
    15
100
AcDbLine
 10
-9.5
 20
-9.0
 30
0.0
 11
-9.5
 21
9.0
 31
0.0
  0
LINE
  5
A1
330
1B
100
AcDbEntity
  8
0
  6
Continuous
 62
     7
370
    15
100
AcDbLine
 10
9.5
 20
9.0
 30
0.0
 11
-9.5
 21
9.0
 31
0.0
  0
LINE
  5
A2
330
1B
100
AcDbEntity
  8
0
  6
Continuous
 62
     7
370
    15
100
AcDbLine
 10
9.0
 20
-9.5
 30
0.0
 11
-9.0
 21
-9.5
 31
0.0
  0
LINE
  5
A3
330
1B
100
AcDbEntity
  8
0
  6
Continuous
 62
     7
370
    15
100
AcDbLine
 10
-9.0
 20
9.5
 30
0.0
 11
9.0
 21
9.5
 31
0.0
  0
LINE
  5
A4
330
1B
100
AcDbEntity
  8
0
  6
Continuous
 62
     7
370
    15
100
AcDbLine
 10
-9.5
 20
9.0
 30
0.0
 11
-9.0
 21
9.5
 31
0.0
  0
LINE
  5
A5
330
1B
100
AcDbEntity
  8
0
  6
Continuous
 62
     7
370
    15
100
AcDbLine
 10
-9.0
 20
-9.5
 30
0.0
 11
-9.5
 21
-9.0
 31
0.0
  0
LINE
  5
A6
330
1B
100
AcDbEntity
  8
0
  6
Continuous
 62
     7
370
    15
100
AcDbLine
 10
9.5
 20
9.0
 30
0.0
 11
9.5
 21
-9.0
 31
0.0
  0
LINE
  5
A7
330
1B
100
AcDbEntity
  8
0
  6
Continuous
 62
     7
370
    15
100
AcDbLine
 10
9.0
 20
9.5
 30
0.0
 11
9.5
 21
9.0
 31
0.0
  0
VIEWPORT
  5
21C
330
1B
100
AcDbEntity
  8
0
100
AcDbViewport
 10
0.0
 20
0.0
 30
0.0
 40
243.84
 41
204.216
 68
     1
 69
     1
 12
-0.5520730357
 22
-2.1901575134
 13
0.0
 23
0.0
 14
10.0
 24
10.0
 15
10.0
 25
10.0
 16
0.0
 26
0.0
 36
1.0
 17
0.0
 27
0.0
 37
0.0
 42
50.0
 43
0.0
 44
0.0
 45
26.8312431587
 50
0.0
 51
0.0
 72
   100
 90
   557152
  1

281
     0
 71
     1
 74
     0
110
0.0
120
0.0
130
0.0
111
1.0
121
0.0
131
0.0
112
0.0
122
1.0
132
0.0
 79
     0
146
0.0
  0
ENDBLK
  5
1D
330
1B
100
AcDbEntity
  8
0
100
AcDbBlockEnd
  0
BLOCK
  5
24
330
23
100
AcDbEntity
  8
0
100
AcDbBlockBegin
  2
*Paper_Space1
 70
     0
 10
0.0
 20
0.0
 30
0.0
  3
*Paper_Space1
  1

  0
CIRCLE
  5
A8
330
23
100
AcDbEntity
  8
0
  6
Continuous
 62
     7
370
    15
100
AcDbCircle
 10
-4.0
 20
5.0
 30
0.0
 40
1.499999999999999
  0
CIRCLE
  5
A9
330
23
100
AcDbEntity
  8
0
  6
Continuous
 62
     7
370
    15
100
AcDbCircle
 10
4.0
 20
5.0
 30
0.0
 40
3.175000000000002
  0
LINE
  5
BE
330
23
100
AcDbEntity
  8
0
  6
Continuous
 62
     7
370
    15
100
AcDbLine
 10
9.5
 20
9.5
 30
0.0
 11
-9.5
 21
9.5
 31
0.0
  0
LINE
  5
BF
330
23
100
AcDbEntity
  8
0
  6
Continuous
 62
     7
370
    15
100
AcDbLine
 10
9.0
 20
0.0
 30
0.0
 11
9.0
 21
10.0
 31
0.0
  0
LINE
  5
C0
330
23
100
AcDbEntity
  8
0
  6
Continuous
 62
     7
370
    15
100
AcDbLine
 10
-9.5
 20
0.5
 30
0.0
 11
9.5
 21
0.5
 31
0.0
  0
LINE
  5
C1
330
23
100
AcDbEntity
  8
0
  6
Continuous
 62
     7
370
    15
100
AcDbLine
 10
-9.0
 20
10.0
 30
0.0
 11
-9.0
 21
0.0
 31
0.0
  0
LINE
  5
C2
330
23
100
AcDbEntity
  8
0
  6
Continuous
 62
     7
370
    15
100
AcDbLine
 10
-9.0
 20
10.0
 30
0.0
 11
9.0
 21
10.0
 31
0.0
  0
LINE
  5
C3
330
23
100
AcDbEntity
  8
0
  6
Continuous
 62
     7
370
    15
100
AcDbLine
 10
-9.0
 20
10.0
 30
0.0
 11
-9.5
 21
9.5
 31
0.0
  0
LINE
  5
C4
330
23
100
AcDbEntity
  8
0
  6
Continuous
 62
     7
370
    15
100
AcDbLine
 10
9.5
 20
9.5
 30
0.0
 11
9.5
 21
0.5
 31
0.0
  0
LINE
  5
C5
330
23
100
AcDbEntity
  8
0
  6
Continuous
 62
     7
370
    15
100
AcDbLine
 10
-9.5
 20
0.5
 30
0.0
 11
-9.5
 21
9.5
 31
0.0
  0
LINE
  5
C6
330
23
100
AcDbEntity
  8
0
  6
Continuous
 62
     7
370
    15
100
AcDbLine
 10
-9.5
 20
0.5
 30
0.0
 11
-9.0
 21
0.0
 31
0.0
  0
LINE
  5
C7
330
23
100
AcDbEntity
  8
0
  6
Continuous
 62
     7
370
    15
100
AcDbLine
 10
9.0
 20
0.0
 30
0.0
 11
9.5
 21
0.5
 31
0.0
  0
LINE
  5
C8
330
23
100
AcDbEntity
  8
0
  6
Continuous
 62
     7
370
    15
100
AcDbLine
 10
9.5
 20
9.5
 30
0.0
 11
9.0
 21
10.0
 31
0.0
  0
LINE
  5
C9
330
23
100
AcDbEntity
  8
0
  6
Continuous
 62
     7
370
    15
100
AcDbLine
 10
9.0
 20
0.0
 30
0.0
 11
-9.0
 21
0.0
 31
0.0
  0
VIEWPORT
  5
21D
330
23
100
AcDbEntity
  8
0
100
AcDbViewport
 10
0.0
 20
0.0
 30
0.0
 40
243.84
 41
204.216
 68
     1
 69
     1
 12
-0.5520730357
 22
-2.1901575134
 13
0.0
 23
0.0
 14
10.0
 24
10.0
 15
10.0
 25
10.0
 16
0.0
 26
0.0
 36
1.0
 17
0.0
 27
0.0
 37
0.0
 42
50.0
 43
0.0
 44
0.0
 45
26.8312431587
 50
0.0
 51
0.0
 72
   100
 90
   557152
  1

281
     0
 71
     1
 74
     0
110
0.0
120
0.0
130
0.0
111
1.0
121
0.0
131
0.0
112
0.0
122
1.0
132
0.0
 79
     0
146
0.0
  0
ENDBLK
  5
25
330
23
100
AcDbEntity
  8
0
100
AcDbBlockEnd
  0
BLOCK
  5
CC
330
CA
100
AcDbEntity
  8
0
100
AcDbBlockBegin
  2
*Paper_Space2
 70
     0
 10
0.0
 20
0.0
 30
0.0
  3
*Paper_Space2
  1

  0
LINE
  5
E2
330
CA
100
AcDbEntity
  8
0
  6
Continuous
 62
     7
370
    15
100
AcDbLine
 10
9.5
 20
9.5
 30
0.0
 11
-9.5
 21
9.5
 31
0.0
  0
LINE
  5
E3
330
CA
100
AcDbEntity
  8
0
  6
Continuous
 62
     7
370
    15
100
AcDbLine
 10
-9.0
 20
10.0
 30
0.0
 11
-9.5
 21
9.5
 31
0.0
  0
LINE
  5
E4
330
CA
100
AcDbEntity
  8
0
  6
Continuous
 62
     7
370
    15
100
AcDbLine
 10
-9.0
 20
10.0
 30
0.0
 11
-9.0
 21
0.0
 31
0.0
  0
LINE
  5
E5
330
CA
100
AcDbEntity
  8
0
  6
Continuous
 62
     7
370
    15
100
AcDbLine
 10
9.0
 20
0.0
 30
0.0
 11
9.0
 21
10.0
 31
0.0
  0
LINE
  5
E6
330
CA
100
AcDbEntity
  8
0
  6
Continuous
 62
     7
370
    15
100
AcDbLine
 10
-9.5
 20
0.5
 30
0.0
 11
9.5
 21
0.5
 31
0.0
  0
LINE
  5
E7
330
CA
100
AcDbEntity
  8
0
  6
Continuous
 62
     7
370
    15
100
AcDbLine
 10
-9.5
 20
0.5
 30
0.0
 11
-9.5
 21
9.5
 31
0.0
  0
LINE
  5
E8
330
CA
100
AcDbEntity
  8
0
  6
Continuous
 62
     7
370
    15
100
AcDbLine
 10
-9.0
 20
10.0
 30
0.0
 11
9.0
 21
10.0
 31
0.0
  0
LINE
  5
E9
330
CA
100
AcDbEntity
  8
0
  6
Continuous
 62
     7
370
    15
100
AcDbLine
 10
9.0
 20
0.0
 30
0.0
 11
-9.0
 21
0.0
 31
0.0
  0
LINE
  5
EA
330
CA
100
AcDbEntity
  8
0
  6
Continuous
 62
     7
370
    15
100
AcDbLine
 10
-9.0
 20
0.0
 30
0.0
 11
-9.5
 21
0.5
 31
0.0
  0
LINE
  5
EB
330
CA
100
AcDbEntity
  8
0
  6
Continuous
 62
     7
370
    15
100
AcDbLine
 10
9.5
 20
9.5
 30
0.0
 11
9.5
 21
0.5
 31
0.0
  0
LINE
  5
EC
330
CA
100
AcDbEntity
  8
0
  6
Continuous
 62
     7
370
    15
100
AcDbLine
 10
9.0
 20
0.0
 30
0.0
 11
9.5
 21
0.5
 31
0.0
  0
LINE
  5
ED
330
CA
100
AcDbEntity
  8
0
  6
Continuous
 62
     7
370
    15
100
AcDbLine
 10
9.5
 20
9.5
 30
0.0
 11
9.0
 21
10.0
 31
0.0
  0
VIEWPORT
  5
21E
330
CA
100
AcDbEntity
  8
0
100
AcDbViewport
 10
0.0
 20
0.0
 30
0.0
 40
243.84
 41
204.216
 68
     1
 69
     1
 12
-0.5520730357
 22
-2.1901575134
 13
0.0
 23
0.0
 14
10.0
 24
10.0
 15
10.0
 25
10.0
 16
0.0
 26
0.0
 36
1.0
 17
0.0
 27
0.0
 37
0.0
 42
50.0
 43
0.0
 44
0.0
 45
26.8312431587
 50
0.0
 51
0.0
 72
   100
 90
   557152
  1

281
     0
 71
     1
 74
     0
110
0.0
120
0.0
130
0.0
111
1.0
121
0.0
131
0.0
112
0.0
122
1.0
132
0.0
 79
     0
146
0.0
  0
ENDBLK
  5
CD
330
CA
100
AcDbEntity
  8
0
100
AcDbBlockEnd
  0
BLOCK
  5
F0
330
EE
100
AcDbEntity
  8
0
100
AcDbBlockBegin
  2
*Paper_Space3
 70
     0
 10
0.0
 20
0.0
 30
0.0
  3
*Paper_Space3
  1

  0
CIRCLE
  5
FA
330
EE
100
AcDbEntity
  8
0
  6
Continuous
 62
     7
370
    15
100
AcDbCircle
 10
-4.0
 20
5.0
 30
0.0
 40
3.175000000000002
  0
LINE
  5
107
330
EE
100
AcDbEntity
  8
0
  6
Continuous
 62
     7
370
    15
100
AcDbLine
 10
9.5
 20
9.5
 30
0.0
 11
9.5
 21
0.5
 31
0.0
  0
LINE
  5
108
330
EE
100
AcDbEntity
  8
0
  6
Continuous
 62
     7
370
    15
100
AcDbLine
 10
-9.5
 20
0.5
 30
0.0
 11
9.5
 21
0.5
 31
0.0
  0
LINE
  5
109
330
EE
100
AcDbEntity
  8
0
  6
Continuous
 62
     7
370
    15
100
AcDbLine
 10
9.0
 20
0.0
 30
0.0
 11
9.0
 21
10.0
 31
0.0
  0
LINE
  5
10A
330
EE
100
AcDbEntity
  8
0
  6
Continuous
 62
     7
370
    15
100
AcDbLine
 10
9.5
 20
9.5
 30
0.0
 11
-9.5
 21
9.5
 31
0.0
  0
LINE
  5
10B
330
EE
100
AcDbEntity
  8
0
  6
Continuous
 62
     7
370
    15
100
AcDbLine
 10
9.0
 20
0.0
 30
0.0
 11
-9.0
 21
0.0
 31
0.0
  0
LINE
  5
10C
330
EE
100
AcDbEntity
  8
0
  6
Continuous
 62
     7
370
    15
100
AcDbLine
 10
-9.0
 20
10.0
 30
0.0
 11
-9.0
 21
0.0
 31
0.0
  0
LINE
  5
10D
330
EE
100
AcDbEntity
  8
0
  6
Continuous
 62
     7
370
    15
100
AcDbLine
 10
-9.0
 20
10.0
 30
0.0
 11
9.0
 21
10.0
 31
0.0
  0
LINE
  5
10E
330
EE
100
AcDbEntity
  8
0
  6
Continuous
 62
     7
370
    15
100
AcDbLine
 10
9.0
 20
10.0
 30
0.0
 11
9.5
 21
9.5
 31
0.0
  0
LINE
  5
10F
330
EE
100
AcDbEntity
  8
0
  6
Continuous
 62
     7
370
    15
100
AcDbLine
 10
9.5
 20
0.5
 30
0.0
 11
9.0
 21
0.0
 31
0.0
  0
LINE
  5
110
330
EE
100
AcDbEntity
  8
0
  6
Continuous
 62
     7
370
    15
100
AcDbLine
 10
-9.5
 20
9.5
 30
0.0
 11
-9.0
 21
10.0
 31
0.0
  0
LINE
  5
111
330
EE
100
AcDbEntity
  8
0
  6
Continuous
 62
     7
370
    15
100
AcDbLine
 10
-9.0
 20
0.0
 30
0.0
 11
-9.5
 21
0.5
 31
0.0
  0
LINE
  5
112
330
EE
100
AcDbEntity
  8
0
  6
Continuous
 62
     7
370
    15
100
AcDbLine
 10
-9.5
 20
0.5
 30
0.0
 11
-9.5
 21
9.5
 31
0.0
  0
VIEWPORT
  5
21F
330
EE
100
AcDbEntity
  8
0
100
AcDbViewport
 10
0.0
 20
0.0
 30
0.0
 40
243.84
 41
204.216
 68
     1
 69
     1
 12
-0.5520730357
 22
-2.1901575134
 13
0.0
 23
0.0
 14
10.0
 24
10.0
 15
10.0
 25
10.0
 16
0.0
 26
0.0
 36
1.0
 17
0.0
 27
0.0
 37
0.0
 42
50.0
 43
0.0
 44
0.0
 45
26.8312431587
 50
0.0
 51
0.0
 72
   100
 90
   557152
  1

281
     0
 71
     1
 74
     0
110
0.0
120
0.0
130
0.0
111
1.0
121
0.0
131
0.0
112
0.0
122
1.0
132
0.0
 79
     0
146
0.0
  0
ENDBLK
  5
F1
330
EE
100
AcDbEntity
  8
0
100
AcDbBlockEnd
  0
BLOCK
  5
139
330
137
100
AcDbEntity
  8
0
100
AcDbBlockBegin
  2
*Paper_Space4
 70
     0
 10
0.0
 20
0.0
 30
0.0
  3
*Paper_Space4
  1

  0
CIRCLE
  5
13F
330
137
100
AcDbEntity
  8
0
  6
Continuous
 62
     7
370
    15
100
AcDbCircle
 10
4.0
 20
0.0
 30
0.0
 40
1.500000000000002
  0
CIRCLE
  5
140
330
137
100
AcDbEntity
  8
0
  6
Continuous
 62
     7
370
    15
100
AcDbCircle
 10
-4.0
 20
0.0
 30
0.0
 40
3.250000000000001
  0
CIRCLE
  5
151
330
137
100
AcDbEntity
  8
0
  6
Continuous
 62
     7
370
    15
100
AcDbCircle
 10
-4.0
 20
0.0
 30
0.0
 40
3.000000000000004
  0
LINE
  5
152
330
137
100
AcDbEntity
  8
0
  6
Continuous
 62
     7
370
    15
100
AcDbLine
 10
-9.0
 20
9.5
 30
0.0
 11
9.0
 21
9.5
 31
0.0
  0
LINE
  5
153
330
137
100
AcDbEntity
  8
0
  6
Continuous
 62
     7
370
    15
100
AcDbLine
 10
9.0
 20
-9.5
 30
0.0
 11
9.0
 21
9.5
 31
0.0
  0
LINE
  5
154
330
137
100
AcDbEntity
  8
0
  6
Continuous
 62
     7
370
    15
100
AcDbLine
 10
9.5
 20
9.0
 30
0.0
 11
-9.5
 21
9.0
 31
0.0
  0
LINE
  5
155
330
137
100
AcDbEntity
  8
0
  6
Continuous
 62
     7
370
    15
100
AcDbLine
 10
-9.0
 20
9.5
 30
0.0
 11
-9.0
 21
-9.5
 31
0.0
  0
LINE
  5
156
330
137
100
AcDbEntity
  8
0
  6
Continuous
 62
     7
370
    15
100
AcDbLine
 10
-9.5
 20
-9.0
 30
0.0
 11
9.5
 21
-9.0
 31
0.0
  0
LINE
  5
157
330
137
100
AcDbEntity
  8
0
  6
Continuous
 62
     7
370
    15
100
AcDbLine
 10
9.5
 20
9.0
 30
0.0
 11
9.0
 21
9.5
 31
0.0
  0
LINE
  5
158
330
137
100
AcDbEntity
  8
0
  6
Continuous
 62
     7
370
    15
100
AcDbLine
 10
9.0
 20
-9.5
 30
0.0
 11
-9.0
 21
-9.5
 31
0.0
  0
LINE
  5
159
330
137
100
AcDbEntity
  8
0
  6
Continuous
 62
     7
370
    15
100
AcDbLine
 10
-9.5
 20
-9.0
 30
0.0
 11
-9.0
 21
-9.5
 31
0.0
  0
LINE
  5
15A
330
137
100
AcDbEntity
  8
0
  6
Continuous
 62
     7
370
    15
100
AcDbLine
 10
9.0
 20
-9.5
 30
0.0
 11
9.5
 21
-9.0
 31
0.0
  0
LINE
  5
15B
330
137
100
AcDbEntity
  8
0
  6
Continuous
 62
     7
370
    15
100
AcDbLine
 10
-9.5
 20
-9.0
 30
0.0
 11
-9.5
 21
9.0
 31
0.0
  0
LINE
  5
15C
330
137
100
AcDbEntity
  8
0
  6
Continuous
 62
     7
370
    15
100
AcDbLine
 10
9.5
 20
9.0
 30
0.0
 11
9.5
 21
-9.0
 31
0.0
  0
LINE
  5
15D
330
137
100
AcDbEntity
  8
0
  6
Continuous
 62
     7
370
    15
100
AcDbLine
 10
-9.0
 20
9.5
 30
0.0
 11
-9.5
 21
9.0
 31
0.0
  0
VIEWPORT
  5
221
330
137
100
AcDbEntity
  8
0
100
AcDbViewport
 10
0.0
 20
0.0
 30
0.0
 40
243.84
 41
204.216
 68
     1
 69
     1
 12
-0.5520730357
 22
-2.1901575134
 13
0.0
 23
0.0
 14
10.0
 24
10.0
 15
10.0
 25
10.0
 16
0.0
 26
0.0
 36
1.0
 17
0.0
 27
0.0
 37
0.0
 42
50.0
 43
0.0
 44
0.0
 45
26.8312431587
 50
0.0
 51
0.0
 72
   100
 90
   557152
  1

281
     0
 71
     1
 74
     0
110
0.0
120
0.0
130
0.0
111
1.0
121
0.0
131
0.0
112
0.0
122
1.0
132
0.0
 79
     0
146
0.0
  0
ENDBLK
  5
13A
330
137
100
AcDbEntity
  8
0
100
AcDbBlockEnd
  0
BLOCK
  5
160
330
15E
100
AcDbEntity
  8
0
100
AcDbBlockBegin
  2
*Paper_Space5
 70
     0
 10
0.0
 20
0.0
 30
0.0
  3
*Paper_Space5
  1

  0
LWPOLYLINE
  5
170
330
15E
100
AcDbEntity
  8
0
  6
Continuous
 62
     7
370
    15
100
AcDbPolyline
 90
       55
 70
   128
 43
0.0
 10
-10.6066017178
 20
2.4498878358
 10
-10.5994299132
 20
2.5879395446
 10
-10.5780114856
 20
2.7158439515
 10
-10.5426360826
 20
2.8318713689
 10
-10.4937820958
 20
2.9344527248
 10
-10.4321101916
 20
3.0222007825
 10
-10.3584543766
 20
3.0939289
 10
-10.2738107195
 20
3.1486670775
 10
-10.1793238805
 20
3.1856750752
 10
-10.0762716319
 20
3.2044524233
 10
-9.9660475787
 20
3.2047451905
 10
-9.8501423121
 20
3.1865494174
 10
-9.730123252
 20
3.1501111708
 10
-9.6076134502
 20
3.0959232155
 10
-9.4842696418
 20
3.0247183505
 10
-9.3617598401
 20
2.9374594996
 10
-9.2417407799
 20
2.8353266889
 10
-9.1258355133
 20
2.7197010896
 10
-9.0156114601
 20
2.5921463395
 10
-8.9125592116
 20
2.4543873978
 10
-8.8180723725
 20
2.3082872178
 10
-8.7334287154
 20
2.1558215539
 10
-8.6597729004
 20
1.9990522426
 10
-8.5981009962
 20
1.84009932
 10
-8.5492470094
 20
1.6811123515
 10
-8.5138716064
 20
1.5242413633
 10
-8.4924531789
 20
1.3716077663
 10
-8.4852813742
 20
1.225275668
 10
-8.4924531789
 20
1.0872239592
 10
-8.5138716064
 20
0.9593195523
 10
-8.5492470094
 20
0.843292135
 10
-8.5981009962
 20
0.740710779
 10
-8.6597729004
 20
0.6529627214
 10
-8.7334287154
 20
0.5812346039
 10
-8.8180723725
 20
0.5264964263
 10
-8.9125592116
 20
0.4894884286
 10
-9.0156114601
 20
0.4707110805
 10
-9.1258355133
 20
0.4704183134
 10
-9.2417407799
 20
0.4886140864
 10
-9.3617598401
 20
0.525052333
 10
-9.4842696418
 20
0.5792402883
 10
-9.6076134502
 20
0.6504451533
 10
-9.730123252
 20
0.7377040043
 10
-9.8501423121
 20
0.8398368149
 10
-9.9660475787
 20
0.9554624143
 10
-10.0762716319
 20
1.0830171644
 10
-10.1793238805
 20
1.2207761061
 10
-10.2738107195
 20
1.366876286
 10
-10.3584543766
 20
1.5193419499
 10
-10.4321101916
 20
1.6761112612
 10
-10.4937820958
 20
1.8350641839
 10
-10.5426360826
 20
1.9940511523
 10
-10.5780114856
 20
2.1509221406
 10
-10.5994299132
 20
2.3035557376
 10
-10.6066017178
 20
2.4498878358
  0
LWPOLYLINE
  5
171
330
15E
100
AcDbEntity
  8
0
  6
Continuous
 62
     7
370
    15
100
AcDbPolyline
 90
       81
 70
   128
 43
0.0
 10
-6.1341513268
 20
-0.1320028179
 10
-6.1272305436
 20
0.0674084447
 10
-6.1065108631
 20
0.2575997043
 10
-6.0721200289
 20
0.4373983686
 10
-6.024270072
 20
0.6056959192
 10
-5.9632560033
 20
0.7614547456
 10
-5.8894539947
 20
0.9037145429
 10
-5.8033190603
 20
1.031598232
 10
-5.7053822505
 20
1.1443173677
 10
-5.5962473783
 20
1.2411769988
 10
-5.4765872965
 20
1.3215799536
 10
-5.3471397494
 20
1.3850305211
 10
-5.208702824
 20
1.4311375074
 10
-5.06213003
 20
1.4596166477
 10
-4.9083250376
 20
1.4702923586
 10
-4.7482361055
 20
1.4630988207
 10
-4.5828502353
 20
1.4380803847
 10
-4.413187086
 20
1.3953912975
 10
-4.2402926871
 20
1.3352947515
 10
-4.0652329902
 20
1.2581612619
 10
-3.8890872965
 20
1.1644663824
 10
-3.7129416029
 20
1.0547877729
 10
-3.537881906
 20
0.9298016387
 10
-3.3649875071
 20
0.7902785608
 10
-3.1953243577
 20
0.6370787453
 10
-3.0299384875
 20
0.4711467202
 10
-2.8698495555
 20
0.2935055114
 10
-2.716044563
 20
0.1052503361
 10
-2.5694717691
 20
-0.0924581499
 10
-2.4310348437
 20
-0.2984010081
 10
-2.3015872965
 20
-0.5113085323
 10
-2.1819272148
 20
-0.7298680767
 10
-2.0727923426
 20
-0.9527321492
 10
-1.9748555328
 20
-1.1785267186
 10
-1.8887205983
 20
-1.4058596862
 10
-1.8149185898
 20
-1.6333294688
 10
-1.753904521
 20
-1.8595336395
 10
-1.7060545641
 20
-2.0830775744
 10
-1.6716637299
 20
-2.3025830507
 10
-1.6509440494
 20
-2.5166967442
 10
-1.6440232663
 20
-2.7240985729
 10
-1.6509440494
 20
-2.9235098354
 10
-1.6716637299
 20
-3.113701095
 10
-1.7060545641
 20
-3.2934997594
 10
-1.753904521
 20
-3.4617973099
 10
-1.8149185898
 20
-3.6175561363
 10
-1.8887205983
 20
-3.7598159336
 10
-1.9748555328
 20
-3.8876996228
 10
-2.0727923426
 20
-4.0004187584
 10
-2.1819272148
 20
-4.0972783895
 10
-2.3015872965
 20
-4.1776813443
 10
-2.4310348437
 20
-4.2411319118
 10
-2.5694717691
 20
-4.2872388981
 10
-2.716044563
 20
-4.3157180384
 10
-2.8698495555
 20
-4.3263937493
 10
-3.0299384875
 20
-4.3192002115
 10
-3.1953243577
 20
-4.2941817754
 10
-3.3649875071
 20
-4.2514926882
 10
-3.537881906
 20
-4.1913961422
 10
-3.7129416029
 20
-4.1142626527
 10
-3.8890872965
 20
-4.0205677731
 10
-4.0652329902
 20
-3.9108891637
 10
-4.2402926871
 20
-3.7859030295
 10
-4.413187086
 20
-3.6463799515
 10
-4.5828502353
 20
-3.4931801361
 10
-4.7482361055
 20
-3.3272481109
 10
-4.9083250376
 20
-3.1496069021
 10
-5.06213003
 20
-2.9613517268
 10
-5.208702824
 20
-2.7636432408
 10
-5.3471397494
 20
-2.5577003826
 10
-5.4765872965
 20
-2.3447928584
 10
-5.5962473783
 20
-2.126233314
 10
-5.7053822505
 20
-1.9033692415
 10
-5.8033190603
 20
-1.6775746722
 10
-5.8894539947
 20
-1.4502417046
 10
-5.9632560033
 20
-1.222771922
 10
-6.024270072
 20
-0.9965677513
 10
-6.0721200289
 20
-0.7730238164
 10
-6.1065108631
 20
-0.5535183401
 10
-6.1272305436
 20
-0.3394046465
 10
-6.1341513268
 20
-0.1320028179
  0
LWPOLYLINE
  5
174
330
15E
100
AcDbEntity
  8
0
  6
Continuous
 62
     7
370
    15
100
AcDbPolyline
 90
       78
 70
   128
 43
0.0
 10
-4.9497474683
 20
8.5736121748
 10
-4.7697816485
 20
8.4778697103
 10
-4.5768964346
 20
8.3909139881
 10
-4.3723754459
 20
8.3133236841
 10
-4.1575797359
 20
8.245615149
 10
-3.9339387346
 20
8.1882389719
 10
-3.7029407359
 20
8.1415769818
 10
-3.4661229934
 20
8.1059397066
 10
-3.2250614901
 20
8.0815643064
 10
-2.9813604506
 20
8.0686129956
 10
-2.736641665
 20
8.0671719629
 10
-2.4925336964
 20
8.0772507981
 10
-2.2506610433
 20
8.0987824284
 10
-2.012633328
 20
8.1316235642
 10
-1.7800345859
 20
8.1755556533
 10
-1.5544127232
 20
8.2302863347
 10
-1.3372692161
 20
8.2954513849
 10
-1.1300491189
 20
8.3706171411
 10
-0.9341314471
 20
8.4552833878
 10
-0.7508200005
 20
8.5488866849
 10
-0.5813346865
 20
8.6508041181
 10
-0.426803402
 20
8.7603574435
 10
-0.2882545271
 20
8.8768176019
 10
-0.1666100817
 20
8.9994095701
 10
-0.0626795896
 20
9.1273175188
 10
0.022845309
 20
9.2596902418
 10
0.08939546
 20
9.3956468204
 10
0.1365279831
 20
9.5342824859
 10
0.1639292191
 20
9.6746746409
 10
0.1714168173
 20
9.8158889989
 10
0.1589409491
 20
9.9569858014
 10
0.1265846392
 20
10.0970260727
 10
0.0745632136
 20
10.2350778677
 10
0.0032228662
 20
10.3702224746
 10
-0.0869616447
 20
10.5015605283
 10
-0.195390156
 20
10.6282179957
 10
-0.321341094
 20
10.7493519923
 10
-0.4639762758
 20
10.8641563913
 10
-0.622346488
 20
10.9718671884
 10
-0.7953978028
 20
11.071767586
 10
-0.9819785923
 20
11.1631927634
 10
-1.1808471921
 20
11.2455343012
 10
-1.3906801646
 20
11.31824423
 10
-1.6100811059
 20
11.3808386772
 10
-1.8375899389
 20
11.4329010872
 10
-2.0716926299
 20
11.4740849931
 10
-2.3108312641
 20
11.5041163229
 10
-2.5534144134
 20
11.522795223
 10
-2.7978277269
 20
11.5299973884
 10
-3.0424446743
 20
11.52567489
 10
-3.2856373703
 20
11.5098564931
 10
-3.5257874075
 20
11.4826474667
 10
-3.7612966271
 20
11.4442288823
 10
-3.9905977541
 20
11.3948564093
 10
-4.2121648272
 20
11.3348586133
 10
-4.4245233543
 20
11.2646347697
 10
-4.6262601243
 20
11.1846522067
 10
-4.8160326123
 20
11.095443195
 10
-4.9925779137
 20
10.9976014059
 10
-5.1547211487
 20
10.8917779603
 10
-5.3013832807
 20
10.7786770957
 10
-5.4315882976
 20
10.6590514799
 10
-5.5444697063
 20
10.5336972015
 10
-5.6392762997
 20
10.4034484726
 10
-5.7153771557
 20
10.2691720769
 10
-5.7722658355
 20
10.1317616018
 10
-5.8095637544
 20
9.9921314912
 10
-5.8270227009
 20
9.8512109606
 10
-5.8245264886
 20
9.7099378127
 10
-5.8020917293
 20
9.5692521972
 10
-5.7598677227
 20
9.4300903535
 10
-5.6981354625
 20
9.2933783807
 10
-5.6173057669
 20
9.1600260746
 10
-5.517916544
 20
9.0309208726
 10
-5.4006292127
 20
8.9069219486
 10
-5.266224301
 20
8.788854495
 10
-5.1155962512
 20
8.6775042311
 10
-4.9497474683
 20
8.5736121748
  0
LINE
  5
181
330
15E
100
AcDbEntity
  8
0
  6
Continuous
 62
     7
370
    15
100
AcDbLine
 10
0.3535533906
 20
0.2053626786
 30
0.0
 11
-0.3535533906
 21
0.2053626786
 31
0.0
  0
LINE
  5
182
330
15E
100
AcDbEntity
  8
0
  6
Continuous
 62
     7
370
    15
100
AcDbLine
 10
0.0
 20
0.8177351125
 30
0.0
 11
-0.3535533906
 21
0.2053626786
 31
0.0
  0
LINE
  5
183
330
15E
100
AcDbEntity
  8
0
  6
Continuous
 62
     7
370
    15
100
AcDbLine
 10
0.3535533906
 20
0.2053626786
 30
0.0
 11
0.0
 21
0.8177351125
 31
0.0
  0
LINE
  5
184
330
15E
100
AcDbEntity
  8
0
  6
Continuous
 62
     7
370
    15
100
AcDbLine
 10
0.3535533906
 20
0.2053626786
 30
0.0
 11
0.3535533906
 21
-7.1435046284
 31
0.0
  0
LINE
  5
185
330
15E
100
AcDbEntity
  8
0
  6
Continuous
 62
     7
370
    15
100
AcDbLine
 10
0.3535533906
 20
-7.1435046284
 30
0.0
 11
-0.3535533906
 21
-7.1435046284
 31
0.0
  0
LINE
  5
186
330
15E
100
AcDbEntity
  8
0
  6
Continuous
 62
     7
370
    15
100
AcDbLine
 10
-0.3535533906
 20
-7.1435046284
 30
0.0
 11
-0.3535533906
 21
0.2053626786
 31
0.0
  0
LINE
  5
187
330
15E
100
AcDbEntity
  8
0
  6
Continuous
 62
     7
370
    15
100
AcDbLine
 10
13.081475452
 20
7.553035685
 30
0.0
 11
0.3535533906
 21
0.2053626786
 31
0.0
  0
LINE
  5
188
330
15E
100
AcDbEntity
  8
0
  6
Continuous
 62
     7
370
    15
100
AcDbLine
 10
0.0
 20
0.8177351125
 30
0.0
 11
12.7279220614
 21
8.1654081189
 31
0.0
  0
LINE
  5
189
330
15E
100
AcDbEntity
  8
0
  6
Continuous
 62
     7
370
    15
100
AcDbLine
 10
13.081475452
 20
7.553035685
 30
0.0
 11
12.7279220614
 21
8.1654081189
 31
0.0
  0
LINE
  5
18A
330
15E
100
AcDbEntity
  8
0
  6
Continuous
 62
     7
370
    15
100
AcDbLine
 10
-0.3535533906
 20
0.2053626786
 30
0.0
 11
-13.081475452
 21
7.553035685
 31
0.0
  0
LINE
  5
18B
330
15E
100
AcDbEntity
  8
0
  6
Continuous
 62
     7
370
    15
100
AcDbLine
 10
-13.081475452
 20
7.553035685
 30
0.0
 11
-12.7279220614
 21
8.1654081189
 31
0.0
  0
LINE
  5
18C
330
15E
100
AcDbEntity
  8
0
  6
Continuous
 62
     7
370
    15
100
AcDbLine
 10
-12.7279220614
 20
8.1654081189
 30
0.0
 11
0.0
 21
0.8177351125
 31
0.0
  0
LINE
  5
18D
330
15E
100
AcDbEntity
  8
0
  6
Continuous
 62
     7
370
    15
100
AcDbLine
 10
13.081475452
 20
0.204168378
 30
0.0
 11
13.081475452
 21
7.9612397409
 31
0.0
  0
LINE
  5
18E
330
15E
100
AcDbEntity
  8
0
  6
Continuous
 62
     7
370
    15
100
AcDbLine
 10
0.3535533906
 20
-7.1435046284
 30
0.0
 11
13.081475452
 21
0.204168378
 31
0.0
  0
LINE
  5
18F
330
15E
100
AcDbEntity
  8
0
  6
Continuous
 62
     7
370
    15
100
AcDbLine
 10
-13.081475452
 20
0.204168378
 30
0.0
 11
-0.3535533906
 21
-7.1435046284
 31
0.0
  0
LINE
  5
190
330
15E
100
AcDbEntity
  8
0
  6
Continuous
 62
     7
370
    15
100
AcDbLine
 10
-13.081475452
 20
7.9612397409
 30
0.0
 11
-13.081475452
 21
0.204168378
 31
0.0
  0
LINE
  5
191
330
15E
100
AcDbEntity
  8
0
  6
Continuous
 62
     7
370
    15
100
AcDbLine
 10
0.0
 20
15.5130811253
 30
0.0
 11
-12.7279220614
 21
8.1654081189
 31
0.0
  0
LINE
  5
192
330
15E
100
AcDbEntity
  8
0
  6
Continuous
 62
     7
370
    15
100
AcDbLine
 10
12.7279220614
 20
8.1654081189
 30
0.0
 11
0.0
 21
15.5130811253
 31
0.0
  0
LINE
  5
193
330
15E
100
AcDbEntity
  8
0
  6
Continuous
 62
     7
370
    15
100
AcDbLine
 10
0.0
 20
-7.3476730064
 30
0.0
 11
-0.3535533906
 21
-7.1435046284
 31
0.0
  0
LINE
  5
194
330
15E
100
AcDbEntity
  8
0
  6
Continuous
 62
     7
370
    15
100
AcDbLine
 10
0.0
 20
-7.3476730064
 30
0.0
 11
0.3535533906
 21
-7.1435046284
 31
0.0
  0
LINE
  5
195
330
15E
100
AcDbEntity
  8
0
  6
Continuous
 62
     7
370
    15
100
AcDbLine
 10
12.7279220614
 20
0.0
 30
0.0
 11
0.0
 21
-7.3476730064
 31
0.0
  0
LINE
  5
196
330
15E
100
AcDbEntity
  8
0
  6
Continuous
 62
     7
370
    15
100
AcDbLine
 10
12.7279220614
 20
0.0
 30
0.0
 11
13.081475452
 21
0.204168378
 31
0.0
  0
LINE
  5
197
330
15E
100
AcDbEntity
  8
0
  6
Continuous
 62
     7
370
    15
100
AcDbLine
 10
0.0
 20
-7.3476730064
 30
0.0
 11
-12.7279220614
 21
0.0
 31
0.0
  0
LINE
  5
198
330
15E
100
AcDbEntity
  8
0
  6
Continuous
 62
     7
370
    15
100
AcDbLine
 10
-13.081475452
 20
0.204168378
 30
0.0
 11
-12.7279220614
 21
0.0
 31
0.0
  0
LINE
  5
199
330
15E
100
AcDbEntity
  8
0
  6
Continuous
 62
     7
370
    15
100
AcDbLine
 10
13.081475452
 20
7.9612397409
 30
0.0
 11
12.7279220614
 21
8.1654081189
 31
0.0
  0
LINE
  5
19A
330
15E
100
AcDbEntity
  8
0
  6
Continuous
 62
     7
370
    15
100
AcDbLine
 10
-12.7279220614
 20
8.1654081189
 30
0.0
 11
-13.081475452
 21
7.9612397409
 31
0.0
  0
VIEWPORT
  5
222
330
15E
100
AcDbEntity
  8
0
100
AcDbViewport
 10
0.0
 20
0.0
 30
0.0
 40
243.84
 41
204.216
 68
     1
 69
     1
 12
-0.5520730357
 22
-2.1901575134
 13
0.0
 23
0.0
 14
10.0
 24
10.0
 15
10.0
 25
10.0
 16
0.0
 26
0.0
 36
1.0
 17
0.0
 27
0.0
 37
0.0
 42
50.0
 43
0.0
 44
0.0
 45
26.8312431587
 50
0.0
 51
0.0
 72
   100
 90
   557152
  1

281
     0
 71
     1
 74
     0
110
0.0
120
0.0
130
0.0
111
1.0
121
0.0
131
0.0
112
0.0
122
1.0
132
0.0
 79
     0
146
0.0
  0
ENDBLK
  5
161
330
15E
100
AcDbEntity
  8
0
100
AcDbBlockEnd
  0
BLOCK
  5
19D
330
19B
100
AcDbEntity
  8
0
100
AcDbBlockBegin
  2
*Paper_Space6
 70
     0
 10
0.0
 20
0.0
 30
0.0
  3
*Paper_Space6
  1

  0
LWPOLYLINE
  5
1AB
330
19B
100
AcDbEntity
  8
0
  6
Continuous
 62
     7
370
    15
100
AcDbPolyline
 90
       55
 70
   128
 43
0.0
 10
-9.2979058641
 20
1.2805133596
 10
-9.2889356856
 20
1.4273420321
 10
-9.2621464567
 20
1.5673092941
 10
-9.2179004555
 20
1.6985223285
 10
-9.1567960334
 20
1.819206704
 10
-9.0796595228
 20
1.9277303717
 10
-8.9875340628
 20
2.022625735
 10
-8.8816654921
 20
2.1026094969
 10
-8.7634855016
 20
2.1666000143
 10
-8.6345922728
 20
2.2137319252
 10
-8.4967288656
 20
2.2433678513
 10
-8.3517596461
 20
2.2551070176
 10
-8.2016450742
 20
2.248790672
 10
-8.0484151921
 20
2.2245042323
 10
-7.894142171
 20
2.1825761308
 10
-7.7409122889
 20
2.1235733733
 10
-7.590797717
 20
2.0482938707
 10
-7.4458284975
 20
1.9577556493
 10
-7.3079650903
 20
1.8531830831
 10
-7.1790718615
 20
1.7359903368
 10
-7.060891871
 20
1.6077622411
 10
-6.9550233003
 20
1.4702328612
 10
-6.8628978403
 20
1.3252620458
 10
-6.7857613297
 20
1.1748102767
 10
-6.7246569076
 20
1.0209121559
 10
-6.6804109064
 20
0.8656488914
 10
-6.6536216774
 20
0.7111201526
 10
-6.644651499
 20
0.5594156756
 10
-6.6536216774
 20
0.4125870031
 10
-6.6804109064
 20
0.2726197411
 10
-6.7246569076
 20
0.1414067068
 10
-6.7857613297
 20
0.0207223312
 10
-6.8628978403
 20
-0.0878013365
 10
-6.9550233003
 20
-0.1826966998
 10
-7.060891871
 20
-0.2626804617
 10
-7.1790718615
 20
-0.3266709791
 10
-7.3079650903
 20
-0.37380289
 10
-7.4458284975
 20
-0.4034388161
 10
-7.590797717
 20
-0.4151779824
 10
-7.7409122889
 20
-0.4088616368
 10
-7.894142171
 20
-0.3845751971
 10
-8.0484151921
 20
-0.3426470956
 10
-8.2016450742
 20
-0.2836443381
 10
-8.3517596461
 20
-0.2083648355
 10
-8.4967288656
 20
-0.1178266141
 10
-8.6345922728
 20
-0.0132540479
 10
-8.7634855016
 20
0.1039386984
 10
-8.8816654921
 20
0.2321667941
 10
-8.9875340628
 20
0.369696174
 10
-9.0796595228
 20
0.5146669894
 10
-9.1567960334
 20
0.6651187585
 10
-9.2179004555
 20
0.8190168793
 10
-9.2621464567
 20
0.9742801438
 10
-9.2889356856
 20
1.1288088826
 10
-9.2979058641
 20
1.2805133596
  0
LWPOLYLINE
  5
1AC
330
19B
100
AcDbEntity
  8
0
  6
Continuous
 62
     7
370
    15
100
AcDbPolyline
 90
       81
 70
   128
 43
0.0
 10
-3.7039612445
 20
-0.2398009242
 10
-3.6953050327
 20
-0.0286265832
 10
-3.6693897658
 20
0.176540652
 10
-3.6263752201
 20
0.3744358572
 10
-3.5665265945
 20
0.5638389426
 10
-3.4902128757
 20
0.7435821753
 10
-3.3979045631
 20
0.9125573783
 10
-3.2901707682
 20
1.0697227635
 10
-3.1676757057
 20
1.214109354
 10
-3.0311745983
 20
1.3448269584
 10
-2.8815090208
 20
1.4610696591
 10
-2.7196017113
 20
1.5621207814
 10
-2.546450882
 20
1.6473573114
 10
-2.3631240655
 20
1.7162537376
 10
-2.1707515326
 20
1.7683852905
 10
-1.9705193239
 20
1.803430562
 10
-1.7636619375
 20
1.8211734861
 10
-1.5514547181
 20
1.8215046719
 10
-1.3352059936
 20
1.8044220774
 10
-1.1162490094
 20
1.7700310227
 10
-0.8959337081
 20
1.7185435399
 10
-0.6756184068
 20
1.6502770665
 10
-0.4566614227
 20
1.565652488
 10
-0.2404126982
 20
1.4651915431
 10
-0.0282054787
 20
1.3495136069
 10
0.1786519077
 20
1.2193318724
 10
0.3788841164
 20
1.0754489532
 10
0.5712566493
 20
0.9187519355
 10
0.7545834658
 20
0.7502069083
 10
0.927734295
 20
0.5708530078
 10
1.0896416046
 20
0.3817960106
 10
1.2393071821
 20
0.1842015158
 10
1.3758082894
 20
-0.0207122408
 10
1.498303352
 20
-0.2316818977
 10
1.6060371468
 20
-0.4474067569
 10
1.6983454594
 20
-0.6665568029
 10
1.7746591782
 20
-0.8877809027
 10
1.8345078038
 20
-1.1097151362
 10
1.8775223496
 20
-1.330991205
 10
1.9034376164
 20
-1.5502448687
 10
1.9120938282
 20
-1.7661243555
 10
1.9034376164
 20
-1.9772986965
 10
1.8775223496
 20
-2.1824659317
 10
1.8345078038
 20
-2.3803611369
 10
1.7746591782
 20
-2.5697642223
 10
1.6983454594
 20
-2.749507455
 10
1.6060371468
 20
-2.9184826581
 10
1.498303352
 20
-3.0756480433
 10
1.3758082894
 20
-3.2200346337
 10
1.2393071821
 20
-3.3507522381
 10
1.0896416046
 20
-3.4669949389
 10
0.927734295
 20
-3.5680460611
 10
0.7545834658
 20
-3.6532825911
 10
0.5712566493
 20
-3.7221790173
 10
0.3788841164
 20
-3.7743105703
 10
0.1786519077
 20
-3.8093558417
 10
-0.0282054787
 20
-3.8270987658
 10
-0.2404126982
 20
-3.8274299516
 10
-0.4566614227
 20
-3.8103473572
 10
-0.6756184068
 20
-3.7759563024
 10
-0.8959337081
 20
-3.7244688196
 10
-1.1162490094
 20
-3.6562023462
 10
-1.3352059936
 20
-3.5715777677
 10
-1.5514547181
 20
-3.4711168228
 10
-1.7636619375
 20
-3.3554388867
 10
-1.9705193239
 20
-3.2252571521
 10
-2.1707515326
 20
-3.081374233
 10
-2.3631240655
 20
-2.9246772152
 10
-2.546450882
 20
-2.756132188
 10
-2.7196017113
 20
-2.5767782876
 10
-2.8815090208
 20
-2.3877212903
 10
-3.0311745983
 20
-2.1901267955
 10
-3.1676757057
 20
-1.9852130389
 10
-3.2901707682
 20
-1.774243382
 10
-3.3979045631
 20
-1.5585185228
 10
-3.4902128757
 20
-1.3393684769
 10
-3.5665265945
 20
-1.1181443771
 10
-3.6263752201
 20
-0.8962101436
 10
-3.6693897658
 20
-0.6749340747
 10
-3.6953050327
 20
-0.455680411
 10
-3.7039612445
 20
-0.2398009242
  0
LWPOLYLINE
  5
1AF
330
19B
100
AcDbEntity
  8
0
  6
Continuous
 62
     7
370
    15
100
AcDbPolyline
 90
       78
 70
   128
 43
0.0
 10
-4.9377586535
 20
8.1666095653
 10
-4.7168351199
 20
8.1123804157
 10
-4.4880644536
 20
8.0676061639
 10
-4.2529690855
 20
8.0325847753
 10
-4.0131135365
 20
8.0075493114
 10
-3.7700940058
 20
7.9926663792
 10
-3.5255277483
 20
7.988035022
 10
-3.281042312
 20
7.9936860608
 10
-3.0382647071
 20
8.0095818888
 10
-2.7988105786
 20
8.035616722
 10
-2.5642734543
 20
8.0716173028
 10
-2.3362141398
 20
8.1173440532
 10
-2.1161503325
 20
8.1724926694
 10
-1.9055465206
 20
8.2366961464
 10
-1.7058042376
 20
8.3095272206
 10
-1.5182527357
 20
8.3905012133
 10
-1.344140139
 20
8.4790792558
 10
-1.1846251382
 20
8.5746718759
 10
-1.0407692792
 20
8.6766429206
 10
-0.9135298991
 20
8.7843137893
 10
-0.803753755
 20
8.8969679501
 10
-0.712171389
 20
9.0138557083
 10
-0.6393922667
 20
9.134199195
 10
-0.585900721
 20
9.2571975443
 10
-0.5520527294
 20
9.3820322223
 10
-0.5380735447
 20
9.5078724749
 10
-0.544056196
 20
9.6338808561
 10
-0.5699608699
 20
9.7592188007
 10
-0.6156151749
 20
9.8830522055
 10
-0.6807152892
 20
10.0045569796
 10
-0.7648279824
 20
10.1229245287
 10
-0.8673934982
 20
10.2373671364
 10
-0.9877292801
 20
10.347123206
 10
-1.1250345133
 20
10.4514623289
 10
-1.2783954542
 20
10.5496901455
 10
-1.446791511
 20
10.6411529658
 10
-1.6291020357
 20
10.72524212
 10
-1.8241137819
 20
10.8013980085
 10
-2.0305289785
 20
10.8691138265
 10
-2.2469739666
 20
10.9279389364
 10
-2.4720083403
 20
10.9774818668
 10
-2.7041345331
 20
11.0174129176
 10
-2.9418077834
 20
11.0474663544
 10
-3.1834464151
 20
11.0674421763
 10
-3.4274423628
 20
11.0772074477
 10
-3.6721718738
 20
11.0766971823
 10
-3.9160063135
 20
11.0659147758
 10
-4.1573230041
 20
11.0449319833
 10
-4.3945160227
 20
11.0138884418
 10
-4.626006889
 20
10.9729907411
 10
-4.8502550693
 20
10.9225110485
 10
-5.0657682292
 20
10.8627852981
 10
-5.271112164
 20
10.7942109549
 10
-5.4649203437
 20
10.7172443699
 10
-5.6459030069
 20
10.6323977428
 10
-5.8128557438
 20
10.5402357142
 10
-5.9646675116
 20
10.441371607
 10
-6.1003280279
 20
10.3364633456
 10
-6.2189344943
 20
10.2262090772
 10
-6.3196976045
 20
10.1113425257
 10
-6.4019467965
 20
9.992628109
 10
-6.4651347156
 20
9.8708558521
 10
-6.5088408565
 20
9.7468361291
 10
-6.5327743621
 20
9.621394271
 10
-6.5367759589
 20
9.4953650725
 10
-6.520819017
 20
9.3695872372
 10
-6.485009727
 20
9.2448977959
 10
-6.429586394
 20
9.1221265361
 10
-6.3549178511
 20
9.0020904804
 10
-6.261501005
 20
8.885588449
 10
-6.1499575296
 20
8.7733957435
 10
-6.0210297282
 20
8.666258988
 10
-5.8755755941
 20
8.5648911599
 10
-5.7145631006
 20
8.4699668453
 10
-5.5390637592
 20
8.38211775
 10
-5.3502454891
 20
8.3019284951
 10
-5.1493648446
 20
8.2299327269
 10
-4.9377586535
 20
8.1666095653
  0
LINE
  5
1C0
330
19B
100
AcDbEntity
  8
0
  6
Continuous
 62
     7
370
    15
100
AcDbLine
 10
4.2017136556
 20
1.7600322959
 30
0.0
 11
3.5261569003
 21
1.6524607399
 31
0.0
  0
LINE
  5
1C1
330
19B
100
AcDbEntity
  8
0
  6
Continuous
 62
     7
370
    15
100
AcDbLine
 10
3.7595045947
 20
2.3087988936
 30
0.0
 11
3.5261569003
 21
1.6524607399
 31
0.0
  0
LINE
  5
1C2
330
19B
100
AcDbEntity
  8
0
  6
Continuous
 62
     7
370
    15
100
AcDbLine
 10
4.2017136556
 20
1.7600322959
 30
0.0
 11
3.7595045947
 21
2.3087988936
 31
0.0
  0
LINE
  5
1C3
330
19B
100
AcDbEntity
  8
0
  6
Continuous
 62
     7
370
    15
100
AcDbLine
 10
3.5261569003
 20
1.6524607399
 30
0.0
 11
-12.3933692899
 21
5.9790468442
 31
0.0
  0
LINE
  5
1C4
330
19B
100
AcDbEntity
  8
0
  6
Continuous
 62
     7
370
    15
100
AcDbLine
 10
-12.3933692899
 20
5.9790468442
 30
0.0
 11
-12.1600215955
 21
6.6353849979
 31
0.0
  0
LINE
  5
1C5
330
19B
100
AcDbEntity
  8
0
  6
Continuous
 62
     7
370
    15
100
AcDbLine
 10
-12.1600215955
 20
6.6353849979
 30
0.0
 11
3.7595045947
 21
2.3087988936
 31
0.0
  0
LINE
  5
1C6
330
19B
100
AcDbEntity
  8
0
  6
Continuous
 62
     7
370
    15
100
AcDbLine
 10
4.2017136556
 20
1.7600322959
 30
0.0
 11
4.2017136556
 21
-5.9544734104
 31
0.0
  0
LINE
  5
1C7
330
19B
100
AcDbEntity
  8
0
  6
Continuous
 62
     7
370
    15
100
AcDbLine
 10
4.2017136556
 20
-5.9544734104
 30
0.0
 11
3.5261569003
 21
-6.0620449664
 31
0.0
  0
LINE
  5
1C8
330
19B
100
AcDbEntity
  8
0
  6
Continuous
 62
     7
370
    15
100
AcDbLine
 10
3.5261569003
 20
-6.0620449664
 30
0.0
 11
3.5261569003
 21
1.6524607399
 31
0.0
  0
LINE
  5
1C9
330
19B
100
AcDbEntity
  8
0
  6
Continuous
 62
     7
370
    15
100
AcDbLine
 10
12.6022306563
 20
9.9591944184
 30
0.0
 11
4.2017136556
 21
1.7600322959
 31
0.0
  0
LINE
  5
1CA
330
19B
100
AcDbEntity
  8
0
  6
Continuous
 62
     7
370
    15
100
AcDbLine
 10
3.7595045947
 20
2.3087988936
 30
0.0
 11
12.1600215955
 21
10.5079610161
 31
0.0
  0
LINE
  5
1CB
330
19B
100
AcDbEntity
  8
0
  6
Continuous
 62
     7
370
    15
100
AcDbLine
 10
12.6022306563
 20
9.9591944184
 30
0.0
 11
12.1600215955
 21
10.5079610161
 31
0.0
  0
LINE
  5
1CC
330
19B
100
AcDbEntity
  8
0
  6
Continuous
 62
     7
370
    15
100
AcDbLine
 10
-12.3933692899
 20
-1.7354588621
 30
0.0
 11
3.5261569003
 21
-6.0620449664
 31
0.0
  0
LINE
  5
1CD
330
19B
100
AcDbEntity
  8
0
  6
Continuous
 62
     7
370
    15
100
AcDbLine
 10
-12.3933692899
 20
5.9790468442
 30
0.0
 11
-12.3933692899
 21
-1.7354588621
 31
0.0
  0
LINE
  5
1CE
330
19B
100
AcDbEntity
  8
0
  6
Continuous
 62
     7
370
    15
100
AcDbLine
 10
-3.7595045947
 20
14.8345471204
 30
0.0
 11
-12.1600215955
 21
6.6353849979
 31
0.0
  0
LINE
  5
1CF
330
19B
100
AcDbEntity
  8
0
  6
Continuous
 62
     7
370
    15
100
AcDbLine
 10
12.1600215955
 20
10.5079610161
 30
0.0
 11
-3.7595045947
 21
14.8345471204
 31
0.0
  0
LINE
  5
1D0
330
19B
100
AcDbEntity
  8
0
  6
Continuous
 62
     7
370
    15
100
AcDbLine
 10
12.6022306563
 20
2.2446887121
 30
0.0
 11
12.6022306563
 21
9.9591944184
 31
0.0
  0
LINE
  5
1D1
330
19B
100
AcDbEntity
  8
0
  6
Continuous
 62
     7
370
    15
100
AcDbLine
 10
4.2017136556
 20
-5.9544734104
 30
0.0
 11
12.6022306563
 21
2.2446887121
 31
0.0
  0
LINE
  5
1D2
330
19B
100
AcDbEntity
  8
0
  6
Continuous
 62
     7
370
    15
100
AcDbLine
 10
3.7595045947
 20
-6.2628741134
 30
0.0
 11
3.5261569003
 21
-6.0620449664
 31
0.0
  0
LINE
  5
1D3
330
19B
100
AcDbEntity
  8
0
  6
Continuous
 62
     7
370
    15
100
AcDbLine
 10
3.7595045947
 20
-6.2628741134
 30
0.0
 11
4.2017136556
 21
-5.9544734104
 31
0.0
  0
LINE
  5
1D4
330
19B
100
AcDbEntity
  8
0
  6
Continuous
 62
     7
370
    15
100
AcDbLine
 10
3.7595045947
 20
-6.2628741134
 30
0.0
 11
-12.1600215955
 21
-1.9362880091
 31
0.0
  0
LINE
  5
1D5
330
19B
100
AcDbEntity
  8
0
  6
Continuous
 62
     7
370
    15
100
AcDbLine
 10
-12.3933692899
 20
-1.7354588621
 30
0.0
 11
-12.1600215955
 21
-1.9362880091
 31
0.0
  0
LINE
  5
1D6
330
19B
100
AcDbEntity
  8
0
  6
Continuous
 62
     7
370
    15
100
AcDbLine
 10
-12.3933692899
 20
5.9790468442
 30
0.0
 11
-12.6022306563
 21
6.3269842949
 31
0.0
  0
LINE
  5
1D7
330
19B
100
AcDbEntity
  8
0
  6
Continuous
 62
     7
370
    15
100
AcDbLine
 10
-12.1600215955
 20
6.6353849979
 30
0.0
 11
-12.6022306563
 21
6.3269842949
 31
0.0
  0
LINE
  5
1D8
330
19B
100
AcDbEntity
  8
0
  6
Continuous
 62
     7
370
    15
100
AcDbLine
 10
-12.3933692899
 20
-1.7354588621
 30
0.0
 11
-12.6022306563
 21
-1.3875214114
 31
0.0
  0
LINE
  5
1D9
330
19B
100
AcDbEntity
  8
0
  6
Continuous
 62
     7
370
    15
100
AcDbLine
 10
-12.6022306563
 20
-1.3875214114
 30
0.0
 11
-12.6022306563
 21
6.3269842949
 31
0.0
  0
LINE
  5
1DA
330
19B
100
AcDbEntity
  8
0
  6
Continuous
 62
     7
370
    15
100
AcDbLine
 10
-12.6022306563
 20
6.3269842949
 30
0.0
 11
-4.2017136556
 21
14.5261464174
 31
0.0
  0
LINE
  5
1DB
330
19B
100
AcDbEntity
  8
0
  6
Continuous
 62
     7
370
    15
100
AcDbLine
 10
-3.7595045947
 20
14.8345471204
 30
0.0
 11
-4.2017136556
 21
14.5261464174
 31
0.0
  0
LINE
  5
1DC
330
19B
100
AcDbEntity
  8
0
  6
Continuous
 62
     7
370
    15
100
AcDbLine
 10
12.3933692899
 20
10.3071318692
 30
0.0
 11
12.1600215955
 21
10.5079610161
 31
0.0
  0
LINE
  5
1DD
330
19B
100
AcDbEntity
  8
0
  6
Continuous
 62
     7
370
    15
100
AcDbLine
 10
12.3933692899
 20
10.3071318692
 30
0.0
 11
12.6022306563
 21
9.9591944184
 31
0.0
  0
VIEWPORT
  5
223
330
19B
100
AcDbEntity
  8
0
100
AcDbViewport
 10
0.0
 20
0.0
 30
0.0
 40
243.84
 41
204.216
 68
     1
 69
     1
 12
-0.5520730357
 22
-2.1901575134
 13
0.0
 23
0.0
 14
10.0
 24
10.0
 15
10.0
 25
10.0
 16
0.0
 26
0.0
 36
1.0
 17
0.0
 27
0.0
 37
0.0
 42
50.0
 43
0.0
 44
0.0
 45
26.8312431587
 50
0.0
 51
0.0
 72
   100
 90
   557152
  1

281
     0
 71
     1
 74
     0
110
0.0
120
0.0
130
0.0
111
1.0
121
0.0
131
0.0
112
0.0
122
1.0
132
0.0
 79
     0
146
0.0
  0
ENDBLK
  5
19E
330
19B
100
AcDbEntity
  8
0
100
AcDbBlockEnd
  0
BLOCK
  5
1E0
330
1DE
100
AcDbEntity
  8
0
100
AcDbBlockBegin
  2
*Paper_Space7
 70
     0
 10
0.0
 20
0.0
 30
0.0
  3
*Paper_Space7
  1

  0
LWPOLYLINE
  5
1EB
330
1DE
100
AcDbEntity
  8
0
  6
Continuous
 62
     7
370
    15
100
AcDbPolyline
 90
       55
 70
   128
 43
0.0
 10
-8.5035361168
 20
2.4000809932
 10
-8.4940487111
 20
2.5630658661
 10
-8.4657147947
 20
2.7214560467
 10
-8.4189175353
 20
2.8731095794
 10
-8.3542897855
 20
3.0159756104
 10
-8.2727055247
 20
3.1481221217
 10
-8.1752680402
 20
3.2677620584
 10
-8.0632950068
 20
3.3732774957
 10
-7.9383006677
 20
3.4632415183
 10
-7.8019753568
 20
3.5364375171
 10
-7.6561626402
 20
3.5918756417
 10
-7.5028343846
 20
3.6288061867
 10
-7.3440640918
 20
3.6467297297
 10
-7.1819988575
 20
3.6454038856
 10
-7.018830336
 20
3.6248465842
 10
-6.8567651018
 20
3.5853358277
 10
-6.6979948089
 20
3.5274059313
 10
-6.5446665534
 20
3.4518402975
 10
-6.3988538367
 20
3.3596608219
 10
-6.2625285258
 20
3.2521140736
 10
-6.1375341867
 20
3.130654438
 10
-6.0255611533
 20
2.9969244484
 10
-5.9281236688
 20
2.8527325733
 10
-5.8465394081
 20
2.7000287606
 10
-5.7819116583
 20
2.5408780673
 10
-5.7351143988
 20
2.3774327336
 10
-5.7067804824
 20
2.2119030772
 10
-5.6972930767
 20
2.0465276028
 10
-5.7067804824
 20
1.8835427299
 10
-5.7351143988
 20
1.7251525494
 10
-5.7819116583
 20
1.5734990167
 10
-5.8465394081
 20
1.4306329857
 10
-5.9281236688
 20
1.2984864744
 10
-6.0255611533
 20
1.1788465376
 10
-6.1375341867
 20
1.0733311003
 10
-6.2625285258
 20
0.9833670778
 10
-6.3988538367
 20
0.910171079
 10
-6.5446665534
 20
0.8547329544
 10
-6.6979948089
 20
0.8178024094
 10
-6.8567651018
 20
0.7998788664
 10
-7.018830336
 20
0.8012047104
 10
-7.1819988575
 20
0.8217620118
 10
-7.3440640918
 20
0.8612727683
 10
-7.5028343846
 20
0.9192026647
 10
-7.6561626402
 20
0.9947682985
 10
-7.8019753568
 20
1.0869477742
 10
-7.9383006677
 20
1.1944945225
 10
-8.0632950068
 20
1.315954158
 10
-8.1752680402
 20
1.4496841477
 10
-8.2727055247
 20
1.5938760228
 10
-8.3542897855
 20
1.7465798355
 10
-8.4189175353
 20
1.9057305287
 10
-8.4657147947
 20
2.0691758624
 10
-8.4940487111
 20
2.2347055188
 10
-8.5035361168
 20
2.4000809932
  0
LWPOLYLINE
  5
1EC
330
1DE
100
AcDbEntity
  8
0
  6
Continuous
 62
     7
370
    15
100
AcDbPolyline
 90
       81
 70
   128
 43
0.0
 10
-2.5870403738
 20
1.6546725951
 10
-2.5778850383
 20
1.8883800561
 10
-2.5504754773
 20
2.1183397052
 10
-2.50498068
 20
2.3431337647
 10
-2.4416811369
 20
2.5613763044
 10
-2.3609671107
 20
2.7717217865
 10
-2.2633362302
 20
2.9728733612
 10
-2.1493904224
 20
3.1635908621
 10
-2.0198322009
 20
3.3426984524
 10
-1.8754603353
 20
3.5090918742
 10
-1.7171649262
 20
3.6617452568
 10
-1.5459219174
 20
3.7997174413
 10
-1.3627870789
 20
3.9221577834
 10
-1.1688894981
 20
4.0283113975
 10
-0.9654246178
 20
4.1175238113
 10
-0.7536468669
 20
4.1892450007
 10
-0.5348619255
 20
4.2430327807
 10
-0.3104186755
 20
4.2785555317
 10
-0.0817008842
 20
4.2955942442
 10
0.149881327
 20
4.2940438687
 10
0.382900177
 20
4.273913964
 10
0.615919027
 20
4.2353286375
 10
0.8475012383
 20
4.1785257807
 10
1.0762190296
 20
4.103855602
 10
1.3006622795
 20
4.0117784679
 10
1.519447221
 20
3.9028620645
 10
1.7312249719
 20
3.7777778978
 10
1.9346898521
 20
3.6372971531
 10
2.128587433
 20
3.4822859411
 10
2.3117222714
 20
3.3136999573
 10
2.4829652803
 20
3.1325785904
 10
2.6412606894
 20
2.9400385139
 10
2.785632555
 20
2.7372668014
 10
2.9151907764
 20
2.5255136078
 10
3.0291365843
 20
2.3060844621
 10
3.1267674647
 20
2.0803322179
 10
3.2074814909
 20
1.8496487129
 10
3.270781034
 20
1.6154561876
 10
3.3162758314
 20
1.3791985167
 10
3.3436853923
 20
1.1423323074
 10
3.3528407279
 20
0.9063179187
 10
3.3436853923
 20
0.6726104577
 10
3.3162758314
 20
0.4426508085
 10
3.270781034
 20
0.2178567491
 10
3.2074814909
 20
-0.0003857906
 10
3.1267674647
 20
-0.2107312727
 10
3.0291365843
 20
-0.4118828474
 10
2.9151907764
 20
-0.6026003483
 10
2.785632555
 20
-0.7817079386
 10
2.6412606894
 20
-0.9481013604
 10
2.4829652803
 20
-1.100754743
 10
2.3117222714
 20
-1.2387269276
 10
2.128587433
 20
-1.3611672696
 10
1.9346898521
 20
-1.4673208837
 10
1.7312249719
 20
-1.5565332975
 10
1.519447221
 20
-1.6282544869
 10
1.3006622795
 20
-1.6820422669
 10
1.0762190296
 20
-1.7175650179
 10
0.8475012383
 20
-1.7346037304
 10
0.615919027
 20
-1.7330533549
 10
0.382900177
 20
-1.7129234502
 10
0.149881327
 20
-1.6743381238
 10
-0.0817008842
 20
-1.6175352669
 10
-0.3104186755
 20
-1.5428650882
 10
-0.5348619255
 20
-1.4507879541
 10
-0.7536468669
 20
-1.3418715507
 10
-0.9654246178
 20
-1.216787384
 10
-1.1688894981
 20
-1.0763066394
 10
-1.3627870789
 20
-0.9212954273
 10
-1.5459219174
 20
-0.7527094435
 10
-1.7171649262
 20
-0.5715880766
 10
-1.8754603353
 20
-0.3790480001
 10
-2.0198322009
 20
-0.1762762876
 10
-2.1493904224
 20
0.035476906
 10
-2.2633362302
 20
0.2549060517
 10
-2.3609671107
 20
0.4806582958
 10
-2.4416811369
 20
0.7113418009
 10
-2.50498068
 20
0.9455343262
 10
-2.5504754773
 20
1.1817919971
 10
-2.5778850383
 20
1.4186582063
 10
-2.5870403738
 20
1.6546725951
  0
LWPOLYLINE
  5
1F4
330
1DE
100
AcDbEntity
  8
0
  6
Continuous
 62
     7
370
    15
100
AcDbPolyline
 90
       78
 70
   128
 43
0.0
 10
-4.8023175584
 20
8.9640805902
 10
-4.5700534395
 20
8.9383752207
 10
-4.3322764816
 20
8.9190659444
 10
-4.090569051
 20
8.9062812612
 10
-3.8465396709
 20
8.9001062512
 10
-3.6018123165
 20
8.900582008
 10
-3.3580156079
 20
8.9077053655
 10
-3.1167719721
 20
8.921428919
 10
-2.8796868456
 20
8.9416613405
 10
-2.6483379909
 20
8.9682679865
 10
-2.4242649964
 20
9.0010717942
 10
-2.2089590308
 20
9.0398544597
 10
-2.00385292
 20
9.0843578908
 10
-1.8103116111
 20
9.1342859244
 10
-1.6296230898
 20
9.1893062978
 10
-1.4629898082
 20
9.2490528593
 10
-1.3115206834
 20
9.3131280056
 10
-1.1762237174
 20
9.381105327
 10
-1.0579992893
 20
9.4525324458
 10
-0.957634163
 20
9.5269340262
 10
-0.8757962519
 20
9.603814938
 10
-0.8130301738
 20
9.6826635514
 10
-0.7697536267
 20
9.7629551419
 10
-0.7462546087
 20
9.8441553822
 10
-0.7426895021
 20
9.9257238981
 10
-0.7590820319
 20
10.0071178646
 10
-0.7953231086
 20
10.0877956183
 10
-0.8511715538
 20
10.167220262
 10
-0.9262557054
 20
10.2448632378
 10
-1.0200758906
 20
10.3202078446
 10
-1.1320077516
 20
10.3927526764
 10
-1.2613064004
 20
10.4620149593
 10
-1.4071113758
 20
10.5275337643
 10
-1.5684523698
 20
10.5888730744
 10
-1.7442556845
 20
10.6456246869
 10
-1.9333513781
 20
10.6974109289
 10
-2.1344810498
 20
10.7438871716
 10
-2.3463062148
 20
10.7847441234
 10
-2.5674172117
 20
10.8197098878
 10
-2.7963425832
 20
10.8485517736
 10
-3.0315588688
 20
10.8710778428
 10
-3.2715007428
 20
10.8871381879
 10
-3.5145714317
 20
10.8966259302
 10
-3.7591533402
 20
10.8994779303
 10
-4.0036188161
 20
10.8956752085
 10
-4.2463409818
 20
10.8852430713
 10
-4.4857045615
 20
10.868250943
 10
-4.7201166299
 20
10.8448119033
 10
-4.9480172136
 20
10.8150819351
 10
-5.1678896716
 20
10.7792588865
 10
-5.3782707891
 20
10.737581154
 10
-5.5777605145
 20
10.6903260959
 10
-5.7650312764
 20
10.637808187
 10
-5.938836819
 20
10.5803769252
 10
-6.0980204949
 20
10.5184145062
 10
-6.2415229631
 20
10.4523332795
 10
-6.3683892384
 20
10.3825730048
 10
-6.4777750466
 20
10.3095979253
 10
-6.5689524432
 20
10.2338936781
 10
-6.6413146576
 20
10.1559640624
 10
-6.6943801313
 20
10.076327687
 10
-6.7277957224
 20
9.9955145188
 10
-6.7413390554
 20
9.9140623562
 10
-6.7349200019
 20
9.8325132498
 10
-6.7085812796
 20
9.7514098954
 10
-6.6624981682
 20
9.6712920226
 10
-6.5969773434
 20
9.5926928025
 10
-6.5124548353
 20
9.5161353
 10
-6.4094931273
 20
9.4421289926
 10
-6.2887774127
 20
9.3711663801
 10
-6.1511110346
 20
9.303719707
 10
-5.9974101399
 20
9.2402378198
 10
-5.8286975829
 20
9.1811431799
 10
-5.6460961176
 20
9.1268290524
 10
-5.4508209269
 20
9.0776568889
 10
-5.2441715348
 20
9.033953922
 10
-5.0275231589
 20
8.9960109878
 10
-4.8023175584
 20
8.9640805902
  0
SPLINE
  5
1F7
330
1DE
100
AcDbEntity
  8
0
  6
Continuous
 62
     7
370
    15
100
AcDbSpline
210
0.0
220
0.0
230
1.0
 70
     8
 71
     3
 72
    24
 73
    20
 74
     0
 42
0.00000001
 43
0.00000001
 12
1.0
 22
0.0
 32
0.0
 13
1.0
 23
0.0
 33
0.0
 40
0.0
 40
0.0
 40
0.0
 40
0.0
 40
0.015060284135748
 40
0.080865688438998
 40
0.1404129094460297
 40
0.2015967190620696
 40
0.2630604162484707
 40
0.3260322741435285
 40
0.3929582351848475
 40
0.4616888494837214
 40
0.5306674734307937
 40
0.6020456450167371
 40
0.6646964119856384
 40
0.7294859221434898
 40
0.7875850644460272
 40
0.847178180420922
 40
0.9092293284383737
 40
0.9727598818178044
 40
0.9999999999999999
 40
0.9999999999999999
 40
0.9999999999999999
 40
0.9999999999999999
 10
3.342255408220731
 20
0.7727995309912633
 30
0.0
 10
3.323612697171367
 20
0.7729141233576032
 30
0.0
 10
3.223511288075253
 20
0.7735294232092127
 30
0.0
 10
3.05947981928661
 20
0.8042016373275753
 30
0.0
 10
2.857269321404024
 20
0.863501331723544
 30
0.0
 10
2.682387396401649
 20
0.9464450857282992
 30
0.0
 10
2.530676611171621
 20
1.049308645906561
 30
0.0
 10
2.404833078479948
 20
1.16980013913826
 30
0.0
 10
2.309324225567596
 20
1.30376148847747
 30
0.0
 10
2.250760625900737
 20
1.443613533198798
 30
0.0
 10
2.234403163804151
 20
1.579638751651509
 30
0.0
 10
2.263513326627662
 20
1.695922096189741
 30
0.0
 10
2.334399179676382
 20
1.787026401826014
 30
0.0
 10
2.436398377941676
 20
1.847995675099058
 30
0.0
 10
2.567023553042226
 20
1.884356488226107
 30
0.0
 10
2.720180490333155
 20
1.899965566002821
 30
0.0
 10
2.900985370143492
 20
1.897309796242241
 30
0.0
 10
3.063042243527081
 20
1.884848091597251
 30
0.0
 10
3.168954525308206
 20
1.871278034130427
 30
0.0
 10
3.20073861396844
 20
1.867205683857194
 30
0.0
  0
LINE
  5
202
330
1DE
100
AcDbEntity
  8
0
  6
Continuous
 62
     7
370
    15
100
AcDbLine
 10
5.7044557793
 20
5.0308571194
 30
0.0
 11
5.0599719107
 21
4.9338802934
 31
0.0
  0
LINE
  5
203
330
1DE
100
AcDbEntity
  8
0
  6
Continuous
 62
     7
370
    15
100
AcDbLine
 10
5.2367486059
 20
5.5611872053
 30
0.0
 11
5.0599719107
 21
4.9338802934
 31
0.0
  0
LINE
  5
204
330
1DE
100
AcDbEntity
  8
0
  6
Continuous
 62
     7
370
    15
100
AcDbLine
 10
5.7044557793
 20
5.0308571194
 30
0.0
 11
5.2367486059
 21
5.5611872053
 31
0.0
  0
LINE
  5
205
330
1DE
100
AcDbEntity
  8
0
  6
Continuous
 62
     7
370
    15
100
AcDbLine
 10
5.7044557793
 20
5.0308571194
 30
0.0
 11
5.7044557793
 21
-3.4544242551
 31
0.0
  0
LINE
  5
206
330
1DE
100
AcDbEntity
  8
0
  6
Continuous
 62
     7
370
    15
100
AcDbLine
 10
5.7044557793
 20
-3.4544242551
 30
0.0
 11
5.0599719107
 21
-3.5514010811
 31
0.0
  0
LINE
  5
207
330
1DE
100
AcDbEntity
  8
0
  6
Continuous
 62
     7
370
    15
100
AcDbLine
 10
5.0599719107
 20
-3.5514010811
 30
0.0
 11
5.0599719107
 21
4.9338802934
 31
0.0
  0
LINE
  5
208
330
1DE
100
AcDbEntity
  8
0
  6
Continuous
 62
     7
370
    15
100
AcDbLine
 10
5.0599719107
 20
4.9338802934
 30
0.0
 11
-11.7774863304
 21
7.055200636
 31
0.0
  0
LINE
  5
209
330
1DE
100
AcDbEntity
  8
0
  6
Continuous
 62
     7
370
    15
100
AcDbLine
 10
-11.7774863304
 20
7.055200636
 30
0.0
 11
-11.6007096351
 21
7.6825075479
 31
0.0
  0
LINE
  5
20A
330
1DE
100
AcDbEntity
  8
0
  6
Continuous
 62
     7
370
    15
100
AcDbLine
 10
-11.6007096351
 20
7.6825075479
 30
0.0
 11
5.2367486059
 21
5.5611872053
 31
0.0
  0
LINE
  5
20B
330
1DE
100
AcDbEntity
  8
0
  6
Continuous
 62
     7
370
    15
100
AcDbLine
 10
-11.7774863304
 20
-1.4300807385
 30
0.0
 11
5.0599719107
 21
-3.5514010811
 31
0.0
  0
LINE
  5
20C
330
1DE
100
AcDbEntity
  8
0
  6
Continuous
 62
     7
370
    15
100
AcDbLine
 10
-11.7774863304
 20
7.055200636
 30
0.0
 11
-11.7774863304
 21
-1.4300807385
 31
0.0
  0
LINE
  5
20D
330
1DE
100
AcDbEntity
  8
0
  6
Continuous
 62
     7
370
    15
100
AcDbLine
 10
12.0684168085
 20
10.6433431984
 30
0.0
 11
5.7044557793
 21
5.0308571194
 31
0.0
  0
LINE
  5
20E
330
1DE
100
AcDbEntity
  8
0
  6
Continuous
 62
     7
370
    15
100
AcDbLine
 10
5.2367486059
 20
5.5611872053
 30
0.0
 11
11.6007096351
 21
11.1736732843
 31
0.0
  0
LINE
  5
20F
330
1DE
100
AcDbEntity
  8
0
  6
Continuous
 62
     7
370
    15
100
AcDbLine
 10
12.0684168085
 20
10.6433431984
 30
0.0
 11
11.6007096351
 21
11.1736732843
 31
0.0
  0
LINE
  5
210
330
1DE
100
AcDbEntity
  8
0
  6
Continuous
 62
     7
370
    15
100
AcDbLine
 10
12.0684168085
 20
2.158061824
 30
0.0
 11
12.0684168085
 21
10.6433431984
 31
0.0
  0
LINE
  5
211
330
1DE
100
AcDbEntity
  8
0
  6
Continuous
 62
     7
370
    15
100
AcDbLine
 10
5.2367486059
 20
-3.8669032108
 30
0.0
 11
12.0684168085
 21
2.158061824
 31
0.0
  0
LINE
  5
212
330
1DE
100
AcDbEntity
  8
0
  6
Continuous
 62
     7
370
    15
100
AcDbLine
 10
-5.2367486059
 20
13.2949936269
 30
0.0
 11
-12.0684168085
 21
7.2700285921
 31
0.0
  0
LINE
  5
213
330
1DE
100
AcDbEntity
  8
0
  6
Continuous
 62
     7
370
    15
100
AcDbLine
 10
11.6007096351
 20
11.1736732843
 30
0.0
 11
-5.2367486059
 21
13.2949936269
 31
0.0
  0
LINE
  5
214
330
1DE
100
AcDbEntity
  8
0
  6
Continuous
 62
     7
370
    15
100
AcDbLine
 10
5.2367486059
 20
-3.8669032108
 30
0.0
 11
5.0599719107
 21
-3.5514010811
 31
0.0
  0
LINE
  5
215
330
1DE
100
AcDbEntity
  8
0
  6
Continuous
 62
     7
370
    15
100
AcDbLine
 10
5.2367486059
 20
-3.8669032108
 30
0.0
 11
-11.6007096351
 21
-1.7455828682
 31
0.0
  0
LINE
  5
216
330
1DE
100
AcDbEntity
  8
0
  6
Continuous
 62
     7
370
    15
100
AcDbLine
 10
-11.7774863304
 20
-1.4300807385
 30
0.0
 11
-11.6007096351
 21
-1.7455828682
 31
0.0
  0
LINE
  5
217
330
1DE
100
AcDbEntity
  8
0
  6
Continuous
 62
     7
370
    15
100
AcDbLine
 10
-11.7774863304
 20
7.055200636
 30
0.0
 11
-12.0684168085
 21
7.2700285921
 31
0.0
  0
LINE
  5
218
330
1DE
100
AcDbEntity
  8
0
  6
Continuous
 62
     7
370
    15
100
AcDbLine
 10
-11.7774863304
 20
-1.4300807385
 30
0.0
 11
-12.0684168085
 21
-1.2152527823
 31
0.0
  0
LINE
  5
219
330
1DE
100
AcDbEntity
  8
0
  6
Continuous
 62
     7
370
    15
100
AcDbLine
 10
-12.0684168085
 20
-1.2152527823
 30
0.0
 11
-12.0684168085
 21
7.2700285921
 31
0.0
  0
LINE
  5
21A
330
1DE
100
AcDbEntity
  8
0
  6
Continuous
 62
     7
370
    15
100
AcDbLine
 10
-12.0684168085
 20
-1.2152527823
 30
0.0
 11
-11.6007096351
 21
-1.7455828682
 31
0.0
  0
ARC
  5
21B
330
1DE
100
AcDbEntity
  8
0
  6
Continuous
 62
     7
370
    15
100
AcDbCircle
 10
-5.0688295956
 20
4.0149938582
 30
0.0
 40
1.675114327144169
100
AcDbArc
 50
197.4075715815
 51
245.4116726384
  0
VIEWPORT
  5
224
330
1DE
100
AcDbEntity
  8
0
100
AcDbViewport
 10
0.0
 20
0.0
 30
0.0
 40
243.84
 41
204.216
 68
     1
 69
     1
 12
-0.5520730357
 22
-2.1901575134
 13
0.0
 23
0.0
 14
10.0
 24
10.0
 15
10.0
 25
10.0
 16
0.0
 26
0.0
 36
1.0
 17
0.0
 27
0.0
 37
0.0
 42
50.0
 43
0.0
 44
0.0
 45
26.8312431587
 50
0.0
 51
0.0
 72
   100
 90
   557152
  1

281
     0
 71
     1
 74
     0
110
0.0
120
0.0
130
0.0
111
1.0
121
0.0
131
0.0
112
0.0
122
1.0
132
0.0
 79
     0
146
0.0
  0
ENDBLK
  5
1E1
330
1DE
100
AcDbEntity
  8
0
100
AcDbBlockEnd
  0
ENDSEC
  0
SECTION
  2
ENTITIES
  0
LWPOLYLINE
  5
4D
330
1F
100
AcDbEntity
  8
0
  6
Continuous
 62
     7
370
    15
100
AcDbPolyline
 90
       55
 70
   128
 43
0.0
 10
3.2045961972
 20
-2.6725139239
 10
3.2781785245
 20
-2.8178934765
 10
3.3330392859
 20
-2.9691129148
 10
3.3684365837
 20
-3.1241272553
 10
3.3838917301
 20
-3.2808401949
 10
3.3791957208
 20
-3.43713246
 10
3.3544120613
 20
-3.5908904657
 10
3.309875908
 20
-3.7400348989
 10
3.246189536
 20
-3.8825488368
 10
3.1642141943
 20
-4.0165050231
 10
3.0650584587
 20
-4.1400919301
 10
2.9500632405
 20
-4.2516382568
 10
2.8207836526
 20
-4.3496355306
 10
2.6789679798
 20
-4.4327585064
 10
2.5265340358
 20
-4.4998830887
 10
2.365543228
 20
-4.5501015324
 10
2.1981726811
 20
-4.5827347195
 10
2.0266857946
 20
-4.5973413419
 10
1.8534016344
 20
-4.5937238702
 10
1.6806635714
 20
-4.5719312245
 10
1.5108075918
 20
-4.532258113
 10
1.3461307062
 20
-4.4752410463
 10
1.188859887
 20
-4.4016510825
 10
1.0411219522
 20
-4.3124833997
 10
0.904914804
 20
-4.2089438377
 10
0.7820804103
 20
-4.0924325916
 10
0.6742798957
 20
-3.9645252761
 10
0.5829710772
 20
-3.8269516181
 10
0.5093887499
 20
-3.6815720654
 10
0.4545279885
 20
-3.5303526271
 10
0.4191306907
 20
-3.3753382867
 10
0.4036755443
 20
-3.2186253471
 10
0.4083715536
 20
-3.062333082
 10
0.4331552131
 20
-2.9085750763
 10
0.4776913664
 20
-2.7594306431
 10
0.5413777383
 20
-2.6169167051
 10
0.62335308
 20
-2.4829605189
 10
0.7225088156
 20
-2.3593736119
 10
0.8375040339
 20
-2.2478272852
 10
0.9667836217
 20
-2.1498300114
 10
1.1085992945
 20
-2.0667070355
 10
1.2610332386
 20
-1.9995824533
 10
1.4220240463
 20
-1.9493640095
 10
1.5893945932
 20
-1.9167308225
 10
1.7608814798
 20
-1.9021242001
 10
1.93416564
 20
-1.9057416717
 10
2.1069037029
 20
-1.9275343174
 10
2.2767596826
 20
-1.967207429
 10
2.4414365682
 20
-2.0242244957
 10
2.5987073874
 20
-2.0978144595
 10
2.7464453222
 20
-2.1869821423
 10
2.8826524704
 20
-2.2905217042
 10
3.005486864
 20
-2.4070329504
 10
3.1132873786
 20
-2.5349402659
 10
3.2045961972
 20
-2.6725139239
  0
LWPOLYLINE
  5
4E
330
1F
100
AcDbEntity
  8
0
  6
Continuous
 62
     7
370
    15
100
AcDbPolyline
 90
       81
 70
   128
 43
0.0
 10
-4.7338775171
 20
1.9990919356
 10
-4.6043975073
 20
1.7957832295
 10
-4.4582056616
 20
1.6014386059
 10
-4.2962033013
 20
1.417256264
 10
-4.1193892249
 20
1.244371749
 10
-3.92885355
 20
1.0838509516
 10
-3.7257709924
 20
0.9366835359
 10
-3.5113936235
 20
0.8037768378
 10
-3.2870431511
 20
0.6859502715
 10
-3.0541027706
 20
0.5839302768
 10
-2.8140086367
 20
0.4983458409
 10
-2.5682410097
 20
0.4297246204
 10
-2.3183151287
 20
0.3784896879
 10
-2.0657718699
 20
0.3449569238
 10
-1.8121682464
 20
0.3293330687
 10
-1.559067809
 20
0.3317144489
 10
-1.308031006
 20
0.3520863824
 10
-1.0606055627
 20
0.3903232695
 10
-0.8183169393
 20
0.446189367
 10
-0.5826589257
 20
0.5193402418
 10
-0.355084432
 20
0.6093248946
 10
-0.1369965305
 20
0.7155885399
 10
0.0702601943
 20
0.8374760271
 10
0.2654079357
 20
0.9742358792
 10
0.4472435431
 20
1.1250249264
 10
0.6146459394
 20
1.288913504
 10
0.7665830333
 20
1.4648911844
 10
0.902118082
 20
1.6518730067
 10
1.0204154668
 20
1.8487061659
 10
1.1207458451
 20
2.0541771199
 10
1.2024906467
 20
2.267019072
 10
1.2651458878
 20
2.4859197809
 10
1.3083252778
 20
2.7095296509
 10
1.3317626016
 20
2.9364700527
 10
1.3353133603
 20
3.1653418234
 10
1.3189556621
 20
3.3947338924
 10
1.2827903579
 20
3.6232319812
 10
1.2270404186
 20
3.8494273231
 10
1.1520495612
 20
4.0719253488
 10
1.0582801294
 20
4.2893542838
 10
0.9463102428
 20
4.5003736064
 10
0.8168302329
 20
4.7036823124
 10
0.6706383872
 20
4.898026936
 10
0.5086360269
 20
5.082209278
 10
0.3318219506
 20
5.255093793
 10
0.1412862757
 20
5.4156145903
 10
-0.061796282
 20
5.5627820061
 10
-0.2761736509
 20
5.6956887041
 10
-0.5005241232
 20
5.8135152705
 10
-0.7334645038
 20
5.9155352652
 10
-0.9735586377
 20
6.0011197011
 10
-1.2193262647
 20
6.0697409216
 10
-1.4692521457
 20
6.1209758541
 10
-1.7217954045
 20
6.1545086182
 10
-1.9753990279
 20
6.1701324733
 10
-2.2284994654
 20
6.1677510931
 10
-2.4795362684
 20
6.1473791595
 10
-2.7269617117
 20
6.1091422725
 10
-2.9692503351
 20
6.053276175
 10
-3.2049083487
 20
5.9801253002
 10
-3.4324828424
 20
5.8901406474
 10
-3.6505707439
 20
5.7838770021
 10
-3.8578274686
 20
5.6619895149
 10
-4.0529752101
 20
5.5252296627
 10
-4.2348108174
 20
5.3744406155
 10
-4.4022132138
 20
5.2105520379
 10
-4.5541503077
 20
5.0345743575
 10
-4.6896853563
 20
4.8475925352
 10
-4.8079827412
 20
4.6507593761
 10
-4.9083131195
 20
4.4452884221
 10
-4.9900579211
 20
4.23244647
 10
-5.0527131621
 20
4.0135457611
 10
-5.0958925522
 20
3.7899358911
 10
-5.119329876
 20
3.5629954892
 10
-5.1228806346
 20
3.3341237186
 10
-5.1065229365
 20
3.1047316496
 10
-5.0703576322
 20
2.8762335608
 10
-5.014607693
 20
2.6500382188
 10
-4.9396168356
 20
2.4275401932
 10
-4.8458474038
 20
2.2101112582
 10
-4.7338775171
 20
1.9990919356
  0
LWPOLYLINE
  5
56
330
1F
100
AcDbEntity
  8
0
  6
Continuous
 62
     7
370
    15
100
AcDbPolyline
 90
       81
 70
   128
 43
0.0
 10
-8.4632930403
 20
-6.5161342625
 10
-8.4861643259
 20
-6.6332029133
 10
-8.4996269314
 20
-6.7654531204
 10
-8.5035978555
 20
-6.9120695174
 10
-8.4980526161
 20
-7.0721481655
 10
-8.4830254015
 20
-7.2447021264
 10
-8.4586088594
 20
-7.4286675477
 10
-8.4249535259
 20
-7.6229102214
 10
-8.3822668973
 20
-7.8262325768
 10
-8.330812151
 20
-8.0373810639
 10
-8.2709065225
 20
-8.2550538822
 10
-8.2029193499
 20
-8.4779090063
 10
-8.1272697968
 20
-8.7045724602
 10
-8.0444242678
 20
-8.9336467885
 10
-7.9548935332
 20
-9.1637196717
 10
-7.8592295797
 20
-9.3933726339
 10
-7.7580222074
 20
-9.6211897883
 10
-7.6518953934
 20
-9.8457665664
 10
-7.5415034449
 20
-10.0657183776
 10
-7.4275269647
 20
-10.279689146
 10
-7.310668656
 20
-10.4863596704
 10
-7.1916489889
 20
-10.6844557586
 10
-7.0712017594
 20
-10.8727560821
 10
-6.9500695647
 20
-11.0500997069
 10
-6.8289992249
 20
-11.2153932506
 10
-6.7087371791
 20
-11.3676176235
 10
-6.5900248827
 20
-11.5058343117
 10
-6.4735942365
 20
-11.6291911633
 10
-6.3601630742
 20
-11.7369276425
 10
-6.2504307366
 20
-11.8283795179
 10
-6.14507376
 20
-11.9029829583
 10
-6.0447417052
 20
-11.9602780087
 10
-5.9500531528
 20
-11.999911426
 10
-5.8615918891
 20
-12.0216388572
 10
-5.7799033073
 20
-12.0253263453
 10
-5.7054910445
 20
-12.0109511557
 10
-5.6388138772
 20
-11.9786019163
 10
-5.5802828923
 20
-11.9284780708
 10
-5.5302589527
 20
-11.8608886495
 10
-5.4890504727
 20
-11.7762503637
 10
-5.4569115163
 20
-11.6750850364
 10
-5.4340402308
 20
-11.5580163856
 10
-5.4205776252
 20
-11.4257661785
 10
-5.4166067011
 20
-11.2791497815
 10
-5.4221519405
 20
-11.1190711334
 10
-5.4371791552
 20
-10.9465171725
 10
-5.4615956973
 20
-10.7625517512
 10
-5.4952510308
 20
-10.5683090775
 10
-5.5379376593
 20
-10.3649867221
 10
-5.5893924057
 20
-10.153838235
 10
-5.6492980342
 20
-9.9361654167
 10
-5.7172852067
 20
-9.7133102926
 10
-5.7929347598
 20
-9.4866468386
 10
-5.8757802888
 20
-9.2575725104
 10
-5.9653110234
 20
-9.0274996272
 10
-6.0609749769
 20
-8.797846665
 10
-6.1621823492
 20
-8.5700295106
 10
-6.2683091632
 20
-8.3454527325
 10
-6.3787011118
 20
-8.1255009213
 10
-6.4926775919
 20
-7.9115301529
 10
-6.6095359007
 20
-7.7048596284
 10
-6.7285555677
 20
-7.5067635403
 10
-6.8490027972
 20
-7.3184632168
 10
-6.970134992
 20
-7.141119592
 10
-7.0912053317
 20
-6.9758260483
 10
-7.2114673775
 20
-6.8236016754
 10
-7.3301796739
 20
-6.6853849872
 10
-7.4466103201
 20
-6.5620281355
 10
-7.5600414824
 20
-6.4542916564
 10
-7.6697738201
 20
-6.362839781
 10
-7.7751307967
 20
-6.2882363406
 10
-7.8754628514
 20
-6.2309412902
 10
-7.9701514038
 20
-6.1913078728
 10
-8.0586126675
 20
-6.1695804417
 10
-8.1403012494
 20
-6.1658929536
 10
-8.2147135121
 20
-6.1802681432
 10
-8.2813906794
 20
-6.2126173826
 10
-8.3399216643
 20
-6.2627412281
 10
-8.3899456039
 20
-6.3303306493
 10
-8.4311540839
 20
-6.4149689352
 10
-8.4632930403
 20
-6.5161342625
  0
SPLINE
  5
59
330
1F
100
AcDbEntity
  8
0
  6
Continuous
 62
     7
370
    15
100
AcDbSpline
210
0.0
220
0.0
230
1.0
 70
     8
 71
     3
 72
    23
 73
    19
 74
     0
 42
0.00000001
 43
0.00000001
 12
1.0
 22
0.0
 32
0.0
 13
1.0
 23
0.0
 33
0.0
 40
0.0
 40
0.0
 40
0.0
 40
0.0
 40
0.0699059073116182
 40
0.1365486181910818
 40
0.2031850802138983
 40
0.2653115024568921
 40
0.3274582258212383
 40
0.3914927423039906
 40
0.4555473106179363
 40
0.525372913578863
 40
0.5951871065128987
 40
0.667449802624295
 40
0.7396582681821278
 40
0.80524447699912
 40
0.8708315791541895
 40
0.9313910579878901
 40
0.9919778560513056
 40
1.0
 40
1.0
 40
1.0
 40
1.0
 10
3.167425929320577
 20
-3.994884421699834
 30
0.0
 10
3.15573581294352
 20
-3.912784319848864
 30
0.0
 10
3.132901272928692
 20
-3.752416535605345
 30
0.0
 10
3.04266134804438
 20
-3.531061218305566
 30
0.0
 10
2.922065085853785
 20
-3.338546478326003
 30
0.0
 10
2.770778831169769
 20
-3.177478628043167
 30
0.0
 10
2.596704198627075
 20
-3.046117926308574
 30
0.0
 10
2.399297092645457
 20
-2.944597000598895
 30
0.0
 10
2.177397474567891
 20
-2.870871056609446
 30
0.0
 10
1.93596166886116
 20
-2.829643932356962
 30
0.0
 10
1.676912350406109
 20
-2.821774416296707
 30
0.0
 10
1.413115751406192
 20
-2.84941677049029
 30
0.0
 10
1.160406842367991
 20
-2.908755012797368
 30
0.0
 10
0.9311918432611492
 20
-2.994644923021645
 30
0.0
 10
0.7343240366868531
 20
-3.09689978881395
 30
0.0
 10
0.5714912538504754
 20
-3.215737997072558
 30
0.0
 10
0.4693581163755439
 20
-3.304538546788777
 30
0.0
 10
0.4302688083327382
 20
-3.358242335634723
 30
0.0
 10
0.4256982662608477
 20
-3.364521685120048
 30
0.0
  0
LWPOLYLINE
  5
65
330
1F
100
AcDbEntity
  8
0
  6
Continuous
 62
     7
370
    15
100
AcDbPolyline
 90
       45
 70
   128
 43
0.0
 10
0.6392471576
 20
1.3154395483
 10
0.7308134356
 20
1.5066933139
 10
0.8072092166
 20
1.7115172236
 10
0.8645281493
 20
1.922205163
 10
0.9023887856
 20
2.1373550385
 10
0.9205391694
 20
2.3555350632
 10
0.9188585127
 20
2.5752932851
 10
0.897358
 20
2.7951672493
 10
0.8561807138
 20
3.0136937311
 10
0.795600682
 20
3.2294184727
 10
0.7160210549
 20
3.4409058614
 10
0.6179714216
 20
3.6467484838
 10
0.5021042863
 20
3.845576491
 10
0.3691907256
 20
4.0360667155
 10
0.2201152575
 20
4.2169514762
 10
0.0558699545
 20
4.387027015
 10
-0.122452158
 20
4.5451615072
 10
-0.3136643757
 20
4.6903025938
 10
-0.5164942129
 20
4.8214843848
 10
-0.7295918704
 20
4.9378338871
 10
-0.9515392186
 20
5.0385768139
 10
-1.1808592344
 20
5.1230427376
 10
-1.416025831
 20
5.1906695515
 10
-1.6554740135
 20
5.2410072104
 10
-1.8976102936
 20
5.2737207253
 10
-2.1408232945
 20
5.2885923932
 10
-2.3834944737
 20
5.2855232456
 10
-2.6240088946
 20
5.2645337073
 10
-2.8607659734
 20
5.2257634601
 10
-3.0921901307
 20
5.1694705136
 10
-3.3167412771
 20
5.096029488
 10
-3.5329250616
 20
5.0059291214
 10
-3.7393028168
 20
4.8997690167
 10
-3.9345011329
 20
4.778255652
 10
-4.1172209973
 20
4.6421976787
 10
-4.2862464394
 20
4.49250054
 10
-4.4404526227
 20
4.3301604458
 10
-4.5788133306
 20
4.1562577427
 10
-4.7004077953
 20
3.9719497243
 10
-4.8044268259
 20
3.7784629302
 10
-4.8901781927
 20
3.5770849831
 10
-4.9570912346
 20
3.3691560199
 10
-5.0047206564
 20
3.1560597736
 10
-5.0327494921
 20
2.9392143646
 10
-5.0410471907
 20
2.7472714258
  0
LINE
  5
68
330
1F
100
AcDbEntity
  8
0
  6
Continuous
 62
     7
370
    15
100
AcDbLine
 10
-3.6038621762
 20
-10.7752118174
 30
0.0
 11
-3.4223465251
 21
-11.4004441651
 31
0.0
  0
LINE
  5
69
330
1F
100
AcDbEntity
  8
0
  6
Continuous
 62
     7
370
    15
100
AcDbLine
 10
-4.0960069997
 20
-11.1866338511
 30
0.0
 11
-3.4223465251
 21
-11.4004441651
 31
0.0
  0
LINE
  5
6A
330
1F
100
AcDbEntity
  8
0
  6
Continuous
 62
     7
370
    15
100
AcDbLine
 10
-3.6038621762
 20
-10.7752118174
 30
0.0
 11
-4.0960069997
 21
-11.1866338511
 31
0.0
  0
LINE
  5
6B
330
1F
100
AcDbEntity
  8
0
  6
Continuous
 62
     7
370
    15
100
AcDbLine
 10
-3.6038621762
 20
-10.7752118174
 30
0.0
 11
12.1258885435
 21
-3.848585652
 31
0.0
  0
LINE
  5
6C
330
1F
100
AcDbEntity
  8
0
  6
Continuous
 62
     7
370
    15
100
AcDbLine
 10
12.1258885435
 20
-3.848585652
 30
0.0
 11
12.3074041946
 21
-4.4738179997
 31
0.0
  0
LINE
  5
6D
330
1F
100
AcDbEntity
  8
0
  6
Continuous
 62
     7
370
    15
100
AcDbLine
 10
12.3074041946
 20
-4.4738179997
 30
0.0
 11
-3.4223465251
 21
-11.4004441651
 31
0.0
  0
LINE
  5
6E
330
1F
100
AcDbEntity
  8
0
  6
Continuous
 62
     7
370
    15
100
AcDbLine
 10
-12.1258885435
 20
3.848585652
 30
0.0
 11
-3.6038621762
 21
-10.7752118174
 31
0.0
  0
LINE
  5
6F
330
1F
100
AcDbEntity
  8
0
  6
Continuous
 62
     7
370
    15
100
AcDbLine
 10
-4.0960069997
 20
-11.1866338511
 30
0.0
 11
-12.6180333671
 21
3.4371636183
 31
0.0
  0
LINE
  5
70
330
1F
100
AcDbEntity
  8
0
  6
Continuous
 62
     7
370
    15
100
AcDbLine
 10
-12.6180333671
 20
3.4371636183
 30
0.0
 11
-12.1258885435
 21
3.848585652
 31
0.0
  0
LINE
  5
71
330
1F
100
AcDbEntity
  8
0
  6
Continuous
 62
     7
370
    15
100
AcDbLine
 10
3.6038621762
 20
10.7752118174
 30
0.0
 11
-12.1258885435
 21
3.848585652
 31
0.0
  0
LINE
  5
72
330
1F
100
AcDbEntity
  8
0
  6
Continuous
 62
     7
370
    15
100
AcDbLine
 10
12.1258885435
 20
-3.848585652
 30
0.0
 11
3.6038621762
 21
10.7752118174
 31
0.0
  0
LINE
  5
73
330
1F
100
AcDbEntity
  8
0
  6
Continuous
 62
     7
370
    15
100
AcDbLine
 10
-5.089738464
 20
-15.1289173752
 30
0.0
 11
-4.0960069997
 21
-11.1866338511
 31
0.0
  0
LINE
  5
74
330
1F
100
AcDbEntity
  8
0
  6
Continuous
 62
     7
370
    15
100
AcDbLine
 10
-3.4223465251
 20
-11.4004441651
 30
0.0
 11
-4.4160779893
 21
-15.3427276892
 31
0.0
  0
LINE
  5
75
330
1F
100
AcDbEntity
  8
0
  6
Continuous
 62
     7
370
    15
100
AcDbLine
 10
-5.089738464
 20
-15.1289173752
 30
0.0
 11
-4.4160779893
 21
-15.3427276892
 31
0.0
  0
LINE
  5
76
330
1F
100
AcDbEntity
  8
0
  6
Continuous
 62
     7
370
    15
100
AcDbLine
 10
-4.4160779893
 20
-15.3427276892
 30
0.0
 11
11.3136727303
 21
-8.4161015238
 31
0.0
  0
LINE
  5
77
330
1F
100
AcDbEntity
  8
0
  6
Continuous
 62
     7
370
    15
100
AcDbLine
 10
11.3136727303
 20
-8.4161015238
 30
0.0
 11
12.3074041946
 21
-4.4738179997
 31
0.0
  0
LINE
  5
78
330
1F
100
AcDbEntity
  8
0
  6
Continuous
 62
     7
370
    15
100
AcDbLine
 10
-13.6117648313
 20
-0.5051199058
 30
0.0
 11
-5.089738464
 21
-15.1289173752
 31
0.0
  0
LINE
  5
79
330
1F
100
AcDbEntity
  8
0
  6
Continuous
 62
     7
370
    15
100
AcDbLine
 10
-12.6180333671
 20
3.4371636183
 30
0.0
 11
-13.6117648313
 21
-0.5051199058
 31
0.0
  0
LINE
  5
7A
330
1F
100
AcDbEntity
  8
0
  6
Continuous
 62
     7
370
    15
100
AcDbLine
 10
12.1258885435
 20
-3.848585652
 30
0.0
 11
12.5076187599
 21
-3.875195121
 31
0.0
  0
LINE
  5
7B
330
1F
100
AcDbEntity
  8
0
  6
Continuous
 62
     7
370
    15
100
AcDbLine
 10
12.3074041946
 20
-4.4738179997
 30
0.0
 11
12.5076187599
 21
-3.875195121
 31
0.0
  0
LINE
  5
7C
330
1F
100
AcDbEntity
  8
0
  6
Continuous
 62
     7
370
    15
100
AcDbLine
 10
3.9855923926
 20
10.7486023485
 30
0.0
 11
12.5076187599
 21
-3.875195121
 31
0.0
  0
LINE
  5
7D
330
1F
100
AcDbEntity
  8
0
  6
Continuous
 62
     7
370
    15
100
AcDbLine
 10
3.9855923926
 20
10.7486023485
 30
0.0
 11
3.6038621762
 21
10.7752118174
 31
0.0
  0
LINE
  5
7E
330
1F
100
AcDbEntity
  8
0
  6
Continuous
 62
     7
370
    15
100
AcDbLine
 10
12.5076187599
 20
-3.875195121
 30
0.0
 11
11.5138872957
 21
-7.8174786451
 31
0.0
  0
LINE
  5
7F
330
1F
100
AcDbEntity
  8
0
  6
Continuous
 62
     7
370
    15
100
AcDbLine
 10
11.3136727303
 20
-8.4161015238
 30
0.0
 11
11.5138872957
 21
-7.8174786451
 31
0.0
  0
LINE
  5
80
330
1F
100
AcDbEntity
  8
0
  6
Continuous
 62
     7
370
    15
100
AcDbLine
 10
-12.4178188017
 20
4.0357864971
 30
0.0
 11
-12.1258885435
 21
3.848585652
 31
0.0
  0
LINE
  5
81
330
1F
100
AcDbEntity
  8
0
  6
Continuous
 62
     7
370
    15
100
AcDbLine
 10
-12.4178188017
 20
4.0357864971
 30
0.0
 11
-12.6180333671
 21
3.4371636183
 31
0.0
  0
LINE
  5
82
330
1F
100
AcDbEntity
  8
0
  6
Continuous
 62
     7
370
    15
100
AcDbLine
 10
-12.4178188017
 20
4.0357864971
 30
0.0
 11
3.3119319179
 21
10.9624126625
 31
0.0
  0
LINE
  5
83
330
1F
100
AcDbEntity
  8
0
  6
Continuous
 62
     7
370
    15
100
AcDbLine
 10
3.3119319179
 20
10.9624126625
 30
0.0
 11
3.6038621762
 21
10.7752118174
 31
0.0
  0
LINE
  5
84
330
1F
100
AcDbEntity
  8
0
  6
Continuous
 62
     7
370
    15
100
AcDbLine
 10
3.9855923926
 20
10.7486023485
 30
0.0
 11
3.3119319179
 21
10.9624126625
 31
0.0
  0
ARC
  5
85
330
1F
100
AcDbEntity
  8
0
  6
Continuous
 62
     7
370
    15
100
AcDbCircle
 10
-2.1431268624
 20
2.260550357
 30
0.0
 40
3.298861746128016
100
AcDbArc
 50
357.7714503464
 51
153.9329188244
  0
ARC
  5
86
330
1F
100
AcDbEntity
  8
0
  6
Continuous
 62
     7
370
    15
100
AcDbCircle
 10
-3.1445016441
 20
-1.7120553675
 30
0.0
 40
3.278718656102626
100
AcDbArc
 50
41.9302060055
 51
109.7741631653
  0
LINE
  5
12B
330
113
100
AcDbEntity
 67
     1
  8
0
  6
Continuous
 62
     7
370
    15
100
AcDbLine
 10
-9.0
 20
10.0
 30
0.0
 11
-9.0
 21
0.0
 31
0.0
  0
LINE
  5
12C
330
113
100
AcDbEntity
 67
     1
  8
0
  6
Continuous
 62
     7
370
    15
100
AcDbLine
 10
-9.5
 20
0.5
 30
0.0
 11
9.5
 21
0.5
 31
0.0
  0
LINE
  5
12D
330
113
100
AcDbEntity
 67
     1
  8
0
  6
Continuous
 62
     7
370
    15
100
AcDbLine
 10
-9.5
 20
0.5
 30
0.0
 11
-9.5
 21
9.5
 31
0.0
  0
LINE
  5
12E
330
113
100
AcDbEntity
 67
     1
  8
0
  6
Continuous
 62
     7
370
    15
100
AcDbLine
 10
9.5
 20
9.5
 30
0.0
 11
-9.5
 21
9.5
 31
0.0
  0
LINE
  5
12F
330
113
100
AcDbEntity
 67
     1
  8
0
  6
Continuous
 62
     7
370
    15
100
AcDbLine
 10
-9.0
 20
10.0
 30
0.0
 11
9.0
 21
10.0
 31
0.0
  0
LINE
  5
130
330
113
100
AcDbEntity
 67
     1
  8
0
  6
Continuous
 62
     7
370
    15
100
AcDbLine
 10
9.0
 20
0.0
 30
0.0
 11
9.0
 21
10.0
 31
0.0
  0
LINE
  5
131
330
113
100
AcDbEntity
 67
     1
  8
0
  6
Continuous
 62
     7
370
    15
100
AcDbLine
 10
9.0
 20
0.0
 30
0.0
 11
-9.0
 21
0.0
 31
0.0
  0
LINE
  5
132
330
113
100
AcDbEntity
 67
     1
  8
0
  6
Continuous
 62
     7
370
    15
100
AcDbLine
 10
-9.5
 20
0.5
 30
0.0
 11
-9.0
 21
0.0
 31
0.0
  0
LINE
  5
133
330
113
100
AcDbEntity
 67
     1
  8
0
  6
Continuous
 62
     7
370
    15
100
AcDbLine
 10
-9.0
 20
10.0
 30
0.0
 11
-9.5
 21
9.5
 31
0.0
  0
LINE
  5
134
330
113
100
AcDbEntity
 67
     1
  8
0
  6
Continuous
 62
     7
370
    15
100
AcDbLine
 10
9.5
 20
9.5
 30
0.0
 11
9.5
 21
0.5
 31
0.0
  0
LINE
  5
135
330
113
100
AcDbEntity
 67
     1
  8
0
  6
Continuous
 62
     7
370
    15
100
AcDbLine
 10
9.5
 20
9.5
 30
0.0
 11
9.0
 21
10.0
 31
0.0
  0
LINE
  5
136
330
113
100
AcDbEntity
 67
     1
  8
0
  6
Continuous
 62
     7
370
    15
100
AcDbLine
 10
9.5
 20
0.5
 30
0.0
 11
9.0
 21
0.0
 31
0.0
  0
VIEWPORT
  5
220
330
113
100
AcDbEntity
 67
     1
  8
0
100
AcDbViewport
 10
0.0
 20
0.0
 30
0.0
 40
243.84
 41
204.216
 68
     1
 69
     1
 12
-0.5520730357
 22
-2.1901575134
 13
0.0
 23
0.0
 14
10.0
 24
10.0
 15
10.0
 25
10.0
 16
0.0
 26
0.0
 36
1.0
 17
0.0
 27
0.0
 37
0.0
 42
50.0
 43
0.0
 44
0.0
 45
26.8312431587
 50
0.0
 51
0.0
 72
   100
 90
   557152
  1

281
     0
 71
     1
 74
     0
110
0.0
120
0.0
130
0.0
111
1.0
121
0.0
131
0.0
112
0.0
122
1.0
132
0.0
 79
     0
146
0.0
  0
ENDSEC
  0
SECTION
  2
OBJECTS
  0
DICTIONARY
  5
C
330
0
100
AcDbDictionary
281
     1
  3
ACAD_GROUP
350
D
  3
ACAD_LAYOUT
350
1A
  3
ACAD_MLINESTYLE
350
17
  3
ACAD_PLOTSETTINGS
350
19
  3
ACAD_PLOTSTYLENAME
350
E
  0
DICTIONARY
  5
D
102
{ACAD_REACTORS
330
C
102
}
330
C
100
AcDbDictionary
281
     1
  0
DICTIONARY
  5
1A
102
{ACAD_REACTORS
330
C
102
}
330
C
100
AcDbDictionary
281
     1
  3
_Back
350
EF
  3
_Bottom
350
138
  3
_Dimetric
350
1DF
  3
_Front
350
26
  3
_Isometric
350
15F
  3
_Left
350
114
  3
_Right
350
CB
  3
_Top
350
1E
  3
_Trimetric
350
19C
  3
Model
350
22
  0
DICTIONARY
  5
17
102
{ACAD_REACTORS
330
C
102
}
330
C
100
AcDbDictionary
281
     1
  3
Standard
350
18
  0
DICTIONARY
  5
19
102
{ACAD_REACTORS
330
C
102
}
330
C
100
AcDbDictionary
281
     1
  0
ACDBDICTIONARYWDFLT
  5
E
102
{ACAD_REACTORS
330
C
102
}
330
C
100
AcDbDictionary
281
     1
  3
Normal
350
F
100
AcDbDictionaryWithDefault
340
F
  0
LAYOUT
  5
EF
102
{ACAD_REACTORS
330
1A
102
}
330
1A
100
AcDbPlotSettings
  1

  2
none_device
  4

  6

 40
0.0
 41
0.0
 42
0.0
 43
0.0
 44
0.0
 45
0.0
 46
0.0
 47
0.0
 48
0.0
 49
0.0
140
0.0
141
0.0
142
1.0
143
1.0
 70
   688
 72
     0
 73
     0
 74
     5
  7

 75
    16
147
1.0
148
0.0
149
0.0
100
AcDbLayout
  1
_Back
 70
     1
 71
     4
 10
0.0
 20
0.0
 11
0.0
 21
0.0
 12
0.0
 22
0.0
 32
0.0
 14
0.0
 24
0.0
 34
0.0
 15
0.0
 25
0.0
 35
0.0
146
0.0
 13
0.0
 23
0.0
 33
0.0
 16
1.0
 26
0.0
 36
0.0
 17
0.0
 27
1.0
 37
0.0
 76
     0
330
EE
331
21F
  0
LAYOUT
  5
138
102
{ACAD_REACTORS
330
1A
102
}
330
1A
100
AcDbPlotSettings
  1

  2
none_device
  4

  6

 40
0.0
 41
0.0
 42
0.0
 43
0.0
 44
0.0
 45
0.0
 46
0.0
 47
0.0
 48
0.0
 49
0.0
140
0.0
141
0.0
142
1.0
143
1.0
 70
   688
 72
     0
 73
     0
 74
     5
  7

 75
    16
147
1.0
148
0.0
149
0.0
100
AcDbLayout
  1
_Bottom
 70
     1
 71
     6
 10
0.0
 20
0.0
 11
0.0
 21
0.0
 12
0.0
 22
0.0
 32
0.0
 14
0.0
 24
0.0
 34
0.0
 15
0.0
 25
0.0
 35
0.0
146
0.0
 13
0.0
 23
0.0
 33
0.0
 16
1.0
 26
0.0
 36
0.0
 17
0.0
 27
1.0
 37
0.0
 76
     0
330
137
331
221
  0
LAYOUT
  5
1DF
102
{ACAD_REACTORS
330
1A
102
}
330
1A
100
AcDbPlotSettings
  1

  2
none_device
  4

  6

 40
0.0
 41
0.0
 42
0.0
 43
0.0
 44
0.0
 45
0.0
 46
0.0
 47
0.0
 48
0.0
 49
0.0
140
0.0
141
0.0
142
1.0
143
1.0
 70
   688
 72
     0
 73
     0
 74
     5
  7

 75
    16
147
1.0
148
0.0
149
0.0
100
AcDbLayout
  1
_Dimetric
 70
     1
 71
     9
 10
0.0
 20
0.0
 11
0.0
 21
0.0
 12
0.0
 22
0.0
 32
0.0
 14
0.0
 24
0.0
 34
0.0
 15
0.0
 25
0.0
 35
0.0
146
0.0
 13
0.0
 23
0.0
 33
0.0
 16
1.0
 26
0.0
 36
0.0
 17
0.0
 27
1.0
 37
0.0
 76
     0
330
1DE
331
224
  0
LAYOUT
  5
26
102
{ACAD_REACTORS
330
1A
102
}
330
1A
100
AcDbPlotSettings
  1

  2
none_device
  4

  6

 40
0.0
 41
0.0
 42
0.0
 43
0.0
 44
0.0
 45
0.0
 46
0.0
 47
0.0
 48
0.0
 49
0.0
140
0.0
141
0.0
142
1.0
143
1.0
 70
   688
 72
     0
 73
     0
 74
     5
  7

 75
    16
147
1.0
148
0.0
149
0.0
100
AcDbLayout
  1
_Front
 70
     1
 71
     2
 10
0.0
 20
0.0
 11
0.0
 21
0.0
 12
0.0
 22
0.0
 32
0.0
 14
0.0
 24
0.0
 34
0.0
 15
0.0
 25
0.0
 35
0.0
146
0.0
 13
0.0
 23
0.0
 33
0.0
 16
1.0
 26
0.0
 36
0.0
 17
0.0
 27
1.0
 37
0.0
 76
     0
330
23
331
21D
  0
LAYOUT
  5
15F
102
{ACAD_REACTORS
330
1A
102
}
330
1A
100
AcDbPlotSettings
  1

  2
none_device
  4

  6

 40
0.0
 41
0.0
 42
0.0
 43
0.0
 44
0.0
 45
0.0
 46
0.0
 47
0.0
 48
0.0
 49
0.0
140
0.0
141
0.0
142
1.0
143
1.0
 70
   688
 72
     0
 73
     0
 74
     5
  7

 75
    16
147
1.0
148
0.0
149
0.0
100
AcDbLayout
  1
_Isometric
 70
     1
 71
     7
 10
0.0
 20
0.0
 11
0.0
 21
0.0
 12
0.0
 22
0.0
 32
0.0
 14
0.0
 24
0.0
 34
0.0
 15
0.0
 25
0.0
 35
0.0
146
0.0
 13
0.0
 23
0.0
 33
0.0
 16
1.0
 26
0.0
 36
0.0
 17
0.0
 27
1.0
 37
0.0
 76
     0
330
15E
331
222
  0
LAYOUT
  5
114
102
{ACAD_REACTORS
330
1A
102
}
330
1A
100
AcDbPlotSettings
  1

  2
none_device
  4
ANSI_A_(11.00_x_8.50_Inches)
  6

 40
6.35
 41
19.05
 42
6.35000508
 43
19.05000254
 44
279.4
 45
215.9
 46
137.8358371531
 47
106.6960055488
 48
0.0
 49
0.0
140
0.0
141
0.0
142
0.3198994526
143
1.0
 70
  1696
 72
     0
 73
     0
 74
     5
  7

 75
    16
147
1.0
148
0.0
149
0.0
100
AcDbLayout
  1
_Left
 70
     1
 71
     5
 10
0.0
 20
0.0
 11
0.0
 21
0.0
 12
0.0
 22
0.0
 32
0.0
 14
-13.6117648313
 24
-15.3427276892
 34
0.0
 15
12.5076187599
 25
10.9624126625
 35
0.0
146
0.0
 13
0.0
 23
0.0
 33
0.0
 16
1.0
 26
0.0
 36
0.0
 17
0.0
 27
1.0
 37
0.0
 76
     0
330
113
331
220
  0
LAYOUT
  5
CB
102
{ACAD_REACTORS
330
1A
102
}
330
1A
100
AcDbPlotSettings
  1

  2
none_device
  4

  6

 40
0.0
 41
0.0
 42
0.0
 43
0.0
 44
0.0
 45
0.0
 46
0.0
 47
0.0
 48
0.0
 49
0.0
140
0.0
141
0.0
142
1.0
143
1.0
 70
   688
 72
     0
 73
     0
 74
     5
  7

 75
    16
147
1.0
148
0.0
149
0.0
100
AcDbLayout
  1
_Right
 70
     1
 71
     3
 10
0.0
 20
0.0
 11
0.0
 21
0.0
 12
0.0
 22
0.0
 32
0.0
 14
0.0
 24
0.0
 34
0.0
 15
0.0
 25
0.0
 35
0.0
146
0.0
 13
0.0
 23
0.0
 33
0.0
 16
1.0
 26
0.0
 36
0.0
 17
0.0
 27
1.0
 37
0.0
 76
     0
330
CA
331
21E
  0
LAYOUT
  5
1E
102
{ACAD_REACTORS
330
1A
102
}
330
1A
100
AcDbPlotSettings
  1

  2
none_device
  4

  6

 40
0.0
 41
0.0
 42
0.0
 43
0.0
 44
0.0
 45
0.0
 46
0.0
 47
0.0
 48
0.0
 49
0.0
140
0.0
141
0.0
142
1.0
143
1.0
 70
   688
 72
     0
 73
     0
 74
     5
  7

 75
    16
147
1.0
148
0.0
149
0.0
100
AcDbLayout
  1
_Top
 70
     1
 71
     1
 10
0.0
 20
0.0
 11
420.0
 21
297.0
 12
0.0
 22
0.0
 32
0.0
 14
1.0000000000E+20
 24
1.0000000000E+20
 34
1.0000000000E+20
 15
-1.0000000000E+20
 25
-1.0000000000E+20
 35
-1.0000000000E+20
146
0.0
 13
0.0
 23
0.0
 33
0.0
 16
1.0
 26
0.0
 36
0.0
 17
0.0
 27
1.0
 37
0.0
 76
     0
330
1B
331
21C
  0
LAYOUT
  5
19C
102
{ACAD_REACTORS
330
1A
102
}
330
1A
100
AcDbPlotSettings
  1

  2
none_device
  4

  6

 40
0.0
 41
0.0
 42
0.0
 43
0.0
 44
0.0
 45
0.0
 46
0.0
 47
0.0
 48
0.0
 49
0.0
140
0.0
141
0.0
142
1.0
143
1.0
 70
   688
 72
     0
 73
     0
 74
     5
  7

 75
    16
147
1.0
148
0.0
149
0.0
100
AcDbLayout
  1
_Trimetric
 70
     1
 71
     8
 10
0.0
 20
0.0
 11
0.0
 21
0.0
 12
0.0
 22
0.0
 32
0.0
 14
0.0
 24
0.0
 34
0.0
 15
0.0
 25
0.0
 35
0.0
146
0.0
 13
0.0
 23
0.0
 33
0.0
 16
1.0
 26
0.0
 36
0.0
 17
0.0
 27
1.0
 37
0.0
 76
     0
330
19B
331
223
  0
LAYOUT
  5
22
102
{ACAD_REACTORS
330
1A
102
}
330
1A
100
AcDbPlotSettings
  1

  2
none_device
  4

  6

 40
0.0
 41
0.0
 42
0.0
 43
0.0
 44
0.0
 45
0.0
 46
0.0
 47
0.0
 48
0.0
 49
0.0
140
0.0
141
0.0
142
1.0
143
1.0
 70
  1712
 72
     0
 73
     0
 74
     0
  7

 75
     0
147
1.0
148
0.0
149
0.0
100
AcDbLayout
  1
Model
 70
     1
 71
     0
 10
0.0
 20
0.0
 11
420.0
 21
297.0
 12
0.0
 22
0.0
 32
0.0
 14
-13.6117648313
 24
-15.3427276892
 34
0.0
 15
12.5076187599
 25
10.9624126625
 35
0.0
146
0.0
 13
0.0
 23
0.0
 33
0.0
 16
1.0
 26
0.0
 36
0.0
 17
0.0
 27
1.0
 37
0.0
 76
     0
330
1F
331
29
  0
MLINESTYLE
  5
18
102
{ACAD_REACTORS
330
17
102
}
330
17
100
AcDbMlineStyle
  2
Standard
 70
     0
  3

 62
   256
 51
90.0
 52
90.0
 71
     2
 49
0.5
 62
   256
  6
BYLAYER
 49
-0.5
 62
   256
  6
BYLAYER
  0
ACDBPLACEHOLDER
  5
F
102
{ACAD_REACTORS
330
E
102
}
330
E
  0
ENDSEC
  0
EOF
