  0
SECTION
  2
HEADER
  9
$ACADVER
  1
AC1015
  9
$ACADMAINTVER
 70
     6
  9
$DWGCODEPAGE
  3
ANSI_1252
  9
$INSBASE
 10
0.0
 20
0.0
 30
0.0
  9
$EXTMIN
 10
-105.0001941957
 20
-89.2003533775
 30
0.0
  9
$EXTMAX
 10
104.9997409949
 20
89.2003533775
 30
0.0
  9
$LIMMIN
 10
0.0
 20
0.0
  9
$LIMMAX
 10
420.0
 20
297.0
  9
$ORTHOMODE
 70
     0
  9
$REGENMODE
 70
     1
  9
$FILLMODE
 70
     1
  9
$QTEXTMODE
 70
     0
  9
$MIRRTEXT
 70
     1
  9
$LTSCALE
 40
1.0
  9
$ATTMODE
 70
     1
  9
$TEXTSIZE
 40
3.5
  9
$TRACEWID
 40
1.0
  9
$TEXTSTYLE
  7
Standard
  9
$CLAYER
  8
0
  9
$CELTYPE
  6
ByLayer
  9
$CECOLOR
 62
   256
  9
$CELTSCALE
 40
1.0
  9
$DISPSILH
 70
     0
  9
$DIMSCALE
 40
1.0
  9
$DIMASZ
 40
6.0
  9
$DIMEXO
 40
1.0
  9
$DIMDLI
 40
3.75
  9
$DIMRND
 40
0.0
  9
$DIMDLE
 40
0.0
  9
$DIMEXE
 40
1.0
  9
$DIMTP
 40
0.0
  9
$DIMTM
 40
0.0
  9
$DIMTXT
 40
3.5
  9
$DIMCEN
 40
2.5
  9
$DIMTSZ
 40
0.0
  9
$DIMTOL
 70
     0
  9
$DIMLIM
 70
     0
  9
$DIMTIH
 70
     1
  9
$DIMTOH
 70
     1
  9
$DIMSE1
 70
     0
  9
$DIMSE2
 70
     0
  9
$DIMTAD
 70
     1
  9
$DIMZIN
 70
     0
  9
$DIMBLK
  1

  9
$DIMASO
 70
     1
  9
$DIMSHO
 70
     1
  9
$DIMPOST
  1

  9
$DIMAPOST
  1

  9
$DIMALT
 70
     0
  9
$DIMALTD
 70
     3
  9
$DIMALTF
 40
0.0393700787
  9
$DIMLFAC
 40
1.0
  9
$DIMTOFL
 70
     1
  9
$DIMTVP
 40
0.0
  9
$DIMTIX
 70
     0
  9
$DIMSOXD
 70
     0
  9
$DIMSAH
 70
     0
  9
$DIMBLK1
  1

  9
$DIMBLK2
  1

  9
$DIMSTYLE
  2
ISO-25
  9
$DIMCLRD
 70
     0
  9
$DIMCLRE
 70
     0
  9
$DIMCLRT
 70
     0
  9
$DIMTFAC
 40
1.0
  9
$DIMGAP
 40
1.524
  9
$DIMJUST
 70
     0
  9
$DIMSD1
 70
     0
  9
$DIMSD2
 70
     0
  9
$DIMTOLJ
 70
     0
  9
$DIMTZIN
 70
     0
  9
$DIMALTZ
 70
     0
  9
$DIMALTTZ
 70
     0
  9
$DIMUPT
 70
     0
  9
$DIMDEC
 70
     3
  9
$DIMTDEC
 70
     3
  9
$DIMALTU
 70
     2
  9
$DIMALTTD
 70
     3
  9
$DIMTXSTY
  7
Standard
  9
$DIMAUNIT
 70
     0
  9
$DIMADEC
 70
     2
  9
$DIMALTRND
 40
0.0
  9
$DIMAZIN
 70
     0
  9
$DIMDSEP
 70
    44
  9
$DIMATFIT
 70
     3
  9
$DIMFRAC
 70
     0
  9
$DIMLDRBLK
  1

  9
$DIMLUNIT
 70
     2
  9
$DIMLWD
 70
    -2
  9
$DIMLWE
 70
    -2
  9
$DIMTMOVE
 70
     0
  9
$LUNITS
 70
     2
  9
$LUPREC
 70
     2
  9
$SKETCHINC
 40
1.0
  9
$FILLETRAD
 40
10.0
  9
$AUNITS
 70
     0
  9
$AUPREC
 70
     2
  9
$MENU
  1
.
  9
$ELEVATION
 40
0.0
  9
$PELEVATION
 40
0.0
  9
$THICKNESS
 40
0.0
  9
$LIMCHECK
 70
     0
  9
$CHAMFERA
 40
10.0
  9
$CHAMFERB
 40
10.0
  9
$CHAMFERC
 40
20.0
  9
$CHAMFERD
 40
0.0
  9
$SKPOLY
 70
     0
  9
$TDCREATE
 40
2456194.552038715
  9
$TDUCREATE
 40
2456194.052038715
  9
$TDUPDATE
 40
2456194.552174271
  9
$TDUUPDATE
 40
2456194.052174271
  9
$TDINDWG
 40
0.0000000116
  9
$TDUSRTIMER
 40
0.0000000116
  9
$USRTIMER
 70
     1
  9
$ANGBASE
 50
0.0
  9
$ANGDIR
 70
     0
  9
$PDMODE
 70
     0
  9
$PDSIZE
 40
-1.0
  9
$PLINEWID
 40
0.0
  9
$SPLFRAME
 70
     0
  9
$SPLINETYPE
 70
     6
  9
$SPLINESEGS
 70
     8
  9
$HANDSEED
  5
14D
  9
$SURFTAB1
 70
     6
  9
$SURFTAB2
 70
     6
  9
$SURFTYPE
 70
     6
  9
$SURFU
 70
     6
  9
$SURFV
 70
     6
  9
$UCSBASE
  2

  9
$UCSNAME
  2

  9
$UCSORG
 10
0.0
 20
0.0
 30
0.0
  9
$UCSXDIR
 10
1.0
 20
0.0
 30
0.0
  9
$UCSYDIR
 10
0.0
 20
1.0
 30
0.0
  9
$UCSORTHOREF
  2

  9
$UCSORTHOVIEW
 70
     0
  9
$UCSORGTOP
 10
0.0
 20
0.0
 30
0.0
  9
$UCSORGBOTTOM
 10
0.0
 20
0.0
 30
0.0
  9
$UCSORGLEFT
 10
0.0
 20
0.0
 30
0.0
  9
$UCSORGRIGHT
 10
0.0
 20
0.0
 30
0.0
  9
$UCSORGFRONT
 10
0.0
 20
0.0
 30
0.0
  9
$UCSORGBACK
 10
0.0
 20
0.0
 30
0.0
  9
$PUCSBASE
  2

  9
$PUCSNAME
  2

  9
$PUCSORG
 10
0.0
 20
0.0
 30
0.0
  9
$PUCSXDIR
 10
1.0
 20
0.0
 30
0.0
  9
$PUCSYDIR
 10
0.0
 20
1.0
 30
0.0
  9
$PUCSORTHOREF
  2

  9
$PUCSORTHOVIEW
 70
     0
  9
$PUCSORGTOP
 10
0.0
 20
0.0
 30
0.0
  9
$PUCSORGBOTTOM
 10
0.0
 20
0.0
 30
0.0
  9
$PUCSORGLEFT
 10
0.0
 20
0.0
 30
0.0
  9
$PUCSORGRIGHT
 10
0.0
 20
0.0
 30
0.0
  9
$PUCSORGFRONT
 10
0.0
 20
0.0
 30
0.0
  9
$PUCSORGBACK
 10
0.0
 20
0.0
 30
0.0
  9
$USERI1
 70
     0
  9
$USERI2
 70
     0
  9
$USERI3
 70
     0
  9
$USERI4
 70
     0
  9
$USERI5
 70
     0
  9
$USERR1
 40
0.0
  9
$USERR2
 40
0.0
  9
$USERR3
 40
0.0
  9
$USERR4
 40
0.0
  9
$USERR5
 40
0.0
  9
$WORLDVIEW
 70
     1
  9
$SHADEDGE
 70
     3
  9
$SHADEDIF
 70
    70
  9
$TILEMODE
 70
     1
  9
$MAXACTVP
 70
    64
  9
$PINSBASE
 10
0.0
 20
0.0
 30
0.0
  9
$PLIMCHECK
 70
     0
  9
$PEXTMIN
 10
-105.0001941957
 20
-89.2003533775
 30
0.0
  9
$PEXTMAX
 10
104.9997409949
 20
89.2003533775
 30
0.0
  9
$PLIMMIN
 10
0.0
 20
0.0
  9
$PLIMMAX
 10
420.0
 20
297.0
  9
$UNITMODE
 70
     0
  9
$VISRETAIN
 70
     1
  9
$PLINEGEN
 70
     0
  9
$PSLTSCALE
 70
     1
  9
$TREEDEPTH
 70
  3020
  9
$CMLSTYLE
  2
Standard
  9
$CMLJUST
 70
     0
  9
$CMLSCALE
 40
20.0
  9
$PROXYGRAPHICS
 70
     1
  9
$MEASUREMENT
 70
     1
  9
$CELWEIGHT
370
    -1
  9
$ENDCAPS
280
     0
  9
$JOINSTYLE
280
     0
  9
$LWDISPLAY
290
     1
  9
$INSUNITS
 70
     4
  9
$HYPERLINKBASE
  1

  9
$STYLESHEET
  1

  9
$XEDIT
290
     1
  9
$CEPSNTYPE
380
     0
  9
$PSTYLEMODE
290
     1
  9
$FINGERPRINTGUID
  2
{088231EB-3896-4A42-90D5-3CA800C26AF2}
  9
$VERSIONGUID
  2
{FAEB1C32-E019-11D5-929B-00C0DF256EC4}
  9
$EXTNAMES
290
     1
  9
$PSVPSCALE
 40
0.0
  9
$OLESTARTUP
290
     0
  0
ENDSEC
  0
SECTION
  2
CLASSES
  0
CLASS
  1
ACDBDICTIONARYWDFLT
  2
AcDbDictionaryWithDefault
  3
ObjectDBX Classes
 90
        0
280
     0
281
     0
  0
CLASS
  1
VISUALSTYLE
  2
AcDbVisualStyle
  3
ObjectDBX Classes
 90
     4095
280
     0
281
     0
  0
CLASS
  1
MATERIAL
  2
AcDbMaterial
  3
ObjectDBX Classes
 90
     1153
280
     0
281
     0
  0
CLASS
  1
ACDBPLACEHOLDER
  2
AcDbPlaceHolder
  3
ObjectDBX Classes
 90
        0
280
     0
281
     0
  0
CLASS
  1
LAYOUT
  2
AcDbLayout
  3
ObjectDBX Classes
 90
        0
280
     0
281
     0
  0
ENDSEC
  0
SECTION
  2
TABLES
  0
TABLE
  2
VPORT
  5
8
330
0
100
AcDbSymbolTable
 70
     1
  0
VPORT
  5
29
330
8
100
AcDbSymbolTableRecord
100
AcDbViewportTableRecord
  2
*Active
 70
     0
 10
0.0
 20
0.0
 11
1.0
 21
1.0
 12
-0.0002266004
 22
0.0
 13
0.0
 23
0.0
 14
10.0
 24
10.0
 15
10.0
 25
10.0
 16
0.0
 26
0.0
 36
1.0
 17
0.0
 27
0.0
 37
0.0
 40
181.96872089
 41
1.1771250182
 42
50.0
 43
0.0
 44
0.0
 50
0.0
 51
0.0
 71
     0
 72
   100
 73
     1
 74
     3
 75
     0
 76
     0
 77
     0
 78
     0
281
     0
 65
     1
110
0.0
120
0.0
130
0.0
111
1.0
121
0.0
131
0.0
112
0.0
122
1.0
132
0.0
 79
     0
146
0.0
  0
ENDTAB
  0
TABLE
  2
LTYPE
  5
5
330
0
100
AcDbSymbolTable
 70
     6
  0
LTYPE
  5
14
330
5
100
AcDbSymbolTableRecord
100
AcDbLinetypeTableRecord
  2
ByBlock
 70
     0
  3

 72
    65
 73
     0
 40
0.0
  0
LTYPE
  5
15
330
5
100
AcDbSymbolTableRecord
100
AcDbLinetypeTableRecord
  2
ByLayer
 70
     0
  3

 72
    65
 73
     0
 40
0.0
  0
LTYPE
  5
16
330
5
100
AcDbSymbolTableRecord
100
AcDbLinetypeTableRecord
  2
Continuous
 70
     0
  3
Solid line
 72
    65
 73
     0
 40
0.0
  0
LTYPE
  5
3F
330
5
100
AcDbSymbolTableRecord
100
AcDbLinetypeTableRecord
  2
HIDDEN
 70
     0
  3
Hidden __ __ __ __ __ __ __ __ __ __ __ __ __ __
 72
    65
 73
     2
 40
1.905
 49
1.27
 74
     0
 49
-0.635
 74
     0
  0
LTYPE
  5
40
330
5
100
AcDbSymbolTableRecord
100
AcDbLinetypeTableRecord
  2
PHANTOM
 70
     0
  3
Phantom ______  __  __  ______  __  __  ______
 72
    65
 73
     6
 40
12.7
 49
6.35
 74
     0
 49
-1.27
 74
     0
 49
1.27
 74
     0
 49
-1.27
 74
     0
 49
1.27
 74
     0
 49
-1.27
 74
     0
  0
LTYPE
  5
41
330
5
100
AcDbSymbolTableRecord
100
AcDbLinetypeTableRecord
  2
CENTER
 70
     0
  3
Center ____ _ ____ _ ____ _ ____ _ ____ _ ____
 72
    65
 73
     4
 40
10.16
 49
6.35
 74
     0
 49
-1.27
 74
     0
 49
1.27
 74
     0
 49
-1.27
 74
     0
  0
LTYPE
  5
42
330
5
100
AcDbSymbolTableRecord
100
AcDbLinetypeTableRecord
  2
CENTERX2
 70
     0
  3
Center (2x) ________  __  ________  __  _____
 72
    65
 73
     4
 40
20.32
 49
12.7
 74
     0
 49
-2.54
 74
     0
 49
2.54
 74
     0
 49
-2.54
 74
     0
  0
LTYPE
  5
43
330
5
100
AcDbSymbolTableRecord
100
AcDbLinetypeTableRecord
  2
DOT2
 70
     0
  3
Dot (.5x) ........................................
 72
    65
 73
     2
 40
0.635
 49
0.0
 74
     0
 49
-0.635
 74
     0
  0
ENDTAB
  0
TABLE
  2
LAYER
  5
2
330
0
100
AcDbSymbolTable
 70
     1
  0
LAYER
  5
10
330
2
100
AcDbSymbolTableRecord
100
AcDbLayerTableRecord
  2
0
 70
     0
 62
     7
  6
Continuous
370
    -3
390
F
  0
ENDTAB
  0
TABLE
  2
STYLE
  5
3
330
0
100
AcDbSymbolTable
 70
     1
  0
STYLE
  5
11
330
3
100
AcDbSymbolTableRecord
100
AcDbTextStyleTableRecord
  2
Standard
 70
     0
 40
0.0
 41
1.0
 50
0.0
 71
     0
 42
3.5
  3
txt
  4

  0
ENDTAB
  0
TABLE
  2
VIEW
  5
6
330
0
100
AcDbSymbolTable
 70
     0
  0
ENDTAB
  0
TABLE
  2
UCS
  5
7
330
0
100
AcDbSymbolTable
 70
     0
  0
ENDTAB
  0
TABLE
  2
APPID
  5
9
330
0
100
AcDbSymbolTable
 70
     1
  0
APPID
  5
12
330
9
100
AcDbSymbolTableRecord
100
AcDbRegAppTableRecord
  2
ACAD
 70
     0
  0
ENDTAB
  0
TABLE
  2
DIMSTYLE
  5
A
330
0
100
AcDbSymbolTable
 70
     1
100
AcDbDimStyleTable
  0
DIMSTYLE
105
27
330
A
100
AcDbSymbolTableRecord
100
AcDbDimStyleTableRecord
  2
ISO-25
 70
     0
 41
2.5
 42
0.625
 43
3.75
 44
1.25
 73
     0
 74
     0
 77
     1
 78
     8
140
2.5
141
2.5
143
0.0393700787
147
0.625
171
     3
172
     1
178
     0
271
     2
272
     2
274
     3
278
    44
283
     0
284
     8
340
11
  0
ENDTAB
  0
TABLE
  2
BLOCK_RECORD
  5
1
330
0
100
AcDbSymbolTable
 70
     8
  0
BLOCK_RECORD
  5
1F
330
1
100
AcDbSymbolTableRecord
100
AcDbBlockTableRecord
  2
*Model_Space
340
22
  0
BLOCK_RECORD
  5
1B
330
1
100
AcDbSymbolTableRecord
100
AcDbBlockTableRecord
  2
*Paper_Space
340
1E
  0
BLOCK_RECORD
  5
23
330
1
100
AcDbSymbolTableRecord
100
AcDbBlockTableRecord
  2
*Paper_Space0
340
26
  0
BLOCK_RECORD
  5
84
330
1
100
AcDbSymbolTableRecord
100
AcDbBlockTableRecord
  2
*Paper_Space1
340
85
  0
BLOCK_RECORD
  5
90
330
1
100
AcDbSymbolTableRecord
100
AcDbBlockTableRecord
  2
*Paper_Space2
340
91
  0
BLOCK_RECORD
  5
9C
330
1
100
AcDbSymbolTableRecord
100
AcDbBlockTableRecord
  2
*Paper_Space3
340
9D
  0
BLOCK_RECORD
  5
A8
330
1
100
AcDbSymbolTableRecord
100
AcDbBlockTableRecord
  2
*Paper_Space4
340
A9
  0
BLOCK_RECORD
  5
C0
330
1
100
AcDbSymbolTableRecord
100
AcDbBlockTableRecord
  2
*Paper_Space5
340
C1
  0
BLOCK_RECORD
  5
EC
330
1
100
AcDbSymbolTableRecord
100
AcDbBlockTableRecord
  2
*Paper_Space6
340
ED
  0
BLOCK_RECORD
  5
118
330
1
100
AcDbSymbolTableRecord
100
AcDbBlockTableRecord
  2
*Paper_Space7
340
119
  0
ENDTAB
  0
ENDSEC
  0
SECTION
  2
BLOCKS
  0
BLOCK
  5
20
330
1F
100
AcDbEntity
  8
0
100
AcDbBlockBegin
  2
*Model_Space
 70
     0
 10
0.0
 20
0.0
 30
0.0
  3
*Model_Space
  1

  0
ENDBLK
  5
21
330
1F
100
AcDbEntity
  8
0
100
AcDbBlockEnd
  0
BLOCK
  5
1C
330
1B
100
AcDbEntity
 67
     1
  8
0
100
AcDbBlockBegin
  2
*Paper_Space
 70
     0
 10
0.0
 20
0.0
 30
0.0
  3
*Paper_Space
  1

  0
ENDBLK
  5
1D
330
1B
100
AcDbEntity
 67
     1
  8
0
100
AcDbBlockEnd
  0
BLOCK
  5
24
330
23
100
AcDbEntity
  8
0
100
AcDbBlockBegin
  2
*Paper_Space0
 70
     0
 10
0.0
 20
0.0
 30
0.0
  3
*Paper_Space0
  1

  0
LINE
  5
7C
330
23
100
AcDbEntity
  8
0
  6
Continuous
 62
     7
370
    15
100
AcDbLine
 10
35.0001941957
 20
3.0
 30
0.0
 11
35.0001941957
 21
-3.0
 31
0.0
  0
LINE
  5
7D
330
23
100
AcDbEntity
  8
0
  6
Continuous
 62
     7
370
    15
100
AcDbLine
 10
104.9997409949
 20
3.0
 30
0.0
 11
104.9997409949
 21
-3.0
 31
0.0
  0
LINE
  5
7E
330
23
100
AcDbEntity
  8
0
  6
Continuous
 62
     7
370
    15
100
AcDbLine
 10
-105.0001941957
 20
3.0
 30
0.0
 11
-105.0001941957
 21
-3.0
 31
0.0
  0
LINE
  5
7F
330
23
100
AcDbEntity
  8
0
  6
Continuous
 62
     7
370
    15
100
AcDbLine
 10
-104.9992877885
 20
3.0
 30
0.0
 11
-104.9992877885
 21
-3.0
 31
0.0
  0
LINE
  5
80
330
23
100
AcDbEntity
  8
0
  6
Continuous
 62
     7
370
    15
100
AcDbLine
 10
-105.0001941957
 20
-3.0
 30
0.0
 11
104.9997409949
 21
-3.0
 31
0.0
  0
LINE
  5
81
330
23
100
AcDbEntity
  8
0
  6
Continuous
 62
     7
370
    15
100
AcDbLine
 10
-105.0001941957
 20
3.0
 30
0.0
 11
104.9997409949
 21
3.0
 31
0.0
  0
LINE
  5
82
330
23
100
AcDbEntity
  8
0
  6
Continuous
 62
     7
370
    15
100
AcDbLine
 10
-34.9998058043
 20
3.0
 30
0.0
 11
-34.9998058043
 21
-3.0
 31
0.0
  0
LINE
  5
83
330
23
100
AcDbEntity
  8
0
  6
Continuous
 62
     7
370
    15
100
AcDbLine
 10
-34.9971686736
 20
3.0
 30
0.0
 11
-34.9971686736
 21
-3.0
 31
0.0
  0
VIEWPORT
  5
145
330
23
100
AcDbEntity
  8
0
100
AcDbViewport
 10
0.0
 20
0.0
 30
0.0
 40
243.84
 41
204.216
 68
     1
 69
     1
 12
-0.0002266004
 22
0.0
 13
0.0
 23
0.0
 14
10.0
 24
10.0
 15
10.0
 25
10.0
 16
0.0
 26
0.0
 36
1.0
 17
0.0
 27
0.0
 37
0.0
 42
50.0
 43
0.0
 44
0.0
 45
181.96872089
 50
0.0
 51
0.0
 72
   100
 90
   557152
  1

281
     0
 71
     1
 74
     0
110
0.0
120
0.0
130
0.0
111
1.0
121
0.0
131
0.0
112
0.0
122
1.0
132
0.0
 79
     0
146
0.0
  0
ENDBLK
  5
25
330
23
100
AcDbEntity
  8
0
100
AcDbBlockEnd
  0
BLOCK
  5
86
330
84
100
AcDbEntity
  8
0
100
AcDbBlockBegin
  2
*Paper_Space1
 70
     0
 10
0.0
 20
0.0
 30
0.0
  3
*Paper_Space1
  1

  0
LINE
  5
8C
330
84
100
AcDbEntity
  8
0
  6
Continuous
 62
     7
370
    15
100
AcDbLine
 10
-104.9997409949
 20
3.0
 30
0.0
 11
-104.9997409949
 21
-3.0
 31
0.0
  0
LINE
  5
8D
330
84
100
AcDbEntity
  8
0
  6
Continuous
 62
     7
370
    15
100
AcDbLine
 10
105.0001941957
 20
3.0
 30
0.0
 11
105.0001941957
 21
-3.0
 31
0.0
  0
LINE
  5
8E
330
84
100
AcDbEntity
  8
0
  6
Continuous
 62
     7
370
    15
100
AcDbLine
 10
-104.9997409949
 20
-3.0
 30
0.0
 11
105.0001941957
 21
-3.0
 31
0.0
  0
LINE
  5
8F
330
84
100
AcDbEntity
  8
0
  6
Continuous
 62
     7
370
    15
100
AcDbLine
 10
-104.9997409949
 20
3.0
 30
0.0
 11
105.0001941957
 21
3.0
 31
0.0
  0
VIEWPORT
  5
146
330
84
100
AcDbEntity
  8
0
100
AcDbViewport
 10
0.0
 20
0.0
 30
0.0
 40
243.84
 41
204.216
 68
     1
 69
     1
 12
-0.0002266004
 22
0.0
 13
0.0
 23
0.0
 14
10.0
 24
10.0
 15
10.0
 25
10.0
 16
0.0
 26
0.0
 36
1.0
 17
0.0
 27
0.0
 37
0.0
 42
50.0
 43
0.0
 44
0.0
 45
181.96872089
 50
0.0
 51
0.0
 72
   100
 90
   557152
  1

281
     0
 71
     1
 74
     0
110
0.0
120
0.0
130
0.0
111
1.0
121
0.0
131
0.0
112
0.0
122
1.0
132
0.0
 79
     0
146
0.0
  0
ENDBLK
  5
87
330
84
100
AcDbEntity
  8
0
100
AcDbBlockEnd
  0
BLOCK
  5
92
330
90
100
AcDbEntity
  8
0
100
AcDbBlockBegin
  2
*Paper_Space2
 70
     0
 10
0.0
 20
0.0
 30
0.0
  3
*Paper_Space2
  1

  0
LINE
  5
98
330
90
100
AcDbEntity
  8
0
  6
Continuous
 62
     7
370
    15
100
AcDbLine
 10
-89.2003533775
 20
3.0
 30
0.0
 11
-89.2003533775
 21
-3.0
 31
0.0
  0
LINE
  5
99
330
90
100
AcDbEntity
  8
0
  6
Continuous
 62
     7
370
    15
100
AcDbLine
 10
89.2003533775
 20
3.0
 30
0.0
 11
89.2003533775
 21
-3.0
 31
0.0
  0
LINE
  5
9A
330
90
100
AcDbEntity
  8
0
  6
Continuous
 62
     7
370
    15
100
AcDbLine
 10
-89.2003533775
 20
-3.0
 30
0.0
 11
89.2003533775
 21
-3.0
 31
0.0
  0
LINE
  5
9B
330
90
100
AcDbEntity
  8
0
  6
Continuous
 62
     7
370
    15
100
AcDbLine
 10
-89.2003533775
 20
3.0
 30
0.0
 11
89.2003533775
 21
3.0
 31
0.0
  0
VIEWPORT
  5
147
330
90
100
AcDbEntity
  8
0
100
AcDbViewport
 10
0.0
 20
0.0
 30
0.0
 40
243.84
 41
204.216
 68
     1
 69
     1
 12
-0.0002266004
 22
0.0
 13
0.0
 23
0.0
 14
10.0
 24
10.0
 15
10.0
 25
10.0
 16
0.0
 26
0.0
 36
1.0
 17
0.0
 27
0.0
 37
0.0
 42
50.0
 43
0.0
 44
0.0
 45
181.96872089
 50
0.0
 51
0.0
 72
   100
 90
   557152
  1

281
     0
 71
     1
 74
     0
110
0.0
120
0.0
130
0.0
111
1.0
121
0.0
131
0.0
112
0.0
122
1.0
132
0.0
 79
     0
146
0.0
  0
ENDBLK
  5
93
330
90
100
AcDbEntity
  8
0
100
AcDbBlockEnd
  0
BLOCK
  5
9E
330
9C
100
AcDbEntity
  8
0
100
AcDbBlockBegin
  2
*Paper_Space3
 70
     0
 10
0.0
 20
0.0
 30
0.0
  3
*Paper_Space3
  1

  0
LINE
  5
A4
330
9C
100
AcDbEntity
  8
0
  6
Continuous
 62
     7
370
    15
100
AcDbLine
 10
-89.2003533775
 20
3.0
 30
0.0
 11
-89.2003533775
 21
-3.0
 31
0.0
  0
LINE
  5
A5
330
9C
100
AcDbEntity
  8
0
  6
Continuous
 62
     7
370
    15
100
AcDbLine
 10
89.2003533775
 20
3.0
 30
0.0
 11
89.2003533775
 21
-3.0
 31
0.0
  0
LINE
  5
A6
330
9C
100
AcDbEntity
  8
0
  6
Continuous
 62
     7
370
    15
100
AcDbLine
 10
-89.2003533775
 20
-3.0
 30
0.0
 11
89.2003533775
 21
-3.0
 31
0.0
  0
LINE
  5
A7
330
9C
100
AcDbEntity
  8
0
  6
Continuous
 62
     7
370
    15
100
AcDbLine
 10
-89.2003533775
 20
3.0
 30
0.0
 11
89.2003533775
 21
3.0
 31
0.0
  0
VIEWPORT
  5
148
330
9C
100
AcDbEntity
  8
0
100
AcDbViewport
 10
0.0
 20
0.0
 30
0.0
 40
243.84
 41
204.216
 68
     1
 69
     1
 12
-0.0002266004
 22
0.0
 13
0.0
 23
0.0
 14
10.0
 24
10.0
 15
10.0
 25
10.0
 16
0.0
 26
0.0
 36
1.0
 17
0.0
 27
0.0
 37
0.0
 42
50.0
 43
0.0
 44
0.0
 45
181.96872089
 50
0.0
 51
0.0
 72
   100
 90
   557152
  1

281
     0
 71
     1
 74
     0
110
0.0
120
0.0
130
0.0
111
1.0
121
0.0
131
0.0
112
0.0
122
1.0
132
0.0
 79
     0
146
0.0
  0
ENDBLK
  5
9F
330
9C
100
AcDbEntity
  8
0
100
AcDbBlockEnd
  0
BLOCK
  5
AA
330
A8
100
AcDbEntity
  8
0
100
AcDbBlockBegin
  2
*Paper_Space4
 70
     0
 10
0.0
 20
0.0
 30
0.0
  3
*Paper_Space4
  1

  0
CIRCLE
  5
AC
330
A8
100
AcDbEntity
  8
0
  6
Continuous
 62
     7
370
    15
100
AcDbCircle
 10
87.0001941957
 20
67.4435466225
 30
0.0
 40
2.5
  0
CIRCLE
  5
AD
330
A8
100
AcDbEntity
  8
0
  6
Continuous
 62
     7
370
    15
100
AcDbCircle
 10
-51.9998058043
 20
67.4435466225
 30
0.0
 40
2.499999999999986
  0
CIRCLE
  5
B5
330
A8
100
AcDbEntity
  8
0
  6
Continuous
 62
     7
370
    15
100
AcDbCircle
 10
52.0001941957
 20
67.4435466225
 30
0.0
 40
2.5
  0
CIRCLE
  5
B6
330
A8
100
AcDbEntity
  8
0
  6
Continuous
 62
     7
370
    15
100
AcDbCircle
 10
-86.9998058043
 20
67.4435466225
 30
0.0
 40
2.500000000000014
  0
LINE
  5
B8
330
A8
100
AcDbEntity
  8
0
  6
Continuous
 62
     7
370
    15
100
AcDbLine
 10
-104.9992877885
 20
89.2003533775
 30
0.0
 11
-34.9998058043
 21
89.2003533775
 31
0.0
  0
LINE
  5
B9
330
A8
100
AcDbEntity
  8
0
  6
Continuous
 62
     7
370
    15
100
AcDbLine
 10
-34.9998058043
 20
89.2003533775
 30
0.0
 11
-34.9971686736
 21
67.4435466225
 31
0.0
  0
LINE
  5
BA
330
A8
100
AcDbEntity
  8
0
  6
Continuous
 62
     7
370
    15
100
AcDbLine
 10
35.0028313264
 20
67.4435466225
 30
0.0
 11
35.0001941957
 21
89.2003533775
 31
0.0
  0
LINE
  5
BB
330
A8
100
AcDbEntity
  8
0
  6
Continuous
 62
     7
370
    15
100
AcDbLine
 10
104.9997409949
 20
89.2003533775
 30
0.0
 11
104.9997409949
 21
-89.2003533775
 31
0.0
  0
LINE
  5
BC
330
A8
100
AcDbEntity
  8
0
  6
Continuous
 62
     7
370
    15
100
AcDbLine
 10
104.9997409949
 20
-89.2003533775
 30
0.0
 11
-105.0001941957
 21
-89.2003533775
 31
0.0
  0
LINE
  5
BD
330
A8
100
AcDbEntity
  8
0
  6
Continuous
 62
     7
370
    15
100
AcDbLine
 10
-105.0001941957
 20
-89.2003533775
 30
0.0
 11
-104.9992877885
 21
89.2003533775
 31
0.0
  0
LINE
  5
BE
330
A8
100
AcDbEntity
  8
0
  6
Continuous
 62
     7
370
    15
100
AcDbLine
 10
35.0001941957
 20
89.2003533775
 30
0.0
 11
104.9997409949
 21
89.2003533775
 31
0.0
  0
ARC
  5
BF
330
A8
100
AcDbEntity
  8
0
  6
Continuous
 62
     7
370
    15
100
AcDbCircle
 10
0.0028313264
 20
67.4435466225
 30
0.0
 40
35.00000000000001
100
AcDbArc
 50
180.0
 51
0.0
  0
VIEWPORT
  5
149
330
A8
100
AcDbEntity
  8
0
100
AcDbViewport
 10
0.0
 20
0.0
 30
0.0
 40
243.84
 41
204.216
 68
     1
 69
     1
 12
-0.0002266004
 22
0.0
 13
0.0
 23
0.0
 14
10.0
 24
10.0
 15
10.0
 25
10.0
 16
0.0
 26
0.0
 36
1.0
 17
0.0
 27
0.0
 37
0.0
 42
50.0
 43
0.0
 44
0.0
 45
181.96872089
 50
0.0
 51
0.0
 72
   100
 90
   557152
  1

281
     0
 71
     1
 74
     0
110
0.0
120
0.0
130
0.0
111
1.0
121
0.0
131
0.0
112
0.0
122
1.0
132
0.0
 79
     0
146
0.0
  0
ENDBLK
  5
AB
330
A8
100
AcDbEntity
  8
0
100
AcDbBlockEnd
  0
BLOCK
  5
C2
330
C0
100
AcDbEntity
  8
0
100
AcDbBlockBegin
  2
*Paper_Space5
 70
     0
 10
0.0
 20
0.0
 30
0.0
  3
*Paper_Space5
  1

  0
LWPOLYLINE
  5
C4
330
C0
100
AcDbEntity
  8
0
  6
Continuous
 62
     7
370
    15
100
AcDbPolyline
 90
       23
 70
   128
 43
0.0
 10
12.0608711633
 20
-61.6154491163
 10
12.6305156495
 20
-61.8616222161
 10
13.2972248924
 20
-62.005176173
 10
14.0069860743
 20
-62.0344810994
 10
14.7022985653
 20
-61.9471628842
 10
15.3268322826
 20
-61.75029553
 10
15.8299912186
 20
-61.459828059
 10
16.1710124288
 20
-61.0992924182
 10
16.3222684028
 20
-60.6978970611
 10
16.2715052812
 20
-60.2881606523
 10
16.0228355902
 20
-59.9032775988
 10
15.5964050692
 20
-59.5744288367
 10
15.0267605831
 20
-59.3282557369
 10
14.3600513402
 20
-59.1847017799
 10
13.6502901583
 20
-59.1553968536
 10
12.9549776673
 20
-59.2427150688
 10
12.33044395
 20
-59.439582423
 10
11.827285014
 20
-59.730049894
 10
11.4862638038
 20
-60.0905855347
 10
11.3350078298
 20
-60.4919808918
 10
11.3857709514
 20
-60.9017173007
 10
11.6344406424
 20
-61.2866003541
 10
12.0608711633
 20
-61.6154491163
  0
LWPOLYLINE
  5
C5
330
C0
100
AcDbEntity
  8
0
  6
Continuous
 62
     7
370
    15
100
AcDbPolyline
 90
       23
 70
   128
 43
0.0
 10
-86.2269714216
 20
-4.8750853446
 10
-85.6573269354
 20
-5.1212584444
 10
-84.9906176925
 20
-5.2648124014
 10
-84.2808565107
 20
-5.2941173277
 10
-83.5855440197
 20
-5.2067991125
 10
-82.9610103024
 20
-5.0099317583
 10
-82.4578513663
 20
-4.7194642873
 10
-82.1168301561
 20
-4.3589286465
 10
-81.9655741821
 20
-3.9575332894
 10
-82.0163373037
 20
-3.5477968806
 10
-82.2650069947
 20
-3.1629138271
 10
-82.6914375157
 20
-2.834065065
 10
-83.2610820018
 20
-2.5878919652
 10
-83.9277912448
 20
-2.4443380082
 10
-84.6375524266
 20
-2.4150330819
 10
-85.3328649176
 20
-2.5023512971
 10
-85.9573986349
 20
-2.6992186513
 10
-86.460557571
 20
-2.9896861223
 10
-86.8015787811
 20
-3.3502217631
 10
-86.9528347552
 20
-3.7516171202
 10
-86.9020716336
 20
-4.161353529
 10
-86.6534019426
 20
-4.5462365825
 10
-86.2269714216
 20
-4.8750853446
  0
LWPOLYLINE
  5
CA
330
C0
100
AcDbEntity
  8
0
  6
Continuous
 62
     7
370
    15
100
AcDbPolyline
 90
       43
 70
   128
 43
0.0
 10
-72.4365244555
 20
-10.7951206427
 10
-70.5178465087
 20
-9.7673909338
 10
-68.471493609
 20
-8.8253081996
 10
-66.308909792
 20
-7.9741409487
 10
-64.0421891035
 20
-7.2186492539
 10
-61.6840079651
 20
-6.563058131
 10
-59.2475542824
 20
-6.0110339116
 10
-56.7464536925
 20
-5.565663739
 10
-54.1946933646
 20
-5.229438304
 10
-51.6065437776
 20
-5.0042379154
 10
-48.9964789136
 20
-4.8913219853
 10
-46.3790953143
 20
-4.8913219853
 10
-43.7690304503
 20
-5.0042379154
 10
-41.1808808632
 20
-5.229438304
 10
-38.6291205354
 20
-5.565663739
 10
-36.1280199455
 20
-6.0110339116
 10
-33.6915662627
 20
-6.563058131
 10
-31.3333851244
 20
-7.2186492539
 10
-29.0666644359
 20
-7.9741409487
 10
-26.9040806189
 20
-8.8253081996
 10
-24.8577277192
 20
-9.7673909338
 10
-22.9390497724
 20
-10.7951206427
 10
-21.1587768038
 20
-11.9027498449
 10
-19.5268648221
 20
-13.0840842284
 10
-18.052440141
 20
-14.3325172924
 10
-16.7437483413
 20
-15.6410672926
 10
-15.6081081585
 20
-17.0024162866
 10
-14.6518705531
 20
-18.4089510587
 10
-13.8803831938
 20
-19.8528056959
 10
-13.2979605508
 20
-21.3259055774
 10
-12.9078597677
 20
-22.8200125311
 10
-12.7122624463
 20
-24.3267709048
 10
-12.7122624463
 20
-25.8377542945
 10
-12.9078597677
 20
-27.3445126682
 10
-13.2979605508
 20
-28.8386196219
 10
-13.8803831938
 20
-30.3117195033
 10
-14.6518705531
 20
-31.7555741405
 10
-15.6081081585
 20
-33.1621089127
 10
-16.7437483413
 20
-34.5234579067
 10
-18.052440141
 20
-35.8320079069
 10
-19.5268648221
 20
-37.0804409708
 10
-21.1587768039
 20
-38.2617753544
 10
-22.9390497724
 20
-39.3694045565
  0
LWPOLYLINE
  5
CE
330
C0
100
AcDbEntity
  8
0
  6
Continuous
 62
     7
370
    15
100
AcDbPolyline
 90
       23
 70
   128
 43
0.0
 10
-12.6878661782
 20
-47.3283071594
 10
-12.118221692
 20
-47.5744802592
 10
-11.4515124491
 20
-47.7180342162
 10
-10.7417512673
 20
-47.7473391425
 10
-10.0464387763
 20
-47.6600209273
 10
-9.421905059
 20
-47.4631535731
 10
-8.9187461229
 20
-47.1726861021
 10
-8.5777249127
 20
-46.8121504613
 10
-8.4264689387
 20
-46.4107551042
 10
-8.4772320603
 20
-46.0010186954
 10
-8.7259017513
 20
-45.6161356419
 10
-9.1523322723
 20
-45.2872868798
 10
-9.7219767584
 20
-45.04111378
 10
-10.3886860014
 20
-44.897559823
 10
-11.0984471832
 20
-44.8682548967
 10
-11.7937596742
 20
-44.9555731119
 10
-12.4182933915
 20
-45.1524404661
 10
-12.9214523276
 20
-45.4429079371
 10
-13.2624735377
 20
-45.8034435778
 10
-13.4137295118
 20
-46.204838935
 10
-13.3629663902
 20
-46.6145753438
 10
-13.1142966992
 20
-46.9994583972
 10
-12.6878661782
 20
-47.3283071594
  0
LWPOLYLINE
  5
CF
330
C0
100
AcDbEntity
  8
0
  6
Continuous
 62
     7
370
    15
100
AcDbPolyline
 90
       23
 70
   128
 43
0.0
 10
-110.9757087631
 20
9.4120566123
 10
-110.406064277
 20
9.1658835125
 10
-109.7393550341
 20
9.0223295555
 10
-109.0295938522
 20
8.9930246292
 10
-108.3342813612
 20
9.0803428444
 10
-107.7097476439
 20
9.2772101986
 10
-107.2065887079
 20
9.5676776696
 10
-106.8655674977
 20
9.9282133104
 10
-106.7143115237
 20
10.3296086675
 10
-106.7650746453
 20
10.7393450763
 10
-107.0137443363
 20
11.1242281298
 10
-107.4401748572
 20
11.4530768919
 10
-108.0098193434
 20
11.6992499917
 10
-108.6765285863
 20
11.8428039487
 10
-109.3862897682
 20
11.872108875
 10
-110.0816022592
 20
11.7847906598
 10
-110.7061359765
 20
11.5879233056
 10
-111.2092949125
 20
11.2974558346
 10
-111.5503161227
 20
10.9369201938
 10
-111.7015720967
 20
10.5355248367
 10
-111.6508089751
 20
10.1257884279
 10
-111.4021392841
 20
9.7409053744
 10
-110.9757087631
 20
9.4120566123
  0
LWPOLYLINE
  5
D6
330
C0
100
AcDbEntity
  8
0
  6
Continuous
 62
     7
370
    15
100
AcDbPolyline
 90
       31
 70
   128
 43
0.0
 10
-72.4365244555
 20
-15.6943655141
 10
-70.5178465087
 20
-14.6666358051
 10
-68.471493609
 20
-13.7245530709
 10
-66.308909792
 20
-12.8733858201
 10
-64.0421891035
 20
-12.1178941252
 10
-61.6840079651
 20
-11.4623030023
 10
-59.2475542824
 20
-10.9102787829
 10
-56.7464536925
 20
-10.4649086104
 10
-54.1946933646
 20
-10.1286831753
 10
-51.6065437776
 20
-9.9034827867
 10
-48.9964789136
 20
-9.7905668566
 10
-46.3790953143
 20
-9.7905668566
 10
-43.7690304503
 20
-9.9034827867
 10
-41.1808808632
 20
-10.1286831753
 10
-38.6291205354
 20
-10.4649086104
 10
-36.1280199455
 20
-10.9102787829
 10
-33.6915662627
 20
-11.4623030023
 10
-31.3333851244
 20
-12.1178941252
 10
-29.0666644359
 20
-12.8733858201
 10
-26.9040806189
 20
-13.7245530709
 10
-24.8577277192
 20
-14.6666358051
 10
-22.9390497724
 20
-15.6943655141
 10
-21.1587768038
 20
-16.8019947162
 10
-19.5268648221
 20
-17.9833290998
 10
-18.052440141
 20
-19.2317621637
 10
-16.7437483413
 20
-20.5403121639
 10
-15.6081081585
 20
-21.9016611579
 10
-14.6518705531
 20
-23.3081959301
 10
-13.8803831938
 20
-24.7520505673
 10
-13.2979605508
 20
-26.2251504487
 10
-12.9459658025
 20
-27.5318850353
  0
LINE
  5
DB
330
C0
100
AcDbEntity
  8
0
  6
Continuous
 62
     7
370
    15
100
AcDbLine
 10
137.3202036378
 20
-3.9997516707
 30
0.0
 11
-11.1721745842
 21
81.7230736152
 31
0.0
  0
LINE
  5
DC
330
C0
100
AcDbEntity
  8
0
  6
Continuous
 62
     7
370
    15
100
AcDbLine
 10
11.1718541229
 20
-76.8236437455
 30
0.0
 11
137.3202036378
 21
-3.9997516707
 31
0.0
  0
LINE
  5
DD
330
C0
100
AcDbEntity
  8
0
  6
Continuous
 62
     7
370
    15
100
AcDbLine
 10
-38.3253000988
 20
-48.2495448301
 30
0.0
 11
11.1718541229
 21
-76.8236437455
 31
0.0
  0
LINE
  5
DE
330
C0
100
AcDbEntity
  8
0
  6
Continuous
 62
     7
370
    15
100
AcDbLine
 10
-22.9390497724
 20
-39.3694045565
 30
0.0
 11
-38.3253000988
 21
-48.2495448301
 31
0.0
  0
LINE
  5
DF
330
C0
100
AcDbEntity
  8
0
  6
Continuous
 62
     7
370
    15
100
AcDbLine
 10
-87.8227747819
 20
-19.6752609163
 30
0.0
 11
-72.4365244555
 21
-10.7951206427
 31
0.0
  0
LINE
  5
E0
330
C0
100
AcDbEntity
  8
0
  6
Continuous
 62
     7
370
    15
100
AcDbLine
 10
-137.3198831724
 20
8.8988115413
 30
0.0
 11
-87.8227747819
 21
-19.6752609163
 31
0.0
  0
LINE
  5
E1
330
C0
100
AcDbEntity
  8
0
  6
Continuous
 62
     7
370
    15
100
AcDbLine
 10
-11.1721745842
 20
81.7230736152
 30
0.0
 11
-137.3198831724
 21
8.8988115413
 31
0.0
  0
LINE
  5
E2
330
C0
100
AcDbEntity
  8
0
  6
Continuous
 62
     7
370
    15
100
AcDbLine
 10
11.1718541229
 20
-76.8236437455
 30
0.0
 11
11.1718541229
 21
-81.7228886168
 31
0.0
  0
LINE
  5
E3
330
C0
100
AcDbEntity
  8
0
  6
Continuous
 62
     7
370
    15
100
AcDbLine
 10
137.3202036378
 20
-3.9997516707
 30
0.0
 11
137.3202036378
 21
-8.898996542
 31
0.0
  0
LINE
  5
E4
330
C0
100
AcDbEntity
  8
0
  6
Continuous
 62
     7
370
    15
100
AcDbLine
 10
11.1718541229
 20
-81.7228886168
 30
0.0
 11
137.3202036378
 21
-8.898996542
 31
0.0
  0
LINE
  5
E5
330
C0
100
AcDbEntity
  8
0
  6
Continuous
 62
     7
370
    15
100
AcDbLine
 10
-38.3253000988
 20
-48.2495448301
 30
0.0
 11
-38.3253000988
 21
-53.1487897014
 31
0.0
  0
LINE
  5
E6
330
C0
100
AcDbEntity
  8
0
  6
Continuous
 62
     7
370
    15
100
AcDbLine
 10
-38.3253000988
 20
-53.1487897014
 30
0.0
 11
11.1718541229
 21
-81.7228886168
 31
0.0
  0
LINE
  5
E7
330
C0
100
AcDbEntity
  8
0
  6
Continuous
 62
     7
370
    15
100
AcDbLine
 10
-72.4365244555
 20
-10.7951206427
 30
0.0
 11
-72.4365244555
 21
-15.6943655141
 31
0.0
  0
LINE
  5
E8
330
C0
100
AcDbEntity
  8
0
  6
Continuous
 62
     7
370
    15
100
AcDbLine
 10
-87.8227747819
 20
-19.6752609163
 30
0.0
 11
-87.8227747819
 21
-24.5745057876
 31
0.0
  0
LINE
  5
E9
330
C0
100
AcDbEntity
  8
0
  6
Continuous
 62
     7
370
    15
100
AcDbLine
 10
-87.8227747819
 20
-24.5745057876
 30
0.0
 11
-72.4365244555
 21
-15.6943655141
 31
0.0
  0
LINE
  5
EA
330
C0
100
AcDbEntity
  8
0
  6
Continuous
 62
     7
370
    15
100
AcDbLine
 10
-137.3198831724
 20
8.8988115413
 30
0.0
 11
-137.3198831724
 21
3.99956667
 31
0.0
  0
LINE
  5
EB
330
C0
100
AcDbEntity
  8
0
  6
Continuous
 62
     7
370
    15
100
AcDbLine
 10
-137.3198831724
 20
3.99956667
 30
0.0
 11
-87.8227747819
 21
-24.5745057876
 31
0.0
  0
VIEWPORT
  5
14A
330
C0
100
AcDbEntity
  8
0
100
AcDbViewport
 10
0.0
 20
0.0
 30
0.0
 40
243.84
 41
204.216
 68
     1
 69
     1
 12
-0.0002266004
 22
0.0
 13
0.0
 23
0.0
 14
10.0
 24
10.0
 15
10.0
 25
10.0
 16
0.0
 26
0.0
 36
1.0
 17
0.0
 27
0.0
 37
0.0
 42
50.0
 43
0.0
 44
0.0
 45
181.96872089
 50
0.0
 51
0.0
 72
   100
 90
   557152
  1

281
     0
 71
     1
 74
     0
110
0.0
120
0.0
130
0.0
111
1.0
121
0.0
131
0.0
112
0.0
122
1.0
132
0.0
 79
     0
146
0.0
  0
ENDBLK
  5
C3
330
C0
100
AcDbEntity
  8
0
100
AcDbBlockEnd
  0
BLOCK
  5
EE
330
EC
100
AcDbEntity
  8
0
100
AcDbBlockBegin
  2
*Paper_Space6
 70
     0
 10
0.0
 20
0.0
 30
0.0
  3
*Paper_Space6
  1

  0
LWPOLYLINE
  5
F0
330
EC
100
AcDbEntity
  8
0
  6
Continuous
 62
     7
370
    15
100
AcDbPolyline
 90
       23
 70
   128
 43
0.0
 10
44.302217642
 20
-50.2002930678
 10
44.9724021949
 20
-50.3234620246
 10
45.6828145933
 20
-50.3443959883
 10
46.3759014495
 20
-50.2613990136
 10
46.9955129886
 20
-50.0811950218
 10
47.4914519684
 20
-49.8183830685
 10
47.8235403624
 20
-49.4942546154
 10
47.9648743439
 20
-49.1350686218
 10
47.9040038742
 20
-48.769924201
 10
47.6458603168
 20
-48.4284031823
 10
47.2113569274
 20
-48.1381735674
 10
46.6356945867
 20
-47.9227480338
 10
45.9655100337
 20
-47.799579077
 10
45.2550976354
 20
-47.7786451133
 10
44.5620107791
 20
-47.861642088
 10
43.9423992401
 20
-48.0418460799
 10
43.4464602603
 20
-48.3046580331
 10
43.1143718663
 20
-48.6287864863
 10
42.9730378848
 20
-48.9879724798
 10
43.0339083545
 20
-49.3531169006
 10
43.2920519119
 20
-49.6946379194
 10
43.7265553012
 20
-49.9848675342
 10
44.302217642
 20
-50.2002930678
  0
LWPOLYLINE
  5
F1
330
EC
100
AcDbEntity
  8
0
  6
Continuous
 62
     7
370
    15
100
AcDbPolyline
 90
       23
 70
   128
 43
0.0
 10
-78.6319012712
 20
-16.7894337068
 10
-77.9617167182
 20
-16.9126026636
 10
-77.2513043199
 20
-16.9335366272
 10
-76.5582174636
 20
-16.8505396525
 10
-75.9386059246
 20
-16.6703356607
 10
-75.4426669448
 20
-16.4075237075
 10
-75.1105785508
 20
-16.0833952543
 10
-74.9692445693
 20
-15.7242092608
 10
-75.030115039
 20
-15.35906484
 10
-75.2882585964
 20
-15.0175438212
 10
-75.7227619857
 20
-14.7273142063
 10
-76.2984243265
 20
-14.5118886727
 10
-76.9686088794
 20
-14.3887197159
 10
-77.6790212778
 20
-14.3677857522
 10
-78.372108134
 20
-14.450782727
 10
-78.9917196731
 20
-14.6309867188
 10
-79.4876586529
 20
-14.893798672
 10
-79.8197470469
 20
-15.2179271252
 10
-79.9610810284
 20
-15.5771131187
 10
-79.9002105587
 20
-15.9422575395
 10
-79.6420670013
 20
-16.2837785583
 10
-79.2075636119
 20
-16.5740081731
 10
-78.6319012712
 20
-16.7894337068
  0
LWPOLYLINE
  5
F6
330
EC
100
AcDbEntity
  8
0
  6
Continuous
 62
     7
370
    15
100
AcDbPolyline
 90
       43
 70
   128
 43
0.0
 10
-62.4277224041
 20
-19.7375152757
 10
-61.1205003154
 20
-18.5696311136
 10
-59.6474778716
 20
-17.455326059
 10
-58.016892812
 20
-16.4008317577
 10
-56.2378640295
 20
-15.4120453695
 10
-54.3203405747
 20
-14.4944965891
 10
-52.2750460166
 20
-13.6533167215
 10
-50.113418472
 20
-12.8932099855
 10
-47.8475466391
 20
-12.2184272066
 10
-45.4901021921
 20
-11.6327420435
 10
-43.0542689168
 20
-11.1394298855
 10
-40.5536689808
 20
-10.7412495341
 10
-38.0022867534
 20
-10.4404277755
 10
-35.4143905989
 20
-10.2386469268
 10
-32.8044530823
 20
-10.1370354285
 10
-30.1870700329
 20
-10.1361615333
 10
-27.5768789185
 20
-10.2360301284
 10
-24.9884769865
 20
-10.436082708
 10
-22.4363396305
 20
-10.735200497
 10
-19.9347394379
 20
-11.1317107074
 10
-17.4976663716
 20
-11.6233958932
 10
-15.1387495329
 20
-12.2075063514
 10
-12.8711809414
 20
-12.8807754995
 10
-10.7076417608
 20
-13.6394381432
 10
-8.6602313795
 20
-14.4792515333
 10
-6.740399747
 20
-15.3955190927
 10
-4.9588833406
 20
-16.3831166814
 10
-3.3256451225
 20
-17.4365212533
 10
-1.8498188236
 20
-18.5498417425
 10
-0.539657863
 20
-19.7168520093
 10
0.5975108077
 20
-20.931025659
 10
1.5553276801
 20
-22.1855725399
 10
2.3284362535
 20
-23.4734767171
 10
2.9125129914
 20
-24.7875357078
 10
3.3042914996
 20
-26.1204007613
 10
3.5015807938
 20
-27.4646179555
 10
3.5032775522
 20
-28.8126698826
 10
3.309372286
 20
-30.1570176893
 10
2.9209493919
 20
-31.4901432374
 10
2.3401810884
 20
-32.8045911481
 10
1.5703152674
 20
-34.0930104956
 10
0.6156573309
 20
-35.348195916
 10
-0.5184538867
 20
-36.5631279035
  0
LWPOLYLINE
  5
FA
330
EC
100
AcDbEntity
  8
0
  6
Continuous
 62
     7
370
    15
100
AcDbPolyline
 90
       23
 70
   128
 43
0.0
 10
13.3475833833
 20
-41.7874867539
 10
14.0177679362
 20
-41.9106557107
 10
14.7281803346
 20
-41.9315896744
 10
15.4212671908
 20
-41.8485926997
 10
16.0408787298
 20
-41.6683887078
 10
16.5368177097
 20
-41.4055767546
 10
16.8689061037
 20
-41.0814483014
 10
17.0102400851
 20
-40.7222623079
 10
16.9493696155
 20
-40.3571178871
 10
16.691226058
 20
-40.0155968683
 10
16.2567226687
 20
-39.7253672535
 10
15.6810603279
 20
-39.5099417199
 10
15.010875775
 20
-39.386772763
 10
14.3004633767
 20
-39.3658387994
 10
13.6073765204
 20
-39.4488357741
 10
12.9877649814
 20
-39.6290397659
 10
12.4918260016
 20
-39.8918517191
 10
12.1597376076
 20
-40.2159801723
 10
12.0184036261
 20
-40.5751661658
 10
12.0792740958
 20
-40.9403105867
 10
12.3374176532
 20
-41.2818316054
 10
12.7719210425
 20
-41.5720612203
 10
13.3475833833
 20
-41.7874867539
  0
LWPOLYLINE
  5
FB
330
EC
100
AcDbEntity
  8
0
  6
Continuous
 62
     7
370
    15
100
AcDbPolyline
 90
       23
 70
   128
 43
0.0
 10
-109.5865355299
 20
-8.3766273928
 10
-108.9163509769
 20
-8.4997963496
 10
-108.2059385786
 20
-8.5207303133
 10
-107.5128517223
 20
-8.4377333386
 10
-106.8932401833
 20
-8.2575293468
 10
-106.3973012035
 20
-7.9947173935
 10
-106.0652128095
 20
-7.6705889404
 10
-105.923878828
 20
-7.3114029468
 10
-105.9847492977
 20
-6.946258526
 10
-106.2428928551
 20
-6.6047375073
 10
-106.6773962445
 20
-6.3145078924
 10
-107.2530585852
 20
-6.0990823588
 10
-107.9232431381
 20
-5.975913402
 10
-108.6336555365
 20
-5.9549794383
 10
-109.3267423928
 20
-6.037976413
 10
-109.9463539318
 20
-6.2181804049
 10
-110.4422929116
 20
-6.4809923581
 10
-110.7743813056
 20
-6.8051208113
 10
-110.9157152871
 20
-7.1643068048
 10
-110.8548448174
 20
-7.5294512256
 10
-110.59670126
 20
-7.8709722444
 10
-110.1621978706
 20
-8.1612018592
 10
-109.5865355299
 20
-8.3766273928
  0
LWPOLYLINE
  5
102
330
EC
100
AcDbEntity
  8
0
  6
Continuous
 62
     7
370
    15
100
AcDbPolyline
 90
       35
 70
   128
 43
0.0
 10
-62.4277224041
 20
-24.8805190799
 10
-61.1205003154
 20
-23.7126349178
 10
-59.6474778716
 20
-22.5983298632
 10
-58.016892812
 20
-21.5438355619
 10
-56.2378640295
 20
-20.5550491737
 10
-54.3203405747
 20
-19.6375003933
 10
-52.2750460166
 20
-18.7963205257
 10
-50.113418472
 20
-18.0362137897
 10
-47.8475466391
 20
-17.3614310108
 10
-45.4901021921
 20
-16.7757458478
 10
-43.0542689168
 20
-16.2824336897
 10
-40.5536689808
 20
-15.8842533384
 10
-38.0022867534
 20
-15.5834315797
 10
-35.4143905989
 20
-15.381650731
 10
-32.8044530823
 20
-15.2800392328
 10
-30.1870700329
 20
-15.2791653375
 10
-27.5768789185
 20
-15.3790339326
 10
-24.9884769865
 20
-15.5790865122
 10
-22.4363396305
 20
-15.8782043012
 10
-19.9347394379
 20
-16.2747145116
 10
-17.4976663716
 20
-16.7663996974
 10
-15.1387495329
 20
-17.3505101557
 10
-12.8711809414
 20
-18.0237793037
 10
-10.7076417608
 20
-18.7824419474
 10
-8.6602313795
 20
-19.6222553375
 10
-6.740399747
 20
-20.5385228969
 10
-4.9588833406
 20
-21.5261204857
 10
-3.3256451225
 20
-22.5795250575
 10
-1.8498188236
 20
-23.6928455467
 10
-0.539657863
 20
-24.8598558135
 10
0.5975108077
 20
-26.0740294632
 10
1.5553276801
 20
-27.3285763441
 10
2.3284362535
 20
-28.6164805213
 10
2.9125129914
 20
-29.930539512
 10
3.1689609314
 20
-30.7218234917
  0
LINE
  5
107
330
EC
100
AcDbEntity
  8
0
  6
Continuous
 62
     7
370
    15
100
AcDbLine
 10
134.4930673195
 20
17.9647095898
 30
0.0
 11
-51.2346809141
 21
68.4415318955
 31
0.0
  0
LINE
  5
108
330
EC
100
AcDbEntity
  8
0
  6
Continuous
 62
     7
370
    15
100
AcDbLine
 10
51.2342800952
 20
-63.2984191573
 30
0.0
 11
134.4930673195
 21
17.9647095898
 31
0.0
  0
LINE
  5
109
330
EC
100
AcDbEntity
  8
0
  6
Continuous
 62
     7
370
    15
100
AcDbLine
 10
-10.6745876033
 20
-46.4729154634
 30
0.0
 11
51.2342800952
 21
-63.2984191573
 31
0.0
  0
LINE
  5
10A
330
EC
100
AcDbEntity
  8
0
  6
Continuous
 62
     7
370
    15
100
AcDbLine
 10
-0.5184538867
 20
-36.5631279035
 30
0.0
 11
-10.6745876033
 21
-46.4729154634
 31
0.0
  0
LINE
  5
10B
330
EC
100
AcDbEntity
  8
0
  6
Continuous
 62
     7
370
    15
100
AcDbLine
 10
-72.5838561207
 20
-29.6473028355
 30
0.0
 11
-62.4277224041
 21
-19.7375152757
 31
0.0
  0
LINE
  5
10C
330
EC
100
AcDbEntity
  8
0
  6
Continuous
 62
     7
370
    15
100
AcDbLine
 10
-134.4926664955
 20
-12.821814721
 30
0.0
 11
-72.5838561207
 21
-29.6473028355
 31
0.0
  0
LINE
  5
10D
330
EC
100
AcDbEntity
  8
0
  6
Continuous
 62
     7
370
    15
100
AcDbLine
 10
-51.2346809141
 20
68.4415318955
 30
0.0
 11
-134.4926664955
 21
-12.821814721
 31
0.0
  0
LINE
  5
10E
330
EC
100
AcDbEntity
  8
0
  6
Continuous
 62
     7
370
    15
100
AcDbLine
 10
51.2342800952
 20
-63.2984191573
 30
0.0
 11
51.2342800952
 21
-68.4414229615
 31
0.0
  0
LINE
  5
10F
330
EC
100
AcDbEntity
  8
0
  6
Continuous
 62
     7
370
    15
100
AcDbLine
 10
134.4930673195
 20
17.9647095898
 30
0.0
 11
134.4930673195
 21
12.8217057856
 31
0.0
  0
LINE
  5
110
330
EC
100
AcDbEntity
  8
0
  6
Continuous
 62
     7
370
    15
100
AcDbLine
 10
51.2342800952
 20
-68.4414229615
 30
0.0
 11
134.4930673195
 21
12.8217057856
 31
0.0
  0
LINE
  5
111
330
EC
100
AcDbEntity
  8
0
  6
Continuous
 62
     7
370
    15
100
AcDbLine
 10
-10.6745876033
 20
-46.4729154634
 30
0.0
 11
-10.6745876033
 21
-51.6159192676
 31
0.0
  0
LINE
  5
112
330
EC
100
AcDbEntity
  8
0
  6
Continuous
 62
     7
370
    15
100
AcDbLine
 10
-10.6745876033
 20
-51.6159192676
 30
0.0
 11
51.2342800952
 21
-68.4414229615
 31
0.0
  0
LINE
  5
113
330
EC
100
AcDbEntity
  8
0
  6
Continuous
 62
     7
370
    15
100
AcDbLine
 10
-62.4277224041
 20
-19.7375152757
 30
0.0
 11
-62.4277224041
 21
-24.8805190799
 31
0.0
  0
LINE
  5
114
330
EC
100
AcDbEntity
  8
0
  6
Continuous
 62
     7
370
    15
100
AcDbLine
 10
-72.5838561207
 20
-29.6473028355
 30
0.0
 11
-72.5838561207
 21
-34.7903066398
 31
0.0
  0
LINE
  5
115
330
EC
100
AcDbEntity
  8
0
  6
Continuous
 62
     7
370
    15
100
AcDbLine
 10
-72.5838561207
 20
-34.7903066398
 30
0.0
 11
-62.4277224041
 21
-24.8805190799
 31
0.0
  0
LINE
  5
116
330
EC
100
AcDbEntity
  8
0
  6
Continuous
 62
     7
370
    15
100
AcDbLine
 10
-134.4926664955
 20
-12.821814721
 30
0.0
 11
-134.4926664955
 21
-17.9648185252
 31
0.0
  0
LINE
  5
117
330
EC
100
AcDbEntity
  8
0
  6
Continuous
 62
     7
370
    15
100
AcDbLine
 10
-134.4926664955
 20
-17.9648185252
 30
0.0
 11
-72.5838561207
 21
-34.7903066398
 31
0.0
  0
VIEWPORT
  5
14B
330
EC
100
AcDbEntity
  8
0
100
AcDbViewport
 10
0.0
 20
0.0
 30
0.0
 40
243.84
 41
204.216
 68
     1
 69
     1
 12
-0.0002266004
 22
0.0
 13
0.0
 23
0.0
 14
10.0
 24
10.0
 15
10.0
 25
10.0
 16
0.0
 26
0.0
 36
1.0
 17
0.0
 27
0.0
 37
0.0
 42
50.0
 43
0.0
 44
0.0
 45
181.96872089
 50
0.0
 51
0.0
 72
   100
 90
   557152
  1

281
     0
 71
     1
 74
     0
110
0.0
120
0.0
130
0.0
111
1.0
121
0.0
131
0.0
112
0.0
122
1.0
132
0.0
 79
     0
146
0.0
  0
ENDBLK
  5
EF
330
EC
100
AcDbEntity
  8
0
100
AcDbBlockEnd
  0
BLOCK
  5
11A
330
118
100
AcDbEntity
  8
0
100
AcDbBlockBegin
  2
*Paper_Space7
 70
     0
 10
0.0
 20
0.0
 30
0.0
  3
*Paper_Space7
  1

  0
LWPOLYLINE
  5
11C
330
118
100
AcDbEntity
  8
0
  6
Continuous
 62
     7
370
    15
100
AcDbPolyline
 90
       23
 70
   128
 43
0.0
 10
56.6524517656
 20
-29.2333764024
 10
57.3470969459
 20
-29.2848069416
 10
58.0570730876
 20
-29.2689194617
 10
58.7248621459
 20
-29.1870010718
 10
59.2963638229
 20
-29.0456883128
 10
59.7252784515
 20
-28.8564295038
 10
59.9768579195
 20
-28.634557268
 10
60.0307207544
 20
-28.3980463746
 10
59.8825033099
 20
-28.1660575294
 10
59.5442132816
 20
-27.957385089
 10
59.0432569159
 20
-27.7889344535
 10
58.4202187182
 20
-27.6743524916
 10
57.7255735379
 20
-27.6229219524
 10
57.0155973963
 20
-27.6388094323
 10
56.347808338
 20
-27.7207278221
 10
55.776306661
 20
-27.8620405812
 10
55.3473920323
 20
-28.0512993902
 10
55.0958125644
 20
-28.2731716259
 10
55.0419497294
 20
-28.5096825194
 10
55.190167174
 20
-28.7416713646
 10
55.5284572022
 20
-28.950343805
 10
56.0294135679
 20
-29.1187944405
 10
56.6524517656
 20
-29.2333764024
  0
LWPOLYLINE
  5
11D
330
118
100
AcDbEntity
  8
0
  6
Continuous
 62
     7
370
    15
100
AcDbPolyline
 90
       23
 70
   128
 43
0.0
 10
-73.370142429
 20
-12.8520693126
 10
-72.6754972487
 20
-12.9034998518
 10
-71.9655211071
 20
-12.8876123719
 10
-71.2977320488
 20
-12.805693982
 10
-70.7262303718
 20
-12.6643812229
 10
-70.2973157432
 20
-12.4751224139
 10
-70.0457362752
 20
-12.2532501782
 10
-69.9918734402
 20
-12.0167392847
 10
-70.1400908848
 20
-11.7847504395
 10
-70.478380913
 20
-11.5760779991
 10
-70.9793372787
 20
-11.4076273636
 10
-71.6023754765
 20
-11.2930454017
 10
-72.2970206568
 20
-11.2416148625
 10
-73.0069967984
 20
-11.2575023424
 10
-73.6747858567
 20
-11.3394207323
 10
-74.2462875337
 20
-11.4807334914
 10
-74.6752021623
 20
-11.6699923004
 10
-74.9267816303
 20
-11.8918645361
 10
-74.9806444653
 20
-12.1283754296
 10
-74.8324270207
 20
-12.3603642748
 10
-74.4941369925
 20
-12.5690367152
 10
-73.9931806268
 20
-12.7374873507
 10
-73.370142429
 20
-12.8520693126
  0
LWPOLYLINE
  5
122
330
118
100
AcDbEntity
  8
0
  6
Continuous
 62
     7
370
    15
100
AcDbPolyline
 90
       43
 70
   128
 43
0.0
 10
-56.5817482485
 20
-14.0763373584
 10
-55.5654642318
 20
-13.2723290873
 10
-54.3717711111
 20
-12.4958846529
 10
-53.0073445028
 20
-11.7513462475
 10
-51.4798148338
 20
-11.0428776318
 10
-49.7977246696
 20
-10.3744408498
 10
-47.9704809409
 20
-9.7497740711
 10
-46.0083023357
 20
-9.1723706856
 10
-43.9221621527
 20
-8.6454597674
 10
-41.723726934
 20
-8.1719880159
 10
-39.4252912212
 20
-7.7546032774
 10
-37.0397087991
 20
-7.3956397366
 10
-34.5803208123
 20
-7.0971048632
 10
-32.0608811559
 20
-6.8606681853
 10
-29.4954795586
 20
-6.6876519527
 10
-26.8984627868
 20
-6.5790237424
 10
-24.2843544115
 20
-6.5353910474
 10
-21.6677735874
 20
-6.5569978794
 10
-19.0633532956
 20
-6.6437234042
 10
-16.485658511
 20
-6.7950826176
 10
-13.9491047484
 20
-7.0102290575
 10
-11.4678774453
 20
-7.2879595376
 10
-9.0558526313
 20
-7.6267208764
 10
-6.7265193275
 20
-8.0246185832
 10
-4.4929041108
 20
-8.4794274525
 10
-2.3674982633
 20
-8.9886040087
 10
-0.3621879168
 20
-9.54930073
 10
1.5118124199
 20
-10.1583819728
 10
3.2440225767
 20
-10.8124415077
 10
4.8247553318
 20
-11.5078215685
 10
6.2451705864
 20
-12.2406333079
 10
7.4973248022
 20
-13.0067785453
 10
8.5742154249
 20
-13.8019726858
 10
9.4698200454
 20
-14.6217686812
 10
10.1791300793
 20
-15.4615818998
 10
10.6981787772
 20
-16.3167157654
 10
11.0240634082
 20
-17.1823880225
 10
11.1549614933
 20
-18.0537574807
 10
11.0901409973
 20
-18.9259510885
 10
10.8299644226
 20
-19.7940911856
 10
10.3758867823
 20
-20.6533227802
 10
9.7304474626
 20
-21.4988407009
 10
8.8972560222
 20
-22.3259164684
  0
LWPOLYLINE
  5
126
330
118
100
AcDbEntity
  8
0
  6
Continuous
 62
     7
370
    15
100
AcDbPolyline
 90
       23
 70
   128
 43
0.0
 10
23.9129496303
 20
-25.1085868474
 10
24.6075948106
 20
-25.1600173866
 10
25.3175709522
 20
-25.1441299067
 10
25.9853600105
 20
-25.0622115168
 10
26.5568616875
 20
-24.9208987578
 10
26.9857763162
 20
-24.7316399488
 10
27.2373557841
 20
-24.509767713
 10
27.2912186191
 20
-24.2732568196
 10
27.1430011745
 20
-24.0412679744
 10
26.8047111463
 20
-23.832595534
 10
26.3037547806
 20
-23.6641448985
 10
25.6807165828
 20
-23.5495629366
 10
24.9860714025
 20
-23.4981323974
 10
24.2760952609
 20
-23.5140198773
 10
23.6083062026
 20
-23.5959382671
 10
23.0368045256
 20
-23.7372510262
 10
22.607889897
 20
-23.9265098352
 10
22.356310429
 20
-24.148382071
 10
22.302447594
 20
-24.3848929644
 10
22.4506650386
 20
-24.6168818096
 10
22.7889550668
 20
-24.82555425
 10
23.2899114326
 20
-24.9940048855
 10
23.9129496303
 20
-25.1085868474
  0
LWPOLYLINE
  5
127
330
118
100
AcDbEntity
  8
0
  6
Continuous
 62
     7
370
    15
100
AcDbPolyline
 90
       23
 70
   128
 43
0.0
 10
-106.1096445644
 20
-8.7272797576
 10
-105.4149993841
 20
-8.7787102968
 10
-104.7050232424
 20
-8.7628228169
 10
-104.0372341841
 20
-8.680904427
 10
-103.4657325072
 20
-8.5395916679
 10
-103.0368178785
 20
-8.3503328589
 10
-102.7852384105
 20
-8.1284606232
 10
-102.7313755756
 20
-7.8919497297
 10
-102.8795930201
 20
-7.6599608845
 10
-103.2178830484
 20
-7.4512884441
 10
-103.7188394141
 20
-7.2828378086
 10
-104.3418776118
 20
-7.1682558467
 10
-105.0365227921
 20
-7.1168253075
 10
-105.7464989337
 20
-7.1327127874
 10
-106.414287992
 20
-7.2146311773
 10
-106.985789669
 20
-7.3559439364
 10
-107.4147042977
 20
-7.5452027454
 10
-107.6662837656
 20
-7.7670749811
 10
-107.7201466006
 20
-8.0035858746
 10
-107.571929156
 20
-8.2355747198
 10
-107.2336391278
 20
-8.4442471602
 10
-106.7326827621
 20
-8.6126977957
 10
-106.1096445644
 20
-8.7272797576
  0
LWPOLYLINE
  5
12E
330
118
100
AcDbEntity
  8
0
  6
Continuous
 62
     7
370
    15
100
AcDbPolyline
 90
       35
 70
   128
 43
0.0
 10
-56.5817482485
 20
-19.7331916081
 10
-55.5654642318
 20
-18.9291833369
 10
-54.3717711111
 20
-18.1527389025
 10
-53.0073445028
 20
-17.4082004971
 10
-51.4798148338
 20
-16.6997318815
 10
-49.7977246696
 20
-16.0312950995
 10
-47.9704809409
 20
-15.4066283207
 10
-46.0083023357
 20
-14.8292249353
 10
-43.9221621527
 20
-14.302314017
 10
-41.723726934
 20
-13.8288422656
 10
-39.4252912212
 20
-13.4114575271
 10
-37.0397087991
 20
-13.0524939863
 10
-34.5803208123
 20
-12.7539591128
 10
-32.0608811559
 20
-12.5175224349
 10
-29.4954795586
 20
-12.3445062023
 10
-26.8984627868
 20
-12.235877992
 10
-24.2843544115
 20
-12.192245297
 10
-21.6677735874
 20
-12.213852129
 10
-19.0633532956
 20
-12.3005776539
 10
-16.485658511
 20
-12.4519368673
 10
-13.9491047484
 20
-12.6670833071
 10
-11.4678774453
 20
-12.9448137872
 10
-9.0558526313
 20
-13.2835751261
 10
-6.7265193275
 20
-13.6814728329
 10
-4.4929041108
 20
-14.1362817022
 10
-2.3674982633
 20
-14.6454582584
 10
-0.3621879168
 20
-15.2061549796
 10
1.5118124199
 20
-15.8152362224
 10
3.2440225767
 20
-16.4692957573
 10
4.8247553318
 20
-17.1646758182
 10
6.2451705864
 20
-17.8974875575
 10
7.4973248022
 20
-18.663632795
 10
8.5742154249
 20
-19.4588269355
 10
9.4698200454
 20
-20.2786229309
 10
10.1136075789
 20
-21.0295540382
  0
LINE
  5
133
330
118
100
AcDbEntity
  8
0
  6
Continuous
 62
     7
370
    15
100
AcDbLine
 10
129.7553515005
 20
18.267185738
 30
0.0
 11
-66.681600688
 21
43.0159154301
 31
0.0
  0
LINE
  5
134
330
118
100
AcDbEntity
  8
0
  6
Continuous
 62
     7
370
    15
100
AcDbLine
 10
66.6811767575
 20
-37.3590077702
 30
0.0
 11
129.7553515005
 21
18.267185738
 31
0.0
  0
LINE
  5
135
330
118
100
AcDbEntity
  8
0
  6
Continuous
 62
     7
370
    15
100
AcDbLine
 10
1.2025964173
 20
-29.1094820704
 30
0.0
 11
66.6811767575
 21
-37.3590077702
 31
0.0
  0
LINE
  5
136
330
118
100
AcDbEntity
  8
0
  6
Continuous
 62
     7
370
    15
100
AcDbLine
 10
8.8972560222
 20
-22.3259164684
 30
0.0
 11
1.2025964173
 21
-29.1094820704
 31
0.0
  0
LINE
  5
137
330
118
100
AcDbEntity
  8
0
  6
Continuous
 62
     7
370
    15
100
AcDbLine
 10
-64.2764078534
 20
-20.8599029605
 30
0.0
 11
-56.5817482485
 21
-14.0763373584
 31
0.0
  0
LINE
  5
138
330
118
100
AcDbEntity
  8
0
  6
Continuous
 62
     7
370
    15
100
AcDbLine
 10
-129.7549275646
 20
-12.6103848992
 30
0.0
 11
-64.2764078534
 21
-20.8599029605
 31
0.0
  0
LINE
  5
139
330
118
100
AcDbEntity
  8
0
  6
Continuous
 62
     7
370
    15
100
AcDbLine
 10
-66.681600688
 20
43.0159154301
 30
0.0
 11
-129.7549275646
 21
-12.6103848992
 31
0.0
  0
LINE
  5
13A
330
118
100
AcDbEntity
  8
0
  6
Continuous
 62
     7
370
    15
100
AcDbLine
 10
66.6811767575
 20
-37.3590077702
 30
0.0
 11
66.6811767575
 21
-43.0158620199
 31
0.0
  0
LINE
  5
13B
330
118
100
AcDbEntity
  8
0
  6
Continuous
 62
     7
370
    15
100
AcDbLine
 10
129.7553515005
 20
18.267185738
 30
0.0
 11
129.7553515005
 21
12.6103314883
 31
0.0
  0
LINE
  5
13C
330
118
100
AcDbEntity
  8
0
  6
Continuous
 62
     7
370
    15
100
AcDbLine
 10
66.6811767575
 20
-43.0158620199
 30
0.0
 11
129.7553515005
 21
12.6103314883
 31
0.0
  0
LINE
  5
13D
330
118
100
AcDbEntity
  8
0
  6
Continuous
 62
     7
370
    15
100
AcDbLine
 10
1.2025964173
 20
-29.1094820704
 30
0.0
 11
1.2025964173
 21
-34.7663363201
 31
0.0
  0
LINE
  5
13E
330
118
100
AcDbEntity
  8
0
  6
Continuous
 62
     7
370
    15
100
AcDbLine
 10
1.2025964173
 20
-34.7663363201
 30
0.0
 11
66.6811767575
 21
-43.0158620199
 31
0.0
  0
LINE
  5
13F
330
118
100
AcDbEntity
  8
0
  6
Continuous
 62
     7
370
    15
100
AcDbLine
 10
-56.5817482485
 20
-14.0763373584
 30
0.0
 11
-56.5817482485
 21
-19.7331916081
 31
0.0
  0
LINE
  5
140
330
118
100
AcDbEntity
  8
0
  6
Continuous
 62
     7
370
    15
100
AcDbLine
 10
-64.2764078534
 20
-20.8599029605
 30
0.0
 11
-64.2764078534
 21
-26.5167572101
 31
0.0
  0
LINE
  5
141
330
118
100
AcDbEntity
  8
0
  6
Continuous
 62
     7
370
    15
100
AcDbLine
 10
-64.2764078534
 20
-26.5167572101
 30
0.0
 11
-56.5817482485
 21
-19.7331916081
 31
0.0
  0
LINE
  5
142
330
118
100
AcDbEntity
  8
0
  6
Continuous
 62
     7
370
    15
100
AcDbLine
 10
-129.7549275646
 20
-12.6103848992
 30
0.0
 11
-129.7549275646
 21
-18.2672391489
 31
0.0
  0
LINE
  5
143
330
118
100
AcDbEntity
  8
0
  6
Continuous
 62
     7
370
    15
100
AcDbLine
 10
-129.7549275646
 20
-18.2672391489
 30
0.0
 11
-64.2764078534
 21
-26.5167572101
 31
0.0
  0
VIEWPORT
  5
14C
330
118
100
AcDbEntity
  8
0
100
AcDbViewport
 10
0.0
 20
0.0
 30
0.0
 40
243.84
 41
204.216
 68
     1
 69
     1
 12
-0.0002266004
 22
0.0
 13
0.0
 23
0.0
 14
10.0
 24
10.0
 15
10.0
 25
10.0
 16
0.0
 26
0.0
 36
1.0
 17
0.0
 27
0.0
 37
0.0
 42
50.0
 43
0.0
 44
0.0
 45
181.96872089
 50
0.0
 51
0.0
 72
   100
 90
   557152
  1

281
     0
 71
     1
 74
     0
110
0.0
120
0.0
130
0.0
111
1.0
121
0.0
131
0.0
112
0.0
122
1.0
132
0.0
 79
     0
146
0.0
  0
ENDBLK
  5
11B
330
118
100
AcDbEntity
  8
0
100
AcDbBlockEnd
  0
ENDSEC
  0
SECTION
  2
ENTITIES
  0
CIRCLE
  5
44
330
1F
100
AcDbEntity
  8
0
  6
Continuous
 62
     7
370
    15
100
AcDbCircle
 10
87.0001941957
 20
-67.4435466225
 30
0.0
 40
2.5
  0
CIRCLE
  5
45
330
1F
100
AcDbEntity
  8
0
  6
Continuous
 62
     7
370
    15
100
AcDbCircle
 10
-51.9998058043
 20
-67.4435466225
 30
0.0
 40
2.499999999999986
  0
CIRCLE
  5
4E
330
1F
100
AcDbEntity
  8
0
  6
Continuous
 62
     7
370
    15
100
AcDbCircle
 10
52.0001941957
 20
-67.4435466225
 30
0.0
 40
2.5
  0
CIRCLE
  5
4F
330
1F
100
AcDbEntity
  8
0
  6
Continuous
 62
     7
370
    15
100
AcDbCircle
 10
-86.9998058043
 20
-67.4435466225
 30
0.0
 40
2.500000000000014
  0
LINE
  5
50
330
1F
100
AcDbEntity
  8
0
  6
Continuous
 62
     7
370
    15
100
AcDbLine
 10
104.9997409949
 20
89.2003533775
 30
0.0
 11
-105.0001941957
 21
89.2003533775
 31
0.0
  0
LINE
  5
51
330
1F
100
AcDbEntity
  8
0
  6
Continuous
 62
     7
370
    15
100
AcDbLine
 10
104.9997409949
 20
-89.2003533775
 30
0.0
 11
104.9997409949
 21
89.2003533775
 31
0.0
  0
LINE
  5
52
330
1F
100
AcDbEntity
  8
0
  6
Continuous
 62
     7
370
    15
100
AcDbLine
 10
35.0001941957
 20
-89.2003533775
 30
0.0
 11
104.9997409949
 21
-89.2003533775
 31
0.0
  0
LINE
  5
53
330
1F
100
AcDbEntity
  8
0
  6
Continuous
 62
     7
370
    15
100
AcDbLine
 10
35.0028313264
 20
-67.4435466225
 30
0.0
 11
35.0001941957
 21
-89.2003533775
 31
0.0
  0
LINE
  5
54
330
1F
100
AcDbEntity
  8
0
  6
Continuous
 62
     7
370
    15
100
AcDbLine
 10
-34.9998058043
 20
-89.2003533775
 30
0.0
 11
-34.9971686736
 21
-67.4435466225
 31
0.0
  0
LINE
  5
55
330
1F
100
AcDbEntity
  8
0
  6
Continuous
 62
     7
370
    15
100
AcDbLine
 10
-104.9992877885
 20
-89.2003533775
 30
0.0
 11
-34.9998058043
 21
-89.2003533775
 31
0.0
  0
LINE
  5
56
330
1F
100
AcDbEntity
  8
0
  6
Continuous
 62
     7
370
    15
100
AcDbLine
 10
-105.0001941957
 20
89.2003533775
 30
0.0
 11
-104.9992877885
 21
-89.2003533775
 31
0.0
  0
ARC
  5
57
330
1F
100
AcDbEntity
  8
0
  6
Continuous
 62
     7
370
    15
100
AcDbCircle
 10
0.0028313264
 20
-67.4435466225
 30
0.0
 40
35.00000000000001
100
AcDbArc
 50
0.0
 51
180.0
  0
CIRCLE
  5
58
330
1B
100
AcDbEntity
 67
     1
  8
0
  6
Continuous
 62
     7
370
    15
100
AcDbCircle
 10
87.0001941957
 20
-67.4435466225
 30
0.0
 40
2.5
  0
CIRCLE
  5
59
330
1B
100
AcDbEntity
 67
     1
  8
0
  6
Continuous
 62
     7
370
    15
100
AcDbCircle
 10
-51.9998058043
 20
-67.4435466225
 30
0.0
 40
2.499999999999986
  0
CIRCLE
  5
62
330
1B
100
AcDbEntity
 67
     1
  8
0
  6
Continuous
 62
     7
370
    15
100
AcDbCircle
 10
52.0001941957
 20
-67.4435466225
 30
0.0
 40
2.5
  0
CIRCLE
  5
63
330
1B
100
AcDbEntity
 67
     1
  8
0
  6
Continuous
 62
     7
370
    15
100
AcDbCircle
 10
-86.9998058043
 20
-67.4435466225
 30
0.0
 40
2.500000000000014
  0
LINE
  5
64
330
1B
100
AcDbEntity
 67
     1
  8
0
  6
Continuous
 62
     7
370
    15
100
AcDbLine
 10
104.9997409949
 20
89.2003533775
 30
0.0
 11
-105.0001941957
 21
89.2003533775
 31
0.0
  0
LINE
  5
65
330
1B
100
AcDbEntity
 67
     1
  8
0
  6
Continuous
 62
     7
370
    15
100
AcDbLine
 10
104.9997409949
 20
-89.2003533775
 30
0.0
 11
104.9997409949
 21
89.2003533775
 31
0.0
  0
LINE
  5
66
330
1B
100
AcDbEntity
 67
     1
  8
0
  6
Continuous
 62
     7
370
    15
100
AcDbLine
 10
35.0001941957
 20
-89.2003533775
 30
0.0
 11
104.9997409949
 21
-89.2003533775
 31
0.0
  0
LINE
  5
67
330
1B
100
AcDbEntity
 67
     1
  8
0
  6
Continuous
 62
     7
370
    15
100
AcDbLine
 10
35.0028313264
 20
-67.4435466225
 30
0.0
 11
35.0001941957
 21
-89.2003533775
 31
0.0
  0
LINE
  5
68
330
1B
100
AcDbEntity
 67
     1
  8
0
  6
Continuous
 62
     7
370
    15
100
AcDbLine
 10
-34.9998058043
 20
-89.2003533775
 30
0.0
 11
-34.9971686736
 21
-67.4435466225
 31
0.0
  0
LINE
  5
69
330
1B
100
AcDbEntity
 67
     1
  8
0
  6
Continuous
 62
     7
370
    15
100
AcDbLine
 10
-104.9992877885
 20
-89.2003533775
 30
0.0
 11
-34.9998058043
 21
-89.2003533775
 31
0.0
  0
LINE
  5
6A
330
1B
100
AcDbEntity
 67
     1
  8
0
  6
Continuous
 62
     7
370
    15
100
AcDbLine
 10
-105.0001941957
 20
89.2003533775
 30
0.0
 11
-104.9992877885
 21
-89.2003533775
 31
0.0
  0
ARC
  5
6B
330
1B
100
AcDbEntity
 67
     1
  8
0
  6
Continuous
 62
     7
370
    15
100
AcDbCircle
 10
0.0028313264
 20
-67.4435466225
 30
0.0
 40
35.00000000000001
100
AcDbArc
 50
0.0
 51
180.0
  0
VIEWPORT
  5
144
330
1B
100
AcDbEntity
 67
     1
  8
0
100
AcDbViewport
 10
0.0
 20
0.0
 30
0.0
 40
243.84
 41
204.216
 68
     1
 69
     1
 12
-0.0002266004
 22
0.0
 13
0.0
 23
0.0
 14
10.0
 24
10.0
 15
10.0
 25
10.0
 16
0.0
 26
0.0
 36
1.0
 17
0.0
 27
0.0
 37
0.0
 42
50.0
 43
0.0
 44
0.0
 45
181.96872089
 50
0.0
 51
0.0
 72
   100
 90
   557152
  1

281
     0
 71
     1
 74
     0
110
0.0
120
0.0
130
0.0
111
1.0
121
0.0
131
0.0
112
0.0
122
1.0
132
0.0
 79
     0
146
0.0
  0
ENDSEC
  0
SECTION
  2
OBJECTS
  0
DICTIONARY
  5
C
330
0
100
AcDbDictionary
281
     1
  3
ACAD_GROUP
350
D
  3
ACAD_LAYOUT
350
1A
  3
ACAD_MLINESTYLE
350
17
  3
ACAD_PLOTSETTINGS
350
19
  3
ACAD_PLOTSTYLENAME
350
E
  0
DICTIONARY
  5
D
102
{ACAD_REACTORS
330
C
102
}
330
C
100
AcDbDictionary
281
     1
  0
DICTIONARY
  5
1A
102
{ACAD_REACTORS
330
C
102
}
330
C
100
AcDbDictionary
281
     1
  3
_Back
350
85
  3
_Bottom
350
A9
  3
_Dimetric
350
119
  3
_Front
350
26
  3
_Isometric
350
C1
  3
_Left
350
91
  3
_Right
350
9D
  3
_Top
350
1E
  3
_Trimetric
350
ED
  3
Model
350
22
  0
DICTIONARY
  5
17
102
{ACAD_REACTORS
330
C
102
}
330
C
100
AcDbDictionary
281
     1
  3
Standard
350
18
  0
DICTIONARY
  5
19
102
{ACAD_REACTORS
330
C
102
}
330
C
100
AcDbDictionary
281
     1
  0
ACDBDICTIONARYWDFLT
  5
E
102
{ACAD_REACTORS
330
C
102
}
330
C
100
AcDbDictionary
281
     1
  3
Normal
350
F
100
AcDbDictionaryWithDefault
340
F
  0
LAYOUT
  5
85
102
{ACAD_REACTORS
330
1A
102
}
330
1A
100
AcDbPlotSettings
  1

  2
none_device
  4

  6

 40
0.0
 41
0.0
 42
0.0
 43
0.0
 44
0.0
 45
0.0
 46
0.0
 47
0.0
 48
0.0
 49
0.0
140
0.0
141
0.0
142
1.0
143
1.0
 70
   688
 72
     0
 73
     0
 74
     5
  7

 75
    16
147
1.0
148
0.0
149
0.0
100
AcDbLayout
  1
_Back
 70
     1
 71
     3
 10
0.0
 20
0.0
 11
0.0
 21
0.0
 12
0.0
 22
0.0
 32
0.0
 14
0.0
 24
0.0
 34
0.0
 15
0.0
 25
0.0
 35
0.0
146
0.0
 13
0.0
 23
0.0
 33
0.0
 16
1.0
 26
0.0
 36
0.0
 17
0.0
 27
1.0
 37
0.0
 76
     0
330
84
331
146
  0
LAYOUT
  5
A9
102
{ACAD_REACTORS
330
1A
102
}
330
1A
100
AcDbPlotSettings
  1

  2
none_device
  4

  6

 40
0.0
 41
0.0
 42
0.0
 43
0.0
 44
0.0
 45
0.0
 46
0.0
 47
0.0
 48
0.0
 49
0.0
140
0.0
141
0.0
142
1.0
143
1.0
 70
   688
 72
     0
 73
     0
 74
     5
  7

 75
    16
147
1.0
148
0.0
149
0.0
100
AcDbLayout
  1
_Bottom
 70
     1
 71
     6
 10
0.0
 20
0.0
 11
0.0
 21
0.0
 12
0.0
 22
0.0
 32
0.0
 14
0.0
 24
0.0
 34
0.0
 15
0.0
 25
0.0
 35
0.0
146
0.0
 13
0.0
 23
0.0
 33
0.0
 16
1.0
 26
0.0
 36
0.0
 17
0.0
 27
1.0
 37
0.0
 76
     0
330
A8
331
149
  0
LAYOUT
  5
119
102
{ACAD_REACTORS
330
1A
102
}
330
1A
100
AcDbPlotSettings
  1

  2
none_device
  4

  6

 40
0.0
 41
0.0
 42
0.0
 43
0.0
 44
0.0
 45
0.0
 46
0.0
 47
0.0
 48
0.0
 49
0.0
140
0.0
141
0.0
142
1.0
143
1.0
 70
   688
 72
     0
 73
     0
 74
     5
  7

 75
    16
147
1.0
148
0.0
149
0.0
100
AcDbLayout
  1
_Dimetric
 70
     1
 71
     9
 10
0.0
 20
0.0
 11
0.0
 21
0.0
 12
0.0
 22
0.0
 32
0.0
 14
0.0
 24
0.0
 34
0.0
 15
0.0
 25
0.0
 35
0.0
146
0.0
 13
0.0
 23
0.0
 33
0.0
 16
1.0
 26
0.0
 36
0.0
 17
0.0
 27
1.0
 37
0.0
 76
     0
330
118
331
14C
  0
LAYOUT
  5
26
102
{ACAD_REACTORS
330
1A
102
}
330
1A
100
AcDbPlotSettings
  1

  2
none_device
  4

  6

 40
0.0
 41
0.0
 42
0.0
 43
0.0
 44
0.0
 45
0.0
 46
0.0
 47
0.0
 48
0.0
 49
0.0
140
0.0
141
0.0
142
1.0
143
1.0
 70
   688
 72
     0
 73
     0
 74
     5
  7

 75
    16
147
1.0
148
0.0
149
0.0
100
AcDbLayout
  1
_Front
 70
     1
 71
     2
 10
0.0
 20
0.0
 11
0.0
 21
0.0
 12
0.0
 22
0.0
 32
0.0
 14
0.0
 24
0.0
 34
0.0
 15
0.0
 25
0.0
 35
0.0
146
0.0
 13
0.0
 23
0.0
 33
0.0
 16
1.0
 26
0.0
 36
0.0
 17
0.0
 27
1.0
 37
0.0
 76
     0
330
23
331
145
  0
LAYOUT
  5
C1
102
{ACAD_REACTORS
330
1A
102
}
330
1A
100
AcDbPlotSettings
  1

  2
none_device
  4

  6

 40
0.0
 41
0.0
 42
0.0
 43
0.0
 44
0.0
 45
0.0
 46
0.0
 47
0.0
 48
0.0
 49
0.0
140
0.0
141
0.0
142
1.0
143
1.0
 70
   688
 72
     0
 73
     0
 74
     5
  7

 75
    16
147
1.0
148
0.0
149
0.0
100
AcDbLayout
  1
_Isometric
 70
     1
 71
     7
 10
0.0
 20
0.0
 11
0.0
 21
0.0
 12
0.0
 22
0.0
 32
0.0
 14
0.0
 24
0.0
 34
0.0
 15
0.0
 25
0.0
 35
0.0
146
0.0
 13
0.0
 23
0.0
 33
0.0
 16
1.0
 26
0.0
 36
0.0
 17
0.0
 27
1.0
 37
0.0
 76
     0
330
C0
331
14A
  0
LAYOUT
  5
91
102
{ACAD_REACTORS
330
1A
102
}
330
1A
100
AcDbPlotSettings
  1

  2
none_device
  4

  6

 40
0.0
 41
0.0
 42
0.0
 43
0.0
 44
0.0
 45
0.0
 46
0.0
 47
0.0
 48
0.0
 49
0.0
140
0.0
141
0.0
142
1.0
143
1.0
 70
   688
 72
     0
 73
     0
 74
     5
  7

 75
    16
147
1.0
148
0.0
149
0.0
100
AcDbLayout
  1
_Left
 70
     1
 71
     4
 10
0.0
 20
0.0
 11
0.0
 21
0.0
 12
0.0
 22
0.0
 32
0.0
 14
0.0
 24
0.0
 34
0.0
 15
0.0
 25
0.0
 35
0.0
146
0.0
 13
0.0
 23
0.0
 33
0.0
 16
1.0
 26
0.0
 36
0.0
 17
0.0
 27
1.0
 37
0.0
 76
     0
330
90
331
147
  0
LAYOUT
  5
9D
102
{ACAD_REACTORS
330
1A
102
}
330
1A
100
AcDbPlotSettings
  1

  2
none_device
  4

  6

 40
0.0
 41
0.0
 42
0.0
 43
0.0
 44
0.0
 45
0.0
 46
0.0
 47
0.0
 48
0.0
 49
0.0
140
0.0
141
0.0
142
1.0
143
1.0
 70
   688
 72
     0
 73
     0
 74
     5
  7

 75
    16
147
1.0
148
0.0
149
0.0
100
AcDbLayout
  1
_Right
 70
     1
 71
     5
 10
0.0
 20
0.0
 11
0.0
 21
0.0
 12
0.0
 22
0.0
 32
0.0
 14
0.0
 24
0.0
 34
0.0
 15
0.0
 25
0.0
 35
0.0
146
0.0
 13
0.0
 23
0.0
 33
0.0
 16
1.0
 26
0.0
 36
0.0
 17
0.0
 27
1.0
 37
0.0
 76
     0
330
9C
331
148
  0
LAYOUT
  5
1E
102
{ACAD_REACTORS
330
1A
102
}
330
1A
100
AcDbPlotSettings
  1

  2
none_device
  4

  6

 40
0.0
 41
0.0
 42
0.0
 43
0.0
 44
0.0
 45
0.0
 46
0.0
 47
0.0
 48
0.0
 49
0.0
140
0.0
141
0.0
142
1.0
143
1.0
 70
   688
 72
     0
 73
     0
 74
     5
  7

 75
    16
147
1.0
148
0.0
149
0.0
100
AcDbLayout
  1
_Top
 70
     1
 71
     1
 10
0.0
 20
0.0
 11
420.0
 21
297.0
 12
0.0
 22
0.0
 32
0.0
 14
-105.0001941957
 24
-89.2003533775
 34
0.0
 15
104.9997409949
 25
89.2003533775
 35
0.0
146
0.0
 13
0.0
 23
0.0
 33
0.0
 16
1.0
 26
0.0
 36
0.0
 17
0.0
 27
1.0
 37
0.0
 76
     0
330
1B
331
144
  0
LAYOUT
  5
ED
102
{ACAD_REACTORS
330
1A
102
}
330
1A
100
AcDbPlotSettings
  1

  2
none_device
  4

  6

 40
0.0
 41
0.0
 42
0.0
 43
0.0
 44
0.0
 45
0.0
 46
0.0
 47
0.0
 48
0.0
 49
0.0
140
0.0
141
0.0
142
1.0
143
1.0
 70
   688
 72
     0
 73
     0
 74
     5
  7

 75
    16
147
1.0
148
0.0
149
0.0
100
AcDbLayout
  1
_Trimetric
 70
     1
 71
     8
 10
0.0
 20
0.0
 11
0.0
 21
0.0
 12
0.0
 22
0.0
 32
0.0
 14
0.0
 24
0.0
 34
0.0
 15
0.0
 25
0.0
 35
0.0
146
0.0
 13
0.0
 23
0.0
 33
0.0
 16
1.0
 26
0.0
 36
0.0
 17
0.0
 27
1.0
 37
0.0
 76
     0
330
EC
331
14B
  0
LAYOUT
  5
22
102
{ACAD_REACTORS
330
1A
102
}
330
1A
100
AcDbPlotSettings
  1

  2
none_device
  4
ANSI_A_(11.00_x_8.50_Inches)
  6

 40
6.35
 41
19.05
 42
6.35000508
 43
19.05000254
 44
279.4
 45
215.9
 46
133.3502689488
 47
88.89999873
 48
0.0
 49
0.0
140
0.0
141
0.0
142
0.0471690956
143
1.0
 70
  1696
 72
     0
 73
     0
 74
     0
  7

 75
     0
147
0.0179189148
148
0.0
149
0.0
100
AcDbLayout
  1
Model
 70
     1
 71
     0
 10
0.0
 20
0.0
 11
420.0
 21
297.0
 12
0.0
 22
0.0
 32
0.0
 14
-105.0001941957
 24
-89.2003533775
 34
0.0
 15
104.9997409949
 25
89.2003533775
 35
0.0
146
0.0
 13
0.0
 23
0.0
 33
0.0
 16
1.0
 26
0.0
 36
0.0
 17
0.0
 27
1.0
 37
0.0
 76
     0
330
1F
331
29
  0
MLINESTYLE
  5
18
102
{ACAD_REACTORS
330
17
102
}
330
17
100
AcDbMlineStyle
  2
Standard
 70
     0
  3

 62
   256
 51
90.0
 52
90.0
 71
     2
 49
0.5
 62
   256
  6
BYLAYER
 49
-0.5
 62
   256
  6
BYLAYER
  0
ACDBPLACEHOLDER
  5
F
102
{ACAD_REACTORS
330
E
102
}
330
E
  0
ENDSEC
  0
EOF
